<svg width="1185" height="617" viewBox="0 0 1185 617" fill="none" xmlns="http://www.w3.org/2000/svg">
<path d="M221.685 524.374C235.188 524.374 249.463 529.518 258.722 537.748L245.348 554.209C238.918 548.165 229.787 544.307 221.557 544.307C207.025 544.307 196.094 555.495 196.094 570.155C196.094 584.944 207.153 596.132 221.813 596.132C226.314 596.132 231.973 594.589 237.374 591.889V569.126H257.693V604.62C248.048 611.307 232.744 616.193 220.142 616.193C192.621 616.193 171.917 596.389 171.917 570.155C171.917 543.921 193.136 524.374 221.685 524.374ZM542.657 524.374C570.563 524.374 591.396 543.921 591.396 570.026C591.396 596.389 570.563 616.193 542.657 616.193C514.751 616.193 493.918 596.389 493.918 570.026C493.918 543.792 514.751 524.374 542.657 524.374ZM838.663 524.374C866.569 524.374 887.402 543.921 887.402 570.026C887.402 596.389 866.569 616.193 838.663 616.193C810.757 616.193 789.924 596.389 789.924 570.026C789.924 543.792 810.757 524.374 838.663 524.374ZM921.059 577.356C921.059 588.93 928.774 596.132 939.448 596.132C949.865 596.132 957.066 589.059 957.066 577.356V525.017H980.6V577.356C980.6 601.147 964.653 616.193 939.319 616.193C913.857 616.193 897.524 601.147 897.524 577.356V525.017H921.059V577.356ZM39.6094 525.017C62.6285 525.017 75.874 536.591 75.874 556.652C75.874 577.871 62.6284 590.217 39.6094 590.217H23.5342V615.165H0V525.017H39.6094ZM171.932 615.165H146.855L140.683 599.219H101.717L95.415 615.165H71.2383L109.947 525.017H134.124L171.932 615.165ZM344.391 543.792H296.809V560.639H339.761V579.286L296.809 579.414V596.39H345.676V615.165H273.274V525.017H344.391V543.792ZM460.208 579.286V525.017H482.07V615.165H461.494L420.6 561.153V615.165H398.609V525.017H419.313L460.208 579.286ZM669.492 544.436H642.486V615.165H618.952V544.436H592.204V525.017H669.492V544.436ZM784.854 543.792H741.13V563.854H781.511V582.629H741.13V615.165H717.597V525.017H784.982L784.854 543.792ZM1058.12 579.286V525.017H1079.98V615.165H1059.41L1018.51 561.153V615.165H996.522V525.017H1017.23L1058.12 579.286ZM1136.46 525.017C1165 525.017 1184.42 543.278 1184.42 570.026C1184.42 596.904 1164.75 615.165 1135.56 615.165H1097.62V525.017H1136.46ZM542.915 544.436C529.412 544.436 518.095 555.495 518.095 570.155C518.095 584.816 529.541 596.132 542.915 596.132C556.418 596.132 567.22 584.816 567.22 570.155C567.22 555.495 556.418 544.436 542.915 544.436ZM838.92 544.436C825.417 544.436 814.101 555.495 814.101 570.155C814.101 584.816 825.546 596.132 838.92 596.132C852.423 596.132 863.226 584.816 863.226 570.155C863.226 555.495 852.423 544.436 838.92 544.436ZM1121.15 596.132H1137.1C1150.73 596.132 1160.37 585.716 1160.38 570.284C1160.38 554.724 1150.22 544.178 1135.94 544.178H1121.15V596.132ZM108.789 581.215H133.738L121.393 549.064L108.789 581.215ZM23.5342 571.441H38.4512C47.9675 571.441 53.498 566.554 53.498 557.424C53.498 548.55 47.9675 543.792 38.4512 543.792H23.5342V571.441ZM576.79 0C676.039 0.000155942 731.302 71.0534 731.302 200.189C731.302 329.326 676.039 400.942 576.79 400.942C476.413 400.942 421.714 329.326 421.714 200.189C421.714 71.0533 476.413 0 576.79 0ZM175.741 234.024H249.614L249.05 150.565H343.788V234.024H394.54V312.408H343.788V398.123H249.05V312.408H70.29V243.047L187.584 2.25586H285.705L175.741 234.024ZM871.822 234.024H945.695L945.131 150.565H1039.87V234.024H1090.62V312.408H1039.87V398.123H945.131V312.408H766.37V243.047L883.664 2.25586H981.785L871.822 234.024ZM576.79 72.1807C536.752 72.1807 520.398 109.399 520.398 200.189C520.398 290.416 536.752 328.198 576.79 328.198C616.264 328.198 632.617 290.415 632.617 200.189C632.617 109.4 616.264 72.1809 576.79 72.1807Z" fill="url(#paint0_linear_165_139)"/>
<defs>
<linearGradient id="paint0_linear_165_139" x1="315.674" y1="-188.032" x2="666.501" y2="1162.19" gradientUnits="userSpaceOnUse">
<stop offset="0.200341" stop-color="#FF8817"/>
<stop offset="0.583973" stop-color="#FE431D"/>
</linearGradient>
</defs>
</svg>
