<svg width="32" height="32" viewBox="0 0 32 32" fill="none" xmlns="http://www.w3.org/2000/svg">
<path fill-rule="evenodd" clip-rule="evenodd" d="M16 17C17.0605 17 18.0776 16.5787 18.8277 15.8288C19.5778 15.0789 19.9995 14.0618 20 13.001C20 11.9399 19.5786 10.9222 18.8284 10.1719C18.0783 9.42153 17.0609 9 16 9C14.9391 9 13.9217 9.42153 13.1716 10.1719C12.4214 10.9222 12 11.9399 12 13.001C12.0005 14.0618 12.4222 15.0789 13.1723 15.8288C13.9224 16.5787 14.9395 17 16 17Z" stroke="#3D9BE9" stroke-width="2" stroke-linecap="square"/>
<path fill-rule="evenodd" clip-rule="evenodd" d="M27 14.1426C27 23.4287 17.8333 29 16 29C14.1667 29 5 23.4287 5 14.1426C5.00146 11.1866 6.16109 8.35213 8.22388 6.26259C10.2867 4.17306 13.0837 2.99951 16 3C22.0738 3 27 7.98964 27 14.1426Z" stroke="#3D9BE9" stroke-width="2" stroke-linecap="square"/>
</svg>
