<svg width="550" height="286" viewBox="0 0 550 286" fill="none" xmlns="http://www.w3.org/2000/svg">
<path d="M355.381 66.5297C369.042 74.1576 387.292 85.5764 396.502 79.8209C405.712 74.0655 411.468 67.5427 434.875 70.6122C458.283 73.6818 473.633 160.781 439.864 186.105C406.095 211.428 354.184 241.357 322.195 260.35C290.207 279.342 190.436 243.275 232.647 186.488C274.858 129.701 299.417 82.5068 320.906 78.2861C342.395 74.0655 341.885 58.994 355.381 66.5297Z" fill="white"/>
<path d="M375.882 129.893C384.823 138.603 394.328 146.745 400.188 147.125C409.551 147.735 401.109 149.27 403.028 152.34C404.946 155.409 419.912 173.059 427.97 165.001C441.977 150.997 427.637 84.6173 406.124 73.7779C406.124 73.7779 425.572 65.3174 437.71 67.5812C449.847 69.845 457.522 165.769 455.603 170.757C453.684 175.745 449.567 180.027 432 191.86C414.432 203.693 354.711 242.65 346.254 248.144C337.796 253.639 226.033 221.274 250.255 178.749C274.476 136.224 357.175 111.668 375.882 129.893Z" fill="black"/>
<path d="M299.076 266.416C292.445 266.416 285.197 265.557 277.706 263.818C258.903 259.448 242.329 250.527 232.237 239.335C225.568 231.937 221.953 223.864 221.493 215.335C220.975 205.781 224.47 195.885 231.88 185.917C244.344 169.149 255.338 153.118 265.035 138.975C288.355 104.969 305.201 80.3967 320.727 77.3463C330.32 75.4624 335.374 71.4029 339.43 68.1415C344.384 64.1625 347.96 61.2848 355.854 65.6935C357.086 66.3803 358.352 67.0978 359.649 67.8307C372.328 75.0096 388.103 83.942 396 79.0077C397.144 78.2902 398.253 77.5535 399.327 76.836C406.967 71.7405 414.182 66.929 435.007 69.6609C443.568 70.7851 451.554 82.4149 456.37 100.775C460.368 116.019 461.477 133.381 459.405 148.403C457.705 160.742 453.035 177.433 440.448 186.872C410.686 209.192 366.932 235.034 334.986 253.904C330.646 256.467 326.529 258.899 322.695 261.175C316.847 264.647 308.601 266.416 299.084 266.416H299.076ZM348.828 65.398C345.904 65.398 343.705 67.1669 340.627 69.6379C336.629 72.8532 331.149 77.2542 321.091 79.2264C306.337 82.1233 289.675 106.423 266.616 140.057C256.908 154.216 245.906 170.262 233.419 187.06C216.339 210.04 224.125 227.471 233.665 238.049C243.5 248.954 259.713 257.668 278.143 261.95C295.91 266.078 312.2 265.173 321.709 259.525C325.543 257.249 329.664 254.813 334.004 252.25C365.912 233.403 409.611 207.592 439.293 185.337C451.35 176.294 455.852 160.117 457.502 148.142C459.539 133.358 458.449 116.272 454.512 101.262C449.969 83.9459 442.398 72.5693 434.754 71.564C414.646 68.9242 408.038 73.3329 400.386 78.4322C399.304 79.1535 398.18 79.9017 397.013 80.6346C388.149 86.1751 371.821 76.9281 358.701 69.4998C357.408 68.7669 356.145 68.0532 354.918 67.3664C352.442 65.9851 350.516 65.398 348.831 65.398H348.828Z" fill="#3D9BE9"/>
<path d="M430.659 194.162C427.973 209.894 413.007 227.544 401.495 222.172C389.983 216.8 386.913 208.743 385.378 211.045C385.232 211.263 385.305 211.636 385.543 212.142C386.184 213.508 388.033 215.849 390.021 218.776C390.029 218.788 390.033 218.799 390.044 218.811C392.431 222.325 395.01 226.68 395.958 231.216C397.005 236.204 396.08 241.414 390.75 245.961C390.593 246.095 390.432 246.23 390.275 246.36H390.271C374.718 259.145 360.144 247.12 355.447 242.124C350.7 237.078 361.97 255.937 354.295 262.46C337.71 276.557 321.728 259.037 319.59 261.708C317.457 264.378 316.306 273.587 304.41 275.122C292.514 276.657 240.882 256.321 203.38 229.846C166.368 203.716 147.569 183.564 123.106 170.872C122.784 170.703 122.461 170.538 122.135 170.373C97.1924 157.711 132.496 22.6503 167.8 54.497C167.827 54.5239 167.857 54.5469 167.884 54.5738C170.463 56.8875 173.249 58.8059 176.173 60.2103C184.197 64.0587 193.257 64.0165 201.952 57.5666C213.848 48.7416 231.116 45.2884 260.664 31.4753C290.212 17.6623 302.253 39.7286 317.722 53.25C333.19 66.7753 357.749 73.2981 323.98 79.0535C290.212 84.809 317.073 98.622 341.248 107.063C365.424 115.505 370.412 125.097 388.832 144.665C403.747 160.512 423.698 172.836 429.32 185.306C430.64 188.234 431.169 191.169 430.659 194.162Z" fill="white"/>
<path d="M390.27 246.36C374.717 259.145 360.143 247.12 355.446 242.124C350.699 237.079 361.969 255.938 354.295 262.46C337.71 276.557 321.727 259.038 319.59 261.708C317.456 264.379 316.305 273.587 304.409 275.122C292.513 276.657 240.882 256.321 203.379 229.846C166.368 203.717 147.569 183.565 123.105 170.872L145.489 98.6224L167.884 54.5742C170.462 56.8879 173.248 58.8064 176.172 60.2107C179.154 86.5936 161.633 121.026 151.299 146.201C143.359 165.543 143.816 177.856 159.549 186.68C175.282 195.505 178.862 195.264 187.753 201.453C202.911 212.004 222.67 204.135 236.488 210.661C250.302 217.184 242.179 228.1 261.431 224.091C279.85 220.254 288.918 229.827 290.978 241.357C292.897 252.101 304.217 245.002 306.52 251.909C308.822 258.815 308.365 263.707 313.009 263.945C317.648 264.187 319.555 260.158 316.301 257.376C313.043 254.595 309.973 251.909 323.02 257.28C336.067 262.652 356.022 268.791 354.103 253.06C352.184 237.328 347.836 228.837 354.233 235.962C360.626 243.084 376.172 251.56 390.27 246.36Z" fill="black"/>
<path d="M303.039 276.158C288.607 276.158 239.477 256.501 202.827 230.629C187.285 219.659 174.956 209.744 164.077 200.996C148.52 188.487 136.237 178.607 121.701 171.229C117.277 168.984 112.15 161.993 112.852 141.45C113.424 124.779 117.802 104.289 124.564 86.6355C132.108 66.9404 141.375 53.9255 150.658 49.9888C156.786 47.3912 162.768 48.665 168.44 53.7835C174.376 59.1399 180.75 61.8411 187.021 61.8411C191.959 61.8411 196.829 60.1682 201.376 56.7917C208.256 51.6886 216.718 48.4272 228.429 43.9111C236.952 40.6266 247.563 36.5364 260.253 30.6045C285.007 19.0323 297.774 32.0127 310.123 44.5633C312.79 47.2722 315.545 50.0732 318.35 52.525C322.268 55.9476 326.8 58.9366 330.799 61.5725C337.61 66.0618 342.533 69.304 341.812 72.7381C341.163 75.823 335.879 77.9947 324.137 79.9938C311.32 82.177 309.175 85.2696 309.037 86.9195C308.642 91.6389 321.105 99.0097 341.559 106.15C361.605 113.149 368.789 121.13 380.692 134.352C383.278 137.226 386.21 140.479 389.522 144.002C395.251 150.091 401.675 155.605 407.884 160.942C421.648 172.764 433.532 182.978 431.595 194.32C429.607 205.969 421.168 218.45 412.385 222.732C408.309 224.72 404.384 224.816 401.034 223.012C398.39 221.589 396.586 220.369 395.274 219.475C394.553 218.987 393.958 218.581 393.555 218.381C393.359 218.512 393.064 218.753 392.81 218.957C392.538 219.175 392.231 219.421 391.893 219.674C391.863 219.697 391.824 219.724 391.778 219.755C392.001 220.346 392.553 221.286 393.133 222.272C396.252 227.578 402.058 237.458 391.367 246.686C385.899 251.406 380.55 253.094 375.696 253.094C366.49 253.094 359.065 247.016 355.972 244.024C355.983 244.062 355.995 244.096 356.006 244.135C357.514 249.18 360.327 258.573 354.721 263.377C342.825 273.572 330.764 267.402 324.287 264.087C322.756 263.304 320.887 262.337 320.277 262.376C319.897 262.882 319.509 263.715 319.06 264.67C317.291 268.461 314.329 274.804 304.524 276.07C304.079 276.127 303.58 276.154 303.032 276.154L303.039 276.158ZM156.728 50.6219C154.967 50.6219 153.19 50.9979 151.406 51.7576C142.607 55.491 133.708 68.1222 126.352 87.3262C119.663 104.788 115.331 125.047 114.767 141.519C114.245 156.76 117.016 166.705 122.564 169.521C137.277 176.992 149.633 186.926 165.274 199.503C176.13 208.232 188.437 218.128 203.928 229.063C240.962 255.208 292.678 275.659 304.283 274.17C313.039 273.042 315.618 267.517 317.326 263.864C317.848 262.748 318.297 261.789 318.838 261.109C319.95 259.717 322.023 260.776 325.162 262.383C331.67 265.71 342.56 271.281 353.474 261.923C358.132 257.932 355.553 249.315 354.172 244.687C353.405 242.12 353.117 241.161 354.022 240.639C354.901 240.133 355.726 241.015 356.332 241.66C358.101 243.54 362.917 248.141 369.387 250.186C376.67 252.488 383.647 250.823 390.12 245.236C399.599 237.056 394.518 228.411 391.483 223.246C390.581 221.715 389.932 220.607 389.794 219.736C389.652 218.888 390.389 218.385 390.669 218.197C390.696 218.178 390.723 218.159 390.746 218.143C391.068 217.902 391.356 217.671 391.613 217.464C392.553 216.708 393.175 216.209 393.931 216.466C394.56 216.678 395.274 217.161 396.352 217.894C397.634 218.761 399.388 219.954 401.947 221.328C404.771 222.847 408.002 222.744 411.548 221.013C419.699 217.038 427.845 204.921 429.71 194.001C431.464 183.73 419.96 173.846 406.64 162.404C400.393 157.036 393.931 151.488 388.133 145.326C384.802 141.788 381.866 138.523 379.272 135.645C367.177 122.212 360.515 114.81 340.933 107.973C328.024 103.464 306.466 94.7162 307.13 86.7698C307.464 82.8024 312.92 79.9707 323.818 78.1137C334.08 76.364 339.502 74.4263 339.935 72.3544C340.388 70.198 335.219 66.7908 329.743 63.1841C325.691 60.5135 321.102 57.49 317.088 53.9792C314.229 51.4814 311.447 48.6535 308.757 45.9178C302.797 39.8592 296.635 33.5973 289.156 30.3666C280.813 26.7676 271.627 27.416 261.07 32.3503C248.318 38.3091 237.677 42.4146 229.124 45.7106C217.554 50.173 209.193 53.396 202.523 58.3418C197.604 61.9908 192.335 63.8056 187.009 63.8056C180.294 63.8056 173.486 60.9241 167.158 55.2147C163.77 52.1567 160.282 50.6257 156.732 50.6257L156.728 50.6219ZM391.69 219.429C391.69 219.429 391.69 219.432 391.69 219.436C391.69 219.436 391.69 219.432 391.69 219.429Z" fill="#3D9BE9"/>
<path d="M247.618 272.82C266.958 292.998 285.159 284.3 296.322 274.339C307.481 264.379 305.179 253.251 297.888 249.798C290.597 246.345 281.003 251.333 266.421 256.705C251.839 262.076 249.537 255.937 243.013 256.321C236.49 256.705 238.792 263.611 247.618 272.82Z" fill="white"/>
<path d="M272.149 285.996C263.366 285.996 254.893 281.799 246.926 273.484C243.097 269.49 236.926 262.153 238.592 257.906C239.01 256.839 240.107 255.531 242.955 255.366C245.338 255.228 247.164 255.872 249.098 256.555C252.671 257.821 256.723 259.253 266.086 255.807C268.554 254.898 270.852 254.008 273.078 253.152C283.988 248.935 291.87 245.892 298.293 248.935C301.874 250.631 304.26 253.927 304.844 257.975C305.657 263.627 302.783 269.854 296.954 275.057C289.82 281.423 282.48 285.049 275.131 285.839C274.129 285.946 273.136 286 272.142 286L272.149 285.996ZM248.308 272.156C258.615 282.911 275.2 291.894 295.68 273.626C301.022 268.86 303.669 263.255 302.948 258.247C302.457 254.844 300.461 252.081 297.476 250.666C291.797 247.976 284.237 250.896 273.773 254.936C271.543 255.799 269.233 256.69 266.75 257.603C256.739 261.29 252.149 259.667 248.458 258.359C246.635 257.714 245.061 257.154 243.066 257.277C241.592 257.365 240.687 257.81 240.376 258.604C239.666 260.411 241.378 264.924 248.308 272.156Z" fill="black"/>
<path d="M293.247 248.144C288.293 248.263 289.843 248.54 287.149 251.855C284.456 255.17 278.918 263.841 259.183 266.846C242.628 269.367 238.461 261.704 245.341 270.33C252.222 278.959 257.16 280.444 260.062 282.194C274.421 290.861 291.259 281.261 300.903 269.175C310.55 257.088 298.205 248.026 293.247 248.144ZM293.174 266.846C290.768 265.476 287.909 263.228 290.979 266.297C294.049 269.367 294.049 270.901 287.188 274.524C280.323 278.142 273.711 275.506 275.246 271.285C276.781 267.064 280.235 264.762 285.461 259.732C290.684 254.702 297.514 253.627 299.126 257.146C302.672 264.877 295.584 268.216 293.174 266.846Z" fill="black"/>
<path d="M221.139 249.031C231.454 266.707 250.303 273.587 275.63 261.309C300.956 249.031 287.142 227.16 271.408 224.474C255.675 221.788 241.093 235.601 231.5 232.532C221.907 229.462 213.081 235.218 221.139 249.031Z" fill="white"/>
<path d="M251.673 268.461C238.522 268.461 227.62 262.046 220.31 249.514C215.207 240.766 217.175 236.058 218.802 234.028C221.389 230.805 226.366 229.88 231.792 231.619C235.944 232.946 241.278 230.79 247.456 228.296C254.701 225.368 262.916 222.053 271.57 223.53C280.925 225.127 289.202 233.069 290.415 241.61C291.09 246.36 290.123 255.35 276.048 262.172C267.364 266.381 259.156 268.461 251.673 268.461ZM221.968 248.547C227.118 257.372 234.39 263.227 242.997 265.476C252.414 267.935 263.254 266.243 275.211 260.446C284.832 255.784 289.555 249.188 288.515 241.879C287.41 234.113 279.828 226.884 271.247 225.418C263.131 224.033 255.184 227.241 248.177 230.072C241.654 232.708 236.02 234.984 231.208 233.445C226.627 231.979 222.348 232.681 220.299 235.229C218.019 238.069 218.614 242.796 221.968 248.547Z" fill="black"/>
<path d="M285.224 233.299C281.003 228.695 272.706 224.777 259.395 228.269C246.083 231.76 240.327 236.369 239.559 244.042C238.792 251.716 243.013 262.844 253.374 264.378C263.735 265.913 252.556 260.868 259.107 261.09C265.657 261.313 275.247 257.998 278.892 254.283C282.538 250.569 278.013 246.594 280.661 247.622C283.309 248.651 290.212 248.267 287.91 237.907C287.91 237.907 289.023 237.777 289.618 240.912C290.212 244.046 291.571 254.326 273.24 262.425C254.909 270.525 239.782 267.835 231.037 260.353C222.291 252.871 220.342 247.584 220.342 247.584C220.342 247.584 238.028 244.43 241.866 234.838C245.703 225.245 265.565 222.176 273.861 225.053C282.158 227.931 285.228 233.303 285.228 233.303H285.224V233.299Z" fill="black"/>
<path d="M188.522 207.208C202.486 210.001 210.012 209.126 221.524 208.743C233.036 208.359 250.304 214.498 243.78 232.532C237.257 250.565 199.106 254.671 187.674 234.393C176.243 214.114 180.848 205.673 188.522 207.208Z" fill="white"/>
<path d="M214.793 248.877C209.674 248.877 204.751 247.983 200.376 246.241C194.363 243.847 189.681 239.914 186.834 234.864C180.057 222.839 178.089 213.297 181.439 208.681C183.02 206.505 185.598 205.646 188.707 206.268C200.56 208.639 207.709 208.343 216.754 207.967C218.27 207.906 219.835 207.841 221.485 207.783C225.484 207.653 229.717 208.278 233.404 209.548C237.783 211.06 241.244 213.431 243.404 216.409C246.605 220.81 247.031 226.346 244.675 232.858C241.574 241.429 231.301 247.657 218.5 248.723C217.253 248.827 216.013 248.877 214.785 248.877H214.793ZM186.807 207.99C185.464 207.99 184.014 208.401 182.997 209.809C180.149 213.734 182.21 222.747 188.511 233.924C192.513 241.023 202.452 248.14 218.35 246.813C230.407 245.807 240.035 240.075 242.879 232.209C245.005 226.331 244.663 221.397 241.862 217.54C237.687 211.8 228.661 209.471 221.558 209.705C219.916 209.759 218.354 209.824 216.842 209.886C207.667 210.266 200.414 210.565 188.338 208.151C187.866 208.056 187.348 207.99 186.811 207.99H186.807Z" fill="black"/>
<path d="M232.652 211.045C227.28 208.359 206.942 207.975 196.581 221.021C186.22 234.067 198.116 242.124 206.174 242.892C214.233 243.659 208.158 236.365 210.046 232.915C211.934 229.466 205.791 241.357 216.535 241.357C227.28 241.357 232.092 238.537 234.955 234.45C237.641 230.613 238.792 232.148 242.245 230.613C245.699 229.078 243.397 218.531 241.862 216.516C240.327 214.502 243.78 216.417 244.932 221.405C246.083 226.393 246.751 244.883 217.637 247.918C188.522 250.953 182.137 222.813 182.068 221.919C181.999 221.025 187.44 220.99 187.406 216.018C187.371 211.045 186.865 209.767 185.583 207.143C184.301 204.518 186.408 206.31 191.113 207.143C195.817 207.975 214.141 207.737 223.013 208.432C231.885 209.126 232.652 211.045 232.652 211.045Z" fill="black"/>
<path d="M149.124 187.931C150.149 199.914 152.451 219.482 175.091 221.785C197.732 224.087 185.069 199.53 173.94 198.763C162.812 197.995 149.124 187.931 149.124 187.931Z" fill="white"/>
<path d="M177.877 222.894C176.991 222.894 176.032 222.844 174.992 222.74C150.928 220.292 149.063 198.491 148.165 188.016L147.984 185.909L149.688 187.16C149.822 187.26 163.284 197.067 174.002 197.808C179.424 198.18 184.685 203.471 187.079 208.505C189.067 212.687 189.144 216.593 187.287 219.229C186.055 220.979 183.434 222.894 177.877 222.894ZM150.256 189.892C151.277 200.927 154.063 218.684 175.184 220.829C180.445 221.366 184.09 220.43 185.717 218.12C187.164 216.068 187.03 212.864 185.345 209.326C182.874 204.131 177.939 199.998 173.871 199.718C164.804 199.093 154.312 192.62 150.256 189.892Z" fill="black"/>
<path d="M186.867 210.481C185.213 204.165 180.079 199.918 173.939 198.766C167.799 197.615 159.415 195.359 151.682 189.174C149.764 187.639 148.612 185.337 149.79 194.154C150.965 202.972 155.136 218.335 171.544 221.259C187.957 224.179 188.521 216.8 186.867 210.481ZM172.404 217.951C170.604 217.591 166.264 217.568 161.659 214.114C159.487 212.487 155.136 208.359 154.368 202.603C153.601 196.848 155.547 197.554 167.815 202.922C172.055 204.775 179.265 205.247 181.119 211.689C183.916 221.405 178.16 219.102 172.404 217.951Z" fill="black"/>
<path d="M399.961 67.9612C411.634 66.0696 438.028 87.7791 444.758 147.451C449.49 189.405 441.604 215.903 441.604 215.903C441.604 215.903 480.02 198.893 508.29 176.958C536.563 155.022 513.217 52.8168 487.664 52.1875C462.111 51.5582 441.289 49.3482 420.782 56.6038C400.276 63.8595 399.961 67.9612 399.961 67.9612Z" fill="#8EC5F2"/>
<path d="M440.092 217.621L440.683 215.63C440.702 215.565 442.655 208.908 444.01 197.24C445.257 186.473 446.235 169.115 443.806 147.563C441.638 128.343 437.294 111.725 430.894 98.1618C424.355 84.3104 417.313 77.1007 412.555 73.494C408 70.0407 403.464 68.3678 400.118 68.9127L398.913 69.1084L399.005 67.8921C399.182 65.6091 404.911 61.2081 420.464 55.7021C437.943 49.5169 455.61 50.1423 476.067 50.8637C479.824 50.998 483.707 51.1323 487.687 51.232C492.618 51.3548 497.537 54.8349 502.315 61.5841C506.57 67.5966 510.565 76.0763 513.865 86.1099C519.395 102.923 522.407 122.047 522.134 138.576C521.735 162.734 514.705 173.197 508.873 177.717C480.833 199.473 442.371 216.612 441.987 216.781L440.088 217.621H440.092ZM401.841 66.8944C405.371 67.0211 409.504 68.7707 413.71 71.9631C418.641 75.7003 425.924 83.1401 432.624 97.3407C439.113 111.092 443.519 127.917 445.71 147.344C449.685 182.582 444.712 207.262 443.035 214.195C450.99 210.527 483.327 195.11 507.698 176.198C515.469 170.17 519.917 156.794 520.216 138.538C520.484 122.216 517.507 103.322 512.042 86.7008C505.2 65.8969 496.079 53.35 487.637 53.1428C483.646 53.0431 479.755 52.9088 475.994 52.7745C455.733 52.0608 438.234 51.443 421.097 57.5054C409.308 61.6762 403.848 64.999 401.837 66.8906L401.841 66.8944Z" fill="black"/>
<path d="M426.868 48.6918C426.868 48.6918 464.033 56.7571 473.5 125.208C482.963 193.66 472.237 211.954 472.237 211.954C472.237 211.954 513.251 189.872 534.072 176.623C554.894 163.374 523.976 161.797 539.119 136.247C570.704 82.9558 522.714 105.333 530.285 64.0089C537.856 22.6849 504.732 57.3863 515.772 32.4653C526.812 7.54429 503.105 14.9573 472.356 26.3415C432.801 40.9833 426.868 48.6879 426.868 48.6879V48.6918Z" fill="#3D9BE9"/>
<path d="M117.891 203.309C130.623 160.696 187.604 102.374 171.422 45.7332C171.422 45.7332 156.925 40.3384 138.379 33.5969C119.833 26.8553 133.659 96.3042 104.664 133.726C75.6686 171.148 79.0378 173.17 87.1308 184.297C95.2238 195.424 117.891 203.309 117.891 203.309Z" fill="#8EC5F2"/>
<path d="M118.52 204.545L117.572 204.215C116.636 203.889 94.5251 196.103 86.3516 184.861C86.0906 184.5 85.8335 184.151 85.5841 183.81C81.8235 178.68 79.1066 174.973 81.2556 167.944C83.2778 161.321 89.6287 151.564 103.904 133.139C119.123 113.498 122.476 84.4097 124.929 63.1722C126.74 47.4676 128.048 36.1217 133.083 33.0099C134.675 32.0238 136.567 31.9202 138.705 32.6953C157.043 39.3601 171.61 44.7817 171.756 44.8354L172.209 45.0042L172.343 45.4724C183.325 83.9071 161.057 122.929 141.414 157.358C131.924 173.991 122.956 189.703 118.808 203.586L118.52 204.545ZM136.034 34.0996C135.316 34.0996 134.675 34.2799 134.092 34.6406C129.848 37.2651 128.516 48.7952 126.836 63.3909C124.361 84.8548 120.968 114.25 105.423 134.313C91.3018 152.539 85.043 162.123 83.0937 168.504C81.2287 174.616 83.4505 177.652 87.1344 182.678C87.3877 183.019 87.6448 183.372 87.9057 183.733C91.1214 188.157 97.3648 192.781 105.953 197.109C110.934 199.618 115.393 201.36 117.265 202.062C121.594 188.215 130.416 172.756 139.745 156.406C159.123 122.449 181.073 83.9762 170.628 46.4623C168.018 45.4915 154.564 40.5035 138.048 34.4987C137.319 34.2339 136.648 34.0996 136.034 34.0996Z" fill="black"/>
<path d="M152.746 77.6034C152.197 77.6034 151.618 77.5727 151.016 77.5152C146.085 77.0394 141.035 73.2945 141.388 67.3012C141.66 62.6738 145.682 57.352 156.115 57.5668L156.073 59.4853C147.006 59.2896 143.521 63.6369 143.299 67.4125C143.015 72.2087 147.155 75.213 151.196 75.6044C154.389 75.9113 156.595 75.3243 157.758 73.8509C159.742 71.3453 158.268 66.9405 158.253 66.8945L160.068 66.2691C160.145 66.4878 161.898 71.6984 159.27 75.0327C157.923 76.7401 155.732 77.5996 152.742 77.5996L152.746 77.6034Z" fill="black"/>
<path d="M140.939 121.583C137.896 121.583 134.745 119.683 131.572 115.935C128.341 112.117 127.286 105.69 132.604 100.598C136.929 96.4582 144.749 94.9234 151.691 101.339L150.39 102.747C144.323 97.145 137.754 98.3268 133.932 101.983C130.831 104.949 129.227 110.194 133.038 114.695C136 118.194 138.809 119.864 141.384 119.649C144.515 119.388 146.361 116.345 146.376 116.314L148.03 117.289C147.938 117.45 145.686 121.207 141.564 121.56C141.357 121.579 141.15 121.586 140.939 121.586V121.583Z" fill="black"/>
<path d="M153.881 72.0169C150.286 72.0169 146.84 69.7455 146.667 69.6303L147.734 68.0342C147.776 68.061 152.082 70.8889 155.432 69.8836L155.984 71.7215C155.293 71.9287 154.583 72.0169 153.881 72.0169Z" fill="black"/>
<path d="M141.737 114.361C140.782 114.361 137.8 113.92 134.884 108.882L136.545 107.919C139.243 112.57 141.783 112.443 141.806 112.439L142.021 114.346C141.975 114.354 141.879 114.361 141.741 114.361H141.737Z" fill="black"/>
<path d="M85.0623 202.964C93.4431 174.06 118.774 146.665 134.959 92.3831C151.142 38.1056 134.959 15.1529 134.959 15.1529C134.959 15.1529 111.694 12.8201 90.1161 5.06559C68.5387 -2.68889 33.1352 -3.3642 46.9574 16.1928C60.7795 35.7497 86.981 67.0247 51.6274 62.006C16.2739 56.9872 25.7176 72.1585 50.6643 95.7558C75.6109 119.353 59.1141 135.737 28.4191 133.277C-2.2721 130.818 -12.0497 160.485 18.9677 169.586C49.9889 178.688 82.027 213.412 85.0585 202.964H85.0623Z" fill="#3D9BE9"/>
<path d="M469.682 214.422L471.412 211.471C471.435 211.429 474.06 206.755 475.499 193.848C477.909 172.276 475.227 144.689 472.552 125.343C469.881 106.028 463.116 79.3685 446.067 62.0715C437.931 53.8182 429.819 50.3265 426.665 49.6321L425.191 49.3059L426.112 48.1088C426.362 47.7865 432.667 40.0167 472.026 25.4478L472.694 27.2473C442.26 38.5126 431.819 45.6915 428.749 48.2431C431.937 49.3174 439.263 52.4753 447.321 60.6058C453.48 66.8255 458.787 74.6835 463.097 83.9728C468.461 95.5412 472.283 109.37 474.455 125.078C482.05 180 476.762 202.696 474.214 209.798C483.335 204.848 515.914 187.045 533.562 175.814L534.591 177.433C513.98 190.548 473.105 212.58 472.694 212.798L469.682 214.422Z" fill="black"/>
<path d="M82.5261 205.861C78.493 205.861 71.6663 201.123 61.8772 194.331C49.4711 185.721 34.0257 175.004 18.7031 170.507L19.2442 168.666C34.8661 173.247 50.4496 184.063 62.9709 192.754C71.9311 198.974 80.3925 204.844 83.2283 203.839C83.5084 203.739 83.9037 203.513 84.1416 202.696C87.741 190.287 94.4104 178.201 102.131 164.211C112.745 144.98 124.775 123.183 134.039 92.1109C138.609 76.7861 143.367 54.221 140.106 33.7355C138.429 23.203 135.267 17.4783 134.399 16.0586C130.996 15.6788 109.56 13.0773 89.7902 5.97128L90.4387 4.16406C111.659 11.7919 134.822 14.1747 135.052 14.1977L135.489 14.2399L135.743 14.5967C135.911 14.8385 139.941 20.6591 141.974 33.2558C145.347 54.1365 140.52 77.0815 135.877 92.6519C126.552 123.919 113.943 146.772 103.808 165.132C96.141 179.026 89.5177 191.024 85.9797 203.225C85.5346 204.76 84.5829 205.385 83.8653 205.642C83.4585 205.788 83.0096 205.857 82.5184 205.857L82.5261 205.861Z" fill="black"/>
<path d="M296.736 107.064C286.92 122.764 265.653 136.608 248.769 127.783C231.885 118.958 241.094 109.366 252.606 93.2506C265.193 75.6313 264.502 69.4615 295.585 59.1017C326.667 48.7419 326.176 51.6158 358.656 68.2106C391.135 84.8093 381.434 125.301 358.656 115.413C335.877 105.525 323.214 99.0022 318.225 99.3859C312.653 99.8156 314.004 100.921 307.097 102.455C300.685 103.879 298.655 103.99 296.736 107.06V107.064Z" fill="white"/>
<path d="M360.317 116.272C347.918 107.063 333.574 100.924 328.586 98.2381C323.597 95.5522 323.213 91.7153 322.166 94.593C321.118 97.4707 314.387 94.7849 310.815 96.7149C307.242 98.6448 302.112 102.075 299.809 99.7729C297.507 97.4707 301.728 94.7849 292.135 107.83C282.541 120.876 267.192 129.701 254.456 126.632C241.719 123.562 236.877 115.888 245.319 103.023C245.319 103.023 232.702 116.632 244.191 124.893C255.68 133.154 269.836 133.676 284.629 120.753C299.422 107.831 296.973 104.761 302.802 103.61C308.631 102.459 315.608 97.7086 321.905 99.8918C328.202 102.075 340.865 107.063 347.389 110.516C353.912 113.97 360.317 116.272 360.317 116.272Z" fill="black"/>
<path d="M260.579 125.305C257.164 125.305 253.921 123.666 250.732 122.058C248.875 121.122 246.953 120.151 245.019 119.526L245.61 117.7C247.686 118.371 249.677 119.376 251.6 120.347C257.805 123.478 263.165 126.183 269.935 117.558C274.685 111.503 273.185 103.338 268.806 99.5087C266.903 97.8473 259.858 93.289 249.013 104.439L247.639 103.1C251.922 98.6953 256.197 96.1091 260.345 95.4146C264.021 94.8007 267.383 95.7139 270.069 98.0583C272.682 100.341 274.378 103.837 274.716 107.639C275.073 111.653 273.91 115.593 271.446 118.732C267.578 123.662 263.998 125.297 260.587 125.297L260.579 125.305Z" fill="#3D9BE9"/>
<path d="M260.111 131.467C256.051 131.467 252.06 130.588 248.319 128.631C242.774 125.73 239.658 122.538 238.798 118.87C237.336 112.627 242.428 105.625 248.879 96.7613C249.831 95.4529 250.817 94.0946 251.822 92.6903C253.883 89.8088 255.61 87.1919 257.133 84.8859C265.027 72.9453 268.991 66.9482 295.276 58.1884C309.122 53.5726 316.984 51.5045 324.214 52.2296C331.444 52.9548 337.982 56.3697 349.855 62.5702C352.58 63.9937 355.673 65.6091 359.088 67.3549C362.096 68.8935 364.571 70.2748 366.962 71.6101C371.732 74.2768 375.853 76.5789 382.457 79.1152C382.952 79.307 383.198 79.8595 383.01 80.3545C382.818 80.8495 382.266 81.095 381.771 80.907C375.04 78.3209 370.865 75.9881 366.03 73.2868C363.654 71.9592 361.195 70.5856 358.217 69.0662C354.794 67.3165 351.697 65.7012 348.969 64.2738C325.737 52.1414 323.308 50.8713 295.887 60.011C270.23 68.5635 266.627 74.0082 258.737 85.9449C257.202 88.2663 255.464 90.8946 253.384 93.8069C252.379 95.215 251.389 96.5771 250.433 97.8894C244.274 106.354 239.408 113.041 240.671 118.432C241.396 121.525 244.19 124.307 249.213 126.931C254.432 129.659 263.139 131.67 274.973 125.761C283.112 121.698 290.94 114.519 295.921 106.553C297.844 103.476 299.92 103.027 304.939 101.945C305.541 101.815 306.186 101.676 306.888 101.519C309.985 100.832 311.374 100.23 312.491 99.7503C313.888 99.1479 314.989 98.6721 318.151 98.4304C322.15 98.1196 329.859 101.573 343.873 107.831C348.324 109.818 353.37 112.075 359.034 114.534C359.483 114.73 360.262 115.183 361.164 115.704C362.02 116.203 362.99 116.763 363.739 117.139C364.211 117.377 364.406 117.953 364.169 118.425C363.931 118.897 363.355 119.089 362.883 118.854C362.081 118.455 361.083 117.876 360.201 117.362C359.422 116.909 358.62 116.445 358.271 116.291C352.595 113.828 347.541 111.572 343.086 109.581C330.266 103.856 321.793 100.076 318.293 100.341C315.449 100.56 314.575 100.94 313.247 101.511C312.057 102.026 310.572 102.663 307.299 103.392C306.593 103.549 305.944 103.687 305.338 103.817C300.499 104.861 299.037 105.176 297.544 107.566C289.302 120.746 274.278 131.463 260.111 131.463V131.467Z" fill="#3D9BE9"/>
<path d="M173.386 220.119C166.045 216.202 164.357 208.766 164.031 206.817C161.191 205.025 158.77 204.691 158.021 205.432C157.354 206.092 157.565 208.375 160.347 212.63L158.743 213.681C155.673 208.985 154.975 205.75 156.671 204.069C158.536 202.224 162.423 203.433 165.451 205.451L165.823 205.7L165.873 206.145C165.88 206.226 166.89 214.479 174.288 218.423L173.386 220.116V220.119Z" fill="#3D9BE9"/>
<path d="M219.29 243.371C215.357 243.371 212.21 242.224 210.395 240.018C208.323 237.501 208.219 233.948 210.103 230.011C214.109 221.639 218.653 218.504 221.178 219.133C222.191 219.386 224.57 221.336 229.75 225.725C232.329 227.912 235 230.172 236.869 231.573L237.51 232.052L237.153 232.77C237.084 232.904 235.453 236.119 232.548 237.777L231.596 236.112C233.258 235.16 234.459 233.514 235.042 232.589C233.196 231.154 230.817 229.144 228.511 227.187C225.556 224.685 221.516 221.259 220.698 220.986C219.973 220.802 216.07 221.976 211.834 230.832C210.291 234.059 210.307 236.887 211.876 238.794C214.125 241.526 219.148 242.209 225.311 240.616L225.79 242.473C223.473 243.072 221.281 243.367 219.29 243.367V243.371Z" fill="#3D9BE9"/>
<path d="M262.226 262.372C257.134 262.372 252.517 261.405 250.441 258.738C248.918 256.777 248.903 254.21 250.395 251.11C255.499 240.512 267.698 236.215 268.216 236.039L268.853 235.82L269.275 236.345C269.352 236.441 276.885 245.765 284.97 248.704L284.314 250.508C276.789 247.772 270.012 240.202 268.224 238.087C265.726 239.093 256.247 243.375 252.122 251.943C250.971 254.333 250.917 256.221 251.957 257.564C254.682 261.071 264.31 260.983 272.107 259.413L272.487 261.293C269.271 261.938 265.645 262.375 262.226 262.375V262.372Z" fill="#3D9BE9"/>
<path d="M280.044 278.959C275.546 278.959 273.973 277.121 273.443 275.579C272.097 271.654 276.203 265.745 278.689 263.811L279.867 265.326C277.672 267.034 274.299 272.152 275.262 274.957C275.738 276.339 277.346 277.041 280.048 277.041C287.35 277.041 293.593 271.853 296.552 268.906C296.533 268.906 296.514 268.906 296.494 268.906C291.072 268.906 287.726 263.811 286.613 260.672L288.421 260.031C288.555 260.411 291.675 268.856 298.839 266.608L301.828 265.668L299.879 268.12C299.791 268.231 297.68 270.863 294.2 273.522C289.545 277.079 284.652 278.959 280.048 278.959H280.044Z" fill="#3D9BE9"/>
<path d="M395.996 206.387C391.909 204.956 386.848 201.119 381.744 195.578C376.199 189.558 371.253 182.248 367.438 174.436L369.161 173.596C377.339 190.333 389.415 202.051 396.629 204.576L395.996 206.387Z" fill="#3D9BE9"/>
<path d="M392.861 213.347C389.123 208.363 391.28 203.014 391.372 202.788L393.145 203.524C393.072 203.708 391.33 208.106 394.396 212.196L392.861 213.347Z" fill="#3D9BE9"/>
<path d="M392.777 225.491C390.617 221.316 386.656 215.649 382.462 209.648C375.647 199.895 367.922 188.84 366.215 181.527L368.084 181.09C369.707 188.042 377.32 198.935 384.036 208.547C388.264 214.602 392.263 220.319 394.481 224.609L392.777 225.491Z" fill="#3D9BE9"/>
<path d="M356.751 244.231C346.463 233.345 342.967 222.345 342.825 221.881L344.659 221.313C344.694 221.424 348.182 232.371 358.148 242.915L356.755 244.231H356.751Z" fill="#3D9BE9"/>
<path d="M324.395 264.14C319.836 261.174 314.064 256.946 314.007 256.904L315.143 255.358C315.2 255.4 320.929 259.598 325.442 262.533L324.395 264.14Z" fill="#3D9BE9"/>
<path d="M412.746 208.843L411.979 207.085C412.021 207.066 416.246 205.209 420.394 202.255C424.097 199.615 428.498 195.536 428.452 191.104L430.371 191.085C430.475 201.008 413.471 208.532 412.746 208.846V208.843Z" fill="#3D9BE9"/>
<path d="M298.881 105.805L297.055 105.218C298.904 99.4548 296.241 95.2994 296.126 95.1229L297.726 94.0601C297.86 94.2634 301.026 99.1248 298.885 105.801L298.881 105.805Z" fill="#3D9BE9"/>
<path d="M319.99 100.003L318.501 98.7907C322.799 93.5149 323.593 87.6252 323.601 87.5676L325.504 87.8055C325.473 88.0664 324.648 94.2823 319.99 100.003Z" fill="#3D9BE9"/>
<path d="M398.832 151.123C395.958 151.123 393.126 149.961 390.394 147.659L391.629 146.193C394.373 148.506 397.182 149.496 399.983 149.128C405.071 148.464 408.54 143.588 408.575 143.542L410.148 144.643C409.987 144.873 406.154 150.26 400.236 151.035C399.768 151.096 399.3 151.127 398.836 151.127L398.832 151.123Z" fill="#3D9BE9"/>
<path d="M472.748 66.1962C465.987 66.1962 460.235 63.023 458.957 58.2345C457.288 51.9764 463.508 45.4383 475.596 40.7495L476.29 42.5375C459.862 48.9069 460.288 55.7827 460.81 57.7395C462.046 62.3669 468.627 65.1372 475.799 64.0436C480.07 63.3914 482.66 61.9602 483.497 59.7846C484.936 56.0359 480.895 51.0364 480.853 50.9865L482.334 49.7702C482.53 50.0081 487.123 55.6752 485.289 60.4676C484.191 63.3376 481.095 65.1794 476.087 65.9429C474.959 66.1156 473.838 66.2 472.748 66.2V66.1962Z" fill="white"/>
<path d="M487.429 99.5852C479.225 99.5852 473.227 94.3631 472.072 88.7074C471.04 83.6388 473.803 77.3117 484.658 74.7639L485.096 76.6325C478.856 78.0982 472.651 81.9352 473.952 88.3237C475.084 93.872 481.761 98.9175 490.58 97.3904C494.996 96.6269 497.54 95.2878 497.94 93.5266C498.554 90.8101 494.302 87.0997 492.609 85.8988L493.718 84.3333C493.788 84.3832 495.468 85.5803 497.057 87.2954C499.329 89.7472 500.253 91.9842 499.812 93.9487C499.214 96.6039 496.297 98.3458 490.906 99.2821C489.708 99.4893 488.55 99.5852 487.429 99.5852Z" fill="white"/>
<path d="M485.856 93.5265C483.768 93.5265 481.098 92.7591 479.352 89.9697L480.979 88.9529C483.273 92.6133 487.398 91.4124 487.441 91.4009L487.997 93.2349C487.445 93.4037 486.7 93.5265 485.86 93.5265H485.856Z" fill="white"/>
<path d="M471.826 59.9571C469.673 59.9571 466.964 59.0593 465.279 55.8017L466.983 54.9192C469.182 59.1705 473.299 57.8429 473.472 57.7815L474.098 59.5964C473.51 59.7998 472.716 59.9533 471.826 59.9533V59.9571Z" fill="white"/>
<path d="M441.243 84.6177C439.708 84.6177 437.973 84.3798 436.047 83.9002C427.002 81.6594 425.72 77.4694 425.763 75.1673C425.855 70.0373 432.52 64.7883 441.266 62.9619L441.657 64.8382C433.898 66.4612 427.758 71.0157 427.681 75.2018C427.628 78.187 430.763 80.6157 436.507 82.0354C441.185 83.1942 444.435 82.8412 446.17 80.9841C449.071 77.88 447.045 71.4071 447.026 71.3418L448.852 70.7548C448.952 71.0617 451.247 78.3634 447.578 82.2925C446.135 83.8388 444.013 84.6139 441.246 84.6139L441.243 84.6177Z" fill="black"/>
<path d="M455.644 119.917C449.386 119.917 446.5 117.458 445.172 115.336C443.284 112.316 443.411 108.145 445.518 104.182C448.123 99.2744 452.943 96.1128 458.097 95.9363L458.162 97.8548C452.82 98.0428 449.006 101.711 447.214 105.084C445.433 108.437 445.276 111.89 446.799 114.319C448.407 116.886 451.75 118.152 456.481 117.983C462.341 117.772 466.097 116.28 467.644 113.544C469.785 109.761 467.007 104.658 466.98 104.604L468.657 103.672C468.795 103.917 471.984 109.753 469.321 114.476C467.425 117.838 463.131 119.66 456.55 119.898C456.243 119.91 455.94 119.913 455.648 119.913L455.644 119.917Z" fill="black"/>
<path d="M117.128 59.1473C113.985 59.1473 110.62 57.6356 107.12 54.6543C101.471 49.8351 99.948 44.2484 103.041 39.7055C106.095 35.2278 113.448 32.8297 120.474 36.5784L119.572 38.2705C114.906 35.7803 107.864 36.0374 104.63 40.7875C102.143 44.4403 103.54 49.0753 108.367 53.1962C113.916 57.931 119.162 58.5373 122.397 54.8193C124.304 52.6322 124.618 49.7852 123.605 48.8873L124.879 47.4523C126.825 49.1789 126.338 53.2116 123.843 56.0778C122.124 58.0538 119.745 59.1435 117.143 59.1473H117.124H117.128Z" fill="white"/>
<path d="M109.853 99.3975C107.7 99.3975 105.052 98.7452 101.798 97.0761C96.4448 94.325 91.4562 89.1796 93.5092 82.9906C94.4225 80.2319 96.6405 77.9182 99.7487 76.4793C103.049 74.9484 107.063 74.5187 111.353 75.2362L111.038 77.1278C104.653 76.065 97.2046 77.9412 95.3281 83.5969C93.9083 87.8751 96.6558 92.2799 102.673 95.3725C107.692 97.9509 111.549 98.162 114.135 95.9941C117.128 93.4847 117.497 88.5082 117.266 87.7562C117.266 87.7562 117.301 87.8674 117.424 87.9902L118.782 86.6319C119.492 87.3417 119.208 89.525 119.051 90.4305C118.847 91.6161 118.295 93.8953 116.863 95.856C115.52 97.6977 113.337 99.4013 109.849 99.4051L109.853 99.3975Z" fill="white"/>
<path d="M106.751 93.4157C106.682 93.3582 105.001 91.9653 103.693 90.0507C101.298 86.5552 102.081 84.2147 103.159 82.8679L104.656 84.065C103.681 85.2814 103.885 86.9236 105.255 88.938C106.406 90.6339 107.956 91.9193 107.971 91.9346L106.751 93.4157Z" fill="white"/>
<path d="M112.343 53.3385C112.151 53.0776 107.703 46.9231 110.858 43.3164L112.3 44.5788C110.178 46.9999 113.851 52.1529 113.885 52.2066L112.339 53.3424L112.343 53.3385Z" fill="white"/>
<path d="M440.226 79.8439C439.271 79.8439 438.25 79.5791 437.226 78.8962L438.289 77.3C439.436 78.0636 440.614 78.1364 441.9 77.5225C442.897 77.0429 443.557 76.3177 443.565 76.3101L445 77.5839C444.137 78.5547 442.337 79.8439 440.23 79.8439H440.226Z" fill="black"/>
<path d="M456.694 114.358C454.02 114.358 450.938 113.291 449.522 109.511L451.318 108.836C453.26 114.012 459.097 112.094 459.346 112.009L459.972 113.824C459.108 114.124 457.945 114.354 456.694 114.354V114.358Z" fill="black"/>
<path d="M390.044 218.811C392.431 222.326 395.009 226.681 395.957 231.216C394.775 227.252 392.603 222.963 390.044 218.811Z" fill="black"/>
<path d="M430.659 194.162C427.973 209.894 413.007 227.544 401.495 222.172C389.983 216.8 386.913 208.743 385.378 211.045C385.233 211.264 385.306 211.636 385.543 212.142C384.764 211.072 383.982 210.036 383.206 209.038C373.291 196.273 364.465 183.611 364.465 172.867C364.465 162.124 366.384 175.549 373.483 183.227C380.582 190.901 390.221 201.023 396.914 203.828C403.606 206.633 401.687 208.029 396.315 206.18C390.943 204.33 390.559 209.702 395.547 213.923C400.536 218.143 413.583 218.527 422.025 207.016C430.467 195.505 419.823 206.395 426.872 194.619C428.771 191.446 429.408 188.265 429.32 185.307C430.64 188.234 431.17 191.17 430.659 194.162Z" fill="black"/>
</svg>
