<svg width="116" height="120" viewBox="0 0 116 120" fill="none" xmlns="http://www.w3.org/2000/svg">
<g clip-path="url(#clip0_12372_72125)">
<path d="M23.3396 75.712C23.657 75.9417 24.0185 76.0925 24.4086 76.16V76.2031C23.9943 76.2648 23.5531 76.1945 23.1716 76.0107C22.978 75.9202 22.7659 75.8369 22.6236 75.6689C22.4784 75.4994 22.3617 75.3056 22.3361 75.0744L22.3716 75.05C22.7745 75.2122 23.0321 75.4406 23.341 75.712H23.3396ZM25.2626 74.1927V74.1496C25.116 74.1065 24.9751 74.0433 24.8413 73.9701C24.7061 73.8997 24.5737 73.8236 24.4441 73.7446C24.3132 73.6671 24.2064 73.545 24.0598 73.5034C23.9004 73.4488 23.7467 73.4172 23.5659 73.4359L23.5431 73.4718C23.6798 73.8251 23.963 73.9888 24.3032 74.0591C24.6107 74.1568 24.9366 74.23 25.2626 74.1941V74.1927ZM52.6364 60.3725C53.1431 60.1973 53.6399 59.9762 54.0683 59.6301C55.2142 58.7254 55.7465 56.8945 54.4498 55.8735C52.652 54.4892 51.0407 55.8161 50.1425 57.4948L50.2037 57.5321C50.4443 57.1817 50.709 56.85 51.0023 56.5527C51.9289 55.605 53.1047 55.2934 54.1523 56.2296C54.743 56.738 54.7914 57.5852 54.3914 58.2257C54.0285 58.8331 53.4192 59.2338 52.7844 59.5353C52.1196 59.0198 51.3069 58.6838 50.4628 58.7139C50.1596 58.7226 49.8635 58.803 49.5931 58.9135L49.6102 58.9839C49.8977 58.981 50.1724 58.9782 50.4386 59.0428C51.2884 59.2209 52.057 59.7335 52.6349 60.3725H52.6364ZM91.7917 76.3969C91.786 76.0681 91.9853 75.7838 92.1903 75.5755C92.818 74.9236 93.7432 74.8374 94.5788 74.7096C95.8114 74.4899 95.1197 75.9159 94.6101 76.3093C94.2016 76.6755 93.6891 76.9168 93.1511 77.0187C92.6472 77.1408 91.8173 77.0963 91.7931 76.3969H91.7917ZM94.045 75.959C94.5161 75.7536 94.593 75.33 94.1218 75.5353C93.7518 75.6962 93.5738 76.1643 94.045 75.959ZM92.2871 76.3697C92.3411 76.5965 92.8023 76.4687 92.9888 76.4041C93.0144 76.3941 93.0386 76.3826 93.0642 76.3725C93.0642 76.3036 93.0258 76.2533 92.9433 76.2533C92.6586 76.2533 92.9134 75.7665 93.9397 75.2481C94.6457 74.892 93.9909 74.9279 94.1375 74.8461C93.6521 74.9638 93.1966 75.2252 92.818 75.5325C92.5476 75.7665 92.28 76.0437 92.2856 76.3697H92.2871ZM86.4439 80.0315L86.4909 80.0846C86.8653 80.0142 87.1556 79.8836 87.4417 79.7428C87.8631 79.5102 88.1947 79.144 88.6161 78.9042C88.8595 78.7391 89.2025 78.515 89.436 78.3413C89.574 78.2278 89.7306 78.1403 89.8004 77.9564L89.7335 77.932C89.6409 78.0397 89.4644 78.0871 89.3292 78.1431L88.8652 78.3068C88.5876 78.4059 88.2004 78.5524 87.9343 78.6744L87.4645 78.8726C86.9863 79.1024 86.6233 79.5002 86.4411 80.03L86.4439 80.0315ZM111.905 75.3975C109.172 76.5405 107.801 76.8162 105.64 77.7554C103.479 78.6945 101.252 80.0401 100.159 80.5168C99.0654 80.9922 97.5039 81.8236 96.0662 81.9055C95.2165 81.9629 94.3652 81.8839 93.5411 81.6814C92.6543 82.4296 91.7618 83.1706 90.8494 83.8886C90.1334 84.4271 89.4573 85.0187 88.6047 85.3792C87.7222 85.7453 87.177 85.2356 86.8425 84.4415C86.5308 83.7349 86.2162 82.9595 85.8888 82.2472C85.6155 82.3664 85.3152 82.4296 84.9992 82.4267C83.3352 82.4669 84.2106 80.1334 84.2319 79.1656C84.2647 78.7046 84.2462 78.2752 84.0768 77.8689C84.0127 77.6922 83.8476 77.2428 83.7821 77.0618C83.5558 76.4199 83.3238 75.7823 83.1032 75.139C83.0875 75.1146 83.0733 75.0916 83.0605 75.0701C82.6406 76.1184 82.0256 77.0747 81.2129 77.8487C80.6179 78.3959 79.9432 78.9545 79.139 79.1282C78.1753 79.2704 77.3896 78.4849 76.7604 77.8574C76.7206 77.8157 76.6807 77.7741 76.6423 77.7324C76.5298 77.8172 76.4174 77.9033 76.3064 77.9895C76.3163 78.0038 76.3263 78.0196 76.3362 78.034C76.9654 79.055 77.8821 80.3373 77.6543 81.6168C77.3469 82.938 76.2409 83.8699 75.0367 84.3122C73.9976 84.6999 72.2923 84.9728 71.3287 84.305C71.0582 84.0853 70.8063 83.8469 70.5714 83.5942C70.5714 83.5942 70.5714 83.5928 70.57 83.5913C70.6098 84.0868 70.4262 84.5764 70.2198 85.0173C69.5266 86.4476 68.1843 87.4169 66.5716 87.391C65.4585 87.3666 64.4393 86.7994 63.5639 86.1618C63.5568 86.1561 63.5497 86.1503 63.544 86.146C63.1924 87.516 61.8914 88.5384 60.5178 88.7322C59.8887 88.7725 59.2595 88.771 58.6346 88.7294C56.9522 90.1625 54.4498 91.1893 52.3787 90.0247C51.0791 89.311 49.9959 88.2914 49.028 87.1814C48.3433 86.9932 47.6885 86.6974 47.1007 86.3054C46.1285 85.6549 45.32 84.7746 44.7592 83.7522C43.6532 84.1399 42.5927 84.2576 41.8454 83.89C41.7814 83.8556 41.7187 83.8211 41.6575 83.7838C41.2846 83.6244 40.9871 83.3688 40.7167 83.05C39.7829 82.1381 39.1039 80.8902 38.6 79.7486C38.4378 79.3221 38.2456 78.8812 38.1844 78.4246C37.3688 78.8224 36.3738 78.841 35.5681 78.3973C35.228 78.2264 34.9262 77.9866 34.6273 77.754C33.4672 76.8507 32.3612 75.6919 31.9968 74.2142C31.8132 73.512 31.8061 72.7782 31.9356 72.0774C30.8082 71.5203 29.6681 70.9889 28.5251 70.4677L28.5393 70.4346C28.0312 71.1857 27.5273 71.9425 27.0561 72.7179C26.1067 74.2329 25.2441 75.7996 24.4883 77.4208C24.1168 78.225 23.8705 79.0909 23.6043 79.9482C23.3965 80.5886 23.2143 81.255 22.8485 81.8294C22.8058 81.8925 22.7588 81.9543 22.7076 82.0132C22.6919 82.197 22.5282 82.3808 22.1553 82.5359C21.761 82.7226 21.24 82.7498 20.8998 82.9896C21.1674 83.2697 21.6599 83.3817 21.8905 83.7594C22.0443 84.0408 21.8535 84.3567 21.5745 84.4314C21.2699 84.5233 20.9667 84.5046 20.6991 84.5018C20.2251 84.4845 19.7469 84.4142 19.2885 84.2677C18.8601 84.1227 18.4274 83.9259 18.1171 83.5842C17.5007 84.5736 17.0865 84.6439 16.584 84.5061C15.8012 84.2907 15.6631 84.5836 14.3792 84.2935C13.0967 84.0035 9.58224 82.678 6.00092 81.186C0.465252 78.8812 -1.42362 77.3978 1.85024 77.5414C5.1241 77.685 10.0064 79.3838 8.82498 77.3978C7.54391 75.2438 -0.00020525 61.3146 11.9565 62.1762C23.9132 63.0378 18.0772 56.0013 14.661 51.9805C10.3295 46.8827 10.6697 44.2533 14.0888 46.1776C17.5078 48.1033 23.2015 44.9441 15.9421 41.2104C8.68264 37.4768 12.6668 37.1063 17.6487 39.0148C22.6321 40.9232 28.2845 43.1778 30.0126 43.9173C31.7406 44.6569 31.8673 44.8952 32.0181 46.4275C32.169 47.9597 32.2288 50.4885 31.1314 53.82C30.0339 57.1501 28.0397 62.6687 25.1943 68.5247C22.4941 74.0792 21.0137 77.0934 19.6216 80.3833C19.6287 80.3862 19.6358 80.389 19.643 80.3919C19.7084 80.402 19.7796 80.4336 19.8664 80.4824C20.5753 80.7638 21.2927 80.995 22.0016 81.3023C22.3716 81.4546 22.6364 81.6671 22.6962 81.8897C22.8542 81.68 22.9609 81.4172 23.0606 81.1817C23.2214 80.7667 23.3438 80.3359 23.4663 79.9037C23.7097 79.0406 23.9331 78.1661 24.2918 77.3289C24.6534 76.5046 25.0349 75.6904 25.4462 74.8891C26.6632 72.4824 28.1778 70.2508 29.6268 67.9848C31.4459 64.9204 32.7469 61.5615 33.8942 58.1869C34.2529 57.1343 34.6102 56.0659 34.9461 55.0062C34.9945 54.8568 35.0842 54.5337 35.1198 54.3786C35.6436 52.2462 35.608 49.9931 35.2336 47.8347C35.1554 47.4212 35.0799 46.9789 34.8906 46.6156C34.7255 46.2666 34.3412 46.0886 33.9341 45.9148C33.1156 45.573 32.2815 45.2112 31.5114 44.7574L31.5427 44.6928C31.9541 44.8651 32.364 45.036 32.7811 45.1867C33.4658 45.4639 34.2145 45.5716 34.8536 45.9751C35.4158 46.3772 35.5625 47.1053 35.7219 47.7285C36.1389 49.5048 36.277 51.353 36.072 53.1867C36.0037 53.754 35.8927 54.3341 35.7503 54.8899C35.3988 56.086 34.9717 57.2492 34.5561 58.4224C33.2978 61.7927 31.9299 65.1444 30.0296 68.2103C30.1093 69.2916 31.453 70.5567 33.1626 71.3623C35.2977 72.3675 38.2413 73.8796 39.6164 75.2783C40.8006 76.4817 42.5472 75.903 44.5086 76.0408C44.7036 75.9906 44.9001 75.946 45.0994 75.9073C46.9526 75.4779 49.1248 76.4113 49.7767 78.2953C49.9176 78.6859 49.9646 79.1167 49.9247 79.5303C49.919 79.5748 49.9105 79.6193 49.9005 79.6624C50.3447 79.6093 50.7389 79.5648 51.0934 79.5332H51.0948C53.3025 78.5696 56.1408 78.3427 57.4931 80.7581C57.866 81.4072 57.9998 82.1482 57.9158 82.8618C58.693 83.2611 59.4218 83.5238 59.9442 83.4966C61.3462 83.4248 60.3499 85.0044 61.9156 85.866C63.0871 86.5107 62.7839 85.754 62.3341 85.1049C62.3312 85.102 62.3298 85.0992 62.327 85.0948C61.9982 84.7775 61.685 84.4458 61.3904 84.0954L61.443 84.0466C61.5042 84.104 61.5683 84.1614 61.6338 84.2217C61.7064 84.1485 62.4594 84.4759 64.7838 85.507C68.1786 87.0148 69.6021 85.5788 69.3174 83.712C69.2975 83.5784 69.2718 83.4492 69.2434 83.3228C69.2234 83.2323 69.2007 83.1419 69.1765 83.0543C68.7637 81.5637 67.8513 80.5384 67.605 79.2029C67.437 78.2896 67.4726 78.0268 67.6506 78.2135C67.6463 78.156 67.6449 78.0986 67.6449 78.0397H67.716C67.7217 78.1374 67.7331 78.2379 67.7516 78.3427C67.8641 78.5064 68.0093 78.7735 68.1786 79.1167C68.4975 79.7586 69.4142 81.0281 70.6041 81.973C70.6952 82.0462 70.7878 82.1166 70.8817 82.1855C71.7571 82.8202 72.7578 83.2524 73.7641 83.1376C75.8523 82.9006 76.8416 81.1832 76.6622 79.829C76.3875 79.325 76.0359 78.8468 75.7569 78.4303C75.7526 78.4246 75.7484 78.4188 75.7455 78.4131C75.6388 78.2623 75.5306 78.113 75.421 77.9622C74.1043 76.1413 72.6268 74.3018 71.8055 72.1909C71.8041 72.1894 71.8041 72.1866 71.8027 72.1851C71.6205 71.8089 71.4952 71.4786 71.4525 71.2187C71.4354 71.1182 71.4198 71.0205 71.4055 70.9258C71.4055 70.9214 71.4055 70.9186 71.4041 70.9157C71.3643 70.752 71.3287 70.5869 71.2988 70.4188C71.2063 69.7999 71.2034 69.1595 71.3457 68.5563L71.4169 68.5678C71.3998 68.8478 71.407 69.1236 71.4369 69.3964C71.6062 69.326 71.9578 69.7023 72.5912 70.7879C74.0147 73.2291 76.1498 74.0907 77.0038 74.5215C77.6244 74.8346 77.3739 75.3731 76.6323 75.3156C76.9469 75.6014 77.2387 75.8943 77.5561 76.1902C77.5889 76.2203 77.6216 76.2519 77.6558 76.2821L77.633 76.351C77.5504 76.3495 77.4693 76.3409 77.3882 76.3266C77.1789 76.2935 76.9754 76.2246 76.7903 76.1428C76.0971 75.8699 75.5477 75.3903 75.0239 74.8791C75.1221 75.2524 76.0146 76.2562 76.6366 76.654C76.6978 76.6928 76.7633 76.7358 76.833 76.7803C77.0067 76.8924 77.2017 77.0187 77.4138 77.1394C78.4002 77.7037 79.7482 78.1776 80.9054 76.776C82.4128 74.9523 82.5552 74.9523 81.8434 75.0959C81.8235 75.1002 81.8064 75.1031 81.7894 75.106C81.3111 75.4549 80.7802 75.7335 80.2222 75.9187L80.1923 75.8527C80.8713 75.3731 81.4947 74.8116 81.9801 74.1338C82.2776 73.6211 82.5794 73.2234 82.9779 72.7782C82.958 72.6719 82.9352 72.5671 82.9053 72.4623C82.7544 71.9424 82.4883 71.4499 82.1367 70.9947C81.6399 70.3341 81.0136 69.7812 80.3645 69.2456C79.6941 68.7042 79.0536 68.1327 78.4258 67.5483C77.1761 66.3779 75.9832 65.1487 74.8032 63.9094C73.8083 62.8597 72.3336 61.2069 71.3159 60.2016C70.728 59.6258 70.012 59.2252 69.2832 58.8461C68.5402 58.4583 67.7673 58.118 66.9901 57.7892C65.4813 57.1487 63.9354 56.6131 62.354 56.1909C61.9327 56.333 61.4886 56.4293 61.1114 56.5456C60.3143 56.7696 59.5627 57.0927 58.9805 57.68C58.5065 58.1309 58.1834 58.8863 57.7649 59.3889C57.3151 59.9676 56.7557 60.4903 56.1437 60.8909C54.6548 61.8803 52.7488 62.2422 51.0122 61.7927C50.3973 61.6535 49.8265 61.3505 49.3696 60.9067C48.7718 60.3323 48.4814 59.4449 48.6565 58.6249C48.7575 58.1625 48.9682 57.713 49.2301 57.3339C49.5646 56.8873 49.9105 56.4364 50.1938 55.9539C51.3724 54.0254 52.1837 51.643 54.1793 50.3578C54.6049 50.0606 55.2996 49.8581 55.7835 49.6728C58.0083 48.8744 60.1847 47.7859 62.5376 47.3982C61.1598 46.2953 59.7976 45.1824 58.3855 44.1298L58.0098 43.8527C57.2112 43.1806 56.1977 43.0701 55.1857 43.2955C52.7844 43.8642 50.5695 45.1623 48.2109 45.9249C45.878 46.7936 43.4866 47.5906 41.333 48.8572C41.0569 49.0266 40.8334 49.2033 40.5544 49.3914C39.9665 49.7317 39.2662 49.6728 38.6413 49.5221C37.7189 49.2909 36.8606 48.8543 36.0621 48.3474L36.1005 48.2871C37.1638 48.8816 38.3509 49.4474 39.5879 49.4201C39.8882 49.4057 40.1786 49.3268 40.422 49.1745C40.6583 49.0022 40.923 48.7811 41.1764 48.6145C42.7678 47.5748 44.5385 46.8626 46.2794 46.1374C48.0245 45.4337 49.7753 44.7804 51.4649 43.9489C53.1986 43.1749 55.0903 42.0864 57.0646 42.5847C57.7265 42.7599 58.2617 43.1993 58.7727 43.6344C60.1548 44.799 61.463 46.0469 62.6857 47.3795C62.8152 47.3594 62.9433 47.3408 63.0743 47.3264C63.9568 47.2115 64.8108 47.559 65.6094 47.9008C67.6904 48.8098 69.6618 49.9256 71.6817 50.948C72.698 51.4276 73.683 52.0121 74.7107 52.4616C75.3555 52.7459 76.0145 52.8766 76.6209 52.7344C76.6437 52.6727 76.6693 52.6095 76.6949 52.5463C76.5853 51.7163 77.0138 50.8805 77.6686 50.3808C78.2379 49.9227 79.2116 49.647 79.882 49.3813C80.6236 49.1056 81.3453 48.7725 82.1125 48.5743C82.7573 48.4048 83.4021 48.2584 84.0654 48.1808C84.4711 47.9008 86.4582 46.5869 90.2402 45.0072C94.5119 43.2223 97.8839 42.1079 100.04 41.5163C102.198 40.9247 103.622 41.4991 102.483 42.0735C101.344 42.6479 99.9209 43.7967 105.899 43.9403C111.878 44.0839 99.7785 51.9819 105.33 51.2639C110.881 50.5459 103.764 60.3108 108.461 58.3004C113.103 56.3129 114.569 58.9997 111.5 59.9417L111.516 60.0221C110.962 60.1327 110.37 60.3452 109.752 60.6238C106.5 62.2006 102.711 65.5149 108.746 64.906C115.863 64.188 112.305 65.9112 109.6 68.2088C106.896 70.5064 104.333 73.9529 109.031 73.522C113.728 73.0912 114.639 74.253 111.906 75.3946L111.905 75.3975ZM18.8316 82.2085C18.7761 82.3262 18.7234 82.4411 18.6708 82.5488C19.4565 83.093 20.0472 83.3515 20.3646 83.3228C20.3604 83.3171 20.3561 83.3128 20.3532 83.307C20.292 83.195 20.265 83.0959 20.2607 83.0055C19.865 82.7656 19.1391 82.4411 18.8316 82.2099V82.2085ZM21.8934 82.1209C21.8976 82.085 21.9048 82.0448 21.9162 81.9974C22.0585 81.423 19.354 80.9922 19.9234 81.7102C20.2024 82.062 20.6707 82.2271 21.0052 82.3248C21.129 82.2889 21.25 82.2616 21.3539 82.2458C21.5276 82.2085 21.7169 82.174 21.8948 82.1223L21.8934 82.1209ZM20.8514 83.0212C20.8514 83.0212 20.8472 83.0241 20.8457 83.0256C20.8415 83.0327 20.8457 83.0299 20.8514 83.0212ZM85.1444 81.4459C85.4006 81.1343 84.9735 79.9855 84.8312 80.4163C84.4597 81.5393 84.8881 81.7576 85.1444 81.4459ZM84.2618 75.9647C84.6575 78.1575 85.17 79.5389 85.1429 78.5409C85.1159 77.5443 83.9771 74.3851 84.2618 75.9647ZM94.2001 80.6504C95.1538 79.8692 96.0705 79.0277 97.0441 78.2767C97.8996 77.5974 98.8732 77.1968 99.7671 76.5965C99.8952 76.5018 100.022 76.4156 100.134 76.2864L100.103 76.2576C99.5365 76.4917 98.943 76.6683 98.375 76.9168C97.7914 77.1767 97.3032 77.596 96.8292 78.011C96.005 78.7305 94.9503 79.8319 94.1717 80.6202L94.2001 80.6518V80.6504ZM76.7761 52.3654C77.233 51.4233 78.1141 50.5158 79.2044 50.9724C79.7581 51.2079 80.1595 51.6646 80.5567 52.0954C80.9438 52.5334 81.2983 52.9972 81.6342 53.4725C83.6099 56.3517 85.2597 59.4923 86.2589 62.8583C86.4496 63.5375 86.5777 64.2282 86.6674 64.9232C87.0745 66.2645 87.2169 67.1132 87.1087 68.2117C86.9663 69.6477 86.7528 73.8121 87.1442 74.8891C87.5357 75.9661 86.7542 78.1201 86.2205 79.4126C86.0297 79.875 85.9941 80.3101 86.044 80.6935C86.1592 81.0769 86.3215 81.4617 86.498 81.8423C86.5806 81.9557 86.6646 82.0462 86.7357 82.1079C87.1101 82.4282 87.6795 83.0026 87.8218 84.0078C87.9641 85.013 89.2452 84.1514 89.3876 83.2898C89.5299 82.4282 91.9497 82.2846 93.3731 80.705C94.7965 79.1254 93.5155 77.8329 95.9353 76.1097C98.3551 74.3865 98.4974 73.0941 97.501 73.5249C96.5046 73.9557 99.7785 71.5145 98.9245 67.0629C98.0704 62.6113 94.8905 57.9399 92.2102 55.1771C89.6295 52.519 86.777 48.468 84.2761 48.3417C82.9694 49.1185 81.5189 49.5694 80.0528 49.9313C79.418 50.1309 78.4287 50.319 77.8707 50.6795C77.2743 51.0327 76.8444 51.666 76.7775 52.3668L76.7761 52.3654ZM49.3298 59.1246C49.3326 60.1356 50.2706 60.8838 51.1902 61.0905C51.6243 61.2054 52.0656 61.2657 52.5054 61.2743C53.6085 61.2155 54.8441 60.7473 56.0796 59.7378C59.0688 57.2966 58.6418 55.8606 59.0688 56.435C59.4958 57.0094 60.6345 56.2914 60.7769 55.4298C60.9192 54.5682 61.2039 54.999 61.2039 55.5734C61.2039 56.1478 61.9156 55.4298 61.7733 54.7118C61.6309 53.9938 62.1918 54.37 62.196 55.2589C62.1989 55.7184 62.465 55.862 62.781 55.8161C62.9917 55.7299 63.191 55.6179 63.3718 55.4643C63.5725 55.2848 63.7205 55.0421 63.8031 54.775L63.8714 54.7936C63.8685 54.8051 63.8657 54.8137 63.8628 54.8252C64.1119 54.1934 64.223 53.4309 64.3354 53.9938C64.4778 54.7118 63.339 56.1148 64.3354 55.7716C65.3318 55.4298 65.7588 55.4298 65.4742 55.8606C65.1895 56.2914 65.4742 56.7222 68.6057 57.7274C71.7372 58.7326 73.4453 61.3174 75.1534 62.897C76.1242 63.7945 76.8288 63.6165 77.2017 63.4571C77.2871 63.368 77.3682 63.2761 77.4422 63.1742C77.7141 62.8338 77.9561 62.4748 78.181 62.0957L78.2479 62.1187C78.1426 62.7204 77.9362 63.3049 77.6301 63.8347C77.512 64.03 77.4081 64.2541 77.2415 64.4278C77.2245 64.7337 77.3398 64.9347 77.7127 64.9505C77.865 64.8112 78.0429 64.692 78.2408 64.5829C78.7134 64.2627 79.2215 63.9827 79.7624 63.7988L79.7966 63.862C79.3368 64.2756 78.8899 64.6935 78.4941 65.1645C78.329 65.5752 78.1426 66.3808 79.556 67.5813C81.6029 69.3203 82.5794 69.7224 82.8583 68.3352C82.8455 68.104 82.8342 67.8527 82.827 67.5813C82.7687 65.4086 83.5174 63.1239 82.9295 59.0256C82.353 55.0105 80.2592 50.4985 77.7938 52.0997C76.9455 53.0834 75.7768 53.0647 74.6566 52.5965C73.6033 52.1629 72.6254 51.6071 71.5863 51.1433C69.5522 50.1668 67.5538 49.0927 65.4713 48.234C64.9603 48.0387 64.4493 47.8118 63.9084 47.7285C63.3846 47.6667 62.8323 47.74 62.2942 47.8563C61.2124 48.0932 60.1548 48.4853 59.1086 48.8945C58.061 49.3067 57.0233 49.7518 55.9657 50.1668C55.523 50.3391 54.8569 50.556 54.4669 50.8288C52.5951 52.0983 51.8848 54.403 50.7674 56.3043C50.3048 57.2176 49.3198 58.0519 49.3326 59.1261L49.3298 59.1246ZM37.7161 77.5443C38.2855 76.9699 37.5737 75.3903 36.435 75.3903C35.2963 75.3903 34.2999 74.5287 33.3035 73.9543C32.4139 73.4416 32.6601 74.7613 33.4344 75.6818C33.4316 75.5899 33.4416 75.4966 33.4729 75.4032C33.5483 75.0471 33.9469 74.8403 34.2871 74.9394C34.7653 75.0629 35.0514 75.4147 35.3603 75.7536C35.4529 76.2821 35.6422 76.7962 35.9653 77.2241C36.1831 77.5113 36.472 77.7511 36.7951 77.9191C37.0998 77.9464 37.4214 77.8416 37.7147 77.5457L37.7161 77.5443ZM34.0835 75.6387C34.0835 75.6387 34.0807 75.6445 34.0793 75.6473C34.0849 75.6445 34.1106 75.6258 34.1134 75.6143C34.1177 75.6028 34.102 75.6071 34.0849 75.6387H34.0835ZM33.8885 76.5779C34.1746 76.8349 34.4792 77.0747 34.7924 77.3016C35.0002 77.4007 35.2308 77.5156 35.4771 77.6692C35.9155 77.9435 35.9482 77.8128 35.9212 77.6606C35.4215 77.283 35.06 76.7373 34.8308 76.0753C34.6771 75.9547 34.4963 75.8426 34.3383 75.7608C34.2401 75.7019 34.1405 75.6775 34.0807 75.6473C33.9156 75.9389 34.1106 76.2634 34.2529 76.5822L34.2088 76.6382C34.0935 76.6009 33.9796 76.5391 33.8771 76.4601C33.8771 76.5018 33.8828 76.5405 33.8899 76.5779H33.8885ZM59.0005 84.4759C58.8709 84.5061 58.6603 84.5362 58.3571 84.5793C57.3607 84.7229 56.9337 85.8717 56.0796 86.4461C55.5544 86.7994 55.2981 87.1254 55.2241 87.4068C55.1885 87.536 55.1928 87.6567 55.2255 87.7658C55.2768 87.941 55.4049 88.0875 55.5743 88.1995C56.0198 88.3833 56.4867 88.3431 56.9379 88.1794H56.9393C57.0945 88.1234 57.2482 88.053 57.3977 87.9726C57.7393 87.7902 58.0653 87.5547 58.3571 87.3163C58.1393 87.1756 57.9457 86.999 57.7749 86.7922C57.4945 86.4447 57.3009 85.9636 57.3963 85.517L57.4674 85.5084C57.5742 85.6951 57.6809 85.8487 57.8062 85.9837C58.0411 86.2279 58.3215 86.4275 58.6175 86.6098C58.9321 86.6644 59.2012 86.6299 59.362 86.7147C59.4033 86.6314 59.4417 86.5466 59.4759 86.4605C59.7933 85.7166 59.5527 84.9627 59.0005 84.4759ZM45.2175 78.4763C44.6837 78.9602 44.1514 79.5806 43.8695 80.2584C43.8382 80.3373 43.8083 80.4163 43.7827 80.4967C43.7756 80.5212 43.767 80.5456 43.7599 80.5714C43.767 80.6676 43.7756 80.7753 43.7855 80.8859C43.7969 81.0166 43.814 81.1501 43.8382 81.2765C43.9322 81.7504 44.3976 82.0979 45.1107 82.0749C45.2374 82.0706 45.3727 82.0548 45.515 82.0261C45.6175 82.006 45.7228 81.9773 45.831 81.9428C46.0118 81.8854 46.2025 81.8078 46.4004 81.7073C47.2117 81.298 47.5192 80.9232 47.5533 80.6001C47.1149 79.6868 46.0545 78.9818 45.2175 78.4763ZM50.5098 80.389C50.1297 80.5571 49.744 80.7581 49.3596 80.9735C48.6693 81.8609 48.3561 83.0816 48.7689 84.2088C48.8501 84.4328 48.9611 84.654 49.102 84.8665H49.1034C49.3426 85.2284 49.6714 85.5673 50.1012 85.8717C50.6735 86.2752 51.2713 86.4002 51.7296 86.4059H51.7325C51.9375 86.4074 52.1154 86.3858 52.2492 86.3542C52.3161 86.3399 52.3716 86.3226 52.4157 86.3025C52.5823 86.235 52.5794 86.156 52.3175 86.1575C52.2335 86.1575 52.1438 86.1474 52.0527 86.1316C51.8506 86.0943 51.6371 86.0196 51.4563 85.9378C51.1859 85.8128 50.9838 85.6678 50.9809 85.5874C50.9809 85.5156 51.1332 85.4969 51.5247 85.5845C52.5538 85.8157 53.0321 85.7683 53.9914 85.3691C53.9971 85.3662 54.0028 85.3634 54.0071 85.3619C54.0213 85.3548 54.0356 85.3476 54.0498 85.3404C54.8156 84.9828 55.5871 84.552 56.2589 84.0193C55.6668 83.0385 54.7757 82.2085 53.9929 81.3756L54.0384 81.321C54.706 81.8394 55.3579 82.3793 55.9629 82.9739C56.0369 83.0126 56.1351 83.0686 56.2618 83.1433C56.6789 83.3932 56.9949 83.4535 57.2069 83.3343C57.2795 83.0729 57.3123 82.803 57.3066 82.533C57.2924 81.782 56.9778 81.0338 56.3785 80.4723C55.4576 79.5935 54.2334 79.4485 53.0164 79.6323C52.1396 79.7644 51.2656 80.0674 50.5098 80.389ZM43.2546 76.9584C42.9187 77.1968 42.3579 77.5529 41.7031 77.9737C41.6205 78.0268 41.5422 78.0814 41.4682 78.1359C41.4099 78.179 41.3543 78.2221 41.3003 78.2681C41.2348 78.3197 41.1736 78.3758 41.1152 78.4303C40.1117 79.3795 40.0761 80.5384 40.5644 81.2765C41.4639 82.6393 42.4148 82.9997 42.8418 82.8561C43.0411 82.7886 43.4582 82.7771 43.8026 82.7628C43.2034 82.4756 42.856 81.7331 42.9343 80.9735C42.9671 80.7322 43.0311 80.501 43.1222 80.2785C43.1578 80.188 43.1977 80.099 43.2432 80.0114C43.2774 79.941 43.3158 79.8721 43.3557 79.8046C43.7742 79.0895 44.4303 78.4863 45.051 78.0024L45.1833 77.9047C45.5107 78.1201 45.8224 78.3513 46.1171 78.5983C46.3463 78.8008 46.5854 79.0162 46.8089 79.2474C47.243 79.5633 48.2522 80.4278 48.9981 80.1105C49.0721 79.9984 49.1333 79.8893 49.1817 79.7845C49.1917 79.7629 49.2016 79.7414 49.2088 79.7184C49.2629 79.5791 49.2814 79.4327 49.27 79.2833C49.2444 78.505 48.7931 77.7985 48.1953 77.3117C47.6046 76.8148 46.9555 76.5865 46.2794 76.5233C45.2986 76.43 44.2595 76.6813 43.2546 76.9584ZM28.6703 70.4519C28.6333 70.426 28.6034 70.4002 28.5763 70.3743L28.5564 70.4045C28.5948 70.4203 28.6318 70.4361 28.6703 70.4519ZM110.454 70.2192C107.906 71.0765 109.458 71.9424 110.596 71.5116C111.735 71.0808 112.589 69.5012 110.454 70.2192ZM114.948 60.7559C112.749 60.6382 111.449 62.808 113.802 62.4748C116.156 62.1431 116.747 60.8522 114.948 60.7559ZM110.282 48.0889C112.283 47.572 113.534 44.6339 111.727 45.0001C108.833 45.5874 108.281 48.6059 110.282 48.0889ZM50.5767 84.654L50.6194 84.6482C50.7062 84.3151 50.8742 84.0724 51.0564 83.8168C51.5844 82.9882 52.2791 82.2846 53.0292 81.6527L53.0064 81.6183C52.4186 81.9485 51.8649 82.3377 51.3695 82.8015C50.8642 83.228 50.2934 83.9432 50.5767 84.654ZM83.0377 41.96L83.0662 42.0089C83.7608 41.6901 84.4469 41.3569 85.1258 41.0051C85.8347 40.6935 86.5108 40.2971 86.9806 39.6567L86.9521 39.6079C86.3728 39.7041 85.8304 39.931 85.355 40.2699C84.5878 40.8414 83.7935 41.3713 83.0377 41.96ZM24.5182 86.1288C23.7139 86.9573 22.9268 87.8017 22.1297 88.6375C21.5389 89.265 20.3561 90.5387 19.7739 91.1735C19.3839 91.5985 18.9811 92.0121 18.5825 92.43C17.784 93.2672 17.0794 94.1833 16.4146 95.1325C16.083 95.6093 15.7641 96.0961 15.4795 96.6131L15.5435 96.6691C16.4687 95.9568 17.2915 95.144 18.0929 94.3025C18.8928 93.4682 19.5632 92.5233 20.2878 91.6244C21.6984 89.8796 23.2186 87.9554 24.5822 86.1833L24.5182 86.1273V86.1288ZM28.6204 99.3013C27.8233 101.089 25.9715 105.271 25.1772 106.995C24.4128 108.674 23.7282 110.483 23.1232 112.228C22.8172 113.116 22.5254 114.009 22.2777 114.921L22.356 114.954C23.7339 112.514 24.9366 109.936 25.9558 107.327C27.5159 103.237 29.493 98.3047 31.0232 94.2178L30.9449 94.1848C30.1592 95.8864 29.3962 97.5967 28.6204 99.3013ZM42.2653 101.553C42.086 102.021 41.8312 102.68 41.6291 103.131C41.3059 103.937 41.1693 104.803 41.2348 105.676L41.3159 105.702C41.518 105.469 41.6718 105.22 41.8155 104.969C42.0917 104.468 42.3208 103.947 42.4347 103.385C42.4917 103.107 42.5429 102.827 42.6098 102.551C42.8703 101.478 43.1265 100.301 43.3329 99.2208L43.2518 99.195C42.9187 99.946 42.5742 100.788 42.2653 101.551V101.553ZM55.338 100.088H55.2526C55.1843 101.747 55.1387 103.407 55.0818 105.065C55.0434 106.305 54.9793 108.803 54.9537 110.043C54.9352 110.873 54.901 111.701 54.8725 112.531C54.8156 114.191 54.8782 115.851 54.995 117.508C55.0547 118.338 55.1302 119.167 55.2526 119.997H55.338C55.5743 118.344 55.6654 116.684 55.7223 115.02C55.7835 113.36 55.6739 111.701 55.6369 110.043C55.5672 106.819 55.4618 103.298 55.338 100.088ZM68.1431 101.22C68.0491 100.915 67.9509 100.611 67.8669 100.304C67.5424 99.1074 67.1609 97.8092 66.7865 96.6332L66.7026 96.6504C66.8008 97.568 66.9332 98.5818 67.057 99.5009C67.1424 100.057 67.2591 100.845 67.3146 101.396C67.447 102.359 67.7701 103.282 68.2769 104.116L68.3608 104.099C68.4149 103.762 68.4221 103.436 68.4178 103.111C68.3993 102.468 68.331 101.833 68.1431 101.218V101.22ZM74.4773 92.598L74.4033 92.6425C75.4381 94.5366 76.4942 96.4206 77.539 98.309C78.6436 100.276 81.2328 104.866 82.2819 106.786C83.3096 108.645 84.4953 110.531 85.6696 112.301C86.2674 113.2 86.8795 114.092 87.5329 114.958L87.6069 114.914C86.2632 111.975 84.7017 109.096 83.0107 106.349C80.3375 102.077 77.1661 96.8414 74.4787 92.598H74.4773ZM84.9607 91.8211C85.486 92.496 86.1578 93.0374 86.935 93.4065L86.9976 93.3476C86.8994 93.0575 86.7656 92.8019 86.6219 92.5549C86.3315 92.0695 86.0027 91.6158 85.5799 91.241C85.3707 91.0557 85.1572 90.8733 84.955 90.6809C84.1693 89.9299 83.2939 89.1329 82.4754 88.4249L82.4128 88.4838C82.8882 89.1401 83.4334 89.8523 83.9316 90.4957C84.2405 90.8805 84.676 91.4248 84.9607 91.8211ZM83.1174 33.8624C83.9216 33.0338 84.7088 32.1894 85.5059 31.3537C86.0966 30.7261 87.2795 29.4524 87.8617 28.8177C88.2517 28.3926 88.6545 27.9791 89.0531 27.5612C89.8516 26.724 90.5562 25.8078 91.2209 24.8586C91.5526 24.3819 91.8714 23.8951 92.1561 23.3781L92.0921 23.3221C91.1668 24.0343 90.3441 24.8471 89.5427 25.6886C88.7428 26.5229 88.0723 27.4678 87.3478 28.3668C85.9372 30.1115 84.417 32.0358 83.0534 33.8078L83.1174 33.8638V33.8624ZM79.0151 20.6899C79.8122 18.9021 81.6641 14.7204 82.4584 12.9958C83.2227 11.3171 83.9074 9.50769 84.5124 7.76294C84.8184 6.87549 85.1102 5.98229 85.3579 5.07043L85.2796 5.0374C83.9017 7.47718 82.6989 10.0548 81.6783 12.664C80.1183 16.7538 78.1411 21.6865 76.611 25.7734L76.6893 25.8064C77.475 24.1047 78.2379 22.3944 79.0137 20.6899H79.0151ZM65.3702 18.4382C65.5496 17.9701 65.8044 17.311 66.0065 16.8601C66.3296 16.0545 66.4663 15.1885 66.4008 14.3154L66.3197 14.2896C66.1175 14.5222 65.9638 14.7707 65.82 15.022C65.5439 15.5231 65.3147 16.0444 65.2009 16.6059C65.1439 16.8845 65.0927 17.1645 65.0258 17.4402C64.7653 18.5129 64.5091 19.6904 64.3027 20.7703L64.3838 20.7962C64.7169 20.0451 65.0614 19.2036 65.3702 18.4397V18.4382ZM52.2976 19.903H52.383C52.4513 18.2444 52.4969 16.5843 52.5538 14.9258C52.5922 13.6865 52.6563 11.1878 52.6819 9.94855C52.7004 9.11854 52.7346 8.28996 52.763 7.45995C52.82 5.79992 52.7573 4.1399 52.6406 2.48274C52.5808 1.65273 52.5054 0.824153 52.383 -0.00585938H52.2976C52.0613 1.64699 51.9702 3.30701 51.9133 4.97134C51.852 6.63137 51.9617 8.28996 51.9987 9.94855C52.0684 13.1724 52.1737 16.6935 52.2976 19.903ZM39.4925 18.7714C39.5865 19.0758 39.6847 19.3802 39.7687 19.6876C40.0932 20.8837 40.4747 22.1819 40.849 23.358L40.933 23.3408C40.8348 22.4231 40.7024 21.4093 40.5786 20.4903C40.4932 19.9345 40.3765 19.1462 40.3209 18.5948C40.1886 17.6326 39.8655 16.7093 39.3587 15.875L39.2747 15.8922C39.2206 16.2296 39.2135 16.5556 39.2178 16.8802C39.2363 17.5235 39.3046 18.1582 39.4925 18.7728V18.7714ZM33.1583 27.3917L33.2323 27.3472C32.1975 25.4517 31.1413 23.5691 30.0965 21.6807C28.992 19.7134 26.4028 15.1239 25.3537 13.204C24.326 11.3443 23.1403 9.45887 21.966 7.68827C21.3681 6.78933 20.7561 5.89757 20.1027 5.03166L20.0287 5.07617C21.3724 8.01425 22.9339 10.8934 24.6249 13.6405C27.2981 17.9126 30.4695 23.1483 33.1569 27.3917H33.1583ZM22.6748 28.1686C22.1496 27.4937 21.4777 26.9523 20.7006 26.5833L20.6379 26.6421C20.7361 26.9322 20.8699 27.1878 21.0137 27.4348C21.3041 27.9202 21.6329 28.374 22.0556 28.7488C22.2649 28.934 22.4784 29.1164 22.6805 29.3088C23.4663 30.0598 24.3417 30.8568 25.1601 31.5648L25.2228 31.5059C24.7473 30.8496 24.2022 30.1374 23.704 29.4941C23.3951 29.1092 22.9595 28.565 22.6748 28.1686ZM3.40034 76.5405C6.80373 76.8277 3.69783 73.9557 1.56271 73.6685C-0.572419 73.3813 -1.00514 76.1686 3.40034 76.5405ZM6.68701 40.4967C10.9573 42.0764 9.3915 40.3689 7.11404 38.7735C4.83657 37.1781 2.5349 38.9617 6.68701 40.4967ZM10.7893 59.0342C17.6616 59.4118 14.0219 56.3919 10.2797 55.2589C6.53755 54.1259 1.24529 58.51 10.7893 59.0342Z" fill="#3D9BE9"/>
</g>
<defs>
<clipPath id="clip0_12372_72125">
<rect width="116" height="120" fill="white"/>
</clipPath>
</defs>
</svg>
