<svg width="320" height="300" viewBox="0 0 320 300" fill="none" xmlns="http://www.w3.org/2000/svg">
<path d="M34.6946 209.533C31.3482 209.533 28.1165 208.332 25.5534 206.125C22.4968 203.496 20.6756 199.654 20.5546 195.585C20.4655 192.631 21.2201 188.197 25.1841 183.54C20.163 184.756 14.3714 187.704 8.15948 192.206C6.22682 193.607 3.46314 193.348 1.88072 191.6C0.199587 189.742 0.511615 186.94 2.56845 185.446C11.1237 179.235 19.0773 175.596 26.2539 174.62C30.3071 174.067 34.1024 174.39 37.4455 175.528C49.7069 171.465 63.3597 174.79 64.1271 174.984L61.7741 183.25C61.6531 183.22 54.4001 181.473 46.6599 182.3C51.6905 189.32 51.3753 199.277 45.5009 204.912C42.4762 207.812 38.891 209.408 35.1371 209.524C34.9907 209.53 34.8474 209.53 34.7009 209.53L34.6946 209.533ZM37.1112 185.04C35.4842 185.915 33.9877 187.032 32.6982 188.439C28.5877 192.929 29.094 197.563 31.7144 199.818C33.8349 201.643 36.4808 201.321 38.9738 198.931C41.7693 196.248 41.9986 189.837 38.0887 185.897C37.7798 185.586 37.4551 185.302 37.108 185.04H37.1112Z" fill="#3D9BE9"/>
<path d="M34.6944 210.28C31.1539 210.28 27.7184 209.001 25.0152 206.674C21.8026 203.911 19.8858 199.875 19.7585 195.606C19.6789 192.953 20.2488 189.075 23.1526 184.902C18.7683 186.342 13.9 188.992 8.64647 192.797C6.36676 194.45 3.12868 194.136 1.27243 192.083C0.317246 191.026 -0.125323 189.688 0.0306904 188.307C0.186704 186.927 0.912646 185.702 2.08116 184.854C10.7415 178.566 18.8351 174.873 26.1391 173.878C30.205 173.326 34.0067 173.612 37.4485 174.733C49.9137 170.715 63.748 174.111 64.3339 174.261L65.1012 174.455L62.3375 184.161L61.5702 183.97C61.5033 183.952 55.1354 182.416 48.0193 182.927C52.5819 190.252 51.8177 199.922 46.0675 205.434C42.8963 208.475 39.1265 210.148 35.1625 210.271C35.0096 210.277 34.8536 210.277 34.7008 210.277L34.6944 210.28ZM27.2917 182.258L25.8048 184.006C21.9713 188.511 21.2645 192.777 21.3505 195.564C21.4651 199.432 23.194 203.08 26.0914 205.575C28.4984 207.645 31.555 208.786 34.6944 208.786C34.8313 208.786 34.9682 208.786 35.102 208.78C38.6489 208.67 42.043 207.152 44.9245 204.392C50.4423 199.101 50.9103 189.58 45.9911 182.718L45.2588 181.699L46.561 181.559C53.0022 180.869 59.0931 181.926 61.1945 182.357L63.1399 175.524C60.0292 174.849 48.2931 172.719 37.7001 176.229L37.4326 176.319L37.1652 176.226C33.9048 175.115 30.2687 174.822 26.3588 175.357C19.3318 176.316 11.4866 179.907 3.0459 186.037C2.22444 186.632 1.715 187.495 1.60675 188.463C1.49849 189.431 1.80734 190.375 2.47915 191.116C3.78457 192.558 6.0611 192.777 7.66582 191.614C13.9987 187.023 19.8253 184.062 24.9802 182.814L27.2885 182.255L27.2917 182.258ZM34.6658 201.736C33.4304 201.736 32.2396 201.285 31.1761 200.371C28.2724 197.873 27.6547 192.803 32.0931 187.955C33.3763 186.554 34.93 185.356 36.713 184.394L37.1875 184.14L37.6109 184.463C37.9866 184.746 38.3432 185.06 38.6712 185.392C42.8676 189.619 42.5779 196.544 39.5404 199.456C37.9612 200.971 36.2737 201.739 34.6626 201.739L34.6658 201.736ZM37.0251 185.956C35.5987 186.784 34.3505 187.782 33.2998 188.926C29.5205 193.057 29.9121 197.255 32.2523 199.268C34.6626 201.341 37.1429 199.621 38.4037 198.408C40.9445 195.97 41.0305 189.953 37.5059 186.407C37.3498 186.252 37.1906 186.103 37.0219 185.956H37.0251Z" fill="#333333"/>
<path d="M0.800332 189.058C2.22038 191.973 2.22038 191.546 14.3035 185.556C26.3866 179.567 32.0859 180.421 35.9639 181.921C39.8388 183.417 43.1374 189.595 40.6889 195.92C40.6889 195.92 42.5866 189.443 37.1102 185.04C31.6338 180.636 25.1831 183.54 25.1831 183.54C25.1831 183.54 17.6116 185.804 12.425 189.318C7.23829 192.831 6.81164 193.805 3.6054 192.783C0.399153 191.761 0.803516 189.058 0.803516 189.058H0.800332Z" fill="#333333"/>
<path d="M35.9038 184.194C35.9038 184.194 31.4017 186.372 28.7813 191.528C26.1609 196.684 30.5325 201.64 34.9582 200.98C34.9582 200.98 29.5518 201.01 29.6792 195.316C29.8065 189.622 36.6584 184.95 37.1105 185.039L35.9038 184.194Z" fill="#333333"/>
<path d="M45.9973 182.348L44.1729 180.209C44.1729 180.209 51.2763 179.354 60.0353 181.278L59.5323 182.808C59.5323 182.808 52.6072 181.49 45.9973 182.348Z" fill="#333333"/>
<path d="M20.5488 194.862C20.5488 194.862 23.7328 207.493 34.9785 207.493C46.2242 207.493 52.2005 193.829 47.501 183.597C47.501 183.597 51.0225 188.741 49.9909 195.92C48.9593 203.098 42.2666 210.591 32.8453 209.411C23.4239 208.231 20.638 200.102 20.5488 194.862Z" fill="#333333"/>
<path d="M3.60275 188.896L2.46289 187.854C2.74308 187.585 9.42939 181.237 21.3024 176.738C26.9252 174.608 32.841 174.736 37.9608 177.105C42.5362 179.22 45.9971 182.948 47.2198 187.071L45.6851 187.471C44.5834 183.752 41.4345 180.376 37.2572 178.446C32.5513 176.269 27.0972 176.155 21.8978 178.124C10.3527 182.497 3.66643 188.836 3.59956 188.899L3.60275 188.896Z" fill="white"/>
<path d="M23.4103 195.941L21.8184 195.899C21.8279 195.603 22.089 188.639 26.6771 184.502L27.7819 185.577C23.6587 189.297 23.4135 195.875 23.4135 195.941H23.4103Z" fill="white"/>
<path d="M59.9012 177.093C49.6011 175.429 42.383 177.066 42.313 177.081L41.9277 175.632C42.2334 175.56 49.5438 173.902 60.1718 175.62L59.9012 177.093Z" fill="white"/>
<path d="M319.117 190.575L313.902 230.415C313.593 232.763 311.237 234.388 308.76 233.952C288.029 230.295 286.058 237.671 270.912 250.427C258.606 260.793 247.22 265.815 242.47 267.629C240.983 268.196 239.939 269.484 239.773 270.983C238.932 278.601 239.84 288.071 240.55 293.592C240.862 296.036 238.831 298.187 236.204 298.187H217.196C216.11 298.187 215.069 297.807 214.26 297.129C211.49 294.799 209.166 291.698 207.319 288.648C205.495 285.645 204.132 282.697 203.253 280.594C202.518 278.831 200.598 277.774 198.595 278.019C169.672 281.529 139.154 275.055 127.583 272.175C124.96 271.521 122.326 273.242 122.097 275.781C121.445 283.014 122.11 290.145 122.734 294.614C123.078 297.075 121.04 299.259 118.397 299.259H99.0549C97.7336 299.259 96.4791 298.697 95.6481 297.732C89.5031 290.602 85.2334 281.484 82.285 272.734C81.489 270.368 80.7886 268.029 80.1741 265.761C80.1741 265.758 80.1741 265.752 80.1741 265.749C77.5441 256.058 76.4839 247.715 76.1304 244.36C76.0254 243.368 75.5446 242.448 74.7709 241.767C63.2927 231.678 52.4036 209.123 58.8893 185.045C63.4901 167.957 76.8405 150.104 104.939 135.398C162.046 105.512 222.774 123.983 235.784 128.544C237.325 129.085 239.063 128.771 240.27 127.723C262.357 108.499 283.384 116.864 292.649 122.358C295.145 123.839 295.371 127.173 293.114 128.96C284.259 135.965 278.726 144.724 276.274 149.181C275.37 150.827 275.755 152.832 277.207 154.087C293.617 168.241 295.062 180.639 301.577 183.635C305.283 185.341 310.941 185.89 314.946 186.052C314.975 186.052 315 186.052 315.029 186.055C317.541 186.153 319.429 188.239 319.12 190.578L319.117 190.575Z" fill="white"/>
<path d="M276.61 154.003C270.227 149.298 260.309 140.847 248.111 135.18C235.913 129.51 253.469 128.44 266.237 133.791C279.005 139.138 292.479 129.142 291.556 121.733C291.556 121.733 291.702 121.805 291.954 121.937C294.807 123.415 295.173 127.111 292.68 129.079C290.805 130.561 288.614 132.542 286.519 135.039C281.285 141.28 277.356 147.087 276.015 149.639C274.671 152.19 276.61 154.006 276.61 154.006V154.003Z" fill="#3D9BE9"/>
<path d="M80.1675 265.747C76.7416 253.122 75.9774 242.78 75.9774 242.78C64.0726 233.259 52.171 209.963 58.8828 185.04C53.8585 212.189 69.5904 230.588 78.0279 238.929C78.0279 238.929 77.06 249.352 80.1675 265.747Z" fill="#3D9BE9"/>
<path d="M201.501 274.374L202.488 277.152C202.504 277.197 202.52 277.242 202.533 277.29L203.883 282.141L203.081 280.331C202.87 279.859 202.743 279.572 202.288 279.145C201.985 278.861 201.38 278.512 200.919 278.291C200.119 277.902 199.136 277.857 199.094 277.863C168.971 282.333 138.975 275.031 127.251 272.089C124.8 271.473 122.358 273.084 122.128 275.456C121.297 284.116 122.393 292.687 123.061 296.777C123.275 298.079 122.202 299.256 120.794 299.256H98.0705C97.3923 299.256 96.7491 298.972 96.3098 298.485C89.8049 291.25 85.3347 281.795 82.2812 272.731C86.812 283.674 95.8099 291.844 98.3316 293.992C98.7519 294.351 99.3027 294.548 99.8694 294.548H115.305C116.725 294.548 117.801 293.35 117.566 292.036C116.744 287.465 115.611 277.418 119.193 268.366C119.995 266.341 122.313 265.233 124.532 265.809C135.17 268.579 167.439 275.957 199.097 272.913C200.164 272.812 201.161 273.418 201.501 274.371V274.374Z" fill="#3D9BE9"/>
<path d="M319.152 190.312L313.899 230.454C313.593 232.781 311.259 234.391 308.804 233.958C288.035 230.283 286.071 237.659 270.915 250.424C258.565 260.829 247.141 265.848 242.422 267.644C240.967 268.196 239.948 269.457 239.782 270.924C238.936 278.536 239.84 288.021 240.55 293.556C240.865 296.018 238.818 298.181 236.178 298.181H215.635C212.257 295.791 209.471 292.179 207.325 288.642C210.783 293.108 223.232 293.706 230.762 293.544C233.532 293.485 235.65 291.208 235.334 288.624C234.736 283.686 234.169 275.608 235.576 268.447C236.044 266.06 237.872 264.11 240.333 263.363C244.679 262.042 252.862 258.571 264.42 249.519C282.317 235.502 287.106 227.586 298.049 228.443C308.992 229.297 309.39 227.589 310.676 222.346C311.956 217.106 314.946 186.043 314.946 186.043C315.07 186.049 315.191 186.052 315.309 186.058C317.668 186.145 319.442 188.11 319.155 190.309L319.152 190.312Z" fill="#3D9BE9"/>
<path d="M118.566 300H98.9817C97.4597 300 96.0333 299.364 95.0749 298.249C80.1613 280.994 76.1909 252.647 75.3281 244.369C75.2485 243.592 74.8664 242.869 74.2582 242.334C68.629 237.402 63.7321 230.161 60.4622 221.948C56.6732 212.421 55.3424 202.187 56.6223 192.349C58.6919 176.423 68.6831 153.504 104.547 134.734C128.93 121.975 156.681 116.445 187.04 118.304C210.952 119.767 229.323 125.47 236.108 127.854C237.35 128.29 238.716 128.043 239.674 127.209C249.522 118.62 260.214 114.519 271.453 115.023C280.773 115.439 288.446 118.952 293.244 121.826C294.61 122.644 295.454 123.983 295.556 125.497C295.661 127.009 295.012 128.431 293.776 129.402C284.941 136.341 279.426 145.044 276.923 149.611C276.22 150.899 276.519 152.479 277.656 153.453C287.052 161.537 291.627 169.083 294.964 174.595C297.482 178.748 299.3 181.75 301.924 182.957C305.531 184.618 311.106 185.15 315.147 185.305C316.541 185.359 317.86 185.962 318.761 186.96C319.665 187.961 320.088 189.284 319.916 190.587L314.672 230.654C314.5 231.956 313.784 233.103 312.654 233.877C311.533 234.645 310.107 234.946 308.741 234.701C292.35 231.786 288.182 235.663 279.05 244.16C276.872 246.185 274.405 248.482 271.447 250.974C258.874 261.564 247.157 266.646 242.705 268.336C241.524 268.785 240.712 269.791 240.579 270.962C239.709 278.697 240.7 288.495 241.365 293.649C241.537 294.984 241.091 296.328 240.139 297.338C239.187 298.348 237.815 298.927 236.379 298.927H217.145C215.909 298.927 214.718 298.5 213.786 297.721C208.093 292.962 204.253 285.045 202.47 280.749C201.897 279.372 200.394 278.544 198.821 278.739C192.832 279.471 186.776 279.778 180.835 279.778C157.885 279.778 136.606 275.199 127.207 272.847C126.227 272.602 125.186 272.776 124.355 273.322C123.524 273.869 122.998 274.724 122.909 275.671C122.24 282.861 122.887 289.971 123.549 294.667C123.74 296.015 123.301 297.371 122.349 298.393C121.397 299.414 120.018 300 118.573 300H118.566ZM175.833 119.514C154.274 119.514 129.427 123.427 105.321 136.043C70.0427 154.505 60.2265 176.952 58.2016 192.531C55.5016 213.312 65.1935 232.35 75.344 241.244C76.2387 242.027 76.7959 243.084 76.9137 244.222C77.5186 250.039 81.3012 279.937 96.3135 297.305C96.9694 298.067 97.9437 298.503 98.9849 298.503H118.569C119.556 298.503 120.499 298.103 121.148 297.407C121.798 296.711 122.097 295.782 121.97 294.862C121.298 290.091 120.639 282.867 121.323 275.539C121.454 274.153 122.225 272.898 123.441 272.098C124.657 271.297 126.179 271.043 127.618 271.402C139.357 274.335 169.78 280.782 198.617 277.254C200.922 276.973 203.119 278.186 203.957 280.205C205.689 284.376 209.404 292.053 214.849 296.603C215.486 297.138 216.304 297.431 217.148 297.431H236.382C237.363 297.431 238.302 297.036 238.952 296.346C239.601 295.659 239.907 294.739 239.789 293.828C239.114 288.612 238.117 278.688 238.999 270.804C239.194 269.083 240.384 267.608 242.11 266.95C246.488 265.286 258.001 260.291 270.387 249.859C273.316 247.392 275.768 245.109 277.933 243.096C287.182 234.486 291.828 230.167 309.043 233.229C309.992 233.399 310.944 233.199 311.721 232.664C312.491 232.135 312.982 231.356 313.096 230.465L318.34 190.398C318.458 189.493 318.178 188.615 317.551 187.922C316.927 187.229 316.048 186.828 315.083 186.793C310.89 186.631 305.079 186.067 301.223 184.292C298.16 182.882 296.237 179.712 293.582 175.327C290.296 169.902 285.791 162.472 276.58 154.55C274.918 153.119 274.478 150.806 275.507 148.924C278.063 144.255 283.702 135.359 292.754 128.252C293.598 127.591 294.04 126.621 293.967 125.59C293.897 124.553 293.321 123.639 292.388 123.08C282.279 117.028 262.131 109.658 240.757 128.302C239.356 129.524 237.36 129.889 235.551 129.252C228.776 126.871 205.399 119.511 175.836 119.511L175.833 119.514Z" fill="#333333"/>
<path d="M283.454 129.402C283.454 129.402 280.381 131.2 276.802 135.063C274.023 138.059 270.941 142.299 268.75 147.906C268.75 147.906 260.427 140.739 248.118 135.177C248.118 135.177 250.083 132.876 253.7 130.57C259.631 126.797 270.005 123.024 283.457 129.399L283.454 129.402Z" fill="#3D9BE9"/>
<path d="M269.085 149.212L268.209 148.459C268.126 148.387 259.823 141.298 247.768 135.852L246.867 135.446L247.491 134.714C247.574 134.615 249.57 132.297 253.248 129.958C259.702 125.853 270.241 122.307 283.811 128.739L285.075 129.336L283.874 130.038C283.83 130.065 280.84 131.843 277.401 135.556C273.985 139.24 271.326 143.482 269.496 148.166L269.085 149.215V149.212ZM249.405 134.941C258.938 139.383 266.022 144.733 268.41 146.639C270.285 142.182 272.902 138.125 276.201 134.573C278.538 132.052 280.652 130.397 281.891 129.522C269.594 124.174 260.052 127.43 254.143 131.192C251.853 132.649 250.245 134.107 249.405 134.941Z" fill="#333333"/>
<path d="M276.799 135.063C274.02 138.059 270.938 142.298 268.747 147.906C268.747 147.906 260.424 140.739 248.115 135.176C248.115 135.176 250.08 132.876 253.697 130.57C257.619 131.027 262.172 132.081 266.241 133.784C269.817 135.281 273.45 135.577 276.803 135.06L276.799 135.063Z" fill="#333333"/>
<path d="M154.57 219.771C153.166 219.033 151.886 218.104 150.781 216.993C150.912 217.157 151.682 218.448 147.916 222.979C144.299 227.338 142.554 227.021 142.235 226.908C143.738 227.529 145.082 228.467 146.142 229.647C146.091 229.543 145.502 228.076 149.008 223.873C152.656 219.505 154.58 219.762 154.58 219.762H154.57V219.774V219.771Z" fill="#3D9BE9"/>
<path d="M151.304 188.574C148.069 183.438 148.737 181.774 148.737 181.774L148.696 181.804L148.677 181.822C147.735 182.712 146.572 183.385 145.299 183.746C145.35 183.746 146.783 183.794 149.957 189.082C153.112 194.33 152.081 195.69 152.03 195.758C153.211 194.799 154.535 194.026 155.968 193.449C155.968 193.449 154.545 193.709 151.301 188.574H151.304Z" fill="#3D9BE9"/>
<path d="M187.308 193.957C187.336 194.473 187.097 196.457 182.086 198.333C176.514 200.43 174.721 198.698 174.591 198.563C175.782 200.173 176.616 202.002 177.036 203.926C177.017 203.791 176.896 201.846 182.627 199.615C187.597 197.679 189.081 198.677 189.441 199.059C188.307 197.544 187.578 195.794 187.308 193.954V193.957Z" fill="#3D9BE9"/>
<path d="M177.377 206.937C177.377 215.021 170.484 221.572 161.976 221.572C159.391 221.572 156.856 220.96 154.583 219.771C153.179 219.033 151.899 218.104 150.794 216.992C144.961 211.122 145.244 201.867 151.415 196.323C151.615 196.14 151.826 195.958 152.036 195.785C153.217 194.817 154.541 194.031 155.965 193.449C162.657 190.766 170.423 192.884 174.581 198.545C175.772 200.155 176.606 201.984 177.027 203.908C177.246 204.902 177.358 205.909 177.358 206.925L177.377 206.934V206.937Z" fill="#3D9BE9"/>
<path d="M146.142 229.656C145.069 228.467 143.738 227.529 142.235 226.916L142.184 226.899C136.692 224.667 130.33 227.081 127.977 232.291C125.621 237.51 128.168 243.553 133.657 245.788C139.15 248.019 145.511 245.606 147.864 240.396C149.488 236.805 148.826 232.646 146.151 229.668L146.142 229.659V229.656Z" fill="#3D9BE9"/>
<path d="M148.67 170.825C145.473 167.79 140.302 167.799 137.115 170.825C133.928 173.86 133.928 178.775 137.115 181.801C140.302 184.827 145.473 184.827 148.666 181.801L148.685 181.783C151.863 178.748 151.853 173.843 148.666 170.816V170.825H148.67Z" fill="#3D9BE9"/>
<path d="M207.958 184.17C203.208 179.65 195.503 179.659 190.752 184.17C188.087 186.698 186.804 190.271 187.285 193.826C187.285 193.864 187.285 193.912 187.294 193.951C187.565 195.791 188.297 197.542 189.437 199.056C189.466 199.095 189.498 199.134 189.526 199.17C189.886 199.639 190.297 200.09 190.739 200.502C195.499 205.022 203.195 205.022 207.952 200.502C212.712 195.982 212.712 188.663 207.952 184.143V184.173L207.958 184.17Z" fill="#3D9BE9"/>
<path d="M190.681 232.291C191.133 229.668 189.258 227.195 186.494 226.764C183.727 226.343 181.132 228.124 180.683 230.749C180.231 233.372 182.107 235.846 184.87 236.276C187.637 236.697 190.232 234.917 190.681 232.291Z" fill="#3D9BE9"/>
<path d="M128.206 211.552C132.607 211.552 136.173 208.162 136.173 203.976C136.173 199.791 132.607 196.4 128.206 196.4C123.806 196.4 120.24 199.791 120.24 203.976C120.24 208.162 123.806 211.552 128.206 211.552Z" fill="#3D9BE9"/>
<path d="M171.436 184.725C173.149 184.725 174.543 183.405 174.543 181.774C174.543 180.146 173.152 178.822 171.436 178.822C169.72 178.822 168.328 180.143 168.328 181.774C168.328 183.405 169.72 184.725 171.436 184.725Z" fill="#3D9BE9"/>
<path d="M316.172 211.029C317.412 201.514 316.763 193.611 314.722 193.376C312.682 193.142 310.023 200.666 308.783 210.181C307.543 219.696 308.192 227.599 310.233 227.833C312.273 228.068 314.932 220.544 316.172 211.029Z" fill="#3D9BE9"/>
<path d="M310.321 228.578C310.149 228.578 309.996 228.551 309.869 228.515C306.497 227.565 307.213 215.651 308.064 209.482C309.051 202.319 311.155 194.417 313.632 192.911C314.224 192.553 314.74 192.586 315.068 192.678C318.44 193.628 317.724 205.542 316.874 211.711C315.887 218.875 313.782 226.776 311.305 228.282C310.939 228.506 310.601 228.575 310.318 228.575L310.321 228.578ZM314.61 194.109C314.374 194.127 313.403 194.94 312.196 198.354C311.146 201.33 310.238 205.351 309.643 209.676C309.016 214.226 308.799 218.6 309.031 221.996C309.347 226.609 310.318 227.084 310.327 227.087C310.563 227.069 311.534 226.257 312.741 222.842C313.791 219.866 314.699 215.845 315.294 211.52C315.922 206.97 316.138 202.596 315.906 199.2C315.59 194.587 314.619 194.112 314.61 194.109Z" fill="#333333"/>
<path d="M314.005 221.814C311.493 227.359 311.63 219.603 312.636 214.755C314.46 205.984 317.227 205.312 316.084 211.615C316.084 211.615 317.329 204.254 316.53 197.41C315.731 190.566 311.888 192.881 309.602 205.1C307.316 217.318 307.892 226.48 310.098 227.798C311.547 228.664 314.005 221.814 314.005 221.814Z" fill="#333333"/>
<path d="M213.933 134.952C213.411 136.087 212.035 136.798 210.568 136.798C210.201 136.798 209.832 136.753 209.466 136.664C208.584 136.44 207.708 136.231 206.83 136.03C198.831 134.187 191.145 133.174 183.991 132.717H183.985C175.433 132.174 167.648 132.434 161.025 133.034C158.577 133.255 156.284 133.524 154.17 133.817C146.971 134.815 141.027 136.18 136.776 137.339C136.747 137.348 136.719 137.357 136.693 137.363C136.483 137.42 136.286 137.476 136.085 137.527C134.681 137.921 133.49 138.283 132.516 138.591C130.79 139.14 128.81 138.561 127.976 137.261H127.969C127.033 135.809 127.88 134.044 129.806 133.425C133.169 132.353 138.808 130.761 146.213 129.404C148.229 129.037 150.375 128.687 152.642 128.368C153.728 128.215 154.82 128.075 155.909 127.944C164.19 126.955 172.561 126.62 180.833 126.946C183.192 127.038 185.542 127.185 187.885 127.391C191.489 127.696 195.065 128.129 198.612 128.69C203.022 129.386 207.38 130.277 211.676 131.358C213.592 131.842 214.611 133.47 213.933 134.946V134.952Z" fill="#3D9BE9"/>
<path d="M131.162 139.55C129.577 139.55 128.068 138.851 127.294 137.656C126.746 136.808 126.644 135.852 126.991 134.952C127.386 133.931 128.319 133.121 129.551 132.727C134.318 131.206 142.176 129.091 152.524 127.639C161.919 126.322 171.452 125.841 180.867 126.211C191.4 126.627 201.837 128.12 211.885 130.648C213.114 130.958 214.104 131.687 214.601 132.649C215.031 133.48 215.053 134.406 214.665 135.251C213.856 137.011 211.484 137.949 209.262 137.39C187.127 131.828 167.151 132.781 154.291 134.564C144.121 135.971 136.445 138.14 132.774 139.308C132.245 139.475 131.701 139.556 131.166 139.556L131.162 139.55ZM174.693 127.583C167.38 127.583 160.028 128.096 152.759 129.115C141.988 130.627 133.917 132.912 130.064 134.14C129.29 134.385 128.717 134.869 128.488 135.46C128.303 135.935 128.361 136.425 128.65 136.873C129.3 137.88 130.882 138.322 132.258 137.886C135.98 136.703 143.761 134.507 154.052 133.079C167.062 131.278 187.27 130.31 209.669 135.941C211.121 136.306 212.704 135.729 213.197 134.654C213.404 134.206 213.391 133.737 213.162 133.294C212.866 132.724 212.248 132.282 211.468 132.085C201.534 129.584 191.215 128.108 180.797 127.696C178.766 127.615 176.728 127.577 174.69 127.577L174.693 127.583Z" fill="#333333"/>
<path d="M213.932 134.952C213.413 136.087 212.035 136.798 210.564 136.798C210.197 136.798 209.828 136.757 209.465 136.664C208.583 136.443 207.704 136.231 206.829 136.031C214.907 133.569 189.858 130.364 173.445 130.151C157.029 129.936 141.526 132.933 136.282 134.645C131.325 136.261 132.277 138.453 136.085 137.533C134.684 137.925 133.486 138.286 132.515 138.597C130.79 139.144 128.809 138.564 127.975 137.267H127.972C127.036 135.813 127.879 134.047 129.809 133.432C134.085 132.069 142.048 129.862 152.641 128.374C161.986 127.063 171.471 126.585 180.835 126.955C191.326 127.37 201.684 128.852 211.678 131.367C213.595 131.848 214.61 133.476 213.932 134.952Z" fill="#333333"/>
<path d="M264.415 188.657C270.395 188.657 275.243 184.108 275.243 178.497C275.243 172.886 270.395 168.337 264.415 168.337C258.434 168.337 253.586 172.886 253.586 178.497C253.586 184.108 258.434 188.657 264.415 188.657Z" fill="#3D9BE9"/>
<path d="M264.415 189.404C258.005 189.404 252.79 184.51 252.79 178.497C252.79 172.483 258.005 167.59 264.415 167.59C270.824 167.59 276.039 172.483 276.039 178.497C276.039 184.51 270.824 189.404 264.415 189.404ZM264.415 169.081C258.881 169.081 254.382 173.305 254.382 178.494C254.382 183.683 258.884 187.907 264.415 187.907C269.945 187.907 274.447 183.683 274.447 178.494C274.447 173.305 269.945 169.081 264.415 169.081Z" fill="#333333"/>
<path d="M253.587 178.497C253.587 186.733 266.584 188.872 270.914 183.31C275.248 177.747 273.267 170.398 266.96 168.618C266.96 168.618 275.244 170.261 275.244 178.497C275.244 186.733 267.036 188.657 265.782 188.657C264.527 188.657 260.289 188.956 257.335 186.187C252.899 182.028 253.584 178.497 253.584 178.497H253.587Z" fill="#333333"/>
<path d="M256.089 178.757L254.517 178.533C254.552 178.321 255.402 173.317 259.614 170.912C262.247 169.409 265.559 169.278 269.459 170.52L268.946 171.933C265.517 170.84 262.658 170.924 260.448 172.181C256.873 174.216 256.096 178.712 256.086 178.757H256.089Z" fill="white"/>
<path d="M242.345 67.2524C242.345 94.9575 224.286 118.707 198.613 128.703C193.968 130.516 189.074 131.873 183.993 132.724H183.986C175.434 132.18 167.649 132.44 161.027 133.041C159.565 132.838 158.12 132.596 156.69 132.312C156.458 132.264 156.222 132.219 155.99 132.168C154.484 131.855 152.994 131.496 151.526 131.09C151.335 131.039 151.147 130.988 150.956 130.932C149.351 130.481 147.772 129.97 146.215 129.417C144.079 128.652 141.99 127.795 139.958 126.845C139.745 126.749 139.532 126.648 139.325 126.546C138.723 126.259 138.128 125.967 137.539 125.665C137.134 125.456 136.73 125.247 136.332 125.032C136.15 124.936 135.969 124.834 135.791 124.739C135.542 124.601 135.291 124.464 135.046 124.324C134.842 124.207 134.638 124.094 134.434 123.977C134.04 123.75 133.651 123.52 133.259 123.284C132.804 123.012 132.352 122.731 131.906 122.45C131.496 122.188 131.085 121.928 130.684 121.659C130.48 121.524 130.279 121.39 130.079 121.253C129.878 121.118 129.677 120.981 129.48 120.843C129.28 120.706 129.082 120.568 128.885 120.425C128.684 120.288 128.49 120.147 128.292 120.004C127.939 119.75 127.589 119.493 127.242 119.233C126.608 118.758 125.984 118.271 125.37 117.775C125.198 117.638 125.023 117.497 124.851 117.357C124.478 117.052 124.109 116.742 123.746 116.431C123.38 116.12 123.017 115.804 122.663 115.487C122.485 115.329 122.303 115.17 122.128 115.003C121.772 114.68 121.425 114.355 121.074 114.026C120.724 113.694 120.38 113.366 120.043 113.028C119.556 112.544 119.075 112.057 118.604 111.561C118.413 111.364 118.231 111.167 118.05 110.973C117.887 110.8 117.725 110.623 117.566 110.447C117.384 110.25 117.206 110.053 117.031 109.856C116.891 109.7 116.754 109.542 116.617 109.381C116.442 109.183 116.27 108.986 116.101 108.789C115.811 108.446 115.518 108.096 115.235 107.747C115.085 107.561 114.936 107.379 114.786 107.191C114.487 106.82 114.194 106.45 113.904 106.071C113.493 105.53 113.086 104.986 112.688 104.437C112.252 103.83 111.828 103.218 111.414 102.599C111.147 102.205 110.889 101.811 110.637 101.41C110.507 101.21 110.383 101.007 110.255 100.81C110.128 100.607 110.007 100.407 109.883 100.203C109.638 99.7971 109.396 99.3908 109.154 98.9815C108.915 98.5693 108.682 98.157 108.456 97.7447C108.339 97.5356 108.227 97.3265 108.119 97.1174C108.033 96.9591 107.947 96.7947 107.861 96.6334C107.488 95.9314 107.132 95.2204 106.791 94.5064C106.597 94.1031 106.412 93.6998 106.228 93.2905C106.129 93.0754 106.03 92.8574 105.935 92.6393C105.842 92.4242 105.744 92.2061 105.651 91.988C105.559 91.77 105.467 91.5489 105.374 91.3308C105.282 91.1097 105.193 90.8917 105.104 90.6706C105.015 90.4495 104.929 90.2285 104.843 90.0074C104.753 89.7863 104.671 89.5623 104.588 89.3412C104.422 88.8961 104.26 88.445 104.104 87.9969C104.024 87.7728 103.948 87.5458 103.872 87.3187C103.786 87.0738 103.706 86.8258 103.626 86.5808C103.56 86.3717 103.493 86.1626 103.429 85.9535C103.356 85.7265 103.286 85.4994 103.219 85.2664C102.865 84.1013 102.55 82.9213 102.27 81.7323C102.219 81.5172 102.171 81.3021 102.12 81.087C102.063 80.8301 102.009 80.5762 101.955 80.3193C101.91 80.1311 101.875 79.9459 101.837 79.7576C101.796 79.5754 101.764 79.3992 101.729 79.2169C101.694 79.0287 101.659 78.8405 101.624 78.6493C101.512 78.0429 101.407 77.4364 101.318 76.824C101.273 76.5492 101.232 76.2714 101.194 75.9965C101.162 75.7784 101.133 75.5633 101.108 75.3453C101.082 75.1511 101.057 74.9629 101.035 74.7687C101.006 74.5417 100.98 74.3146 100.955 74.0816C100.933 73.8575 100.907 73.6335 100.885 73.4035C100.866 73.1884 100.844 72.9703 100.824 72.7522C100.739 71.7753 100.675 70.7955 100.64 69.8096C100.627 69.5318 100.618 69.251 100.611 68.9672C100.595 68.3966 100.589 67.826 100.589 67.2524C100.589 30.5254 132.32 0.74707 171.47 0.74707C171.878 0.74707 172.288 0.750058 172.693 0.75902C172.76 0.756032 172.826 0.75902 172.893 0.762007C173.272 0.764995 173.651 0.776944 174.03 0.788894C174.091 0.788894 174.151 0.791881 174.208 0.794869C174.581 0.806818 174.95 0.821755 175.32 0.842667C175.405 0.845654 175.495 0.851629 175.577 0.857604C175.915 0.872541 176.256 0.89644 176.59 0.917352C176.698 0.923326 176.813 0.932289 176.921 0.938264C177.3 0.96515 177.676 0.995024 178.051 1.02789C178.395 1.05477 178.736 1.08763 179.08 1.12348C179.229 1.13543 179.376 1.15037 179.522 1.16829C179.551 1.17128 179.58 1.17427 179.605 1.17725C179.952 1.21609 180.296 1.25194 180.64 1.29675C180.958 1.33559 181.274 1.37442 181.592 1.41923C181.799 1.44612 182.003 1.47599 182.206 1.50288C182.557 1.55367 182.901 1.60445 183.248 1.65823C183.617 1.71499 183.983 1.77772 184.349 1.84046C184.448 1.85838 184.55 1.87332 184.649 1.89423C185.011 1.95696 185.371 2.02269 185.731 2.09438C185.741 2.09438 185.747 2.09737 185.753 2.09737C186.123 2.16907 186.492 2.24077 186.858 2.31844C186.957 2.33636 187.056 2.36026 187.151 2.38117C187.428 2.43793 187.702 2.49768 187.976 2.56042C188.097 2.5873 188.215 2.61419 188.336 2.64108C188.702 2.72472 189.068 2.81136 189.428 2.90098C189.912 3.02048 190.396 3.14296 190.876 3.27142C191.223 3.36403 191.564 3.45962 191.908 3.55522C192.306 3.66874 192.701 3.78226 193.099 3.90176C193.108 3.90475 193.118 3.90773 193.127 3.91072C193.522 4.03022 193.923 4.1527 194.318 4.27817C194.758 4.41858 195.194 4.56197 195.624 4.71134C195.971 4.82785 196.311 4.94436 196.655 5.06684C196.665 5.06983 196.674 5.07282 196.684 5.07879C197.075 5.2192 197.467 5.36259 197.852 5.50898C198.215 5.64341 198.578 5.78381 198.932 5.92422C198.976 5.93916 199.018 5.95708 199.059 5.97501C199.428 6.12139 199.798 6.27076 200.164 6.42312C200.546 6.58145 200.925 6.74576 201.304 6.91006C201.679 7.07437 202.058 7.24166 202.431 7.41194C202.807 7.58223 203.179 7.75848 203.548 7.93175C203.921 8.11099 204.287 8.29024 204.656 8.47247C206.487 9.38661 208.273 10.3754 210.009 11.43C210.528 11.7407 211.04 12.0633 211.547 12.3919C211.859 12.5921 212.167 12.7952 212.476 13.0014C212.486 13.0073 212.495 13.0133 212.505 13.0193C212.801 13.2224 213.097 13.4226 213.393 13.6257C213.705 13.8408 214.014 14.0559 214.32 14.277C214.915 14.7012 215.504 15.1344 216.081 15.5735C216.377 15.7976 216.666 16.0216 216.956 16.2516C217.539 16.7057 218.106 17.1718 218.672 17.6438C218.956 17.8798 219.233 18.1188 219.51 18.3578C219.739 18.5549 219.965 18.7551 220.191 18.9522C220.293 19.0419 220.398 19.1375 220.5 19.2271C220.716 19.4243 220.936 19.6214 221.149 19.8186C221.404 20.0516 221.662 20.2906 221.91 20.5296C221.936 20.5535 221.961 20.5774 221.984 20.6013C222.187 20.7925 222.382 20.9807 222.576 21.1719C222.856 21.4407 223.127 21.7126 223.397 21.9815C223.579 22.1667 223.763 22.3519 223.942 22.5401C224.114 22.7193 224.289 22.8986 224.461 23.0808C224.655 23.284 224.846 23.4901 225.037 23.6962C225.238 23.9113 225.432 24.1264 225.626 24.3415C225.808 24.5446 225.992 24.7508 226.17 24.9539C226.489 25.3154 226.801 25.6799 227.113 26.0473C227.234 26.1907 227.355 26.3371 227.476 26.4835C227.587 26.6179 227.699 26.7553 227.81 26.8927C227.966 27.0839 228.119 27.2721 228.272 27.4663C228.428 27.6605 228.581 27.8547 228.734 28.0518C228.816 28.1564 228.896 28.261 228.979 28.3655C229.09 28.5119 229.205 28.6613 229.316 28.8106L229.765 29.4081C229.928 29.6262 230.087 29.8473 230.246 30.0683C230.405 30.2894 230.561 30.5105 230.717 30.7345C230.873 30.9556 231.029 31.1796 231.182 31.4037C232.815 33.7906 234.283 36.2791 235.582 38.8572C235.668 39.0216 235.751 39.1888 235.831 39.3561C235.999 39.6967 236.162 40.0373 236.321 40.3748C236.397 40.5362 236.474 40.7005 236.547 40.8618C237.082 42.0179 237.582 43.192 238.047 44.3839C238.145 44.6379 238.244 44.8918 238.34 45.1487C238.448 45.4444 238.559 45.7402 238.664 46.033C238.744 46.254 238.82 46.4721 238.897 46.6932C238.986 46.9531 239.072 47.21 239.158 47.4699C239.237 47.7119 239.317 47.9539 239.393 48.1958C239.483 48.4767 239.569 48.7575 239.655 49.0413C239.734 49.3042 239.811 49.567 239.887 49.8329C239.941 50.0181 239.992 50.2004 240.046 50.3856C240.304 51.3236 240.546 52.2706 240.766 53.2206C240.81 53.4088 240.849 53.5941 240.893 53.7823C240.903 53.8301 240.912 53.8749 240.922 53.9227C240.976 54.1676 241.024 54.4126 241.075 54.6576C241.126 54.8876 241.167 55.1236 241.215 55.3536C241.227 55.4223 241.24 55.4911 241.25 55.5568C241.301 55.8017 241.342 56.0497 241.387 56.2947C241.482 56.8443 241.571 57.391 241.657 57.9467C241.81 58.9803 241.941 60.017 242.043 61.0655C242.068 61.3224 242.093 61.5764 242.113 61.8303C242.128 62.0185 242.144 62.2007 242.16 62.386C242.17 62.5114 242.179 62.6369 242.186 62.7594C242.199 62.9506 242.211 63.1358 242.221 63.327C242.234 63.5241 242.246 63.7213 242.253 63.9185C242.269 64.1605 242.278 64.4084 242.288 64.6534V64.6833C242.297 64.8745 242.304 65.0656 242.307 65.2598C242.32 65.6332 242.329 66.0097 242.332 66.3831C242.335 66.6699 242.339 66.9567 242.339 67.2435L242.345 67.2524Z" fill="#3D9BE9"/>
<path d="M242.346 67.252C242.346 94.9571 224.286 118.707 198.614 128.703C193.969 130.516 189.075 131.872 183.993 132.724H183.987C175.435 132.18 167.65 132.44 161.027 133.04C159.566 132.837 158.121 132.595 156.691 132.311C156.458 132.264 156.223 132.219 155.99 132.168C154.484 131.854 152.994 131.496 151.527 131.09C151.336 131.039 151.148 130.988 150.957 130.931C149.352 130.48 147.773 129.969 146.216 129.417C144.079 128.652 141.991 127.795 139.959 126.845C139.746 126.749 139.533 126.647 139.326 126.546C138.724 126.259 138.128 125.966 137.539 125.664C137.135 125.455 136.731 125.246 136.333 125.031C136.151 124.936 135.97 124.834 135.791 124.738C135.543 124.601 135.292 124.464 135.046 124.323C134.843 124.207 134.639 124.093 134.435 123.977C134.04 123.75 133.652 123.52 133.26 123.284C132.805 123.012 132.353 122.731 131.907 122.45C131.496 122.187 131.086 121.927 130.684 121.658C130.481 121.524 130.28 121.39 130.079 121.252C129.879 121.118 129.678 120.98 129.481 120.843C129.28 120.705 129.083 120.568 128.885 120.425C128.685 120.287 128.491 120.147 128.293 120.003C127.94 119.749 127.59 119.493 127.243 119.233C126.609 118.758 125.985 118.271 125.37 117.775C125.198 117.637 125.023 117.497 124.851 117.357C124.479 117.052 124.109 116.741 123.747 116.43C123.38 116.12 123.017 115.803 122.664 115.486C122.486 115.328 122.304 115.17 122.129 115.002C121.772 114.68 121.425 114.354 121.075 114.026C120.725 113.694 120.381 113.365 120.044 113.028C119.556 112.544 119.076 112.057 118.604 111.561C118.413 111.364 118.232 111.167 118.05 110.972C117.888 110.799 117.726 110.623 117.566 110.447C117.385 110.25 117.207 110.052 117.032 109.855C116.891 109.7 116.755 109.542 116.618 109.38C116.443 109.183 116.271 108.986 116.102 108.789C115.812 108.445 115.519 108.096 115.236 107.746C115.086 107.561 114.937 107.379 114.787 107.19C114.488 106.82 114.195 106.45 113.905 106.07C113.494 105.529 113.087 104.986 112.689 104.436C112.252 103.83 111.829 103.217 111.415 102.599C111.148 102.204 110.89 101.81 110.638 101.41C110.508 101.21 110.383 101.007 110.256 100.809C110.129 100.606 110.008 100.406 109.884 100.203C109.638 99.7967 109.396 99.3904 109.154 98.9811C108.916 98.5688 108.683 98.1566 108.457 97.7443C108.339 97.5352 108.228 97.3261 108.12 97.117C108.034 96.9586 107.948 96.7943 107.862 96.633C107.489 95.931 107.133 95.22 106.792 94.506C106.598 94.1027 106.413 93.6994 106.228 93.2901C106.13 93.075 106.031 92.8569 105.935 92.6389C105.843 92.4238 105.744 92.2057 105.652 91.9876C105.56 91.7695 105.467 91.5485 105.375 91.3304C105.283 91.1093 105.194 90.8912 105.104 90.6702C105.015 90.4491 104.929 90.228 104.843 90.007C104.754 89.7859 104.671 89.5619 104.589 89.3408C104.423 88.8957 104.261 88.4446 104.105 87.9965C104.025 87.7724 103.949 87.5454 103.872 87.3183C103.786 87.0734 103.707 86.8254 103.627 86.5804C103.56 86.3713 103.493 86.1622 103.43 85.9531C103.356 85.726 103.286 85.499 103.22 85.266C102.866 84.1009 102.551 82.9209 102.271 81.7319C102.22 81.5168 102.172 81.3017 102.121 81.0866C107.333 102.736 131.197 122.384 155.911 127.956C160.448 128.981 165.014 129.53 169.5 129.53C175.706 129.53 181.898 128.825 187.891 127.403C210.898 121.933 230.934 105.834 237.181 78.1112C242.282 55.4757 234.074 35.5438 225.025 23.6958C225.226 23.9109 225.42 24.126 225.614 24.3411C225.795 24.5442 225.98 24.7504 226.158 24.9535C226.477 25.315 226.789 25.6794 227.101 26.0469C227.222 26.1903 227.343 26.3367 227.464 26.483C227.575 26.6175 227.687 26.7549 227.798 26.8923C227.954 27.0835 228.107 27.2717 228.26 27.4659C228.416 27.6601 228.569 27.8543 228.722 28.0514C228.804 28.156 228.884 28.2605 228.967 28.3651C229.078 28.5115 229.193 28.6608 229.304 28.8102L229.753 29.4077C229.916 29.6258 230.075 29.8468 230.234 30.0679C230.393 30.289 230.549 30.51 230.705 30.7341C230.861 30.9552 231.017 31.1792 231.17 31.4033C232.803 33.7902 234.271 36.2787 235.57 38.8568C235.656 39.0211 235.739 39.1884 235.819 39.3557C235.987 39.6963 236.15 40.0368 236.309 40.3744C236.385 40.5357 236.462 40.7 236.535 40.8614C237.07 42.0175 237.57 43.1915 238.035 44.3835C238.133 44.6374 238.232 44.8914 238.328 45.1483C238.436 45.444 238.547 45.7398 238.652 46.0325C238.732 46.2536 238.808 46.4717 238.885 46.6928C238.974 46.9527 239.06 47.2096 239.146 47.4695C239.225 47.7115 239.305 47.9534 239.381 48.1954C239.471 48.4762 239.557 48.757 239.643 49.0408C239.722 49.3037 239.799 49.5666 239.875 49.8325C239.929 50.0177 239.98 50.2 240.034 50.3852C240.292 51.3232 240.534 52.2702 240.754 53.2202C240.798 53.4084 240.837 53.5936 240.881 53.7818C240.891 53.8296 240.9 53.8744 240.91 53.9222C240.964 54.1672 241.012 54.4122 241.063 54.6571C241.114 54.8872 241.155 55.1232 241.203 55.3532C241.215 55.4219 241.228 55.4906 241.238 55.5564C241.289 55.8013 241.33 56.0493 241.375 56.2942C241.47 56.8439 241.559 57.3906 241.645 57.9463C241.798 58.9799 241.929 60.0165 242.03 61.0651C242.056 61.322 242.081 61.576 242.101 61.8299C242.116 62.0181 242.132 62.2003 242.148 62.3855C242.158 62.511 242.167 62.6365 242.174 62.759C242.187 62.9502 242.199 63.1354 242.209 63.3266C242.222 63.5237 242.234 63.7209 242.241 63.9181C242.257 64.16 242.266 64.408 242.276 64.653V64.6828C242.285 64.874 242.292 65.0652 242.295 65.2594C242.307 65.6328 242.317 66.0092 242.32 66.3827C242.323 66.6695 242.327 66.9562 242.327 67.243L242.346 67.252Z" fill="#333333"/>
<path d="M171.464 122.218C203.818 122.218 230.046 97.609 230.046 67.2526C230.046 36.8963 203.818 12.2876 171.464 12.2876C139.111 12.2876 112.883 36.8963 112.883 67.2526C112.883 97.609 139.111 122.218 171.464 122.218Z" fill="white"/>
<path d="M161.005 133.79L160.909 133.778C159.438 133.575 157.964 133.327 156.522 133.041L156.41 133.02C156.21 132.981 156.006 132.939 155.809 132.897C154.277 132.578 152.758 132.21 151.297 131.807C151.109 131.756 150.912 131.702 150.714 131.642C149.157 131.203 147.543 130.687 145.932 130.113C143.77 129.339 141.64 128.464 139.605 127.511C139.395 127.415 139.172 127.311 138.956 127.206C138.322 126.904 137.73 126.612 137.157 126.316C136.746 126.104 136.339 125.892 135.937 125.677C135.826 125.617 135.711 125.557 135.597 125.494L135.396 125.384C135.138 125.24 134.884 125.103 134.635 124.96L134.024 124.613C133.62 124.38 133.228 124.147 132.833 123.911C132.375 123.639 131.916 123.355 131.467 123.069C131.047 122.803 130.633 122.537 130.225 122.265C130.003 122.119 129.805 121.987 129.611 121.853C129.414 121.721 129.21 121.581 129.009 121.441C128.809 121.303 128.602 121.16 128.401 121.013C128.213 120.885 128.013 120.741 127.809 120.592C127.459 120.341 127.102 120.078 126.752 119.815C126.15 119.367 125.532 118.883 124.857 118.343C124.695 118.211 124.526 118.077 124.357 117.939C123.959 117.611 123.584 117.3 123.218 116.983C122.851 116.67 122.482 116.35 122.122 116.027C121.941 115.866 121.756 115.702 121.575 115.531C121.183 115.179 120.833 114.853 120.514 114.552C120.18 114.235 119.82 113.891 119.47 113.542C118.957 113.037 118.483 112.55 118.018 112.063C117.834 111.872 117.652 111.675 117.467 111.481L117.436 111.445C117.276 111.274 117.117 111.104 116.961 110.931C116.783 110.74 116.601 110.54 116.423 110.333C116.334 110.232 116.242 110.127 116.149 110.02L116.006 109.858C115.831 109.664 115.656 109.461 115.484 109.258C115.188 108.911 114.895 108.562 114.605 108.203L114.586 108.179C114.443 108.003 114.296 107.824 114.153 107.645C113.85 107.271 113.554 106.895 113.261 106.513C112.816 105.936 112.414 105.392 112.029 104.86C111.593 104.257 111.16 103.63 110.743 103.002C110.475 102.608 110.211 102.202 109.956 101.798C109.864 101.655 109.769 101.503 109.67 101.35L109.571 101.195C109.441 100.986 109.316 100.783 109.192 100.58C108.941 100.17 108.696 99.758 108.457 99.3428C108.215 98.9275 107.979 98.5093 107.75 98.0881C107.635 97.879 107.517 97.6669 107.406 97.4518C107.323 97.2994 107.237 97.1351 107.148 96.9708C106.792 96.2956 106.435 95.5906 106.062 94.8169C105.868 94.4106 105.68 94.0013 105.492 93.5891C105.394 93.377 105.298 93.1589 105.2 92.9378L105.088 92.6839C105.028 92.5465 104.967 92.409 104.91 92.2686C104.814 92.0476 104.722 91.8235 104.63 91.6024C104.537 91.3814 104.445 91.1573 104.356 90.9303C104.27 90.7152 104.181 90.4911 104.095 90.2671C104.015 90.0729 103.939 89.8698 103.862 89.6666L103.834 89.5919C103.665 89.1408 103.499 88.6868 103.343 88.2327C103.283 88.0594 103.219 87.8772 103.159 87.6979L103.108 87.5515C103.022 87.3066 102.939 87.0526 102.859 86.8017C102.789 86.5866 102.722 86.3745 102.659 86.1624C102.586 85.9384 102.516 85.7053 102.445 85.4663C102.095 84.3042 101.77 83.1003 101.49 81.8994L101.331 81.2123C101.277 80.9643 101.223 80.7164 101.172 80.4714C101.13 80.2922 101.092 80.098 101.054 79.9008C101.029 79.7903 101.003 79.6648 100.981 79.5364L100.946 79.3661C100.924 79.2585 100.904 79.154 100.885 79.0494L100.838 78.7925C100.717 78.1532 100.615 77.5288 100.526 76.9373C100.481 76.6655 100.44 76.3817 100.401 76.1009C100.37 75.8888 100.341 75.6647 100.315 75.4406C100.29 75.2554 100.264 75.0612 100.242 74.8641C100.223 74.7087 100.204 74.5474 100.185 74.3861L100.029 72.8297C99.9397 71.8229 99.876 70.8191 99.841 69.8482C99.8282 69.5734 99.8187 69.2866 99.8123 68.9968C99.7964 68.4561 99.79 67.8885 99.79 67.2671C99.79 49.3039 107.247 32.4162 120.782 19.7138C134.32 6.99647 152.319 0 171.464 0C171.872 0 172.279 0.00298739 172.68 0.0119496C172.76 0.0119496 172.84 0.0119496 172.919 0.014937C173.279 0.014937 173.664 0.0298739 174.049 0.0418235C174.097 0.0418235 174.17 0.0418235 174.244 0.0477983C174.607 0.0597479 174.979 0.0746848 175.355 0.0955966C175.441 0.0955966 175.54 0.104559 175.635 0.113521C175.953 0.128458 176.3 0.14937 176.641 0.173269L176.966 0.194181C177.364 0.224055 177.743 0.250941 178.125 0.28679C178.466 0.313676 178.816 0.346538 179.166 0.385374C179.3 0.397323 179.453 0.41226 179.605 0.427197L179.682 0.436159C180.058 0.477983 180.401 0.513832 180.742 0.558643C181.057 0.594491 181.379 0.636315 181.7 0.681126L182.315 0.764773C182.672 0.815558 183.019 0.869331 183.369 0.923105C183.741 0.979865 184.111 1.0426 184.483 1.10534L184.795 1.1621C185.126 1.21886 185.464 1.28159 185.805 1.34731L185.907 1.36524C186.279 1.43694 186.655 1.51162 187.024 1.58929C187.11 1.60423 187.212 1.62813 187.317 1.65203C187.594 1.70879 187.874 1.76854 188.154 1.83127L188.517 1.91492C188.884 1.99857 189.25 2.08819 189.616 2.17482C190.109 2.29432 190.596 2.42278 191.084 2.55123C191.437 2.64683 191.781 2.74243 192.128 2.83802C192.529 2.95154 192.93 3.06805 193.331 3.18755L193.367 3.1995C193.761 3.31899 194.162 3.44446 194.56 3.56994C195.009 3.71333 195.452 3.85971 195.888 4.01207C196.226 4.12559 196.57 4.2421 196.913 4.36458C196.939 4.37354 196.968 4.38251 196.999 4.39744C197.385 4.53486 197.767 4.67527 198.142 4.81867C198.502 4.9531 198.872 5.09351 199.231 5.2369C199.247 5.24288 199.285 5.25781 199.321 5.27275L199.356 5.28769C199.734 5.43706 200.107 5.58941 200.476 5.74476C200.862 5.90608 201.244 6.07038 201.629 6.23768L201.772 6.30041C202.106 6.44679 202.441 6.59318 202.772 6.74553C203.148 6.91582 203.523 7.09506 203.896 7.26833C204.198 7.41172 204.491 7.55811 204.787 7.7015L205.013 7.81203C206.87 8.73215 208.691 9.7389 210.433 10.8054C210.913 11.0952 211.423 11.4118 211.986 11.7763C212.301 11.9765 212.614 12.1826 212.929 12.3917L212.967 12.4156L213.855 13.0191C214.174 13.2401 214.489 13.4582 214.801 13.6823C215.39 14.1005 215.992 14.5426 216.581 14.9907C216.877 15.2148 217.17 15.4448 217.463 15.6749C218.029 16.117 218.615 16.592 219.198 17.0819C219.481 17.3209 219.765 17.5599 220.045 17.8049C220.274 17.999 220.5 18.2022 220.729 18.4053L221.213 18.8385C221.379 18.9879 221.545 19.1372 221.704 19.2896C221.958 19.5226 222.22 19.7616 222.471 20.0066C222.497 20.0305 222.525 20.0574 222.554 20.0872C222.754 20.2784 222.952 20.4666 223.143 20.6578C223.42 20.9237 223.697 21.1985 223.971 21.4734C224.155 21.6586 224.343 21.8498 224.525 22.041C224.697 22.2172 224.869 22.3995 225.044 22.5817C225.241 22.7878 225.435 22.997 225.63 23.2061C225.83 23.4212 226.028 23.6392 226.225 23.8603C226.406 24.0635 226.591 24.2696 226.773 24.4757C227.094 24.8432 227.413 25.2106 227.728 25.581L227.807 25.6766C227.903 25.7932 228.002 25.9097 228.1 26.0292C228.167 26.1068 228.237 26.1935 228.307 26.2831L228.431 26.4354C228.591 26.6296 228.747 26.8238 228.903 27.021C229.055 27.2092 229.211 27.4093 229.364 27.6065L229.613 27.9232C229.73 28.0755 229.845 28.2279 229.96 28.3802L230.409 28.9807C230.574 29.2048 230.737 29.4288 230.899 29.6529C231.061 29.8769 231.221 30.101 231.377 30.331C231.533 30.5521 231.692 30.7791 231.845 31.0062C233.488 33.408 234.984 35.9443 236.296 38.5434C236.382 38.7077 236.468 38.8809 236.554 39.0572C236.719 39.3888 236.885 39.7353 237.047 40.0789C237.124 40.2432 237.203 40.4105 237.276 40.5748C237.808 41.7219 238.318 42.9199 238.789 44.1298C238.888 44.3837 238.986 44.6436 239.085 44.9005L239.107 44.9603C239.209 45.2381 239.314 45.5189 239.413 45.7938C239.496 46.0208 239.572 46.2419 239.648 46.4659C239.738 46.7258 239.827 46.9887 239.913 47.2486L239.954 47.3741C240.021 47.5802 240.088 47.7834 240.152 47.9895C240.241 48.2703 240.33 48.5541 240.416 48.8409C240.492 49.0948 240.569 49.3517 240.642 49.6087L240.811 50.1942C241.075 51.1442 241.317 52.1091 241.54 53.0651L241.699 53.7791C241.753 54.027 241.804 54.272 241.852 54.5229C241.884 54.6693 241.912 54.8246 241.944 54.977L241.992 55.219C242.008 55.2937 242.021 55.3684 242.03 55.4371C242.078 55.682 242.122 55.927 242.164 56.172C242.266 56.7545 242.355 57.3012 242.438 57.8479C242.597 58.9114 242.727 59.9719 242.826 61.0026C242.852 61.2595 242.877 61.5224 242.896 61.7793V61.8151C242.915 61.9914 242.931 62.1647 242.944 62.3379C242.953 62.4634 242.963 62.5949 242.973 62.7263C242.985 62.9145 242.998 63.1027 243.008 63.2939C243.02 63.4881 243.033 63.6912 243.043 63.9003C243.059 64.1244 243.068 64.3783 243.078 64.6323V64.6681C243.087 64.8623 243.094 65.0595 243.097 65.2566C243.109 65.6241 243.119 66.0065 243.122 66.3859V66.4217C243.125 66.6995 243.129 66.9744 243.129 67.2522C243.129 80.809 238.849 93.8758 230.753 105.04C222.85 115.938 211.837 124.359 198.907 129.393C194.169 131.239 189.192 132.607 184.12 133.459L183.955 133.471H183.923C176.361 132.99 168.681 133.097 161.094 133.784L160.998 133.793L161.005 133.79ZM171.464 1.4937C132.82 1.4937 101.379 30.9912 101.379 67.2522C101.379 67.8616 101.385 68.4143 101.401 68.9461C101.407 69.2269 101.417 69.5017 101.43 69.7736C101.465 70.7295 101.528 71.7064 101.614 72.6893L101.767 74.2158C101.783 74.3712 101.802 74.5235 101.821 74.6759C101.844 74.873 101.869 75.0583 101.895 75.2495C101.92 75.4705 101.949 75.6796 101.981 75.8917C102.019 76.1726 102.06 76.4444 102.102 76.7163C102.188 77.2988 102.289 77.9023 102.404 78.5206L102.452 78.7835C102.471 78.8821 102.49 78.9837 102.509 79.0823L102.544 79.2555C102.566 79.3721 102.589 79.4886 102.617 79.6051C102.656 79.8022 102.691 79.9815 102.732 80.1607C102.786 80.4176 102.84 80.6596 102.891 80.9016L103.047 81.5738C103.321 82.7448 103.636 83.9189 103.983 85.063C104.05 85.2961 104.117 85.5171 104.19 85.7382C104.257 85.9563 104.321 86.1624 104.388 86.3655C104.464 86.6015 104.544 86.8435 104.626 87.0855L104.677 87.2379C104.738 87.4111 104.795 87.5874 104.856 87.7577C105.012 88.2058 105.174 88.6509 105.336 89.09L105.365 89.1647C105.435 89.3559 105.508 89.5471 105.585 89.7383C105.674 89.9654 105.76 90.1834 105.846 90.4015C105.932 90.6256 106.021 90.8377 106.11 91.0528C106.203 91.2738 106.292 91.4919 106.384 91.707C106.441 91.8414 106.499 91.9759 106.559 92.1103L106.664 92.3553C106.76 92.5704 106.852 92.7825 106.951 92.9886C107.135 93.3979 107.32 93.7982 107.511 94.1955C107.874 94.9543 108.221 95.6384 108.568 96.2956C108.654 96.454 108.74 96.6153 108.823 96.7736C108.934 96.9857 109.046 97.1889 109.157 97.395C109.383 97.8102 109.613 98.2165 109.848 98.6198C110.081 99.0231 110.323 99.4264 110.568 99.8267C110.692 100.03 110.813 100.227 110.937 100.427L111.033 100.58C111.125 100.726 111.217 100.872 111.31 101.019C111.561 101.416 111.819 101.81 112.08 102.196C112.491 102.814 112.914 103.424 113.341 104.015C113.713 104.538 114.108 105.064 114.541 105.631C114.828 106.005 115.118 106.372 115.411 106.737C115.554 106.916 115.697 107.092 115.837 107.265L115.856 107.289C116.14 107.636 116.423 107.979 116.713 108.317C116.878 108.511 117.044 108.705 117.216 108.896L117.369 109.07C117.458 109.171 117.544 109.273 117.633 109.371C117.808 109.572 117.98 109.763 118.158 109.954C118.317 110.13 118.47 110.295 118.623 110.459L118.645 110.483C118.833 110.683 119.008 110.874 119.193 111.062C119.652 111.543 120.116 112.015 120.619 112.514C120.96 112.855 121.31 113.189 121.638 113.5C121.947 113.796 122.288 114.109 122.679 114.465C122.861 114.635 123.036 114.788 123.208 114.943C123.561 115.26 123.921 115.57 124.281 115.878C124.641 116.189 125.007 116.493 125.373 116.795C125.551 116.942 125.717 117.073 125.883 117.204C126.545 117.739 127.15 118.208 127.736 118.647C128.076 118.904 128.427 119.158 128.774 119.409C128.971 119.552 129.159 119.69 129.353 119.821C129.56 119.974 129.754 120.105 129.948 120.24C130.146 120.377 130.343 120.511 130.541 120.643C130.735 120.777 130.926 120.903 131.114 121.028L131.142 121.046C131.54 121.312 131.945 121.569 132.352 121.829C132.789 122.104 133.234 122.382 133.686 122.65C134.075 122.883 134.457 123.11 134.849 123.338L135.457 123.681C135.699 123.818 135.944 123.956 136.192 124.09L136.396 124.201C136.504 124.261 136.612 124.32 136.724 124.377C137.125 124.592 137.523 124.798 137.921 125.007C138.478 125.294 139.055 125.581 139.685 125.88C139.895 125.984 140.102 126.08 140.306 126.173C142.305 127.108 144.385 127.965 146.499 128.721C148.075 129.282 149.651 129.787 151.185 130.22C151.376 130.277 151.558 130.328 151.739 130.376C153.175 130.773 154.662 131.132 156.162 131.445C156.359 131.487 156.554 131.526 156.748 131.565L156.856 131.586C158.232 131.858 159.642 132.097 161.046 132.294C168.659 131.607 176.361 131.499 183.948 131.977C188.877 131.144 193.707 129.814 198.311 128.019C224.579 117.793 241.552 93.9416 241.552 67.2582C241.552 66.9863 241.553 66.7145 241.546 66.4426V66.4068C241.543 66.0363 241.533 65.6689 241.521 65.3014C241.517 65.1043 241.511 64.919 241.502 64.7368V64.6681C241.492 64.456 241.482 64.217 241.467 63.981C241.46 63.7659 241.447 63.5777 241.435 63.3895C241.425 63.1953 241.412 63.0161 241.4 62.8338C241.393 62.6934 241.384 62.5769 241.374 62.4574C241.361 62.2842 241.346 62.1199 241.333 61.9496V61.9078C241.311 61.6538 241.285 61.4029 241.26 61.1549C241.161 60.1452 241.034 59.1086 240.877 58.066C240.798 57.5312 240.709 56.9965 240.61 56.4319C240.569 56.1869 240.524 55.9479 240.476 55.7089L240.47 55.676C240.46 55.6193 240.451 55.5625 240.438 55.5028L240.39 55.2578C240.362 55.1114 240.333 54.965 240.301 54.8217C240.25 54.5707 240.199 54.3287 240.148 54.0868L239.996 53.3937C239.779 52.4556 239.54 51.5116 239.286 50.5885L239.12 50.012C239.047 49.761 238.977 49.5101 238.9 49.2621C238.814 48.9813 238.728 48.7035 238.639 48.4256C238.576 48.2225 238.512 48.0253 238.445 47.8252L238.404 47.7027C238.321 47.4488 238.235 47.1948 238.146 46.9379C238.069 46.7169 237.993 46.5018 237.916 46.2837C237.818 46.0118 237.716 45.737 237.614 45.4592L237.592 45.4024C237.499 45.1544 237.404 44.9035 237.305 44.6526C236.843 43.4696 236.344 42.2985 235.821 41.1693C235.748 41.005 235.672 40.8466 235.599 40.6883C235.439 40.3507 235.28 40.0161 235.115 39.6815C235.032 39.5083 234.952 39.3529 234.873 39.1946C233.586 36.6434 232.122 34.1638 230.517 31.8157C230.364 31.5947 230.211 31.3736 230.058 31.1555C229.902 30.9315 229.746 30.7134 229.59 30.4953C229.434 30.2772 229.275 30.0592 229.116 29.8441L228.667 29.2466C228.556 29.1002 228.444 28.9538 228.333 28.8074L228.091 28.4967C227.938 28.2996 227.788 28.1084 227.635 27.9202C227.479 27.723 227.33 27.5378 227.177 27.3496L227.046 27.1913C226.98 27.1106 226.913 27.0299 226.846 26.9493C226.744 26.8268 226.652 26.7133 226.556 26.5998L226.48 26.5101C226.174 26.1516 225.865 25.7902 225.55 25.4317C225.372 25.2315 225.193 25.0284 225.012 24.8282C224.821 24.6131 224.627 24.401 224.429 24.1889C224.241 23.9828 224.05 23.7826 223.859 23.5825C223.691 23.4062 223.519 23.227 223.347 23.0507C223.165 22.8625 222.987 22.6803 222.809 22.4981C222.544 22.2292 222.274 21.9633 222 21.7004C221.806 21.5092 221.611 21.321 221.414 21.1358L221.379 21.1C221.379 21.1 221.353 21.0761 221.341 21.0641C221.089 20.8221 220.838 20.5891 220.586 20.3591C220.424 20.2067 220.265 20.0633 220.109 19.9199L219.641 19.5017C219.414 19.3015 219.192 19.1074 218.966 18.9132C218.688 18.6712 218.411 18.4382 218.134 18.2052C217.565 17.7272 216.998 17.2641 216.441 16.834C216.151 16.6069 215.864 16.3859 215.575 16.1618C214.998 15.7197 214.416 15.2895 213.833 14.8802C213.524 14.6562 213.222 14.447 212.913 14.2349L212.021 13.6285C211.7 13.4134 211.394 13.2132 211.085 13.0191C210.534 12.6636 210.038 12.3529 209.563 12.0691C207.86 11.0265 206.08 10.0436 204.268 9.14441L204.045 9.03687C203.756 8.89347 203.466 8.75306 203.173 8.61266C202.81 8.44237 202.441 8.2691 202.068 8.09882C201.743 7.94945 201.419 7.80606 201.094 7.66266L200.954 7.59993C200.581 7.43861 200.206 7.27729 199.83 7.11896C199.467 6.9666 199.104 6.82022 198.738 6.67384L198.636 6.63201C198.263 6.48563 197.907 6.34821 197.55 6.21378C197.162 6.0674 196.777 5.924 196.388 5.78658L196.296 5.75073C195.981 5.6402 195.665 5.52966 195.347 5.42511C194.911 5.27574 194.484 5.13234 194.051 4.99492C193.663 4.87244 193.268 4.74996 192.876 4.63046L192.841 4.61851C192.456 4.502 192.064 4.38848 191.669 4.27795C191.329 4.18235 190.991 4.08974 190.647 3.99713C190.176 3.87166 189.699 3.74918 189.218 3.63267C188.861 3.54604 188.498 3.4594 188.135 3.37575L187.772 3.29509C187.511 3.23535 187.241 3.17859 186.973 3.12183C186.862 3.09793 186.779 3.07702 186.693 3.06208C186.34 2.98739 186.002 2.92167 185.665 2.85595H185.639L185.559 2.83802C185.203 2.76633 184.853 2.70359 184.496 2.64086L184.184 2.58708C183.837 2.52733 183.477 2.46759 183.111 2.41083C182.767 2.35705 182.423 2.30627 182.079 2.25548L181.468 2.17183C181.156 2.13001 180.847 2.08819 180.535 2.05234C180.194 2.00753 179.863 1.97168 179.529 1.93583L179.43 1.92388C179.287 1.90894 179.147 1.89401 179.004 1.88206C178.647 1.84322 178.313 1.81335 177.978 1.78646C177.6 1.75061 177.23 1.72373 176.855 1.69684L176.536 1.67593C176.199 1.65502 175.864 1.63112 175.533 1.61618C175.438 1.61021 175.358 1.60423 175.282 1.60124C174.906 1.58332 174.54 1.56838 174.174 1.55344C174.113 1.55046 174.069 1.54747 174.024 1.54747C173.623 1.53552 173.253 1.52357 172.881 1.52058H172.846C172.808 1.52058 172.769 1.51461 172.731 1.5176H172.703H172.671C172.273 1.50863 171.868 1.50565 171.467 1.50565L171.464 1.4937Z" fill="#333333"/>
<path d="M171.465 122.964C138.724 122.964 112.087 97.9713 112.087 67.2519C112.087 36.5326 138.724 11.54 171.465 11.54C204.205 11.54 230.842 36.5326 230.842 67.2519C230.842 97.9713 204.205 122.964 171.465 122.964ZM171.465 13.0337C139.603 13.0337 113.679 37.3571 113.679 67.2519C113.679 97.1468 139.603 121.47 171.465 121.47C203.326 121.47 229.25 97.1468 229.25 67.2519C229.25 37.3571 203.326 13.0337 171.465 13.0337Z" fill="#333333"/>
<path d="M195.119 69.2477C192.82 66.8637 190.104 65.1281 186.965 64.0347C183.829 62.9443 179.868 61.9196 175.092 60.9666C170.851 60.1242 167.769 59.3146 165.862 58.5289C163.948 57.7432 162.993 56.5662 162.993 54.9978C162.993 53.4294 163.802 52.1538 165.413 51.1739C167.027 50.1881 169.593 49.6982 173.121 49.6982C178.735 49.6982 184.529 51.2128 190.506 54.239L195.969 41.8802C193.521 40.5358 190.729 39.4425 187.589 38.6C184.456 37.7605 181.183 37.1989 177.779 36.9181V27.8364H167.027V37.0854C160.035 37.8741 154.686 39.9862 150.983 43.4306C147.28 46.884 145.43 51.0156 145.43 55.8343C145.43 59.93 146.564 63.1773 148.834 65.5881C151.104 67.9989 153.823 69.7496 156.988 70.8429C160.159 71.9363 164.098 72.961 168.82 73.908C173.121 74.8102 176.238 75.6646 178.181 76.4772C180.126 77.2868 181.097 78.5355 181.097 80.2174C181.097 83.4139 177.69 85.0122 170.88 85.0122C167.298 85.0122 163.655 84.4774 159.949 83.4169C156.243 82.3534 152.989 80.9493 150.184 79.2106L144.357 91.4858C146.987 93.1707 150.302 94.5867 154.304 95.7339C158.306 96.8811 162.547 97.598 167.03 97.8789V106.877H177.783V97.5443C184.529 96.5943 189.684 94.4224 193.238 91.0288C196.794 87.6351 198.571 83.617 198.571 78.9627C198.571 74.87 197.418 71.6346 195.116 69.2507L195.119 69.2477Z" fill="#3D9BE9"/>
<path d="M178.579 107.621H166.235V98.5722C161.987 98.2585 157.899 97.5445 154.072 96.4452C150.013 95.2831 146.593 93.8193 143.909 92.1015L143.361 91.749L149.841 78.0996L150.624 78.5865C153.356 80.2804 156.572 81.6665 160.182 82.7032C163.799 83.7398 167.4 84.2686 170.88 84.2686C177.13 84.2686 180.302 82.9063 180.302 80.2206C180.302 78.8315 179.525 77.8576 177.859 77.1645C175.981 76.3759 172.883 75.5274 168.648 74.6402C163.939 73.6962 159.921 72.6536 156.715 71.5452C153.435 70.41 150.586 68.5728 148.239 66.0843C145.848 63.545 144.635 60.0976 144.635 55.8345C144.635 50.8336 146.583 46.484 150.423 42.9021C154.107 39.4726 159.424 37.2978 166.232 36.4284V27.0898H178.576V36.2372C181.757 36.539 184.858 37.0887 187.806 37.8803C190.987 38.7347 193.868 39.861 196.368 41.2352L196.966 41.5638L190.898 55.2879L190.121 54.8965C184.285 51.942 178.563 50.4453 173.115 50.4453C169.763 50.4453 167.314 50.9024 165.84 51.7986C164.455 52.641 163.783 53.6866 163.783 54.9951C163.783 55.7957 164.032 56.9608 166.174 57.8421C168.012 58.5979 171.065 59.4045 175.252 60.235C180.047 61.1939 184.078 62.2365 187.236 63.3329C190.478 64.4651 193.327 66.2844 195.702 68.7461C198.132 71.2614 199.361 74.6969 199.361 78.96C199.361 83.7906 197.489 88.0267 193.798 91.5488C190.261 94.9276 185.141 97.1562 178.573 98.1779V107.621H178.579ZM167.827 106.127H176.987V96.8963L177.665 96.8007C184.211 95.8776 189.261 93.7595 192.671 90.5003C196.059 87.2679 197.778 83.3843 197.778 78.957C197.778 75.0793 196.686 71.9784 194.531 69.7468C192.327 67.4645 189.691 65.7766 186.689 64.731C183.603 63.6585 179.646 62.6368 174.927 61.6928C170.575 60.8295 167.505 60.0169 165.544 59.2073C163.325 58.2962 162.201 56.8801 162.201 54.9921C162.201 53.1041 163.137 51.6641 164.984 50.5409C166.741 49.4684 169.406 48.9456 173.125 48.9456C178.595 48.9456 184.307 50.3736 190.108 53.1907L194.967 42.1971C192.722 41.032 190.172 40.0611 187.373 39.3113C184.297 38.4867 181.047 37.9311 177.713 37.6563L176.987 37.5965V28.5776H167.827V37.7429L167.126 37.8206C160.341 38.5853 155.101 40.6496 151.547 43.9567C148.019 47.2458 146.23 51.2429 146.23 55.8286C146.23 59.7152 147.309 62.831 149.433 65.0895C151.601 67.3928 154.235 69.0896 157.266 70.1382C160.402 71.2196 164.347 72.2413 168.989 73.1734C173.396 74.0965 176.506 74.9539 178.506 75.7903C181.305 76.9584 181.894 78.8375 181.894 80.2117C181.894 83.8892 178.187 85.7533 170.88 85.7533C167.241 85.7533 163.484 85.2066 159.714 84.1252C156.298 83.1453 153.212 81.8607 150.532 80.3013L145.354 91.2053C147.822 92.693 150.904 93.9716 154.534 95.0112C158.469 96.1405 162.691 96.8515 167.082 97.1263L167.824 97.1741V106.124L167.827 106.127Z" fill="#333333"/>
<path d="M103.814 79.614C103.744 79.3541 102.14 73.1403 102.875 63.7539C103.556 55.1054 106.463 42.0535 116.455 29.0016C124.481 18.5128 137.809 10.3274 153.022 6.53934C165.029 3.54896 183.834 1.86108 205.227 10.8053L204.577 12.1706C168.519 -2.90381 132.928 10.0436 117.747 29.8769C107.989 42.6271 105.139 55.3653 104.467 63.8077C103.738 72.97 105.343 79.1957 105.359 79.2585L103.814 79.617V79.614Z" fill="white"/>
<path d="M200.62 119.209L199.897 117.88C202.951 116.416 205.871 114.716 208.571 112.828C219.262 105.356 232.004 91.1395 232.004 65.8452H233.596C233.596 91.7609 220.504 106.351 209.523 114.026C206.753 115.965 203.756 117.709 200.623 119.209H200.62Z" fill="white"/>
<path d="M143.996 119.597C141.058 118.208 138.151 116.538 135.358 114.629C131.563 112.039 127.809 108.89 124.208 105.279L125.37 104.257C128.904 107.803 132.579 110.886 136.294 113.422C139.017 115.283 141.847 116.911 144.71 118.265L143.993 119.6L143.996 119.597Z" fill="white"/>
<path d="M148.578 90.8282L147.142 90.1859L151.102 82.3828L151.86 82.828C151.933 82.8728 159.54 87.2433 172.359 87.2433C176.937 87.2433 180.115 86.2157 181.812 84.1932C183.795 81.8242 183.038 78.8039 183.031 78.7741L184.575 78.4126C184.617 78.565 185.534 82.1468 183.076 85.0984C181.067 87.5122 177.462 88.737 172.359 88.737C161.278 88.737 154.073 85.6481 151.787 84.5039L148.578 90.8252V90.8282Z" fill="white"/>
<path d="M148.654 57.7401H147.062C147.062 52.4584 149.435 47.6816 153.739 44.2909C157.681 41.187 162.966 39.4184 168.697 39.2661V29.4346H175.689V30.9283H170.289V40.7478H169.493C157.417 40.7478 148.651 47.8937 148.651 57.7371L148.654 57.7401Z" fill="white"/>
<path d="M192.558 43.8788C186.875 41.1513 179.542 40.7569 179.466 40.751L179.552 39.2603C179.864 39.2752 187.302 39.6755 193.284 42.5494L192.558 43.8788Z" fill="white"/>
<path d="M192.786 72.9519C189.391 67.8584 183.348 66.2542 169.339 63.5566L169.657 62.0928C183.829 64.8203 190.429 66.5978 194.132 72.1603L192.782 72.9519H192.786Z" fill="white"/>
</svg>
