<svg width="115" height="22" viewBox="0 0 115 22" fill="none" xmlns="http://www.w3.org/2000/svg">
<path d="M3 0H112V17C112 19.7614 109.761 22 107 22H9C5.68629 22 3 19.3137 3 16V0Z" fill="#FF7676"/>
<path d="M13.5866 10.0348H12.3797L11.4142 9.79337L11.1729 14.621L11.897 15.5865L13.828 15.8279L19.3797 15.5865L20.3453 14.8623L21.0694 11.483L20.5866 10.0348L17.9315 9.79337V8.10372L18.1729 6.89682L17.4487 6.41406L16.4832 6.65544L16.0004 7.62096L14.5522 9.31061L13.5866 10.0348Z" fill="white"/>
<mask id="path-3-inside-1_17088_195375" fill="white">
<path d="M17.7497 9.83261L17.318 9.76086C17.3076 9.82354 17.3109 9.88773 17.3278 9.94897C17.3447 10.0102 17.3748 10.067 17.4158 10.1155C17.4569 10.164 17.5081 10.2029 17.5657 10.2296C17.6234 10.2563 17.6861 10.2701 17.7497 10.2701V9.83261ZM11.333 9.83261V9.39511C11.217 9.39511 11.1057 9.44121 11.0236 9.52326C10.9416 9.6053 10.8955 9.71658 10.8955 9.83261H11.333ZM12.4997 16.1034H19.1263V15.2284H12.4997V16.1034ZM19.8263 9.39511H17.7497V10.2701H19.8263V9.39511ZM18.1813 9.90437L18.6515 7.08395L17.7882 6.93986L17.318 9.76086L18.1813 9.90437ZM17.6447 5.89511H17.5198V6.77011H17.6441L17.6447 5.89511ZM15.6993 6.86928L14.2322 9.0702L14.9602 9.55553L16.4273 7.35461L15.6993 6.86928ZM13.6255 9.39511H11.333V10.2701H13.6255V9.39511ZM10.8955 9.83261V14.4993H11.7705V9.83261H10.8955ZM20.6996 14.8143L21.3996 11.3143L20.5421 11.1422L19.8421 14.6422L20.6996 14.8143ZM14.2322 9.0702C14.1656 9.17011 14.0754 9.25147 13.9696 9.30815C13.8638 9.36483 13.7456 9.3945 13.6255 9.39453V10.2695C14.1622 10.2695 14.6627 10.0018 14.9602 9.55553L14.2322 9.0702ZM18.6515 7.08395C18.6758 6.93775 18.668 6.78742 18.6286 6.64455C18.5892 6.50167 18.5191 6.36909 18.4233 6.25602C18.3275 6.14294 18.2082 6.05209 18.0738 5.98976C17.9393 5.92744 17.7929 5.89514 17.6447 5.89511L17.6441 6.77011C17.6652 6.77017 17.6867 6.77482 17.7059 6.78374C17.725 6.79267 17.742 6.80565 17.7557 6.8218C17.7693 6.83795 17.7793 6.85687 17.7849 6.87726C17.7905 6.89764 17.7916 6.91901 17.7882 6.93986L18.6515 7.08395ZM19.8263 10.2695C20.2872 10.2695 20.6313 10.6907 20.5415 11.1416L21.3996 11.3137C21.446 11.081 21.4402 10.8403 21.3827 10.6101C21.3251 10.3799 21.2172 10.1654 21.0667 9.98192C20.9162 9.79846 20.7269 9.65067 20.5124 9.5492C20.2979 9.44773 20.0636 9.3951 19.8263 9.39511V10.2695ZM19.1263 16.1034C19.4972 16.1035 19.8566 15.9745 20.1434 15.7395C20.4302 15.5045 20.6268 15.1773 20.6996 14.8137L19.8421 14.6416C19.809 14.807 19.7196 14.9559 19.5891 15.0628C19.4586 15.1697 19.295 15.2286 19.1263 15.2284V16.1034ZM17.5198 5.89511C17.1597 5.89514 16.8052 5.98349 16.4877 6.15343C16.1702 6.32337 15.8996 6.56906 15.6998 6.8687L16.4273 7.35461C16.5472 7.17475 16.7096 7.0267 16.9002 6.92473C17.0908 6.82276 17.3037 6.77003 17.5198 6.77011V5.89511ZM12.4997 15.2284C12.0972 15.2284 11.7705 14.9018 11.7705 14.4993H10.8955C10.8955 14.9247 11.0645 15.3328 11.3654 15.6336C11.6662 15.9344 12.0742 16.1034 12.4997 16.1034V15.2284Z"/>
</mask>
<path d="M17.7497 9.83261L17.318 9.76086C17.3076 9.82354 17.3109 9.88773 17.3278 9.94897C17.3447 10.0102 17.3748 10.067 17.4158 10.1155C17.4569 10.164 17.5081 10.2029 17.5657 10.2296C17.6234 10.2563 17.6861 10.2701 17.7497 10.2701V9.83261ZM11.333 9.83261V9.39511C11.217 9.39511 11.1057 9.44121 11.0236 9.52326C10.9416 9.6053 10.8955 9.71658 10.8955 9.83261H11.333ZM12.4997 16.1034H19.1263V15.2284H12.4997V16.1034ZM19.8263 9.39511H17.7497V10.2701H19.8263V9.39511ZM18.1813 9.90437L18.6515 7.08395L17.7882 6.93986L17.318 9.76086L18.1813 9.90437ZM17.6447 5.89511H17.5198V6.77011H17.6441L17.6447 5.89511ZM15.6993 6.86928L14.2322 9.0702L14.9602 9.55553L16.4273 7.35461L15.6993 6.86928ZM13.6255 9.39511H11.333V10.2701H13.6255V9.39511ZM10.8955 9.83261V14.4993H11.7705V9.83261H10.8955ZM20.6996 14.8143L21.3996 11.3143L20.5421 11.1422L19.8421 14.6422L20.6996 14.8143ZM14.2322 9.0702C14.1656 9.17011 14.0754 9.25147 13.9696 9.30815C13.8638 9.36483 13.7456 9.3945 13.6255 9.39453V10.2695C14.1622 10.2695 14.6627 10.0018 14.9602 9.55553L14.2322 9.0702ZM18.6515 7.08395C18.6758 6.93775 18.668 6.78742 18.6286 6.64455C18.5892 6.50167 18.5191 6.36909 18.4233 6.25602C18.3275 6.14294 18.2082 6.05209 18.0738 5.98976C17.9393 5.92744 17.7929 5.89514 17.6447 5.89511L17.6441 6.77011C17.6652 6.77017 17.6867 6.77482 17.7059 6.78374C17.725 6.79267 17.742 6.80565 17.7557 6.8218C17.7693 6.83795 17.7793 6.85687 17.7849 6.87726C17.7905 6.89764 17.7916 6.91901 17.7882 6.93986L18.6515 7.08395ZM19.8263 10.2695C20.2872 10.2695 20.6313 10.6907 20.5415 11.1416L21.3996 11.3137C21.446 11.081 21.4402 10.8403 21.3827 10.6101C21.3251 10.3799 21.2172 10.1654 21.0667 9.98192C20.9162 9.79846 20.7269 9.65067 20.5124 9.5492C20.2979 9.44773 20.0636 9.3951 19.8263 9.39511V10.2695ZM19.1263 16.1034C19.4972 16.1035 19.8566 15.9745 20.1434 15.7395C20.4302 15.5045 20.6268 15.1773 20.6996 14.8137L19.8421 14.6416C19.809 14.807 19.7196 14.9559 19.5891 15.0628C19.4586 15.1697 19.295 15.2286 19.1263 15.2284V16.1034ZM17.5198 5.89511C17.1597 5.89514 16.8052 5.98349 16.4877 6.15343C16.1702 6.32337 15.8996 6.56906 15.6998 6.8687L16.4273 7.35461C16.5472 7.17475 16.7096 7.0267 16.9002 6.92473C17.0908 6.82276 17.3037 6.77003 17.5198 6.77011V5.89511ZM12.4997 15.2284C12.0972 15.2284 11.7705 14.9018 11.7705 14.4993H10.8955C10.8955 14.9247 11.0645 15.3328 11.3654 15.6336C11.6662 15.9344 12.0742 16.1034 12.4997 16.1034V15.2284Z" fill="#D94343"/>
<path d="M20.8728 11.7182L21.3015 11.804L21.4976 10.8234L21.0689 10.7377L20.8728 11.7182ZM19.6263 16.1034V15.2284H18.6263V16.1034H19.6263ZM11.9997 15.2284V16.1034H12.9997V15.2284H11.9997ZM18.7338 6.59077L17.8705 6.44669L17.7059 7.43304L18.5692 7.57713L18.7338 6.59077ZM17.0198 5.89511V6.77011H18.0198V5.89511H17.0198ZM18.1441 6.77045L18.1447 5.89545L17.1447 5.89478L17.1441 6.76978L18.1441 6.77045ZM13.9548 9.48622L14.6828 9.97156L15.2375 9.13951L14.5095 8.65417L13.9548 9.48622ZM10.8955 14.9993H11.7705V13.9993H10.8955V14.9993ZM17.7497 9.83261H18.7497V8.98511L17.9136 8.84615L17.7497 9.83261ZM17.318 9.76086L16.3316 9.59647L16.3315 9.59686L17.318 9.76086ZM11.333 9.83261V10.8326H12.333V9.83261H11.333ZM21.3996 11.3137L21.203 12.2942L22.1844 12.491L22.3803 11.5093L21.3996 11.3137ZM19.1263 16.1034L19.1265 15.1034H19.1263V16.1034ZM19.1263 15.2284L19.1273 14.2284H19.1263V15.2284ZM17.7497 9.39511V8.39511H16.7497V9.39511H17.7497ZM19.8263 10.2701V11.2701H20.8263V10.2701H19.8263ZM18.1813 9.90437L18.0174 10.8908L19.0034 11.0547L19.1677 10.0688L18.1813 9.90437ZM18.6515 7.08395L19.6379 7.24838L19.638 7.24795L18.6515 7.08395ZM17.7882 6.93986L18.7746 7.10426L18.7746 7.10387L17.7882 6.93986ZM17.6447 5.89511L17.6448 4.89511H17.6447V5.89511ZM17.5198 5.89511V4.89511H17.5198L17.5198 5.89511ZM17.5198 6.77011L17.5195 7.77011H17.5198V6.77011ZM17.6441 6.77011L17.6466 5.77011H17.6441V6.77011ZM15.6993 6.86928L16.254 6.03723L15.4219 5.4825L14.8672 6.31463L15.6993 6.86928ZM14.2322 9.0702L13.4001 8.51555L13.3999 8.5158L14.2322 9.0702ZM14.9602 9.55553L15.7922 10.1102L15.7923 10.1102L14.9602 9.55553ZM13.6255 9.39511H14.6255V8.39511H13.6255V9.39511ZM11.333 10.2701H10.333V11.2701H11.333V10.2701ZM13.6255 10.2701V11.2701H14.6255V10.2701H13.6255ZM10.8955 14.4993H9.89551H10.8955ZM11.7705 9.83261H12.7705V8.83261H11.7705V9.83261ZM20.6996 14.8143L20.5028 15.7947L21.4839 15.9916L21.6802 15.0104L20.6996 14.8143ZM21.3996 11.3143L22.3802 11.5104L22.5762 10.5305L21.5963 10.3338L21.3996 11.3143ZM20.5421 11.1422L20.7388 10.1617L19.7578 9.96486L19.5615 10.9461L20.5421 11.1422ZM19.8421 14.6422L18.8615 14.4461L18.6655 15.426L19.6453 15.6227L19.8421 14.6422ZM13.6255 9.39453L13.6253 8.39453L12.6255 8.39478V9.39453H13.6255ZM13.6255 10.2695H12.6255V11.2695H13.6255V10.2695ZM19.8263 10.2695H18.8263V11.2695H19.8263V10.2695ZM20.5415 11.1416L19.5608 10.9462L19.3656 11.9257L20.3449 12.1221L20.5415 11.1416ZM20.6996 14.8137L21.6801 15.0101L21.8764 14.0299L20.8963 13.8332L20.6996 14.8137ZM19.8421 14.6416L20.0388 13.6612L19.0576 13.4643L18.8615 14.4456L19.8421 14.6416ZM15.6998 6.8687L14.8678 6.31403L14.3136 7.1453L15.1444 7.70024L15.6998 6.8687ZM17.9136 8.84615L17.482 8.7744L17.154 10.7473L17.5857 10.8191L17.9136 8.84615ZM16.3315 9.59686C16.2973 9.80278 16.3083 10.0137 16.3639 10.2149L18.2918 9.68302C18.3136 9.76176 18.3179 9.84429 18.3045 9.92486L16.3315 9.59686ZM16.3639 10.2149C16.4194 10.4162 16.5181 10.6029 16.653 10.7621L18.1787 9.4689C18.2315 9.53121 18.2701 9.60427 18.2918 9.68302L16.3639 10.2149ZM16.653 10.7621C16.788 10.9213 16.956 11.0493 17.1455 11.137L17.986 9.3222C18.0601 9.35653 18.1259 9.40659 18.1787 9.4689L16.653 10.7621ZM17.1455 11.137C17.3349 11.2247 17.5411 11.2702 17.7499 11.2701L17.7495 9.27011C17.8312 9.2701 17.9119 9.28787 17.986 9.3222L17.1455 11.137ZM18.7497 10.2701V9.83261H16.7497V10.2701H18.7497ZM12.333 9.83261V9.39511H10.333V9.83261H12.333ZM11.333 8.39511C10.9518 8.39511 10.5861 8.54657 10.3165 8.81615L11.7308 10.2304C11.6253 10.3359 11.4822 10.3951 11.333 10.3951V8.39511ZM10.3165 8.81615C10.047 9.08573 9.89551 9.45137 9.89551 9.83261H11.8955C11.8955 9.9818 11.8362 10.1249 11.7308 10.2304L10.3165 8.81615ZM10.8955 10.8326H11.333V8.83261H10.8955V10.8326ZM12.4997 17.1034H19.1263V15.1034H12.4997V17.1034ZM19.1263 14.2284H12.4997V16.2284H19.1263V14.2284ZM19.8263 8.39511H17.7497V10.3951H19.8263V8.39511ZM16.7497 9.39511V10.2701H18.7497V9.39511H16.7497ZM17.7497 11.2701H19.8263V9.27011H17.7497V11.2701ZM20.8263 10.2701V9.39511H18.8263V10.2701H20.8263ZM19.1677 10.0688L19.6379 7.24838L17.6651 6.91952L17.195 9.73993L19.1677 10.0688ZM16.8018 6.77547L16.3316 9.59647L18.3044 9.92526L18.7746 7.10426L16.8018 6.77547ZM17.154 10.7473L18.0174 10.8908L18.3453 8.9179L17.482 8.7744L17.154 10.7473ZM17.6447 4.89511H17.5198V6.89511H17.6447V4.89511ZM17.5198 7.77011H17.6441V5.77011H17.5198V7.77011ZM14.8672 6.31463L13.4001 8.51555L15.0643 9.62485L16.5313 7.42393L14.8672 6.31463ZM15.7923 10.1102L17.2593 7.90926L15.5952 6.79997L14.1281 9.00088L15.7923 10.1102ZM16.982 6.52256L16.254 6.03723L15.1446 7.70133L15.8726 8.18666L16.982 6.52256ZM13.6255 8.39511H11.333V10.3951H13.6255V8.39511ZM10.333 9.39511V10.2701H12.333V9.39511H10.333ZM11.333 11.2701H13.6255V9.27011H11.333V11.2701ZM14.6255 10.2701V9.39511H12.6255V10.2701H14.6255ZM9.89551 9.83261V14.4993H11.8955V9.83261H9.89551ZM12.7705 14.4993V9.83261H10.7705V14.4993H12.7705ZM11.7705 8.83261H10.8955V10.8326H11.7705V8.83261ZM21.6802 15.0104L22.3802 11.5104L20.419 11.1182L19.719 14.6182L21.6802 15.0104ZM21.5963 10.3338L20.7388 10.1617L20.3453 12.1227L21.2028 12.2947L21.5963 10.3338ZM19.5615 10.9461L18.8615 14.4461L20.8227 14.8383L21.5227 11.3383L19.5615 10.9461ZM19.6453 15.6227L20.5028 15.7947L20.8963 13.8338L20.0388 13.6617L19.6453 15.6227ZM13.3999 8.5158C13.426 8.47662 13.4604 8.44649 13.4975 8.42662L14.4417 10.1897C14.6905 10.0564 14.9052 9.86361 15.0644 9.6246L13.3999 8.5158ZM13.4975 8.42662C13.5368 8.40556 13.5807 8.39454 13.6253 8.39453L13.6258 10.3945C13.9105 10.3945 14.1907 10.3241 14.4417 10.1897L13.4975 8.42662ZM12.6255 9.39453V10.2695H14.6255V9.39453H12.6255ZM13.6255 11.2695C14.4963 11.2695 15.3091 10.8349 15.7922 10.1102L14.1281 9.00083C14.0162 9.16867 13.8281 9.26953 13.6255 9.26953V11.2695ZM19.638 7.24795C19.6861 6.95867 19.6706 6.66166 19.5926 6.37869L17.6646 6.91041C17.6653 6.91319 17.6656 6.91683 17.665 6.91995L19.638 7.24795ZM19.5926 6.37869C19.5146 6.09586 19.3759 5.8334 19.1863 5.60955L17.6604 6.90248C17.6623 6.90479 17.6638 6.90749 17.6646 6.91041L19.5926 6.37869ZM19.1863 5.60955C18.9966 5.38571 18.7605 5.20585 18.4943 5.08248L17.6533 6.89705C17.656 6.89832 17.6584 6.90017 17.6604 6.90248L19.1863 5.60955ZM18.4943 5.08248C18.2281 4.9591 17.9382 4.89517 17.6448 4.89511L17.6445 6.89511C17.6475 6.89512 17.6505 6.89577 17.6533 6.89705L18.4943 5.08248ZM17.6416 7.77011C17.5219 7.76982 17.3997 7.74428 17.2838 7.6903L18.1279 5.87718C17.9737 5.80536 17.8086 5.77052 17.6466 5.77012L17.6416 7.77011ZM17.2838 7.6903C17.1715 7.63803 17.072 7.56197 16.992 7.46739L18.5194 6.17621C18.4121 6.04933 18.2785 5.9473 18.1279 5.87718L17.2838 7.6903ZM16.992 7.46739C16.912 7.37281 16.8536 7.26197 16.8208 7.14256L18.7491 6.61195C18.705 6.45177 18.6266 6.30309 18.5194 6.17621L16.992 7.46739ZM16.8208 7.14256C16.7879 7.02316 16.7814 6.89803 16.8017 6.77586L18.7746 7.10387C18.8019 6.93998 18.7932 6.77213 18.7491 6.61195L16.8208 7.14256ZM19.8263 11.2695C19.6548 11.2695 19.5277 11.1123 19.5608 10.9462L21.5222 11.337C21.735 10.2691 20.9196 9.26953 19.8263 9.26953V11.2695ZM20.3449 12.1221L21.203 12.2942L21.5962 10.3332L20.7381 10.1611L20.3449 12.1221ZM22.3803 11.5093C22.4556 11.1316 22.4463 10.7413 22.3528 10.3675L20.4125 10.8527C20.4342 10.9394 20.4364 11.0304 20.4189 11.1181L22.3803 11.5093ZM22.3528 10.3675C22.2594 9.99385 22.0842 9.64555 21.8399 9.34773L20.2935 10.6161C20.3502 10.6852 20.3909 10.766 20.4125 10.8527L22.3528 10.3675ZM21.8399 9.34773C21.5956 9.0499 21.2883 8.80998 20.9401 8.64526L20.0848 10.4531C20.1656 10.4914 20.2369 10.547 20.2935 10.6161L21.8399 9.34773ZM20.9401 8.64526C20.5919 8.48053 20.2115 8.3951 19.8263 8.39511L19.8264 10.3951C19.9158 10.3951 20.004 10.4149 20.0848 10.4531L20.9401 8.64526ZM18.8263 9.39511V10.2695H20.8263V9.39511H18.8263ZM19.1261 17.1034C19.7292 17.1036 20.3124 16.8939 20.7772 16.513L19.5096 14.966C19.4007 15.0552 19.2651 15.1035 19.1265 15.1034L19.1261 17.1034ZM20.7772 16.513C21.2429 16.1314 21.5619 15.6003 21.6801 15.0101L19.7191 14.6173C19.6916 14.7543 19.6176 14.8775 19.5096 14.966L20.7772 16.513ZM20.8963 13.8332L20.0388 13.6612L19.6453 15.6221L20.5028 15.7942L20.8963 13.8332ZM18.8615 14.4456C18.8738 14.3842 18.907 14.3289 18.9555 14.2892L20.2228 15.8364C20.5323 15.5829 20.7443 15.2299 20.8227 14.8376L18.8615 14.4456ZM18.9555 14.2892C19.0021 14.251 19.0623 14.2284 19.1273 14.2284L19.1253 16.2284C19.5277 16.2288 19.9151 16.0884 20.2228 15.8364L18.9555 14.2892ZM17.5198 4.89511C16.9961 4.89515 16.4794 5.02364 16.0158 5.27178L16.9596 7.03507C17.131 6.94333 17.3233 6.89513 17.5199 6.89511L17.5198 4.89511ZM16.0158 5.27178C15.5532 5.5194 15.1588 5.87741 14.8678 6.31403L16.5319 7.42336C16.6403 7.2607 16.7873 7.12733 16.9596 7.03507L16.0158 5.27178ZM15.1444 7.70024L15.8718 8.18615L16.9827 6.52308L16.2553 6.03716L15.1444 7.70024ZM17.2593 7.90928C17.2886 7.8653 17.3278 7.83011 17.3719 7.80648L16.4285 6.04298C16.0915 6.22329 15.8057 6.48419 15.5952 6.79995L17.2593 7.90928ZM17.3719 7.80648C17.4157 7.78306 17.4662 7.77009 17.5195 7.77011L17.5202 5.77011C17.1412 5.76997 16.7659 5.86247 16.4285 6.04298L17.3719 7.80648ZM12.4997 14.2284C12.6495 14.2284 12.7705 14.3495 12.7705 14.4993H10.7705C10.7705 15.4541 11.5449 16.2284 12.4997 16.2284V14.2284ZM9.89551 14.4993C9.89551 15.1899 10.1699 15.8523 10.6583 16.3407L12.0725 14.9265C11.9592 14.8132 11.8955 14.6595 11.8955 14.4993H9.89551ZM10.6583 16.3407C11.1466 16.8291 11.809 17.1034 12.4997 17.1034V15.1034C12.3394 15.1034 12.1858 15.0398 12.0725 14.9265L10.6583 16.3407Z" fill="#D94343" mask="url(#path-3-inside-1_17088_195375)"/>
<path d="M13.666 9.83398V15.6673" stroke="#D94343"/>
<path d="M33.327 14.5H31.761L30.546 12.745H30.474H29.205V14.5H27.747V8.2H30.474C32.157 8.2 33.21 9.073 33.21 10.486C33.21 11.431 32.733 12.124 31.914 12.475L33.327 14.5ZM31.734 10.486C31.734 9.793 31.284 9.388 30.393 9.388H29.205V11.584H30.393C31.284 11.584 31.734 11.17 31.734 10.486ZM35.8142 13.33H39.2432V14.5H34.3652V8.2H39.1262V9.37H35.8142V10.738H38.7392V11.872H35.8142V13.33ZM43.4007 14.608C41.4477 14.608 39.9897 13.249 39.9897 11.35C39.9897 9.451 41.4477 8.092 43.4097 8.092C44.4987 8.092 45.4077 8.488 46.0017 9.208L45.0657 10.072C44.6427 9.586 44.1117 9.334 43.4817 9.334C42.3027 9.334 41.4657 10.162 41.4657 11.35C41.4657 12.538 42.3027 13.366 43.4817 13.366C44.1117 13.366 44.6427 13.114 45.0657 12.619L46.0017 13.483C45.4077 14.212 44.4987 14.608 43.4007 14.608ZM49.9054 14.608C47.9164 14.608 46.4584 13.222 46.4584 11.35C46.4584 9.478 47.9164 8.092 49.9054 8.092C51.8854 8.092 53.3524 9.469 53.3524 11.35C53.3524 13.231 51.8854 14.608 49.9054 14.608ZM49.9054 13.366C51.0304 13.366 51.8764 12.547 51.8764 11.35C51.8764 10.153 51.0304 9.334 49.9054 9.334C48.7804 9.334 47.9344 10.153 47.9344 11.35C47.9344 12.547 48.7804 13.366 49.9054 13.366ZM61.5492 14.5H60.1812L60.1722 10.72L58.3182 13.834H57.6612L55.8162 10.801V14.5H54.4482V8.2H55.6542L58.0122 12.115L60.3342 8.2H61.5312L61.5492 14.5ZM70.1449 14.5H68.7769L68.7679 10.72L66.9139 13.834H66.2569L64.4119 10.801V14.5H63.0439V8.2H64.2499L66.6079 12.115L68.9299 8.2H70.1269L70.1449 14.5ZM73.0886 13.33H76.5176V14.5H71.6396V8.2H76.4006V9.37H73.0886V10.738H76.0136V11.872H73.0886V13.33ZM82.0157 8.2H83.4557V14.5H82.2587L79.1177 10.675V14.5H77.6777V8.2H78.8837L82.0157 12.025V8.2ZM84.9462 14.5V8.2H87.8082C89.8692 8.2 91.2822 9.442 91.2822 11.35C91.2822 13.258 89.8692 14.5 87.8082 14.5H84.9462ZM86.4042 13.303H87.7362C88.9872 13.303 89.8062 12.556 89.8062 11.35C89.8062 10.144 88.9872 9.397 87.7362 9.397H86.4042V13.303ZM93.8308 13.33H97.2598V14.5H92.3818V8.2H97.1428V9.37H93.8308V10.738H96.7558V11.872H93.8308V13.33ZM98.4199 14.5V8.2H101.282C103.343 8.2 104.756 9.442 104.756 11.35C104.756 13.258 103.343 14.5 101.282 14.5H98.4199ZM99.8779 13.303H101.21C102.461 13.303 103.28 12.556 103.28 11.35C103.28 10.144 102.461 9.397 101.21 9.397H99.8779V13.303Z" fill="white"/>
<path d="M0 3L3 0V3H0Z" fill="#D94343"/>
<path d="M115 3L112 0V3H115Z" fill="#D94343"/>
</svg>
