<svg width="130" height="127" viewBox="0 0 130 127" fill="none" xmlns="http://www.w3.org/2000/svg">
<mask id="mask0_2964_51663" style="mask-type:alpha" maskUnits="userSpaceOnUse" x="0" y="0" width="130" height="127">
<rect width="129.385" height="127" fill="#D9D9D9"/>
</mask>
<g mask="url(#mask0_2964_51663)">
<path d="M86.1595 45.6833C86.4404 45.5211 86.5381 45.1596 86.3766 44.88L80.0064 33.8464C79.845 33.5668 79.483 33.4707 79.2021 33.6329C78.9212 33.795 78.8235 34.1565 78.985 34.4362L85.3552 45.4697C85.5166 45.7494 85.8786 45.8455 86.1595 45.6833Z" fill="#2191B5"/>
<path d="M89.3585 5.11882L84.2066 13.8287C84.0407 14.1075 84.1329 14.4678 84.4117 14.6323C84.6005 14.747 84.827 14.7382 85.0058 14.635C85.0926 14.5849 85.1677 14.5144 85.2179 14.4245L90.3698 5.71456C90.5357 5.43573 90.4435 5.07545 90.1647 4.911C89.8859 4.74656 89.5244 4.83999 89.3585 5.11882Z" fill="#2493B5"/>
<path d="M106.474 10.3829L101.222 1.28656L86.9497 1.41838L78.8969 14.1623L85.2671 25.1959L81.4763 29.8589L65.8057 29.9982L56.9698 43.9807L48.641 44.098C48.5782 43.8359 48.4921 43.5806 48.3482 43.3314C47.5644 41.9738 45.8191 41.5104 44.4554 42.2977C43.0918 43.085 42.6205 44.8282 43.4043 46.1858C44.1881 47.5434 45.9334 48.0068 47.2971 47.2195C48.0479 46.7861 48.5202 46.0591 48.6644 45.2708L56.9588 45.1531L63.8398 57.0713L48.9213 65.6845L48.9418 65.7201L45.3966 63.4484L40.7489 66.1318L40.7781 71.3012L44.7915 73.8178L43.596 91.999L35.6643 96.5784L29.2024 94.3974C29.2514 93.8336 29.1411 93.2532 28.8358 92.7244C28.4952 92.1346 27.9754 91.7297 27.3815 91.5031L27.4717 82.0818L16.2341 75.2619L5.73341 81.3245L5.16598 94.472L15.299 100.77L14.6785 107.657L8.1768 111.411L7.82433 120.272L15.0695 124.8L20.7234 121.536C21.6012 122.514 23.0815 122.778 24.2715 122.091C25.6352 121.304 26.1065 119.56 25.3227 118.203C24.7855 117.272 23.7956 116.773 22.7888 116.798L22.8233 111.951L15.8637 107.705L16.4842 100.818L24.4262 96.233C25.319 97.0599 26.6742 97.2605 27.7876 96.6176C28.2523 96.3493 28.6072 95.9614 28.8509 95.5224L35.1189 97.6389L34.6772 108.185L43.913 113.944L53.5403 108.386L62.7917 110.468L62.3298 117.948C61.9843 117.998 61.6477 118.111 61.326 118.297C59.9623 119.084 59.491 120.827 60.2748 122.185C61.0586 123.543 62.8039 124.006 64.1676 123.219C64.4179 123.074 64.6285 122.885 64.8202 122.686L71.8542 126.896L82.3855 120.816L82.6747 110.324L91.8424 105.031C92.7343 105.797 94.0456 105.969 95.1284 105.344C96.2111 104.718 96.718 103.497 96.5003 102.341L106.48 96.5796L115.262 101.835L125.793 95.7543L126.02 87.3726C126.27 87.3097 126.513 87.2236 126.748 87.088C128.112 86.3007 128.583 84.5574 127.799 83.1999C127.015 81.8423 125.27 81.3788 123.906 82.1661C123.59 82.3489 123.332 82.5861 123.117 82.8521L115.937 78.6592L106.274 84.2382L105.564 95.7594L96.0387 101.259C95.2013 100.068 93.5818 99.6808 92.2897 100.427C90.9975 101.173 90.5229 102.769 91.1356 104.09L82.1058 109.303L72.5344 103.718L62.8968 109.282L53.7522 107.219L53.833 97.5459L44.7725 92.0316L45.9658 73.8584L49.6737 71.7177L49.8148 66.5245L64.7845 57.8818L81.4867 58.2791L90.4778 44.3765L82.4666 30.5007L86.25 25.8486L100.026 26.1793L104.512 33.9485C104.673 34.2282 105.035 34.3243 105.316 34.1621C105.597 33.9999 105.695 33.6384 105.534 33.3588L101.063 25.615L106.564 17.1099C107.504 17.4283 108.571 17.3544 109.501 16.8178C111.217 15.827 111.808 13.6419 110.821 11.9335C109.938 10.4031 108.08 9.78063 106.468 10.3858L106.474 10.3829ZM6.89038 82.0191L16.2215 76.6318L26.2934 82.7419L26.2098 91.3254C25.7758 91.3522 25.3443 91.4658 24.9459 91.6958C23.6844 92.4241 23.1987 93.9655 23.7522 95.2662L15.9431 99.7748L6.38535 93.8358L6.89842 82.0213L6.89038 82.0191ZM21.6072 117.087C21.5511 117.119 21.4861 117.137 21.4299 117.169C20.2399 117.856 19.7334 119.267 20.1363 120.519L15.0953 123.43L9.02544 119.639L9.33376 112.106L15.2328 108.7L21.6368 112.609L21.6021 117.09L21.6072 117.087ZM107.402 84.9426L115.921 80.0241L122.566 83.9025C122.38 84.6065 122.455 85.3839 122.845 86.0601C123.285 86.8228 124.025 87.2905 124.83 87.4224L124.621 95.0685L115.264 100.471L106.753 95.3778L107.399 84.9375L107.402 84.9426ZM72.5188 105.082L81.4946 110.32L81.2213 120.132L71.8646 125.534L65.4241 121.68C65.6838 120.926 65.6422 120.076 65.2136 119.334C64.8232 118.657 64.1951 118.206 63.5005 118.018L63.9947 110.004L72.5137 105.085L72.5188 105.082ZM52.565 107.593L43.9387 112.573L35.8783 107.553L36.2952 97.5768L44.1452 93.0446L52.6393 98.2147L52.5599 107.596L52.565 107.593ZM48.5124 71.039L45.4123 72.8289L41.9441 70.6552L41.9263 66.8147L45.3534 64.8361L48.6219 66.9353L48.5073 71.042L48.5124 71.039ZM89.1011 44.351L80.8583 57.0962L64.9832 56.7163L57.9789 44.5845L66.4524 31.1773L81.4158 31.0396L89.1011 44.351ZM100.061 25.0002L86.3267 24.6722L80.2735 14.1878L87.6037 2.58652L100.544 2.4712L105.455 10.9777C104.125 12.071 103.732 13.9858 104.619 15.5213C104.857 15.9331 105.167 16.2826 105.524 16.5581L100.059 25.0082L100.061 25.0002Z" fill="url(#paint0_linear_2964_51663)"/>
<path d="M78.1762 118.432C78.3397 118.338 78.4561 118.162 78.4681 117.959L78.9147 111.077C78.938 110.752 78.6896 110.475 78.3636 110.453C78.0377 110.431 77.7592 110.68 77.7359 111.005L77.2893 117.887C77.266 118.212 77.5144 118.489 77.8403 118.511C77.9594 118.517 78.0741 118.491 78.1711 118.435L78.1762 118.432Z" fill="#1A3D8F"/>
<path d="M115.669 97.7543C115.756 97.7041 115.831 97.6337 115.884 97.5356C116.047 97.2517 115.949 96.8944 115.665 96.7329L109.678 93.322C109.394 93.1605 109.036 93.259 108.873 93.5429C108.71 93.8268 108.807 94.1841 109.091 94.3456L115.078 97.7566C115.269 97.8632 115.491 97.8575 115.669 97.7543Z" fill="#1A3D8F"/>
</g>
<defs>
<linearGradient id="paint0_linear_2964_51663" x1="53.2252" y1="134.933" x2="89.5354" y2="-1.81681" gradientUnits="userSpaceOnUse">
<stop stop-color="#1B3E90"/>
<stop offset="1" stop-color="#2491B9"/>
</linearGradient>
</defs>
</svg>
