<svg width="64" height="63" viewBox="0 0 64 63" fill="none" xmlns="http://www.w3.org/2000/svg">
<g clip-path="url(#clip0_4505_11579)">
<path d="M64 15.9231C64 15.3235 63.6528 14.778 63.1149 14.5329L31.5234 0.134308C31.3287 0.0456923 31.1231 0 30.9106 0C30.6873 0 30.4626 0.0526154 30.2611 0.150923L0.84834 14.5509C0.333617 14.8029 0 15.3415 0 15.9231V20.3538C0 21.1943 0.671319 21.8769 1.49787 21.8769H62.5021C63.3287 21.8769 64 21.1943 64 20.3538V15.9231ZM61.0043 18.8308H2.99574V16.8798L3.18911 16.7857L30.9338 3.20262L31.0781 3.26769L61.0043 16.9089V18.8308Z" fill="#AFD6F6"/>
<path d="M58.1447 52.8926H5.85529C5.02874 52.8926 4.35742 53.5752 4.35742 54.4157C4.35742 55.2561 5.02874 55.9387 5.85529 55.9387H58.1447C58.9712 55.9387 59.6425 55.2561 59.6425 54.4157C59.6425 53.5752 58.9712 52.8926 58.1447 52.8926Z" fill="#AFD6F6"/>
<path d="M62.5021 59.9541H1.49787C0.671319 59.9541 0 60.6367 0 61.4772C0 62.3176 0.671319 63.0003 1.49787 63.0003H62.5021C63.3287 63.0003 64 62.3176 64 61.4772C64 60.6367 63.3287 59.9541 62.5021 59.9541Z" fill="#AFD6F6"/>
<path d="M8.44301 28.5231C8.44301 27.6826 7.77169 27 6.94514 27C6.11858 27 5.44727 27.6826 5.44727 28.5231V46.2462C5.44727 47.0866 6.11858 47.7692 6.94514 47.7692C7.77169 47.7692 8.44301 47.0866 8.44301 46.2462V28.5231Z" fill="#AFD6F6"/>
<path d="M58.5534 28.5231C58.5534 27.6826 57.882 27 57.0555 27C56.2289 27 55.5576 27.6826 55.5576 28.5231V46.2462C55.5576 47.0866 56.2289 47.7692 57.0555 47.7692C57.882 47.7692 58.5534 47.0866 58.5534 46.2462V28.5231Z" fill="#AFD6F6"/>
<path d="M45.4811 28.5231C45.4811 27.6826 44.8098 27 43.9832 27C43.1567 27 42.4854 27.6826 42.4854 28.5231V46.2462C42.4854 47.0866 43.1567 47.7692 43.9832 47.7692C44.8098 47.7692 45.4811 47.0866 45.4811 46.2462V28.5231Z" fill="#AFD6F6"/>
<path d="M21.5153 28.5231C21.5153 27.6826 20.844 27 20.0174 27C19.1909 27 18.5195 27.6826 18.5195 28.5231V46.2462C18.5195 47.0866 19.1909 47.7692 20.0174 47.7692C20.844 47.7692 21.5153 47.0866 21.5153 46.2462V28.5231Z" fill="#AFD6F6"/>
<path d="M33.4977 28.5231C33.4977 27.6826 32.8264 27 31.9998 27C31.1733 27 30.502 27.6826 30.502 28.5231V46.2462C30.502 47.0866 31.1733 47.7692 31.9998 47.7692C32.8264 47.7692 33.4977 47.0866 33.4977 46.2462V28.5231Z" fill="#AFD6F6"/>
</g>
<defs>
<clipPath id="clip0_4505_11579">
<rect width="64" height="63" fill="white"/>
</clipPath>
</defs>
</svg>
