<svg width="32" height="32" viewBox="0 0 32 32" fill="none" xmlns="http://www.w3.org/2000/svg">
<path d="M5 16V23.1747C5 24.0706 5.59589 24.8573 6.45839 25.0999L16.1855 27.8363C16.565 27.943 16.9676 27.9353 17.3427 27.8139L25.6156 25.1375C26.4409 24.8705 27 24.102 27 23.2346V16" stroke="#3D9BE9" stroke-width="1.5" stroke-linecap="round"/>
<path d="M5.5 7L16.2238 4.07533C16.4043 4.0261 16.595 4.0285 16.7742 4.08227L26.5 7" stroke="#3D9BE9" stroke-width="1.5" stroke-linecap="round"/>
<path fill-rule="evenodd" clip-rule="evenodd" d="M26.9471 8.02271C26.8941 7.9239 26.7819 7.8724 26.6725 7.89672L17.5435 9.92539C17.375 9.96282 17.2942 10.1556 17.3857 10.3019L20.9226 15.9611C20.9819 16.0559 21.097 16.0999 21.2045 16.0686L29.6057 13.6246C29.7583 13.5802 29.8313 13.4066 29.7563 13.2665L26.9471 8.02271ZM26.3471 6.43244C27.1131 6.26221 27.8988 6.62269 28.2693 7.31438L31.0785 12.5582C31.6038 13.5388 31.0929 14.7542 30.0247 15.0649L21.6235 17.5089C20.8715 17.7277 20.0657 17.4202 19.6506 16.7561L16.1437 11.1449L12.6366 16.7562C12.2216 17.4203 11.4158 17.7278 10.6638 17.509L2.26256 15.065C1.19441 14.7543 0.683483 13.5389 1.20879 12.5583L4.01797 7.3145C4.38852 6.62281 5.17418 6.26234 5.94019 6.43256L15.0692 8.46123C15.5355 8.56486 15.9059 8.83856 16.1436 9.19497C16.3813 8.8385 16.7517 8.56475 17.2181 8.46111L26.3471 6.43244ZM5.34019 8.02283C5.39312 7.92402 5.50536 7.87252 5.61479 7.89684L14.7438 9.92551C14.9123 9.96295 14.993 10.1557 14.9016 10.3021L11.3646 15.9612C11.3053 16.0561 11.1902 16.1 11.0828 16.0687L2.68155 13.6247C2.52896 13.5803 2.45597 13.4067 2.53101 13.2666L5.34019 8.02283Z" fill="#3D9BE9"/>
</svg>