<svg width="190" height="190" viewBox="0 0 190 190" fill="none" xmlns="http://www.w3.org/2000/svg">
<path d="M182.854 128.152C183.822 126.949 184.342 125.457 185.417 124.326C185.417 124.326 185.453 124.326 185.453 124.29C188.823 113.78 190.436 102.497 189.898 90.7473C187.658 41.6824 147.739 1.97765 98.7852 0.0732573C44.5976 -2.02876 0 41.3769 0 95.2208C0 144.555 37.4455 185.122 85.413 189.937C87.9226 190.189 90.45 189.632 92.601 188.302C108.106 178.709 171.113 137.046 182.836 128.224C182.836 128.206 182.854 128.17 182.872 128.152H182.854Z" fill="url(#paint0_linear_18899_301372)"/>
<path d="M59.2736 53.1484C62.529 54.1924 64.6158 56.6979 64.6158 60.3726C64.6158 65.4253 60.6092 68.3484 52.9297 68.3484H37.8213V39.1177H52.095C59.3988 39.1177 63.1551 42.166 63.1551 46.7177C63.1551 49.6407 61.6526 51.8957 59.2736 53.1484ZM51.2603 44.2122H44.5408V51.1023H51.2603C54.5574 51.1023 56.3521 49.9331 56.3521 47.6363C56.3521 45.3396 54.5574 44.2122 51.2603 44.2122ZM52.4289 63.2539C55.9347 63.2539 57.8129 62.1682 57.8129 59.6627C57.8129 57.199 55.9347 56.0297 52.4289 56.0297H44.5408V63.2539H52.4289Z" fill="white"/>
<path d="M82.7146 68.8495C74.4091 68.8495 69.4843 64.0891 69.4843 55.4869V39.1177H76.2455V55.2363C76.2455 60.7902 78.6662 63.0869 82.7563 63.0869C86.8882 63.0869 89.2672 60.7902 89.2672 55.2363V39.1177H95.9449V55.4869C95.9449 64.0891 91.0201 68.8495 82.7146 68.8495Z" fill="white"/>
<path d="M127.594 39.1177L116.242 57.9924V68.3484H109.481V57.9089L98.1703 39.1177H105.349L113.154 52.1045L120.958 39.1177H127.594Z" fill="white"/>
<path d="M139.071 39.1177H151.675V68.3484H144.914V44.5462H139.071V39.1177Z" fill="white"/>
<path d="M59.0119 99.3548V90.487H65.5108V102.772C62.1296 105.281 57.475 106.622 53.0838 106.622C43.4233 106.622 36.3096 100.09 36.3096 90.9628C36.3096 81.8354 43.4233 75.3035 53.2156 75.3035C58.6167 75.3035 63.0957 77.1203 66.0817 80.5377L61.5149 84.6904C59.2754 82.3545 56.6846 81.273 53.5668 81.273C47.5949 81.273 43.5111 85.2095 43.5111 90.9628C43.5111 96.6296 47.5949 100.653 53.479 100.653C55.4111 100.653 57.2115 100.306 59.0119 99.3548Z" fill="white"/>
<path d="M79.1886 100.48H95.9189V106.103H72.1188V75.8226H95.3481V81.4461H79.1886V88.0213H93.4599V93.4717H79.1886V100.48Z" fill="white"/>
<path d="M107.946 106.103V81.5326H98.1101V75.8226H124.896V81.5326H115.06V106.103H107.946Z" fill="white"/>
<path d="M137.822 75.8226H151.084V106.103H143.97V81.4461H137.822V75.8226Z" fill="white"/>
<path d="M60.2065 119.393H43.6277V127.67H58.264V133.486H43.6277V144.895H36.3096V113.577H60.2065V119.393Z" fill="white"/>
<path d="M93.1685 144.895H85.3082L79.2098 136.171H72.4789V144.895H65.1608V113.577H78.8484C87.2959 113.577 92.5812 117.917 92.5812 124.941C92.5812 129.639 90.187 133.084 86.0762 134.829L93.1685 144.895ZM85.1727 124.941C85.1727 121.496 82.914 119.483 78.4418 119.483H72.4789V130.399H78.4418C82.914 130.399 85.1727 128.341 85.1727 124.941Z" fill="white"/>
<path d="M105.652 139.079H122.863V144.895H98.3793V113.577H122.276V119.393H105.652V126.194H120.334V131.831H105.652V139.079Z" fill="white"/>
<path d="M135.959 139.079H153.17V144.895H128.686V113.577H152.583V119.393H135.959V126.194H150.641V131.831H135.959V139.079Z" fill="white"/>
<path d="M185.251 124.45C169.291 157.89 113.684 182.083 87.4009 190C90.2509 189.05 95.1905 183.851 98.8009 178.6C109.251 163.4 122.046 153.398 136.801 145.35C157.701 133.95 170.051 133 175.751 131.1C180.311 129.58 183.034 126.667 185.251 124.45Z" fill="#AD0000"/>
<defs>
<linearGradient id="paint0_linear_18899_301372" x1="95.003" y1="10.1881" x2="95.003" y2="258.549" gradientUnits="userSpaceOnUse">
<stop stop-color="#FF0000"/>
<stop offset="1" stop-color="#A90808"/>
</linearGradient>
</defs>
</svg>
