<svg width="129" height="129" viewBox="0 0 129 129" fill="none" xmlns="http://www.w3.org/2000/svg">
<path d="M114.73 99.8541L105.095 45.9159C104.168 40.635 99.5723 36.765 94.1704 36.765H88.6879V27.2109C88.6879 16.6491 80.1014 8.0625 69.5395 8.0625H61.477C50.9151 8.0625 42.3285 16.6491 42.3285 27.2109V36.765H36.846C31.4845 36.765 26.8889 40.635 25.9214 45.9159L16.2867 99.8541C15.0773 106.667 20.3179 112.875 27.2114 112.875H103.805C110.699 112.875 115.939 106.627 114.73 99.8541ZM103.805 106.828H27.2114C24.067 106.828 21.6885 104.006 22.2529 100.902L31.8876 46.9641C32.331 44.5453 34.387 42.8119 36.846 42.8119H41.7239C40.9982 43.6987 40.5548 44.8275 40.5548 46.0772C40.5548 48.8991 42.772 51.1969 45.5535 51.1969C48.3351 51.1969 50.5523 48.8587 50.5523 46.0772C50.5523 44.8275 50.0685 43.7391 49.3832 42.8119H81.7139C80.9882 43.6987 80.5448 44.8275 80.5448 46.0772C80.5448 48.8991 82.762 51.1969 85.5435 51.1969C88.3251 51.1969 90.5423 48.8587 90.5423 46.0772C90.5423 44.8275 90.0989 43.7391 89.3732 42.8119H94.2107C96.6698 42.8119 98.7257 44.5453 99.1692 46.9641L108.804 100.902C109.368 104.006 106.99 106.828 103.845 106.828H103.805ZM61.477 14.1094H69.5395C76.7957 14.1094 82.641 19.995 82.641 27.2109V36.765H48.3754V27.2109C48.3754 19.995 54.261 14.1094 61.477 14.1094Z" fill="#E7461E" stroke="white"/>
</svg>
