<svg width="67" height="67" viewBox="0 0 67 67" fill="none" xmlns="http://www.w3.org/2000/svg">
<path d="M50.7803 49.5521H21.0491C18.2853 49.5521 15.6332 48.3796 13.7628 46.3417C11.8924 44.3038 10.9433 41.5679 11.1666 38.8042L13.4837 10.9992C13.5674 10.1338 13.2603 9.29631 12.6741 8.65422C12.0878 8.01214 11.2782 7.67712 10.4128 7.67712H5.58325C4.43867 7.67712 3.4895 6.72796 3.4895 5.58337C3.4895 4.43879 4.43867 3.48962 5.58325 3.48962H10.4408C12.4787 3.48962 14.4049 4.35503 15.7728 5.83461C16.5266 6.67211 17.0849 7.64922 17.392 8.73797H52.2599C55.0795 8.73797 57.6757 9.85462 59.5741 11.8646C61.4445 13.9025 62.3937 16.5546 62.1703 19.3742L60.6628 40.3117C60.3557 45.4205 55.8891 49.5521 50.7803 49.5521ZM17.5316 12.8975L15.3541 39.1392C15.2145 40.7583 15.7449 42.2938 16.8337 43.4942C17.9224 44.6946 19.4299 45.3367 21.0491 45.3367H50.7803C53.6837 45.3367 56.3078 42.8801 56.5312 39.9767L58.0386 19.0392C58.1503 17.3921 57.6199 15.8288 56.5312 14.6842C55.4424 13.5117 53.9349 12.8696 52.2878 12.8696H17.5316V12.8975Z" fill="url(#paint0_linear_7_13993)"/>
<path d="M45.3646 63.5104C42.2937 63.5104 39.7812 60.9979 39.7812 57.9271C39.7812 54.8562 42.2937 52.3438 45.3646 52.3438C48.4354 52.3438 50.9479 54.8562 50.9479 57.9271C50.9479 60.9979 48.4354 63.5104 45.3646 63.5104ZM45.3646 56.5312C44.5829 56.5312 43.9688 57.1454 43.9688 57.9271C43.9688 58.7087 44.5829 59.3229 45.3646 59.3229C46.1462 59.3229 46.7604 58.7087 46.7604 57.9271C46.7604 57.1454 46.1462 56.5312 45.3646 56.5312Z" fill="url(#paint1_linear_7_13993)"/>
<path d="M23.0313 63.5104C19.9605 63.5104 17.448 60.9979 17.448 57.9271C17.448 54.8562 19.9605 52.3438 23.0313 52.3438C26.1022 52.3438 28.6147 54.8562 28.6147 57.9271C28.6147 60.9979 26.1022 63.5104 23.0313 63.5104ZM23.0313 56.5312C22.2497 56.5312 21.6355 57.1454 21.6355 57.9271C21.6355 58.7087 22.2497 59.3229 23.0313 59.3229C23.813 59.3229 24.4272 58.7087 24.4272 57.9271C24.4272 57.1454 23.813 56.5312 23.0313 56.5312Z" fill="url(#paint2_linear_7_13993)"/>
<path d="M58.625 24.4271H25.125C23.9804 24.4271 23.0312 23.478 23.0312 22.3334C23.0312 21.1888 23.9804 20.2396 25.125 20.2396H58.625C59.7696 20.2396 60.7188 21.1888 60.7188 22.3334C60.7188 23.478 59.7696 24.4271 58.625 24.4271Z" fill="url(#paint3_linear_7_13993)"/>
<defs>
<linearGradient id="paint0_linear_7_13993" x1="32.846" y1="3.48962" x2="32.846" y2="49.5521" gradientUnits="userSpaceOnUse">
<stop stop-color="#FE3520"/>
<stop offset="1" stop-color="#FE8410"/>
</linearGradient>
<linearGradient id="paint1_linear_7_13993" x1="45.3646" y1="52.3438" x2="45.3646" y2="63.5104" gradientUnits="userSpaceOnUse">
<stop stop-color="#FE3520"/>
<stop offset="1" stop-color="#FE8410"/>
</linearGradient>
<linearGradient id="paint2_linear_7_13993" x1="23.0313" y1="52.3438" x2="23.0313" y2="63.5104" gradientUnits="userSpaceOnUse">
<stop stop-color="#FE3520"/>
<stop offset="1" stop-color="#FE8410"/>
</linearGradient>
<linearGradient id="paint3_linear_7_13993" x1="41.875" y1="20.2396" x2="41.875" y2="24.4271" gradientUnits="userSpaceOnUse">
<stop stop-color="#FE3520"/>
<stop offset="1" stop-color="#FE8410"/>
</linearGradient>
</defs>
</svg>
