<svg width="25" height="25" viewBox="0 0 25 25" fill="none" xmlns="http://www.w3.org/2000/svg">
<g clip-path="url(#clip0_3964_3707)">
<path d="M16.1375 0.5C18.5375 0.5 19.7375 0.5 21.05 0.9125C21.7468 1.16739 22.3795 1.57123 22.9042 2.09585C23.4288 2.62047 23.8326 3.25323 24.0875 3.95C24.5 5.2625 24.5 6.4625 24.5 8.86625V16.13C24.5 18.5375 24.5 19.745 24.0875 21.0425C23.8326 21.7393 23.4288 22.372 22.9042 22.8967C22.3795 23.4213 21.7468 23.8251 21.05 24.08C19.7375 24.5 18.5375 24.5 16.1375 24.5H8.8625C6.455 24.5 5.2475 24.5 3.95 24.0875C3.25323 23.8326 2.62047 23.4288 2.09585 22.9042C1.57123 22.3795 1.16739 21.7468 0.9125 21.05C0.5 19.7375 0.5 18.5375 0.5 16.1337V8.8625C0.5 6.455 0.5 5.2475 0.9125 3.95C1.16739 3.25323 1.57123 2.62047 2.09585 2.09585C2.62047 1.57123 3.25323 1.16739 3.95 0.9125C5.2625 0.5 6.4625 0.5 8.8625 0.5H16.1375Z" fill="#00D632"/>
<path d="M16.4244 9.42491C16.6119 9.61241 16.9231 9.61241 17.0994 9.42491L18.0369 8.44991C18.2356 8.26241 18.2244 7.92491 18.0144 7.72241C17.2777 7.08074 16.4212 6.59133 15.4944 6.28241L15.7906 4.85741C15.8544 4.54616 15.6219 4.25366 15.3106 4.25366H13.4956C13.3822 4.25488 13.2726 4.29503 13.1852 4.36739C13.0978 4.43975 13.038 4.53993 13.0156 4.65116L12.7531 5.91866C10.3381 6.04241 8.29063 7.26866 8.29063 9.78116C8.29063 11.9562 9.98188 12.8899 11.7706 13.5312C13.4619 14.1762 14.3581 14.4162 14.3581 15.3237C14.3581 16.2574 13.4656 16.8049 12.1456 16.8049C10.9456 16.8049 9.68563 16.4037 8.71063 15.4249C8.66535 15.3796 8.61157 15.3436 8.55237 15.319C8.49317 15.2945 8.42971 15.2818 8.36563 15.2818C8.30154 15.2818 8.23808 15.2945 8.17888 15.319C8.11968 15.3436 8.06591 15.3796 8.02063 15.4249L7.00813 16.4374C6.91287 16.533 6.85938 16.6625 6.85938 16.7974C6.85937 16.9324 6.91287 17.0618 7.00813 17.1574C7.79563 17.9337 8.79313 18.4962 9.93013 18.8074L9.65263 20.1462C9.58888 20.4574 9.81763 20.7462 10.1289 20.7499L11.9476 20.7649C12.0624 20.7654 12.1737 20.7261 12.2626 20.6536C12.3516 20.581 12.4125 20.4799 12.4351 20.3674L12.6976 19.0962C15.6031 18.9012 17.3731 17.2999 17.3731 14.9637C17.3731 12.8112 15.6106 11.9037 13.4731 11.1649C12.2506 10.7112 11.1931 10.3999 11.1931 9.46616C11.1931 8.55866 12.1794 8.19866 13.1694 8.19866C14.4294 8.19866 15.6406 8.71991 16.4319 9.43241L16.4244 9.42491Z" fill="white"/>
</g>
<defs>
<clipPath id="clip0_3964_3707">
<rect width="24" height="24" fill="white" transform="translate(0.5 0.5)"/>
</clipPath>
</defs>
</svg>
