<svg width="172" height="154" viewBox="0 0 172 154" fill="none" xmlns="http://www.w3.org/2000/svg">
<g opacity="0.1">
<path d="M107.646 75.6432C107.646 91.5765 94.648 104.495 78.6225 104.49C73.7524 104.49 68.9659 103.274 64.6954 100.948C62.0466 99.5016 59.6435 97.6547 57.5648 95.4755C46.5715 83.9006 47.0973 65.6563 58.7393 54.7263C59.1226 54.3647 59.5157 54.0178 59.9187 53.6758C62.14 51.7751 64.6364 50.2214 67.3245 49.0683C79.9395 43.7768 94.5595 47.9641 102.413 59.1188C104.653 62.2996 106.221 65.8957 107.017 69.697C107.43 71.6514 107.641 73.6449 107.646 75.6432Z" fill="white"/>
<path d="M48.8136 120.434C46.7987 118.098 44.2826 116.247 41.4421 115.025L41.3389 114.981C30.9944 110.574 19.0133 115.333 14.5757 125.618C10.143 135.903 14.9296 147.815 25.2741 152.227C35.6187 156.634 47.5997 151.875 52.0373 141.59C55.094 134.506 53.8409 126.312 48.8086 120.449V120.434H48.8136Z" fill="white"/>
<path d="M53.5692 4.47863C47.5542 -1.49695 37.8091 -1.49206 31.8039 4.4884C25.7937 10.4689 25.7986 20.1578 31.8137 26.1285C37.8239 32.0992 47.564 32.0992 53.5742 26.1285L53.6086 26.0943C59.5942 20.1138 59.5794 10.4444 53.5742 4.47863H53.5692Z" fill="white"/>
<path d="M165.281 30.776C156.327 21.8737 141.81 21.8786 132.862 30.776C127.839 35.7695 125.431 42.7955 126.335 49.802C126.335 49.8851 126.335 49.9682 126.36 50.0512C126.871 53.6815 128.257 57.1359 130.4 60.1164C130.454 60.1946 130.513 60.2678 130.572 60.346C131.26 61.2793 132.021 62.1636 132.847 62.9796C141.806 71.8868 156.322 71.8868 165.281 62.9796C174.24 54.0724 174.24 39.6392 165.281 30.732V30.7711V30.776Z" fill="white"/>
<path d="M64.6899 100.942C62.0411 99.4962 59.638 97.6492 57.5593 95.4701C57.8001 95.7828 59.2645 98.3333 52.1536 107.275C45.3325 115.859 42.0596 115.249 41.4404 115.019C44.2809 116.24 46.797 118.092 48.8119 120.428C48.7185 120.218 47.598 117.325 54.2176 109.043C61.0976 100.439 64.7096 100.947 64.7096 100.947H64.6899V100.942Z" fill="white"/>
<path d="M58.526 39.4585C52.4225 29.3396 53.6903 26.0464 53.6903 26.0464L53.6117 26.0952L53.5773 26.1294C51.8033 27.8933 49.6213 29.2027 47.2231 29.9308C47.3214 29.9308 50.0145 30.0285 56.005 40.4552C61.9463 50.8037 60.0101 53.4813 59.9069 53.6132C62.1331 51.7321 64.6345 50.1979 67.3226 49.0643C67.3226 49.0643 64.6345 49.5774 58.526 39.4585Z" fill="white"/>
<path d="M126.364 50.0601C126.423 51.0763 125.961 54.9851 116.535 58.6887C106.033 62.8174 102.662 59.4119 102.407 59.1334C104.648 62.3141 106.215 65.9102 107.011 69.7115C106.982 69.4428 106.751 65.6122 117.553 61.2197C126.914 57.4086 129.72 59.3777 130.384 60.1252C128.246 57.1399 126.865 53.6904 126.364 50.0601Z" fill="white"/>
<path d="M132.726 125.62C133.571 120.447 130.038 115.573 124.835 114.734C119.632 113.894 114.73 117.407 113.886 122.58C113.041 127.752 116.574 132.626 121.777 133.466C126.979 134.306 131.882 130.793 132.726 125.62Z" fill="white"/>
<path d="M15.0131 84.7504C23.3047 84.7504 30.0263 78.0675 30.0263 69.8237C30.0263 61.5799 23.3047 54.897 15.0131 54.897C6.72161 54.897 0 61.5799 0 69.8237C0 78.0675 6.72161 84.7504 15.0131 84.7504Z" fill="white"/>
<path d="M96.4496 31.8651C99.6821 31.8651 102.303 29.2598 102.303 26.0459C102.303 22.832 99.6821 20.2267 96.4496 20.2267C93.2171 20.2267 90.5967 22.832 90.5967 26.0459C90.5967 29.2598 93.2171 31.8651 96.4496 31.8651Z" fill="white"/>
</g>
</svg>
