<svg width="42" height="37" viewBox="0 0 42 37" fill="none" xmlns="http://www.w3.org/2000/svg">
<path d="M25.885 18.1894C25.885 22.0207 22.7593 25.1272 18.9058 25.126C17.7347 25.126 16.5838 24.8335 15.5569 24.2742C14.9199 23.9264 14.3421 23.4823 13.8422 22.9583C11.1987 20.175 11.3252 15.7879 14.1246 13.1596C14.2168 13.0727 14.3114 12.9893 14.4083 12.907C14.9424 12.45 15.5427 12.0764 16.1891 11.7991C19.2225 10.5267 22.7381 11.5336 24.6264 14.2159C25.1653 14.9807 25.5423 15.8455 25.7337 16.7595C25.833 17.2295 25.8838 17.7089 25.885 18.1894Z" fill="white"/>
<path d="M11.7379 28.9598C11.2534 28.3982 10.6484 27.9529 9.96537 27.6592L9.94055 27.6486C7.45307 26.5888 4.57207 27.7332 3.50499 30.2063C2.4391 32.6795 3.59008 35.5439 6.07756 36.6049C8.56505 37.6646 11.446 36.5203 12.5131 34.0471C13.2481 32.3435 12.9468 30.3732 11.7367 28.9633V28.9598H11.7379Z" fill="white"/>
<path d="M12.8814 1.07694C11.435 -0.35996 9.09167 -0.358785 7.64763 1.07929C6.20241 2.51737 6.20359 4.8472 7.65 6.28293C9.09522 7.71866 11.4374 7.71866 12.8826 6.28293L12.8909 6.27471C14.3302 4.83663 14.3266 2.5115 12.8826 1.07694H12.8814Z" fill="white"/>
<path d="M39.7439 7.40035C37.5909 5.25968 34.1001 5.26085 31.9482 7.40035C30.7405 8.6011 30.1615 10.2906 30.3789 11.9754C30.3789 11.9954 30.3789 12.0154 30.3849 12.0353C30.5077 12.9083 30.841 13.7389 31.3562 14.4556C31.3692 14.4744 31.3834 14.4921 31.3976 14.5109C31.563 14.7353 31.7462 14.9479 31.9447 15.1441C34.0989 17.286 37.5897 17.286 39.7439 15.1441C41.8982 13.0023 41.8982 9.53162 39.7439 7.38978V7.39918V7.40035Z" fill="white"/>
<path d="M15.5555 24.273C14.9185 23.9253 14.3407 23.4812 13.8408 22.9572C13.8987 23.0323 14.2509 23.6456 12.541 25.7957C10.9008 27.86 10.1137 27.7132 9.96484 27.6579C10.6479 27.9517 11.2529 28.3969 11.7374 28.9586C11.7149 28.908 11.4455 28.2125 13.0373 26.221C14.6917 24.152 15.5602 24.2742 15.5602 24.2742H15.5555V24.273Z" fill="white"/>
<path d="M14.0734 9.48817C12.6057 7.05495 12.9106 6.26306 12.9106 6.26306L12.8917 6.27481L12.8834 6.28304C12.4568 6.70717 11.9321 7.02205 11.3555 7.19711C11.3791 7.19711 12.0267 7.22061 13.4672 9.72785C14.8959 12.2163 14.4303 12.8601 14.4054 12.8919C14.9408 12.4395 15.5422 12.0706 16.1886 11.798C16.1886 11.798 15.5422 11.9214 14.0734 9.48817Z" fill="white"/>
<path d="M30.3858 12.0377C30.4 12.2821 30.2889 13.222 28.0224 14.1126C25.4971 15.1054 24.6864 14.2865 24.625 14.2195C25.1639 14.9844 25.5408 15.8491 25.7323 16.7632C25.7252 16.6986 25.6696 15.7774 28.267 14.7212C30.5182 13.8048 31.1929 14.2783 31.3524 14.458C30.8384 13.7402 30.5063 12.9107 30.3858 12.0377Z" fill="white"/>
<path d="M31.9157 30.2073C32.1188 28.9634 31.2692 27.7914 30.0182 27.5895C28.7671 27.3876 27.5883 28.2322 27.3853 29.4761C27.1822 30.7199 28.0318 31.8919 29.2828 32.0939C30.5338 32.2958 31.7126 31.4511 31.9157 30.2073Z" fill="white"/>
<path d="M3.6101 20.3795C5.60391 20.3795 7.22021 18.7725 7.22021 16.7901C7.22021 14.8078 5.60391 13.2008 3.6101 13.2008C1.6163 13.2008 0 14.8078 0 16.7901C0 18.7725 1.6163 20.3795 3.6101 20.3795Z" fill="white"/>
<path d="M23.1926 7.66226C23.9699 7.66226 24.6 7.03577 24.6 6.26296C24.6 5.49014 23.9699 4.86365 23.1926 4.86365C22.4153 4.86365 21.7852 5.49014 21.7852 6.26296C21.7852 7.03577 22.4153 7.66226 23.1926 7.66226Z" fill="white"/>
</svg>
