<svg width="124" height="300" viewBox="0 0 124 300" fill="none" xmlns="http://www.w3.org/2000/svg">
<g clip-path="url(#clip0_20278_133431)">
<path d="M69.2032 163.173C69.2032 163.173 68.864 160.145 71.0467 159.863C73.2294 159.581 73.0377 163.084 73.0377 163.084" stroke="#FFC439" stroke-width="0.66" stroke-miterlimit="10"/>
<path d="M67.9623 164.721C67.9236 165.025 67.8956 165.323 67.8761 165.563L74.4583 165.525C74.4428 165.314 74.4167 165.058 74.3728 164.792C74.3188 164.465 74.2408 164.142 74.132 163.876C74.0189 163.6 73.8982 163.45 73.7986 163.387L73.7986 163.387L73.7957 163.385C72.0598 162.27 69.6921 162.392 68.2648 163.381C68.2592 163.391 68.2505 163.407 68.2393 163.431C68.207 163.502 68.1716 163.606 68.136 163.744C68.065 164.018 68.0073 164.367 67.9623 164.721Z" fill="#FFC439" stroke="#FFC439"/>
<path d="M71.0739 197.248C62.3423 197.248 55.264 190.125 55.264 181.338C55.264 172.552 62.3423 165.428 71.0739 165.428C79.8055 165.428 86.8838 172.552 86.8838 181.338C86.8838 190.125 79.8055 197.248 71.0739 197.248Z" fill="url(#paint0_radial_20278_133431)"/>
<g style="mix-blend-mode:color-dodge" opacity="0.46">
<path d="M68.4341 165.859C57.963 173.116 58.2874 190.852 69.6434 196.966C69.9384 197.129 69.6729 197.575 69.3779 197.426C57.4615 191.341 57.5943 172.968 68.2866 165.607C68.4488 165.503 68.5963 165.755 68.4341 165.859Z" fill="url(#paint1_linear_20278_133431)"/>
<path d="M74.8077 165.725C83.627 174.511 78.9519 191.193 69.5574 197.367C69.3361 197.515 69.1444 197.159 69.3509 197.011C78.3177 190.777 83.1698 174.764 74.5422 165.992C74.38 165.829 74.6307 165.562 74.8077 165.725Z" fill="url(#paint2_linear_20278_133431)"/>
<path d="M75.1156 166.007C81.649 168.961 85.9554 175.194 84.6871 182.54C83.4187 189.887 77.5785 197.233 69.6736 197.293C69.4966 197.293 69.4966 197.011 69.6736 197.011C78.1684 196.744 84.6576 188.121 84.6428 179.884C84.6281 173.606 80.4396 168.738 74.9829 166.26C74.8206 166.185 74.9534 165.933 75.1303 166.007H75.1156Z" fill="url(#paint3_linear_20278_133431)"/>
<path d="M67.4624 165.918C52.5374 170.46 54.1745 194.072 69.3502 197.025C69.5272 197.055 69.4534 197.337 69.2765 197.307C53.7173 194.666 52.154 170.237 67.3887 165.651C67.5657 165.592 67.6394 165.874 67.4624 165.933V165.918Z" fill="url(#paint4_linear_20278_133431)"/>
<path d="M70.8662 165.517C67.1202 175.357 67.7249 186.785 69.5684 196.996C69.5979 197.174 69.3472 197.248 69.303 197.07C67.0023 187.037 66.8548 175.12 70.5418 165.428C70.6155 165.221 70.9547 165.31 70.8662 165.517Z" fill="url(#paint5_linear_20278_133431)"/>
</g>
<path opacity="0.65" d="M71.0739 197.248C62.3423 197.248 55.264 190.125 55.264 181.338C55.264 172.552 62.3423 165.428 71.0739 165.428C79.8055 165.428 86.8838 172.552 86.8838 181.338C86.8838 190.125 79.8055 197.248 71.0739 197.248Z" fill="url(#paint6_radial_20278_133431)"/>
</g>
<line y1="-0.25" x2="158.801" y2="-0.25" transform="matrix(-2.94526e-08 -1 -1 6.48732e-08 70.6602 159.358)" stroke="#FFC439" stroke-width="0.5"/>
<path d="M45.7591 300H49.2603L48.9092 292.898H46.1009L45.7591 300Z" fill="#FC1414"/>
<path d="M26.7577 289.207C28.6053 287.831 30.4437 286.409 32.1065 284.763C33.1874 283.703 34.1943 282.551 35.0719 281.296C35.9495 280.041 36.6793 278.683 37.1689 277.233L37.6308 276.108L36.6054 276.768C35.8017 277.289 34.9888 277.782 34.1481 278.218C33.7324 278.442 33.2982 278.646 32.864 278.832C32.4299 279.018 31.9864 279.185 31.543 279.334C31.0904 279.474 30.6469 279.613 30.185 279.715C29.7231 279.827 29.2612 279.92 28.7901 279.994C27.8571 280.152 26.9055 280.245 25.954 280.329L26.185 281.045L28.0049 279.845C28.3097 279.65 28.5961 279.427 28.8917 279.213L29.7693 278.572C30.3605 278.144 30.9056 277.67 31.4783 277.214C32.0511 276.759 32.5777 276.257 33.1227 275.774C33.3998 275.541 33.6493 275.272 33.9172 275.021L34.7024 274.258C34.9611 274.007 35.2105 273.738 35.4692 273.477L36.2267 272.696C37.2151 271.637 38.1944 270.558 39.1551 269.48L39.9219 268.718L38.8133 268.838C37.3537 268.996 35.8941 269.238 34.4899 269.266C33.7878 269.285 33.1042 269.238 32.4299 269.117C32.0973 269.052 31.7647 268.978 31.4322 268.885C31.1088 268.792 30.7855 268.671 30.4622 268.56L30.6192 270.112C31.7924 269.387 32.9564 268.634 34.0835 267.816C34.3698 267.621 34.6377 267.398 34.9241 267.193C35.2013 266.988 35.4692 266.756 35.7463 266.542C36.2821 266.096 36.8087 265.641 37.3168 265.166C37.8248 264.683 38.3145 264.19 38.7856 263.679C39.0165 263.419 39.2567 263.168 39.4784 262.907C39.7002 262.647 39.9311 262.387 40.1528 262.117C41.0304 261.048 41.8526 259.942 42.6563 258.826L43.3399 257.906L42.2498 258.222C41.557 258.427 40.8641 258.612 40.1713 258.77C39.8203 258.854 39.4692 258.91 39.1274 258.984C38.7764 259.04 38.4253 259.087 38.0743 259.133L37.5385 259.17C37.3629 259.18 37.1874 259.198 37.0027 259.198H36.4669C36.2913 259.198 36.1066 259.207 35.9311 259.198L35.3953 259.17C35.2197 259.161 35.035 259.152 34.8595 259.133L33.7878 259.012L33.871 259.449L34.647 259.003C34.9056 258.854 35.1643 258.705 35.4137 258.547C35.9126 258.231 36.4299 257.925 36.9195 257.581C37.4184 257.255 37.908 256.911 38.3791 256.558C38.6193 256.381 38.8595 256.205 39.0905 256.019C39.3214 255.833 39.5616 255.656 39.7925 255.47C40.2544 255.098 40.7163 254.717 41.169 254.318C41.6217 253.927 42.0651 253.527 42.49 253.109C42.9242 252.7 43.3399 252.272 43.7556 251.835C44.1621 251.389 44.5593 250.952 44.9473 250.46L45.8157 249.316L44.4947 249.865C43.5339 250.264 42.6009 250.711 41.6586 251.017C41.1875 251.166 40.7071 251.278 40.236 251.315C39.9958 251.333 39.7556 251.333 39.5154 251.315C39.2752 251.296 39.035 251.268 38.8041 251.222L38.9704 251.91C40.042 251.064 40.9381 250.069 41.7787 249.037C42.6101 248.005 43.3769 246.918 44.1067 245.811C44.8365 244.705 45.5293 243.58 46.1852 242.437C46.8504 241.293 47.4785 240.141 48.0883 238.951H46.9427C47.5525 240.141 48.1991 241.284 48.8642 242.427C49.5294 243.562 50.2315 244.686 50.9705 245.783C51.7096 246.88 52.4855 247.959 53.317 248.981C54.1576 250.004 55.0629 250.989 56.1253 251.817L56.3008 251.343C55.7927 251.315 55.2847 251.287 54.7858 251.25C54.5364 251.231 54.287 251.194 54.0375 251.166C53.7881 251.138 53.5387 251.092 53.2985 251.045C53.0491 251.008 52.8089 250.934 52.5687 250.878C52.4486 250.85 52.3285 250.803 52.2084 250.766L51.8481 250.645L51.146 250.367L50.4624 250.05L49.7419 249.669L50.2222 250.339C50.5825 250.831 50.952 251.287 51.34 251.752C51.728 252.207 52.1253 252.653 52.541 253.081C52.9474 253.518 53.3816 253.936 53.8066 254.355C54.2408 254.773 54.6842 255.173 55.1276 255.563C55.3493 255.758 55.5803 255.954 55.8112 256.149C56.0422 256.344 56.2731 256.539 56.5041 256.716C56.9752 257.088 57.4463 257.46 57.9267 257.813C58.4071 258.176 58.9059 258.51 59.3956 258.854C59.6357 259.031 59.8944 259.18 60.1531 259.347L60.9106 259.83L61.1693 258.585C59.7466 258.789 58.324 258.956 56.9198 258.947C56.2177 258.947 55.5156 258.882 54.832 258.77C54.1391 258.659 53.4555 258.473 52.7904 258.25L51.4601 257.776L52.3562 258.854L53.0583 259.7L53.7789 260.518L54.5271 261.318L55.3031 262.089C55.8297 262.591 56.3747 263.084 56.929 263.549C57.4833 264.014 58.0561 264.469 58.638 264.906C59.802 265.78 60.9937 266.598 62.2039 267.388C63.4141 268.178 64.6335 268.95 65.8529 269.722L65.9361 269.024C65.5943 269.136 65.2524 269.238 64.9106 269.331C64.5688 269.415 64.2178 269.489 63.8667 269.536C63.5157 269.582 63.1647 269.619 62.8136 269.629C62.4626 269.638 62.1023 269.629 61.7512 269.619C60.3286 269.536 58.9059 269.21 57.4833 268.876L56.5872 268.643L57.0583 269.443C57.2339 269.74 57.4094 270.047 57.5942 270.344C57.7881 270.633 57.9637 270.939 58.1669 271.218C58.5641 271.795 58.9798 272.352 59.4233 272.892C59.8575 273.44 60.3286 273.961 60.7997 274.463C61.2709 274.974 61.7605 275.467 62.2686 275.95C62.7674 276.434 63.2755 276.898 63.8021 277.354C64.3194 277.809 64.846 278.265 65.3818 278.702C66.4441 279.585 67.525 280.44 68.6151 281.277L69.1232 280.041C67.2294 279.79 65.3541 279.52 63.5527 279.018C62.6473 278.767 61.7697 278.451 60.9106 278.07C60.0515 277.689 59.2108 277.252 58.3979 276.768L56.9937 275.913L57.8621 277.307C58.2593 277.94 58.6565 278.562 59.0722 279.176C59.4972 279.79 59.9314 280.385 60.3933 280.97C60.8552 281.556 61.3355 282.123 61.8252 282.681C62.3332 283.229 62.8413 283.759 63.3771 284.28C63.645 284.531 63.9129 284.791 64.1901 285.033C64.4672 285.274 64.7444 285.525 65.0215 285.767C65.585 286.251 66.1578 286.715 66.7398 287.171C67.8945 288.082 69.077 288.965 70.2594 289.839L70.3241 289.17C69.4557 289.523 68.5227 289.82 67.5989 290.081C66.6751 290.35 65.7328 290.573 64.7905 290.787C63.8483 290.992 62.8968 291.178 61.9452 291.336C60.9937 291.503 60.033 291.633 59.0722 291.763C58.1115 291.875 57.1507 291.996 56.19 292.061C55.2292 292.154 54.2592 292.2 53.2985 292.256C52.3285 292.312 51.3677 292.321 50.3978 292.358H47.5063L44.5871 292.265C43.6263 292.2 42.6656 292.163 41.7048 292.079C40.7441 291.996 39.7833 291.921 38.8226 291.791C37.8618 291.689 36.9103 291.55 35.9588 291.401C35.0073 291.243 34.0557 291.085 33.1227 290.889C32.1804 290.704 31.2474 290.49 30.3144 290.257C29.3906 290.016 28.4668 289.765 27.5614 289.467C27.2935 289.383 27.0164 289.281 26.7485 289.188L26.7577 289.207ZM24.0602 290.527C25.0672 290.945 25.991 291.224 26.9702 291.512C27.931 291.791 28.9009 292.024 29.8709 292.247C30.8409 292.461 31.8109 292.656 32.7901 292.814C33.7694 292.99 34.7486 293.121 35.7278 293.251C36.7071 293.372 37.6863 293.483 38.6747 293.558C39.654 293.66 40.6424 293.697 41.6217 293.762C42.6009 293.818 43.5986 293.827 44.5871 293.864H47.5155L50.4717 293.771C51.4509 293.706 52.4301 293.669 53.4093 293.585C54.3886 293.492 55.3678 293.418 56.347 293.297C57.3262 293.195 58.2962 293.046 59.2662 292.907C60.2362 292.749 61.2062 292.591 62.167 292.386C63.1277 292.2 64.0885 291.977 65.0492 291.735C66.0007 291.494 66.9522 291.233 67.8853 290.927C68.8275 290.629 69.7513 290.304 70.6751 289.895L71.2941 289.625L70.7491 289.235C69.5666 288.361 68.3934 287.487 67.2479 286.585C66.6751 286.13 66.1116 285.674 65.5573 285.2C65.2802 284.968 65.0123 284.726 64.7351 284.484C64.458 284.243 64.1993 283.992 63.9407 283.741C63.4141 283.239 62.9152 282.718 62.4256 282.188C61.9452 281.649 61.4741 281.091 61.0214 280.524C60.578 279.948 60.1438 279.362 59.7374 278.767C59.3217 278.163 58.9337 277.549 58.5457 276.936L58.0099 277.465C58.8228 278.005 59.6635 278.507 60.5411 278.953C61.4187 279.399 62.3332 279.771 63.257 280.087C65.1231 280.719 67.0446 281.091 68.9384 281.444L71.6729 281.956L69.4557 280.208C68.3472 279.418 67.2479 278.609 66.167 277.782C65.6312 277.373 65.0954 276.945 64.5688 276.517C64.0423 276.09 63.5249 275.643 63.0261 275.197C62.518 274.751 62.0284 274.286 61.548 273.812C61.0676 273.338 60.5965 272.845 60.1623 272.334C59.7097 271.832 59.2939 271.302 58.8875 270.763C58.675 270.493 58.4995 270.214 58.3055 269.935C58.1207 269.657 57.9452 269.368 57.7604 269.089L57.3355 269.666C58.7674 270.001 60.227 270.344 61.7328 270.437C62.1115 270.465 62.4903 270.465 62.869 270.456C63.2478 270.437 63.6266 270.4 64.0053 270.354C64.3841 270.298 64.7536 270.224 65.1231 270.131C65.4926 270.038 65.8529 269.926 66.2132 269.805L66.98 269.545L66.2871 269.108C65.0677 268.336 63.8575 267.565 62.6566 266.784C61.4556 265.994 60.2732 265.185 59.1277 264.33C58.5549 263.902 58.0006 263.456 57.4556 263C56.9105 262.545 56.384 262.061 55.8666 261.569L55.1091 260.816L54.3793 260.035L53.668 259.235L52.9844 258.408L52.5502 259.012C53.2431 259.3 53.9544 259.533 54.6842 259.709C55.414 259.886 56.1623 259.988 56.9105 260.044C58.4071 260.156 59.8944 260.072 61.354 259.96L63.3309 259.812L61.6127 258.715L60.8459 258.296C60.5873 258.157 60.3286 258.017 60.0792 257.869C59.5803 257.571 59.0722 257.283 58.5826 256.958C58.0838 256.651 57.6034 256.326 57.123 255.982C56.8828 255.814 56.6426 255.647 56.4117 255.47C56.1807 255.294 55.9405 255.126 55.7096 254.95C55.2477 254.587 54.7858 254.234 54.3331 253.853C53.8805 253.481 53.4371 253.09 53.0121 252.691C52.5779 252.3 52.153 251.882 51.7465 251.464C51.34 251.045 50.9336 250.608 50.564 250.162L50.3239 250.45L51.0167 250.794L51.7373 251.101L52.1068 251.231C52.2269 251.268 52.347 251.324 52.4763 251.352C52.7257 251.417 52.9752 251.501 53.2338 251.547C53.4925 251.594 53.7419 251.659 54.0006 251.687C54.2592 251.724 54.5179 251.77 54.7673 251.789C55.2847 251.845 55.7927 251.882 56.3101 251.919L57.1045 251.984L56.4856 251.445C55.5156 250.618 54.6842 249.614 53.9082 248.582C53.1322 247.54 52.4301 246.453 51.7557 245.337C51.0814 244.222 50.4439 243.087 49.8435 241.935C49.2338 240.782 48.6518 239.611 48.116 238.439L47.5802 237.268L46.9797 238.439C46.4347 239.611 45.8434 240.773 45.2245 241.916C44.6055 243.06 43.9681 244.194 43.2845 245.3C42.6009 246.406 41.8896 247.485 41.1043 248.517C40.3283 249.539 39.4877 250.534 38.5269 251.343L37.8618 251.9L38.684 252.031C38.9519 252.086 39.229 252.124 39.5062 252.142C39.7833 252.161 40.0604 252.151 40.3376 252.142C40.8919 252.096 41.4277 251.975 41.9358 251.807C42.9612 251.473 43.8942 251.027 44.8365 250.627L44.3838 250.032C44.042 250.478 43.654 250.934 43.266 251.371C42.878 251.807 42.4716 252.235 42.0558 252.644C41.6401 253.063 41.2152 253.462 40.781 253.862C40.3468 254.262 39.9034 254.643 39.4507 255.024C39.229 255.219 38.9981 255.396 38.7671 255.582C38.5362 255.768 38.3052 255.954 38.0743 256.13C37.6124 256.493 37.132 256.837 36.6516 257.171C36.1805 257.515 35.6816 257.832 35.192 258.157C34.9518 258.324 34.6932 258.464 34.4437 258.622L33.6862 259.077L33.095 259.44L33.7601 259.523L34.8502 259.682C35.035 259.709 35.2197 259.719 35.3953 259.737L35.9403 259.793C36.1251 259.812 36.3098 259.812 36.4946 259.821L37.0489 259.84C37.2336 259.84 37.4184 259.83 37.6031 259.83L38.1574 259.812C38.5269 259.774 38.8965 259.737 39.2567 259.7C39.617 259.635 39.9865 259.589 40.3468 259.514C41.0674 259.375 41.7787 259.207 42.49 259.021L42.0836 258.417C41.2337 259.477 40.3653 260.518 39.4415 261.513C39.2198 261.764 38.9796 262.006 38.7486 262.247C38.5177 262.489 38.2683 262.721 38.0373 262.954C37.5569 263.419 37.0581 263.865 36.55 264.302C36.0327 264.729 35.5154 265.138 34.9703 265.538C34.6932 265.733 34.4345 265.929 34.1481 266.115C33.871 266.301 33.5938 266.496 33.3075 266.672C32.1804 267.398 31.0164 268.067 29.8247 268.699L28.1065 269.629L29.9818 270.252C30.3605 270.354 30.7393 270.437 31.1273 270.512C31.5153 270.577 31.9033 270.633 32.2913 270.661C33.0765 270.716 33.8617 270.688 34.6193 270.586C36.1343 270.391 37.5477 270.001 38.9704 269.684L38.6193 269.043C37.6586 270.121 36.6886 271.19 35.7093 272.241L34.9611 273.013C34.7116 273.273 34.4622 273.533 34.2036 273.784L33.4276 274.528C33.1689 274.779 32.9195 275.03 32.6423 275.262C32.0973 275.727 31.58 276.229 31.0257 276.675C30.4622 277.122 29.9264 277.586 29.3444 278.005L28.476 278.637C28.1804 278.841 27.9032 279.064 27.5984 279.26L25.8062 280.44L24.5314 281.277L26.0372 281.156C27.0072 281.082 27.9771 280.98 28.9379 280.812C29.4183 280.738 29.8987 280.636 30.379 280.524C30.8594 280.412 31.3305 280.273 31.8017 280.124C32.2728 279.966 32.7347 279.79 33.1874 279.594C33.64 279.399 34.0835 279.185 34.5176 278.962C35.386 278.507 36.2267 278.005 37.0396 277.475L36.4669 277.01C35.8941 278.339 35.1089 279.557 34.1943 280.663C33.2798 281.779 32.2359 282.783 31.1273 283.713C30.0187 284.642 28.8455 285.498 27.6353 286.306C26.4252 287.115 25.1873 287.887 23.9217 288.649L22.0833 289.755L24.0695 290.564L24.0602 290.527Z" fill="#FC1414"/>
<path d="M59.526 289.43L60.7824 288.909L61.9279 289.653L61.817 288.287L62.8794 287.422L61.5584 287.106L61.0687 285.823L60.3574 286.994L58.9902 287.069L59.877 288.11L59.526 289.43Z" fill="#FC1414"/>
<path d="M35.0358 289.43L36.2921 288.909L37.4376 289.653L37.3268 288.287L38.3892 287.422L37.0589 287.106L36.5693 285.823L35.8579 286.994L34.5 287.069L35.3868 288.11L35.0358 289.43Z" fill="#FC1414"/>
<path d="M47.8483 288.872L49.1046 288.342L50.2501 289.086L50.1393 287.719L51.2017 286.855L49.8806 286.539L49.391 285.265L48.6797 286.427L47.3125 286.501L48.1993 287.543L47.8483 288.872Z" fill="#FC1414"/>
<path d="M48.5899 275.179L49.8463 274.649L50.9918 275.392L50.881 274.026L51.9341 273.161L50.613 272.845L50.1234 271.572L49.4121 272.734L48.0541 272.808L48.941 273.849L48.5899 275.179Z" fill="#FC1414"/>
<path d="M47.0841 261.141L48.3405 260.62L49.486 261.364L49.3751 259.998L50.4375 259.133L49.1072 258.817L48.6176 257.534L47.9155 258.705L46.5483 258.78L47.4352 259.821L47.0841 261.141Z" fill="#FC1414"/>
<path d="M45.6485 269.229L46.5538 268.848L47.376 269.387L47.3021 268.401L48.0596 267.779L47.1081 267.546L46.757 266.626L46.2397 267.472L45.2605 267.528L45.8979 268.271L45.6485 269.229Z" fill="#FC1414"/>
<path d="M55.7403 282.281L56.6456 281.9L57.4678 282.439L57.3846 281.454L58.1514 280.831L57.1999 280.598L56.8396 279.678L56.3315 280.524L55.3523 280.57L55.9897 281.323L55.7403 282.281Z" fill="#FC1414"/>
<path d="M43.8013 283.378L44.7066 282.997L45.5288 283.536L45.4456 282.551L46.2124 281.928L45.2609 281.695L44.9006 280.775L44.3925 281.621L43.4133 281.677L44.0507 282.42L43.8013 283.378Z" fill="#FC1414"/>
<path d="M42.398 256.27L43.3033 255.898L44.1347 256.428L44.0516 255.442L44.8091 254.829L43.8576 254.596L43.5065 253.676L42.9984 254.513L42.0192 254.568L42.6566 255.321L42.398 256.27Z" fill="#FC1414"/>
<path d="M41.4649 274.946L42.7213 274.426L43.8668 275.169L43.7559 273.803L44.8091 272.938L43.488 272.622L42.9984 271.339L42.2871 272.511L40.9291 272.585L41.816 273.626L41.4649 274.946Z" fill="#FC1414"/>
<path d="M51.9718 266.701L53.2374 266.18L54.3737 266.924L54.2721 265.557L55.3252 264.692L54.0042 264.376L53.5145 263.094L52.8032 264.265L51.4452 264.339L52.3228 265.38L51.9718 266.701Z" fill="#FC1414"/>
<path d="M45.3458 248.712L46.6022 248.191L47.7477 248.935L47.6368 247.568L48.6992 246.704L47.3782 246.388L46.8793 245.105L46.1772 246.276L44.81 246.35L45.6969 247.392L45.3458 248.712Z" fill="#FC1414"/>
<path d="M39.4711 280.682L40.0161 280.45L40.515 280.775L40.4688 280.18L40.9307 279.808L40.3487 279.669L40.1362 279.111L39.8313 279.622L39.2401 279.65L39.6189 280.106L39.4711 280.682Z" fill="#FC1414"/>
<path d="M42.8036 291.14L43.3486 290.908L43.8475 291.233L43.8013 290.638L44.2632 290.257L43.6812 290.118L43.4687 289.56L43.1639 290.071L42.5634 290.108L42.9514 290.564L42.8036 291.14Z" fill="#FC1414"/>
<path d="M54.7386 291.14L55.2837 290.908L55.7825 291.233L55.7363 290.638L56.1982 290.257L55.6162 290.118L55.4038 289.56L55.0989 290.071L54.4985 290.108L54.8864 290.564L54.7386 291.14Z" fill="#FC1414"/>
<path d="M57.5297 275.058L58.0839 274.825L58.5828 275.151L58.5366 274.556L58.9893 274.175L58.4165 274.035L58.204 273.477L57.8899 273.989L57.2987 274.026L57.6867 274.481L57.5297 275.058Z" fill="#FC1414"/>
<path d="M41.1625 266.347L41.7167 266.115L42.2156 266.44L42.1602 265.845L42.6221 265.473L42.0493 265.334L41.8368 264.776L41.5228 265.287L40.9315 265.315L41.3195 265.771L41.1625 266.347Z" fill="#FC1414"/>
<path d="M50.2211 255.526L50.7753 255.303L51.2742 255.628L51.228 255.024L51.6807 254.652L51.1079 254.513L50.8954 253.955L50.5813 254.466L49.9901 254.494L50.3781 254.95L50.2211 255.526Z" fill="#FC1414"/>
<path d="M46.8964 243.562L47.4414 243.329L47.9402 243.655L47.8941 243.06L48.356 242.688L47.774 242.548L47.5615 241.99L47.2566 242.502L46.6654 242.53L47.0442 242.985L46.8964 243.562Z" fill="#FC1414"/>
<path d="M54.8968 258.036L55.2756 257.878L55.6082 258.101L55.5804 257.692L55.8945 257.432L55.4973 257.339L55.3495 256.958L55.1463 257.311L54.7398 257.33L54.9984 257.636L54.8968 258.036Z" fill="#FC1414"/>
<path d="M39.0926 258.045L39.4621 257.887L39.8039 258.11L39.767 257.701L40.0811 257.441L39.6931 257.348L39.5453 256.967L39.3328 257.32L38.9263 257.339L39.1942 257.646L39.0926 258.045Z" fill="#FC1414"/>
<path d="M46.9725 251.947L47.3513 251.789L47.6931 252.012L47.6561 251.603L47.9702 251.343L47.5822 251.25L47.4344 250.869L47.2219 251.222L46.8155 251.24L47.0834 251.547L46.9725 251.947Z" fill="#FC1414"/>
<path d="M59.6834 268.271L60.053 268.113L60.3948 268.336L60.3671 267.927L60.6812 267.667L60.2839 267.574L60.1361 267.193L59.9329 267.546L59.5264 267.565L59.7851 267.872L59.6834 268.271Z" fill="#FC1414"/>
<path d="M37.3915 267.128L37.761 266.979L38.1028 267.193L38.0751 266.793L38.3892 266.533L37.9919 266.44L37.8441 266.059L37.6316 266.403L37.2344 266.431L37.4931 266.737L37.3915 267.128Z" fill="#FC1414"/>
<path d="M52.1175 269.889L52.4871 269.731L52.8289 269.954L52.8011 269.545L53.1152 269.294L52.718 269.201L52.5702 268.82L52.3577 269.164L51.9605 269.182L52.2191 269.498L52.1175 269.889Z" fill="#FC1414"/>
<path d="M47.7376 278.823L48.1071 278.665L48.4489 278.888L48.412 278.479L48.7261 278.218L48.3381 278.126L48.1903 277.744L47.9778 278.098L47.5806 278.116L47.8392 278.423L47.7376 278.823Z" fill="#FC1414"/>
<path d="M43.8206 262.433L44.1901 262.275L44.5319 262.498L44.495 262.099L44.8091 261.838L44.4211 261.745L44.2733 261.364L44.0608 261.708L43.6636 261.736L43.9222 262.043L43.8206 262.433Z" fill="#FC1414"/>
<path d="M46.3993 255.861L46.7688 255.703L47.1106 255.926L47.0829 255.517L47.397 255.266L46.9997 255.173L46.8519 254.792L46.6487 255.135L46.2422 255.163L46.5009 255.47L46.3993 255.861Z" fill="#FC1414"/>
<path d="M33.5106 277.679L33.8801 277.53L34.2219 277.744L34.1849 277.345L34.499 277.084L34.111 276.991L33.9632 276.61L33.7507 276.954L33.3443 276.982L33.6122 277.289L33.5106 277.679Z" fill="#FC1414"/>
<path d="M30.825 289.337L31.1945 289.179L31.5363 289.402L31.4994 288.993L31.8135 288.733L31.4255 288.64L31.2777 288.259L31.0652 288.612L30.6587 288.631L30.9266 288.937L30.825 289.337Z" fill="#FC1414"/>
<path d="M50.7859 248.87L51.1555 248.712L51.4973 248.935L51.4603 248.526L51.7744 248.265L51.3864 248.173L51.2386 247.791L51.0261 248.145L50.6197 248.163L50.8876 248.47L50.7859 248.87Z" fill="#FC1414"/>
<path d="M51.9247 282.634L52.4697 282.402L52.9686 282.727L52.9224 282.132L53.3843 281.751L52.8023 281.612L52.5898 281.054L52.285 281.565L51.6845 281.602L52.0725 282.049L51.9247 282.634Z" fill="#FC1414"/>
<path d="M47.2558 0.000732422H47.9194V239.11H47.2558V0.000732422Z" fill="#FC1414"/>
<path d="M107.521 125.483C107.521 125.483 107.257 122.676 109.282 122.44C111.308 122.204 111.073 125.453 111.073 125.453" stroke="#FFC439" stroke-width="0.33" stroke-miterlimit="10"/>
<path d="M106.771 125.923L106.768 125.925C106.682 125.978 106.57 126.111 106.461 126.367C106.357 126.612 106.281 126.913 106.226 127.219C106.184 127.454 106.158 127.682 106.14 127.873L112.286 127.974C112.27 127.754 112.247 127.488 112.214 127.216C112.175 126.882 112.124 126.555 112.06 126.299C112.028 126.17 111.996 126.073 111.967 126.008C111.959 125.991 111.953 125.978 111.948 125.97C110.615 125.034 108.408 124.901 106.771 125.923Z" fill="#FFC439" stroke="#FFC439"/>
<path d="M109.132 157.787C100.921 157.787 94.2648 151.089 94.2648 142.826C94.2648 134.563 100.921 127.864 109.132 127.864C117.344 127.864 124 134.563 124 142.826C124 151.089 117.344 157.787 109.132 157.787Z" fill="url(#paint7_radial_20278_133431)"/>
<g style="mix-blend-mode:lighten">
<path d="M111.868 131.985C111.648 131.985 111.648 131.646 111.868 131.646C112.088 131.646 112.088 131.985 111.868 131.985Z" fill="white"/>
<path d="M115.142 139.187C114.922 139.187 114.922 138.848 115.142 138.848C115.363 138.848 115.363 139.187 115.142 139.187Z" fill="white"/>
<path d="M119.681 141.187C119.461 141.187 119.461 140.848 119.681 140.848C119.902 140.848 119.902 141.187 119.681 141.187Z" fill="white"/>
<path d="M116.468 135.908C116.247 135.908 116.247 135.568 116.468 135.568C116.688 135.568 116.688 135.908 116.468 135.908Z" fill="white"/>
<path d="M109.685 135.586C109.465 135.586 109.465 135.247 109.685 135.247C109.906 135.247 109.906 135.586 109.685 135.586Z" fill="white"/>
<path d="M117.329 132.252C117.109 132.252 117.109 131.913 117.329 131.913C117.55 131.913 117.55 132.252 117.329 132.252Z" fill="white"/>
<path d="M119.958 136.575C119.738 136.575 119.738 136.235 119.958 136.235C120.178 136.235 120.178 136.575 119.958 136.575Z" fill="white"/>
<path d="M122.778 141.462C122.557 141.462 122.557 141.123 122.778 141.123C122.998 141.123 122.998 141.462 122.778 141.462Z" fill="white"/>
<path d="M118.49 153.355C118.27 153.355 118.27 153.016 118.49 153.016C118.71 153.016 118.71 153.355 118.49 153.355Z" fill="white"/>
<path d="M121.604 148.758C121.384 148.758 121.384 148.419 121.604 148.419C121.825 148.419 121.825 148.758 121.604 148.758Z" fill="white"/>
<path d="M123.012 144.09C122.791 144.09 122.791 143.751 123.012 143.751C123.232 143.751 123.232 144.09 123.012 144.09Z" fill="white"/>
<path d="M115.567 131.616C115.346 131.616 115.346 131.277 115.567 131.277C115.787 131.277 115.787 131.616 115.567 131.616Z" fill="white"/>
<path d="M114.385 129.985C114.164 129.985 114.164 129.646 114.385 129.646C114.605 129.646 114.605 129.985 114.385 129.985Z" fill="white"/>
<path d="M110.742 129.867C110.522 129.867 110.522 129.528 110.742 129.528C110.962 129.528 110.962 129.867 110.742 129.867Z" fill="white"/>
<path d="M113.605 136.52C113.385 136.52 113.385 136.18 113.605 136.18C113.825 136.18 113.825 136.52 113.605 136.52Z" fill="white"/>
<path d="M104.8 132.37C104.58 132.37 104.58 132.03 104.8 132.03C105.02 132.03 105.02 132.37 104.8 132.37Z" fill="white"/>
<path d="M107.411 130.871C107.191 130.871 107.191 130.532 107.411 130.532C107.632 130.532 107.632 130.871 107.411 130.871Z" fill="white"/>
<path d="M109.893 130.934C109.673 130.934 109.673 130.595 109.893 130.595C110.114 130.595 110.114 130.934 109.893 130.934Z" fill="white"/>
<path d="M107.277 132.338C107.057 132.338 107.057 131.999 107.277 131.999C107.497 131.999 107.497 132.338 107.277 132.338Z" fill="white"/>
<path d="M101.011 132.26C100.79 132.26 100.79 131.921 101.011 131.921C101.231 131.921 101.231 132.26 101.011 132.26Z" fill="white"/>
<path d="M104.358 130.652C104.138 130.652 104.138 130.312 104.358 130.312C104.579 130.312 104.579 130.652 104.358 130.652Z" fill="white"/>
<path d="M108.759 128.792C108.538 128.792 108.538 128.453 108.759 128.453C108.979 128.453 108.979 128.792 108.759 128.792Z" fill="white"/>
<path d="M112.648 129.294C112.428 129.294 112.428 128.955 112.648 128.955C112.868 128.955 112.868 129.294 112.648 129.294Z" fill="white"/>
<path d="M109.642 132.754C109.422 132.754 109.422 132.415 109.642 132.415C109.862 132.415 109.862 132.754 109.642 132.754Z" fill="white"/>
<path d="M113.341 134.519C113.12 134.519 113.12 134.18 113.341 134.18C113.561 134.18 113.561 134.519 113.341 134.519Z" fill="white"/>
<path d="M118.139 134.213C117.919 134.213 117.919 133.874 118.139 133.874C118.36 133.874 118.36 134.213 118.139 134.213Z" fill="white"/>
<path d="M121.665 138.779C121.445 138.779 121.445 138.44 121.665 138.44C121.885 138.44 121.885 138.779 121.665 138.779Z" fill="white"/>
<path d="M117.39 138.763C117.17 138.763 117.17 138.424 117.39 138.424C117.61 138.424 117.61 138.763 117.39 138.763Z" fill="white"/>
<path d="M118.447 146.734C118.227 146.734 118.227 146.395 118.447 146.395C118.667 146.395 118.667 146.734 118.447 146.734Z" fill="white"/>
<path d="M122.249 146.844C122.029 146.844 122.029 146.504 122.249 146.504C122.47 146.504 122.47 146.844 122.249 146.844Z" fill="white"/>
<path d="M121.665 143.078C121.445 143.078 121.445 142.739 121.665 142.739C121.885 142.739 121.885 143.078 121.665 143.078Z" fill="white"/>
<path d="M119.638 144.804C119.417 144.804 119.417 144.465 119.638 144.465C119.858 144.465 119.858 144.804 119.638 144.804Z" fill="white"/>
<path d="M115.32 141.948C115.1 141.948 115.1 141.609 115.32 141.609C115.54 141.609 115.54 141.948 115.32 141.948Z" fill="white"/>
<path d="M119.283 138.026C119.062 138.026 119.062 137.687 119.283 137.687C119.503 137.687 119.503 138.026 119.283 138.026Z" fill="white"/>
<path d="M115.129 133.295C114.909 133.295 114.909 132.956 115.129 132.956C115.349 132.956 115.349 133.295 115.129 133.295Z" fill="white"/>
<path d="M103.947 134.26C103.727 134.26 103.727 133.921 103.947 133.921C104.167 133.921 104.167 134.26 103.947 134.26Z" fill="white"/>
<path d="M105.519 138.496C105.299 138.496 105.299 138.157 105.519 138.157C105.739 138.157 105.739 138.496 105.519 138.496Z" fill="white"/>
<path d="M109.01 140.309C108.789 140.309 108.789 139.969 109.01 139.969C109.23 139.969 109.23 140.309 109.01 140.309Z" fill="white"/>
<path d="M108.07 138.23C107.85 138.23 107.85 137.891 108.07 137.891C108.29 137.891 108.29 138.23 108.07 138.23Z" fill="white"/>
<path d="M99.8241 137.798C99.6038 137.798 99.6038 137.459 99.8241 137.459C100.044 137.459 100.044 137.798 99.8241 137.798Z" fill="white"/>
<path d="M103.341 135.037C103.12 135.037 103.12 134.698 103.341 134.698C103.561 134.698 103.561 135.037 103.341 135.037Z" fill="white"/>
<path d="M108.039 135.013C107.819 135.013 107.819 134.674 108.039 134.674C108.26 134.674 108.26 135.013 108.039 135.013Z" fill="white"/>
<path d="M107.277 144.992C107.057 144.992 107.057 144.653 107.277 144.653C107.497 144.653 107.497 144.992 107.277 144.992Z" fill="white"/>
<path d="M103.795 150.28C103.575 150.28 103.575 149.941 103.795 149.941C104.016 149.941 104.016 150.28 103.795 150.28Z" fill="white"/>
<path d="M105.593 153.077C105.431 153.077 105.431 152.812 105.593 152.812C105.755 152.812 105.755 153.077 105.593 153.077Z" fill="white"/>
<path d="M101.111 150.285C100.949 150.285 100.949 150.019 101.111 150.019C101.272 150.019 101.272 150.285 101.111 150.285Z" fill="white"/>
<path d="M97.9579 150.622C97.7962 150.622 97.7962 150.356 97.9579 150.356C98.1195 150.356 98.1195 150.622 97.9579 150.622Z" fill="white"/>
<path d="M99.2655 146.911C99.1038 146.911 99.1038 146.646 99.2655 146.646C99.4271 146.646 99.4271 146.911 99.2655 146.911Z" fill="white"/>
<path d="M96.68 147.61C96.5184 147.61 96.5184 147.344 96.68 147.344C96.8417 147.344 96.8417 147.61 96.68 147.61Z" fill="white"/>
<path d="M95.4198 141.169C95.2581 141.169 95.2581 140.903 95.4198 140.903C95.5814 140.903 95.5814 141.169 95.4198 141.169Z" fill="white"/>
<path d="M98.3822 138.721C98.2205 138.721 98.2205 138.455 98.3822 138.455C98.5438 138.455 98.5438 138.721 98.3822 138.721Z" fill="white"/>
<path d="M103.518 140.918C103.357 140.918 103.357 140.652 103.518 140.652C103.68 140.652 103.68 140.918 103.518 140.918Z" fill="white"/>
<path d="M105.914 136.101C105.752 136.101 105.752 135.835 105.914 135.835C106.076 135.835 106.076 136.101 105.914 136.101Z" fill="white"/>
<path d="M102.774 131.025C102.612 131.025 102.612 130.76 102.774 130.76C102.935 130.76 102.935 131.025 102.774 131.025Z" fill="white"/>
<path d="M105.974 129.237C105.813 129.237 105.813 128.971 105.974 128.971C106.136 128.971 106.136 129.237 105.974 129.237Z" fill="white"/>
<path d="M100.573 144.976C100.353 144.976 100.353 144.637 100.573 144.637C100.793 144.637 100.793 144.976 100.573 144.976Z" fill="white"/>
<path d="M112.167 146.188V146.129C112.167 146.129 112.197 146.1 112.211 146.085C112.211 146.07 112.241 146.055 112.256 146.055C112.285 146.04 112.329 146.055 112.344 146.085C112.344 146.1 112.358 146.114 112.358 146.129C112.358 146.144 112.358 146.159 112.358 146.173V146.232C112.358 146.232 112.285 146.306 112.241 146.291C112.197 146.277 112.167 146.232 112.182 146.188H112.167Z" fill="white"/>
<path d="M100.01 134.687V134.628C100.01 134.628 100.04 134.599 100.054 134.584C100.054 134.569 100.084 134.554 100.098 134.554C100.128 134.54 100.172 134.555 100.186 134.584C100.186 134.599 100.201 134.614 100.201 134.628C100.201 134.643 100.201 134.658 100.201 134.673V134.732C100.201 134.732 100.128 134.805 100.084 134.791C100.04 134.776 100.01 134.732 100.025 134.687H100.01Z" fill="white"/>
<path d="M112.149 141.54C111.929 141.54 111.929 141.201 112.149 141.201C112.37 141.201 112.37 141.54 112.149 141.54Z" fill="white"/>
<path d="M115.173 145.11C114.952 145.11 114.952 144.771 115.173 144.771C115.393 144.771 115.393 145.11 115.173 145.11Z" fill="white"/>
<path d="M115.965 150.256C115.745 150.256 115.745 149.917 115.965 149.917C116.185 149.917 116.185 150.256 115.965 150.256Z" fill="white"/>
<path d="M109.993 148.938C109.773 148.938 109.773 148.599 109.993 148.599C110.213 148.599 110.213 148.938 109.993 148.938Z" fill="white"/>
<path d="M112.431 150.742C112.211 150.742 112.211 150.403 112.431 150.403C112.652 150.403 112.652 150.742 112.431 150.742Z" fill="white"/>
<path d="M111.99 136.724C111.769 136.724 111.769 136.384 111.99 136.384C112.21 136.384 112.21 136.724 111.99 136.724Z" fill="white"/>
<path d="M110.387 144.051C110.167 144.051 110.167 143.712 110.387 143.712C110.607 143.712 110.607 144.051 110.387 144.051Z" fill="white"/>
<path d="M120.032 150.946C119.812 150.946 119.812 150.607 120.032 150.607C120.252 150.607 120.252 150.946 120.032 150.946Z" fill="white"/>
<path d="M118.317 149.629C118.097 149.629 118.097 149.289 118.317 149.289C118.537 149.289 118.537 149.629 118.317 149.629Z" fill="white"/>
<path d="M112.019 153.425C111.799 153.425 111.799 153.086 112.019 153.086C112.24 153.086 112.24 153.425 112.019 153.425Z" fill="white"/>
<path d="M116.55 147.636C116.329 147.636 116.329 147.297 116.55 147.297C116.77 147.297 116.77 147.636 116.55 147.636Z" fill="white"/>
<path d="M120.768 135.351C120.548 135.351 120.548 135.011 120.768 135.011C120.989 135.011 120.989 135.351 120.768 135.351Z" fill="white"/>
<path d="M115.043 154.21C114.823 154.21 114.823 153.871 115.043 153.871C115.263 153.871 115.263 154.21 115.043 154.21Z" fill="white"/>
<path d="M108.849 153.888C108.629 153.888 108.629 153.549 108.849 153.549C109.07 153.549 109.07 153.888 108.849 153.888Z" fill="white"/>
<path d="M110.361 157.034C110.141 157.034 110.141 156.695 110.361 156.695C110.581 156.695 110.581 157.034 110.361 157.034Z" fill="white"/>
<path d="M112.678 156.297C112.457 156.297 112.457 155.958 112.678 155.958C112.898 155.958 112.898 156.297 112.678 156.297Z" fill="white"/>
<path d="M105.84 156.25C105.619 156.25 105.619 155.911 105.84 155.911C106.06 155.911 106.06 156.25 105.84 156.25Z" fill="white"/>
<path d="M102.891 152.737C102.891 152.737 102.935 152.737 102.95 152.752C102.979 152.752 102.994 152.766 103.023 152.781C103.067 152.796 103.082 152.854 103.067 152.899C103.053 152.943 103.023 152.972 102.979 152.972C102.935 152.972 102.891 152.972 102.847 152.943C102.788 152.943 102.759 152.869 102.774 152.81C102.788 152.752 102.847 152.722 102.906 152.737H102.891Z" fill="white"/>
<path d="M103.067 155.434C102.847 155.434 102.847 155.095 103.067 155.095C103.287 155.095 103.287 155.434 103.067 155.434Z" fill="white"/>
<path d="M107.455 151.645C107.235 151.645 107.235 151.306 107.455 151.306C107.675 151.306 107.675 151.645 107.455 151.645Z" fill="white"/>
<path d="M108.114 156.634C107.893 156.634 107.893 156.295 108.114 156.295C108.334 156.295 108.334 156.634 108.114 156.634Z" fill="white"/>
<path d="M98.8836 149.291C98.6634 149.291 98.6634 148.952 98.8836 148.952C99.1039 148.952 99.1039 149.291 98.8836 149.291Z" fill="white"/>
<path d="M96.6839 145.777C96.4637 145.777 96.4637 145.438 96.6839 145.438C96.9042 145.438 96.9042 145.777 96.6839 145.777Z" fill="white"/>
<path d="M99.4295 152.484C99.2093 152.484 99.2093 152.145 99.4295 152.145C99.6498 152.145 99.6498 152.484 99.4295 152.484Z" fill="white"/>
<path d="M96.5496 143.133C96.3294 143.133 96.3294 142.794 96.5496 142.794C96.7699 142.794 96.7699 143.133 96.5496 143.133Z" fill="white"/>
<path d="M103.639 142.748C103.419 142.748 103.419 142.409 103.639 142.409C103.86 142.409 103.86 142.748 103.639 142.748Z" fill="white"/>
<path d="M103.566 147.612C103.346 147.612 103.346 147.273 103.566 147.273C103.786 147.273 103.786 147.612 103.566 147.612Z" fill="white"/>
<path d="M97.9569 140.473C97.7366 140.473 97.7366 140.134 97.9569 140.134C98.1771 140.134 98.1771 140.473 97.9569 140.473Z" fill="white"/>
<path d="M97.7235 136.151C97.5032 136.151 97.5032 135.812 97.7235 135.812C97.9437 135.812 97.9437 136.151 97.7235 136.151Z" fill="white"/>
<path d="M101.058 133.491C100.838 133.491 100.838 133.152 101.058 133.152C101.278 133.152 101.278 133.491 101.058 133.491Z" fill="white"/>
<path d="M103.007 138.214C102.786 138.214 102.786 137.875 103.007 137.875C103.227 137.875 103.227 138.214 103.007 138.214Z" fill="white"/>
<path d="M106.97 141.76C106.749 141.76 106.749 141.421 106.97 141.421C107.19 141.421 107.19 141.76 106.97 141.76Z" fill="white"/>
<path d="M100.556 142.097C100.335 142.097 100.335 141.758 100.556 141.758C100.776 141.758 100.776 142.097 100.556 142.097Z" fill="white"/>
</g>
<path opacity="0.36" d="M109.132 157.787C100.921 157.787 94.2648 151.089 94.2648 142.826C94.2648 134.563 100.921 127.864 109.132 127.864C117.344 127.864 124 134.563 124 142.826C124 151.089 117.344 157.787 109.132 157.787Z" fill="url(#paint8_radial_20278_133431)"/>
<line y1="-0.25" x2="122.39" y2="-0.25" transform="matrix(3.90932e-08 -1 -1 -4.88752e-08 109.448 122.949)" stroke="#FFC439" stroke-width="0.5"/>
<defs>
<radialGradient id="paint0_radial_20278_133431" cx="0" cy="0" r="1" gradientUnits="userSpaceOnUse" gradientTransform="translate(69.9586 182.046) rotate(-149.061) scale(21.6565 21.7212)">
<stop offset="0.16" stop-color="#779BB0"/>
<stop offset="0.3" stop-color="#4B7B96"/>
<stop offset="0.7" stop-color="#003661"/>
<stop offset="0.97" stop-color="#779BB0"/>
</radialGradient>
<linearGradient id="paint1_linear_20278_133431" x1="69.5254" y1="181.516" x2="60.5881" y2="181.516" gradientUnits="userSpaceOnUse">
<stop stop-color="#F4BD6E"/>
<stop offset="0.07" stop-color="#E8A260"/>
<stop offset="0.13" stop-color="#FFD77C"/>
<stop offset="0.18" stop-color="#FED87F"/>
<stop offset="0.23" stop-color="#FEDC88"/>
<stop offset="0.27" stop-color="#FDE399"/>
<stop offset="0.29" stop-color="#FCEBAA"/>
<stop offset="0.34" stop-color="#FAE6A5"/>
<stop offset="0.38" stop-color="#F6D896"/>
<stop offset="0.44" stop-color="#F0C07F"/>
<stop offset="0.49" stop-color="#E8A260"/>
<stop offset="0.74" stop-color="#FFD77C"/>
<stop offset="0.83" stop-color="#E8A260"/>
<stop offset="0.92" stop-color="#FFD77C"/>
<stop offset="0.95" stop-color="#FDD37B"/>
<stop offset="0.97" stop-color="#F6CA78"/>
<stop offset="0.99" stop-color="#ECB973"/>
<stop offset="1" stop-color="#E8B271"/>
</linearGradient>
<linearGradient id="paint2_linear_20278_133431" x1="79.0551" y1="181.531" x2="69.4394" y2="181.531" gradientUnits="userSpaceOnUse">
<stop stop-color="#F4BD6E"/>
<stop offset="0.07" stop-color="#E8A260"/>
<stop offset="0.13" stop-color="#FFD77C"/>
<stop offset="0.18" stop-color="#FED87F"/>
<stop offset="0.23" stop-color="#FEDC88"/>
<stop offset="0.27" stop-color="#FDE399"/>
<stop offset="0.29" stop-color="#FCEBAA"/>
<stop offset="0.34" stop-color="#FAE6A5"/>
<stop offset="0.38" stop-color="#F6D896"/>
<stop offset="0.44" stop-color="#F0C07F"/>
<stop offset="0.49" stop-color="#E8A260"/>
<stop offset="0.74" stop-color="#FFD77C"/>
<stop offset="0.83" stop-color="#E8A260"/>
<stop offset="0.92" stop-color="#FFD77C"/>
<stop offset="0.95" stop-color="#FDD37B"/>
<stop offset="0.97" stop-color="#F6CA78"/>
<stop offset="0.99" stop-color="#ECB973"/>
<stop offset="1" stop-color="#E8B271"/>
</linearGradient>
<linearGradient id="paint3_linear_20278_133431" x1="84.8198" y1="181.635" x2="69.6588" y2="181.635" gradientUnits="userSpaceOnUse">
<stop stop-color="#F4BD6E"/>
<stop offset="0.07" stop-color="#E8A260"/>
<stop offset="0.13" stop-color="#FFD77C"/>
<stop offset="0.18" stop-color="#FED87F"/>
<stop offset="0.23" stop-color="#FEDC88"/>
<stop offset="0.27" stop-color="#FDE399"/>
<stop offset="0.29" stop-color="#FCEBAA"/>
<stop offset="0.34" stop-color="#FAE6A5"/>
<stop offset="0.38" stop-color="#F6D896"/>
<stop offset="0.44" stop-color="#F0C07F"/>
<stop offset="0.49" stop-color="#E8A260"/>
<stop offset="0.74" stop-color="#FFD77C"/>
<stop offset="0.83" stop-color="#E8A260"/>
<stop offset="0.92" stop-color="#FFD77C"/>
<stop offset="0.95" stop-color="#FDD37B"/>
<stop offset="0.97" stop-color="#F6CA78"/>
<stop offset="0.99" stop-color="#ECB973"/>
<stop offset="1" stop-color="#E8B271"/>
</linearGradient>
<linearGradient id="paint4_linear_20278_133431" x1="69.3207" y1="181.457" x2="56.5636" y2="181.457" gradientUnits="userSpaceOnUse">
<stop stop-color="#F4BD6E"/>
<stop offset="0.07" stop-color="#E8A260"/>
<stop offset="0.13" stop-color="#FFD77C"/>
<stop offset="0.18" stop-color="#FED87F"/>
<stop offset="0.23" stop-color="#FEDC88"/>
<stop offset="0.27" stop-color="#FDE399"/>
<stop offset="0.29" stop-color="#FCEBAA"/>
<stop offset="0.34" stop-color="#FAE6A5"/>
<stop offset="0.38" stop-color="#F6D896"/>
<stop offset="0.44" stop-color="#F0C07F"/>
<stop offset="0.49" stop-color="#E8A260"/>
<stop offset="0.74" stop-color="#FFD77C"/>
<stop offset="0.83" stop-color="#E8A260"/>
<stop offset="0.92" stop-color="#FFD77C"/>
<stop offset="0.95" stop-color="#FDD37B"/>
<stop offset="0.97" stop-color="#F6CA78"/>
<stop offset="0.99" stop-color="#ECB973"/>
<stop offset="1" stop-color="#E8B271"/>
</linearGradient>
<linearGradient id="paint5_linear_20278_133431" x1="70.7188" y1="181.234" x2="68.0199" y2="181.234" gradientUnits="userSpaceOnUse">
<stop stop-color="#F4BD6E"/>
<stop offset="0.07" stop-color="#E8A260"/>
<stop offset="0.13" stop-color="#FFD77C"/>
<stop offset="0.18" stop-color="#FED87F"/>
<stop offset="0.23" stop-color="#FEDC88"/>
<stop offset="0.27" stop-color="#FDE399"/>
<stop offset="0.29" stop-color="#FCEBAA"/>
<stop offset="0.34" stop-color="#FAE6A5"/>
<stop offset="0.38" stop-color="#F6D896"/>
<stop offset="0.44" stop-color="#F0C07F"/>
<stop offset="0.49" stop-color="#E8A260"/>
<stop offset="0.74" stop-color="#FFD77C"/>
<stop offset="0.83" stop-color="#E8A260"/>
<stop offset="0.92" stop-color="#FFD77C"/>
<stop offset="0.95" stop-color="#FDD37B"/>
<stop offset="0.97" stop-color="#F6CA78"/>
<stop offset="0.99" stop-color="#ECB973"/>
<stop offset="1" stop-color="#E8B271"/>
</linearGradient>
<radialGradient id="paint6_radial_20278_133431" cx="0" cy="0" r="1" gradientUnits="userSpaceOnUse" gradientTransform="translate(69.9586 182.046) rotate(-149.061) scale(21.6565 21.7212)">
<stop offset="0.55" stop-color="#003661" stop-opacity="0.1"/>
<stop offset="0.77" stop-color="#003661"/>
<stop offset="1" stop-color="#003661" stop-opacity="0.1"/>
</radialGradient>
<radialGradient id="paint7_radial_20278_133431" cx="0" cy="0" r="1" gradientUnits="userSpaceOnUse" gradientTransform="translate(110.411 143.943) rotate(-30.3371) scale(21.6829 21.7503)">
<stop offset="0.09" stop-color="#FCB1B9"/>
<stop offset="0.26" stop-color="#F88C97"/>
<stop offset="0.42" stop-color="#EF6271"/>
<stop offset="0.68" stop-color="#FF4F63"/>
<stop offset="0.7" stop-color="#FF465C"/>
<stop offset="0.752011" stop-color="#F95063"/>
<stop offset="0.78" stop-color="#FF2F47"/>
<stop offset="0.81" stop-color="#FF374E"/>
<stop offset="0.875" stop-color="#F84B5F"/>
</radialGradient>
<radialGradient id="paint8_radial_20278_133431" cx="0" cy="0" r="1" gradientUnits="userSpaceOnUse" gradientTransform="translate(110.411 143.943) rotate(-30.3371) scale(21.6829 21.7503)">
<stop offset="0.49" stop-color="#FF1934"/>
<stop offset="0.77" stop-color="#BA0419"/>
<stop offset="0.94" stop-color="#EB001B"/>
</radialGradient>
<clipPath id="clip0_20278_133431">
<rect width="31.6198" height="38.0975" fill="white" transform="matrix(-1 0 0 1 86.8838 159.358)"/>
</clipPath>
</defs>
</svg>
