<svg width="124" height="300" viewBox="0 0 124 300" fill="none" xmlns="http://www.w3.org/2000/svg">
<g clip-path="url(#clip0_20278_133271)">
<path d="M54.7968 163.173C54.7968 163.173 55.136 160.145 52.9533 159.863C50.7706 159.581 50.9623 163.084 50.9623 163.084" stroke="#FFC439" stroke-width="0.66" stroke-miterlimit="10"/>
<path d="M56.0377 164.721C56.0764 165.025 56.1044 165.323 56.1239 165.563L49.5417 165.525C49.5572 165.314 49.5833 165.058 49.6272 164.792C49.6812 164.465 49.7592 164.142 49.868 163.876C49.9811 163.6 50.1018 163.45 50.2014 163.387L50.2014 163.387L50.2043 163.385C51.9402 162.27 54.3079 162.392 55.7352 163.381C55.7408 163.391 55.7495 163.407 55.7607 163.431C55.793 163.502 55.8284 163.606 55.864 163.744C55.935 164.018 55.9927 164.367 56.0377 164.721Z" fill="#FFC439" stroke="#FFC439"/>
<path d="M52.9261 197.248C61.6577 197.248 68.736 190.125 68.736 181.338C68.736 172.552 61.6577 165.428 52.9261 165.428C44.1945 165.428 37.1162 172.552 37.1162 181.338C37.1162 190.125 44.1945 197.248 52.9261 197.248Z" fill="url(#paint0_radial_20278_133271)"/>
<g style="mix-blend-mode:color-dodge" opacity="0.46">
<path d="M55.5659 165.859C66.037 173.116 65.7126 190.852 54.3566 196.966C54.0616 197.129 54.3271 197.575 54.6221 197.426C66.5385 191.341 66.4057 172.968 55.7134 165.607C55.5512 165.503 55.4037 165.755 55.5659 165.859Z" fill="url(#paint1_linear_20278_133271)"/>
<path d="M49.1923 165.725C40.373 174.511 45.0481 191.193 54.4426 197.367C54.6639 197.515 54.8556 197.159 54.6491 197.011C45.6823 190.777 40.8302 174.764 49.4578 165.992C49.62 165.829 49.3693 165.562 49.1923 165.725Z" fill="url(#paint2_linear_20278_133271)"/>
<path d="M48.8844 166.007C42.351 168.961 38.0446 175.194 39.3129 182.54C40.5813 189.887 46.4215 197.233 54.3264 197.293C54.5034 197.293 54.5034 197.011 54.3264 197.011C45.8316 196.744 39.3424 188.121 39.3572 179.884C39.3719 173.606 43.5604 168.738 49.0171 166.26C49.1794 166.185 49.0466 165.933 48.8697 166.007H48.8844Z" fill="url(#paint3_linear_20278_133271)"/>
<path d="M56.5376 165.918C71.4626 170.46 69.8255 194.072 54.6498 197.025C54.4728 197.055 54.5466 197.337 54.7235 197.307C70.2827 194.666 71.846 170.237 56.6113 165.651C56.4343 165.592 56.3606 165.874 56.5376 165.933V165.918Z" fill="url(#paint4_linear_20278_133271)"/>
<path d="M53.1338 165.517C56.8798 175.357 56.2751 186.785 54.4316 196.996C54.4021 197.174 54.6528 197.248 54.697 197.07C56.9977 187.037 57.1452 175.12 53.4582 165.428C53.3845 165.221 53.0453 165.31 53.1338 165.517Z" fill="url(#paint5_linear_20278_133271)"/>
</g>
<path opacity="0.65" d="M52.9261 197.248C61.6577 197.248 68.736 190.125 68.736 181.338C68.736 172.552 61.6577 165.428 52.9261 165.428C44.1945 165.428 37.1162 172.552 37.1162 181.338C37.1162 190.125 44.1945 197.248 52.9261 197.248Z" fill="url(#paint6_radial_20278_133271)"/>
</g>
<line x1="53.0898" y1="159.358" x2="53.0898" y2="0.556885" stroke="#FFC439" stroke-width="0.5"/>
<path d="M78.2409 300H74.7397L75.0908 292.898H77.8991L78.2409 300Z" fill="#FC1414"/>
<path d="M97.2423 289.207C95.3947 287.831 93.5563 286.409 91.8935 284.763C90.8126 283.703 89.8057 282.551 88.9281 281.296C88.0505 280.041 87.3207 278.683 86.8311 277.233L86.3692 276.108L87.3946 276.768C88.1983 277.289 89.0112 277.782 89.8519 278.218C90.2676 278.442 90.7018 278.646 91.136 278.832C91.5701 279.018 92.0136 279.185 92.457 279.334C92.9096 279.474 93.3531 279.613 93.815 279.715C94.2769 279.827 94.7388 279.92 95.2099 279.994C96.1429 280.152 97.0945 280.245 98.046 280.329L97.815 281.045L95.9951 279.845C95.6903 279.65 95.4039 279.427 95.1083 279.213L94.2307 278.572C93.6395 278.144 93.0944 277.67 92.5217 277.214C91.9489 276.759 91.4223 276.257 90.8773 275.774C90.6002 275.541 90.3507 275.272 90.0828 275.021L89.2976 274.258C89.0389 274.007 88.7895 273.738 88.5308 273.477L87.7733 272.696C86.7849 271.637 85.8056 270.558 84.8449 269.48L84.0781 268.718L85.1867 268.838C86.6463 268.996 88.1059 269.238 89.5101 269.266C90.2122 269.285 90.8958 269.238 91.5701 269.117C91.9027 269.052 92.2353 268.978 92.5678 268.885C92.8912 268.792 93.2145 268.671 93.5378 268.56L93.3808 270.112C92.2076 269.387 91.0436 268.634 89.9165 267.816C89.6302 267.621 89.3623 267.398 89.0759 267.193C88.7987 266.988 88.5308 266.756 88.2537 266.542C87.7179 266.096 87.1913 265.641 86.6832 265.166C86.1752 264.683 85.6855 264.19 85.2144 263.679C84.9835 263.419 84.7433 263.168 84.5216 262.907C84.2998 262.647 84.0689 262.387 83.8472 262.117C82.9696 261.048 82.1474 259.942 81.3437 258.826L80.6601 257.906L81.7502 258.222C82.443 258.427 83.1359 258.612 83.8287 258.77C84.1797 258.854 84.5308 258.91 84.8726 258.984C85.2236 259.04 85.5747 259.087 85.9257 259.133L86.4615 259.17C86.6371 259.18 86.8126 259.198 86.9973 259.198H87.5331C87.7087 259.198 87.8934 259.207 88.0689 259.198L88.6047 259.17C88.7803 259.161 88.965 259.152 89.1405 259.133L90.2122 259.012L90.129 259.449L89.353 259.003C89.0944 258.854 88.8357 258.705 88.5863 258.547C88.0874 258.231 87.5701 257.925 87.0805 257.581C86.5816 257.255 86.092 256.911 85.6209 256.558C85.3807 256.381 85.1405 256.205 84.9095 256.019C84.6786 255.833 84.4384 255.656 84.2075 255.47C83.7456 255.098 83.2837 254.717 82.831 254.318C82.3783 253.927 81.9349 253.527 81.51 253.109C81.0758 252.7 80.6601 252.272 80.2444 251.835C79.8379 251.389 79.4407 250.952 79.0527 250.46L78.1843 249.316L79.5053 249.865C80.4661 250.264 81.3991 250.711 82.3414 251.017C82.8125 251.166 83.2929 251.278 83.764 251.315C84.0042 251.333 84.2444 251.333 84.4846 251.315C84.7248 251.296 84.965 251.268 85.1959 251.222L85.0296 251.91C83.958 251.064 83.0619 250.069 82.2213 249.037C81.3899 248.005 80.6231 246.918 79.8933 245.811C79.1635 244.705 78.4707 243.58 77.8148 242.437C77.1496 241.293 76.5215 240.141 75.9117 238.951H77.0573C76.4475 240.141 75.8009 241.284 75.1358 242.427C74.4706 243.562 73.7685 244.686 73.0295 245.783C72.2904 246.88 71.5145 247.959 70.683 248.981C69.8424 250.004 68.9371 250.989 67.8747 251.817L67.6992 251.343C68.2073 251.315 68.7153 251.287 69.2142 251.25C69.4636 251.231 69.713 251.194 69.9625 251.166C70.2119 251.138 70.4613 251.092 70.7015 251.045C70.9509 251.008 71.1911 250.934 71.4313 250.878C71.5514 250.85 71.6715 250.803 71.7916 250.766L72.1519 250.645L72.854 250.367L73.5376 250.05L74.2581 249.669L73.7778 250.339C73.4175 250.831 73.048 251.287 72.66 251.752C72.272 252.207 71.8747 252.653 71.459 253.081C71.0526 253.518 70.6184 253.936 70.1934 254.355C69.7592 254.773 69.3158 255.173 68.8724 255.563C68.6507 255.758 68.4197 255.954 68.1888 256.149C67.9578 256.344 67.7269 256.539 67.4959 256.716C67.0248 257.088 66.5537 257.46 66.0733 257.813C65.5929 258.176 65.0941 258.51 64.6044 258.854C64.3643 259.031 64.1056 259.18 63.8469 259.347L63.0894 259.83L62.8307 258.585C64.2534 258.789 65.676 258.956 67.0802 258.947C67.7823 258.947 68.4844 258.882 69.168 258.77C69.8609 258.659 70.5445 258.473 71.2096 258.25L72.5399 257.776L71.6438 258.854L70.9417 259.7L70.2211 260.518L69.4729 261.318L68.6969 262.089C68.1703 262.591 67.6253 263.084 67.071 263.549C66.5167 264.014 65.9439 264.469 65.362 264.906C64.198 265.78 63.0063 266.598 61.7961 267.388C60.5859 268.178 59.3665 268.95 58.1471 269.722L58.0639 269.024C58.4057 269.136 58.7476 269.238 59.0894 269.331C59.4312 269.415 59.7822 269.489 60.1333 269.536C60.4843 269.582 60.8353 269.619 61.1864 269.629C61.5374 269.638 61.8977 269.629 62.2488 269.619C63.6714 269.536 65.0941 269.21 66.5167 268.876L67.4128 268.643L66.9417 269.443C66.7661 269.74 66.5906 270.047 66.4058 270.344C66.2119 270.633 66.0363 270.939 65.8331 271.218C65.4359 271.795 65.0202 272.352 64.5767 272.892C64.1425 273.44 63.6714 273.961 63.2003 274.463C62.7291 274.974 62.2395 275.467 61.7314 275.95C61.2326 276.434 60.7245 276.898 60.1979 277.354C59.6806 277.809 59.154 278.265 58.6182 278.702C57.5559 279.585 56.475 280.44 55.3849 281.277L54.8768 280.041C56.7706 279.79 58.6459 279.52 60.4473 279.018C61.3527 278.767 62.2303 278.451 63.0894 278.07C63.9485 277.689 64.7892 277.252 65.6021 276.768L67.0063 275.913L66.1379 277.307C65.7407 277.94 65.3435 278.562 64.9278 279.176C64.5028 279.79 64.0686 280.385 63.6067 280.97C63.1448 281.556 62.6645 282.123 62.1748 282.681C61.6668 283.229 61.1587 283.759 60.6229 284.28C60.355 284.531 60.0871 284.791 59.8099 285.033C59.5328 285.274 59.2556 285.525 58.9785 285.767C58.415 286.251 57.8422 286.715 57.2602 287.171C56.1055 288.082 54.923 288.965 53.7406 289.839L53.6759 289.17C54.5443 289.523 55.4773 289.82 56.4011 290.081C57.3249 290.35 58.2672 290.573 59.2095 290.787C60.1517 290.992 61.1032 291.178 62.0548 291.336C63.0063 291.503 63.967 291.633 64.9278 291.763C65.8885 291.875 66.8493 291.996 67.81 292.061C68.7708 292.154 69.7408 292.2 70.7015 292.256C71.6715 292.312 72.6323 292.321 73.6022 292.358H76.4937L79.4129 292.265C80.3737 292.2 81.3344 292.163 82.2952 292.079C83.2559 291.996 84.2167 291.921 85.1774 291.791C86.1382 291.689 87.0897 291.55 88.0412 291.401C88.9927 291.243 89.9443 291.085 90.8773 290.889C91.8196 290.704 92.7526 290.49 93.6856 290.257C94.6094 290.016 95.5332 289.765 96.4386 289.467C96.7065 289.383 96.9836 289.281 97.2515 289.188L97.2423 289.207ZM99.9398 290.527C98.9328 290.945 98.009 291.224 97.0298 291.512C96.069 291.791 95.0991 292.024 94.1291 292.247C93.1591 292.461 92.1891 292.656 91.2099 292.814C90.2306 292.99 89.2514 293.121 88.2722 293.251C87.2929 293.372 86.3137 293.483 85.3253 293.558C84.346 293.66 83.3576 293.697 82.3783 293.762C81.3991 293.818 80.4014 293.827 79.4129 293.864H76.4845L73.5283 293.771C72.5491 293.706 71.5699 293.669 70.5907 293.585C69.6114 293.492 68.6322 293.418 67.653 293.297C66.6738 293.195 65.7038 293.046 64.7338 292.907C63.7638 292.749 62.7938 292.591 61.833 292.386C60.8723 292.2 59.9115 291.977 58.9508 291.735C57.9993 291.494 57.0478 291.233 56.1147 290.927C55.1725 290.629 54.2487 290.304 53.3249 289.895L52.7059 289.625L53.2509 289.235C54.4334 288.361 55.6066 287.487 56.7521 286.585C57.3249 286.13 57.8884 285.674 58.4427 285.2C58.7198 284.968 58.9877 284.726 59.2649 284.484C59.542 284.243 59.8007 283.992 60.0593 283.741C60.5859 283.239 61.0848 282.718 61.5744 282.188C62.0548 281.649 62.5259 281.091 62.9786 280.524C63.422 279.948 63.8562 279.362 64.2626 278.767C64.6783 278.163 65.0663 277.549 65.4543 276.936L65.9901 277.465C65.1772 278.005 64.3365 278.507 63.4589 278.953C62.5813 279.399 61.6668 279.771 60.743 280.087C58.8769 280.719 56.9554 281.091 55.0616 281.444L52.3271 281.956L54.5443 280.208C55.6528 279.418 56.7521 278.609 57.833 277.782C58.3688 277.373 58.9046 276.945 59.4312 276.517C59.9577 276.09 60.4751 275.643 60.9739 275.197C61.482 274.751 61.9716 274.286 62.452 273.812C62.9324 273.338 63.4035 272.845 63.8377 272.334C64.2903 271.832 64.7061 271.302 65.1125 270.763C65.325 270.493 65.5005 270.214 65.6945 269.935C65.8793 269.657 66.0548 269.368 66.2396 269.089L66.6645 269.666C65.2326 270.001 63.773 270.344 62.2672 270.437C61.8885 270.465 61.5097 270.465 61.131 270.456C60.7522 270.437 60.3734 270.4 59.9947 270.354C59.6159 270.298 59.2464 270.224 58.8769 270.131C58.5074 270.038 58.1471 269.926 57.7868 269.805L57.02 269.545L57.7129 269.108C58.9323 268.336 60.1425 267.565 61.3434 266.784C62.5444 265.994 63.7268 265.185 64.8723 264.33C65.4451 263.902 65.9994 263.456 66.5444 263C67.0895 262.545 67.616 262.061 68.1334 261.569L68.8909 260.816L69.6207 260.035L70.332 259.235L71.0156 258.408L71.4498 259.012C70.7569 259.3 70.0456 259.533 69.3158 259.709C68.586 259.886 67.8377 259.988 67.0895 260.044C65.5929 260.156 64.1056 260.072 62.646 259.96L60.6691 259.812L62.3873 258.715L63.1541 258.296C63.4127 258.157 63.6714 258.017 63.9208 257.869C64.4197 257.571 64.9278 257.283 65.4174 256.958C65.9162 256.651 66.3966 256.326 66.877 255.982C67.1172 255.814 67.3574 255.647 67.5883 255.47C67.8193 255.294 68.0595 255.126 68.2904 254.95C68.7523 254.587 69.2142 254.234 69.6669 253.853C70.1195 253.481 70.5629 253.09 70.9879 252.691C71.4221 252.3 71.847 251.882 72.2535 251.464C72.66 251.045 73.0664 250.608 73.436 250.162L73.6761 250.45L72.9833 250.794L72.2627 251.101L71.8932 251.231C71.7731 251.268 71.653 251.324 71.5237 251.352C71.2743 251.417 71.0248 251.501 70.7662 251.547C70.5075 251.594 70.2581 251.659 69.9994 251.687C69.7408 251.724 69.4821 251.77 69.2327 251.789C68.7153 251.845 68.2073 251.882 67.6899 251.919L66.8955 251.984L67.5144 251.445C68.4844 250.618 69.3158 249.614 70.0918 248.582C70.8678 247.54 71.5699 246.453 72.2443 245.337C72.9186 244.222 73.5561 243.087 74.1565 241.935C74.7662 240.782 75.3482 239.611 75.884 238.439L76.4198 237.268L77.0203 238.439C77.5653 239.611 78.1566 240.773 78.7755 241.916C79.3945 243.06 80.0319 244.194 80.7155 245.3C81.3991 246.406 82.1104 247.485 82.8957 248.517C83.6717 249.539 84.5123 250.534 85.4731 251.343L86.1382 251.9L85.316 252.031C85.0481 252.086 84.771 252.124 84.4938 252.142C84.2167 252.161 83.9396 252.151 83.6624 252.142C83.1081 252.096 82.5723 251.975 82.0642 251.807C81.0388 251.473 80.1058 251.027 79.1635 250.627L79.6162 250.032C79.958 250.478 80.346 250.934 80.734 251.371C81.122 251.807 81.5284 252.235 81.9442 252.644C82.3599 253.063 82.7848 253.462 83.219 253.862C83.6532 254.262 84.0966 254.643 84.5493 255.024C84.771 255.219 85.0019 255.396 85.2329 255.582C85.4638 255.768 85.6948 255.954 85.9257 256.13C86.3876 256.493 86.868 256.837 87.3484 257.171C87.8195 257.515 88.3184 257.832 88.808 258.157C89.0482 258.324 89.3068 258.464 89.5563 258.622L90.3138 259.077L90.905 259.44L90.2399 259.523L89.1498 259.682C88.965 259.709 88.7803 259.719 88.6047 259.737L88.0597 259.793C87.8749 259.812 87.6902 259.812 87.5054 259.821L86.9511 259.84C86.7664 259.84 86.5816 259.83 86.3969 259.83L85.8426 259.812C85.4731 259.774 85.1035 259.737 84.7433 259.7C84.383 259.635 84.0135 259.589 83.6532 259.514C82.9326 259.375 82.2213 259.207 81.51 259.021L81.9164 258.417C82.7663 259.477 83.6347 260.518 84.5585 261.513C84.7802 261.764 85.0204 262.006 85.2514 262.247C85.4823 262.489 85.7317 262.721 85.9627 262.954C86.4431 263.419 86.9419 263.865 87.45 264.302C87.9673 264.729 88.4846 265.138 89.0297 265.538C89.3068 265.733 89.5655 265.929 89.8519 266.115C90.129 266.301 90.4062 266.496 90.6925 266.672C91.8196 267.398 92.9836 268.067 94.1753 268.699L95.8935 269.629L94.0182 270.252C93.6395 270.354 93.2607 270.437 92.8727 270.512C92.4847 270.577 92.0967 270.633 91.7087 270.661C90.9235 270.716 90.1383 270.688 89.3807 270.586C87.8657 270.391 86.4523 270.001 85.0296 269.684L85.3807 269.043C86.3414 270.121 87.3114 271.19 88.2907 272.241L89.0389 273.013C89.2884 273.273 89.5378 273.533 89.7964 273.784L90.5724 274.528C90.8311 274.779 91.0805 275.03 91.3577 275.262C91.9027 275.727 92.42 276.229 92.9743 276.675C93.5378 277.122 94.0736 277.586 94.6556 278.005L95.524 278.637C95.8196 278.841 96.0968 279.064 96.4016 279.26L98.1938 280.44L99.4686 281.277L97.9628 281.156C96.9928 281.082 96.0229 280.98 95.0621 280.812C94.5817 280.738 94.1013 280.636 93.621 280.524C93.1406 280.412 92.6695 280.273 92.1983 280.124C91.7272 279.966 91.2653 279.79 90.8126 279.594C90.36 279.399 89.9165 279.185 89.4824 278.962C88.614 278.507 87.7733 278.005 86.9604 277.475L87.5331 277.01C88.1059 278.339 88.8911 279.557 89.8057 280.663C90.7202 281.779 91.7641 282.783 92.8727 283.713C93.9813 284.642 95.1545 285.498 96.3647 286.306C97.5748 287.115 98.8127 287.887 100.078 288.649L101.917 289.755L99.9305 290.564L99.9398 290.527Z" fill="#FC1414"/>
<path d="M64.474 289.43L63.2176 288.909L62.0721 289.653L62.183 288.287L61.1206 287.422L62.4416 287.106L62.9313 285.823L63.6426 286.994L65.0098 287.069L64.123 288.11L64.474 289.43Z" fill="#FC1414"/>
<path d="M88.9642 289.43L87.7079 288.909L86.5624 289.653L86.6732 288.287L85.6108 287.422L86.9411 287.106L87.4307 285.823L88.1421 286.994L89.5 287.069L88.6132 288.11L88.9642 289.43Z" fill="#FC1414"/>
<path d="M76.1517 288.872L74.8954 288.342L73.7499 289.086L73.8607 287.719L72.7983 286.855L74.1194 286.539L74.609 285.265L75.3203 286.427L76.6875 286.501L75.8007 287.543L76.1517 288.872Z" fill="#FC1414"/>
<path d="M75.4101 275.179L74.1537 274.649L73.0082 275.392L73.119 274.026L72.0659 273.161L73.387 272.845L73.8766 271.572L74.5879 272.734L75.9459 272.808L75.059 273.849L75.4101 275.179Z" fill="#FC1414"/>
<path d="M76.9159 261.141L75.6595 260.62L74.514 261.364L74.6249 259.998L73.5625 259.133L74.8928 258.817L75.3824 257.534L76.0845 258.705L77.4517 258.78L76.5648 259.821L76.9159 261.141Z" fill="#FC1414"/>
<path d="M78.3515 269.229L77.4462 268.848L76.624 269.387L76.6979 268.401L75.9404 267.779L76.8919 267.546L77.243 266.626L77.7603 267.472L78.7395 267.528L78.1021 268.271L78.3515 269.229Z" fill="#FC1414"/>
<path d="M68.2597 282.281L67.3544 281.9L66.5322 282.439L66.6154 281.454L65.8486 280.831L66.8001 280.598L67.1604 279.678L67.6685 280.524L68.6477 280.57L68.0103 281.323L68.2597 282.281Z" fill="#FC1414"/>
<path d="M80.1987 283.378L79.2934 282.997L78.4712 283.536L78.5544 282.551L77.7876 281.928L78.7391 281.695L79.0994 280.775L79.6075 281.621L80.5867 281.677L79.9493 282.42L80.1987 283.378Z" fill="#FC1414"/>
<path d="M81.602 256.27L80.6967 255.898L79.8653 256.428L79.9484 255.442L79.1909 254.829L80.1424 254.596L80.4935 253.676L81.0016 254.513L81.9808 254.568L81.3434 255.321L81.602 256.27Z" fill="#FC1414"/>
<path d="M82.5351 274.946L81.2787 274.426L80.1332 275.169L80.2441 273.803L79.1909 272.938L80.512 272.622L81.0016 271.339L81.7129 272.511L83.0709 272.585L82.184 273.626L82.5351 274.946Z" fill="#FC1414"/>
<path d="M72.0282 266.701L70.7626 266.18L69.6263 266.924L69.7279 265.557L68.6748 264.692L69.9958 264.376L70.4855 263.094L71.1968 264.265L72.5548 264.339L71.6772 265.38L72.0282 266.701Z" fill="#FC1414"/>
<path d="M78.6542 248.712L77.3978 248.191L76.2523 248.935L76.3632 247.568L75.3008 246.704L76.6218 246.388L77.1207 245.105L77.8228 246.276L79.19 246.35L78.3031 247.392L78.6542 248.712Z" fill="#FC1414"/>
<path d="M84.5289 280.682L83.9839 280.45L83.485 280.775L83.5312 280.18L83.0693 279.808L83.6513 279.669L83.8638 279.111L84.1687 279.622L84.7599 279.65L84.3811 280.106L84.5289 280.682Z" fill="#FC1414"/>
<path d="M81.1964 291.14L80.6514 290.908L80.1525 291.233L80.1987 290.638L79.7368 290.257L80.3188 290.118L80.5313 289.56L80.8361 290.071L81.4366 290.108L81.0486 290.564L81.1964 291.14Z" fill="#FC1414"/>
<path d="M69.2614 291.14L68.7163 290.908L68.2175 291.233L68.2637 290.638L67.8018 290.257L68.3838 290.118L68.5962 289.56L68.9011 290.071L69.5015 290.108L69.1136 290.564L69.2614 291.14Z" fill="#FC1414"/>
<path d="M66.4703 275.058L65.9161 274.825L65.4172 275.151L65.4634 274.556L65.0107 274.175L65.5835 274.035L65.796 273.477L66.1101 273.989L66.7013 274.026L66.3133 274.481L66.4703 275.058Z" fill="#FC1414"/>
<path d="M82.8375 266.347L82.2833 266.115L81.7844 266.44L81.8398 265.845L81.3779 265.473L81.9507 265.334L82.1632 264.776L82.4772 265.287L83.0685 265.315L82.6805 265.771L82.8375 266.347Z" fill="#FC1414"/>
<path d="M73.7789 255.526L73.2247 255.303L72.7258 255.628L72.772 255.024L72.3193 254.652L72.8921 254.513L73.1046 253.955L73.4187 254.466L74.0099 254.494L73.6219 254.95L73.7789 255.526Z" fill="#FC1414"/>
<path d="M77.1036 243.562L76.5586 243.329L76.0598 243.655L76.1059 243.06L75.644 242.688L76.226 242.548L76.4385 241.99L76.7434 242.502L77.3346 242.53L76.9558 242.985L77.1036 243.562Z" fill="#FC1414"/>
<path d="M69.1032 258.036L68.7244 257.878L68.3918 258.101L68.4196 257.692L68.1055 257.432L68.5027 257.339L68.6505 256.958L68.8537 257.311L69.2602 257.33L69.0016 257.636L69.1032 258.036Z" fill="#FC1414"/>
<path d="M84.9074 258.045L84.5379 257.887L84.1961 258.11L84.233 257.701L83.9189 257.441L84.3069 257.348L84.4547 256.967L84.6672 257.32L85.0737 257.339L84.8058 257.646L84.9074 258.045Z" fill="#FC1414"/>
<path d="M77.0275 251.947L76.6487 251.789L76.3069 252.012L76.3439 251.603L76.0298 251.343L76.4178 251.25L76.5656 250.869L76.7781 251.222L77.1845 251.24L76.9166 251.547L77.0275 251.947Z" fill="#FC1414"/>
<path d="M64.3166 268.271L63.947 268.113L63.6052 268.336L63.6329 267.927L63.3188 267.667L63.7161 267.574L63.8639 267.193L64.0671 267.546L64.4736 267.565L64.2149 267.872L64.3166 268.271Z" fill="#FC1414"/>
<path d="M86.6085 267.128L86.239 266.979L85.8972 267.193L85.9249 266.793L85.6108 266.533L86.0081 266.44L86.1559 266.059L86.3684 266.403L86.7656 266.431L86.5069 266.737L86.6085 267.128Z" fill="#FC1414"/>
<path d="M71.8825 269.889L71.5129 269.731L71.1711 269.954L71.1989 269.545L70.8848 269.294L71.282 269.201L71.4298 268.82L71.6423 269.164L72.0395 269.182L71.7809 269.498L71.8825 269.889Z" fill="#FC1414"/>
<path d="M76.2624 278.823L75.8929 278.665L75.5511 278.888L75.588 278.479L75.2739 278.218L75.6619 278.126L75.8097 277.744L76.0222 278.098L76.4194 278.116L76.1608 278.423L76.2624 278.823Z" fill="#FC1414"/>
<path d="M80.1794 262.433L79.8099 262.275L79.4681 262.498L79.505 262.099L79.1909 261.838L79.5789 261.745L79.7267 261.364L79.9392 261.708L80.3364 261.736L80.0778 262.043L80.1794 262.433Z" fill="#FC1414"/>
<path d="M77.6007 255.861L77.2312 255.703L76.8894 255.926L76.9171 255.517L76.603 255.266L77.0003 255.173L77.1481 254.792L77.3513 255.135L77.7578 255.163L77.4991 255.47L77.6007 255.861Z" fill="#FC1414"/>
<path d="M90.4894 277.679L90.1199 277.53L89.7781 277.744L89.8151 277.345L89.501 277.084L89.889 276.991L90.0368 276.61L90.2493 276.954L90.6557 276.982L90.3878 277.289L90.4894 277.679Z" fill="#FC1414"/>
<path d="M93.175 289.337L92.8055 289.179L92.4637 289.402L92.5006 288.993L92.1865 288.733L92.5745 288.64L92.7223 288.259L92.9348 288.612L93.3413 288.631L93.0734 288.937L93.175 289.337Z" fill="#FC1414"/>
<path d="M73.2141 248.87L72.8445 248.712L72.5027 248.935L72.5397 248.526L72.2256 248.265L72.6136 248.173L72.7614 247.791L72.9739 248.145L73.3803 248.163L73.1124 248.47L73.2141 248.87Z" fill="#FC1414"/>
<path d="M72.0753 282.634L71.5303 282.402L71.0314 282.727L71.0776 282.132L70.6157 281.751L71.1977 281.612L71.4102 281.054L71.715 281.565L72.3155 281.602L71.9275 282.049L72.0753 282.634Z" fill="#FC1414"/>
<path d="M76.7442 0.000732422H76.0806V239.11H76.7442V0.000732422Z" fill="#FC1414"/>
<path d="M16.479 125.483C16.479 125.483 16.7432 122.676 14.7178 122.44C12.6924 122.204 12.9273 125.453 12.9273 125.453" stroke="#FFC439" stroke-width="0.33" stroke-miterlimit="10"/>
<path d="M17.2287 125.923L17.232 125.925C17.318 125.978 17.4299 126.111 17.5385 126.367C17.6427 126.612 17.7193 126.913 17.7737 127.219C17.8156 127.454 17.8425 127.682 17.8596 127.873L11.714 127.974C11.7302 127.754 11.7535 127.488 11.7856 127.216C11.825 126.882 11.8762 126.555 11.9402 126.299C11.9723 126.17 12.0043 126.073 12.033 126.008C12.0409 125.991 12.0473 125.978 12.0519 125.97C13.3853 125.034 15.5922 124.901 17.2287 125.923Z" fill="#FFC439" stroke="#FFC439"/>
<path d="M14.8676 157.787C23.0787 157.787 29.7352 151.089 29.7352 142.826C29.7352 134.563 23.0787 127.864 14.8676 127.864C6.65644 127.864 0 134.563 0 142.826C0 151.089 6.65644 157.787 14.8676 157.787Z" fill="url(#paint7_radial_20278_133271)"/>
<g style="mix-blend-mode:lighten">
<path d="M12.132 131.985C12.3522 131.985 12.3522 131.646 12.132 131.646C11.9117 131.646 11.9117 131.985 12.132 131.985Z" fill="white"/>
<path d="M8.85758 139.187C9.07784 139.187 9.07784 138.848 8.85758 138.848C8.63732 138.848 8.63732 139.187 8.85758 139.187Z" fill="white"/>
<path d="M4.31851 141.187C4.53877 141.187 4.53877 140.848 4.31851 140.848C4.09826 140.848 4.09826 141.187 4.31851 141.187Z" fill="white"/>
<path d="M7.53238 135.908C7.75264 135.908 7.75264 135.568 7.53238 135.568C7.31212 135.568 7.31212 135.908 7.53238 135.908Z" fill="white"/>
<path d="M14.3146 135.586C14.5349 135.586 14.5349 135.247 14.3146 135.247C14.0943 135.247 14.0943 135.586 14.3146 135.586Z" fill="white"/>
<path d="M6.67056 132.252C6.89082 132.252 6.89082 131.913 6.67056 131.913C6.45031 131.913 6.45031 132.252 6.67056 132.252Z" fill="white"/>
<path d="M4.04215 136.575C4.26241 136.575 4.26241 136.235 4.04215 136.235C3.82189 136.235 3.82189 136.575 4.04215 136.575Z" fill="white"/>
<path d="M1.22232 141.462C1.44258 141.462 1.44258 141.123 1.22232 141.123C1.00206 141.123 1.00206 141.462 1.22232 141.462Z" fill="white"/>
<path d="M5.50992 153.355C5.73018 153.355 5.73018 153.016 5.50992 153.016C5.28966 153.016 5.28966 153.355 5.50992 153.355Z" fill="white"/>
<path d="M2.39566 148.758C2.61592 148.758 2.61592 148.419 2.39566 148.419C2.1754 148.419 2.1754 148.758 2.39566 148.758Z" fill="white"/>
<path d="M0.988436 144.09C1.20869 144.09 1.20869 143.751 0.988436 143.751C0.768178 143.751 0.768178 144.09 0.988436 144.09Z" fill="white"/>
<path d="M8.43326 131.616C8.65352 131.616 8.65352 131.277 8.43326 131.277C8.213 131.277 8.213 131.616 8.43326 131.616Z" fill="white"/>
<path d="M9.61539 129.985C9.83565 129.985 9.83565 129.646 9.61539 129.646C9.39513 129.646 9.39513 129.985 9.61539 129.985Z" fill="white"/>
<path d="M13.258 129.867C13.4782 129.867 13.4782 129.528 13.258 129.528C13.0377 129.528 13.0377 129.867 13.258 129.867Z" fill="white"/>
<path d="M10.3952 136.52C10.6154 136.52 10.6154 136.18 10.3952 136.18C10.1749 136.18 10.1749 136.52 10.3952 136.52Z" fill="white"/>
<path d="M19.1999 132.37C19.4201 132.37 19.4201 132.03 19.1999 132.03C18.9796 132.03 18.9796 132.37 19.1999 132.37Z" fill="white"/>
<path d="M16.5885 130.871C16.8088 130.871 16.8088 130.532 16.5885 130.532C16.3683 130.532 16.3683 130.871 16.5885 130.871Z" fill="white"/>
<path d="M14.1066 130.934C14.3269 130.934 14.3269 130.595 14.1066 130.595C13.8863 130.595 13.8863 130.934 14.1066 130.934Z" fill="white"/>
<path d="M16.7228 132.338C16.9431 132.338 16.9431 131.999 16.7228 131.999C16.5026 131.999 16.5026 132.338 16.7228 132.338Z" fill="white"/>
<path d="M22.9894 132.26C23.2097 132.26 23.2097 131.921 22.9894 131.921C22.7692 131.921 22.7692 132.26 22.9894 132.26Z" fill="white"/>
<path d="M19.6418 130.652C19.862 130.652 19.862 130.312 19.6418 130.312C19.4215 130.312 19.4215 130.652 19.6418 130.652Z" fill="white"/>
<path d="M15.2414 128.792C15.4616 128.792 15.4616 128.453 15.2414 128.453C15.0211 128.453 15.0211 128.792 15.2414 128.792Z" fill="white"/>
<path d="M11.3522 129.294C11.5725 129.294 11.5725 128.955 11.3522 128.955C11.1319 128.955 11.1319 129.294 11.3522 129.294Z" fill="white"/>
<path d="M14.3581 132.754C14.5783 132.754 14.5783 132.415 14.3581 132.415C14.1378 132.415 14.1378 132.754 14.3581 132.754Z" fill="white"/>
<path d="M10.6593 134.519C10.8796 134.519 10.8796 134.18 10.6593 134.18C10.4391 134.18 10.4391 134.519 10.6593 134.519Z" fill="white"/>
<path d="M5.86051 134.213C6.08076 134.213 6.08076 133.874 5.86051 133.874C5.64025 133.874 5.64025 134.213 5.86051 134.213Z" fill="white"/>
<path d="M2.33512 138.779C2.55537 138.779 2.55537 138.44 2.33512 138.44C2.11486 138.44 2.11486 138.779 2.33512 138.779Z" fill="white"/>
<path d="M6.61002 138.763C6.83028 138.763 6.83028 138.424 6.61002 138.424C6.38976 138.424 6.38976 138.763 6.61002 138.763Z" fill="white"/>
<path d="M5.55289 146.734C5.77315 146.734 5.77315 146.395 5.55289 146.395C5.33263 146.395 5.33263 146.734 5.55289 146.734Z" fill="white"/>
<path d="M1.75064 146.844C1.9709 146.844 1.9709 146.504 1.75064 146.504C1.53038 146.504 1.53038 146.844 1.75064 146.844Z" fill="white"/>
<path d="M2.33512 143.078C2.55537 143.078 2.55537 142.739 2.33512 142.739C2.11486 142.739 2.11486 143.078 2.33512 143.078Z" fill="white"/>
<path d="M4.36246 144.804C4.58272 144.804 4.58272 144.465 4.36246 144.465C4.1422 144.465 4.1422 144.804 4.36246 144.804Z" fill="white"/>
<path d="M8.67984 141.948C8.9001 141.948 8.9001 141.609 8.67984 141.609C8.45958 141.609 8.45958 141.948 8.67984 141.948Z" fill="white"/>
<path d="M4.71744 138.026C4.9377 138.026 4.9377 137.687 4.71744 137.687C4.49718 137.687 4.49718 138.026 4.71744 138.026Z" fill="white"/>
<path d="M8.87076 133.295C9.09102 133.295 9.09102 132.956 8.87076 132.956C8.6505 132.956 8.6505 133.295 8.87076 133.295Z" fill="white"/>
<path d="M20.0529 134.26C20.2731 134.26 20.2731 133.921 20.0529 133.921C19.8326 133.921 19.8326 134.26 20.0529 134.26Z" fill="white"/>
<path d="M18.4811 138.496C18.7014 138.496 18.7014 138.157 18.4811 138.157C18.2609 138.157 18.2609 138.496 18.4811 138.496Z" fill="white"/>
<path d="M14.9904 140.309C15.2106 140.309 15.2106 139.969 14.9904 139.969C14.7701 139.969 14.7701 140.309 14.9904 140.309Z" fill="white"/>
<path d="M15.9298 138.23C16.1501 138.23 16.1501 137.891 15.9298 137.891C15.7096 137.891 15.7096 138.23 15.9298 138.23Z" fill="white"/>
<path d="M24.1759 137.798C24.3962 137.798 24.3962 137.459 24.1759 137.459C23.9557 137.459 23.9557 137.798 24.1759 137.798Z" fill="white"/>
<path d="M20.6593 135.037C20.8796 135.037 20.8796 134.698 20.6593 134.698C20.4391 134.698 20.4391 135.037 20.6593 135.037Z" fill="white"/>
<path d="M15.9606 135.013C16.1809 135.013 16.1809 134.674 15.9606 134.674C15.7403 134.674 15.7403 135.013 15.9606 135.013Z" fill="white"/>
<path d="M16.7228 144.992C16.9431 144.992 16.9431 144.653 16.7228 144.653C16.5026 144.653 16.5026 144.992 16.7228 144.992Z" fill="white"/>
<path d="M20.2047 150.28C20.425 150.28 20.425 149.941 20.2047 149.941C19.9845 149.941 19.9845 150.28 20.2047 150.28Z" fill="white"/>
<path d="M18.4069 153.077C18.5685 153.077 18.5685 152.812 18.4069 152.812C18.2452 152.812 18.2452 153.077 18.4069 153.077Z" fill="white"/>
<path d="M22.8893 150.285C23.051 150.285 23.051 150.019 22.8893 150.019C22.7277 150.019 22.7277 150.285 22.8893 150.285Z" fill="white"/>
<path d="M26.0421 150.622C26.2038 150.622 26.2038 150.356 26.0421 150.356C25.8805 150.356 25.8805 150.622 26.0421 150.622Z" fill="white"/>
<path d="M24.7345 146.911C24.8962 146.911 24.8962 146.646 24.7345 146.646C24.5729 146.646 24.5729 146.911 24.7345 146.911Z" fill="white"/>
<path d="M27.32 147.61C27.4816 147.61 27.4816 147.344 27.32 147.344C27.1583 147.344 27.1583 147.61 27.32 147.61Z" fill="white"/>
<path d="M28.5802 141.169C28.7419 141.169 28.7419 140.903 28.5802 140.903C28.4186 140.903 28.4186 141.169 28.5802 141.169Z" fill="white"/>
<path d="M25.6178 138.721C25.7795 138.721 25.7795 138.455 25.6178 138.455C25.4562 138.455 25.4562 138.721 25.6178 138.721Z" fill="white"/>
<path d="M20.4816 140.918C20.6433 140.918 20.6433 140.652 20.4816 140.652C20.3199 140.652 20.3199 140.918 20.4816 140.918Z" fill="white"/>
<path d="M18.0861 136.101C18.2477 136.101 18.2477 135.835 18.0861 135.835C17.9244 135.835 17.9244 136.101 18.0861 136.101Z" fill="white"/>
<path d="M21.2262 131.025C21.3879 131.025 21.3879 130.76 21.2262 130.76C21.0646 130.76 21.0646 131.025 21.2262 131.025Z" fill="white"/>
<path d="M18.0255 129.237C18.1872 129.237 18.1872 128.971 18.0255 128.971C17.8639 128.971 17.8639 129.237 18.0255 129.237Z" fill="white"/>
<path d="M23.4269 144.976C23.6472 144.976 23.6472 144.637 23.4269 144.637C23.2067 144.637 23.2067 144.976 23.4269 144.976Z" fill="white"/>
<path d="M11.8327 146.188V146.129C11.8327 146.129 11.8033 146.1 11.7886 146.085C11.7886 146.07 11.7592 146.055 11.7445 146.055C11.7151 146.04 11.671 146.055 11.6563 146.085C11.6563 146.1 11.6416 146.114 11.6416 146.129C11.6416 146.144 11.6416 146.159 11.6416 146.173V146.232C11.6416 146.232 11.7151 146.306 11.7592 146.291C11.8033 146.277 11.8327 146.232 11.818 146.188H11.8327Z" fill="white"/>
<path d="M23.9899 134.687V134.628C23.9899 134.628 23.9605 134.599 23.9458 134.584C23.9458 134.569 23.9164 134.554 23.9017 134.554C23.8723 134.54 23.8282 134.555 23.8135 134.584C23.8135 134.599 23.7988 134.614 23.7988 134.628C23.7988 134.643 23.7988 134.658 23.7988 134.673V134.732C23.7988 134.732 23.8723 134.805 23.9164 134.791C23.9605 134.776 23.9899 134.732 23.9752 134.687H23.9899Z" fill="white"/>
<path d="M11.8507 141.54C12.071 141.54 12.071 141.201 11.8507 141.201C11.6305 141.201 11.6305 141.54 11.8507 141.54Z" fill="white"/>
<path d="M8.8273 145.11C9.04756 145.11 9.04756 144.771 8.8273 144.771C8.60704 144.771 8.60704 145.11 8.8273 145.11Z" fill="white"/>
<path d="M8.03482 150.256C8.25508 150.256 8.25508 149.917 8.03482 149.917C7.81456 149.917 7.81456 150.256 8.03482 150.256Z" fill="white"/>
<path d="M14.007 148.938C14.2272 148.938 14.2272 148.599 14.007 148.599C13.7867 148.599 13.7867 148.938 14.007 148.938Z" fill="white"/>
<path d="M11.5685 150.742C11.7888 150.742 11.7888 150.403 11.5685 150.403C11.3483 150.403 11.3483 150.742 11.5685 150.742Z" fill="white"/>
<path d="M12.0104 136.724C12.2307 136.724 12.2307 136.384 12.0104 136.384C11.7902 136.384 11.7902 136.724 12.0104 136.724Z" fill="white"/>
<path d="M13.6129 144.051C13.8332 144.051 13.8332 143.712 13.6129 143.712C13.3927 143.712 13.3927 144.051 13.6129 144.051Z" fill="white"/>
<path d="M3.96793 150.946C4.18819 150.946 4.18819 150.607 3.96793 150.607C3.74767 150.607 3.74767 150.946 3.96793 150.946Z" fill="white"/>
<path d="M5.68277 149.629C5.90303 149.629 5.90303 149.289 5.68277 149.289C5.46251 149.289 5.46251 149.629 5.68277 149.629Z" fill="white"/>
<path d="M11.9806 153.425C12.2009 153.425 12.2009 153.086 11.9806 153.086C11.7604 153.086 11.7604 153.425 11.9806 153.425Z" fill="white"/>
<path d="M7.45035 147.636C7.67061 147.636 7.67061 147.297 7.45035 147.297C7.23009 147.297 7.23009 147.636 7.45035 147.636Z" fill="white"/>
<path d="M3.2316 135.351C3.45186 135.351 3.45186 135.011 3.2316 135.011C3.01134 135.011 3.01134 135.351 3.2316 135.351Z" fill="white"/>
<path d="M8.95719 154.21C9.17744 154.21 9.17744 153.871 8.95719 153.871C8.73693 153.871 8.73693 154.21 8.95719 154.21Z" fill="white"/>
<path d="M15.1505 153.888C15.3708 153.888 15.3708 153.549 15.1505 153.549C14.9303 153.549 14.9303 153.888 15.1505 153.888Z" fill="white"/>
<path d="M13.6388 157.034C13.8591 157.034 13.8591 156.695 13.6388 156.695C13.4186 156.695 13.4186 157.034 13.6388 157.034Z" fill="white"/>
<path d="M11.3224 156.297C11.5427 156.297 11.5427 155.958 11.3224 155.958C11.1022 155.958 11.1022 156.297 11.3224 156.297Z" fill="white"/>
<path d="M18.1603 156.25C18.3806 156.25 18.3806 155.911 18.1603 155.911C17.9401 155.911 17.9401 156.25 18.1603 156.25Z" fill="white"/>
<path d="M21.109 152.737C21.109 152.737 21.0649 152.737 21.0502 152.752C21.0209 152.752 21.0062 152.766 20.9768 152.781C20.9328 152.796 20.9181 152.854 20.9328 152.899C20.9474 152.943 20.9768 152.972 21.0209 152.972C21.0649 152.972 21.109 152.972 21.153 152.943C21.2117 152.943 21.2411 152.869 21.2264 152.81C21.2117 152.752 21.153 152.722 21.0943 152.737H21.109Z" fill="white"/>
<path d="M20.9328 155.434C21.153 155.434 21.153 155.095 20.9328 155.095C20.7125 155.095 20.7125 155.434 20.9328 155.434Z" fill="white"/>
<path d="M16.5451 151.645C16.7653 151.645 16.7653 151.306 16.5451 151.306C16.3248 151.306 16.3248 151.645 16.5451 151.645Z" fill="white"/>
<path d="M15.8864 156.634C16.1066 156.634 16.1066 156.295 15.8864 156.295C15.6661 156.295 15.6661 156.634 15.8864 156.634Z" fill="white"/>
<path d="M25.1164 149.291C25.3366 149.291 25.3366 148.952 25.1164 148.952C24.8961 148.952 24.8961 149.291 25.1164 149.291Z" fill="white"/>
<path d="M27.3161 145.777C27.5363 145.777 27.5363 145.438 27.3161 145.438C27.0958 145.438 27.0958 145.777 27.3161 145.777Z" fill="white"/>
<path d="M24.5705 152.484C24.7907 152.484 24.7907 152.145 24.5705 152.145C24.3502 152.145 24.3502 152.484 24.5705 152.484Z" fill="white"/>
<path d="M27.4504 143.133C27.6706 143.133 27.6706 142.794 27.4504 142.794C27.2301 142.794 27.2301 143.133 27.4504 143.133Z" fill="white"/>
<path d="M20.3605 142.748C20.5808 142.748 20.5808 142.409 20.3605 142.409C20.1402 142.409 20.1402 142.748 20.3605 142.748Z" fill="white"/>
<path d="M20.4342 147.612C20.6545 147.612 20.6545 147.273 20.4342 147.273C20.214 147.273 20.214 147.612 20.4342 147.612Z" fill="white"/>
<path d="M26.0431 140.473C26.2634 140.473 26.2634 140.134 26.0431 140.134C25.8229 140.134 25.8229 140.473 26.0431 140.473Z" fill="white"/>
<path d="M26.2765 136.151C26.4968 136.151 26.4968 135.812 26.2765 135.812C26.0563 135.812 26.0563 136.151 26.2765 136.151Z" fill="white"/>
<path d="M22.942 133.491C23.1623 133.491 23.1623 133.152 22.942 133.152C22.7218 133.152 22.7218 133.491 22.942 133.491Z" fill="white"/>
<path d="M20.9933 138.214C21.2136 138.214 21.2136 137.875 20.9933 137.875C20.7731 137.875 20.7731 138.214 20.9933 138.214Z" fill="white"/>
<path d="M17.0304 141.76C17.2507 141.76 17.2507 141.421 17.0304 141.421C16.8102 141.421 16.8102 141.76 17.0304 141.76Z" fill="white"/>
<path d="M23.4445 142.097C23.6647 142.097 23.6647 141.758 23.4445 141.758C23.2242 141.758 23.2242 142.097 23.4445 142.097Z" fill="white"/>
</g>
<path opacity="0.36" d="M14.8676 157.787C23.0787 157.787 29.7352 151.089 29.7352 142.826C29.7352 134.563 23.0787 127.864 14.8676 127.864C6.65644 127.864 0 134.563 0 142.826C0 151.089 6.65644 157.787 14.8676 157.787Z" fill="url(#paint8_radial_20278_133271)"/>
<line x1="14.3018" y1="122.949" x2="14.3018" y2="0.558235" stroke="#FFC439" stroke-width="0.5"/>
<defs>
<radialGradient id="paint0_radial_20278_133271" cx="0" cy="0" r="1" gradientUnits="userSpaceOnUse" gradientTransform="translate(54.0414 182.046) rotate(-30.9389) scale(21.6565 21.7212)">
<stop offset="0.16" stop-color="#779BB0"/>
<stop offset="0.3" stop-color="#4B7B96"/>
<stop offset="0.7" stop-color="#003661"/>
<stop offset="0.97" stop-color="#779BB0"/>
</radialGradient>
<linearGradient id="paint1_linear_20278_133271" x1="54.4746" y1="181.516" x2="63.4119" y2="181.516" gradientUnits="userSpaceOnUse">
<stop stop-color="#F4BD6E"/>
<stop offset="0.07" stop-color="#E8A260"/>
<stop offset="0.13" stop-color="#FFD77C"/>
<stop offset="0.18" stop-color="#FED87F"/>
<stop offset="0.23" stop-color="#FEDC88"/>
<stop offset="0.27" stop-color="#FDE399"/>
<stop offset="0.29" stop-color="#FCEBAA"/>
<stop offset="0.34" stop-color="#FAE6A5"/>
<stop offset="0.38" stop-color="#F6D896"/>
<stop offset="0.44" stop-color="#F0C07F"/>
<stop offset="0.49" stop-color="#E8A260"/>
<stop offset="0.74" stop-color="#FFD77C"/>
<stop offset="0.83" stop-color="#E8A260"/>
<stop offset="0.92" stop-color="#FFD77C"/>
<stop offset="0.95" stop-color="#FDD37B"/>
<stop offset="0.97" stop-color="#F6CA78"/>
<stop offset="0.99" stop-color="#ECB973"/>
<stop offset="1" stop-color="#E8B271"/>
</linearGradient>
<linearGradient id="paint2_linear_20278_133271" x1="44.9449" y1="181.531" x2="54.5606" y2="181.531" gradientUnits="userSpaceOnUse">
<stop stop-color="#F4BD6E"/>
<stop offset="0.07" stop-color="#E8A260"/>
<stop offset="0.13" stop-color="#FFD77C"/>
<stop offset="0.18" stop-color="#FED87F"/>
<stop offset="0.23" stop-color="#FEDC88"/>
<stop offset="0.27" stop-color="#FDE399"/>
<stop offset="0.29" stop-color="#FCEBAA"/>
<stop offset="0.34" stop-color="#FAE6A5"/>
<stop offset="0.38" stop-color="#F6D896"/>
<stop offset="0.44" stop-color="#F0C07F"/>
<stop offset="0.49" stop-color="#E8A260"/>
<stop offset="0.74" stop-color="#FFD77C"/>
<stop offset="0.83" stop-color="#E8A260"/>
<stop offset="0.92" stop-color="#FFD77C"/>
<stop offset="0.95" stop-color="#FDD37B"/>
<stop offset="0.97" stop-color="#F6CA78"/>
<stop offset="0.99" stop-color="#ECB973"/>
<stop offset="1" stop-color="#E8B271"/>
</linearGradient>
<linearGradient id="paint3_linear_20278_133271" x1="39.1802" y1="181.635" x2="54.3412" y2="181.635" gradientUnits="userSpaceOnUse">
<stop stop-color="#F4BD6E"/>
<stop offset="0.07" stop-color="#E8A260"/>
<stop offset="0.13" stop-color="#FFD77C"/>
<stop offset="0.18" stop-color="#FED87F"/>
<stop offset="0.23" stop-color="#FEDC88"/>
<stop offset="0.27" stop-color="#FDE399"/>
<stop offset="0.29" stop-color="#FCEBAA"/>
<stop offset="0.34" stop-color="#FAE6A5"/>
<stop offset="0.38" stop-color="#F6D896"/>
<stop offset="0.44" stop-color="#F0C07F"/>
<stop offset="0.49" stop-color="#E8A260"/>
<stop offset="0.74" stop-color="#FFD77C"/>
<stop offset="0.83" stop-color="#E8A260"/>
<stop offset="0.92" stop-color="#FFD77C"/>
<stop offset="0.95" stop-color="#FDD37B"/>
<stop offset="0.97" stop-color="#F6CA78"/>
<stop offset="0.99" stop-color="#ECB973"/>
<stop offset="1" stop-color="#E8B271"/>
</linearGradient>
<linearGradient id="paint4_linear_20278_133271" x1="54.6793" y1="181.457" x2="67.4364" y2="181.457" gradientUnits="userSpaceOnUse">
<stop stop-color="#F4BD6E"/>
<stop offset="0.07" stop-color="#E8A260"/>
<stop offset="0.13" stop-color="#FFD77C"/>
<stop offset="0.18" stop-color="#FED87F"/>
<stop offset="0.23" stop-color="#FEDC88"/>
<stop offset="0.27" stop-color="#FDE399"/>
<stop offset="0.29" stop-color="#FCEBAA"/>
<stop offset="0.34" stop-color="#FAE6A5"/>
<stop offset="0.38" stop-color="#F6D896"/>
<stop offset="0.44" stop-color="#F0C07F"/>
<stop offset="0.49" stop-color="#E8A260"/>
<stop offset="0.74" stop-color="#FFD77C"/>
<stop offset="0.83" stop-color="#E8A260"/>
<stop offset="0.92" stop-color="#FFD77C"/>
<stop offset="0.95" stop-color="#FDD37B"/>
<stop offset="0.97" stop-color="#F6CA78"/>
<stop offset="0.99" stop-color="#ECB973"/>
<stop offset="1" stop-color="#E8B271"/>
</linearGradient>
<linearGradient id="paint5_linear_20278_133271" x1="53.2812" y1="181.234" x2="55.9801" y2="181.234" gradientUnits="userSpaceOnUse">
<stop stop-color="#F4BD6E"/>
<stop offset="0.07" stop-color="#E8A260"/>
<stop offset="0.13" stop-color="#FFD77C"/>
<stop offset="0.18" stop-color="#FED87F"/>
<stop offset="0.23" stop-color="#FEDC88"/>
<stop offset="0.27" stop-color="#FDE399"/>
<stop offset="0.29" stop-color="#FCEBAA"/>
<stop offset="0.34" stop-color="#FAE6A5"/>
<stop offset="0.38" stop-color="#F6D896"/>
<stop offset="0.44" stop-color="#F0C07F"/>
<stop offset="0.49" stop-color="#E8A260"/>
<stop offset="0.74" stop-color="#FFD77C"/>
<stop offset="0.83" stop-color="#E8A260"/>
<stop offset="0.92" stop-color="#FFD77C"/>
<stop offset="0.95" stop-color="#FDD37B"/>
<stop offset="0.97" stop-color="#F6CA78"/>
<stop offset="0.99" stop-color="#ECB973"/>
<stop offset="1" stop-color="#E8B271"/>
</linearGradient>
<radialGradient id="paint6_radial_20278_133271" cx="0" cy="0" r="1" gradientUnits="userSpaceOnUse" gradientTransform="translate(54.0414 182.046) rotate(-30.9389) scale(21.6565 21.7212)">
<stop offset="0.55" stop-color="#003661" stop-opacity="0.1"/>
<stop offset="0.77" stop-color="#003661"/>
<stop offset="1" stop-color="#003661" stop-opacity="0.1"/>
</radialGradient>
<radialGradient id="paint7_radial_20278_133271" cx="0" cy="0" r="1" gradientUnits="userSpaceOnUse" gradientTransform="translate(13.5889 143.943) rotate(-149.663) scale(21.6829 21.7503)">
<stop offset="0.09" stop-color="#FCB1B9"/>
<stop offset="0.26" stop-color="#F88C97"/>
<stop offset="0.42" stop-color="#EF6271"/>
<stop offset="0.68" stop-color="#FF4F63"/>
<stop offset="0.7" stop-color="#FF465C"/>
<stop offset="0.752011" stop-color="#F95063"/>
<stop offset="0.78" stop-color="#FF2F47"/>
<stop offset="0.81" stop-color="#FF374E"/>
<stop offset="0.875" stop-color="#F84B5F"/>
</radialGradient>
<radialGradient id="paint8_radial_20278_133271" cx="0" cy="0" r="1" gradientUnits="userSpaceOnUse" gradientTransform="translate(13.5889 143.943) rotate(-149.663) scale(21.6829 21.7503)">
<stop offset="0.49" stop-color="#FF1934"/>
<stop offset="0.77" stop-color="#BA0419"/>
<stop offset="0.94" stop-color="#EB001B"/>
</radialGradient>
<clipPath id="clip0_20278_133271">
<rect width="31.6198" height="38.0975" fill="white" transform="translate(37.1162 159.358)"/>
</clipPath>
</defs>
</svg>
