<svg width="457" height="568" viewBox="0 0 457 568" fill="none" xmlns="http://www.w3.org/2000/svg">
<path d="M401.54 378.71C389.98 385.86 408.26 395.11 394.77 403.67C381.27 412.24 393.25 448.51 383.64 437.67C374.03 426.83 368.87 416.01 337.65 394.87C333.97 392.38 329.86 390.16 325.87 388.41C321.32 386.41 312.65 384.86 301.26 378.82C290.02 372.85 279.7 362.73 257.58 355.51C235.45 348.29 219.23 349.63 195.43 344.24C171.62 338.85 168.12 330.91 174.01 324.11C174.75 323.25 175.75 322.59 176.94 322.11C185.18 318.78 202.95 323.64 214.67 325.22C228.09 327.02 234.25 328.04 238.93 325.23C243.61 322.42 232.23 316.11 228.53 313.83C224.83 311.55 217.42 307.52 216.88 299.67C216.34 291.82 221.1 286.35 227.38 284.14C233.65 281.93 233.93 281.67 230.54 278.32C227.15 274.97 222.41 271.58 226.23 262.27C230.05 252.97 237.29 254.02 240.51 254.4C243.73 254.78 245.65 253.77 238.21 250.55C230.77 247.33 228.69 237.29 238.6 231.16C248.51 225.03 253.25 228.42 261.07 236.23C268.89 244.04 322.98 262.58 330.73 264.73C331.37 264.91 331.96 265.07 332.48 265.22C334.49 265.78 335.73 266.1 336.57 266.1C337.19 266.1 337.6 265.93 337.95 265.56C338.5 264.97 338.92 263.88 339.8 262.17C342.2 257.49 343.02 251.73 342.26 234.18C341.73 221.91 344.36 209.98 348.39 203.99C350.12 201.42 352.1 199.95 354.21 200.02C361.21 200.25 359.89 207.49 361.28 214.27C362.67 221.06 366.51 226.85 367.15 239.81C367.79 252.77 375.89 260.32 376.37 277.86C376.85 295.4 382.68 306.38 382.88 316.63C382.93 319.57 383.89 322.18 385.51 324.63C389.54 330.72 397.73 335.76 406.58 342.18C418.98 351.18 411.57 352.91 403.37 356.41C395.16 359.91 413.1 371.56 401.54 378.72V378.71Z" fill="white"/>
<path d="M246.69 256.18C241.44 254.93 235.05 254.18 239.26 254.24C243.47 254.3 243.81 253.55 242.93 252.92C240.55 251.22 242.8 252.98 246.25 252.32C249.69 251.67 249.4 252.83 249.67 255C249.94 257.17 246.69 256.17 246.69 256.17V256.18Z" fill="black"/>
<path d="M229.81 314.35C224.31 311.6 221.7 309.39 226.31 310.6C230.92 311.81 232.74 311.81 232.15 312.58C231.56 313.35 229.81 314.35 229.81 314.35Z" fill="black"/>
<path d="M235.34 281.02C232.81 280.07 231.31 278.07 230.06 277.07C228.81 276.07 229.06 277.32 231.06 278.82C233.06 280.32 233.05 281.31 231.93 281.82C230.81 282.33 229.81 283.08 230.56 283.33C231.31 283.58 231.81 282.83 233.56 282.08C235.31 281.33 235.34 281.02 235.34 281.02Z" fill="black"/>
<path d="M344.73 234.11C345.47 239.39 349.85 242.07 347.84 242.32C345.84 242.57 347.27 263.55 336.8 271.76C336.23 272.21 338.33 265.43 337.94 265.55C338.49 264.96 338.91 263.87 339.79 262.16C342.19 257.48 343.01 251.72 342.25 234.17C341.72 221.9 344.35 209.97 348.38 203.98C345.1 215.24 344.16 230.12 344.72 234.11H344.73Z" fill="black"/>
<path d="M401.54 378.71C389.98 385.86 408.26 395.11 394.77 403.67C381.27 412.24 393.25 448.51 383.64 437.67C374.03 426.83 368.87 416.01 337.65 394.87C333.97 392.38 329.86 390.16 325.87 388.41C321.32 386.41 312.65 384.86 301.26 378.82C290.02 372.85 279.7 362.73 257.58 355.51C235.45 348.29 219.23 349.63 195.43 344.24C171.62 338.85 168.12 330.91 174.01 324.11C174.75 323.25 175.75 322.59 176.94 322.11C171.03 327.33 175.73 335.29 188.73 339.81C203.3 344.87 201.57 338.43 204.69 342.15C207.81 345.87 223.07 346.62 224.32 342.62C225.57 338.62 242.83 348.38 272.1 353.13C301.37 357.88 307.48 361.64 311.8 336.74C314.84 319.26 315.91 258.42 332.49 265.21C337.64 267.32 339.17 264.63 339.39 263.82C337.14 271.83 333.39 282.1 331.13 294.34C328.13 310.6 328.13 322.61 333.13 329.61C335.59 333.05 325.38 326.11 322.87 338.62C320.82 348.87 316.63 363.96 313 367.55C309.37 371.14 310.19 380.96 325.52 384.88C347.14 390.41 361.15 389.66 365.91 366.39C366.47 363.65 368.66 368.89 374.67 358.64C382.96 344.47 384.16 333.7 385.52 324.63C389.55 330.72 397.74 335.76 406.59 342.18C418.99 351.18 411.58 352.91 403.38 356.41C395.17 359.91 413.11 371.56 401.55 378.72L401.54 378.71Z" fill="black"/>
<path d="M347 207.03C346.06 213.26 343.11 225.92 336.4 253.98C330.53 278.55 317.04 334.05 312.82 351.56C308.98 367.49 306.4 363.86 268.38 355.56C259.22 353.56 249.5 351.17 239.58 348.58C222.66 344.17 221.59 340.21 224.71 329.3C227.97 317.93 234.99 295.48 244.12 262.5C253.25 229.52 260.12 203.6 265.83 187.01C271.33 171 275.42 173.69 308.11 184.06C329.48 190.84 340.22 193.99 344.65 198.35C347 200.66 347.57 203.31 347.01 207.02L347 207.03Z" fill="white"/>
<path d="M347 207.03C346.06 213.26 343.11 225.92 336.4 253.98C330.53 278.55 317.04 334.05 312.82 351.56C308.98 367.49 306.4 363.86 268.38 355.56C259.22 353.56 249.5 351.17 239.58 348.58C222.66 344.17 221.59 340.21 224.71 329.3C223.29 336.86 221.54 340.87 255.82 349.37C290.09 357.88 306.85 366.13 310.86 348.12C314.65 331.06 343.13 221.76 344.64 198.35C346.99 200.66 347.56 203.31 347 207.02V207.03Z" fill="#8EC5F2"/>
<path opacity="0.98" d="M276.26 222.98C265.4 222.21 259.23 234.94 271.89 235.39C284.55 235.84 278.99 224.46 278.99 224.46" stroke="black" stroke-width="1.42" stroke-miterlimit="10"/>
<path opacity="0.98" d="M293.06 229.22C284.95 231.73 287.2 242.55 299.85 242.4C312.5 242.25 301.53 231.53 301.53 231.53" stroke="black" stroke-width="1.42" stroke-miterlimit="10"/>
<path opacity="0.98" d="M325.7 237.08C314.89 240.23 311.97 247.79 322.83 248.57C333.69 249.34 329.32 237.65 329.32 237.65" stroke="black" stroke-width="1.42" stroke-miterlimit="10"/>
<path opacity="0.98" d="M271.21 244.78C261.56 244.3 252.89 253.99 264.85 256.59C276.81 259.18 271.25 247.96 271.25 247.96" stroke="black" stroke-width="1.42" stroke-miterlimit="10"/>
<path opacity="0.98" d="M292.64 250.78C281.81 252.42 280.31 264.7 290.93 264.77C301.55 264.84 295.97 254.76 295.97 254.76" stroke="black" stroke-width="1.42" stroke-miterlimit="10"/>
<path opacity="0.98" d="M315.36 258.4C308.57 259.63 303.29 272.42 318.2 271.3C333.11 270.18 320.63 260.09 320.63 260.09" stroke="black" stroke-width="1.42" stroke-miterlimit="10"/>
<path opacity="0.98" d="M259.49 265.99C251.39 269.1 248.47 276.67 258.74 278.65C269.01 280.63 263.54 270.04 263.54 270.04" stroke="black" stroke-width="1.42" stroke-miterlimit="10"/>
<path opacity="0.98" d="M287.46 273.27C279.91 272.92 272.18 281.75 283.06 284.94C293.95 288.12 295.96 279.96 291.69 275.8" stroke="black" stroke-width="1.42" stroke-miterlimit="10"/>
<path opacity="0.98" d="M313.46 281.31C304.62 282.05 299.32 292.05 311.39 293.41C323.46 294.77 317.15 283.49 317.15 283.49" stroke="black" stroke-width="1.42" stroke-miterlimit="10"/>
<path opacity="0.98" d="M258.61 287.56C245.67 287.36 243.25 301.87 254.06 303.39C264.87 304.91 260.46 291.12 260.46 291.12" stroke="black" stroke-width="1.42" stroke-miterlimit="10"/>
<path opacity="0.98" d="M281.21 295.63C266.49 296.24 273.56 307.6 282.9 307.79C292.24 307.98 283.98 297.23 283.98 297.23" stroke="black" stroke-width="1.42" stroke-miterlimit="10"/>
<path opacity="0.98" d="M307.2 304.49C295.32 304.39 296.92 315.63 307.33 315.15C317.75 314.67 310.63 304.45 310.63 304.45" stroke="black" stroke-width="1.42" stroke-miterlimit="10"/>
<path opacity="0.98" d="M275.05 221.69C264.19 220.92 258.02 233.65 270.68 234.1C283.34 234.55 277.78 223.17 277.78 223.17" stroke="#3D9BE9" stroke-width="1.42" stroke-miterlimit="10"/>
<path opacity="0.98" d="M291.85 227.93C283.74 230.44 285.99 241.26 298.64 241.11C311.29 240.96 300.32 230.24 300.32 230.24" stroke="#8EC5F2" stroke-width="1.42" stroke-miterlimit="10"/>
<path opacity="0.98" d="M324.49 235.79C313.68 238.94 310.76 246.5 321.62 247.28C332.48 248.05 328.11 236.36 328.11 236.36" stroke="#AFD6F6" stroke-width="1.42" stroke-miterlimit="10"/>
<path opacity="0.98" d="M270 243.49C260.35 243.01 251.68 252.7 263.64 255.3C275.6 257.89 270.04 246.67 270.04 246.67" stroke="#AFD6F6" stroke-width="1.42" stroke-miterlimit="10"/>
<path opacity="0.98" d="M291.44 249.48C280.61 251.12 279.11 263.4 289.73 263.47C300.35 263.54 294.77 253.46 294.77 253.46" stroke="#3D9BE9" stroke-width="1.42" stroke-miterlimit="10"/>
<path opacity="0.98" d="M314.15 257.1C307.36 258.33 302.08 271.12 316.99 270C331.9 268.88 319.42 258.79 319.42 258.79" stroke="#8EC5F2" stroke-width="1.42" stroke-miterlimit="10"/>
<path opacity="0.98" d="M258.28 264.69C250.18 267.8 247.26 275.37 257.53 277.35C267.8 279.33 262.33 268.74 262.33 268.74" stroke="#8EC5F2" stroke-width="1.42" stroke-miterlimit="10"/>
<path opacity="0.98" d="M286.25 271.98C278.7 271.63 270.97 280.46 281.85 283.65C292.74 286.83 294.75 278.67 290.48 274.51" stroke="#AFD6F6" stroke-width="1.42" stroke-miterlimit="10"/>
<path opacity="0.98" d="M312.25 280.02C303.41 280.76 298.11 290.76 310.18 292.12C322.25 293.48 315.94 282.2 315.94 282.2" stroke="#3D9BE9" stroke-width="1.42" stroke-miterlimit="10"/>
<path opacity="0.98" d="M257.4 286.27C244.46 286.07 242.04 300.58 252.85 302.1C263.66 303.62 259.25 289.83 259.25 289.83" stroke="#3D9BE9" stroke-width="1.42" stroke-miterlimit="10"/>
<path opacity="0.98" d="M280 294.34C265.28 294.95 272.35 306.31 281.69 306.5C291.03 306.69 282.77 295.94 282.77 295.94" stroke="#8EC5F2" stroke-width="1.42" stroke-miterlimit="10"/>
<path opacity="0.98" d="M305.99 303.2C294.11 303.1 295.71 314.34 306.12 313.86C316.54 313.38 309.42 303.16 309.42 303.16" stroke="#AFD6F6" stroke-width="1.42" stroke-miterlimit="10"/>
<path d="M278.04 314.19C255.36 306.27 250.74 329.23 267.52 335C284.3 340.77 290.05 318.38 278.04 314.19Z" fill="#3D9BE9"/>
<path d="M278.04 314.19C255.36 306.27 250.74 329.23 267.52 335C284.3 340.77 290.05 318.38 278.04 314.19Z" stroke="black" stroke-width="1.42" stroke-miterlimit="10"/>
<path d="M275.6 318.75C272.18 315.65 266.6 318.44 265.19 323.16C263.78 327.87 267.61 332.98 270.07 330.57C272.53 328.16 266.32 326.7 269.17 323.8C272.02 320.9 271.81 319.88 273.24 321.93C274.67 323.98 278.76 321.62 275.6 318.76V318.75Z" fill="white"/>
<path d="M334.22 192.94C333.14 196.67 332.48 202.46 323.68 199.79C318.78 198.3 303.7 194.37 294.33 190.2C284.96 186.03 287.14 183.51 289.36 178C289.36 178 294.9 180.16 307.9 184.13C323.16 188.8 334.23 192.94 334.23 192.94H334.22Z" fill="black"/>
<path d="M295.51 181.94C292.53 181.09 289.76 185.3 293.85 187.22C297.94 189.14 299.04 182.95 295.51 181.94Z" fill="white"/>
<path d="M245.78 228.13C248.49 227.48 251.82 228.29 253.78 229.94C254.41 230.47 254.97 231.01 255.46 231.56C263.7 240.82 252.67 252.21 245.23 253.1C244.92 253.14 244.62 253.16 244.33 253.16" fill="white"/>
<path d="M243.18 255.02C245.58 255.29 248.66 256.36 251.43 258.13C256.72 261.49 260.93 267.34 257.32 274.83C252.32 285.18 241.74 283.86 233.83 280.41C233.02 280.06 232.24 279.68 231.5 279.3" fill="white"/>
<path d="M231.1 282.71C231.88 282.18 233.04 281.85 234.38 281.82C238.11 281.75 243.18 284.13 244.91 291.73C246.99 300.89 236.33 310.05 228.66 311.06C227.69 311.19 226.77 311.18 225.93 311.03" fill="white"/>
<path d="M439.1 350.36L389.37 450.91C389.37 450.91 367.26 437.91 349.77 418.19C346.11 414.06 342.65 409.64 339.64 404.98C339.64 404.98 376.47 382.42 390.94 319.91C390.94 319.91 399.88 324.82 410.68 331.34C420.36 337.18 431.53 344.31 439.11 350.34L439.1 350.36Z" fill="#8EC5F2" stroke="black" stroke-width="1.42" stroke-miterlimit="10"/>
<path d="M439.1 350.36L389.37 450.91C389.37 450.91 367.26 437.91 349.77 418.19C357.7 421.7 365.07 416.09 373.41 404.9C382.92 392.14 386.17 390.64 386.42 386.14C386.6 382.96 386.84 383.27 389.42 384.39C392 385.51 392.92 381.14 393.92 376.38C394.92 371.63 395.67 367.87 397.67 368.63C399.67 369.38 401.42 363.13 400.42 361.63C399.42 360.13 401 360.23 402.96 358.68C404.92 357.13 406.92 349.12 406.42 347.12C406.04 345.58 409.91 337.91 410.67 331.35C420.35 337.19 431.52 344.32 439.1 350.35V350.36Z" fill="black"/>
<path d="M404.59 346.01C394.53 347.1 393.72 361.61 404.59 361.83C415.46 362.05 407.47 349.82 407.47 349.82" stroke="black" stroke-width="1.42" stroke-miterlimit="10"/>
<path d="M401.6 351.18C399.43 352.27 400.51 356.07 400.51 356.07" stroke="black" stroke-width="1.42" stroke-miterlimit="10"/>
<path d="M396.74 369.15C389.37 369.12 379.86 379.45 389.37 385.43C398.88 391.41 399.15 376.06 399.15 376.06" stroke="black" stroke-width="1.42" stroke-miterlimit="10"/>
<path d="M390.73 375.91C388.28 378.08 391.55 381.35 391.55 381.35" stroke="black" stroke-width="1.42" stroke-miterlimit="10"/>
<path d="M351.05 431.08C351.05 431.08 406.22 387.87 414.65 324C414.65 324 442.1 342.48 453.51 351.18C464.92 359.88 434.44 376.42 443.02 392.88C451.6 409.34 410.29 415.32 420.89 434.89C431.49 454.46 397.79 451.2 408.66 463.15C419.53 475.11 407.57 482.45 393.17 469.94C378.77 457.44 351.04 431.08 351.04 431.08H351.05Z" fill="#3D9BE9"/>
<path d="M404.54 476.17C401.28 475.5 397.33 473.55 393.18 469.94C378.78 457.44 351.05 431.08 351.05 431.08C351.05 431.08 406.22 387.87 414.65 324C414.65 324 442.1 342.48 453.51 351.18" stroke="black" stroke-width="1.42" stroke-miterlimit="10"/>
<path d="M419.81 350.63C408.4 358.24 411.11 369.65 425.79 367.21C440.47 364.76 435.57 349.82 425.79 349.82" stroke="white" stroke-width="1.42" stroke-miterlimit="10"/>
<path d="M417.36 384.88C404.31 386.51 395.62 400.91 411.65 403.36C427.68 405.81 422.25 388.96 422.25 388.96" stroke="white" stroke-width="1.42" stroke-miterlimit="10"/>
<path d="M420.13 356.07C416.01 358.24 415.46 363.68 421.17 363.41" stroke="white" stroke-width="1.42" stroke-miterlimit="10"/>
<path d="M413.05 390.5C408.39 391.94 407.57 396.28 412.74 397.23" stroke="white" stroke-width="1.42" stroke-miterlimit="10"/>
<path d="M277.61 182.42C272.31 180.9 266.65 203.07 263.78 213.74C260.92 224.41 265.19 216.42 270.64 199.64C276.09 182.86 280.58 183.26 277.61 182.41V182.42Z" fill="white"/>
<path d="M230.57 334C226.27 342.99 245.56 345.01 267.83 349.78C291.44 354.83 277.8 349.01 259.48 344.99C240.6 340.85 231.89 339.3 233.3 334.59C234.71 329.88 232.45 330.05 230.57 334Z" fill="white"/>
<path d="M228.52 313.82C224.82 311.54 217.41 307.51 216.87 299.66C216.33 291.81 221.09 286.34 227.37 284.13C233.64 281.92 233.92 281.66 230.53 278.31C227.14 274.96 222.4 271.57 226.22 262.26C230.04 252.96 237.28 254.01 240.5 254.39C243.72 254.77 245.64 253.76 238.2 250.54C230.76 247.32 228.68 237.28 238.59 231.15C244.78 227.32 248.96 227.2 253.13 229.57" stroke="#3D9BE9" stroke-width="1.42" stroke-miterlimit="10"/>
<path d="M345.64 400.47C343.18 398.69 340.52 396.83 337.64 394.88C333.96 392.39 329.85 390.17 325.86 388.42C321.31 386.42 312.64 384.87 301.25 378.83C290.01 372.86 279.69 362.74 257.57 355.52C235.44 348.3 219.22 349.64 195.42 344.25C171.61 338.86 168.11 330.92 174 324.12C174.74 323.26 175.74 322.6 176.93 322.12C185.17 318.79 202.94 323.65 214.66 325.23C218.85 325.79 222.33 326.28 225.28 326.6" stroke="#3D9BE9" stroke-width="1.42" stroke-miterlimit="10"/>
<path d="M348.39 203.98C350.12 201.41 352.1 199.94 354.21 200.01C361.21 200.24 359.89 207.48 361.28 214.26C362.67 221.05 366.51 226.84 367.15 239.8C367.79 252.76 375.89 260.31 376.37 277.85C376.85 295.39 382.68 306.37 382.88 316.62C382.93 319.56 383.89 322.17 385.51 324.62C386.4 325.96 387.49 327.25 388.74 328.52" stroke="#3D9BE9" stroke-width="1.42" stroke-miterlimit="10"/>
<path d="M333.73 265.55C335.03 265.9 335.92 266.09 336.57 266.09C337.19 266.09 337.6 265.92 337.95 265.55C338.5 264.96 338.92 263.87 339.8 262.16C342.2 257.48 343.02 251.72 342.26 234.17" stroke="#3D9BE9" stroke-width="1.42" stroke-miterlimit="10"/>
<path d="M238.62 282.07C238.55 282.32 238.48 282.56 238.41 282.81" stroke="black" stroke-width="2.83" stroke-miterlimit="10"/>
<path d="M246.89 252.47C246.6 253.51 246.31 254.56 246.02 255.63" stroke="black" stroke-width="2.83" stroke-miterlimit="10"/>
<path d="M230.21 310.76C227.86 318.63 226 324.82 224.72 329.3C221.6 340.21 222.67 344.17 239.59 348.58C249.52 351.17 259.23 353.56 268.39 355.56C306.41 363.85 308.99 367.48 312.83 351.56C317.05 334.06 330.53 278.55 336.41 253.98C343.12 225.92 346.07 213.26 347.01 207.03C348.62 196.32 340.8 194.43 308.11 184.06C275.42 173.69 271.34 171 265.83 187.01C262.22 197.51 257.9 212.12 253.07 229.54" stroke="black" stroke-width="2.83" stroke-miterlimit="10"/>
<path d="M245.78 228.13C248.49 227.48 251.82 228.29 253.78 229.94C254.41 230.47 254.97 231.01 255.46 231.56C263.7 240.82 252.67 252.21 245.23 253.1C244.92 253.14 244.62 253.16 244.33 253.16" stroke="#3D9BE9" stroke-width="1.42" stroke-miterlimit="10"/>
<path d="M243.18 255.02C245.58 255.29 248.66 256.36 251.43 258.13C256.72 261.49 260.93 267.34 257.32 274.83C252.32 285.18 241.74 283.86 233.83 280.41C233.02 280.06 232.24 279.68 231.5 279.3" stroke="#3D9BE9" stroke-width="1.42" stroke-miterlimit="10"/>
<path d="M231.1 282.71C231.88 282.18 233.04 281.85 234.38 281.82C238.11 281.75 243.18 284.13 244.91 291.73C246.99 300.89 236.33 310.05 228.66 311.06C227.69 311.19 226.77 311.18 225.93 311.03" stroke="#3D9BE9" stroke-width="1.42" stroke-miterlimit="10"/>
<path d="M224.01 303.69C220.66 299.26 223.67 289.93 228.62 286.87C233.58 283.8 238.62 285.81 238.62 285.81C238.62 285.81 238.13 300.41 232.65 303.18" stroke="#3D9BE9" stroke-width="1.42" stroke-miterlimit="10"/>
<path d="M249.03 273.27C251.29 270.11 252.63 262.34 252.63 262.34C252.63 262.34 252.66 261.53 246.33 259.75C240 257.97 236.37 256.94 234.14 267.11C231.91 277.28 242.38 278.44 242.38 278.44" stroke="#3D9BE9" stroke-width="1.42" stroke-miterlimit="10"/>
<path d="M242.47 247.45C238.65 245.43 236.06 242.38 238.7 236C241.34 229.62 251.82 231.28 251.82 231.28C251.82 231.28 249.21 241.17 247.8 244.38" stroke="#3D9BE9" stroke-width="1.42" stroke-miterlimit="10"/>
<path d="M206.19 328.7C205.35 337.57 203.17 339.81 203.17 339.81" stroke="#3D9BE9" stroke-width="1.42" stroke-miterlimit="10"/>
<path d="M335.94 333.61C319.86 315.72 337.38 271.57 339.8 262.15" stroke="#3D9BE9" stroke-width="1.42" stroke-miterlimit="10"/>
<path d="M369.05 369.14C365.77 364.5 357.92 359.74 357.92 359.74" stroke="#3D9BE9" stroke-width="1.42" stroke-miterlimit="10"/>
<path d="M341.97 235.91C347.63 244.26 354.74 242.17 354.74 242.17" stroke="#3D9BE9" stroke-width="1.42" stroke-miterlimit="10"/>
<path d="M152.64 402.29L86.9199 449.04" stroke="#3D9BE9" stroke-width="2.83" stroke-miterlimit="10"/>
<path d="M213.26 425.66L196.01 464.94" stroke="#3D9BE9" stroke-width="2.83" stroke-miterlimit="10"/>
<path d="M289.28 439.05L271.92 567.82" stroke="#3D9BE9" stroke-width="2.83" stroke-miterlimit="10"/>
<path d="M128.45 315.71L89.3799 328.16" stroke="#3D9BE9" stroke-width="2.83" stroke-miterlimit="10"/>
<path d="M125.1 256.9L0 257.35" stroke="#3D9BE9" stroke-width="2.83" stroke-miterlimit="10"/>
<path d="M153.9 196.37L116.04 175.08" stroke="#3D9BE9" stroke-width="2.83" stroke-miterlimit="10"/>
<path d="M204.64 162.48L165.04 111.52" stroke="#3D9BE9" stroke-width="2.83" stroke-miterlimit="10"/>
<path d="M268.19 118.51L241 0.320007" stroke="#3D9BE9" stroke-width="2.83" stroke-miterlimit="10"/>
<path d="M328.05 79.34L332.27 33.99" stroke="#3D9BE9" stroke-width="2.83" stroke-miterlimit="10"/>
<path d="M368.55 137L432.5 14.06" stroke="#3D9BE9" stroke-width="2.83" stroke-miterlimit="10"/>
<path d="M417.69 165.92L450.32 137" stroke="#3D9BE9" stroke-width="2.83" stroke-miterlimit="10"/>
<path d="M217.26 302.03C217.26 302.03 217.9 308 225.92 308.69C233.94 309.38 242.25 300.93 242.25 293.29C242.25 285.65 240.55 285.08 242.25 286.5C243.95 287.92 245.36 292.16 244.96 296.28C244.55 300.4 239.14 307.45 232.77 309.89C229.02 311.33 225.92 311.6 222.97 310.37L220.24 307.51L218.19 305.18L217.06 302.63L217.27 302.04L217.26 302.03Z" fill="black"/>
<path d="M256.93 263.13C257.82 266.1 258.07 269.92 255.64 273.52C250.63 280.94 243.67 281.1 236.84 278.9C230.92 276.99 227.84 275.15 224.76 270.5C224.76 270.5 227.74 278.7 236.13 281.32C244.52 283.94 252.31 283.57 256.27 276.72C260.94 268.65 256.93 263.14 256.93 263.14V263.13Z" fill="black"/>
<path d="M232.21 243.83C233.76 246.57 237.22 249.19 245.4 249.58C253.58 249.97 258.41 238.07 256.56 232.98C256.56 232.98 260.59 237.02 256.66 244.77C252.73 252.52 245.3 253.8 242.22 252.59C239.14 251.38 238.55 250.61 236.44 249.58C234.33 248.55 232.21 243.83 232.21 243.83Z" fill="black"/>
</svg>
