<svg width="2253" height="2253" viewBox="0 0 2253 2253" fill="none" xmlns="http://www.w3.org/2000/svg">
<circle cx="1126.5" cy="1126.5" r="1126.5" fill="#9A9A9F"/>
<path d="M1717.12 428.198H536.035C513.661 428.198 492.203 437.086 476.381 452.907C460.56 468.728 451.672 490.186 451.672 512.561V1356.2C451.672 1378.57 460.56 1400.03 476.381 1415.85C492.203 1431.67 513.661 1440.56 536.035 1440.56H1717.12C1739.5 1440.56 1760.96 1431.67 1776.78 1415.85C1792.6 1400.03 1801.49 1378.57 1801.49 1356.2V512.561C1801.49 490.186 1792.6 468.728 1776.78 452.907C1760.96 437.086 1739.5 428.198 1717.12 428.198ZM1652.16 1356.2H606.057L901.329 1050.8L840.588 992.168L536.035 1307.27V576.677L1060.35 1098.47C1076.16 1114.18 1097.54 1123 1119.83 1123C1142.12 1123 1163.5 1114.18 1179.31 1098.47L1717.12 563.601V1301.78L1406.67 991.324L1347.19 1050.8L1652.16 1356.2ZM591.294 512.561H1648.79L1119.83 1038.57L591.294 512.561Z" fill="white"/>
<path d="M480.907 1778.08C466.235 1778.08 452.572 1775.69 439.917 1770.92C427.445 1765.97 416.533 1759.09 407.179 1750.29C398.009 1741.3 390.856 1730.76 385.721 1718.65C380.585 1706.55 378.018 1693.34 378.018 1679.04C378.018 1664.73 380.585 1651.53 385.721 1639.42C390.856 1627.32 398.101 1616.86 407.454 1608.06C416.808 1599.07 427.72 1592.2 440.192 1587.43C452.663 1582.48 466.327 1580 481.183 1580C496.955 1580 511.352 1582.75 524.374 1588.25C537.396 1593.57 548.4 1601.55 557.387 1612.19L534.278 1633.92C527.309 1626.4 519.514 1620.81 510.894 1617.14C502.274 1613.29 492.92 1611.36 482.833 1611.36C472.746 1611.36 463.484 1613.01 455.047 1616.31C446.794 1619.62 439.55 1624.29 433.314 1630.34C427.262 1636.4 422.493 1643.55 419.009 1651.8C415.707 1660.06 414.057 1669.13 414.057 1679.04C414.057 1688.94 415.707 1698.02 419.009 1706.27C422.493 1714.53 427.262 1721.68 433.314 1727.73C439.55 1733.78 446.794 1738.46 455.047 1741.76C463.484 1745.06 472.746 1746.71 482.833 1746.71C492.92 1746.71 502.274 1744.88 510.894 1741.21C519.514 1737.36 527.309 1731.58 534.278 1723.88L557.387 1745.89C548.4 1756.34 537.396 1764.32 524.374 1769.82C511.352 1775.33 496.864 1778.08 480.907 1778.08ZM646.588 1777.25C631.549 1777.25 618.16 1774.04 606.422 1767.62C594.684 1761.02 585.423 1752.03 578.637 1740.66C571.851 1729.29 568.458 1716.36 568.458 1701.87C568.458 1687.2 571.851 1674.27 578.637 1663.08C585.423 1651.71 594.684 1642.82 606.422 1636.4C618.16 1629.98 631.549 1626.77 646.588 1626.77C661.81 1626.77 675.29 1629.98 687.028 1636.4C698.95 1642.82 708.211 1651.62 714.814 1662.81C721.6 1674 724.993 1687.02 724.993 1701.87C724.993 1716.36 721.6 1729.29 714.814 1740.66C708.211 1752.03 698.95 1761.02 687.028 1767.62C675.29 1774.04 661.81 1777.25 646.588 1777.25ZM646.588 1747.82C655.024 1747.82 662.544 1745.98 669.146 1742.31C675.749 1738.64 680.884 1733.33 684.552 1726.36C688.404 1719.39 690.33 1711.23 690.33 1701.87C690.33 1692.34 688.404 1684.17 684.552 1677.39C680.884 1670.42 675.749 1665.1 669.146 1661.43C662.544 1657.76 655.116 1655.93 646.863 1655.93C638.426 1655.93 630.907 1657.76 624.304 1661.43C617.885 1665.1 612.75 1670.42 608.898 1677.39C605.047 1684.17 603.121 1692.34 603.121 1701.87C603.121 1711.23 605.047 1719.39 608.898 1726.36C612.75 1733.33 617.885 1738.64 624.304 1742.31C630.907 1745.98 638.335 1747.82 646.588 1747.82ZM757.877 1775.33V1628.42H790.614V1668.03L784.837 1655.93C789.972 1646.58 797.4 1639.42 807.121 1634.47C817.024 1629.34 828.395 1626.77 841.234 1626.77C852.972 1626.77 863.426 1629.06 872.596 1633.65C881.949 1638.23 889.286 1645.29 894.604 1654.83C899.923 1664.18 902.582 1676.29 902.582 1691.14V1775.33H868.194V1695.54C868.194 1682.52 865.076 1672.8 858.841 1666.38C852.788 1659.96 844.26 1656.76 833.256 1656.76C825.186 1656.76 818.033 1658.41 811.797 1661.71C805.562 1665.01 800.701 1669.96 797.217 1676.56C793.916 1682.98 792.265 1691.14 792.265 1701.05V1775.33H757.877ZM1001.5 1777.25C985.363 1777.25 972.891 1773.12 964.088 1764.87C955.284 1756.44 950.883 1744.06 950.883 1727.73V1595.96H985.271V1726.91C985.271 1733.88 987.013 1739.29 990.498 1743.14C994.166 1746.99 999.21 1748.92 1005.63 1748.92C1013.33 1748.92 1019.75 1746.9 1024.89 1742.86L1034.51 1767.35C1030.48 1770.65 1025.53 1773.12 1019.66 1774.78C1013.79 1776.43 1007.74 1777.25 1001.5 1777.25ZM926.673 1655.93V1628.42H1024.61V1655.93H926.673ZM1148.21 1775.33V1745.61L1146.28 1739.29V1687.29C1146.28 1677.2 1143.26 1669.41 1137.2 1663.91C1131.15 1658.22 1121.98 1655.38 1109.69 1655.38C1101.44 1655.38 1093.28 1656.66 1085.21 1659.23C1077.32 1661.8 1070.63 1665.38 1065.13 1669.96L1051.65 1644.93C1059.53 1638.87 1068.89 1634.38 1079.71 1631.45C1090.71 1628.33 1102.08 1626.77 1113.82 1626.77C1135.1 1626.77 1151.51 1631.9 1163.06 1642.17C1174.8 1652.26 1180.67 1667.94 1180.67 1689.22V1775.33H1148.21ZM1101.99 1777.25C1090.99 1777.25 1081.36 1775.42 1073.11 1771.75C1064.85 1767.9 1058.43 1762.67 1053.85 1756.07C1049.45 1749.28 1047.25 1741.67 1047.25 1733.23C1047.25 1724.98 1049.17 1717.55 1053.02 1710.95C1057.06 1704.35 1063.57 1699.12 1072.55 1695.27C1081.54 1691.42 1093.46 1689.49 1108.32 1689.49H1150.96V1712.33H1110.79C1099.06 1712.33 1091.17 1714.25 1087.14 1718.1C1083.1 1721.77 1081.08 1726.36 1081.08 1731.86C1081.08 1738.09 1083.56 1743.05 1088.51 1746.71C1093.46 1750.38 1100.34 1752.22 1109.14 1752.22C1117.58 1752.22 1125.1 1750.29 1131.7 1746.44C1138.49 1742.59 1143.35 1736.9 1146.28 1729.38L1152.06 1750.02C1148.76 1758.64 1142.8 1765.33 1134.18 1770.1C1125.74 1774.87 1115.01 1777.25 1101.99 1777.25ZM1292.47 1777.25C1277.07 1777.25 1263.31 1774.04 1251.21 1767.62C1239.29 1761.02 1229.93 1752.03 1223.15 1740.66C1216.36 1729.29 1212.97 1716.36 1212.97 1701.87C1212.97 1687.2 1216.36 1674.27 1223.15 1663.08C1229.93 1651.71 1239.29 1642.82 1251.21 1636.4C1263.31 1629.98 1277.07 1626.77 1292.47 1626.77C1306.78 1626.77 1319.34 1629.7 1330.16 1635.57C1341.17 1641.26 1349.51 1649.69 1355.2 1660.88L1328.79 1676.29C1324.39 1669.32 1318.98 1664.18 1312.56 1660.88C1306.32 1657.58 1299.54 1655.93 1292.2 1655.93C1283.76 1655.93 1276.15 1657.76 1269.37 1661.43C1262.58 1665.1 1257.26 1670.42 1253.41 1677.39C1249.56 1684.17 1247.63 1692.34 1247.63 1701.87C1247.63 1711.41 1249.56 1719.66 1253.41 1726.63C1257.26 1733.42 1262.58 1738.64 1269.37 1742.31C1276.15 1745.98 1283.76 1747.82 1292.2 1747.82C1299.54 1747.82 1306.32 1746.16 1312.56 1742.86C1318.98 1739.56 1324.39 1734.43 1328.79 1727.46L1355.2 1742.86C1349.51 1753.87 1341.17 1762.4 1330.16 1768.45C1319.34 1774.32 1306.78 1777.25 1292.47 1777.25ZM1442.1 1777.25C1425.96 1777.25 1413.49 1773.12 1404.69 1764.87C1395.88 1756.44 1391.48 1744.06 1391.48 1727.73V1595.96H1425.87V1726.91C1425.87 1733.88 1427.61 1739.29 1431.1 1743.14C1434.77 1746.99 1439.81 1748.92 1446.23 1748.92C1453.93 1748.92 1460.35 1746.9 1465.49 1742.86L1475.11 1767.35C1471.08 1770.65 1466.13 1773.12 1460.26 1774.78C1454.39 1776.43 1448.34 1777.25 1442.1 1777.25ZM1367.27 1655.93V1628.42H1465.21V1655.93H1367.27ZM1641.61 1777.25C1629.14 1777.25 1618.13 1774.96 1608.59 1770.37C1599.06 1765.61 1591.63 1758.45 1586.31 1748.92C1580.99 1739.2 1578.33 1727 1578.33 1712.33V1628.42H1612.72V1707.65C1612.72 1720.85 1615.66 1730.76 1621.52 1737.36C1627.58 1743.78 1636.1 1746.99 1647.11 1746.99C1655.18 1746.99 1662.15 1745.34 1668.02 1742.04C1674.07 1738.74 1678.75 1733.78 1682.05 1727.18C1685.53 1720.58 1687.27 1712.42 1687.27 1702.7V1628.42H1721.66V1775.33H1688.93V1735.71L1694.7 1747.82C1689.75 1757.35 1682.51 1764.69 1672.97 1769.82C1663.43 1774.78 1652.98 1777.25 1641.61 1777.25ZM1812.08 1777.25C1799.79 1777.25 1787.96 1775.69 1776.59 1772.57C1765.4 1769.27 1756.51 1765.33 1749.91 1760.75L1763.11 1734.61C1769.71 1738.83 1777.6 1742.31 1786.77 1745.06C1795.94 1747.82 1805.11 1749.19 1814.28 1749.19C1825.1 1749.19 1832.9 1747.72 1837.67 1744.79C1842.62 1741.85 1845.09 1737.91 1845.09 1732.96C1845.09 1728.92 1843.44 1725.9 1840.14 1723.88C1836.84 1721.68 1832.53 1720.03 1827.21 1718.93C1821.89 1717.83 1815.93 1716.82 1809.33 1715.9C1802.91 1714.99 1796.4 1713.79 1789.8 1712.33C1783.38 1710.68 1777.51 1708.38 1772.19 1705.45C1766.87 1702.33 1762.56 1698.2 1759.26 1693.07C1755.96 1687.93 1754.31 1681.15 1754.31 1672.71C1754.31 1663.36 1756.97 1655.29 1762.29 1648.5C1767.6 1641.53 1775.03 1636.21 1784.57 1632.55C1794.29 1628.69 1805.75 1626.77 1818.96 1626.77C1828.86 1626.77 1838.86 1627.87 1848.94 1630.07C1859.03 1632.27 1867.38 1635.39 1873.98 1639.42L1860.77 1665.56C1853.8 1661.34 1846.74 1658.5 1839.59 1657.03C1832.62 1655.38 1825.65 1654.55 1818.68 1654.55C1808.23 1654.55 1800.43 1656.11 1795.3 1659.23C1790.35 1662.35 1787.87 1666.29 1787.87 1671.06C1787.87 1675.46 1789.52 1678.76 1792.82 1680.96C1796.12 1683.17 1800.43 1684.91 1805.75 1686.19C1811.07 1687.48 1816.94 1688.58 1823.36 1689.49C1829.96 1690.23 1836.47 1691.42 1842.89 1693.07C1849.31 1694.72 1855.18 1697.01 1860.5 1699.95C1866 1702.7 1870.4 1706.64 1873.7 1711.78C1877.01 1716.91 1878.66 1723.61 1878.66 1731.86C1878.66 1741.03 1875.9 1749.01 1870.4 1755.79C1865.08 1762.58 1857.47 1767.9 1847.57 1771.75C1837.67 1775.42 1825.84 1777.25 1812.08 1777.25Z" fill="white"/>
</svg>
