<svg width="515" height="316" viewBox="0 0 515 316" fill="none" xmlns="http://www.w3.org/2000/svg">
<path d="M255.711 3.84768L459.118 194.043C461.438 196.212 461.56 199.856 459.39 202.175L408.522 256.568C406.352 258.888 402.708 259.01 400.388 256.841L196.981 66.6458C194.711 64.5231 194.591 60.9534 196.714 58.6835L247.745 4.11754C249.868 1.84762 253.438 1.72795 255.708 3.85062L255.711 3.84768Z" fill="#3D9BE9"/>
<path d="M459.944 201.282L453.655 208.003C452.993 208.71 451.88 208.75 451.174 208.087L242.28 12.7434C241.574 12.0809 241.533 10.9687 242.196 10.2621L248.565 3.45229C250.291 1.60529 253.191 1.50891 255.038 3.23545L459.719 194.64C461.614 196.411 461.715 199.386 459.94 201.282H459.944Z" fill="white"/>
<path d="M200.322 54.7588C196.7 58.6335 196.311 59.9142 207.454 70.3377C218.597 80.7612 390.756 241.751 397.502 248.059C404.248 254.367 405.288 251.492 414.34 241.815L457.073 196.126C458.165 194.962 459.992 194.898 461.161 195.99C462.325 197.082 462.39 198.909 461.297 200.077L408.573 256.451C406.349 258.832 402.614 258.956 400.237 256.728L196.945 66.6196C194.672 64.4956 194.552 60.9301 196.68 58.6575L200.326 54.7588H200.322Z" fill="#333333"/>
<path d="M459.651 201.595L452.456 209.288L448.348 205.449L459.045 194.014L459.407 194.351C461.475 196.287 461.583 199.531 459.647 201.599L459.651 201.595Z" fill="#3D9BE9"/>
<path d="M404.267 259.378C402.613 259.378 400.954 258.775 399.653 257.559L196.257 67.3544C194.964 66.1418 194.217 64.4996 194.157 62.7289C194.097 60.9582 194.731 59.2679 195.944 57.975L246.978 3.41224C248.191 2.11935 249.833 1.37252 251.604 1.3123C253.379 1.25608 255.065 1.8865 256.358 3.09909L459.754 193.303C461.071 194.536 461.83 196.207 461.891 198.013C461.951 199.82 461.304 201.535 460.071 202.856L409.198 257.246C407.869 258.667 406.066 259.386 404.263 259.386L404.267 259.378ZM401.027 256.093C402.938 257.88 405.95 257.78 407.741 255.868L458.61 201.478C459.477 200.551 459.931 199.342 459.887 198.078C459.843 196.809 459.313 195.636 458.385 194.769L254.989 4.56461C254.085 3.72141 252.909 3.28376 251.672 3.3199C250.435 3.36005 249.291 3.88204 248.448 4.78546L197.414 59.3481C196.571 60.2516 196.125 61.428 196.169 62.6647C196.209 63.9014 196.731 65.0457 197.635 65.8889L401.031 256.093H401.027Z" fill="#333333"/>
<path d="M241.681 10.5148L240.31 11.9812L452.035 209.954L453.406 208.488L241.681 10.5148Z" fill="#333333"/>
<path d="M240.488 16.7847L201.26 58.7156L202.726 60.0871L241.954 18.1561L240.488 16.7847Z" fill="white"/>
<path d="M7.82402 261.896C5.02116 261.896 2.74032 259.639 2.71623 256.836C2.71623 256.816 2.71623 256.796 2.71623 256.772C2.67206 252.114 2.58371 245.646 2.46726 238.17C2.11389 214.845 1.50353 181.752 1.15819 163.599C0.993556 154.866 0.97749 149.418 1.00961 146.069C1.03772 143.266 3.31455 141.014 6.11339 141.014H244.654C247.513 141.014 249.818 143.359 249.757 146.217C249.681 150.064 249.52 156.368 249.203 166.153C248.484 188.208 247.85 220.41 247.517 242.233C247.452 246.71 247.396 250.757 247.356 254.182C247.344 255.198 247.336 256.053 247.324 256.796C247.292 259.591 245.015 261.839 242.22 261.839L7.81598 261.896H7.82402Z" fill="white"/>
<path d="M2.57227 239.559C2.57227 250.199 2.80517 257.828 20.0721 257.828H234.101C241.329 257.828 243.337 255.017 243.337 241.767L245.345 141.018H245.987C248.1 141.018 249.802 142.752 249.758 144.868L247.437 257.519C247.389 259.812 245.518 261.643 243.229 261.643H6.80868C4.48367 261.643 2.60037 259.759 2.59636 257.439L2.57227 239.563V239.559Z" fill="#3D9BE9"/>
<path d="M242.216 262.642H7.71147C4.34241 262.642 1.60381 259.904 1.60381 256.539C1.60381 252.375 1.58774 245.947 1.46727 238.186C1.13398 216.266 0.571803 185.538 0.162217 163.619C0.021672 156.223 -0.0265127 150.313 0.0136429 146.061C0.0457673 142.724 2.78438 140.014 6.12131 140.014H244.662C246.316 140.014 247.866 140.664 249.026 141.849C250.183 143.029 250.801 144.591 250.769 146.245C250.697 149.771 250.544 156.095 250.215 166.193C249.48 188.774 248.85 221.282 248.528 242.253C248.436 248.477 248.368 253.146 248.328 256.607C248.292 259.936 245.553 262.646 242.22 262.646L242.216 262.642ZM6.11729 142.017C3.87661 142.017 2.03749 143.84 2.01741 146.077C1.97725 150.309 2.02945 156.199 2.16598 163.579C2.57958 185.502 3.14176 216.234 3.47104 238.153C3.59151 245.927 3.60757 252.367 3.60757 256.535C3.60757 258.796 5.44669 260.635 7.70745 260.635H242.216C244.453 260.635 246.292 258.816 246.316 256.579C246.352 253.118 246.424 248.444 246.517 242.217C246.834 221.237 247.468 188.718 248.203 166.121C248.528 156.03 248.685 149.714 248.757 146.197C248.781 145.089 248.364 144.041 247.589 143.246C246.81 142.451 245.77 142.013 244.657 142.013H6.11729V142.017Z" fill="#333333"/>
<path d="M228.988 105.447C228.748 105.776 228.487 106.093 228.189 106.406C183.247 107.595 71.2935 107.366 32.3265 106.177C31.2744 106.077 30.2705 105.828 29.3269 105.447C24.1548 103.391 20.7858 97.5649 22.3438 91.5983H22.3478C24.978 81.5241 41.6587 71.0243 87.436 77.4928C87.8536 77.549 88.2753 77.6092 88.6969 77.6695C88.7009 77.6695 88.7049 77.6735 88.709 77.6735C89.4117 77.7739 90.1224 77.8863 90.8412 77.9947C84.3561 53.3454 122.291 40.3923 122.291 40.3923C124.138 67.9086 181.404 60.7293 213.709 80.9941C219.5 84.6238 224.491 89.137 228.213 94.8948C230.956 99.1429 231.048 102.624 228.984 105.447H228.988Z" fill="white"/>
<path d="M228.989 98.7052C228.748 98.9542 228.487 99.1951 228.19 99.432C183.248 100.335 71.2942 100.159 32.3273 99.2593C31.2752 99.183 27.8861 99.2272 26.8982 99.2272C21.6579 99.2272 20.5215 97.7336 22.0796 93.2044L22.3486 90.7953C21.2443 96.0191 35.7325 96.0151 58.3923 96.0151C81.0521 96.0151 118.762 100.641 110.739 96.1555C102.72 91.6705 101.186 93.2044 93.1549 87.1816C87.2681 82.7689 86.3887 77.5772 88.6414 77.4888C89.031 77.4688 89.4606 77.517 89.9023 77.6254C89.9064 77.6254 88.7057 77.6254 88.7097 77.6254C91.7415 78.3642 91.882 87.9203 105.957 91.5541C114.016 93.638 126.147 94.3888 138.812 93.7504C149.373 93.2164 100.817 99.3476 179.232 96.7819C214.473 95.6296 216.882 87.1013 212.819 80.7532C218.609 83.5077 221.143 86.4227 224.865 90.7913C227.608 94.0155 231.053 96.5611 228.989 98.7012V98.7052Z" fill="#3D9BE9"/>
<path d="M228.748 106.844L227.443 105.318C227.483 105.282 227.868 104.957 228.459 104.595C229.35 104.045 229.868 103.391 230.049 102.592C230.494 100.612 228.852 97.7334 227.37 95.4408C215.283 76.754 189.251 71.3135 166.282 66.5153C143.377 61.7292 123.512 57.5774 121.42 41.7816C118.633 42.8496 111.437 45.853 104.783 50.6311C93.6884 58.5973 89.2632 67.4709 91.6324 77.003C92.9455 82.283 97.8605 86.7238 105.47 89.5024C113.939 92.5941 125.407 93.6018 138.63 92.4173L138.811 94.417C112.116 96.81 92.833 90.1648 89.6808 77.4888C87.1269 67.2139 91.9576 57.3565 103.643 48.9768C112.321 42.7572 121.572 39.5732 121.962 39.4407L123.199 39.019L123.287 40.324C124.319 55.6982 143.955 59.7978 166.687 64.5478C190.042 69.4263 216.508 74.9592 229.053 94.3486C230.94 97.2717 232.607 100.343 232 103.03C231.699 104.363 230.86 105.463 229.507 106.302C229.049 106.587 228.744 106.844 228.74 106.844H228.748Z" fill="#333333"/>
<path d="M30.3318 106.976C29.874 106.976 29.2837 106.816 28.577 106.627L28.6734 106.266C22.8428 103.776 19.7267 97.348 21.4132 91.1847C22.4171 87.5228 26.0753 80.8214 39.3347 77.1073C51.6865 73.6462 69.0659 73.6101 90.9908 77.0029L90.6856 78.9864C45.5186 72 26.2881 80.982 23.3487 91.7186C21.9071 96.9906 24.6337 102.495 29.6933 104.519C30.7454 104.941 31.6569 105.306 31.3317 106.282C31.159 106.8 30.8177 106.98 30.3278 106.98L30.3318 106.976Z" fill="#333333"/>
<path d="M15.2528 140.58C15.2528 137.263 15.6423 135.693 14.7348 134.934C14.4899 134.726 14.1365 134.501 13.6426 134.188C11.3216 132.722 9.20942 129.269 13.6426 129.518C18.0758 129.767 16.8069 125.547 15.9636 123.435C15.1203 121.323 9.5146 120.504 11.0485 118.593C12.5865 116.681 16.3852 117.946 16.3852 114.148C16.3852 110.349 35.0897 110.61 128.741 110.61C222.391 110.61 236.325 109.506 237.173 116.26C238.016 123.013 236.751 123.856 240.55 123.856C244.348 123.856 243.084 127.655 238.438 128.076C238 128.121 237.634 128.233 237.337 128.41C234.474 130.124 237.695 137.902 237.313 140.58H15.2528Z" fill="white"/>
<path d="M12.7906 129.498C10.6302 130.273 11.0318 132.28 16.252 132.28C21.4722 132.28 92.6158 133.224 140.168 132.152C187.716 131.076 228.093 128.727 233.205 127.093C238.316 125.458 233.899 126.663 234.702 123.852C235.505 121.042 236.855 124.202 237.987 124.029C239.119 123.852 241.485 123.917 242.312 125.29C243.139 126.663 241.167 127.595 234.321 128.936C227.474 130.277 194.487 133.621 137.096 134.561C79.7058 135.496 34.7396 134.83 26.1021 134.561C17.4647 134.292 14.2522 134.693 12.2445 133.087C10.2367 131.481 10.6382 130.277 11.0398 129.875C11.4413 129.474 12.7986 129.502 12.7986 129.502L12.7906 129.498Z" fill="#3D9BE9"/>
<path d="M13.4372 117.822C11.0279 119.026 14.6419 119.829 27.0901 120.231C39.5384 120.632 114.332 121.363 150.621 119.592C186.909 117.822 186.596 113.839 199.602 113.823C212.609 113.806 230.277 111.799 232.285 112.602C234.293 113.405 236.618 114.112 236.859 116.569C237.1 119.026 236.361 121.937 237.333 123.294C238.304 124.648 237.369 124.648 235.831 125.049C234.293 125.451 233.036 125.72 233.662 122.375C234.289 119.026 234.751 117.107 229.101 116.26C223.451 115.413 206.381 118.211 178.272 120.359C150.163 122.507 91.9374 123.507 65.7359 122.873C39.5344 122.238 25.512 122.05 19.8742 121.741C14.2363 121.431 11.0841 120.958 11.052 119.588C11.0239 118.219 13.4332 117.818 13.4332 117.818L13.4372 117.822Z" fill="#3D9BE9"/>
<path d="M237.338 128.414C237.185 128.434 237.025 128.458 236.86 128.482C229.785 129.534 181.566 132.878 106.258 133.023C30.9502 133.168 14.7354 133.091 14.7354 133.091C15.6429 133.637 15.1208 137.002 15.1208 139.379C15.1208 141.756 14.6992 140.584 123.192 140.584C231.684 140.584 236.752 141.901 237.173 139.781C237.559 137.861 234.475 129.642 237.338 128.414ZM213.212 137.829C197.118 138.672 46.5707 139.439 31.7131 138.576C18.6706 137.817 15.9521 136.167 29.0468 136.167C37.4915 136.167 66.9497 136.412 110.812 136.568C191.524 136.858 214.758 132.477 227.267 134.159C233.692 135.023 229.672 136.966 213.208 137.829H213.212Z" fill="#3D9BE9"/>
<path d="M45.0928 122.592C45.0928 122.592 29.0507 122.17 19.3973 121.712C9.74387 121.255 15.1207 122.17 16.6707 125.728C18.2207 129.286 12.1652 128.924 18.1966 129.663C24.228 130.402 27.3601 129.768 23.8545 129.816C20.349 129.864 17.6505 126.816 19.9715 124.306C20.7023 123.515 32.3113 123.138 48.6908 122.929L45.0888 122.596L45.0928 122.592Z" fill="#3D9BE9"/>
<path d="M102.081 117.208C51.4252 117.208 29.0505 116.26 32.006 114.995C34.9614 113.73 116.24 113.714 116.24 113.714C116.24 113.714 42.338 114.425 26.1955 111.546C10.0529 108.667 19.3931 110.851 17.2569 113.136C15.1206 115.421 13.4742 117.039 18.9434 117.075C24.4086 117.112 62.0062 117.489 62.0062 117.489L102.081 117.216V117.208Z" fill="#3D9BE9"/>
<path d="M237.983 141.784H14.1155V140.78C14.1155 139.708 14.1677 138.841 14.2119 138.142C14.3363 136.087 14.3524 135.822 13.1076 135.035C11.6499 134.115 9.55782 131.967 10.1481 130.12C10.4051 129.313 11.2323 128.377 13.7019 128.514C14.6415 128.566 15.2599 128.393 15.541 128C15.7659 127.687 16.1714 126.647 15.035 123.804C14.8021 123.222 13.6055 122.592 12.6418 122.086C11.3126 121.387 10.0557 120.724 9.82284 119.588C9.74253 119.203 9.75458 118.604 10.2726 117.958C11.0596 116.978 12.196 116.649 13.1999 116.36C14.754 115.91 15.3884 115.669 15.3884 114.144C15.3884 111.389 19.4843 110.502 34.4462 110.028C48.4445 109.586 72.3089 109.59 111.846 109.598H128.752C141.65 109.598 153.034 109.578 163.081 109.562C194.157 109.506 212.914 109.47 223.519 110.181C234.144 110.891 237.706 112.337 238.18 116.131C238.4 117.902 238.481 119.299 238.541 120.323C238.605 121.431 238.661 122.387 238.85 122.632C238.926 122.732 239.288 122.852 240.561 122.852C242.874 122.852 243.749 124.081 243.797 125.129C243.874 126.828 241.93 128.767 238.541 129.076C237.963 129.128 237.722 129.365 237.585 129.542C236.67 130.734 237.252 134.067 237.682 136.5C237.995 138.299 238.268 139.853 238.115 140.921L237.991 141.784H237.983ZM16.1393 139.777H236.124C236.063 138.97 235.879 137.897 235.694 136.846C235.148 133.738 234.533 130.212 235.983 128.321C236.545 127.586 237.34 127.169 238.348 127.076C240.774 126.856 241.802 125.643 241.782 125.222C241.778 125.097 241.408 124.86 240.549 124.86C236.963 124.86 236.714 123.724 236.525 120.439C236.465 119.391 236.389 118.086 236.176 116.384C235.557 111.441 223.073 111.465 163.077 111.574C153.03 111.594 141.642 111.614 128.744 111.614H111.838C72.321 111.606 48.4726 111.598 34.5025 112.044C27.5676 112.264 23.0782 112.594 20.3637 113.084C17.5648 113.589 17.3922 114.148 17.3922 114.152C17.3922 117.247 15.2037 117.882 13.7541 118.299C12.967 118.524 12.2242 118.741 11.8346 119.227C11.8346 119.227 11.8346 119.231 11.8306 119.235C12.0876 119.536 13.0072 120.018 13.5774 120.319C14.8985 121.014 16.3923 121.801 16.9023 123.069C18.0106 125.836 18.1029 127.896 17.1753 129.18C16.4646 130.168 15.2599 130.618 13.5935 130.526C12.3326 130.453 12.0675 130.738 12.0635 130.742C11.9551 131.036 12.6819 132.397 14.1837 133.344C16.4365 134.766 16.3562 136.087 16.2196 138.275C16.1915 138.729 16.1634 139.223 16.1433 139.785L16.1393 139.777Z" fill="#333333"/>
<path d="M236.751 109.084C236.751 113.517 235.486 113.726 131.21 113.726C51.8466 113.726 23.9827 112.461 18.915 111.614C15.3854 111.028 15.1364 110.233 15.305 106.523C15.3813 104.904 15.5379 102.74 15.5379 99.7931C15.5379 98.2152 126.142 99.8213 180.601 99.8213C207.911 99.8213 222.917 98.6167 230.683 98.6167C233.093 98.6167 233.454 98.8897 234.699 99.4197C237.654 100.685 236.747 106.434 236.747 109.076L236.751 109.084Z" fill="#F4FAFF"/>
<path d="M236.751 109.084C236.751 113.517 235.486 113.726 131.21 113.726C51.8466 113.726 23.9827 112.461 18.915 111.614C15.3854 111.028 15.1364 110.233 15.305 106.523C18.903 109.08 32.0379 111.2 74.2093 111.2C74.2093 111.2 183.244 111.927 218.231 110.662C234.314 110.08 234.093 106.077 234.093 103.571C234.093 101.066 232.089 99.2472 228.877 98.8256C227.094 98.5927 230.009 98.9621 231.687 98.4241C233.82 98.8818 233.253 98.6971 234.498 99.2271C237.454 100.492 236.747 106.442 236.747 109.084H236.751Z" fill="#3D9BE9"/>
<path d="M131.214 114.73C57.697 114.73 24.918 113.633 18.7541 112.606C14.4695 111.895 14.1322 110.361 14.3089 106.478C14.325 106.145 14.3451 105.788 14.3651 105.406C14.4414 103.941 14.5418 102.114 14.5418 99.7971V99.3795L14.855 99.0542C15.3489 98.5644 15.8188 98.1027 45.5299 98.1027H46.6864C64.9531 98.1107 89.5123 98.2913 113.26 98.464C137.406 98.6407 162.371 98.8254 180.609 98.8254C198.848 98.8254 210.714 98.3234 219.709 97.9581C224.327 97.7693 227.973 97.6208 230.691 97.6208C232.976 97.6208 233.627 97.8617 234.767 98.3596L235.1 98.5042C238.192 99.8292 237.963 104.467 237.815 107.538C237.787 108.113 237.759 108.659 237.759 109.084C237.759 112.485 235.94 113.489 223.134 114.071C209.975 114.669 185.018 114.734 131.218 114.734L131.214 114.73ZM16.5416 100.56C16.5255 102.568 16.4372 104.186 16.3649 105.515C16.3448 105.892 16.3247 106.245 16.3087 106.575C16.1521 110.008 16.2565 110.16 19.0794 110.63C21.1795 110.979 36.4627 112.726 131.21 112.726C184.982 112.726 209.915 112.662 223.038 112.068C229.294 111.782 232.856 111.373 234.578 110.739C235.747 110.309 235.747 110 235.747 109.084C235.747 108.606 235.775 108.04 235.803 107.438C235.928 104.924 236.112 101.122 234.305 100.347L233.956 100.195C233.032 99.789 232.647 99.6244 230.683 99.6244C228.001 99.6244 224.375 99.7729 219.781 99.9576C211.28 100.303 198.434 100.829 180.601 100.829C162.768 100.829 137.386 100.644 113.236 100.468C70.7235 100.154 22.7617 99.801 16.5375 100.556L16.5416 100.56Z" fill="#333333"/>
<path d="M141.313 101.195C98.3302 101.195 51.9625 100.741 29.877 100.031L29.9412 98.0227C67.1614 99.2274 173.449 99.6851 216.01 98.4885C227.695 98.1592 231.707 97.7938 233.012 97.5488L233.385 99.5205C231.382 99.902 225.555 100.227 216.066 100.496C198.731 100.982 170.815 101.199 141.313 101.199V101.195Z" fill="#333333"/>
<path d="M70.4103 135.541C36.4267 135.541 16.8348 135.255 14.6302 135.011C12.1406 134.733 9.91196 132.758 10.0405 130.947C10.0886 130.301 10.5304 128.811 13.6625 128.915C31.8489 129.514 53.0832 129.927 129.094 128.915C171.916 128.345 196.005 127.771 212.236 126.94C221.186 126.482 227.579 125.936 231.78 125.282C237.546 124.378 237.654 123.471 237.658 123.431L238.863 123.487C238.767 125.523 234.289 127.012 212.3 128.141C196.053 128.976 171.952 129.546 129.11 130.12C53.0752 131.132 31.8208 130.718 13.6223 130.12C12.1767 130.076 11.2893 130.413 11.2451 131.031C11.1769 131.963 12.6586 133.573 14.7668 133.81C17.8146 134.147 54.6453 134.561 117.18 134.179C178.754 133.802 229.495 130.425 238.253 127.506C242.096 126.225 242.096 125.41 242.091 125.374C242.067 124.944 240.642 124.306 239.433 124.049L239.686 122.873C240.509 123.049 243.208 123.748 243.296 125.31C243.364 126.522 241.927 127.554 238.634 128.65C229.792 131.598 178.879 135.006 117.188 135.384C99.479 135.492 83.8223 135.537 70.4144 135.537L70.4103 135.541Z" fill="#333333"/>
<path d="M81.1722 123.528C50.4331 123.528 17.8589 122.922 12.4941 121.54C10.0326 120.906 9.64306 119.934 9.74747 119.231C10.0286 117.376 14.4296 116.228 20.212 116.505C28.6005 116.906 91.2151 117.384 146.811 115.662L146.847 116.866C91.2191 118.593 28.5483 118.111 20.1518 117.71C13.8995 117.416 11.0284 118.81 10.9361 119.412C10.924 119.505 11.2091 119.966 12.7913 120.376C22.2519 122.813 134.515 123.448 179.18 119.685L179.28 120.886C160.13 122.5 124.368 123.488 83.6136 123.528C82.7985 123.528 81.9833 123.528 81.1682 123.528H81.1722Z" fill="#333333"/>
<path d="M211.011 171.698H39.9482V224.297H211.011V171.698Z" fill="#3D9BE9"/>
<path d="M212.015 225.301H38.9443V170.694H212.015V225.301ZM40.9521 223.293H210.007V172.701H40.9521V223.293Z" fill="#333333"/>
<path d="M57.1232 191.926C57.9545 192.36 58.597 192.982 59.0507 193.789C59.5045 194.596 59.7293 195.544 59.7293 196.636C59.7293 197.728 59.5045 198.672 59.0507 199.471C58.597 200.27 57.9545 200.888 57.1232 201.322C56.292 201.755 55.3082 201.972 54.1799 201.972H52.0034V205.759H48.4697V191.272H54.1839C55.3122 191.272 56.296 191.488 57.1273 191.922L57.1232 191.926ZM55.6054 198.198C55.9748 197.833 56.1595 197.311 56.1595 196.636C56.1595 195.961 55.9748 195.435 55.6054 195.062C55.2359 194.689 54.6898 194.504 53.963 194.504H51.9994V198.748H53.963C54.6898 198.748 55.2359 198.567 55.6054 198.198Z" fill="white"/>
<path d="M71.4742 202.595V205.763H61.4434V191.276H71.2453V194.444H64.9449V196.885H70.4984V199.949H64.9449V202.599H71.4782L71.4742 202.595Z" fill="white"/>
<path d="M82.0969 191.926C82.9281 192.36 83.5706 192.982 84.0244 193.789C84.4781 194.596 84.703 195.544 84.703 196.636C84.703 197.728 84.4781 198.672 84.0244 199.471C83.5706 200.27 82.9281 200.888 82.0969 201.322C81.2657 201.755 80.2819 201.972 79.1535 201.972H76.9771V205.759H73.4434V191.272H79.1575C80.2899 191.272 81.2697 191.488 82.1009 191.922L82.0969 191.926ZM80.579 198.198C80.9484 197.833 81.1332 197.311 81.1332 196.636C81.1332 195.961 80.9484 195.435 80.579 195.062C80.2096 194.689 79.6635 194.504 78.9367 194.504H76.973V198.748H78.9367C79.6635 198.748 80.2096 198.567 80.579 198.198Z" fill="white"/>
<path d="M88.7734 194.524H84.9346V191.276H96.1259V194.524H92.3071V205.763H88.7734V194.524Z" fill="white"/>
<path d="M97.4482 191.276H100.982V205.763H97.4482V191.276Z" fill="white"/>
<path d="M103.499 191.276H109.406C110.775 191.276 111.988 191.573 113.048 192.167C114.108 192.761 114.927 193.601 115.51 194.693C116.092 195.781 116.385 197.058 116.385 198.523C116.385 199.989 116.092 201.262 115.51 202.354C114.927 203.442 114.104 204.285 113.048 204.879C111.988 205.474 110.775 205.771 109.406 205.771H103.499V191.284V191.276ZM109.265 202.494C110.338 202.494 111.197 202.141 111.843 201.438C112.49 200.736 112.815 199.764 112.815 198.519C112.815 197.275 112.49 196.307 111.843 195.6C111.193 194.898 110.334 194.544 109.265 194.544H107.033V202.49H109.265V202.494Z" fill="white"/>
<path d="M128.276 202.595V205.763H118.245V191.276H128.047V194.444H121.747V196.885H127.3V199.949H121.747V202.599H128.28L128.276 202.595Z" fill="white"/>
<path d="M138.138 205.088C137.098 204.446 136.279 203.554 135.684 202.41C135.09 201.266 134.793 199.969 134.793 198.519C134.793 197.07 135.09 195.773 135.684 194.628C136.279 193.484 137.098 192.589 138.138 191.946C139.178 191.304 140.355 190.983 141.664 190.983C142.808 190.983 143.836 191.216 144.752 191.685C145.667 192.155 146.43 192.83 147.036 193.713L144.788 196.074C143.977 194.942 142.997 194.375 141.844 194.375C141.166 194.375 140.563 194.548 140.033 194.893C139.503 195.239 139.094 195.725 138.8 196.351C138.507 196.977 138.363 197.7 138.363 198.515C138.363 199.33 138.507 200.049 138.8 200.679C139.094 201.306 139.503 201.796 140.033 202.137C140.563 202.482 141.166 202.655 141.844 202.655C142.997 202.655 143.981 202.089 144.788 200.956L147.036 203.317C146.43 204.201 145.667 204.875 144.752 205.345C143.836 205.815 142.804 206.048 141.664 206.048C140.355 206.048 139.178 205.726 138.138 205.084V205.088Z" fill="white"/>
<path d="M154.072 201.912H152.144V205.763H148.61V191.276H154.325C155.453 191.276 156.437 191.493 157.268 191.926C158.099 192.36 158.742 192.982 159.195 193.789C159.649 194.596 159.874 195.544 159.874 196.636C159.874 197.728 159.661 198.6 159.24 199.379C158.818 200.157 158.212 200.768 157.429 201.21L160.123 205.763H156.34L154.072 201.912ZM155.75 195.062C155.381 194.689 154.834 194.504 154.108 194.504H152.144V198.748H154.108C154.834 198.748 155.381 198.567 155.75 198.198C156.119 197.833 156.304 197.311 156.304 196.636C156.304 195.962 156.119 195.436 155.75 195.062Z" fill="white"/>
<path d="M171.848 202.595V205.763H161.817V191.276H171.619V194.444H165.319V196.885H170.872V199.949H165.319V202.599H171.852L171.848 202.595Z" fill="white"/>
<path d="M182.185 202.948H176.9L175.917 205.763H172.311L177.828 191.276H181.309L186.843 205.763H183.165L182.181 202.948H182.185ZM181.149 199.925L179.543 195.287L177.936 199.925H181.149Z" fill="white"/>
<path d="M199.126 205.763L199.089 198.086L195.877 204.337H194.307L191.11 198.294V205.767H187.842V191.28H190.753L195.146 199.639L199.431 191.28H202.342L202.378 205.767H199.13L199.126 205.763Z" fill="white"/>
<path d="M247.481 244.064H2.57227V246.071H247.481V244.064Z" fill="#333333"/>
<path d="M400.003 181.246C400.003 181.246 397.396 183.707 397.396 196.194V285.051C397.396 287.617 399.477 289.697 402.043 289.697H507.423C509.989 289.697 512.069 287.617 512.069 285.051V196.194C512.069 189.22 511.623 184.591 509.342 181.246" fill="white"/>
<path d="M397.395 279.045C397.395 284.935 399.338 286.039 408.365 286.039H503.731C507.975 286.039 508.658 283.417 508.658 279.045V194.709C508.658 189.401 507.975 185.157 500.9 185.157H398.531L399.302 182.399L399.752 181.571L401.976 181.25H509.469C509.469 181.25 512.019 184.306 512.019 192.87V284.766C512.019 289.536 508.12 289.705 506.104 289.705H402.527C398.989 289.705 397.391 287.685 397.391 284.541V279.049L397.395 279.045Z" fill="#3D9BE9"/>
<path d="M512.059 197.01H397.407V276.619H512.059V197.01Z" fill="white"/>
<path d="M512.025 197.01H508.664V276.619H512.025V197.01Z" fill="#3D9BE9"/>
<path d="M512.059 217.178H397.407V257.162H512.059V217.178Z" fill="#3D9BE9"/>
<path d="M512.025 217.178H508.664V257.162H512.025V217.178Z" fill="#333333"/>
<path d="M507.423 290.705H402.042C398.926 290.705 396.393 288.171 396.393 285.055V196.199C396.393 183.639 399.015 180.801 399.312 180.52L400.003 181.25L400.717 181.953C400.693 181.977 398.4 184.611 398.4 196.199V285.055C398.4 287.063 400.035 288.697 402.042 288.697H507.423C509.431 288.697 511.065 287.063 511.065 285.055V196.199C511.065 189.461 510.647 184.944 508.515 181.812L510.173 180.684C512.599 184.242 513.073 189.068 513.073 196.199V285.055C513.073 288.171 510.539 290.705 507.423 290.705Z" fill="#333333"/>
<path d="M429.652 206.181C429.652 208.028 428.379 209.176 426.351 209.176H424.817V211.461H423.059V203.173H426.351C428.379 203.173 429.652 204.326 429.652 206.181ZM427.873 206.181C427.873 205.269 427.331 204.735 426.255 204.735H424.821V207.61H426.255C427.331 207.614 427.873 207.08 427.873 206.177V206.181Z" fill="#3D9BE9"/>
<path d="M436.783 209.923V211.465H430.9V203.173H436.643V204.715H432.647V206.518H436.177V208.008H432.647V209.927H436.783V209.923Z" fill="#3D9BE9"/>
<path d="M444.777 206.181C444.777 208.028 443.504 209.176 441.476 209.176H439.942V211.461H438.184V203.173H441.476C443.504 203.173 444.777 204.326 444.777 206.181ZM442.998 206.181C442.998 205.269 442.456 204.735 441.38 204.735H439.946V207.61H441.38C442.456 207.614 442.998 207.08 442.998 206.177V206.181Z" fill="#3D9BE9"/>
<path d="M447.392 204.735H444.963V203.173H451.589V204.735H449.159V211.465H447.4V204.735H447.396H447.392Z" fill="#3D9BE9"/>
<path d="M452.529 203.173H454.288V211.465H452.529V203.173Z" fill="#3D9BE9"/>
<path d="M456.092 203.173H459.545C462.035 203.173 463.737 204.807 463.737 207.317C463.737 209.827 462.031 211.461 459.545 211.461H456.092V203.169V203.173ZM459.457 209.887C460.967 209.887 461.955 208.903 461.955 207.317C461.955 205.731 460.967 204.747 459.457 204.747H457.851V209.887H459.457Z" fill="#3D9BE9"/>
<path d="M470.949 209.923V211.465H465.066V203.173H470.809V204.715H466.813V206.518H470.343V208.008H466.813V209.927H470.949V209.923Z" fill="#3D9BE9"/>
<path d="M476.293 210.453L476.606 209.778C477.148 210.357 478.116 210.786 479.116 210.786C480.541 210.786 481.156 210.136 481.156 209.317C481.156 207.04 476.478 208.441 476.478 205.373C476.478 204.153 477.349 203.101 479.281 203.101C480.136 203.101 481.027 203.37 481.638 203.835L481.365 204.534C480.714 204.072 479.951 203.847 479.281 203.847C477.891 203.847 477.273 204.522 477.273 205.353C477.273 207.63 481.951 206.253 481.951 209.272C481.951 210.493 481.059 211.533 479.12 211.533C477.976 211.525 476.855 211.088 476.293 210.445V210.453Z" fill="#333333"/>
<path d="M490.05 203.169V211.461H489.255V207.634H484.496V211.461H483.693V203.169H484.496V206.863H489.255V203.169H490.05Z" fill="#333333"/>
<path d="M491.854 207.313C491.854 204.895 493.548 203.096 495.849 203.096C498.15 203.096 499.832 204.883 499.832 207.313C499.832 209.742 498.126 211.529 495.849 211.529C493.572 211.529 491.854 209.726 491.854 207.313ZM499.029 207.313C499.029 205.333 497.672 203.879 495.849 203.879C494.026 203.879 492.645 205.337 492.645 207.313C492.645 209.288 494.01 210.746 495.849 210.746C497.688 210.746 499.029 209.292 499.029 207.313Z" fill="#333333"/>
<path d="M507.592 206.012C507.592 207.778 506.419 208.843 504.488 208.843H502.448V211.461H501.645V203.165H504.488C506.419 203.165 507.592 204.229 507.592 206.012ZM506.784 206.012C506.784 204.682 505.981 203.924 504.459 203.924H502.44V208.068H504.459C505.977 208.068 506.784 207.309 506.784 206.008V206.012Z" fill="#333333"/>
<path d="M412.647 207.184C412.647 208.827 411.269 210.16 409.567 210.16C409.049 210.16 408.543 210.035 408.089 209.794C407.808 209.646 407.551 209.453 407.334 209.228C406.166 208.036 406.222 206.152 407.459 205.024C407.499 204.988 407.543 204.952 407.583 204.916C407.82 204.719 408.085 204.558 408.37 204.442C409.707 203.896 411.261 204.329 412.093 205.478C412.33 205.807 412.498 206.176 412.583 206.57C412.627 206.771 412.651 206.975 412.651 207.184H412.647Z" fill="#3D9BE9"/>
<path d="M406.401 211.806C406.188 211.565 405.919 211.372 405.618 211.248H405.606C404.51 210.79 403.237 211.28 402.767 212.34C402.297 213.4 402.803 214.629 403.904 215.086C405 215.54 406.273 215.05 406.743 213.99C407.068 213.259 406.935 212.416 406.401 211.81V211.806Z" fill="#3D9BE9"/>
<path d="M406.907 199.844C406.268 199.23 405.236 199.23 404.598 199.844C403.96 200.463 403.96 201.463 404.598 202.077C405.236 202.691 406.268 202.691 406.907 202.077C407.541 201.455 407.541 200.459 406.907 199.844Z" fill="#3D9BE9"/>
<path d="M418.761 202.555C417.81 201.635 416.272 201.635 415.32 202.555C414.786 203.069 414.533 203.796 414.629 204.518C414.629 204.518 414.629 204.534 414.629 204.542C414.682 204.916 414.83 205.273 415.059 205.582C415.063 205.59 415.071 205.598 415.079 205.607C415.152 205.703 415.232 205.795 415.32 205.88C416.272 206.799 417.81 206.799 418.761 205.88C419.713 204.96 419.713 203.47 418.761 202.555Z" fill="#3D9BE9"/>
<path d="M408.088 209.794C407.807 209.645 407.55 209.452 407.333 209.228C407.357 209.26 407.513 209.525 406.759 210.444C406.036 211.332 405.686 211.267 405.622 211.243C405.923 211.368 406.192 211.561 406.405 211.801C406.397 211.781 406.277 211.48 406.979 210.629C407.71 209.742 408.092 209.794 408.092 209.794H408.088Z" fill="#3D9BE9"/>
<path d="M407.434 203.45C406.787 202.406 406.92 202.064 406.92 202.064H406.912V202.072C406.723 202.253 406.49 202.39 406.237 202.466C406.237 202.466 406.534 202.478 407.169 203.55C407.799 204.618 407.595 204.895 407.583 204.907C407.819 204.715 408.084 204.554 408.37 204.438C408.37 204.438 408.084 204.49 407.438 203.446L407.434 203.45Z" fill="#3D9BE9"/>
<path d="M414.63 204.546C414.638 204.65 414.586 205.056 413.586 205.437C412.469 205.863 412.112 205.514 412.088 205.482C412.325 205.811 412.493 206.18 412.578 206.574C412.578 206.546 412.55 206.152 413.698 205.698C414.69 205.305 414.991 205.51 415.059 205.586C414.835 205.277 414.686 204.923 414.634 204.546H414.63Z" fill="#3D9BE9"/>
<path d="M414.306 213.163C414.865 213.163 415.318 212.724 415.318 212.183C415.318 211.642 414.865 211.203 414.306 211.203C413.747 211.203 413.294 211.642 413.294 212.183C413.294 212.724 413.747 213.163 414.306 213.163Z" fill="#3D9BE9"/>
<path d="M402.816 208.12C403.696 208.12 404.41 207.431 404.41 206.582C404.41 205.733 403.696 205.044 402.816 205.044C401.935 205.044 401.222 205.733 401.222 206.582C401.222 207.431 401.935 208.12 402.816 208.12Z" fill="#3D9BE9"/>
<path d="M411.456 202.671C411.8 202.671 412.079 202.401 412.079 202.069C412.079 201.736 411.8 201.466 411.456 201.466C411.113 201.466 410.834 201.736 410.834 202.069C410.834 202.401 411.113 202.671 411.456 202.671Z" fill="#3D9BE9"/>
<path d="M408.029 233.295H403.783L402.973 235.255H400.804L404.88 226.109H406.971L411.06 235.255H408.839L408.029 233.295ZM407.363 231.688L405.912 228.187L404.462 231.688H407.363Z" fill="white"/>
<path d="M420.397 226.109V235.255H418.281V231.505H414.126V235.255H412.009V226.109H414.126V229.716H418.281V226.109H420.397Z" fill="white"/>
<path d="M425.828 231.715L424.618 232.977V235.255H422.545V226.244H424.618V230.453L428.609 226.244H430.926L427.193 230.26L431.145 235.255H428.712L425.828 231.715Z" fill="white"/>
<path d="M431.211 230.827H434.854V232.436H431.211V230.827Z" fill="white"/>
<path d="M440.939 235.41C440.02 235.41 439.188 235.212 438.441 234.818C437.703 234.414 437.119 233.861 436.69 233.157C436.27 232.445 436.059 231.642 436.059 230.749C436.059 229.857 436.27 229.059 436.69 228.355C437.119 227.643 437.703 227.089 438.441 226.694C439.188 226.291 440.025 226.089 440.952 226.089C441.733 226.089 442.436 226.226 443.063 226.501C443.698 226.776 444.23 227.171 444.659 227.685L443.32 228.921C442.711 228.218 441.956 227.866 441.055 227.866C440.497 227.866 439.999 227.99 439.561 228.239C439.123 228.479 438.78 228.818 438.531 229.256C438.291 229.694 438.171 230.192 438.171 230.749C438.171 231.307 438.291 231.805 438.531 232.243C438.78 232.681 439.123 233.024 439.561 233.273C439.999 233.513 440.497 233.633 441.055 233.633C441.956 233.633 442.711 233.277 443.32 232.565L444.659 233.801C444.23 234.324 443.698 234.723 443.063 234.998C442.428 235.272 441.72 235.41 440.939 235.41Z" fill="white"/>
<path d="M452.728 228.329V235.255H450.822V234.431C450.556 234.732 450.239 234.964 449.87 235.127C449.501 235.281 449.101 235.358 448.672 235.358C447.763 235.358 447.042 235.097 446.51 234.573C445.977 234.049 445.711 233.273 445.711 232.243V228.329H447.72V231.947C447.72 233.062 448.187 233.62 449.123 233.62C449.604 233.62 449.99 233.466 450.282 233.157C450.573 232.839 450.719 232.372 450.719 231.754V228.329H452.728Z" fill="white"/>
<path d="M408.443 269.995V271.38H401.945V270.284L405.446 266.96C405.841 266.582 406.105 266.255 406.24 265.978C406.382 265.692 406.454 265.411 406.454 265.134C406.454 264.722 406.315 264.408 406.038 264.189C405.761 263.971 405.354 263.862 404.817 263.862C403.918 263.862 403.23 264.168 402.751 264.781L401.605 263.9C401.95 263.438 402.411 263.081 402.991 262.829C403.578 262.569 404.233 262.439 404.955 262.439C405.912 262.439 406.676 262.666 407.247 263.119C407.818 263.572 408.103 264.189 408.103 264.97C408.103 265.449 408.003 265.898 407.801 266.318C407.6 266.737 407.213 267.216 406.643 267.753L404.288 269.995H408.443Z" fill="#333333"/>
<path d="M413.003 271.504C412.308 271.504 411.688 271.33 411.142 270.983C410.596 270.627 410.166 270.114 409.852 269.444C409.537 268.766 409.38 267.964 409.38 267.037C409.38 266.111 409.537 265.312 409.852 264.642C410.166 263.964 410.596 263.451 411.142 263.104C411.688 262.748 412.308 262.57 413.003 262.57C413.698 262.57 414.319 262.748 414.864 263.104C415.419 263.451 415.853 263.964 416.167 264.642C416.482 265.312 416.639 266.111 416.639 267.037C416.639 267.964 416.482 268.766 416.167 269.444C415.853 270.114 415.419 270.627 414.864 270.983C414.319 271.33 413.698 271.504 413.003 271.504ZM413.003 270.102C413.624 270.102 414.112 269.845 414.467 269.333C414.831 268.82 415.013 268.055 415.013 267.037C415.013 266.02 414.831 265.254 414.467 264.742C414.112 264.229 413.624 263.972 413.003 263.972C412.391 263.972 411.903 264.229 411.539 264.742C411.183 265.254 411.006 266.02 411.006 267.037C411.006 268.055 411.183 268.82 411.539 269.333C411.903 269.845 412.391 270.102 413.003 270.102Z" fill="#333333"/>
<path d="M421.352 271.504C420.657 271.504 420.037 271.33 419.491 270.983C418.945 270.627 418.515 270.114 418.2 269.444C417.886 268.766 417.729 267.964 417.729 267.037C417.729 266.111 417.886 265.312 418.2 264.642C418.515 263.964 418.945 263.451 419.491 263.104C420.037 262.748 420.657 262.57 421.352 262.57C422.047 262.57 422.667 262.748 423.213 263.104C423.767 263.451 424.202 263.964 424.516 264.642C424.83 265.312 424.988 266.111 424.988 267.037C424.988 267.964 424.83 268.766 424.516 269.444C424.202 270.114 423.767 270.627 423.213 270.983C422.667 271.33 422.047 271.504 421.352 271.504ZM421.352 270.102C421.972 270.102 422.46 269.845 422.816 269.333C423.18 268.82 423.362 268.055 423.362 267.037C423.362 266.02 423.18 265.254 422.816 264.742C422.46 264.229 421.972 263.972 421.352 263.972C420.74 263.972 420.252 264.229 419.888 264.742C419.532 265.254 419.354 266.02 419.354 267.037C419.354 268.055 419.532 268.82 419.888 269.333C420.252 269.845 420.74 270.102 421.352 270.102Z" fill="#333333"/>
<path d="M430.568 267.782C431.017 267.782 431.372 267.914 431.634 268.176C431.896 268.433 432.027 268.822 432.027 269.341V271.38H431.194V269.448C431.194 269.137 431.125 268.904 430.988 268.748C430.85 268.589 430.652 268.509 430.395 268.509C430.115 268.509 429.891 268.602 429.722 268.788C429.553 268.971 429.469 269.233 429.469 269.575V271.38H428.636V269.448C428.636 269.137 428.567 268.904 428.43 268.748C428.292 268.589 428.094 268.509 427.837 268.509C427.552 268.509 427.326 268.6 427.157 268.782C426.993 268.964 426.911 269.228 426.911 269.575V271.38H426.078V267.822H426.871V268.275C427.004 268.116 427.171 267.993 427.37 267.909C427.57 267.825 427.792 267.782 428.037 267.782C428.303 267.782 428.538 267.834 428.743 267.936C428.951 268.033 429.116 268.18 429.236 268.375C429.382 268.189 429.571 268.045 429.802 267.942C430.033 267.836 430.288 267.782 430.568 267.782Z" fill="#333333"/>
<path d="M436.654 267.822V270.84C436.654 272.093 436.015 272.719 434.736 272.719C434.394 272.719 434.07 272.674 433.763 272.586C433.457 272.501 433.204 272.377 433.004 272.213L433.377 271.586C433.532 271.715 433.728 271.817 433.963 271.893C434.203 271.973 434.445 272.013 434.689 272.013C435.08 272.013 435.366 271.924 435.549 271.746C435.731 271.569 435.822 271.298 435.822 270.934V270.747C435.68 270.902 435.506 271.02 435.302 271.1C435.098 271.18 434.873 271.22 434.629 271.22C434.292 271.22 433.985 271.149 433.71 271.007C433.439 270.86 433.224 270.656 433.064 270.394C432.908 270.132 432.831 269.832 432.831 269.495C432.831 269.157 432.908 268.859 433.064 268.602C433.224 268.34 433.439 268.138 433.71 267.996C433.985 267.854 434.292 267.782 434.629 267.782C434.887 267.782 435.12 267.825 435.329 267.909C435.542 267.993 435.72 268.122 435.862 268.295V267.822H436.654ZM434.756 270.514C435.071 270.514 435.329 270.421 435.529 270.234C435.733 270.043 435.835 269.797 435.835 269.495C435.835 269.197 435.733 268.955 435.529 268.768C435.329 268.582 435.071 268.489 434.756 268.489C434.436 268.489 434.174 268.582 433.97 268.768C433.77 268.955 433.67 269.197 433.67 269.495C433.67 269.797 433.77 270.043 433.97 270.234C434.174 270.421 434.436 270.514 434.756 270.514Z" fill="#333333"/>
<path d="M468.371 267.93C469.007 267.93 469.496 268.135 469.838 268.545C470.185 268.955 470.359 269.537 470.359 270.29C470.359 270.817 470.264 271.268 470.075 271.642C469.89 272.011 469.629 272.293 469.291 272.487C468.957 272.676 468.567 272.771 468.121 272.771C467.891 272.771 467.675 272.748 467.472 272.703C467.269 272.654 467.093 272.584 466.945 272.494L467.201 271.966C467.431 272.115 467.736 272.189 468.114 272.189C468.606 272.189 468.989 272.038 469.264 271.736C469.543 271.43 469.683 270.986 469.683 270.404V270.235C469.548 270.438 469.36 270.594 469.122 270.702C468.883 270.806 468.615 270.857 468.317 270.857C468.006 270.857 467.727 270.799 467.479 270.682C467.235 270.564 467.044 270.398 466.904 270.181C466.769 269.96 466.701 269.708 466.701 269.424C466.701 269.127 466.773 268.865 466.918 268.64C467.066 268.414 467.267 268.241 467.519 268.119C467.772 267.993 468.056 267.93 468.371 267.93ZM468.432 270.31C468.644 270.31 468.833 270.269 469 270.188C469.167 270.107 469.295 269.997 469.385 269.857C469.48 269.717 469.527 269.562 469.527 269.39C469.527 269.224 469.482 269.073 469.392 268.937C469.306 268.798 469.178 268.687 469.007 268.606C468.84 268.52 468.637 268.478 468.398 268.478C468.087 268.478 467.835 268.561 467.641 268.728C467.452 268.895 467.357 269.118 467.357 269.397C467.357 269.677 467.454 269.9 467.648 270.066C467.842 270.229 468.103 270.31 468.432 270.31Z" fill="#333333"/>
<path d="M472.544 267.93C473.179 267.93 473.669 268.135 474.011 268.545C474.358 268.955 474.532 269.537 474.532 270.29C474.532 270.817 474.437 271.268 474.248 271.642C474.063 272.011 473.801 272.293 473.463 272.487C473.13 272.676 472.74 272.771 472.294 272.771C472.064 272.771 471.848 272.748 471.645 272.703C471.442 272.654 471.266 272.584 471.117 272.494L471.374 271.966C471.604 272.115 471.908 272.189 472.287 272.189C472.778 272.189 473.161 272.038 473.436 271.736C473.716 271.43 473.856 270.986 473.856 270.404V270.235C473.72 270.438 473.533 270.594 473.294 270.702C473.056 270.806 472.787 270.857 472.49 270.857C472.179 270.857 471.899 270.799 471.651 270.682C471.408 270.564 471.217 270.398 471.077 270.181C470.942 269.96 470.874 269.708 470.874 269.424C470.874 269.127 470.946 268.865 471.09 268.64C471.239 268.414 471.44 268.241 471.692 268.119C471.944 267.993 472.228 267.93 472.544 267.93ZM472.605 270.31C472.817 270.31 473.006 270.269 473.173 270.188C473.339 270.107 473.468 269.997 473.558 269.857C473.653 269.717 473.7 269.562 473.7 269.39C473.7 269.224 473.655 269.073 473.565 268.937C473.479 268.798 473.351 268.687 473.179 268.606C473.013 268.52 472.81 268.478 472.571 268.478C472.26 268.478 472.008 268.561 471.814 268.728C471.624 268.895 471.53 269.118 471.53 269.397C471.53 269.677 471.627 269.9 471.821 270.066C472.014 270.229 472.276 270.31 472.605 270.31Z" fill="#333333"/>
<path d="M476.21 270.526C475.881 270.526 475.615 270.407 475.412 270.168C475.209 269.929 475.108 269.618 475.108 269.235C475.108 268.852 475.209 268.541 475.412 268.302C475.615 268.063 475.881 267.943 476.21 267.943C476.539 267.943 476.802 268.063 477.001 268.302C477.204 268.536 477.305 268.847 477.305 269.235C477.305 269.622 477.204 269.936 477.001 270.175C476.802 270.409 476.539 270.526 476.21 270.526ZM479.063 267.984H479.583L476.352 272.717H475.831L479.063 267.984ZM476.21 270.141C476.417 270.141 476.579 270.062 476.696 269.904C476.814 269.742 476.872 269.519 476.872 269.235C476.872 268.951 476.814 268.73 476.696 268.572C476.579 268.41 476.417 268.329 476.21 268.329C476.007 268.329 475.845 268.41 475.723 268.572C475.606 268.734 475.547 268.955 475.547 269.235C475.547 269.514 475.606 269.735 475.723 269.897C475.845 270.06 476.007 270.141 476.21 270.141ZM479.205 272.757C478.876 272.757 478.61 272.64 478.407 272.406C478.209 272.167 478.11 271.854 478.11 271.466C478.11 271.078 478.209 270.767 478.407 270.533C478.61 270.294 478.876 270.175 479.205 270.175C479.534 270.175 479.8 270.294 480.003 270.533C480.205 270.772 480.307 271.083 480.307 271.466C480.307 271.849 480.205 272.16 480.003 272.399C479.8 272.638 479.534 272.757 479.205 272.757ZM479.205 272.372C479.408 272.372 479.568 272.291 479.685 272.129C479.807 271.966 479.867 271.745 479.867 271.466C479.867 271.186 479.807 270.966 479.685 270.803C479.568 270.641 479.408 270.56 479.205 270.56C478.997 270.56 478.835 270.641 478.718 270.803C478.601 270.961 478.542 271.182 478.542 271.466C478.542 271.75 478.601 271.973 478.718 272.135C478.835 272.293 478.997 272.372 479.205 272.372Z" fill="#333333"/>
<path d="M484.889 268.053C485.493 268.053 485.969 268.198 486.315 268.486C486.661 268.775 486.835 269.173 486.835 269.679C486.835 270.185 486.661 270.583 486.315 270.871C485.969 271.16 485.493 271.304 484.889 271.304H483.737V272.717H483.071V268.053H484.889ZM484.869 270.725C485.291 270.725 485.613 270.636 485.835 270.458C486.057 270.276 486.168 270.016 486.168 269.679C486.168 269.341 486.057 269.084 485.835 268.906C485.613 268.724 485.291 268.633 484.869 268.633H483.737V270.725H484.869Z" fill="#333333"/>
<path d="M489.758 272.77C489.136 272.77 488.652 272.592 488.306 272.237C487.96 271.882 487.786 271.371 487.786 270.705V268.053H488.453V270.678C488.453 271.677 488.89 272.177 489.765 272.177C490.191 272.177 490.518 272.055 490.744 271.811C490.971 271.562 491.084 271.185 491.084 270.678V268.053H491.73V270.705C491.73 271.375 491.557 271.888 491.21 272.244C490.864 272.595 490.38 272.77 489.758 272.77Z" fill="#333333"/>
<path d="M496.214 272.717L495.208 271.284C495.083 271.293 494.986 271.298 494.915 271.298H493.762V272.717H493.096V268.053H494.915C495.519 268.053 495.994 268.198 496.34 268.486C496.687 268.775 496.86 269.173 496.86 269.679C496.86 270.039 496.771 270.345 496.593 270.598C496.416 270.851 496.163 271.036 495.834 271.151L496.94 272.717H496.214ZM494.895 270.731C495.316 270.731 495.638 270.64 495.861 270.458C496.083 270.276 496.194 270.016 496.194 269.679C496.194 269.341 496.083 269.084 495.861 268.906C495.638 268.724 495.316 268.633 494.895 268.633H493.762V270.731H494.895Z" fill="#333333"/>
<path d="M497.936 268.053H498.602V272.717H497.936V268.053Z" fill="#333333"/>
<path d="M500.924 268.633H499.326V268.053H503.183V268.633H501.584V272.717H500.924V268.633Z" fill="#333333"/>
<path d="M505.642 271.105V272.717H504.982V271.091L503.13 268.053H503.843L505.335 270.512L506.834 268.053H507.494L505.642 271.105Z" fill="#333333"/>
<path d="M513.06 277.623H396.4V196.006H513.06V277.623ZM398.408 275.615H511.053V198.013H398.408V275.615Z" fill="#333333"/>
<path d="M513.06 258.161H396.4V216.17H513.06V258.161ZM398.408 256.154H511.053V218.178H398.408V256.154Z" fill="#333333"/>
<path d="M401.588 278.643H399.58V283.699H401.588V278.643Z" fill="white"/>
<path d="M401.59 254.483H399.582V227.425C399.582 224.389 399.574 222.217 399.566 219.655L401.574 219.647C401.582 222.209 401.59 224.385 401.59 227.425V254.483Z" fill="white"/>
<path d="M401.658 194.369H399.65C399.65 194.035 399.646 193.69 399.638 193.337C399.602 191.236 399.558 188.622 400.73 185.988L402.566 186.803C401.574 189.036 401.61 191.305 401.646 193.304C401.654 193.67 401.658 194.027 401.658 194.373V194.369Z" fill="white"/>
<path d="M512.723 175.777H397.079C396.376 175.777 395.806 176.347 395.806 177.05V180.166C395.806 180.869 396.376 181.439 397.079 181.439H512.723C513.426 181.439 513.996 180.869 513.996 180.166V177.05C513.996 176.347 513.426 175.777 512.723 175.777Z" fill="#565656"/>
<path d="M400.073 124.118H509.726C511.682 124.118 513.272 125.708 513.272 127.663V175.777H396.527V127.663C396.527 125.708 398.118 124.118 400.073 124.118Z" fill="#565656"/>
<path d="M512.723 182.443H397.079C395.822 182.443 394.802 181.423 394.802 180.167V177.05C394.802 175.794 395.822 174.774 397.079 174.774H512.723C513.979 174.774 514.999 175.794 514.999 177.05V180.167C514.999 181.423 513.979 182.443 512.723 182.443ZM397.079 176.781C396.93 176.781 396.81 176.902 396.81 177.05V180.167C396.81 180.315 396.93 180.436 397.079 180.436H512.723C512.871 180.436 512.992 180.315 512.992 180.167V177.05C512.992 176.902 512.871 176.781 512.723 176.781H397.079Z" fill="#333333"/>
<path d="M514.276 176.781H395.523V127.663C395.523 125.153 397.563 123.114 400.073 123.114H509.726C512.236 123.114 514.276 125.153 514.276 127.663V176.781ZM397.531 174.773H512.268V127.663C512.268 126.262 511.127 125.121 509.726 125.121H400.073C398.672 125.121 397.531 126.262 397.531 127.663V174.773Z" fill="#333333"/>
<path d="M398.797 180.202H396.789V179.295C396.789 178.05 398.014 177.078 399.58 177.078H508.936V179.086H399.58C399.13 179.086 398.865 179.259 398.797 179.339V180.207V180.202Z" fill="white"/>
<path d="M400.427 172.947H398.419V128.378C398.419 126.84 399.672 125.592 401.206 125.592H509.658V127.599H401.206C400.776 127.599 400.427 127.948 400.427 128.378V172.947Z" fill="white"/>
<path d="M267.796 176.17C267.796 176.17 264.816 178.985 264.816 193.259V294.832C264.816 297.763 267.194 300.144 270.129 300.144H390.588C393.519 300.144 395.9 297.767 395.9 294.832V193.259C395.9 185.289 395.39 179.993 392.784 176.17" fill="white"/>
<path d="M264.81 284.207C264.81 291.684 267.279 293.085 278.736 293.085H399.773C405.161 293.085 406.029 289.756 406.029 284.207V197.074C406.029 190.336 405.161 184.948 396.179 184.948H266.255L267.231 181.447L267.801 180.399L270.624 179.989H407.053C407.053 179.989 410.289 183.868 410.289 194.737V291.463C410.289 297.518 405.342 297.731 402.78 297.731H271.323C266.834 297.731 264.806 295.169 264.806 291.178V284.203L264.81 284.207Z" fill="#3D9BE9"/>
<path d="M264.816 287.958C264.816 294.691 267.04 295.952 277.356 295.952H386.366C391.221 295.952 392 292.952 392 287.958V191.556C392 185.489 391.221 180.635 383.13 180.635H266.117L266.996 177.483L267.51 176.54L270.052 176.17H392.924C392.924 176.17 395.839 179.663 395.839 189.453V294.498C395.839 299.951 391.386 300.14 389.077 300.14H270.682C266.639 300.14 264.812 297.831 264.812 294.241V287.962L264.816 287.958Z" fill="#333333"/>
<path d="M395.881 194.187H264.829V285.187H395.881V194.187Z" fill="white"/>
<path d="M395.848 194.187H392.005V285.187H395.848V194.187Z" fill="#3D9BE9"/>
<path d="M395.881 217.238H264.829V262.939H395.881V217.238Z" fill="#3D9BE9"/>
<path d="M395.848 217.238H392.005V262.939H395.848V217.238Z" fill="#333333"/>
<path d="M390.588 301.144H270.129C266.647 301.144 263.812 298.313 263.812 294.828V193.255C263.812 178.961 266.768 175.757 267.105 175.436L267.796 176.166L268.507 176.873C268.479 176.901 265.82 179.905 265.82 193.255V294.828C265.82 297.201 267.752 299.136 270.129 299.136H390.588C392.961 299.136 394.896 297.205 394.896 294.828V193.255C394.896 185.526 394.415 180.342 391.957 176.733L393.615 175.604C396.366 179.644 396.904 185.136 396.904 193.259V294.832C396.904 298.313 394.073 301.148 390.588 301.148V301.144Z" fill="#333333"/>
<path d="M301.687 204.67C301.687 206.783 300.233 208.092 297.916 208.092H296.165V210.706H294.153V201.233H297.916C300.237 201.233 301.687 202.55 301.687 204.67ZM299.651 204.67C299.651 203.626 299.032 203.02 297.799 203.02H296.161V206.309H297.799C299.028 206.313 299.651 205.707 299.651 204.67Z" fill="#3D9BE9"/>
<path d="M309.843 208.947V210.706H303.117V201.229H309.683V202.988H305.113V205.048H309.145V206.75H305.113V208.943H309.843V208.947Z" fill="#3D9BE9"/>
<path d="M318.978 204.67C318.978 206.783 317.524 208.092 315.207 208.092H313.456V210.706H311.444V201.233H315.207C317.528 201.233 318.978 202.55 318.978 204.67ZM316.942 204.67C316.942 203.626 316.323 203.02 315.09 203.02H313.452V206.309H315.09C316.319 206.313 316.942 205.707 316.942 204.67Z" fill="#3D9BE9"/>
<path d="M321.969 203.016H319.19V201.229H326.764V203.016H323.985V210.71H321.973V203.016H321.969Z" fill="#3D9BE9"/>
<path d="M327.84 201.229H329.852V210.706H327.84V201.229Z" fill="#3D9BE9"/>
<path d="M331.911 201.229H335.858C338.701 201.229 340.649 203.096 340.649 205.967C340.649 208.839 338.697 210.706 335.858 210.706H331.911V201.229ZM335.758 208.907C337.485 208.907 338.613 207.782 338.613 205.967C338.613 204.152 337.481 203.028 335.758 203.028H333.923V208.903H335.758V208.907Z" fill="#3D9BE9"/>
<path d="M348.894 208.947V210.706H342.168V201.229H348.733V202.988H344.164V205.048H348.195V206.75H344.164V208.943H348.894V208.947Z" fill="#3D9BE9"/>
<path d="M355.001 209.553L355.362 208.782C355.981 209.445 357.089 209.935 358.229 209.935C359.86 209.935 360.563 209.192 360.563 208.256C360.563 205.654 355.214 207.256 355.214 203.751C355.214 202.357 356.21 201.153 358.418 201.153C359.398 201.153 360.414 201.462 361.113 201.996L360.799 202.795C360.057 202.269 359.185 202.012 358.418 202.012C356.828 202.012 356.121 202.783 356.121 203.731C356.121 206.333 361.47 204.759 361.47 208.212C361.47 209.606 360.454 210.798 358.233 210.798C356.928 210.786 355.643 210.288 355.001 209.553Z" fill="#333333"/>
<path d="M370.73 201.225V210.702H369.822V206.329H364.385V210.702H363.466V201.225H364.385V205.449H369.822V201.225H370.73Z" fill="#333333"/>
<path d="M372.789 205.964C372.789 203.201 374.725 201.141 377.359 201.141C379.993 201.141 381.912 203.185 381.912 205.964C381.912 208.742 379.961 210.786 377.359 210.786C374.757 210.786 372.789 208.726 372.789 205.964ZM380.993 205.964C380.993 203.703 379.439 202.04 377.359 202.04C375.279 202.04 373.697 203.707 373.697 205.964C373.697 208.22 375.259 209.887 377.359 209.887C379.459 209.887 380.993 208.224 380.993 205.964Z" fill="#333333"/>
<path d="M390.775 204.478C390.775 206.497 389.434 207.714 387.225 207.714H384.892V210.71H383.973V201.225H387.225C389.43 201.225 390.775 202.442 390.775 204.478ZM389.851 204.478C389.851 202.96 388.932 202.092 387.197 202.092H384.888V206.831H387.197C388.936 206.831 389.851 205.963 389.851 204.478Z" fill="#333333"/>
<path d="M282.246 205.819C282.246 207.698 280.668 209.22 278.724 209.22C278.134 209.22 277.552 209.076 277.034 208.803C276.713 208.634 276.42 208.413 276.171 208.156C274.837 206.791 274.902 204.638 276.311 203.349C276.359 203.305 276.403 203.265 276.456 203.225C276.725 203 277.026 202.819 277.355 202.683C278.885 202.06 280.66 202.554 281.612 203.867C281.885 204.241 282.073 204.667 282.17 205.116C282.222 205.345 282.246 205.582 282.246 205.819Z" fill="#3D9BE9"/>
<path d="M275.109 211.099C274.865 210.822 274.559 210.605 274.214 210.46H274.202C272.949 209.934 271.495 210.496 270.957 211.709C270.419 212.922 271.002 214.327 272.254 214.845C273.507 215.363 274.961 214.805 275.499 213.592C275.868 212.757 275.716 211.789 275.105 211.099H275.109Z" fill="#3D9BE9"/>
<path d="M275.687 197.427C274.957 196.724 273.776 196.724 273.045 197.427C272.318 198.134 272.318 199.274 273.045 199.981C273.776 200.684 274.957 200.684 275.683 199.981H275.687C276.414 199.27 276.41 198.13 275.683 197.427H275.687Z" fill="#3D9BE9"/>
<path d="M289.237 200.527C288.153 199.479 286.39 199.479 285.306 200.527C284.696 201.117 284.402 201.944 284.515 202.772C284.515 202.772 284.515 202.792 284.515 202.8C284.575 203.229 284.744 203.635 285.005 203.988C285.013 203.996 285.017 204.004 285.025 204.016C285.109 204.125 285.201 204.229 285.302 204.326C286.39 205.378 288.149 205.378 289.237 204.326C290.325 203.273 290.325 201.575 289.237 200.523V200.527Z" fill="#3D9BE9"/>
<path d="M277.038 208.802C276.716 208.634 276.423 208.413 276.174 208.156C276.202 208.192 276.383 208.493 275.52 209.549C274.693 210.561 274.295 210.489 274.219 210.461C274.564 210.605 274.869 210.822 275.114 211.099C275.102 211.075 274.966 210.734 275.769 209.758C276.604 208.742 277.042 208.802 277.042 208.802H277.038Z" fill="#3D9BE9"/>
<path d="M276.29 201.551C275.551 200.358 275.704 199.969 275.704 199.969H275.696L275.692 199.977C275.475 200.185 275.214 200.338 274.921 200.426C274.921 200.426 275.258 200.438 275.985 201.667C276.704 202.888 276.471 203.205 276.459 203.217C276.728 202.996 277.033 202.816 277.358 202.679C277.358 202.679 277.033 202.739 276.29 201.547V201.551Z" fill="#3D9BE9"/>
<path d="M284.519 202.799C284.527 202.92 284.47 203.382 283.326 203.815C282.053 204.301 281.643 203.9 281.611 203.867C281.884 204.241 282.073 204.667 282.169 205.116C282.169 205.084 282.137 204.634 283.446 204.116C284.583 203.667 284.924 203.9 285.004 203.988C284.743 203.635 284.579 203.229 284.519 202.799Z" fill="#3D9BE9"/>
<path d="M284.146 212.649C284.784 212.649 285.302 212.147 285.302 211.528C285.302 210.91 284.784 210.408 284.146 210.408C283.507 210.408 282.989 210.91 282.989 211.528C282.989 212.147 283.507 212.649 284.146 212.649Z" fill="#3D9BE9"/>
<path d="M271.01 206.891C272.016 206.891 272.833 206.104 272.833 205.132C272.833 204.161 272.016 203.373 271.01 203.373C270.003 203.373 269.187 204.161 269.187 205.132C269.187 206.104 270.003 206.891 271.01 206.891Z" fill="#3D9BE9"/>
<path d="M280.888 200.655C281.281 200.655 281.599 200.348 281.599 199.969C281.599 199.589 281.281 199.282 280.888 199.282C280.496 199.282 280.178 199.589 280.178 199.969C280.178 200.348 280.496 200.655 280.888 200.655Z" fill="#3D9BE9"/>
<path d="M276.973 235.428H272.118L271.192 237.668H268.713L273.373 227.213H275.763L280.438 237.668H277.899L276.973 235.428ZM276.211 233.59L274.553 229.588L272.895 233.59H276.211Z" fill="white"/>
<path d="M291.112 227.213V237.668H288.692V233.381H283.942V237.668H281.523V227.213H283.942V231.335H288.692V227.213H291.112Z" fill="white"/>
<path d="M297.32 233.621L295.936 235.063V237.668H293.567V227.366H295.936V232.179L300.499 227.366H303.148L298.88 231.958L303.398 237.668H300.616L297.32 233.621Z" fill="white"/>
<path d="M303.473 232.605H307.638V234.445H303.473V232.605Z" fill="white"/>
<path d="M314.594 237.845C313.544 237.845 312.592 237.619 311.739 237.168C310.895 236.706 310.228 236.074 309.737 235.269C309.257 234.455 309.016 233.537 309.016 232.517C309.016 231.497 309.257 230.584 309.737 229.78C310.228 228.965 310.895 228.332 311.739 227.881C312.592 227.42 313.549 227.189 314.609 227.189C315.501 227.189 316.306 227.346 317.022 227.66C317.748 227.974 318.357 228.426 318.847 229.014L317.317 230.427C316.62 229.623 315.757 229.22 314.726 229.22C314.089 229.22 313.52 229.363 313.019 229.647C312.519 229.922 312.126 230.309 311.842 230.81C311.567 231.31 311.43 231.879 311.43 232.517C311.43 233.155 311.567 233.724 311.842 234.224C312.126 234.725 312.519 235.117 313.019 235.402C313.52 235.676 314.089 235.814 314.726 235.814C315.757 235.814 316.62 235.406 317.317 234.592L318.847 236.005C318.357 236.603 317.748 237.06 317.022 237.374C316.296 237.688 315.487 237.845 314.594 237.845Z" fill="white"/>
<path d="M328.071 229.75V237.668H325.893V236.726C325.588 237.069 325.225 237.334 324.804 237.521C324.382 237.697 323.925 237.786 323.435 237.786C322.395 237.786 321.571 237.486 320.962 236.888C320.354 236.289 320.05 235.402 320.05 234.224V229.75H322.346V233.886C322.346 235.161 322.881 235.799 323.95 235.799C324.499 235.799 324.941 235.622 325.274 235.269C325.608 234.906 325.775 234.371 325.775 233.665V229.75H328.071Z" fill="white"/>
<path d="M277.445 277.898V279.482H270.018V278.229L274.019 274.43C274.47 273.998 274.772 273.624 274.926 273.307C275.089 272.981 275.171 272.659 275.171 272.343C275.171 271.873 275.012 271.513 274.696 271.263C274.379 271.014 273.914 270.889 273.299 270.889C272.273 270.889 271.486 271.239 270.939 271.94L269.629 270.932C270.022 270.405 270.55 269.997 271.212 269.709C271.884 269.411 272.632 269.263 273.458 269.263C274.552 269.263 275.425 269.522 276.077 270.04C276.73 270.558 277.056 271.263 277.056 272.156C277.056 272.703 276.941 273.216 276.711 273.696C276.481 274.175 276.039 274.722 275.387 275.336L272.695 277.898H277.445Z" fill="#333333"/>
<path d="M282.657 279.623C281.863 279.623 281.154 279.425 280.53 279.028C279.906 278.621 279.414 278.035 279.055 277.269C278.695 276.494 278.516 275.577 278.516 274.518C278.516 273.459 278.695 272.547 279.055 271.781C279.414 271.006 279.906 270.42 280.53 270.022C281.154 269.616 281.863 269.413 282.657 269.413C283.451 269.413 284.16 269.616 284.784 270.022C285.418 270.42 285.914 271.006 286.274 271.781C286.633 272.547 286.813 273.459 286.813 274.518C286.813 275.577 286.633 276.494 286.274 277.269C285.914 278.035 285.418 278.621 284.784 279.028C284.16 279.425 283.451 279.623 282.657 279.623ZM282.657 278.021C283.366 278.021 283.924 277.728 284.331 277.142C284.747 276.555 284.955 275.681 284.955 274.518C284.955 273.355 284.747 272.481 284.331 271.894C283.924 271.308 283.366 271.015 282.657 271.015C281.957 271.015 281.399 271.308 280.983 271.894C280.577 272.481 280.374 273.355 280.374 274.518C280.374 275.681 280.577 276.555 280.983 277.142C281.399 277.728 281.957 278.021 282.657 278.021Z" fill="#333333"/>
<path d="M292.2 279.623C291.406 279.623 290.697 279.425 290.073 279.028C289.449 278.621 288.957 278.035 288.598 277.269C288.238 276.494 288.059 275.577 288.059 274.518C288.059 273.459 288.238 272.547 288.598 271.781C288.957 271.006 289.449 270.42 290.073 270.022C290.697 269.616 291.406 269.413 292.2 269.413C292.994 269.413 293.703 269.616 294.328 270.022C294.961 270.42 295.457 271.006 295.817 271.781C296.176 272.547 296.356 273.459 296.356 274.518C296.356 275.577 296.176 276.494 295.817 277.269C295.457 278.035 294.961 278.621 294.328 279.028C293.703 279.425 292.994 279.623 292.2 279.623ZM292.2 278.021C292.909 278.021 293.467 277.728 293.874 277.142C294.29 276.555 294.498 275.681 294.498 274.518C294.498 273.355 294.29 272.481 293.874 271.894C293.467 271.308 292.909 271.015 292.2 271.015C291.5 271.015 290.943 271.308 290.526 271.894C290.12 272.481 289.917 273.355 289.917 274.518C289.917 275.681 290.12 276.555 290.526 277.142C290.943 277.728 291.5 278.021 292.2 278.021Z" fill="#333333"/>
<path d="M302.733 275.371C303.246 275.371 303.652 275.52 303.952 275.82C304.251 276.114 304.401 276.558 304.401 277.152V279.482H303.449V277.274C303.449 276.919 303.37 276.652 303.213 276.475C303.056 276.292 302.83 276.201 302.535 276.201C302.216 276.201 301.959 276.307 301.767 276.52C301.574 276.728 301.477 277.028 301.477 277.419V279.482H300.526V277.274C300.526 276.919 300.447 276.652 300.289 276.475C300.132 276.292 299.906 276.201 299.612 276.201C299.287 276.201 299.028 276.305 298.835 276.513C298.648 276.721 298.554 277.023 298.554 277.419V279.482H297.602V275.416H298.508V275.934C298.66 275.751 298.851 275.612 299.079 275.515C299.307 275.419 299.561 275.371 299.84 275.371C300.145 275.371 300.414 275.429 300.647 275.546C300.886 275.657 301.074 275.825 301.211 276.048C301.378 275.835 301.594 275.67 301.858 275.553C302.122 275.432 302.414 275.371 302.733 275.371Z" fill="#333333"/>
<path d="M309.689 275.416V278.865C309.689 280.296 308.958 281.012 307.497 281.012C307.106 281.012 306.735 280.961 306.385 280.86C306.035 280.763 305.745 280.621 305.517 280.433L305.943 279.718C306.121 279.865 306.344 279.982 306.613 280.068C306.887 280.159 307.164 280.205 307.443 280.205C307.89 280.205 308.217 280.103 308.425 279.9C308.634 279.697 308.738 279.388 308.738 278.972V278.758C308.575 278.936 308.377 279.071 308.144 279.162C307.91 279.253 307.654 279.299 307.375 279.299C306.989 279.299 306.639 279.218 306.324 279.055C306.014 278.888 305.768 278.654 305.586 278.355C305.408 278.055 305.319 277.713 305.319 277.327C305.319 276.941 305.408 276.601 305.586 276.307C305.768 276.008 306.014 275.777 306.324 275.614C306.639 275.452 306.989 275.371 307.375 275.371C307.669 275.371 307.936 275.419 308.174 275.515C308.418 275.612 308.621 275.759 308.783 275.957V275.416H309.689ZM307.519 278.492C307.88 278.492 308.174 278.385 308.403 278.172C308.636 277.954 308.753 277.672 308.753 277.327C308.753 276.987 308.636 276.711 308.403 276.497C308.174 276.284 307.88 276.178 307.519 276.178C307.154 276.178 306.854 276.284 306.621 276.497C306.393 276.711 306.278 276.987 306.278 277.327C306.278 277.672 306.393 277.954 306.621 278.172C306.854 278.385 307.154 278.492 307.519 278.492Z" fill="#333333"/>
<path d="M396.888 286.191H263.828V193.183H396.888V286.191ZM265.836 284.183H394.88V195.19H265.836V284.183Z" fill="#333333"/>
<path d="M396.888 263.947H263.828V216.238H396.888V263.947ZM265.836 261.939H394.88V218.246H265.836V261.939Z" fill="#333333"/>
<path d="M269.467 259.883H267.459V228.954C267.459 225.481 267.451 223 267.443 220.073L269.451 220.065C269.459 222.996 269.467 225.481 269.467 228.954V259.883Z" fill="white"/>
<path d="M396.647 169.918H264.455C263.652 169.918 263.001 170.569 263.001 171.372V174.938C263.001 175.741 263.652 176.392 264.455 176.392H396.647C397.45 176.392 398.1 175.741 398.1 174.938V171.372C398.1 170.569 397.45 169.918 396.647 169.918Z" fill="#565656"/>
<path d="M267.882 110.867H393.223C395.46 110.867 397.275 112.682 397.275 114.918V169.915H263.83V114.918C263.83 112.682 265.645 110.867 267.882 110.867Z" fill="#565656"/>
<path d="M396.648 177.396H264.459C263.102 177.396 262.002 176.292 262.002 174.939V171.377C262.002 170.019 263.106 168.919 264.459 168.919H396.648C398.005 168.919 399.105 170.024 399.105 171.377V174.939C399.105 176.296 398.001 177.396 396.648 177.396ZM264.459 170.923C264.211 170.923 264.01 171.124 264.01 171.373V174.934C264.01 175.183 264.211 175.384 264.459 175.384H396.648C396.897 175.384 397.097 175.183 397.097 174.934V171.373C397.097 171.124 396.897 170.923 396.648 170.923H264.459Z" fill="#333333"/>
<path d="M398.277 170.923H262.824V114.923C262.824 112.136 265.093 109.867 267.88 109.867H393.221C396.008 109.867 398.277 112.136 398.277 114.923V170.923ZM264.832 168.915H396.269V114.923C396.269 113.24 394.904 111.875 393.221 111.875H267.88C266.197 111.875 264.832 113.244 264.832 114.923V168.915Z" fill="#333333"/>
<path d="M266.278 174.974H264.271V173.934C264.271 172.593 265.608 171.541 267.314 171.541H392.315V173.549H267.314C266.676 173.549 266.31 173.834 266.278 173.942V174.97V174.974Z" fill="white"/>
<path d="M268.139 166.683H266.131V115.738C266.131 114.059 267.496 112.694 269.175 112.694H393.143V114.702H269.175C268.604 114.702 268.139 115.167 268.139 115.738V166.683Z" fill="white"/>
<path d="M333.166 177.351C333.166 177.351 329.857 180.475 329.857 196.327V309.102C329.857 312.358 332.496 314.996 335.752 314.996H469.498C472.755 314.996 475.393 312.358 475.393 309.102V196.327C475.393 187.477 474.827 181.599 471.936 177.351" fill="white"/>
<path d="M329.858 301.473C329.858 308.949 332.327 310.351 343.783 310.351H464.82C470.209 310.351 471.077 307.022 471.077 301.473V194.436C471.077 187.698 470.209 182.31 461.226 182.31H331.303L332.279 178.808L332.849 177.76L335.672 177.351H472.101C472.101 177.351 475.337 181.23 475.337 192.099V308.729C475.337 314.783 470.39 314.996 467.828 314.996H336.371C331.881 314.996 329.854 312.434 329.854 308.443V301.469L329.858 301.473Z" fill="#3D9BE9"/>
<path d="M475.386 197.355H329.874V298.394H475.386V197.355Z" fill="white"/>
<path d="M475.343 197.355H471.078V298.394H475.343V197.355Z" fill="#3D9BE9"/>
<path d="M475.386 222.951H329.874V273.696H475.386V222.951Z" fill="#3D9BE9"/>
<path d="M475.343 222.951H471.078V273.696H475.343V222.951Z" fill="#333333"/>
<path d="M469.503 316H335.757C331.95 316 328.858 312.904 328.858 309.102V196.327C328.858 180.503 332.111 176.974 332.48 176.624L333.858 178.082L333.167 177.351L333.878 178.062C333.846 178.094 330.862 181.422 330.862 196.327V309.102C330.862 311.8 333.059 313.993 335.753 313.993H469.499C472.198 313.993 474.39 311.796 474.39 309.102V196.327C474.39 187.722 473.852 181.948 471.106 177.917L472.764 176.789C475.8 181.25 476.394 187.329 476.394 196.327V309.102C476.394 312.908 473.298 316 469.495 316H469.503Z" fill="#333333"/>
<path d="M370.798 208.995C370.798 211.34 369.184 212.794 366.61 212.794H364.666V215.693H362.434V205.176H366.614C369.188 205.176 370.802 206.638 370.802 208.995H370.798ZM368.537 208.995C368.537 207.839 367.851 207.16 366.481 207.16H364.662V210.81H366.481C367.847 210.814 368.537 210.139 368.537 208.991V208.995Z" fill="#3D9BE9"/>
<path d="M379.853 213.746V215.701H372.384V205.176H379.672V207.132H374.6V209.421H379.078V211.312H374.6V213.75H379.853V213.746Z" fill="#3D9BE9"/>
<path d="M389.995 208.995C389.995 211.34 388.381 212.794 385.807 212.794H383.864V215.693H381.631V205.176H385.811C388.385 205.176 389.999 206.638 389.999 208.995H389.995ZM387.735 208.995C387.735 207.839 387.048 207.16 385.679 207.16H383.86V210.81H385.679C387.044 210.814 387.735 210.139 387.735 208.991V208.995Z" fill="#3D9BE9"/>
<path d="M393.318 207.16H390.234V205.176H398.643V207.16H395.559V215.701H393.326V207.16H393.322H393.318Z" fill="#3D9BE9"/>
<path d="M399.834 205.176H402.067V215.701H399.834V205.176Z" fill="#3D9BE9"/>
<path d="M404.354 205.176H408.738C411.899 205.176 414.059 207.252 414.059 210.437C414.059 213.621 411.895 215.697 408.738 215.697H404.354V205.172V205.176ZM408.626 213.701C410.545 213.701 411.794 212.452 411.794 210.441C411.794 208.429 410.537 207.18 408.626 207.18H406.586V213.701H408.626Z" fill="#3D9BE9"/>
<path d="M423.213 213.746V215.701H415.744V205.176H423.032V207.132H417.961V209.421H422.438V211.312H417.961V213.75H423.213V213.746Z" fill="#3D9BE9"/>
<path d="M429.992 214.416L430.39 213.561C431.076 214.295 432.309 214.837 433.574 214.837C435.381 214.837 436.164 214.01 436.164 212.974C436.164 210.087 430.225 211.862 430.225 207.971C430.225 206.425 431.329 205.088 433.783 205.088C434.871 205.088 435.999 205.433 436.774 206.023L436.429 206.911C435.606 206.324 434.638 206.039 433.787 206.039C432.02 206.039 431.237 206.895 431.237 207.947C431.237 210.834 437.176 209.087 437.176 212.922C437.176 214.468 436.048 215.793 433.582 215.793C432.132 215.781 430.707 215.227 429.992 214.412V214.416Z" fill="#333333"/>
<path d="M447.456 205.172V215.697H446.448V210.842H440.409V215.697H439.389V205.172H440.409V209.862H446.448V205.172H447.456Z" fill="#333333"/>
<path d="M449.746 210.433C449.746 207.365 451.894 205.08 454.818 205.08C457.741 205.08 459.873 207.349 459.873 210.433C459.873 213.517 457.709 215.785 454.818 215.785C451.927 215.785 449.746 213.496 449.746 210.433ZM458.853 210.433C458.853 207.923 457.131 206.076 454.818 206.076C452.505 206.076 450.75 207.927 450.75 210.433C450.75 212.938 452.485 214.789 454.818 214.789C457.151 214.789 458.853 212.942 458.853 210.433Z" fill="#333333"/>
<path d="M469.715 208.782C469.715 211.023 468.23 212.376 465.772 212.376H463.182V215.701H462.162V205.172H465.772C468.222 205.172 469.715 206.525 469.715 208.782ZM468.691 208.782C468.691 207.096 467.671 206.136 465.744 206.136H463.178V211.396H465.744C467.671 211.396 468.691 210.432 468.691 208.782Z" fill="#333333"/>
<path d="M349.216 210.267C349.216 212.355 347.465 214.046 345.308 214.046C344.654 214.046 344.007 213.885 343.433 213.58C343.076 213.391 342.751 213.15 342.473 212.865C340.992 211.351 341.064 208.962 342.63 207.529C342.682 207.48 342.734 207.436 342.791 207.392C343.088 207.143 343.425 206.938 343.787 206.79C345.485 206.095 347.453 206.645 348.513 208.107C348.814 208.524 349.027 208.994 349.131 209.492C349.187 209.749 349.216 210.01 349.216 210.271V210.267Z" fill="#3D9BE9"/>
<path d="M341.292 216.133C341.023 215.828 340.682 215.587 340.3 215.427H340.288C338.895 214.844 337.28 215.467 336.682 216.812C336.084 218.157 336.73 219.719 338.124 220.298C339.517 220.876 341.131 220.249 341.73 218.904C342.139 217.977 341.971 216.904 341.296 216.137L341.292 216.133Z" fill="#3D9BE9"/>
<path d="M341.932 200.952C341.121 200.169 339.808 200.169 339 200.952C338.189 201.735 338.193 203.004 339 203.787C339.812 204.57 341.121 204.57 341.932 203.787H341.936C342.743 203 342.739 201.735 341.932 200.952Z" fill="#3D9BE9"/>
<path d="M356.977 204.393C355.772 203.228 353.817 203.228 352.612 204.393C351.937 205.047 351.612 205.967 351.733 206.882C351.733 206.882 351.733 206.902 351.733 206.914C351.801 207.388 351.99 207.842 352.275 208.232C352.283 208.244 352.291 208.252 352.299 208.26C352.391 208.38 352.496 208.497 352.604 208.605C353.809 209.769 355.764 209.769 356.973 208.605C358.178 207.44 358.178 205.549 356.973 204.385L356.977 204.393Z" fill="#3D9BE9"/>
<path d="M343.43 213.579C343.073 213.39 342.747 213.15 342.47 212.865C342.502 212.905 342.699 213.238 341.743 214.41C340.824 215.535 340.382 215.454 340.302 215.426C340.683 215.587 341.025 215.828 341.294 216.133C341.282 216.105 341.129 215.728 342.02 214.643C342.948 213.515 343.434 213.583 343.434 213.583L343.43 213.579Z" fill="#3D9BE9"/>
<path d="M342.6 205.529C341.777 204.204 341.95 203.774 341.95 203.774L341.937 203.782H341.933C341.697 204.019 341.399 204.188 341.078 204.284C341.078 204.284 341.456 204.296 342.263 205.662C343.062 207.015 342.801 207.368 342.789 207.384C343.09 207.139 343.427 206.939 343.789 206.79C343.789 206.79 343.427 206.858 342.604 205.533L342.6 205.529Z" fill="#3D9BE9"/>
<path d="M351.736 206.918C351.744 207.051 351.68 207.565 350.411 208.046C348.998 208.589 348.544 208.143 348.508 208.103C348.809 208.52 349.022 208.99 349.126 209.488C349.126 209.452 349.09 208.95 350.548 208.376C351.809 207.878 352.186 208.135 352.274 208.231C351.985 207.842 351.801 207.388 351.732 206.914L351.736 206.918Z" fill="#3D9BE9"/>
<path d="M351.324 217.852C352.034 217.852 352.609 217.296 352.609 216.611C352.609 215.926 352.034 215.37 351.324 215.37C350.614 215.37 350.039 215.926 350.039 216.611C350.039 217.296 350.614 217.852 351.324 217.852Z" fill="#3D9BE9"/>
<path d="M336.739 211.46C337.856 211.46 338.763 210.584 338.763 209.504C338.763 208.424 337.856 207.549 336.739 207.549C335.621 207.549 334.715 208.424 334.715 209.504C334.715 210.584 335.621 211.46 336.739 211.46Z" fill="#3D9BE9"/>
<path d="M347.709 204.538C348.144 204.538 348.496 204.196 348.496 203.775C348.496 203.353 348.144 203.012 347.709 203.012C347.274 203.012 346.922 203.353 346.922 203.775C346.922 204.196 347.274 204.538 347.709 204.538Z" fill="#3D9BE9"/>
<path d="M343.353 243.159H337.963L336.935 245.646H334.183L339.356 234.039H342.01L347.2 245.646H344.381L343.353 243.159ZM342.507 241.119L340.666 236.675L338.826 241.119H342.507Z" fill="white"/>
<path d="M359.05 234.039V245.646H356.364V240.887H351.091V245.646H348.404V234.039H351.091V238.615H356.364V234.039H359.05Z" fill="white"/>
<path d="M365.943 241.153L364.407 242.754V245.646H361.776V234.209H364.407V239.552L369.472 234.209H372.413L367.675 239.307L372.691 245.646H369.603L365.943 241.153Z" fill="white"/>
<path d="M372.774 240.026H377.398V242.068H372.774V240.026Z" fill="white"/>
<path d="M385.121 245.842C383.956 245.842 382.899 245.591 381.951 245.09C381.015 244.578 380.274 243.876 379.729 242.983C379.196 242.079 378.929 241.06 378.929 239.927C378.929 238.795 379.196 237.782 379.729 236.889C380.274 235.985 381.015 235.282 381.951 234.781C382.899 234.269 383.961 234.013 385.138 234.013C386.129 234.013 387.022 234.187 387.817 234.536C388.623 234.885 389.299 235.386 389.843 236.039L388.144 237.608C387.371 236.714 386.412 236.268 385.268 236.268C384.56 236.268 383.928 236.426 383.373 236.742C382.817 237.047 382.382 237.477 382.066 238.032C381.761 238.588 381.608 239.22 381.608 239.927C381.608 240.635 381.761 241.267 382.066 241.823C382.382 242.378 382.817 242.814 383.373 243.13C383.928 243.435 384.56 243.587 385.268 243.587C386.412 243.587 387.371 243.135 388.144 242.231L389.843 243.8C389.299 244.464 388.623 244.97 387.817 245.319C387.011 245.668 386.112 245.842 385.121 245.842Z" fill="white"/>
<path d="M400.084 236.856V245.646H397.665V244.6C397.328 244.981 396.925 245.275 396.456 245.482C395.988 245.678 395.481 245.776 394.937 245.776C393.782 245.776 392.867 245.444 392.192 244.78C391.516 244.115 391.179 243.13 391.179 241.823V236.856H393.728V241.447C393.728 242.863 394.321 243.571 395.509 243.571C396.119 243.571 396.609 243.375 396.979 242.983C397.349 242.58 397.535 241.986 397.535 241.202V236.856H400.084Z" fill="white"/>
<path d="M343.874 290.36V292.118H335.629V290.728L340.071 286.51C340.572 286.03 340.907 285.615 341.078 285.263C341.259 284.901 341.349 284.544 341.349 284.193C341.349 283.671 341.174 283.271 340.822 282.994C340.47 282.717 339.954 282.579 339.272 282.579C338.132 282.579 337.259 282.968 336.651 283.745L335.197 282.627C335.634 282.041 336.22 281.588 336.955 281.269C337.701 280.939 338.532 280.773 339.448 280.773C340.662 280.773 341.632 281.061 342.356 281.636C343.08 282.211 343.443 282.994 343.443 283.985C343.443 284.592 343.315 285.162 343.059 285.695C342.803 286.227 342.313 286.834 341.589 287.516L338.601 290.36H343.874Z" fill="#333333"/>
<path d="M349.66 292.275C348.779 292.275 347.991 292.055 347.299 291.614C346.606 291.163 346.06 290.512 345.661 289.662C345.262 288.801 345.063 287.783 345.063 286.608C345.063 285.432 345.262 284.419 345.661 283.569C346.06 282.708 346.606 282.058 347.299 281.617C347.991 281.166 348.779 280.94 349.66 280.94C350.542 280.94 351.329 281.166 352.022 281.617C352.725 282.058 353.276 282.708 353.675 283.569C354.074 284.419 354.274 285.432 354.274 286.608C354.274 287.783 354.074 288.801 353.675 289.662C353.276 290.512 352.725 291.163 352.022 291.614C351.329 292.055 350.542 292.275 349.66 292.275ZM349.66 290.496C350.448 290.496 351.067 290.171 351.518 289.52C351.98 288.869 352.211 287.899 352.211 286.608C352.211 285.317 351.98 284.346 351.518 283.695C351.067 283.044 350.448 282.719 349.66 282.719C348.884 282.719 348.264 283.044 347.802 283.695C347.351 284.346 347.125 285.317 347.125 286.608C347.125 287.899 347.351 288.869 347.802 289.52C348.264 290.171 348.884 290.496 349.66 290.496Z" fill="#333333"/>
<path d="M360.254 292.275C359.373 292.275 358.585 292.055 357.893 291.614C357.2 291.163 356.654 290.512 356.255 289.662C355.856 288.801 355.657 287.783 355.657 286.608C355.657 285.432 355.856 284.419 356.255 283.569C356.654 282.708 357.2 282.058 357.893 281.617C358.585 281.166 359.373 280.94 360.254 280.94C361.136 280.94 361.923 281.166 362.616 281.617C363.319 282.058 363.87 282.708 364.269 283.569C364.668 284.419 364.868 285.432 364.868 286.608C364.868 287.783 364.668 288.801 364.269 289.662C363.87 290.512 363.319 291.163 362.616 291.614C361.923 292.055 361.136 292.275 360.254 292.275ZM360.254 290.496C361.042 290.496 361.661 290.171 362.112 289.52C362.574 288.869 362.805 287.899 362.805 286.608C362.805 285.317 362.574 284.346 362.112 283.695C361.661 283.044 361.042 282.719 360.254 282.719C359.478 282.719 358.858 283.044 358.396 283.695C357.945 284.346 357.719 285.317 357.719 286.608C357.719 287.899 357.945 288.869 358.396 289.52C358.858 290.171 359.478 290.496 360.254 290.496Z" fill="#333333"/>
<path d="M371.948 287.554C372.517 287.554 372.968 287.72 373.301 288.052C373.633 288.379 373.799 288.872 373.799 289.532V292.118H372.743V289.667C372.743 289.272 372.656 288.977 372.481 288.779C372.306 288.576 372.055 288.475 371.729 288.475C371.374 288.475 371.089 288.593 370.875 288.83C370.661 289.061 370.554 289.393 370.554 289.827V292.118H369.497V289.667C369.497 289.272 369.41 288.977 369.235 288.779C369.06 288.576 368.81 288.475 368.483 288.475C368.122 288.475 367.835 288.591 367.621 288.822C367.412 289.053 367.308 289.388 367.308 289.827V292.118H366.251V287.604H367.257V288.179C367.426 287.976 367.637 287.821 367.891 287.714C368.145 287.607 368.426 287.554 368.736 287.554C369.074 287.554 369.373 287.619 369.632 287.748C369.897 287.872 370.106 288.058 370.258 288.306C370.444 288.069 370.683 287.886 370.976 287.757C371.269 287.621 371.593 287.554 371.948 287.554Z" fill="#333333"/>
<path d="M379.671 287.604V291.433C379.671 293.022 378.859 293.817 377.237 293.817C376.803 293.817 376.391 293.76 376.002 293.648C375.614 293.541 375.292 293.383 375.039 293.174L375.512 292.38C375.709 292.543 375.957 292.673 376.256 292.769C376.56 292.87 376.867 292.921 377.177 292.921C377.673 292.921 378.037 292.808 378.268 292.583C378.499 292.357 378.614 292.014 378.614 291.552V291.315C378.434 291.512 378.214 291.661 377.955 291.763C377.696 291.864 377.411 291.915 377.101 291.915C376.673 291.915 376.284 291.825 375.935 291.645C375.591 291.459 375.318 291.199 375.115 290.867C374.918 290.535 374.819 290.154 374.819 289.726C374.819 289.298 374.918 288.92 375.115 288.593C375.318 288.261 375.591 288.005 375.935 287.824C376.284 287.644 376.673 287.554 377.101 287.554C377.428 287.554 377.724 287.607 377.989 287.714C378.259 287.821 378.485 287.985 378.665 288.205V287.604H379.671ZM377.262 291.019C377.662 291.019 377.989 290.901 378.242 290.664C378.502 290.422 378.631 290.109 378.631 289.726C378.631 289.348 378.502 289.041 378.242 288.805C377.989 288.568 377.662 288.45 377.262 288.45C376.856 288.45 376.524 288.568 376.264 288.805C376.011 289.041 375.884 289.348 375.884 289.726C375.884 290.109 376.011 290.422 376.264 290.664C376.524 290.901 376.856 291.019 377.262 291.019Z" fill="#333333"/>
<path d="M419.935 287.141C420.742 287.141 421.362 287.401 421.797 287.922C422.237 288.442 422.457 289.18 422.457 290.135C422.457 290.804 422.337 291.376 422.097 291.851C421.863 292.319 421.531 292.677 421.102 292.923C420.679 293.163 420.184 293.283 419.618 293.283C419.326 293.283 419.052 293.255 418.794 293.197C418.537 293.134 418.314 293.046 418.125 292.931L418.451 292.262C418.743 292.451 419.129 292.545 419.609 292.545C420.233 292.545 420.719 292.354 421.068 291.971C421.422 291.582 421.6 291.018 421.6 290.281V290.066C421.428 290.324 421.191 290.521 420.888 290.658C420.584 290.79 420.244 290.855 419.867 290.855C419.472 290.855 419.117 290.781 418.803 290.632C418.494 290.484 418.251 290.272 418.074 289.998C417.902 289.717 417.816 289.397 417.816 289.037C417.816 288.659 417.908 288.328 418.091 288.042C418.28 287.756 418.534 287.535 418.854 287.381C419.175 287.221 419.535 287.141 419.935 287.141ZM420.013 290.161C420.281 290.161 420.522 290.109 420.733 290.006C420.945 289.903 421.108 289.763 421.222 289.586C421.342 289.408 421.402 289.211 421.402 288.994C421.402 288.782 421.345 288.591 421.231 288.419C421.122 288.242 420.959 288.102 420.742 287.999C420.53 287.89 420.273 287.836 419.97 287.836C419.575 287.836 419.255 287.942 419.009 288.153C418.769 288.365 418.649 288.648 418.649 289.002C418.649 289.357 418.771 289.64 419.017 289.852C419.263 290.058 419.595 290.161 420.013 290.161Z" fill="#333333"/>
<path d="M425.23 287.141C426.036 287.141 426.657 287.401 427.091 287.922C427.532 288.442 427.752 289.18 427.752 290.135C427.752 290.804 427.632 291.376 427.392 291.851C427.157 292.319 426.826 292.677 426.397 292.923C425.973 293.163 425.479 293.283 424.913 293.283C424.621 293.283 424.346 293.255 424.089 293.197C423.832 293.134 423.609 293.046 423.42 292.931L423.746 292.262C424.038 292.451 424.424 292.545 424.904 292.545C425.527 292.545 426.013 292.354 426.362 291.971C426.717 291.582 426.894 291.018 426.894 290.281V290.066C426.723 290.324 426.485 290.521 426.182 290.658C425.879 290.79 425.539 290.855 425.161 290.855C424.767 290.855 424.412 290.781 424.098 290.632C423.789 290.484 423.546 290.272 423.368 289.998C423.197 289.717 423.111 289.397 423.111 289.037C423.111 288.659 423.203 288.328 423.386 288.042C423.574 287.756 423.829 287.535 424.149 287.381C424.469 287.221 424.83 287.141 425.23 287.141ZM425.307 290.161C425.576 290.161 425.816 290.109 426.028 290.006C426.239 289.903 426.402 289.763 426.517 289.586C426.637 289.408 426.697 289.211 426.697 288.994C426.697 288.782 426.64 288.591 426.525 288.419C426.417 288.242 426.254 288.102 426.036 287.999C425.825 287.89 425.567 287.836 425.264 287.836C424.87 287.836 424.549 287.942 424.303 288.153C424.063 288.365 423.943 288.648 423.943 289.002C423.943 289.357 424.066 289.64 424.312 289.852C424.558 290.058 424.89 290.161 425.307 290.161Z" fill="#333333"/>
<path d="M429.881 290.435C429.464 290.435 429.126 290.283 428.869 289.98C428.612 289.677 428.483 289.283 428.483 288.797C428.483 288.31 428.612 287.916 428.869 287.613C429.126 287.31 429.464 287.158 429.881 287.158C430.299 287.158 430.633 287.31 430.885 287.613C431.142 287.91 431.271 288.305 431.271 288.797C431.271 289.288 431.142 289.686 430.885 289.989C430.633 290.286 430.299 290.435 429.881 290.435ZM433.501 287.209H434.162L430.061 293.215H429.401L433.501 287.209ZM429.881 289.946C430.144 289.946 430.35 289.846 430.499 289.646C430.647 289.44 430.722 289.157 430.722 288.797C430.722 288.436 430.647 288.156 430.499 287.956C430.35 287.75 430.144 287.647 429.881 287.647C429.624 287.647 429.418 287.75 429.263 287.956C429.115 288.162 429.04 288.442 429.04 288.797C429.04 289.151 429.115 289.431 429.263 289.637C429.418 289.843 429.624 289.946 429.881 289.946ZM433.681 293.266C433.264 293.266 432.927 293.117 432.669 292.82C432.418 292.517 432.292 292.119 432.292 291.627C432.292 291.136 432.418 290.741 432.669 290.444C432.927 290.141 433.264 289.989 433.681 289.989C434.099 289.989 434.436 290.141 434.694 290.444C434.951 290.747 435.08 291.141 435.08 291.627C435.08 292.114 434.951 292.508 434.694 292.811C434.436 293.114 434.099 293.266 433.681 293.266ZM433.681 292.777C433.939 292.777 434.142 292.674 434.291 292.468C434.445 292.262 434.522 291.982 434.522 291.627C434.522 291.273 434.445 290.993 434.291 290.787C434.142 290.581 433.939 290.478 433.681 290.478C433.418 290.478 433.212 290.581 433.064 290.787C432.915 290.987 432.841 291.267 432.841 291.627C432.841 291.988 432.915 292.271 433.064 292.477C433.212 292.677 433.418 292.777 433.681 292.777Z" fill="#333333"/>
<path d="M440.894 287.298C441.661 287.298 442.264 287.481 442.703 287.847C443.143 288.213 443.362 288.718 443.362 289.36C443.362 290.002 443.143 290.507 442.703 290.873C442.264 291.239 441.661 291.423 440.894 291.423H439.432V293.215H438.587V287.298H440.894ZM440.869 290.687C441.404 290.687 441.813 290.574 442.094 290.349C442.376 290.118 442.517 289.788 442.517 289.36C442.517 288.932 442.376 288.605 442.094 288.38C441.813 288.149 441.404 288.033 440.869 288.033H439.432V290.687H440.869Z" fill="#333333"/>
<path d="M447.072 293.282C446.283 293.282 445.669 293.057 445.229 292.606C444.79 292.155 444.57 291.507 444.57 290.662V287.298H445.415V290.628C445.415 291.896 445.97 292.53 447.08 292.53C447.621 292.53 448.036 292.375 448.323 292.065C448.61 291.749 448.754 291.27 448.754 290.628V287.298H449.574V290.662C449.574 291.513 449.354 292.164 448.915 292.614C448.475 293.06 447.861 293.282 447.072 293.282Z" fill="#333333"/>
<path d="M455.263 293.215L453.987 291.397C453.829 291.408 453.705 291.414 453.615 291.414H452.152V293.215H451.307V287.298H453.615C454.381 287.298 454.984 287.481 455.423 287.847C455.863 288.213 456.083 288.718 456.083 289.36C456.083 289.817 455.97 290.205 455.745 290.527C455.519 290.848 455.198 291.082 454.781 291.228L456.184 293.215H455.263ZM453.589 290.696C454.125 290.696 454.533 290.58 454.815 290.349C455.097 290.118 455.238 289.788 455.238 289.36C455.238 288.932 455.097 288.605 454.815 288.38C454.533 288.149 454.125 288.033 453.589 288.033H452.152V290.696H453.589Z" fill="#333333"/>
<path d="M457.448 287.298H458.294V293.215H457.448V287.298Z" fill="#333333"/>
<path d="M461.24 288.033H459.211V287.298H464.106V288.033H462.077V293.215H461.24V288.033Z" fill="#333333"/>
<path d="M467.226 291.169V293.215H466.389V291.152L464.039 287.298H464.943L466.837 290.417L468.739 287.298H469.575L467.226 291.169Z" fill="#333333"/>
<path d="M476.386 299.397H328.866V196.351H476.386V299.397ZM330.874 297.39H474.378V198.358H330.874V297.39Z" fill="#333333"/>
<path d="M476.386 274.7H328.866V221.948H476.386V274.7ZM330.874 272.692H474.378V223.955H330.874V272.692Z" fill="#333333"/>
<path d="M334.911 300.959H332.903V307.376H334.911V300.959Z" fill="white"/>
<path d="M334.91 270.299H332.902V235.957C332.902 232.102 332.894 229.344 332.882 226.095L334.89 226.087C334.902 229.34 334.91 232.102 334.91 235.957V270.299Z" fill="white"/>
<path d="M334.996 194.003H332.988C332.988 193.577 332.98 193.14 332.972 192.686C332.928 190.048 332.872 186.763 334.337 183.47L336.173 184.285C334.888 187.173 334.94 190.084 334.98 192.65C334.988 193.112 334.996 193.561 334.996 193.999V194.003Z" fill="white"/>
<path d="M476.233 170.409H329.46C328.568 170.409 327.846 171.131 327.846 172.023V175.978C327.846 176.87 328.568 177.592 329.46 177.592H476.233C477.124 177.592 477.847 176.87 477.847 175.978V172.023C477.847 171.131 477.124 170.409 476.233 170.409Z" fill="#565656"/>
<path d="M333.263 104.844H472.43C474.912 104.844 476.928 106.86 476.928 109.341V170.405H328.762V109.341C328.762 106.86 330.778 104.844 333.259 104.844H333.263Z" fill="#565656"/>
<path d="M476.233 178.6H329.465C328.019 178.6 326.847 177.424 326.847 175.982V172.027C326.847 170.581 328.023 169.409 329.465 169.409H476.233C477.679 169.409 478.852 170.585 478.852 172.027V175.982C478.852 177.428 477.675 178.6 476.233 178.6ZM329.465 171.416C329.128 171.416 328.854 171.69 328.854 172.027V175.982C328.854 176.32 329.128 176.593 329.465 176.593H476.233C476.571 176.593 476.844 176.32 476.844 175.982V172.027C476.844 171.69 476.571 171.416 476.233 171.416H329.465Z" fill="#333333"/>
<path d="M477.937 171.412H327.763V109.345C327.763 106.31 330.232 103.844 333.264 103.844H472.431C475.467 103.844 477.933 106.314 477.933 109.345V171.412H477.937ZM329.77 169.405H475.929V109.345C475.929 107.418 474.363 105.852 472.435 105.852H333.268C331.341 105.852 329.774 107.418 329.774 109.345V169.405H329.77Z" fill="#333333"/>
<path d="M331.372 176.022H329.364V174.87C329.364 173.444 330.802 172.324 332.633 172.324H471.423V174.332H332.633C331.818 174.332 331.372 174.733 331.372 174.87V176.022Z" fill="white"/>
<path d="M333.436 166.82H331.429V110.257C331.429 108.455 332.894 106.989 334.697 106.989H472.343V108.997H334.697C334.003 108.997 333.436 109.563 333.436 110.257V166.82Z" fill="white"/>
</svg>
