<svg width="278" height="250" viewBox="0 0 278 250" fill="none" xmlns="http://www.w3.org/2000/svg">
<g clip-path="url(#clip0_15670_4841)">
<path d="M5.30166 174.537C3.40234 174.537 1.85676 173.008 1.84043 171.109C1.84043 171.096 1.84043 171.082 1.84043 171.066C1.8105 167.91 1.75064 163.527 1.67172 158.461C1.43227 142.657 1.01866 120.234 0.78465 107.935C0.673085 102.017 0.662198 98.3255 0.683967 96.0566C0.703014 94.1576 2.24587 92.6313 4.14248 92.6313H165.786C167.724 92.6313 169.285 94.2202 169.245 96.1573C169.193 98.7636 169.084 103.035 168.869 109.665C168.382 124.609 167.952 146.428 167.726 161.214C167.683 164.248 167.645 166.99 167.617 169.311C167.609 169.999 167.604 170.579 167.596 171.082C167.574 172.975 166.031 174.499 164.137 174.499L5.29622 174.537H5.30166Z" fill="white"/>
<path d="M1.74219 159.403C1.74219 166.613 1.90001 171.782 13.6007 171.782H158.635C163.533 171.782 164.893 169.877 164.893 160.9L166.254 92.6348H166.689C168.121 92.6348 169.274 93.8101 169.244 95.2438L167.672 171.572C167.639 173.126 166.371 174.366 164.82 174.366H4.61294C3.03743 174.366 1.76123 173.09 1.75851 171.518L1.74219 159.406V159.403Z" fill="#3D9BE9"/>
<path d="M164.135 175.043H5.22558C2.94258 175.043 1.0868 173.188 1.0868 170.908C1.0868 168.087 1.07591 163.731 0.994278 158.472C0.768428 143.621 0.387475 122.8 0.109924 107.948C0.0146858 102.937 -0.017966 98.9324 0.00924492 96.0513C0.0310136 93.7905 1.8868 91.9541 4.14803 91.9541H165.792C166.913 91.9541 167.963 92.3949 168.75 93.1974C169.533 93.9973 169.952 95.0556 169.93 96.1764C169.882 98.5651 169.778 102.85 169.555 109.692C169.057 124.993 168.63 147.019 168.412 161.228C168.35 165.445 168.303 168.609 168.276 170.954C168.252 173.21 166.396 175.046 164.137 175.046L164.135 175.043ZM4.1453 93.3117C2.62693 93.3117 1.38068 94.5468 1.36707 96.0622C1.33986 98.9297 1.37523 102.921 1.46775 107.921C1.74802 122.776 2.12897 143.599 2.3521 158.45C2.43374 163.718 2.44462 168.081 2.44462 170.905C2.44462 172.437 3.69088 173.683 5.22286 173.683H164.135C165.65 173.683 166.896 172.451 166.913 170.935C166.937 168.59 166.986 165.423 167.049 161.204C167.264 146.989 167.694 124.955 168.192 109.643C168.412 102.806 168.518 98.5271 168.567 96.1438C168.584 95.393 168.301 94.6829 167.775 94.1442C167.247 93.6055 166.543 93.3089 165.789 93.3089H4.1453V93.3117Z" fill="#333333"/>
<path d="M155.171 68.5319C155.008 68.755 154.831 68.9699 154.63 69.1821C124.175 69.9874 48.3114 69.8323 21.9059 69.027C21.193 68.959 20.5127 68.7904 19.8733 68.5319C16.3685 67.139 14.0855 63.1914 15.1413 59.1487H15.144C16.9263 52.3227 28.2297 45.2084 59.2502 49.5912C59.5332 49.6293 59.8189 49.6701 60.1046 49.7109C60.1073 49.7109 60.11 49.7136 60.1128 49.7136C60.589 49.7817 61.0706 49.8579 61.5577 49.9313C57.1631 33.2297 82.8693 24.4531 82.8693 24.4531C84.121 43.0972 122.926 38.2328 144.818 51.9636C148.741 54.423 152.124 57.4809 154.646 61.3822C156.505 64.2606 156.567 66.6194 155.169 68.5319H155.171Z" fill="white"/>
<path d="M155.173 63.9645C155.01 64.1332 154.833 64.2964 154.632 64.4569C124.177 65.0691 48.3131 64.9493 21.9077 64.3399C21.1947 64.2882 18.8981 64.3182 18.2287 64.3182C14.6777 64.3182 13.9077 63.3061 14.9634 60.2373L15.1458 58.605C14.3975 62.1445 24.2152 62.1417 39.5703 62.1417C54.9254 62.1417 80.4791 65.2758 75.0424 62.2369C69.6084 59.198 68.5689 60.2373 63.1268 56.1565C59.1376 53.1666 58.5417 49.6488 60.0682 49.589C60.3322 49.5754 60.6233 49.608 60.9227 49.6815C60.9254 49.6815 60.1118 49.6815 60.1145 49.6815C62.1689 50.1821 62.2642 56.657 71.8016 59.1191C77.2628 60.5311 85.4832 61.0399 94.0656 60.6073C101.222 60.2455 68.3186 64.3998 121.456 62.6613C145.336 61.8805 146.969 56.1021 144.215 51.8008C148.139 53.6671 149.856 55.6423 152.379 58.6023C154.237 60.7869 156.572 62.5117 155.173 63.9618V63.9645Z" fill="#3D9BE9"/>
<path d="M155.009 69.479L154.125 68.4452C154.152 68.4207 154.413 68.2003 154.813 67.9554C155.417 67.5827 155.768 67.1393 155.891 66.5979C156.193 65.2566 155.08 63.306 154.076 61.7525C145.885 49.0909 128.244 45.4046 112.68 42.1535C97.1585 38.9106 83.6972 36.0975 82.2796 25.3947C80.3911 26.1184 75.5149 28.1534 71.0061 31.3909C63.4877 36.7885 60.4891 42.801 62.0945 49.2596C62.9843 52.8372 66.3149 55.8462 71.4714 57.7288C77.2102 59.8237 84.9816 60.5065 93.9422 59.7039L94.0646 61.0588C75.9748 62.6803 62.9081 58.1777 60.7721 49.5888C59.0414 42.6269 62.3149 35.9478 70.2333 30.27C76.1136 26.0558 82.383 23.8984 82.6469 23.8086L83.485 23.5229L83.5449 24.4071C84.2442 34.8242 97.5503 37.602 112.954 40.8204C128.78 44.1259 146.715 47.8749 155.216 61.0125C156.495 62.9931 157.624 65.0744 157.213 66.8944C157.009 67.7977 156.44 68.5431 155.523 69.1117C155.213 69.3049 155.006 69.479 155.003 69.479H155.009Z" fill="#333333"/>
<path d="M20.5548 69.5691C20.2446 69.5691 19.8446 69.4603 19.3657 69.3325L19.431 69.0876C15.48 67.4009 13.3684 63.0452 14.5113 58.8691C15.1916 56.388 17.6705 51.8473 26.6555 49.3308C35.0256 46.9856 46.8025 46.9611 61.6596 49.26L61.4528 50.604C30.846 45.8702 17.8147 51.9561 15.8229 59.2309C14.846 62.803 16.6936 66.533 20.1222 67.9042C20.8351 68.1898 21.4528 68.4374 21.2324 69.0985C21.1154 69.4494 20.8841 69.5718 20.5521 69.5718L20.5548 69.5691Z" fill="#333333"/>
<path d="M10.3367 92.3367C10.3367 90.0895 10.6007 89.0258 9.9857 88.5116C9.81971 88.3701 9.58026 88.2177 9.24556 88.0055C7.67277 87.0125 6.24148 84.6728 9.24556 84.8415C12.2496 85.0102 11.3898 82.1508 10.8184 80.7198C10.2469 79.2888 6.44828 78.7338 7.48774 77.4388C8.52991 76.1438 11.1041 77.0008 11.1041 74.4271C11.1041 71.8535 23.7789 72.0303 87.2402 72.0303C150.701 72.0303 160.144 71.2821 160.718 75.8582C161.289 80.4342 160.432 81.0055 163.006 81.0055C165.58 81.0055 164.723 83.5791 161.575 83.8648C161.278 83.8947 161.031 83.9709 160.829 84.0906C158.889 85.2523 161.072 90.5221 160.813 92.3367H10.3367Z" fill="white"/>
<path d="M8.66638 84.8286C7.20244 85.3537 7.47455 86.714 11.012 86.714C14.5494 86.714 62.7589 87.3534 94.9821 86.627C127.203 85.8979 154.563 84.3063 158.027 83.199C161.491 82.0917 158.498 82.9079 159.042 81.0035C159.586 79.0991 160.501 81.2402 161.268 81.1233C162.035 81.0035 163.638 81.047 164.199 81.9775C164.759 82.9079 163.423 83.5391 158.784 84.4478C154.144 85.3565 131.79 87.6227 92.9005 88.2593C54.0106 88.8932 23.5399 88.4416 17.6868 88.2593C11.8337 88.077 9.65686 88.3491 8.29632 87.2608C6.93577 86.1726 7.20788 85.3564 7.47999 85.0844C7.7521 84.8123 8.67182 84.8314 8.67182 84.8314L8.66638 84.8286Z" fill="#3D9BE9"/>
<path d="M9.10477 76.9166C7.47212 77.7328 9.9211 78.2769 18.3565 78.549C26.7919 78.821 77.4749 79.3162 102.065 78.1165C126.656 76.9167 126.444 74.2178 135.257 74.207C144.071 74.1961 156.044 72.8358 157.404 73.3799C158.765 73.924 160.34 74.4029 160.504 76.0678C160.667 77.7328 160.166 79.7053 160.825 80.6248C161.483 81.5417 160.849 81.5416 159.807 81.8137C158.765 82.0857 157.913 82.268 158.338 80.0018C158.762 77.7328 159.075 76.4324 155.246 75.8584C151.418 75.2843 139.85 77.1805 120.803 78.6361C101.755 80.0916 62.2994 80.769 44.5443 80.3391C26.7891 79.9093 17.2871 79.7814 13.4667 79.5719C9.64627 79.3624 7.51022 79.0414 7.48845 78.1137C7.4694 77.186 9.10205 76.9139 9.10205 76.9139L9.10477 76.9166Z" fill="#3D9BE9"/>
<path d="M160.828 84.0942C160.725 84.1078 160.616 84.1241 160.504 84.1405C155.71 84.8533 123.035 87.1195 72.0035 87.2175C20.9721 87.3154 9.98438 87.2637 9.98438 87.2637C10.5993 87.6337 10.2456 89.9136 10.2456 91.5242C10.2456 93.1347 9.95989 92.3403 83.4783 92.3403C156.997 92.3403 160.431 93.2327 160.716 91.7962C160.978 90.4958 158.888 84.9267 160.828 84.0942ZM144.48 90.474C133.574 91.0453 31.5572 91.565 21.4891 90.98C12.651 90.4658 10.8089 89.3477 19.6823 89.3477C25.4048 89.3477 45.3667 89.5136 75.0892 89.6197C129.783 89.8156 145.527 86.8475 154.004 87.9874C158.357 88.5723 155.633 89.8891 144.477 90.474H144.48Z" fill="#3D9BE9"/>
<path d="M30.5565 80.1493C30.5565 80.1493 19.6857 79.8636 13.1442 79.5535C6.6027 79.2433 10.2462 79.8636 11.2966 82.2743C12.3469 84.6849 8.24352 84.44 12.3306 84.9406C16.4177 85.4412 18.5401 85.0114 16.1646 85.044C13.7891 85.0767 11.9605 83.0116 13.5333 81.3111C14.0286 80.7751 21.8952 80.5194 32.9946 80.3779L30.5537 80.152L30.5565 80.1493Z" fill="#3D9BE9"/>
<path d="M69.1746 76.5015C34.848 76.5015 19.6861 75.8594 21.6888 75.0023C23.6915 74.1452 78.7691 74.1343 78.7691 74.1343C78.7691 74.1343 28.6902 74.6159 17.7514 72.6651C6.81261 70.7143 13.1419 72.1944 11.6942 73.7425C10.2466 75.2907 9.13098 76.3872 12.8371 76.4117C16.5405 76.4361 42.0181 76.6919 42.0181 76.6919L69.1746 76.5068V76.5015Z" fill="#3D9BE9"/>
<path d="M161.265 93.1532H9.56458V92.4731C9.56458 91.7467 9.59996 91.159 9.62989 90.6856C9.71425 89.2927 9.72513 89.1131 8.88159 88.5799C7.89384 87.9569 6.47615 86.5014 6.87615 85.2499C7.0503 84.7031 7.61084 84.0692 9.28431 84.1617C9.92105 84.197 10.3401 84.0801 10.5306 83.8134C10.683 83.6012 10.9578 82.8966 10.1877 80.9704C10.0299 80.576 9.21901 80.1488 8.56594 79.806C7.66526 79.3327 6.81356 78.8838 6.65574 78.1138C6.60131 77.8527 6.60948 77.4473 6.9605 77.0093C7.49384 76.3454 8.2639 76.1224 8.94418 75.9265C9.99724 75.6218 10.4272 75.4585 10.4272 74.4247C10.4272 72.5584 13.2027 71.9572 23.3415 71.6361C32.8272 71.3369 48.9986 71.3396 75.7905 71.345H87.2463C95.9864 71.345 103.701 71.3314 110.509 71.3206C131.567 71.2825 144.278 71.258 151.464 71.7395C158.664 72.2211 161.078 73.2004 161.399 75.7714C161.548 76.9712 161.603 77.9179 161.644 78.6117C161.687 79.3625 161.725 80.01 161.853 80.176C161.905 80.244 162.15 80.3256 163.012 80.3256C164.58 80.3256 165.173 81.1582 165.206 81.8683C165.257 83.0191 163.94 84.333 161.644 84.5425C161.252 84.5779 161.089 84.7385 160.996 84.8582C160.376 85.6662 160.77 87.9242 161.061 89.5729C161.274 90.7917 161.459 91.8446 161.355 92.5682L161.271 93.1532H161.265ZM10.936 91.7929H160.006C159.965 91.2461 159.84 90.5197 159.714 89.8069C159.344 87.7011 158.928 85.3125 159.91 84.0311C160.291 83.5332 160.83 83.2503 161.513 83.1877C163.157 83.0381 163.853 82.2165 163.84 81.9308C163.837 81.8465 163.587 81.6859 163.004 81.6859C160.574 81.6859 160.406 80.916 160.278 78.6906C160.237 77.9805 160.185 77.0963 160.041 75.9428C159.622 72.5938 151.162 72.6101 110.506 72.6836C103.698 72.6972 95.981 72.7107 87.2408 72.7107H75.7851C49.0068 72.7053 32.8462 72.6999 23.3796 73.0019C18.6802 73.1515 15.6381 73.3746 13.7986 73.7065C11.902 74.0493 11.785 74.4274 11.785 74.4302C11.785 76.5277 10.302 76.9576 9.31969 77.2405C8.78635 77.3929 8.28295 77.5398 8.01901 77.8689C8.01901 77.8689 8.019 77.8717 8.01628 77.8744C8.19043 78.0784 8.81356 78.405 9.19996 78.609C10.0952 79.0797 11.1074 79.6129 11.453 80.4726C12.204 82.347 12.2666 83.7427 11.6381 84.6133C11.1564 85.2825 10.3401 85.5873 9.21084 85.5247C8.35642 85.4757 8.17683 85.6689 8.17411 85.6716C8.10064 85.8702 8.59315 86.7925 9.61084 87.4345C11.1374 88.3976 11.083 89.2927 10.9904 90.7754C10.9714 91.0828 10.9523 91.4175 10.9387 91.7984L10.936 91.7929Z" fill="#333333"/>
<path d="M160.432 70.9968C160.432 74.0003 159.575 74.1418 88.9133 74.1418C35.1337 74.1418 16.252 73.2848 12.818 72.7108C10.4262 72.3136 10.2575 71.7749 10.3718 69.2611C10.4235 68.1647 10.5296 66.6983 10.5296 64.7014C10.5296 63.6322 85.4793 64.7205 122.383 64.7205C140.889 64.7205 151.058 63.9043 156.32 63.9043C157.953 63.9043 158.198 64.0893 159.041 64.4484C161.044 65.3054 160.429 69.2013 160.429 70.9914L160.432 70.9968Z" fill="#F4FAFF"/>
<path d="M160.432 70.997C160.432 74.0005 159.575 74.142 88.9133 74.142C35.1337 74.142 16.252 73.285 12.818 72.711C10.4262 72.3138 10.2575 71.7751 10.3718 69.2613C12.8098 70.9943 21.7105 72.4308 50.2874 72.4308C50.2874 72.4308 124.173 72.9232 147.882 72.0662C158.78 71.6718 158.63 68.9593 158.63 67.2617C158.63 65.564 157.273 64.3316 155.096 64.046C153.888 63.8882 155.863 64.1385 157 63.7739C158.445 64.0841 158.062 63.9589 158.905 64.318C160.908 65.175 160.429 69.2069 160.429 70.997H160.432Z" fill="#3D9BE9"/>
<path d="M88.915 74.8223C39.0973 74.8223 16.885 74.0796 12.7082 73.3831C9.80476 72.9016 9.57619 71.8623 9.69592 69.2315C9.7068 69.0057 9.72041 68.7636 9.73401 68.5051C9.78571 67.5121 9.85374 66.2743 9.85374 64.7045V64.4216L10.066 64.2012C10.4007 63.8693 10.7191 63.5564 30.8524 63.5564H31.6361C44.0143 63.5619 60.6565 63.6843 76.749 63.8013C93.111 63.921 110.028 64.0462 122.387 64.0462C134.746 64.0462 142.787 63.706 148.882 63.4585C152.012 63.3306 154.482 63.23 156.325 63.23C157.873 63.23 158.314 63.3932 159.087 63.7305L159.312 63.8285C161.408 64.7263 161.253 67.8686 161.152 69.9498C161.133 70.3388 161.114 70.7088 161.114 70.9972C161.114 73.3015 159.881 73.9817 151.204 74.3762C142.287 74.7815 125.375 74.825 88.9178 74.825L88.915 74.8223ZM11.2088 65.2214C11.198 66.5817 11.1381 67.6781 11.0891 68.5786C11.0755 68.8343 11.0619 69.0737 11.051 69.2968C10.9449 71.6229 11.0156 71.7263 12.9286 72.0446C14.3517 72.2813 24.7082 73.4648 88.9123 73.4648C125.35 73.4648 142.246 73.4213 151.138 73.0186C155.378 72.8254 157.791 72.5479 158.959 72.1181C159.75 71.827 159.75 71.6175 159.75 70.9972C159.75 70.6734 159.77 70.2899 159.789 69.8818C159.873 68.1787 159.998 65.6023 158.774 65.0772L158.537 64.9738C157.911 64.6991 157.65 64.5875 156.319 64.5875C154.501 64.5875 152.044 64.6882 148.931 64.8133C143.171 65.0473 134.466 65.4037 122.382 65.4037C110.297 65.4037 93.0974 65.2785 76.7327 65.1588C47.9245 64.9466 15.4238 64.7072 11.2061 65.2187L11.2088 65.2214Z" fill="#333333"/>
<path d="M95.7591 65.6517C66.6325 65.6517 35.2121 65.3442 20.2461 64.8627L20.2896 63.5023C45.5114 64.3185 117.536 64.6286 146.377 63.8178C154.295 63.5947 157.014 63.3471 157.898 63.1812L158.151 64.5171C156.793 64.7756 152.845 64.996 146.415 65.1783C134.668 65.5075 115.751 65.6544 95.7591 65.6544V65.6517Z" fill="#333333"/>
<path d="M47.7132 88.9228C24.6847 88.9228 11.4085 88.7296 9.91458 88.5637C8.2275 88.3759 6.7173 87.0374 6.80437 85.8105C6.83702 85.3725 7.13634 84.3631 9.2588 84.4338C21.5826 84.8392 35.9717 85.1194 87.4793 84.4338C116.497 84.0475 132.821 83.6585 143.819 83.0953C149.885 82.7852 154.217 82.4152 157.063 81.9717C160.97 81.3596 161.044 80.7448 161.047 80.7176L161.863 80.7556C161.798 82.1349 158.764 83.1443 143.863 83.9088C132.853 84.4747 116.521 84.861 87.4901 85.25C35.9663 85.9356 21.5636 85.6554 9.23158 85.25C8.25199 85.2201 7.65063 85.4486 7.6207 85.8676C7.57444 86.4988 8.57852 87.5897 10.0071 87.7502C12.0724 87.9787 37.0302 88.2589 79.4058 88.0005C121.131 87.7447 155.515 85.4568 161.449 83.4789C164.053 82.611 164.053 82.0588 164.051 82.0343C164.034 81.7432 163.068 81.3106 162.249 81.1365L162.421 80.3394C162.979 80.4591 164.807 80.9325 164.867 81.9908C164.913 82.8124 163.939 83.5116 161.708 84.2543C155.716 86.2512 121.215 88.5609 79.4112 88.8166C67.4112 88.8901 56.8017 88.9201 47.716 88.9201L47.7132 88.9228Z" fill="#333333"/>
<path d="M55.005 80.7832C34.175 80.7832 12.1015 80.3723 8.46615 79.4364C6.79812 79.0065 6.53417 78.348 6.60492 77.8719C6.7954 76.6149 9.77771 75.8368 13.6961 76.0245C19.3804 76.2966 61.8104 76.6204 99.4839 75.4531L99.5084 76.2694C61.8131 77.4393 19.3451 77.1128 13.6553 76.8408C9.41853 76.6421 7.47295 77.5863 7.41036 77.9944C7.4022 78.057 7.5954 78.3698 8.66751 78.6474C15.0784 80.2989 91.1519 80.7288 121.419 78.1794L121.487 78.9929C108.51 80.0867 84.2757 80.756 56.6594 80.7832C56.107 80.7832 55.5546 80.7832 55.0022 80.7832H55.005Z" fill="#333333"/>
<path d="M142.99 113.422H27.0713V149.062H142.99V113.422Z" fill="#3D9BE9"/>
<path d="M143.671 149.742H26.3916V112.742H143.671V149.742ZM27.7521 148.382H142.31V114.102H27.7521V148.382Z" fill="#333333"/>
<path d="M38.7077 127.128C39.271 127.421 39.7063 127.843 40.0138 128.39C40.3213 128.937 40.4737 129.579 40.4737 130.319C40.4737 131.059 40.3213 131.698 40.0138 132.239C39.7063 132.781 39.271 133.2 38.7077 133.494C38.1444 133.788 37.4778 133.934 36.7131 133.934H35.2383V136.5H32.8438V126.684H36.7159C37.4805 126.684 38.1472 126.831 38.7104 127.125L38.7077 127.128ZM37.6791 131.377C37.9295 131.13 38.0546 130.776 38.0546 130.319C38.0546 129.862 37.9295 129.505 37.6791 129.252C37.4288 128.999 37.0587 128.874 36.5662 128.874H35.2356V131.75H36.5662C37.0587 131.75 37.4288 131.627 37.6791 131.377Z" fill="white"/>
<path d="M48.432 134.356V136.503H41.6348V126.687H48.2769V128.834H44.0076V130.488H47.7708V132.563H44.0076V134.359H48.4348L48.432 134.356Z" fill="white"/>
<path d="M55.6306 127.128C56.1938 127.421 56.6292 127.843 56.9367 128.39C57.2442 128.937 57.3965 129.579 57.3965 130.319C57.3965 131.059 57.2442 131.698 56.9367 132.239C56.6292 132.781 56.1938 133.2 55.6306 133.494C55.0673 133.788 54.4006 133.934 53.636 133.934H52.1612V136.5H49.7666V126.684H53.6387C54.4061 126.684 55.07 126.831 55.6333 127.125L55.6306 127.128ZM54.602 131.377C54.8523 131.13 54.9775 130.776 54.9775 130.319C54.9775 129.862 54.8523 129.505 54.602 129.252C54.3516 128.999 53.9816 128.874 53.4891 128.874H52.1584V131.75H53.4891C53.9816 131.75 54.3516 131.627 54.602 131.377Z" fill="white"/>
<path d="M60.1541 128.888H57.5527V126.687H65.1364V128.888H62.5487V136.503H60.1541V128.888Z" fill="white"/>
<path d="M66.0332 126.687H68.4278V136.503H66.0332V126.687Z" fill="white"/>
<path d="M70.1338 126.688H74.1365C75.0644 126.688 75.8862 126.889 76.6045 127.291C77.3229 127.694 77.878 128.263 78.2726 129.003C78.6671 129.74 78.8658 130.605 78.8658 131.598C78.8658 132.591 78.6671 133.454 78.2726 134.194C77.878 134.931 77.3202 135.502 76.6045 135.905C75.8862 136.307 75.0644 136.509 74.1365 136.509H70.1338V126.693V126.688ZM74.0413 134.289C74.7678 134.289 75.3501 134.049 75.7882 133.573C76.2263 133.097 76.4467 132.439 76.4467 131.595C76.4467 130.752 76.2263 130.096 75.7882 129.618C75.3474 129.141 74.7651 128.902 74.0413 128.902H72.5284V134.286H74.0413V134.289Z" fill="white"/>
<path d="M86.9233 134.356V136.503H80.126V126.687H86.7682V128.834H82.4988V130.488H86.262V132.563H82.4988V134.359H86.926L86.9233 134.356Z" fill="white"/>
<path d="M93.6075 136.046C92.9027 135.61 92.3476 135.006 91.9449 134.231C91.5422 133.456 91.3408 132.577 91.3408 131.595C91.3408 130.613 91.5422 129.734 91.9449 128.959C92.3476 128.183 92.9027 127.576 93.6075 127.141C94.3122 126.706 95.1095 126.488 95.9966 126.488C96.7721 126.488 97.4687 126.646 98.0891 126.964C98.7095 127.283 99.2265 127.74 99.6374 128.338L98.1136 129.938C97.564 129.171 96.9 128.787 96.1191 128.787C95.6592 128.787 95.251 128.904 94.8918 129.138C94.5327 129.372 94.2551 129.701 94.0565 130.126C93.8578 130.55 93.7599 131.04 93.7599 131.592C93.7599 132.144 93.8578 132.631 94.0565 133.058C94.2551 133.483 94.5327 133.815 94.8918 134.046C95.251 134.28 95.6592 134.397 96.1191 134.397C96.9 134.397 97.5667 134.013 98.1136 133.246L99.6374 134.846C99.2265 135.444 98.7095 135.901 98.0891 136.22C97.4687 136.538 96.7694 136.696 95.9966 136.696C95.1095 136.696 94.3122 136.478 93.6075 136.043V136.046Z" fill="white"/>
<path d="M104.404 133.894H103.098V136.503H100.703V126.687H104.575C105.34 126.687 106.007 126.834 106.57 127.128C107.133 127.422 107.568 127.843 107.876 128.39C108.183 128.937 108.336 129.579 108.336 130.319C108.336 131.059 108.192 131.649 107.906 132.177C107.62 132.705 107.209 133.118 106.679 133.418L108.504 136.503H105.941L104.404 133.894ZM105.541 129.252C105.291 128.999 104.921 128.874 104.428 128.874H103.098V131.75H104.428C104.921 131.75 105.291 131.628 105.541 131.377C105.792 131.13 105.917 130.776 105.917 130.319C105.917 129.862 105.792 129.506 105.541 129.252Z" fill="white"/>
<path d="M116.45 134.356V136.503H109.652V126.687H116.295V128.834H112.025V130.488H115.788V132.563H112.025V134.359H116.452L116.45 134.356Z" fill="white"/>
<path d="M123.454 134.596H119.873L119.206 136.503H116.763L120.501 126.688H122.861L126.61 136.503H124.118L123.451 134.596H123.454ZM122.752 132.548L121.663 129.405L120.575 132.548H122.752Z" fill="white"/>
<path d="M134.933 136.503L134.909 131.301L132.732 135.537H131.668L129.502 131.442V136.505H127.287V126.689H129.26L132.237 132.354L135.14 126.689H137.113L137.137 136.505H134.936L134.933 136.503Z" fill="white"/>
<path d="M167.702 162.455H1.74219V163.815H167.702V162.455Z" fill="#333333"/>
<path d="M185.413 4.09193L261.964 148.216C262.837 149.86 262.211 151.903 260.567 152.775L222.018 173.242C220.374 174.115 218.331 173.489 217.458 171.846L140.907 27.7213C140.053 26.1128 140.666 24.1115 142.274 23.2574L180.946 2.7256C182.555 1.87148 184.556 2.48454 185.411 4.09303L185.413 4.09193Z" fill="#3D9BE9"/>
<path d="M261.045 152.386L256.28 154.914C255.778 155.18 255.154 154.991 254.888 154.489L176.276 6.46703C176.01 5.96534 176.2 5.34127 176.701 5.07568L181.528 2.51335C182.836 1.81825 184.462 2.31656 185.157 3.62501L262.184 148.662C262.898 150.004 262.387 151.672 261.042 152.385L261.045 152.386Z" fill="white"/>
<path d="M145.021 21.7682C142.276 23.2265 141.816 23.8622 146.009 31.76C150.202 39.6577 214.991 161.648 217.53 166.428C220.069 171.208 221.192 169.813 228.051 166.172L260.434 148.981C261.261 148.544 262.286 148.856 262.726 149.683C263.163 150.51 262.851 151.535 262.024 151.975L222.069 173.186C220.383 174.083 218.289 173.441 217.396 171.753L140.892 27.6994C140.036 26.0896 140.648 24.0906 142.26 23.236L145.023 21.769L145.021 21.7682Z" fill="#333333"/>
<path d="M260.824 152.503L255.371 155.398L253.825 152.488L261.931 148.186L262.067 148.442C262.845 149.908 262.287 151.727 260.821 152.505L260.824 152.503Z" fill="#3D9BE9"/>
<path d="M219.126 173.99C218.209 173.675 217.405 173.025 216.915 172.103L140.372 27.9763C139.886 27.0581 139.784 26.0058 140.088 25.0129C140.392 24.0201 141.065 23.2039 141.983 22.7181L180.656 2.18868C181.574 1.70287 182.627 1.60149 183.62 1.90511C184.614 2.21171 185.429 2.88208 185.915 3.80022L262.458 147.927C262.954 148.861 263.057 149.932 262.746 150.944C262.436 151.957 261.751 152.785 260.816 153.282L222.265 173.746C221.258 174.281 220.122 174.336 219.123 173.993L219.126 173.99ZM217.955 171.553C218.675 172.907 220.363 173.424 221.72 172.706L260.268 152.241C260.926 151.892 261.407 151.308 261.623 150.599C261.84 149.887 261.77 149.136 261.42 148.479L184.877 4.35189C184.537 3.71261 183.968 3.24615 183.276 3.03081C182.582 2.8177 181.849 2.88922 181.209 3.22946L142.537 23.7589C141.897 24.0991 141.426 24.6664 141.215 25.3602C141.002 26.0533 141.074 26.7869 141.414 27.4261L217.957 171.553L217.955 171.553Z" fill="#333333"/>
<path d="M176.367 5.11768L175.328 5.66943L255.01 155.687L256.049 155.136L176.367 5.11768Z" fill="#333333"/>
<path d="M174.513 8.36567L144.788 24.1406L145.34 25.1798L175.064 9.40484L174.513 8.36567Z" fill="white"/>
<path d="M207.092 166.917C207.092 166.917 205.485 168.435 205.485 176.134V230.918C205.485 232.5 206.768 233.782 208.35 233.782H273.329C274.911 233.782 276.193 232.5 276.193 230.918V176.134C276.193 171.833 275.919 168.979 274.512 166.917" fill="white"/>
<path d="M205.484 227.215C205.484 230.846 206.682 231.527 212.248 231.527H271.052C273.669 231.527 274.09 229.911 274.09 227.215V175.218C274.09 171.945 273.669 169.329 269.306 169.329H206.185L206.66 167.628L206.937 167.118L208.309 166.92H274.59C274.59 166.92 276.162 168.804 276.162 174.084V230.742C276.162 233.683 273.758 233.787 272.515 233.787H208.648C206.467 233.787 205.481 232.542 205.481 230.604V227.217L205.484 227.215Z" fill="#3D9BE9"/>
<path d="M276.187 176.636H205.491V225.719H276.187V176.636Z" fill="white"/>
<path d="M276.165 176.636H274.093V225.719H276.165V176.636Z" fill="#3D9BE9"/>
<path d="M276.187 189.071H205.491V213.723H276.187V189.071Z" fill="#3D9BE9"/>
<path d="M276.165 189.071H274.093V213.723H276.165V189.071Z" fill="#333333"/>
<path d="M273.328 234.404H208.35C206.429 234.404 204.866 232.842 204.866 230.921V176.136C204.866 168.393 206.483 166.643 206.666 166.469L207.092 166.92L207.533 167.353C207.518 167.368 206.104 168.992 206.104 176.136V230.921C206.104 232.158 207.112 233.166 208.35 233.166H273.328C274.567 233.166 275.574 232.158 275.574 230.921V176.136C275.574 171.982 275.317 169.197 274.002 167.266L275.025 166.571C276.52 168.764 276.812 171.74 276.812 176.136V230.921C276.812 232.842 275.25 234.404 273.328 234.404Z" fill="#333333"/>
<path d="M225.373 182.29C225.373 183.429 224.588 184.137 223.338 184.137H222.392V185.546H221.308V180.436H223.338C224.588 180.436 225.373 181.147 225.373 182.29ZM224.276 182.29C224.276 181.728 223.942 181.399 223.279 181.399H222.395V183.172H223.279C223.942 183.174 224.276 182.845 224.276 182.288V182.29Z" fill="#3D9BE9"/>
<path d="M229.771 184.597V185.548H226.144V180.436H229.684V181.386H227.221V182.498H229.397V183.416H227.221V184.6H229.771V184.597Z" fill="#3D9BE9"/>
<path d="M234.7 182.29C234.7 183.429 233.916 184.137 232.665 184.137H231.719V185.546H230.635V180.436H232.665C233.916 180.436 234.7 181.146 234.7 182.29ZM233.604 182.29C233.604 181.728 233.269 181.399 232.606 181.399H231.722V183.171H232.606C233.269 183.174 233.604 182.844 233.604 182.287V182.29Z" fill="#3D9BE9"/>
<path d="M236.312 181.399H234.814V180.436H238.9V181.399H237.402V185.548H236.317V181.399H236.315H236.312Z" fill="#3D9BE9"/>
<path d="M239.479 180.436H240.564V185.548H239.479V180.436Z" fill="#3D9BE9"/>
<path d="M241.676 180.436H243.805C245.34 180.436 246.39 181.444 246.39 182.991C246.39 184.538 245.338 185.546 243.805 185.546H241.676V180.434V180.436ZM243.751 184.576C244.682 184.576 245.291 183.969 245.291 182.991C245.291 182.013 244.682 181.407 243.751 181.407H242.76V184.576H243.751Z" fill="#3D9BE9"/>
<path d="M250.837 184.597V185.548H247.21V180.436H250.751V181.386H248.287V182.498H250.463V183.416H248.287V184.6H250.837V184.597Z" fill="#3D9BE9"/>
<path d="M254.135 184.926L254.328 184.51C254.662 184.866 255.259 185.131 255.875 185.131C256.754 185.131 257.133 184.73 257.133 184.225C257.133 182.821 254.249 183.685 254.249 181.794C254.249 181.041 254.786 180.393 255.977 180.393C256.504 180.393 257.054 180.558 257.43 180.846L257.262 181.276C256.861 180.992 256.39 180.853 255.977 180.853C255.12 180.853 254.739 181.269 254.739 181.781C254.739 183.185 257.624 182.336 257.624 184.198C257.624 184.95 257.074 185.592 255.878 185.592C255.172 185.587 254.481 185.317 254.135 184.921V184.926Z" fill="#333333"/>
<path d="M262.618 180.434V185.547H262.128V183.187H259.193V185.547H258.698V180.434H259.193V182.712H262.128V180.434H262.618Z" fill="#333333"/>
<path d="M263.729 182.99C263.729 181.499 264.774 180.39 266.193 180.39C267.612 180.39 268.649 181.492 268.649 182.99C268.649 184.488 267.597 185.589 266.193 185.589C264.789 185.589 263.729 184.478 263.729 182.99ZM268.154 182.99C268.154 181.769 267.317 180.873 266.193 180.873C265.069 180.873 264.217 181.772 264.217 182.99C264.217 184.208 265.059 185.107 266.193 185.107C267.327 185.107 268.154 184.21 268.154 182.99Z" fill="#333333"/>
<path d="M273.435 182.187C273.435 183.276 272.712 183.932 271.521 183.932H270.263V185.547H269.768V180.432H271.521C272.712 180.432 273.435 181.088 273.435 182.187ZM272.937 182.187C272.937 181.368 272.442 180.9 271.503 180.9H270.258V183.455H271.503C272.439 183.455 272.937 182.987 272.937 182.185V182.187Z" fill="#333333"/>
<path d="M214.89 182.91C214.89 183.922 214.041 184.744 212.991 184.744C212.672 184.744 212.36 184.668 212.08 184.519C211.906 184.427 211.748 184.309 211.614 184.17C210.894 183.435 210.928 182.273 211.691 181.578C211.716 181.555 211.743 181.533 211.768 181.511C211.914 181.39 212.077 181.291 212.253 181.219C213.078 180.882 214.036 181.149 214.548 181.857C214.694 182.061 214.798 182.288 214.85 182.531C214.878 182.655 214.893 182.781 214.893 182.91H214.89Z" fill="#3D9BE9"/>
<path d="M211.038 185.759C210.907 185.611 210.741 185.492 210.556 185.415H210.548C209.872 185.133 209.087 185.435 208.798 186.089C208.508 186.742 208.82 187.5 209.498 187.782C210.174 188.062 210.959 187.76 211.249 187.106C211.449 186.656 211.368 186.136 211.038 185.762V185.759Z" fill="#3D9BE9"/>
<path d="M211.35 178.384C210.956 178.005 210.32 178.005 209.926 178.384C209.532 178.765 209.532 179.382 209.926 179.761C210.32 180.14 210.956 180.14 211.35 179.761C211.741 179.377 211.741 178.763 211.35 178.384Z" fill="#3D9BE9"/>
<path d="M218.66 180.056C218.073 179.489 217.125 179.489 216.538 180.056C216.209 180.372 216.053 180.821 216.112 181.266C216.112 181.266 216.112 181.276 216.112 181.281C216.144 181.511 216.236 181.732 216.377 181.922C216.379 181.927 216.384 181.932 216.389 181.937C216.434 181.997 216.483 182.054 216.538 182.106C217.125 182.672 218.073 182.672 218.66 182.106C219.247 181.539 219.247 180.62 218.66 180.056Z" fill="#3D9BE9"/>
<path d="M212.078 184.519C211.905 184.427 211.746 184.309 211.612 184.17C211.627 184.19 211.724 184.353 211.258 184.92C210.813 185.467 210.597 185.428 210.558 185.413C210.743 185.49 210.909 185.608 211.04 185.757C211.036 185.744 210.961 185.559 211.395 185.034C211.845 184.487 212.08 184.519 212.08 184.519H212.078Z" fill="#3D9BE9"/>
<path d="M211.674 180.608C211.276 179.964 211.357 179.753 211.357 179.753H211.353V179.758C211.236 179.87 211.093 179.954 210.937 180.001C210.937 180.001 211.12 180.008 211.511 180.669C211.9 181.328 211.773 181.499 211.766 181.506C211.912 181.387 212.075 181.288 212.251 181.217C212.251 181.217 212.075 181.249 211.677 180.605L211.674 180.608Z" fill="#3D9BE9"/>
<path d="M216.112 181.283C216.117 181.348 216.085 181.598 215.469 181.833C214.78 182.095 214.56 181.88 214.545 181.86C214.691 182.063 214.795 182.291 214.847 182.533C214.847 182.516 214.83 182.274 215.538 181.994C216.149 181.751 216.335 181.877 216.377 181.924C216.239 181.734 216.147 181.516 216.115 181.283H216.112Z" fill="#3D9BE9"/>
<path d="M215.912 186.596C216.257 186.596 216.536 186.325 216.536 185.992C216.536 185.658 216.257 185.388 215.912 185.388C215.567 185.388 215.288 185.658 215.288 185.992C215.288 186.325 215.567 186.596 215.912 186.596Z" fill="#3D9BE9"/>
<path d="M208.828 183.487C209.371 183.487 209.811 183.062 209.811 182.539C209.811 182.015 209.371 181.59 208.828 181.59C208.285 181.59 207.845 182.015 207.845 182.539C207.845 183.062 208.285 183.487 208.828 183.487Z" fill="#3D9BE9"/>
<path d="M214.154 180.127C214.366 180.127 214.538 179.961 214.538 179.756C214.538 179.551 214.366 179.384 214.154 179.384C213.942 179.384 213.771 179.551 213.771 179.756C213.771 179.961 213.942 180.127 214.154 180.127Z" fill="#3D9BE9"/>
<path d="M212.04 199.008H209.422L208.922 200.217H207.585L210.099 194.578H211.388L213.909 200.217H212.54L212.04 199.008ZM211.629 198.018L210.735 195.859L209.841 198.018H211.629Z" fill="white"/>
<path d="M219.666 194.578V200.217H218.361V197.905H215.799V200.217H214.494V194.578H215.799V196.801H218.361V194.578H219.666Z" fill="white"/>
<path d="M223.015 198.034L222.269 198.812V200.217H220.991V194.661H222.269V197.256L224.73 194.661H226.159L223.857 197.137L226.294 200.217H224.793L223.015 198.034Z" fill="white"/>
<path d="M226.334 197.486H228.581V198.479H226.334V197.486Z" fill="white"/>
<path d="M232.333 200.312C231.766 200.312 231.253 200.19 230.793 199.947C230.337 199.698 229.978 199.357 229.713 198.923C229.454 198.484 229.324 197.989 229.324 197.439C229.324 196.888 229.454 196.396 229.713 195.962C229.978 195.523 230.337 195.182 230.793 194.938C231.253 194.69 231.769 194.565 232.341 194.565C232.822 194.565 233.256 194.65 233.642 194.819C234.034 194.989 234.362 195.232 234.627 195.55L233.801 196.312C233.425 195.878 232.96 195.661 232.404 195.661C232.06 195.661 231.753 195.738 231.483 195.891C231.213 196.039 231.002 196.248 230.848 196.518C230.7 196.788 230.626 197.095 230.626 197.439C230.626 197.783 230.7 198.09 230.848 198.359C231.002 198.629 231.213 198.841 231.483 198.994C231.753 199.143 232.06 199.217 232.404 199.217C232.96 199.217 233.425 198.997 233.801 198.558L234.627 199.32C234.362 199.643 234.034 199.889 233.642 200.058C233.251 200.227 232.814 200.312 232.333 200.312Z" fill="white"/>
<path d="M239.602 195.947V200.217H238.427V199.709C238.263 199.894 238.067 200.037 237.839 200.137C237.612 200.233 237.366 200.28 237.101 200.28C236.54 200.28 236.096 200.119 235.768 199.796C235.44 199.473 235.275 198.994 235.275 198.359V195.947H236.514V198.177C236.514 198.865 236.802 199.209 237.379 199.209C237.675 199.209 237.914 199.114 238.094 198.923C238.273 198.727 238.363 198.439 238.363 198.058V195.947H239.602Z" fill="white"/>
<path d="M212.296 221.635V222.489H208.29V221.814L210.448 219.764C210.692 219.531 210.855 219.329 210.938 219.158C211.026 218.982 211.07 218.809 211.07 218.638C211.07 218.384 210.984 218.19 210.813 218.056C210.642 217.921 210.391 217.854 210.06 217.854C209.506 217.854 209.082 218.043 208.787 218.421L208.08 217.877C208.292 217.593 208.577 217.373 208.934 217.217C209.297 217.057 209.7 216.977 210.146 216.977C210.736 216.977 211.207 217.116 211.559 217.396C211.911 217.675 212.087 218.056 212.087 218.537C212.087 218.832 212.025 219.109 211.9 219.368C211.776 219.627 211.538 219.922 211.186 220.253L209.734 221.635H212.296Z" fill="#333333"/>
<path d="M215.108 222.566C214.68 222.566 214.297 222.458 213.96 222.244C213.624 222.025 213.359 221.709 213.165 221.296C212.971 220.877 212.874 220.383 212.874 219.811C212.874 219.24 212.971 218.748 213.165 218.335C213.359 217.917 213.624 217.601 213.96 217.386C214.297 217.167 214.68 217.057 215.108 217.057C215.537 217.057 215.919 217.167 216.256 217.386C216.597 217.601 216.865 217.917 217.059 218.335C217.253 218.748 217.35 219.24 217.35 219.811C217.35 220.383 217.253 220.877 217.059 221.296C216.865 221.709 216.597 222.025 216.256 222.244C215.919 222.458 215.537 222.566 215.108 222.566ZM215.108 221.701C215.491 221.701 215.792 221.543 216.011 221.227C216.235 220.911 216.348 220.439 216.348 219.811C216.348 219.184 216.235 218.712 216.011 218.396C215.792 218.08 215.491 217.922 215.108 217.922C214.731 217.922 214.43 218.08 214.205 218.396C213.986 218.712 213.876 219.184 213.876 219.811C213.876 220.439 213.986 220.911 214.205 221.227C214.43 221.543 214.731 221.701 215.108 221.701Z" fill="#333333"/>
<path d="M220.256 222.566C219.828 222.566 219.445 222.458 219.108 222.244C218.772 222.025 218.506 221.709 218.313 221.296C218.119 220.877 218.022 220.383 218.022 219.811C218.022 219.24 218.119 218.748 218.313 218.335C218.506 217.917 218.772 217.601 219.108 217.386C219.445 217.167 219.828 217.057 220.256 217.057C220.684 217.057 221.067 217.167 221.404 217.386C221.745 217.601 222.013 217.917 222.207 218.335C222.401 218.748 222.498 219.24 222.498 219.811C222.498 220.383 222.401 220.877 222.207 221.296C222.013 221.709 221.745 222.025 221.404 222.244C221.067 222.458 220.684 222.566 220.256 222.566ZM220.256 221.701C220.639 221.701 220.939 221.543 221.159 221.227C221.383 220.911 221.495 220.439 221.495 219.811C221.495 219.184 221.383 218.712 221.159 218.396C220.939 218.08 220.639 217.922 220.256 217.922C219.879 217.922 219.578 218.08 219.353 218.396C219.134 218.712 219.024 219.184 219.024 219.811C219.024 220.439 219.134 220.911 219.353 221.227C219.578 221.543 219.879 221.701 220.256 221.701Z" fill="#333333"/>
<path d="M225.939 220.271C226.215 220.271 226.434 220.352 226.596 220.513C226.757 220.672 226.838 220.912 226.838 221.232V222.489H226.325V221.298C226.325 221.106 226.282 220.962 226.197 220.867C226.113 220.768 225.991 220.719 225.832 220.719C225.659 220.719 225.521 220.776 225.417 220.891C225.313 221.004 225.261 221.165 225.261 221.376V222.489H224.747V221.298C224.747 221.106 224.705 220.962 224.62 220.867C224.535 220.768 224.413 220.719 224.255 220.719C224.079 220.719 223.94 220.775 223.836 220.887C223.734 220.999 223.684 221.162 223.684 221.376V222.489H223.17V220.296H223.659V220.575C223.741 220.476 223.844 220.401 223.967 220.349C224.09 220.297 224.227 220.271 224.378 220.271C224.542 220.271 224.687 220.303 224.813 220.366C224.942 220.426 225.043 220.516 225.117 220.637C225.208 220.522 225.324 220.433 225.466 220.37C225.609 220.304 225.766 220.271 225.939 220.271Z" fill="#333333"/>
<path d="M229.692 220.296V222.156C229.692 222.929 229.297 223.315 228.509 223.315C228.298 223.315 228.098 223.287 227.909 223.232C227.72 223.18 227.564 223.104 227.441 223.002L227.671 222.616C227.766 222.696 227.887 222.759 228.032 222.805C228.18 222.855 228.329 222.879 228.48 222.879C228.721 222.879 228.897 222.824 229.01 222.715C229.122 222.605 229.178 222.438 229.178 222.214V222.099C229.09 222.195 228.984 222.267 228.858 222.317C228.732 222.366 228.593 222.39 228.443 222.39C228.235 222.39 228.046 222.347 227.876 222.259C227.709 222.169 227.576 222.043 227.478 221.881C227.382 221.72 227.334 221.535 227.334 221.327C227.334 221.119 227.382 220.935 227.478 220.776C227.576 220.615 227.709 220.49 227.876 220.403C228.046 220.315 228.235 220.271 228.443 220.271C228.602 220.271 228.745 220.297 228.874 220.349C229.006 220.401 229.115 220.481 229.203 220.587V220.296H229.692ZM228.521 221.955C228.715 221.955 228.874 221.898 228.997 221.783C229.123 221.665 229.186 221.513 229.186 221.327C229.186 221.143 229.123 220.994 228.997 220.879C228.874 220.764 228.715 220.706 228.521 220.706C228.324 220.706 228.162 220.764 228.036 220.879C227.913 220.994 227.851 221.143 227.851 221.327C227.851 221.513 227.913 221.665 228.036 221.783C228.162 221.898 228.324 221.955 228.521 221.955Z" fill="#333333"/>
<path d="M249.248 220.362C249.64 220.362 249.942 220.488 250.153 220.741C250.367 220.994 250.474 221.353 250.474 221.817C250.474 222.142 250.416 222.42 250.299 222.65C250.185 222.878 250.024 223.052 249.815 223.171C249.61 223.288 249.369 223.346 249.094 223.346C248.952 223.346 248.819 223.333 248.694 223.305C248.569 223.274 248.461 223.231 248.369 223.176L248.527 222.85C248.669 222.942 248.857 222.988 249.09 222.988C249.393 222.988 249.629 222.895 249.799 222.709C249.971 222.52 250.057 222.246 250.057 221.887V221.783C249.974 221.908 249.859 222.004 249.711 222.071C249.564 222.135 249.399 222.167 249.215 222.167C249.023 222.167 248.851 222.131 248.698 222.058C248.548 221.986 248.43 221.883 248.344 221.75C248.26 221.614 248.219 221.458 248.219 221.283C248.219 221.1 248.263 220.938 248.352 220.8C248.444 220.661 248.568 220.554 248.723 220.479C248.879 220.401 249.054 220.362 249.248 220.362ZM249.286 221.829C249.417 221.829 249.533 221.804 249.636 221.754C249.739 221.704 249.818 221.636 249.874 221.55C249.932 221.464 249.961 221.368 249.961 221.262C249.961 221.159 249.934 221.066 249.878 220.983C249.825 220.897 249.746 220.829 249.64 220.779C249.538 220.726 249.412 220.699 249.265 220.699C249.073 220.699 248.918 220.751 248.798 220.854C248.681 220.957 248.623 221.094 248.623 221.266C248.623 221.439 248.683 221.576 248.802 221.679C248.922 221.779 249.083 221.829 249.286 221.829Z" fill="#333333"/>
<path d="M251.821 220.362C252.213 220.362 252.515 220.488 252.726 220.741C252.94 220.994 253.047 221.353 253.047 221.817C253.047 222.142 252.989 222.42 252.872 222.65C252.758 222.878 252.597 223.052 252.388 223.171C252.183 223.288 251.942 223.346 251.667 223.346C251.525 223.346 251.392 223.333 251.267 223.305C251.142 223.274 251.034 223.231 250.942 223.176L251.1 222.85C251.242 222.942 251.43 222.988 251.663 222.988C251.966 222.988 252.202 222.895 252.372 222.709C252.544 222.52 252.63 222.246 252.63 221.887V221.783C252.547 221.908 252.432 222.004 252.284 222.071C252.137 222.135 251.972 222.167 251.788 222.167C251.596 222.167 251.424 222.131 251.271 222.058C251.121 221.986 251.003 221.883 250.917 221.75C250.833 221.614 250.792 221.458 250.792 221.283C250.792 221.1 250.836 220.938 250.925 220.8C251.017 220.661 251.141 220.554 251.296 220.479C251.452 220.401 251.627 220.362 251.821 220.362ZM251.859 221.829C251.99 221.829 252.106 221.804 252.209 221.754C252.312 221.704 252.391 221.636 252.447 221.55C252.505 221.464 252.534 221.368 252.534 221.262C252.534 221.159 252.507 221.066 252.451 220.983C252.398 220.897 252.319 220.829 252.213 220.779C252.111 220.726 251.985 220.699 251.838 220.699C251.646 220.699 251.491 220.751 251.371 220.854C251.254 220.957 251.196 221.094 251.196 221.266C251.196 221.439 251.256 221.576 251.375 221.679C251.495 221.779 251.656 221.829 251.859 221.829Z" fill="#333333"/>
<path d="M254.082 221.963C253.879 221.963 253.715 221.889 253.59 221.742C253.465 221.594 253.402 221.403 253.402 221.166C253.402 220.93 253.465 220.738 253.59 220.591C253.715 220.444 253.879 220.37 254.082 220.37C254.285 220.37 254.447 220.444 254.57 220.591C254.695 220.736 254.757 220.927 254.757 221.166C254.757 221.405 254.695 221.598 254.57 221.746C254.447 221.89 254.285 221.963 254.082 221.963ZM255.841 220.395H256.162L254.169 223.313H253.848L255.841 220.395ZM254.082 221.725C254.21 221.725 254.31 221.676 254.382 221.579C254.454 221.479 254.49 221.341 254.49 221.166C254.49 220.991 254.454 220.855 254.382 220.758C254.31 220.658 254.21 220.608 254.082 220.608C253.957 220.608 253.857 220.658 253.782 220.758C253.709 220.858 253.673 220.994 253.673 221.166C253.673 221.339 253.709 221.475 253.782 221.575C253.857 221.675 253.957 221.725 254.082 221.725ZM255.929 223.338C255.726 223.338 255.562 223.266 255.437 223.121C255.314 222.974 255.253 222.781 255.253 222.542C255.253 222.303 255.314 222.111 255.437 221.967C255.562 221.819 255.726 221.746 255.929 221.746C256.131 221.746 256.295 221.819 256.421 221.967C256.546 222.114 256.608 222.306 256.608 222.542C256.608 222.778 256.546 222.97 256.421 223.117C256.295 223.264 256.131 223.338 255.929 223.338ZM255.929 223.101C256.054 223.101 256.152 223.05 256.225 222.95C256.3 222.85 256.337 222.714 256.337 222.542C256.337 222.37 256.3 222.233 256.225 222.133C256.152 222.033 256.054 221.983 255.929 221.983C255.801 221.983 255.701 222.033 255.628 222.133C255.556 222.231 255.52 222.367 255.52 222.542C255.52 222.717 255.556 222.855 255.628 222.955C255.701 223.052 255.801 223.101 255.929 223.101Z" fill="#333333"/>
<path d="M259.434 220.438C259.806 220.438 260.099 220.527 260.313 220.705C260.526 220.883 260.633 221.128 260.633 221.44C260.633 221.752 260.526 221.997 260.313 222.175C260.099 222.353 259.806 222.442 259.434 222.442H258.723V223.313H258.312V220.438H259.434ZM259.421 222.085C259.682 222.085 259.88 222.03 260.017 221.921C260.154 221.808 260.222 221.648 260.222 221.44C260.222 221.232 260.154 221.073 260.017 220.964C259.88 220.851 259.682 220.795 259.421 220.795H258.723V222.085H259.421Z" fill="#333333"/>
<path d="M262.436 223.346C262.053 223.346 261.754 223.236 261.54 223.017C261.327 222.798 261.22 222.483 261.22 222.073V220.438H261.631V222.056C261.631 222.672 261.901 222.98 262.44 222.98C262.703 222.98 262.904 222.905 263.044 222.755C263.184 222.601 263.253 222.368 263.253 222.056V220.438H263.652V222.073C263.652 222.486 263.545 222.802 263.331 223.021C263.118 223.238 262.819 223.346 262.436 223.346Z" fill="#333333"/>
<path d="M266.416 223.313L265.796 222.43C265.719 222.435 265.659 222.438 265.615 222.438H264.905V223.313H264.494V220.438H265.615C265.988 220.438 266.281 220.527 266.494 220.705C266.708 220.883 266.815 221.128 266.815 221.44C266.815 221.662 266.76 221.851 266.651 222.007C266.541 222.163 266.385 222.277 266.182 222.348L266.864 223.313H266.416ZM265.603 222.089C265.863 222.089 266.062 222.033 266.199 221.921C266.336 221.808 266.404 221.648 266.404 221.44C266.404 221.232 266.336 221.073 266.199 220.964C266.062 220.851 265.863 220.795 265.603 220.795H264.905V222.089H265.603Z" fill="#333333"/>
<path d="M267.479 220.438H267.889V223.313H267.479V220.438Z" fill="#333333"/>
<path d="M269.321 220.795H268.335V220.438H270.714V220.795H269.728V223.313H269.321V220.795Z" fill="#333333"/>
<path d="M272.23 222.319V223.313H271.823V222.311L270.681 220.438H271.121L272.041 221.954L272.965 220.438H273.372L272.23 222.319Z" fill="#333333"/>
<path d="M276.804 226.338H204.87V176.018H276.804V226.338ZM206.108 225.101H275.566V177.255H206.108V225.101Z" fill="#333333"/>
<path d="M276.804 214.339H204.87V188.449H276.804V214.339ZM206.108 213.101H275.566V189.687H206.108V213.101Z" fill="#333333"/>
<path d="M208.07 226.967H206.832V230.084H208.07V226.967Z" fill="white"/>
<path d="M208.071 212.071H206.833V195.388C206.833 193.517 206.828 192.178 206.823 190.598L208.061 190.593C208.066 192.173 208.071 193.514 208.071 195.388V212.071Z" fill="white"/>
<path d="M208.113 175.008H206.875C206.875 174.802 206.872 174.589 206.867 174.372C206.845 173.077 206.818 171.465 207.541 169.841L208.673 170.343C208.061 171.72 208.083 173.119 208.106 174.352C208.11 174.577 208.113 174.797 208.113 175.01V175.008Z" fill="white"/>
<path d="M276.596 163.546H205.289C204.855 163.546 204.504 163.897 204.504 164.331V166.252C204.504 166.685 204.855 167.037 205.289 167.037H276.596C277.03 167.037 277.381 166.685 277.381 166.252V164.331C277.381 163.897 277.03 163.546 276.596 163.546Z" fill="#565656"/>
<path d="M207.136 131.695H274.749C275.954 131.695 276.935 132.676 276.935 133.881V163.546H204.949V133.881C204.949 132.676 205.93 131.695 207.136 131.695Z" fill="#565656"/>
<path d="M276.596 167.656H205.289C204.514 167.656 203.885 167.027 203.885 166.252V164.331C203.885 163.556 204.514 162.927 205.289 162.927H276.596C277.371 162.927 278 163.556 278 164.331V166.252C278 167.027 277.371 167.656 276.596 167.656ZM205.289 164.165C205.197 164.165 205.123 164.239 205.123 164.331V166.252C205.123 166.343 205.197 166.418 205.289 166.418H276.596C276.688 166.418 276.762 166.343 276.762 166.252V164.331C276.762 164.239 276.688 164.165 276.596 164.165H205.289Z" fill="#333333"/>
<path d="M277.554 164.165H204.33V133.881C204.33 132.334 205.588 131.076 207.135 131.076H274.748C276.296 131.076 277.554 132.334 277.554 133.881V164.165ZM205.568 162.927H276.316V133.881C276.316 133.017 275.613 132.314 274.748 132.314H207.135C206.271 132.314 205.568 133.017 205.568 133.881V162.927Z" fill="#333333"/>
<path d="M206.348 166.274H205.11V165.714C205.11 164.947 205.866 164.348 206.831 164.348H274.261V165.586H206.831C206.554 165.586 206.39 165.692 206.348 165.742V166.276V166.274Z" fill="white"/>
<path d="M207.353 161.8H206.115V134.322C206.115 133.373 206.888 132.604 207.834 132.604H274.706V133.841H207.834C207.569 133.841 207.353 134.057 207.353 134.322V161.8Z" fill="white"/>
<path d="M125.574 163.787C125.574 163.787 123.736 165.522 123.736 174.323V236.947C123.736 238.755 125.202 240.223 127.012 240.223H201.288C203.096 240.223 204.564 238.757 204.564 236.947V174.323C204.564 169.409 204.249 166.144 202.643 163.787" fill="white"/>
<path d="M123.732 230.397C123.732 235.007 125.255 235.871 132.319 235.871H206.951C210.274 235.871 210.809 233.819 210.809 230.397V176.676C210.809 172.522 210.274 169.199 204.735 169.199H124.623L125.225 167.041L125.577 166.395L127.317 166.142H211.44C211.44 166.142 213.436 168.533 213.436 175.235V234.871C213.436 238.604 210.386 238.735 208.806 238.735H127.748C124.98 238.735 123.729 237.156 123.729 234.695V230.395L123.732 230.397Z" fill="#3D9BE9"/>
<path d="M123.735 232.709C123.735 236.861 125.107 237.638 131.468 237.638H198.684C201.678 237.638 202.158 235.789 202.158 232.709V173.273C202.158 169.533 201.678 166.54 196.689 166.54H124.537L125.079 164.597L125.396 164.015L126.964 163.787H202.728C202.728 163.787 204.525 165.941 204.525 171.976V236.742C204.525 240.104 201.779 240.22 200.356 240.22H127.352C124.859 240.22 123.732 238.797 123.732 236.584V232.712L123.735 232.709Z" fill="#333333"/>
<path d="M204.552 174.895H123.744V231.001H204.552V174.895Z" fill="white"/>
<path d="M204.531 174.895H202.161V231.001H204.531V174.895Z" fill="#3D9BE9"/>
<path d="M204.552 189.108H123.744V217.285H204.552V189.108Z" fill="#3D9BE9"/>
<path d="M204.531 189.108H202.161V217.285H204.531V189.108Z" fill="#333333"/>
<path d="M201.288 240.839H127.012C124.865 240.839 123.117 239.094 123.117 236.945V174.321C123.117 165.508 124.94 163.533 125.148 163.334L125.573 163.785L126.012 164.221C125.994 164.238 124.355 166.09 124.355 174.321V236.945C124.355 238.408 125.546 239.602 127.012 239.602H201.288C202.751 239.602 203.945 238.411 203.945 236.945V174.321C203.945 169.556 203.648 166.36 202.132 164.134L203.155 163.438C204.851 165.929 205.183 169.315 205.183 174.324V236.948C205.183 239.094 203.437 240.842 201.288 240.842V240.839Z" fill="#333333"/>
<path d="M146.469 181.36C146.469 182.662 145.573 183.469 144.144 183.469H143.065V185.081H141.824V179.241H144.144C145.575 179.241 146.469 180.053 146.469 181.36ZM145.214 181.36C145.214 180.716 144.833 180.342 144.072 180.342H143.062V182.37H144.072C144.83 182.373 145.214 181.999 145.214 181.36Z" fill="#3D9BE9"/>
<path d="M151.5 183.996V185.081H147.353V179.238H151.401V180.322H148.583V181.592H151.069V182.642H148.583V183.994H151.5V183.996Z" fill="#3D9BE9"/>
<path d="M157.131 181.36C157.131 182.662 156.235 183.469 154.806 183.469H153.727V185.081H152.486V179.241H154.806C156.238 179.241 157.131 180.053 157.131 181.36ZM155.876 181.36C155.876 180.716 155.495 180.342 154.735 180.342H153.724V182.37H154.735C155.492 182.373 155.876 181.999 155.876 181.36Z" fill="#3D9BE9"/>
<path d="M158.976 180.34H157.263V179.238H161.933V180.34H160.219V185.083H158.979V180.34H158.976Z" fill="#3D9BE9"/>
<path d="M162.596 179.238H163.836V185.081H162.596V179.238Z" fill="#3D9BE9"/>
<path d="M165.106 179.238H167.54C169.293 179.238 170.494 180.389 170.494 182.159C170.494 183.929 169.291 185.081 167.54 185.081H165.106V179.238ZM167.478 183.972C168.543 183.972 169.239 183.278 169.239 182.159C169.239 181.04 168.541 180.347 167.478 180.347H166.347V183.969H167.478V183.972Z" fill="#3D9BE9"/>
<path d="M175.578 183.996V185.081H171.431V179.238H175.479V180.322H172.661V181.592H175.147V182.642H172.661V183.994H175.578V183.996Z" fill="#3D9BE9"/>
<path d="M179.344 184.37L179.567 183.894C179.948 184.303 180.631 184.605 181.334 184.605C182.34 184.605 182.773 184.147 182.773 183.57C182.773 181.966 179.475 182.954 179.475 180.792C179.475 179.933 180.089 179.19 181.451 179.19C182.055 179.19 182.681 179.381 183.112 179.71L182.919 180.203C182.461 179.879 181.924 179.72 181.451 179.72C180.47 179.72 180.035 180.196 180.035 180.78C180.035 182.384 183.333 181.414 183.333 183.543C183.333 184.402 182.706 185.137 181.337 185.137C180.532 185.13 179.74 184.823 179.344 184.37Z" fill="#333333"/>
<path d="M189.043 179.235V185.078H188.483V182.382H185.13V185.078H184.563V179.235H185.13V181.839H188.483V179.235H189.043Z" fill="#333333"/>
<path d="M190.312 182.157C190.312 180.453 191.506 179.183 193.13 179.183C194.755 179.183 195.938 180.443 195.938 182.157C195.938 183.87 194.735 185.13 193.13 185.13C191.526 185.13 190.312 183.86 190.312 182.157ZM195.371 182.157C195.371 180.763 194.413 179.738 193.13 179.738C191.848 179.738 190.872 180.765 190.872 182.157C190.872 183.548 191.835 184.575 193.13 184.575C194.425 184.575 195.371 183.55 195.371 182.157Z" fill="#333333"/>
<path d="M201.402 181.24C201.402 182.486 200.575 183.236 199.214 183.236H197.775V185.083H197.208V179.235H199.214C200.573 179.235 201.402 179.985 201.402 181.24ZM200.833 181.24C200.833 180.304 200.266 179.77 199.196 179.77H197.773V182.691H199.196C200.268 182.691 200.833 182.156 200.833 181.24Z" fill="#333333"/>
<path d="M134.482 182.068C134.482 183.226 133.509 184.164 132.311 184.164C131.947 184.164 131.588 184.075 131.269 183.907C131.071 183.803 130.89 183.667 130.736 183.508C129.914 182.667 129.954 181.34 130.823 180.545C130.853 180.518 130.88 180.493 130.912 180.468C131.078 180.33 131.264 180.218 131.467 180.134C132.41 179.75 133.504 180.055 134.091 180.864C134.26 181.095 134.376 181.357 134.435 181.634C134.468 181.775 134.482 181.921 134.482 182.068Z" fill="#3D9BE9"/>
<path d="M130.08 185.322C129.929 185.152 129.741 185.018 129.528 184.929H129.521C128.748 184.605 127.852 184.951 127.52 185.699C127.188 186.446 127.547 187.313 128.32 187.632C129.092 187.952 129.989 187.608 130.321 186.86C130.548 186.345 130.454 185.748 130.078 185.322H130.08Z" fill="#3D9BE9"/>
<path d="M130.437 176.893C129.986 176.46 129.258 176.46 128.808 176.893C128.36 177.329 128.36 178.032 128.808 178.468C129.258 178.901 129.986 178.901 130.435 178.468H130.437C130.885 178.03 130.883 177.327 130.435 176.893H130.437Z" fill="#3D9BE9"/>
<path d="M138.793 178.804C138.124 178.158 137.037 178.158 136.369 178.804C135.992 179.168 135.811 179.678 135.881 180.188C135.881 180.188 135.881 180.201 135.881 180.206C135.918 180.471 136.022 180.721 136.183 180.939C136.188 180.944 136.19 180.949 136.195 180.956C136.247 181.023 136.304 181.087 136.366 181.147C137.037 181.795 138.122 181.795 138.793 181.147C139.464 180.498 139.464 179.451 138.793 178.802V178.804Z" fill="#3D9BE9"/>
<path d="M131.27 183.907C131.072 183.803 130.892 183.667 130.738 183.508C130.755 183.531 130.867 183.716 130.334 184.367C129.824 184.991 129.579 184.947 129.532 184.929C129.745 185.019 129.933 185.152 130.084 185.323C130.077 185.308 129.993 185.098 130.488 184.496C131.003 183.87 131.273 183.907 131.273 183.907H131.27Z" fill="#3D9BE9"/>
<path d="M130.809 179.436C130.354 178.701 130.448 178.46 130.448 178.46H130.443L130.44 178.465C130.307 178.594 130.146 178.688 129.965 178.743C129.965 178.743 130.173 178.75 130.621 179.508C131.064 180.26 130.921 180.456 130.913 180.463C131.079 180.327 131.267 180.216 131.468 180.132C131.468 180.132 131.267 180.169 130.809 179.433V179.436Z" fill="#3D9BE9"/>
<path d="M135.882 180.206C135.887 180.28 135.853 180.565 135.147 180.832C134.362 181.132 134.11 180.884 134.09 180.865C134.258 181.095 134.375 181.357 134.434 181.635C134.434 181.615 134.414 181.337 135.221 181.018C135.922 180.741 136.133 180.884 136.182 180.939C136.021 180.721 135.92 180.471 135.882 180.206Z" fill="#3D9BE9"/>
<path d="M135.654 186.278C136.047 186.278 136.367 185.969 136.367 185.587C136.367 185.206 136.047 184.896 135.654 184.896C135.26 184.896 134.94 185.206 134.94 185.587C134.94 185.969 135.26 186.278 135.654 186.278Z" fill="#3D9BE9"/>
<path d="M127.553 182.729C128.174 182.729 128.677 182.243 128.677 181.644C128.677 181.046 128.174 180.56 127.553 180.56C126.932 180.56 126.429 181.046 126.429 181.644C126.429 182.243 126.932 182.729 127.553 182.729Z" fill="#3D9BE9"/>
<path d="M133.644 178.884C133.886 178.884 134.083 178.694 134.083 178.46C134.083 178.227 133.886 178.037 133.644 178.037C133.402 178.037 133.206 178.227 133.206 178.46C133.206 178.694 133.402 178.884 133.644 178.884Z" fill="#3D9BE9"/>
<path d="M131.232 200.323H128.238L127.667 201.704H126.139L129.012 195.258H130.486L133.368 201.704H131.803L131.232 200.323ZM130.762 199.19L129.74 196.722L128.717 199.19H130.762Z" fill="white"/>
<path d="M139.95 195.258V201.704H138.458V199.061H135.529V201.704H134.037V195.258H135.529V197.8H138.458V195.258H139.95Z" fill="white"/>
<path d="M143.778 199.209L142.925 200.098V201.704H141.464V195.353H142.925V198.32L145.738 195.353H147.372L144.74 198.184L147.526 201.704H145.811L143.778 199.209Z" fill="white"/>
<path d="M147.572 198.583H150.14V199.717H147.572V198.583Z" fill="white"/>
<path d="M154.429 201.813C153.782 201.813 153.195 201.674 152.669 201.396C152.149 201.111 151.737 200.721 151.435 200.225C151.138 199.723 150.99 199.157 150.99 198.528C150.99 197.899 151.138 197.337 151.435 196.841C151.737 196.339 152.149 195.948 152.669 195.67C153.195 195.386 153.785 195.244 154.438 195.244C154.989 195.244 155.485 195.34 155.927 195.534C156.374 195.728 156.749 196.006 157.052 196.369L156.108 197.24C155.679 196.744 155.146 196.496 154.511 196.496C154.118 196.496 153.767 196.584 153.458 196.759C153.15 196.928 152.908 197.167 152.732 197.476C152.563 197.784 152.478 198.135 152.478 198.528C152.478 198.922 152.563 199.272 152.732 199.581C152.908 199.889 153.15 200.131 153.458 200.307C153.767 200.476 154.118 200.561 154.511 200.561C155.146 200.561 155.679 200.31 156.108 199.808L157.052 200.679C156.749 201.048 156.374 201.329 155.927 201.523C155.479 201.716 154.98 201.813 154.429 201.813Z" fill="white"/>
<path d="M162.739 196.822V201.704H161.396V201.123C161.209 201.335 160.985 201.498 160.725 201.613C160.465 201.722 160.183 201.777 159.881 201.777C159.239 201.777 158.731 201.592 158.356 201.223C157.981 200.854 157.794 200.307 157.794 199.581V196.822H159.209V199.372C159.209 200.159 159.539 200.552 160.198 200.552C160.537 200.552 160.809 200.443 161.015 200.225C161.221 200.001 161.324 199.672 161.324 199.236V196.822H162.739Z" fill="white"/>
<path d="M131.524 226.508V227.484H126.944V226.712L129.411 224.369C129.689 224.103 129.876 223.872 129.97 223.677C130.071 223.476 130.121 223.278 130.121 223.083C130.121 222.793 130.024 222.571 129.828 222.417C129.633 222.263 129.346 222.186 128.967 222.186C128.334 222.186 127.849 222.402 127.512 222.834L126.704 222.213C126.947 221.888 127.272 221.636 127.68 221.459C128.095 221.275 128.556 221.184 129.065 221.184C129.74 221.184 130.278 221.343 130.68 221.663C131.083 221.982 131.284 222.417 131.284 222.967C131.284 223.304 131.213 223.621 131.071 223.917C130.929 224.213 130.657 224.55 130.254 224.928L128.595 226.508H131.524Z" fill="#333333"/>
<path d="M134.737 227.571C134.248 227.571 133.81 227.449 133.426 227.204C133.041 226.954 132.738 226.592 132.516 226.12C132.295 225.642 132.184 225.077 132.184 224.424C132.184 223.771 132.295 223.208 132.516 222.736C132.738 222.258 133.041 221.897 133.426 221.652C133.81 221.401 134.248 221.276 134.737 221.276C135.227 221.276 135.664 221.401 136.049 221.652C136.44 221.897 136.746 222.258 136.967 222.736C137.189 223.208 137.3 223.771 137.3 224.424C137.3 225.077 137.189 225.642 136.967 226.12C136.746 226.592 136.44 226.954 136.049 227.204C135.664 227.449 135.227 227.571 134.737 227.571ZM134.737 226.583C135.175 226.583 135.519 226.403 135.769 226.041C136.026 225.68 136.154 225.141 136.154 224.424C136.154 223.707 136.026 223.168 135.769 222.806C135.519 222.445 135.175 222.264 134.737 222.264C134.306 222.264 133.962 222.445 133.705 222.806C133.455 223.168 133.329 223.707 133.329 224.424C133.329 225.141 133.455 225.68 133.705 226.041C133.962 226.403 134.306 226.583 134.737 226.583Z" fill="#333333"/>
<path d="M140.622 227.571C140.132 227.571 139.695 227.449 139.31 227.204C138.925 226.954 138.622 226.592 138.4 226.12C138.179 225.642 138.068 225.077 138.068 224.424C138.068 223.771 138.179 223.208 138.4 222.736C138.622 222.258 138.925 221.897 139.31 221.652C139.695 221.401 140.132 221.276 140.622 221.276C141.111 221.276 141.549 221.401 141.934 221.652C142.324 221.897 142.63 222.258 142.852 222.736C143.073 223.208 143.184 223.771 143.184 224.424C143.184 225.077 143.073 225.642 142.852 226.12C142.63 226.592 142.324 226.954 141.934 227.204C141.549 227.449 141.111 227.571 140.622 227.571ZM140.622 226.583C141.059 226.583 141.403 226.403 141.654 226.041C141.91 225.68 142.038 225.141 142.038 224.424C142.038 223.707 141.91 223.168 141.654 222.806C141.403 222.445 141.059 222.264 140.622 222.264C140.19 222.264 139.846 222.445 139.59 222.806C139.339 223.168 139.214 223.707 139.214 224.424C139.214 225.141 139.339 225.68 139.59 226.041C139.846 226.403 140.19 226.583 140.622 226.583Z" fill="#333333"/>
<path d="M147.117 224.949C147.433 224.949 147.683 225.042 147.868 225.226C148.052 225.408 148.145 225.682 148.145 226.048V227.484H147.558V226.123C147.558 225.904 147.509 225.74 147.412 225.63C147.315 225.517 147.176 225.461 146.995 225.461C146.797 225.461 146.639 225.527 146.52 225.658C146.402 225.787 146.342 225.971 146.342 226.212V227.484H145.755V226.123C145.755 225.904 145.707 225.74 145.61 225.63C145.513 225.517 145.373 225.461 145.192 225.461C144.992 225.461 144.832 225.525 144.713 225.654C144.597 225.782 144.539 225.968 144.539 226.212V227.484H143.953V224.978H144.511V225.297C144.605 225.184 144.722 225.098 144.863 225.039C145.004 224.979 145.161 224.949 145.333 224.949C145.521 224.949 145.686 224.985 145.83 225.057C145.977 225.126 146.093 225.23 146.178 225.367C146.281 225.236 146.414 225.134 146.577 225.062C146.74 224.987 146.919 224.949 147.117 224.949Z" fill="#333333"/>
<path d="M151.406 224.978V227.104C151.406 227.986 150.955 228.427 150.054 228.427C149.813 228.427 149.584 228.396 149.368 228.334C149.152 228.274 148.974 228.187 148.833 228.071L149.096 227.63C149.206 227.72 149.343 227.792 149.509 227.845C149.678 227.902 149.849 227.93 150.021 227.93C150.296 227.93 150.498 227.867 150.626 227.742C150.755 227.617 150.819 227.426 150.819 227.17V227.038C150.719 227.148 150.597 227.231 150.453 227.287C150.309 227.343 150.151 227.371 149.979 227.371C149.741 227.371 149.525 227.321 149.331 227.221C149.14 227.118 148.988 226.974 148.875 226.789C148.766 226.605 148.711 226.394 148.711 226.156C148.711 225.918 148.766 225.708 148.875 225.527C148.988 225.342 149.14 225.2 149.331 225.1C149.525 225 149.741 224.949 149.979 224.949C150.16 224.949 150.324 224.979 150.471 225.039C150.622 225.098 150.747 225.189 150.847 225.311V224.978H151.406ZM150.068 226.874C150.29 226.874 150.471 226.808 150.612 226.677C150.756 226.542 150.828 226.369 150.828 226.156C150.828 225.946 150.756 225.776 150.612 225.644C150.471 225.513 150.29 225.447 150.068 225.447C149.842 225.447 149.658 225.513 149.514 225.644C149.373 225.776 149.303 225.946 149.303 226.156C149.303 226.369 149.373 226.542 149.514 226.677C149.658 226.808 149.842 226.874 150.068 226.874Z" fill="#333333"/>
<path d="M205.173 231.62H123.127V174.276H205.173V231.62ZM124.365 230.383H203.935V175.514H124.365V230.383Z" fill="#333333"/>
<path d="M205.173 217.906H123.127V188.491H205.173V217.906ZM124.365 216.668H203.935V189.729H124.365V216.668Z" fill="#333333"/>
<path d="M126.603 215.401H125.365V196.332C125.365 194.191 125.36 192.661 125.355 190.856L126.593 190.851C126.598 192.658 126.603 194.191 126.603 196.332V215.401Z" fill="white"/>
<path d="M205.023 159.933H123.512C123.017 159.933 122.615 160.334 122.615 160.829V163.028C122.615 163.523 123.017 163.924 123.512 163.924H205.023C205.518 163.924 205.919 163.523 205.919 163.028V160.829C205.919 160.334 205.518 159.933 205.023 159.933Z" fill="#565656"/>
<path d="M125.625 123.525H202.912C204.291 123.525 205.41 124.644 205.41 126.023V159.931H123.127V126.023C123.127 124.644 124.246 123.525 125.625 123.525Z" fill="#565656"/>
<path d="M205.024 164.543H123.515C122.678 164.543 122 163.862 122 163.028V160.832C122 159.995 122.681 159.317 123.515 159.317H205.024C205.861 159.317 206.539 159.998 206.539 160.832V163.028C206.539 163.865 205.858 164.543 205.024 164.543ZM123.515 160.552C123.362 160.552 123.238 160.676 123.238 160.83V163.026C123.238 163.179 123.362 163.303 123.515 163.303H205.024C205.177 163.303 205.301 163.179 205.301 163.026V160.83C205.301 160.676 205.177 160.552 205.024 160.552H123.515Z" fill="#333333"/>
<path d="M206.029 160.552H122.508V126.025C122.508 124.307 123.907 122.909 125.625 122.909H202.912C204.63 122.909 206.029 124.307 206.029 126.025V160.552ZM123.746 159.314H204.791V126.025C204.791 124.988 203.949 124.146 202.912 124.146H125.625C124.588 124.146 123.746 124.991 123.746 126.025V159.314Z" fill="#333333"/>
<path d="M124.637 163.05H123.399V162.409C123.399 161.582 124.224 160.934 125.276 160.934H202.353V162.171H125.276C124.883 162.171 124.657 162.347 124.637 162.414V163.048V163.05Z" fill="white"/>
<path d="M125.784 157.938H124.546V126.528C124.546 125.493 125.388 124.651 126.423 124.651H202.863V125.889H126.423C126.071 125.889 125.784 126.176 125.784 126.528V157.938Z" fill="white"/>
<path d="M165.88 164.516C165.88 164.516 163.84 166.442 163.84 176.216V245.747C163.84 247.755 165.467 249.381 167.475 249.381H249.944C251.952 249.381 253.579 247.755 253.579 245.747V176.216C253.579 170.759 253.23 167.135 251.447 164.516" fill="white"/>
<path d="M163.84 241.043C163.84 245.653 165.363 246.517 172.427 246.517H247.06C250.383 246.517 250.917 244.464 250.917 241.043V175.05C250.917 170.896 250.383 167.573 244.844 167.573H164.732L165.333 165.415L165.685 164.769L167.426 164.516H251.549C251.549 164.516 253.545 166.908 253.545 173.609V245.517C253.545 249.25 250.494 249.381 248.914 249.381H167.857C165.088 249.381 163.838 247.802 163.838 245.341V241.041L163.84 241.043Z" fill="#3D9BE9"/>
<path d="M253.575 176.85H163.851V239.145H253.575V176.85Z" fill="white"/>
<path d="M253.548 176.85H250.918V239.145H253.548V176.85Z" fill="#3D9BE9"/>
<path d="M253.575 192.631H163.851V223.917H253.575V192.631Z" fill="#3D9BE9"/>
<path d="M253.548 192.631H250.918V223.917H253.548V192.631Z" fill="#333333"/>
<path d="M249.948 250H167.478C165.131 250 163.225 248.091 163.225 245.747V176.216C163.225 166.46 165.23 164.284 165.458 164.068L166.307 164.967L165.881 164.516L166.32 164.955C166.3 164.974 164.46 167.027 164.46 176.216V245.747C164.46 247.411 165.815 248.762 167.476 248.762H249.945C251.609 248.762 252.961 247.408 252.961 245.747V176.216C252.961 170.911 252.629 167.351 250.936 164.865L251.958 164.17C253.83 166.92 254.196 170.668 254.196 176.216V245.747C254.196 248.094 252.287 250 249.943 250H249.948Z" fill="#333333"/>
<path d="M189.083 184.027C189.083 185.473 188.088 186.369 186.501 186.369H185.302V188.156H183.926V181.672H186.503C188.09 181.672 189.086 182.574 189.086 184.027H189.083ZM187.689 184.027C187.689 183.314 187.266 182.895 186.422 182.895H185.3V185.146H186.422C187.263 185.148 187.689 184.732 187.689 184.024V184.027Z" fill="#3D9BE9"/>
<path d="M194.667 186.955V188.161H190.062V181.672H194.556V182.878H191.428V184.289H194.189V185.455H191.428V186.958H194.667V186.955Z" fill="#3D9BE9"/>
<path d="M200.92 184.027C200.92 185.473 199.925 186.369 198.338 186.369H197.139V188.156H195.763V181.672H198.34C199.927 181.672 200.923 182.574 200.923 184.027H200.92ZM199.526 184.027C199.526 183.314 199.103 182.895 198.259 182.895H197.137V185.146H198.259C199.1 185.148 199.526 184.732 199.526 184.024V184.027Z" fill="#3D9BE9"/>
<path d="M202.969 182.895H201.067V181.672H206.252V182.895H204.351V188.161H202.974V182.895H202.971H202.969Z" fill="#3D9BE9"/>
<path d="M206.987 181.672H208.364V188.161H206.987V181.672Z" fill="#3D9BE9"/>
<path d="M209.774 181.672H212.478C214.427 181.672 215.759 182.952 215.759 184.915C215.759 186.879 214.424 188.158 212.478 188.158H209.774V181.669V181.672ZM212.409 186.928C213.592 186.928 214.362 186.158 214.362 184.918C214.362 183.677 213.587 182.907 212.409 182.907H211.151V186.928H212.409Z" fill="#3D9BE9"/>
<path d="M221.402 186.956V188.161H216.797V181.672H221.291V182.878H218.164V184.289H220.924V185.455H218.164V186.958H221.402V186.956Z" fill="#3D9BE9"/>
<path d="M225.583 187.369L225.828 186.842C226.252 187.295 227.012 187.629 227.792 187.629C228.906 187.629 229.389 187.119 229.389 186.48C229.389 184.7 225.727 185.794 225.727 183.395C225.727 182.442 226.408 181.618 227.92 181.618C228.591 181.618 229.287 181.831 229.765 182.195L229.552 182.742C229.045 182.38 228.448 182.204 227.923 182.204C226.833 182.204 226.351 182.732 226.351 183.38C226.351 185.161 230.013 184.084 230.013 186.448C230.013 187.401 229.317 188.218 227.797 188.218C226.903 188.211 226.024 187.869 225.583 187.366V187.369Z" fill="#333333"/>
<path d="M236.351 181.669V188.158H235.73V185.165H232.006V188.158H231.377V181.669H232.006V184.561H235.73V181.669H236.351Z" fill="#333333"/>
<path d="M237.764 184.913C237.764 183.022 239.088 181.613 240.891 181.613C242.693 181.613 244.008 183.012 244.008 184.913C244.008 186.814 242.674 188.213 240.891 188.213C239.108 188.213 237.764 186.802 237.764 184.913ZM243.379 184.913C243.379 183.366 242.317 182.227 240.891 182.227C239.465 182.227 238.383 183.368 238.383 184.913C238.383 186.458 239.452 187.599 240.891 187.599C242.329 187.599 243.379 186.46 243.379 184.913Z" fill="#333333"/>
<path d="M250.077 183.895C250.077 185.277 249.161 186.111 247.646 186.111H246.049V188.161H245.42V181.669H247.646C249.156 181.669 250.077 182.504 250.077 183.895ZM249.446 183.895C249.446 182.855 248.817 182.264 247.629 182.264H246.046V185.507H247.629C248.817 185.507 249.446 184.913 249.446 183.895Z" fill="#333333"/>
<path d="M175.777 184.81C175.777 186.098 174.697 187.14 173.367 187.14C172.964 187.14 172.565 187.041 172.211 186.853C171.991 186.737 171.79 186.588 171.619 186.412C170.706 185.479 170.75 184.006 171.716 183.122C171.748 183.092 171.78 183.065 171.815 183.038C171.998 182.884 172.206 182.758 172.429 182.666C173.476 182.238 174.69 182.577 175.343 183.478C175.529 183.736 175.66 184.026 175.725 184.333C175.759 184.491 175.777 184.652 175.777 184.813V184.81Z" fill="#3D9BE9"/>
<path d="M170.89 188.427C170.724 188.239 170.514 188.091 170.279 187.992H170.271C169.412 187.633 168.417 188.016 168.048 188.846C167.679 189.675 168.077 190.638 168.937 190.995C169.796 191.351 170.791 190.965 171.16 190.136C171.413 189.564 171.309 188.903 170.893 188.43L170.89 188.427Z" fill="#3D9BE9"/>
<path d="M171.285 179.067C170.785 178.584 169.975 178.584 169.478 179.067C168.978 179.55 168.98 180.332 169.478 180.815C169.978 181.298 170.785 181.298 171.285 180.815H171.288C171.785 180.33 171.783 179.55 171.285 179.067Z" fill="#3D9BE9"/>
<path d="M180.561 181.189C179.819 180.471 178.613 180.471 177.87 181.189C177.454 181.592 177.253 182.159 177.328 182.724C177.328 182.724 177.328 182.736 177.328 182.744C177.37 183.036 177.486 183.316 177.662 183.556C177.667 183.563 177.672 183.568 177.677 183.573C177.734 183.647 177.798 183.719 177.865 183.786C178.608 184.504 179.814 184.504 180.559 183.786C181.302 183.068 181.302 181.902 180.559 181.184L180.561 181.189Z" fill="#3D9BE9"/>
<path d="M172.208 186.853C171.988 186.736 171.787 186.588 171.616 186.412C171.636 186.437 171.757 186.642 171.168 187.365C170.601 188.058 170.329 188.009 170.279 187.992C170.515 188.091 170.725 188.239 170.891 188.427C170.883 188.41 170.789 188.177 171.339 187.509C171.911 186.813 172.211 186.855 172.211 186.855L172.208 186.853Z" fill="#3D9BE9"/>
<path d="M171.696 181.89C171.189 181.073 171.295 180.808 171.295 180.808L171.288 180.813H171.285C171.139 180.959 170.956 181.063 170.758 181.122C170.758 181.122 170.991 181.129 171.488 181.971C171.981 182.806 171.82 183.023 171.813 183.033C171.998 182.882 172.206 182.759 172.429 182.667C172.429 182.667 172.206 182.709 171.699 181.892L171.696 181.89Z" fill="#3D9BE9"/>
<path d="M177.331 182.746C177.336 182.827 177.296 183.144 176.513 183.441C175.642 183.776 175.362 183.501 175.34 183.476C175.526 183.733 175.657 184.023 175.721 184.33C175.721 184.308 175.699 183.998 176.598 183.644C177.375 183.337 177.608 183.496 177.662 183.555C177.484 183.315 177.37 183.035 177.328 182.743L177.331 182.746Z" fill="#3D9BE9"/>
<path d="M177.076 189.488C177.513 189.488 177.868 189.145 177.868 188.722C177.868 188.3 177.513 187.958 177.076 187.958C176.638 187.958 176.283 188.3 176.283 188.722C176.283 189.145 176.638 189.488 177.076 189.488Z" fill="#3D9BE9"/>
<path d="M168.083 185.546C168.772 185.546 169.331 185.006 169.331 184.34C169.331 183.674 168.772 183.134 168.083 183.134C167.394 183.134 166.835 183.674 166.835 184.34C166.835 185.006 167.394 185.546 168.083 185.546Z" fill="#3D9BE9"/>
<path d="M174.848 181.278C175.116 181.278 175.333 181.068 175.333 180.808C175.333 180.548 175.116 180.337 174.848 180.337C174.58 180.337 174.362 180.548 174.362 180.808C174.362 181.068 174.58 181.278 174.848 181.278Z" fill="#3D9BE9"/>
<path d="M172.161 205.09H168.838L168.204 206.623H166.507L169.697 199.467H171.333L174.533 206.623H172.795L172.161 205.09ZM171.64 203.832L170.505 201.093L169.37 203.832H171.64Z" fill="white"/>
<path d="M181.84 199.467V206.623H180.184V203.689H176.932V206.623H175.276V199.467H176.932V202.289H180.184V199.467H181.84Z" fill="white"/>
<path d="M186.091 203.853L185.144 204.84V206.623H183.521V199.572H185.144V202.866L188.267 199.572H190.08L187.159 202.715L190.252 206.623H188.347L186.091 203.853Z" fill="white"/>
<path d="M190.303 203.158H193.154V204.417H190.303V203.158Z" fill="white"/>
<path d="M197.916 206.744C197.197 206.744 196.546 206.59 195.962 206.281C195.384 205.965 194.927 205.532 194.591 204.981C194.262 204.424 194.098 203.796 194.098 203.098C194.098 202.399 194.262 201.775 194.591 201.224C194.927 200.667 195.384 200.234 195.962 199.925C196.546 199.609 197.201 199.451 197.926 199.451C198.537 199.451 199.088 199.559 199.578 199.774C200.075 199.988 200.492 200.297 200.828 200.7L199.78 201.667C199.303 201.117 198.712 200.841 198.007 200.841C197.57 200.841 197.181 200.939 196.838 201.133C196.496 201.321 196.227 201.587 196.032 201.929C195.844 202.272 195.75 202.661 195.75 203.098C195.75 203.534 195.844 203.924 196.032 204.266C196.227 204.609 196.496 204.877 196.838 205.072C197.181 205.26 197.57 205.354 198.007 205.354C198.712 205.354 199.303 205.075 199.78 204.518L200.828 205.485C200.492 205.895 200.075 206.207 199.578 206.422C199.081 206.637 198.527 206.744 197.916 206.744Z" fill="white"/>
<path d="M207.142 201.204V206.623H205.651V205.979C205.443 206.214 205.194 206.395 204.905 206.522C204.617 206.643 204.304 206.704 203.968 206.704C203.256 206.704 202.692 206.499 202.276 206.089C201.859 205.68 201.651 205.072 201.651 204.266V201.204H203.223V204.034C203.223 204.907 203.589 205.344 204.321 205.344C204.697 205.344 204.999 205.223 205.228 204.981C205.456 204.733 205.57 204.367 205.57 203.883V201.204H207.142Z" fill="white"/>
<path d="M172.482 234.191V235.275H167.398V234.418L170.137 231.817C170.446 231.522 170.653 231.266 170.758 231.049C170.869 230.826 170.925 230.606 170.925 230.389C170.925 230.067 170.817 229.821 170.6 229.65C170.383 229.479 170.065 229.394 169.644 229.394C168.942 229.394 168.403 229.634 168.028 230.113L167.132 229.424C167.401 229.062 167.762 228.783 168.216 228.586C168.675 228.383 169.188 228.281 169.753 228.281C170.502 228.281 171.099 228.458 171.546 228.813C171.993 229.167 172.216 229.65 172.216 230.261C172.216 230.635 172.137 230.987 171.98 231.315C171.822 231.643 171.52 232.018 171.073 232.438L169.231 234.191H172.482Z" fill="#333333"/>
<path d="M176.05 235.372C175.506 235.372 175.021 235.236 174.594 234.965C174.166 234.686 173.83 234.285 173.584 233.761C173.338 233.23 173.215 232.603 173.215 231.878C173.215 231.153 173.338 230.529 173.584 230.004C173.83 229.474 174.166 229.073 174.594 228.801C175.021 228.523 175.506 228.383 176.05 228.383C176.594 228.383 177.079 228.523 177.506 228.801C177.94 229.073 178.28 229.474 178.526 230.004C178.771 230.529 178.894 231.153 178.894 231.878C178.894 232.603 178.771 233.23 178.526 233.761C178.28 234.285 177.94 234.686 177.506 234.965C177.079 235.236 176.594 235.372 176.05 235.372ZM176.05 234.275C176.535 234.275 176.917 234.075 177.195 233.674C177.48 233.272 177.623 232.674 177.623 231.878C177.623 231.082 177.48 230.483 177.195 230.082C176.917 229.681 176.535 229.48 176.05 229.48C175.571 229.48 175.189 229.681 174.904 230.082C174.626 230.483 174.487 231.082 174.487 231.878C174.487 232.674 174.626 233.272 174.904 233.674C175.189 234.075 175.571 234.275 176.05 234.275Z" fill="#333333"/>
<path d="M182.582 235.372C182.039 235.372 181.553 235.236 181.126 234.965C180.699 234.686 180.362 234.285 180.116 233.761C179.87 233.23 179.747 232.603 179.747 231.878C179.747 231.153 179.87 230.529 180.116 230.004C180.362 229.474 180.699 229.073 181.126 228.801C181.553 228.523 182.039 228.383 182.582 228.383C183.126 228.383 183.611 228.523 184.039 228.801C184.472 229.073 184.812 229.474 185.058 230.004C185.304 230.529 185.427 231.153 185.427 231.878C185.427 232.603 185.304 233.23 185.058 233.761C184.812 234.285 184.472 234.686 184.039 234.965C183.611 235.236 183.126 235.372 182.582 235.372ZM182.582 234.275C183.068 234.275 183.45 234.075 183.728 233.674C184.013 233.272 184.155 232.674 184.155 231.878C184.155 231.082 184.013 230.483 183.728 230.082C183.45 229.681 183.068 229.48 182.582 229.48C182.103 229.48 181.721 229.681 181.437 230.082C181.158 230.483 181.019 231.082 181.019 231.878C181.019 232.674 181.158 233.272 181.437 233.674C181.721 234.075 182.103 234.275 182.582 234.275Z" fill="#333333"/>
<path d="M189.793 232.461C190.144 232.461 190.422 232.564 190.627 232.769C190.832 232.97 190.934 233.274 190.934 233.681V235.275H190.283V233.764C190.283 233.521 190.229 233.338 190.121 233.217C190.014 233.092 189.859 233.029 189.657 233.029C189.438 233.029 189.263 233.102 189.131 233.248C188.999 233.39 188.933 233.595 188.933 233.863V235.275H188.281V233.764C188.281 233.521 188.228 233.338 188.12 233.217C188.012 233.092 187.857 233.029 187.656 233.029C187.434 233.029 187.256 233.1 187.124 233.243C186.996 233.385 186.931 233.592 186.931 233.863V235.275H186.28V232.492H186.9V232.847C187.004 232.722 187.135 232.626 187.291 232.56C187.447 232.494 187.621 232.461 187.812 232.461C188.021 232.461 188.205 232.501 188.365 232.581C188.528 232.657 188.657 232.772 188.75 232.925C188.865 232.779 189.013 232.666 189.194 232.586C189.374 232.503 189.574 232.461 189.793 232.461Z" fill="#333333"/>
<path d="M194.555 232.492V234.853C194.555 235.833 194.054 236.323 193.054 236.323C192.786 236.323 192.532 236.288 192.293 236.218C192.053 236.152 191.855 236.055 191.699 235.927L191.99 235.437C192.112 235.537 192.265 235.617 192.449 235.676C192.637 235.739 192.826 235.77 193.017 235.77C193.323 235.77 193.547 235.701 193.69 235.562C193.832 235.423 193.903 235.211 193.903 234.926V234.78C193.792 234.902 193.657 234.994 193.497 235.056C193.337 235.119 193.161 235.15 192.97 235.15C192.706 235.15 192.466 235.094 192.251 234.983C192.039 234.869 191.871 234.709 191.745 234.504C191.624 234.299 191.563 234.064 191.563 233.8C191.563 233.536 191.624 233.304 191.745 233.102C191.871 232.897 192.039 232.739 192.251 232.628C192.466 232.517 192.706 232.461 192.97 232.461C193.172 232.461 193.354 232.494 193.518 232.56C193.684 232.626 193.823 232.727 193.934 232.862V232.492H194.555ZM193.069 234.598C193.316 234.598 193.518 234.525 193.674 234.379C193.834 234.229 193.914 234.037 193.914 233.8C193.914 233.568 193.834 233.378 193.674 233.232C193.518 233.086 193.316 233.014 193.069 233.014C192.819 233.014 192.614 233.086 192.454 233.232C192.298 233.378 192.22 233.568 192.22 233.8C192.22 234.037 192.298 234.229 192.454 234.379C192.614 234.525 192.819 234.598 193.069 234.598Z" fill="#333333"/>
<path d="M219.383 232.207C219.88 232.207 220.263 232.367 220.531 232.688C220.802 233.009 220.938 233.464 220.938 234.053C220.938 234.465 220.864 234.818 220.716 235.111C220.571 235.4 220.367 235.62 220.102 235.772C219.841 235.92 219.536 235.994 219.187 235.994C219.007 235.994 218.838 235.976 218.679 235.941C218.521 235.902 218.383 235.848 218.267 235.777L218.468 235.365C218.647 235.481 218.885 235.539 219.182 235.539C219.566 235.539 219.866 235.421 220.081 235.185C220.3 234.945 220.409 234.598 220.409 234.143V234.011C220.303 234.169 220.157 234.291 219.97 234.376C219.783 234.457 219.573 234.497 219.34 234.497C219.097 234.497 218.878 234.451 218.684 234.36C218.494 234.268 218.344 234.138 218.235 233.968C218.129 233.796 218.076 233.598 218.076 233.376C218.076 233.143 218.133 232.939 218.245 232.762C218.362 232.586 218.519 232.45 218.716 232.355C218.914 232.256 219.136 232.207 219.383 232.207ZM219.43 234.069C219.596 234.069 219.744 234.037 219.875 233.974C220.005 233.91 220.106 233.824 220.176 233.714C220.25 233.605 220.287 233.483 220.287 233.349C220.287 233.219 220.252 233.101 220.181 232.995C220.114 232.886 220.014 232.799 219.88 232.736C219.749 232.669 219.591 232.635 219.404 232.635C219.161 232.635 218.963 232.701 218.811 232.831C218.663 232.962 218.589 233.136 218.589 233.355C218.589 233.573 218.665 233.748 218.817 233.878C218.968 234.005 219.173 234.069 219.43 234.069Z" fill="#333333"/>
<path d="M222.647 232.207C223.145 232.207 223.527 232.367 223.795 232.688C224.067 233.009 224.203 233.464 224.203 234.053C224.203 234.465 224.129 234.818 223.98 235.111C223.836 235.4 223.631 235.62 223.367 235.772C223.106 235.92 222.801 235.994 222.452 235.994C222.272 235.994 222.103 235.976 221.944 235.941C221.785 235.902 221.648 235.848 221.531 235.777L221.732 235.365C221.912 235.481 222.15 235.539 222.446 235.539C222.831 235.539 223.131 235.421 223.346 235.185C223.564 234.945 223.674 234.598 223.674 234.143V234.011C223.568 234.169 223.421 234.291 223.235 234.376C223.048 234.457 222.838 234.497 222.605 234.497C222.362 234.497 222.143 234.451 221.949 234.36C221.759 234.268 221.609 234.138 221.5 233.968C221.394 233.796 221.341 233.598 221.341 233.376C221.341 233.143 221.397 232.939 221.51 232.762C221.627 232.586 221.783 232.45 221.981 232.355C222.178 232.256 222.401 232.207 222.647 232.207ZM222.695 234.069C222.861 234.069 223.009 234.037 223.139 233.974C223.27 233.91 223.37 233.824 223.441 233.714C223.515 233.605 223.552 233.483 223.552 233.349C223.552 233.219 223.517 233.101 223.446 232.995C223.379 232.886 223.279 232.799 223.145 232.736C223.014 232.669 222.855 232.635 222.669 232.635C222.425 232.635 222.228 232.701 222.076 232.831C221.928 232.962 221.854 233.136 221.854 233.355C221.854 233.573 221.93 233.748 222.081 233.878C222.233 234.005 222.438 234.069 222.695 234.069Z" fill="#333333"/>
<path d="M225.515 234.238C225.258 234.238 225.05 234.145 224.891 233.958C224.733 233.771 224.653 233.528 224.653 233.228C224.653 232.928 224.733 232.685 224.891 232.498C225.05 232.311 225.258 232.218 225.515 232.218C225.773 232.218 225.979 232.311 226.134 232.498C226.293 232.681 226.372 232.925 226.372 233.228C226.372 233.531 226.293 233.776 226.134 233.963C225.979 234.146 225.773 234.238 225.515 234.238ZM227.748 232.249H228.155L225.626 235.952H225.219L227.748 232.249ZM225.515 233.937C225.678 233.937 225.805 233.875 225.896 233.751C225.988 233.625 226.034 233.45 226.034 233.228C226.034 233.006 225.988 232.833 225.896 232.709C225.805 232.583 225.678 232.519 225.515 232.519C225.357 232.519 225.23 232.583 225.135 232.709C225.043 232.836 224.997 233.009 224.997 233.228C224.997 233.446 225.043 233.619 225.135 233.746C225.23 233.873 225.357 233.937 225.515 233.937ZM227.859 235.983C227.601 235.983 227.393 235.892 227.235 235.708C227.079 235.522 227.002 235.276 227.002 234.973C227.002 234.67 227.079 234.427 227.235 234.243C227.393 234.056 227.601 233.963 227.859 233.963C228.116 233.963 228.324 234.056 228.483 234.243C228.642 234.43 228.721 234.674 228.721 234.973C228.721 235.273 228.642 235.516 228.483 235.703C228.324 235.89 228.116 235.983 227.859 235.983ZM227.859 235.682C228.017 235.682 228.143 235.619 228.234 235.492C228.329 235.365 228.377 235.192 228.377 234.973C228.377 234.755 228.329 234.582 228.234 234.455C228.143 234.328 228.017 234.264 227.859 234.264C227.697 234.264 227.57 234.328 227.478 234.455C227.386 234.578 227.34 234.751 227.34 234.973C227.34 235.195 227.386 235.37 227.478 235.497C227.57 235.62 227.697 235.682 227.859 235.682Z" fill="#333333"/>
<path d="M232.306 232.304C232.779 232.304 233.151 232.417 233.422 232.642C233.693 232.868 233.828 233.179 233.828 233.575C233.828 233.971 233.693 234.282 233.422 234.508C233.151 234.734 232.779 234.847 232.306 234.847H231.404V235.952H230.883V232.304H232.306ZM232.291 234.393C232.621 234.393 232.873 234.324 233.046 234.185C233.22 234.043 233.307 233.839 233.307 233.575C233.307 233.311 233.22 233.11 233.046 232.971C232.873 232.828 232.621 232.757 232.291 232.757H231.404V234.393H232.291Z" fill="#333333"/>
<path d="M236.115 235.993C235.629 235.993 235.25 235.854 234.979 235.576C234.708 235.299 234.573 234.899 234.573 234.378V232.304H235.094V234.357C235.094 235.139 235.436 235.53 236.121 235.53C236.454 235.53 236.71 235.434 236.887 235.243C237.064 235.048 237.153 234.753 237.153 234.357V232.304H237.658V234.378C237.658 234.902 237.523 235.304 237.252 235.582C236.981 235.856 236.602 235.993 236.115 235.993Z" fill="#333333"/>
<path d="M241.166 235.952L240.379 234.831C240.282 234.838 240.205 234.842 240.15 234.842H239.248V235.952H238.727V232.304H240.15C240.622 232.304 240.994 232.417 241.265 232.642C241.536 232.868 241.672 233.179 241.672 233.575C241.672 233.857 241.602 234.096 241.463 234.294C241.324 234.492 241.126 234.637 240.869 234.727L241.734 235.952H241.166ZM240.134 234.399C240.464 234.399 240.716 234.327 240.89 234.185C241.064 234.043 241.15 233.839 241.15 233.575C241.15 233.311 241.064 233.11 240.89 232.971C240.716 232.828 240.464 232.757 240.134 232.757H239.248V234.399H240.134Z" fill="#333333"/>
<path d="M242.514 232.304H243.035V235.952H242.514V232.304Z" fill="#333333"/>
<path d="M244.852 232.757H243.601V232.304H246.619V232.757H245.368V235.952H244.852V232.757Z" fill="#333333"/>
<path d="M248.542 234.691V235.952H248.026V234.68L246.577 232.304H247.135L248.303 234.227L249.475 232.304H249.991L248.542 234.691Z" fill="#333333"/>
<path d="M254.191 239.763H163.229V176.23H254.191V239.763ZM164.468 238.526H252.953V177.468H164.468V238.526Z" fill="#333333"/>
<path d="M254.191 224.536H163.229V192.012H254.191V224.536ZM164.468 223.298H252.953V193.25H164.468V223.298Z" fill="#333333"/>
<path d="M166.956 240.726H165.718V244.682H166.956V240.726Z" fill="white"/>
<path d="M166.956 221.823H165.718V200.65C165.718 198.273 165.713 196.573 165.706 194.57L166.944 194.565C166.951 196.57 166.956 198.273 166.956 200.65V221.823Z" fill="white"/>
<path d="M167.01 174.783H165.772C165.772 174.52 165.767 174.25 165.762 173.971C165.735 172.344 165.7 170.319 166.604 168.289L167.735 168.791C166.943 170.571 166.975 172.366 167 173.948C167.005 174.233 167.01 174.51 167.01 174.78V174.783Z" fill="white"/>
<path d="M254.096 160.235H163.595C163.045 160.235 162.6 160.681 162.6 161.231V163.669C162.6 164.219 163.045 164.664 163.595 164.664H254.096C254.646 164.664 255.092 164.219 255.092 163.669V161.231C255.092 160.681 254.646 160.235 254.096 160.235Z" fill="#565656"/>
<path d="M165.94 119.812H251.752C253.282 119.812 254.525 121.055 254.525 122.585V160.233H163.164V122.585C163.164 121.055 164.407 119.812 165.937 119.812H165.94Z" fill="#565656"/>
<path d="M254.097 165.286H163.598C162.706 165.286 161.983 164.56 161.983 163.672V161.233C161.983 160.342 162.709 159.619 163.598 159.619H254.097C254.988 159.619 255.711 160.344 255.711 161.233V163.672C255.711 164.563 254.986 165.286 254.097 165.286ZM163.598 160.857C163.39 160.857 163.221 161.025 163.221 161.233V163.672C163.221 163.879 163.39 164.048 163.598 164.048H254.097C254.305 164.048 254.473 163.879 254.473 163.672V161.233C254.473 161.025 254.305 160.857 254.097 160.857H163.598Z" fill="#333333"/>
<path d="M255.147 160.855H162.549V122.587C162.549 120.716 164.072 119.196 165.941 119.196H251.753C253.625 119.196 255.145 120.718 255.145 122.587V160.855H255.147ZM163.787 159.617H253.909V122.587C253.909 121.399 252.944 120.434 251.755 120.434H165.943C164.755 120.434 163.789 121.399 163.789 122.587V159.617H163.787Z" fill="#333333"/>
<path d="M164.774 163.697H163.536V162.986C163.536 162.107 164.423 161.417 165.552 161.417H251.131V162.654H165.552C165.049 162.654 164.774 162.902 164.774 162.986V163.697Z" fill="white"/>
<path d="M166.047 158.023H164.809V123.149C164.809 122.038 165.712 121.134 166.824 121.134H251.698V122.372H166.824C166.396 122.372 166.047 122.721 166.047 123.149V158.023Z" fill="white"/>
</g>
<defs>
<clipPath id="clip0_15670_4841">
<rect width="278" height="250" fill="white"/>
</clipPath>
</defs>
</svg>
