<svg width="16" height="17" viewBox="0 0 16 17" fill="none" xmlns="http://www.w3.org/2000/svg">
<rect y="0.75" width="16" height="16" rx="4" fill="#3D9BE9"/>
<path d="M9.03619 13.0304C9.03218 13.6442 9.02418 14.254 9.02018 14.8833C8.63609 14.8833 8.26399 14.8833 7.86789 14.8794C7.86789 14.2657 7.8719 13.6598 7.8759 13.0343C7.56782 13.0304 7.27175 13.0226 6.95567 13.0187C6.95167 13.6403 6.94366 14.2501 6.93966 14.8755C6.55557 14.8755 6.18747 14.8755 5.78738 14.8716C5.78738 14.2462 5.79138 13.6324 5.79538 12.9953C5.02318 12.9874 4.25499 12.9796 3.4668 12.9718C3.54682 12.5183 3.62684 12.0805 3.70286 11.631C3.96692 11.631 4.21898 11.6388 4.47105 11.6349C4.83514 11.6349 4.97917 11.4942 4.98318 11.1345C4.99518 9.51618 5.00718 7.90173 5.01518 6.28338C5.01518 5.93156 4.80713 5.70483 4.44304 5.68138C4.13896 5.66183 3.83489 5.66574 3.51081 5.65793C3.51081 5.26311 3.51481 4.87611 3.51881 4.46175C4.295 4.46566 5.05519 4.46957 5.84739 4.47348C5.85139 3.85975 5.85939 3.25385 5.86339 2.61667C6.24349 2.61667 6.61958 2.61667 7.01568 2.61667C7.01568 3.22648 7.01168 3.82066 7.00768 4.43439C7.31976 4.43439 7.61583 4.43048 7.92791 4.42657C7.93191 3.82066 7.93991 3.2343 7.94391 2.62058C8.33201 2.62058 8.7041 2.62449 9.0962 2.6284C9.0962 3.19521 9.0962 3.74639 9.0842 4.29366C9.0802 4.44611 9.12821 4.4813 9.27625 4.50866C9.72436 4.59466 10.1805 4.66893 10.6086 4.81748C11.3608 5.08329 11.8049 5.61884 11.8809 6.41238C11.9529 7.21765 11.7008 7.87437 10.9047 8.29264C10.9727 8.32 11.0127 8.34346 11.0567 8.35519C12.0929 8.67573 12.5491 9.28945 12.5331 10.3566C12.5211 11.0876 12.333 11.76 11.7289 12.2564C11.2967 12.6083 10.7806 12.7763 10.2365 12.8702C9.84439 12.9366 9.44829 12.9718 9.02818 13.0226L9.03619 13.0304ZM6.99168 11.6505C7.33176 11.6505 7.65184 11.6623 7.96792 11.6505C8.51205 11.631 9.05619 11.588 9.56432 11.3652C10.1645 11.0994 10.4045 10.5247 10.1405 9.96572C9.96442 9.59436 9.61633 9.42627 9.23624 9.32073C8.51205 9.12136 7.76787 9.14873 7.00768 9.16436C7.00368 9.99309 6.99568 10.8101 6.99168 11.6505ZM7.01568 8.01901C7.68385 8.04246 8.33201 8.06201 8.96017 7.85092C9.38027 7.71019 9.68035 7.4561 9.72036 6.99483C9.76037 6.55701 9.56832 6.20911 9.14821 6.01365C8.47605 5.70093 7.75587 5.75956 7.02768 5.76738C7.02368 6.52965 7.01968 7.26455 7.01168 8.0151L7.01568 8.01901Z" fill="white"/>
</svg>
