<svg width="75" height="36" viewBox="0 0 75 36" fill="none" xmlns="http://www.w3.org/2000/svg">
<rect x="0.5" y="0.5" width="58" height="35" rx="4.5" fill="white" stroke="#999999"/>
<rect x="1" y="5" width="57" height="9" fill="#999999"/>
<rect x="3" y="16" width="52" height="7" fill="#E3E3E3"/>
<rect x="36.5" y="16.5" width="18" height="6" fill="#F8F8F8" stroke="#FF0000"/>
<path d="M42 18.9199L40.9123 19.5L42 20.0801L41.7982 20.4282L40.7018 19.8232V21H40.2982L40.307 19.8232L39.2105 20.4282L39 20.0801L40.0965 19.5L39 18.9199L39.2105 18.5635L40.307 19.1768L40.2982 18H40.7018V19.1768L41.7982 18.5635L42 18.9199Z" fill="#3D9BE9"/>
<path d="M47 18.9199L45.9123 19.5L47 20.0801L46.7982 20.4282L45.7018 19.8232V21H45.2982L45.307 19.8232L44.2105 20.4282L44 20.0801L45.0965 19.5L44 18.9199L44.2105 18.5635L45.307 19.1768L45.2982 18H45.7018V19.1768L46.7982 18.5635L47 18.9199Z" fill="#3D9BE9"/>
<path d="M52 18.9199L50.9123 19.5L52 20.0801L51.7982 20.4282L50.7018 19.8232V21H50.2982L50.307 19.8232L49.2105 20.4282L49 20.0801L50.0965 19.5L49 18.9199L49.2105 18.5635L50.307 19.1768L50.2982 18H50.7018V19.1768L51.7982 18.5635L52 18.9199Z" fill="#3D9BE9"/>
<path d="M57.6464 17.6464C57.4512 17.8417 57.4512 18.1583 57.6464 18.3536L60.8284 21.5355C61.0237 21.7308 61.3403 21.7308 61.5355 21.5355C61.7308 21.3403 61.7308 21.0237 61.5355 20.8284L58.7071 18L61.5355 15.1716C61.7308 14.9763 61.7308 14.6597 61.5355 14.4645C61.3403 14.2692 61.0237 14.2692 60.8284 14.4645L57.6464 17.6464ZM74 18.5C74.2761 18.5 74.5 18.2761 74.5 18C74.5 17.7239 74.2761 17.5 74 17.5V18.5ZM58 18.5H74V17.5H58V18.5Z" fill="#FF0000"/>
</svg>
