<svg width="44" height="13" viewBox="0 0 44 13" fill="none" xmlns="http://www.w3.org/2000/svg">
<g clip-path="url(#clip0_9828_7151)">
<path d="M8.43103 12.75C11.5472 12.7657 14.3915 10.0752 14.3915 6.80214C14.3915 3.22286 11.5472 0.74881 8.43103 0.75H5.74918C2.59566 0.74881 0 3.2236 0 6.80214C0 10.0759 2.59566 12.7657 5.74918 12.75H8.43103Z" fill="#0079BE"/>
<path d="M5.76226 1.24609C2.88065 1.24705 0.545601 3.70538 0.544922 6.73945C0.545601 9.773 2.88063 12.2311 5.76226 12.232C8.64454 12.2311 10.9801 9.773 10.9805 6.73945C10.98 3.70538 8.64454 1.24705 5.76226 1.24609ZM2.45513 6.73945C2.45785 5.25683 3.33762 3.99255 4.57822 3.49014V9.988C3.33762 9.48588 2.45782 8.22228 2.45513 6.73945ZM6.94585 9.98943V3.48993C8.1869 3.99112 9.06803 5.25612 9.07029 6.73945C9.06803 8.22324 8.1869 9.48728 6.94585 9.98943Z" fill="white"/>
<path d="M16.2189 3.33182C16.2189 2.76418 15.9376 2.80156 15.668 2.7954V2.63135C15.9017 2.64349 16.1412 2.64349 16.3754 2.64349C16.6272 2.64349 16.969 2.63135 17.4128 2.63135C18.9652 2.63135 19.8106 3.72278 19.8106 4.84037C19.8106 5.46537 19.4631 7.03656 17.3407 7.03656C17.035 7.03656 16.7529 7.02416 16.4713 7.02416C16.2016 7.02416 15.9376 7.03037 15.668 7.03656V6.87275C16.0275 6.83463 16.2016 6.82204 16.2188 6.39275L16.2189 3.33182ZM16.8066 6.29204C16.8066 6.77799 17.1366 6.83466 17.4303 6.83466C18.7256 6.83466 19.1509 5.80585 19.1509 4.86537C19.1509 3.68561 18.4313 2.8337 17.2744 2.8337C17.0283 2.8337 16.9152 2.85228 16.8066 2.85897L16.8066 6.29204Z" fill="#211E1F"/>
<path d="M20.0215 6.87274H20.135C20.3027 6.87274 20.4228 6.87274 20.4228 6.6639V4.95393C20.4228 4.67657 20.333 4.63798 20.1111 4.5125V4.41131C20.3927 4.32226 20.7289 4.20321 20.7524 4.18417C20.7947 4.15893 20.8305 4.15226 20.8606 4.15226C20.8902 4.15226 20.9026 4.19036 20.9026 4.24107V6.6639C20.9026 6.87274 21.0345 6.87274 21.2024 6.87274H21.3042V7.03679C21.1001 7.03679 20.8902 7.02419 20.6748 7.02419C20.459 7.02419 20.243 7.03038 20.0215 7.03679V6.87274H20.0215ZM20.6628 3.18057C20.5068 3.18057 20.3692 3.02917 20.3692 2.86509C20.3692 2.707 20.5131 2.56152 20.6628 2.56152C20.8182 2.56152 20.9567 2.69464 20.9567 2.86509C20.9567 3.03557 20.8244 3.18057 20.6628 3.18057Z" fill="#211E1F"/>
<path d="M21.8742 4.99163C21.8742 4.7583 21.8079 4.69544 21.5267 4.57544V4.4557C21.7844 4.36737 22.0299 4.28522 22.3178 4.15237C22.3357 4.15237 22.3533 4.16522 22.3533 4.21546V4.62592C22.6956 4.36737 22.9895 4.15234 23.3917 4.15234C23.9007 4.15234 24.0805 4.54375 24.0805 5.03589V6.66401C24.0805 6.87282 24.2124 6.87282 24.3805 6.87282H24.4884V7.03687C24.278 7.03687 24.0683 7.02427 23.853 7.02427C23.6369 7.02427 23.4208 7.03046 23.2053 7.03687V6.87282H23.3129C23.4812 6.87282 23.6005 6.87282 23.6005 6.66401V5.02994C23.6005 4.6697 23.3917 4.49327 23.0494 4.49327C22.8578 4.49327 22.5519 4.65734 22.3533 4.79637V6.66396C22.3533 6.8728 22.4859 6.8728 22.654 6.8728H22.7617V7.03684C22.5519 7.03684 22.3418 7.02422 22.126 7.02422C21.9104 7.02422 21.6941 7.03044 21.4785 7.03684V6.8728H21.5866C21.7545 6.8728 21.8742 6.8728 21.8742 6.66396V4.99163H21.8742Z" fill="#211E1F"/>
<path d="M24.9428 5.29496C24.9303 5.35189 24.9303 5.44639 24.9428 5.66115C24.9781 6.26044 25.3447 6.75261 25.8236 6.75261C26.1537 6.75261 26.412 6.56332 26.6335 6.32999L26.7172 6.41856C26.4412 6.80332 26.0996 7.13139 25.6083 7.13139C24.6548 7.13139 24.4629 6.15925 24.4629 5.7557C24.4629 4.51853 25.2542 4.15234 25.6736 4.15234C26.1595 4.15234 26.6815 4.47403 26.6871 5.14306C26.6871 5.18139 26.6871 5.21877 26.6815 5.25711L26.6272 5.29496H24.9428ZM26.0042 5.09284C26.1537 5.09284 26.1714 5.0107 26.1714 4.93522C26.1714 4.6133 25.9856 4.35449 25.6497 4.35449C25.2843 4.35449 25.0325 4.63806 24.9606 5.09284H26.0042Z" fill="#211E1F"/>
<path d="M26.8262 6.87284H26.9881C27.1555 6.87284 27.2754 6.87284 27.2754 6.66401V4.89092C27.2754 4.69544 27.054 4.65734 26.9637 4.60687V4.51258C27.4015 4.31663 27.6414 4.15234 27.696 4.15234C27.7315 4.15234 27.7491 4.17139 27.7491 4.23472V4.80258H27.7618C27.9113 4.55663 28.1636 4.15234 28.5289 4.15234C28.6789 4.15234 28.8705 4.25949 28.8705 4.48687C28.8705 4.65734 28.757 4.80925 28.5891 4.80925C28.4025 4.80925 28.4025 4.65734 28.193 4.65734C28.091 4.65734 27.7555 4.80258 27.7555 5.18139V6.66401C27.7555 6.87282 27.8752 6.87282 28.0432 6.87282H28.3787V7.03689C28.0489 7.03044 27.798 7.02427 27.5397 7.02427C27.294 7.02427 27.042 7.03046 26.8262 7.03689L26.8262 6.87284Z" fill="#211E1F"/>
<path d="M29.1335 6.15922C29.2116 6.57589 29.4512 6.92949 29.8891 6.92949C30.242 6.92949 30.3741 6.70234 30.3741 6.48139C30.3741 5.73663 29.0675 5.97639 29.0675 4.96044C29.0675 4.60687 29.3376 4.15234 29.9968 4.15234C30.1884 4.15234 30.446 4.20949 30.6797 4.33591L30.7223 4.97903H30.5841C30.5243 4.58187 30.3146 4.35451 29.9305 4.35451C29.6907 4.35451 29.4631 4.49977 29.4631 4.77094C29.4631 5.50999 30.8539 5.28213 30.8539 6.27284C30.8539 6.68927 30.5361 7.13142 29.8226 7.13142C29.5828 7.13142 29.3011 7.04308 29.0914 6.91713L29.0254 6.1912L29.1335 6.15922Z" fill="#211E1F"/>
<path d="M36.268 3.77351H36.1184C36.0044 3.03542 35.5067 2.73851 34.8355 2.73851C34.1456 2.73851 33.1443 3.2242 33.1443 4.73875C33.1443 6.01447 34.0082 6.9292 34.9312 6.9292C35.5246 6.9292 36.0166 6.50016 36.1365 5.83732L36.2741 5.87494L36.1365 6.79635C35.8847 6.96087 35.2072 7.13113 34.8111 7.13113C33.4085 7.13113 32.5215 6.17806 32.5215 4.75804C32.5215 3.46423 33.6184 2.53613 34.7934 2.53613C35.2789 2.53613 35.7465 2.70089 36.2082 2.87137L36.268 3.77351Z" fill="#211E1F"/>
<path d="M36.4844 6.87247H36.598C36.7661 6.87247 36.8864 6.87247 36.8864 6.66364V3.1489C36.8864 2.73843 36.7964 2.72578 36.5683 2.6565V2.55555C36.8081 2.47366 37.0599 2.35983 37.1859 2.2839C37.2513 2.24628 37.2997 2.21436 37.3173 2.21436C37.354 2.21436 37.366 2.25247 37.366 2.30316V6.66364C37.366 6.87247 37.4976 6.87247 37.6657 6.87247H37.7669V7.03652C37.5639 7.03652 37.354 7.0239 37.138 7.0239C36.9224 7.0239 36.7065 7.03012 36.4844 7.03652V6.87247H36.4844Z" fill="#211E1F"/>
<path d="M40.3338 6.68905C40.3338 6.80309 40.3994 6.80928 40.5012 6.80928C40.5734 6.80928 40.663 6.80309 40.7412 6.80309V6.93595C40.4832 6.96095 39.9916 7.09357 39.8775 7.13119L39.8474 7.11212V6.60143C39.4882 6.91045 39.212 7.13119 38.786 7.13119C38.4623 7.13119 38.1266 6.91045 38.1266 6.38069V4.7645C38.1266 4.60045 38.1028 4.44257 37.7676 4.41117V4.29117C37.9836 4.28497 38.4623 4.24709 38.5406 4.24709C38.6071 4.24709 38.6071 4.29117 38.6071 4.42997V6.05781C38.6071 6.24759 38.6071 6.79019 39.1283 6.79019C39.3321 6.79019 39.6018 6.62614 39.8534 6.4059V4.70733C39.8534 4.58162 39.5658 4.51233 39.3505 4.44897V4.3354C39.8893 4.29731 40.2257 4.24707 40.2852 4.24707C40.3338 4.24707 40.3338 4.29112 40.3338 4.36088L40.3338 6.68905Z" fill="#211E1F"/>
<path d="M41.5262 4.60652C41.7658 4.39197 42.0895 4.152 42.4195 4.152C43.1152 4.152 43.5344 4.79009 43.5344 5.47745C43.5344 6.30414 42.9591 7.13102 42.1012 7.13102C41.6578 7.13102 41.4241 6.97936 41.2681 6.91028L41.0885 7.05505L40.9629 6.98602C41.0161 6.61364 41.0466 6.24745 41.0466 5.86269V3.14888C41.0466 2.73843 40.9561 2.72578 40.7285 2.6565V2.55555C40.969 2.47366 41.2201 2.35983 41.3461 2.28388C41.4122 2.24626 41.4599 2.21436 41.4785 2.21436C41.5142 2.21436 41.5262 2.25247 41.5262 2.30316V4.6065H41.5262V4.60652ZM41.5262 6.32295C41.5262 6.56295 41.7418 6.96724 42.1436 6.96724C42.7851 6.96724 43.0548 6.30414 43.0548 5.74226C43.0548 5.06083 42.5637 4.49297 42.0958 4.49297C41.8735 4.49297 41.6879 4.64464 41.5262 4.79009L41.5262 6.32295Z" fill="#211E1F"/>
<path d="M15.6621 10.7062H15.708C15.8252 10.7062 15.9492 10.6895 15.9492 10.5107V8.71165C15.9492 8.53257 15.8252 8.51569 15.708 8.51569H15.6621V8.4126C15.7895 8.4126 15.9852 8.42617 16.1455 8.42617C16.3084 8.42617 16.5039 8.4126 16.6573 8.4126V8.51569H16.6113C16.4944 8.51569 16.3702 8.5326 16.3702 8.71165V10.5107C16.3702 10.6895 16.4944 10.7062 16.6113 10.7062H16.6573V10.8098C16.5007 10.8098 16.3046 10.7962 16.1419 10.7962C15.982 10.7962 15.7895 10.8098 15.6621 10.8098V10.7062Z" fill="#211E1F"/>
<path d="M16.6556 10.8239C16.498 10.8239 16.3025 10.8101 16.1401 10.8101C15.9806 10.8101 15.7888 10.8239 15.6605 10.8239H15.6465V10.8091V10.706V10.691H15.6605H15.7062C15.8245 10.6882 15.9322 10.6782 15.9333 10.5103V8.71126C15.9322 8.5434 15.8245 8.53219 15.7062 8.52983H15.6465V8.51533V8.39697H15.6605C15.7888 8.39697 15.9842 8.41054 16.1437 8.41054C16.3061 8.41054 16.5014 8.39697 16.6556 8.39697H16.6701V8.41269V8.52983H16.6556H16.6099C16.4916 8.53221 16.3832 8.5434 16.3826 8.71126V10.5103C16.3832 10.6782 16.4916 10.6882 16.6099 10.691H16.6701V10.706V10.8239H16.6556ZM16.6416 10.7946V10.7213H16.61C16.4935 10.7213 16.3548 10.7001 16.3541 10.5103V8.71126C16.3548 8.5215 16.4934 8.50007 16.61 8.50007H16.6416V8.42721C16.4909 8.42721 16.3021 8.44054 16.1437 8.44054C15.9887 8.44054 15.8012 8.42816 15.675 8.42721V8.50007H15.7062C15.8225 8.50007 15.9616 8.5215 15.9616 8.71126V10.5103C15.9616 10.7001 15.8225 10.7213 15.7062 10.7213H15.675V10.7946C15.8012 10.7932 15.9855 10.7808 16.1401 10.7808C16.2989 10.7808 16.4878 10.7936 16.6416 10.7946Z" fill="#211E1F"/>
<path d="M18.8967 10.1329L18.9033 10.1262V8.83857C18.9033 8.55667 18.7171 8.51572 18.6194 8.51572H18.5474V8.4126C18.701 8.4126 18.851 8.42617 19.0042 8.42617C19.1379 8.42617 19.2723 8.4126 19.4057 8.4126V8.51572H19.3569C19.2195 8.51572 19.0662 8.54307 19.0662 8.95167V10.5145C19.0662 10.6345 19.0695 10.7545 19.0856 10.861H18.9614L17.2817 8.88979V10.3048C17.2817 10.6036 17.3367 10.7062 17.5883 10.7062H17.6434V10.8098C17.5034 10.8098 17.3634 10.7962 17.2229 10.7962C17.0765 10.7962 16.9263 10.8098 16.7793 10.8098V10.7062H16.825C17.0501 10.7062 17.1184 10.5452 17.1184 10.2707V8.82431C17.1184 8.63217 16.968 8.51574 16.8218 8.51574H16.7793V8.41265C16.9033 8.41265 17.0304 8.42619 17.1542 8.42619C17.2521 8.42619 17.3469 8.41265 17.4446 8.41265L18.8967 10.1329Z" fill="#211E1F"/>
<path d="M19.0865 10.8756L18.9519 10.8703L17.2964 8.92818V10.3044C17.3002 10.6029 17.3434 10.6877 17.5891 10.691H17.659V10.7058V10.8239H17.6445C17.5034 10.8239 17.3629 10.8101 17.2237 10.8101C17.0776 10.8101 16.9278 10.8239 16.7799 10.8239H16.7656V10.8091V10.691H16.7799H16.8258C17.0414 10.6898 17.1029 10.5441 17.1054 10.2703V8.82413C17.105 8.64127 16.9625 8.53032 16.8227 8.52984H16.7656V8.5146V8.39746H16.7799C16.9045 8.39746 17.0323 8.41056 17.1547 8.41056C17.2518 8.41056 17.3464 8.39746 17.4563 8.40246L18.8901 10.1013V8.83844C18.8883 8.5651 18.7152 8.53225 18.6202 8.52984H18.5338V8.5146V8.39746H18.5482C18.7023 8.39746 18.8525 8.41056 19.005 8.41056C19.1378 8.41056 19.2715 8.39746 19.4063 8.39746H19.4206V8.41222V8.52982H19.4063H19.3577C19.2231 8.53389 19.0848 8.54625 19.081 8.95125V10.5139C19.081 10.6339 19.0844 10.7539 19.1002 10.8579L19.1034 10.8755H19.0865V10.8756ZM18.9625 10.8453H19.0704C19.0558 10.7422 19.0532 10.6279 19.0532 10.5139V8.95125C19.0532 8.5391 19.2172 8.50008 19.3577 8.50008H19.3921V8.4272C19.2636 8.42815 19.1347 8.44053 19.0051 8.44053C18.8558 8.44053 18.7105 8.42815 18.5628 8.4272L18.5626 8.50008H18.6203C18.7205 8.50008 18.9184 8.5472 18.9184 8.83841L18.9139 10.136L18.9073 10.1432L18.8963 10.1539L17.4455 8.4272C17.3487 8.4272 17.2541 8.44053 17.1548 8.44053C17.0351 8.44053 16.9128 8.42815 16.7944 8.4272L16.7938 8.50006H16.8227C16.9759 8.50006 17.1331 8.62315 17.1331 8.8241V10.2703C17.1331 10.5448 17.0605 10.7205 16.8259 10.7215L16.7944 10.7205V10.7946C16.9358 10.7931 17.0811 10.7807 17.2238 10.7807C17.36 10.7807 17.4955 10.7932 17.6303 10.7946V10.7215H17.5892C17.3324 10.7205 17.2686 10.6029 17.2684 10.3043V8.85075L18.9625 10.8453ZM18.8901 10.1256V10.1244L18.8874 10.122L18.8901 10.1256Z" fill="#211E1F"/>
<path d="M19.8952 8.58374C19.6502 8.58374 19.641 8.64566 19.5921 8.89612H19.4941C19.507 8.80016 19.5233 8.70421 19.5333 8.60421C19.5464 8.50802 19.5527 8.41228 19.5527 8.31278H19.6312C19.6575 8.41588 19.7389 8.41231 19.8274 8.41231H21.5102C21.5984 8.41231 21.6799 8.40897 21.6867 8.30566L21.7645 8.31947C21.7518 8.41231 21.7387 8.50495 21.7287 8.59778C21.7228 8.69043 21.7228 8.78326 21.7228 8.87564L21.6247 8.91397C21.6179 8.78707 21.6016 8.58374 21.3833 8.58374H20.8483V10.4109C20.8483 10.6756 20.9625 10.7059 21.1186 10.7059H21.1808V10.8095C21.0537 10.8095 20.825 10.7959 20.6492 10.7959C20.4535 10.7959 20.2248 10.8095 20.0974 10.8095V10.7059H20.1597C20.3395 10.7059 20.4304 10.689 20.4304 10.418V8.58374H19.8952Z" fill="#211E1F"/>
<path d="M21.182 10.8238C21.0535 10.8238 20.8252 10.81 20.6499 10.81C20.4544 10.81 20.2262 10.8238 20.0981 10.8238H20.0846V10.8093V10.691H20.0981H20.1603C20.3402 10.6865 20.4126 10.6841 20.4167 10.4179V8.59861H19.8959V8.58359V8.56835H20.445V10.4179C20.445 10.6933 20.3395 10.7212 20.1604 10.7214H20.1124V10.7938C20.2411 10.7931 20.4606 10.7807 20.6499 10.7807C20.8201 10.7807 21.0381 10.7931 21.1671 10.7938V10.7214H21.1193C20.9616 10.7212 20.8347 10.6805 20.8347 10.4107V8.56835H21.384C21.603 8.5693 21.6315 8.76525 21.6387 8.89263L21.7091 8.86525C21.7091 8.77573 21.7095 8.68597 21.7154 8.59549C21.7249 8.50716 21.7369 8.41954 21.7491 8.33192L21.6993 8.32311C21.6842 8.42311 21.5926 8.42811 21.5104 8.42716H19.828H19.8111C19.7344 8.42716 19.6504 8.42335 19.6213 8.32742H19.5674C19.5669 8.42242 19.5606 8.51456 19.5482 8.60597C19.5387 8.70028 19.5237 8.79099 19.5115 8.8817H19.5814C19.6244 8.64239 19.6525 8.56478 19.8959 8.56837V8.58361V8.59861C19.6547 8.60313 19.6597 8.64599 19.6065 8.8998L19.6041 8.91147H19.5928H19.4785L19.4803 8.89361C19.4934 8.79742 19.51 8.70168 19.5197 8.60168C19.5333 8.50644 19.5396 8.41121 19.5396 8.31263V8.29763H19.5534H19.643L19.6452 8.30835C19.6676 8.39501 19.728 8.39549 19.8111 8.39692H19.828H21.5104C21.6014 8.39549 21.6674 8.39406 21.6731 8.30428L21.6744 8.28809L21.6891 8.29142L21.7812 8.30668L21.7792 8.32168C21.766 8.41359 21.7532 8.50644 21.7437 8.59859C21.7371 8.69001 21.7371 8.78287 21.7371 8.87549V8.88621L21.7281 8.89001L21.6125 8.93428L21.6116 8.91428C21.603 8.78523 21.5901 8.59856 21.384 8.59856H20.8632V10.4107C20.8662 10.6698 20.9639 10.6876 21.1193 10.6909H21.1957V10.7057V10.8238L21.182 10.8238Z" fill="#211E1F"/>
<path d="M21.8691 10.7062H21.9151C22.0323 10.7062 22.1564 10.6895 22.1564 10.5107V8.71165C22.1564 8.53257 22.0323 8.51569 21.9151 8.51569H21.8691V8.4126C22.0678 8.4126 22.4076 8.42617 22.681 8.42617C22.9557 8.42617 23.2943 8.4126 23.516 8.4126C23.5106 8.55998 23.5135 8.78712 23.5232 8.93786L23.4248 8.96545C23.4093 8.74238 23.3701 8.56405 23.0274 8.56405H22.5743V9.46334H22.962C23.1577 9.46334 23.2005 9.34691 23.2197 9.16098H23.3174C23.3111 9.29548 23.3077 9.42931 23.3077 9.56312C23.3077 9.69384 23.3111 9.82407 23.3174 9.95455L23.2197 9.975C23.2005 9.76907 23.1905 9.63524 22.9652 9.63524H22.5743V10.435C22.5743 10.6586 22.7627 10.6586 22.9718 10.6586C23.3633 10.6586 23.5359 10.6307 23.6339 10.2398L23.7253 10.2633C23.6826 10.4457 23.6436 10.6274 23.6147 10.8098C23.4057 10.8098 23.0304 10.7962 22.7372 10.7962C22.4431 10.7962 22.0551 10.8098 21.8691 10.8098V10.7062Z" fill="#211E1F"/>
<path d="M23.6145 10.8239C23.4051 10.8239 23.03 10.8098 22.7371 10.8098C22.4432 10.8098 22.0554 10.8239 21.8692 10.8239H21.8555V10.8094V10.7058V10.691H21.8692H21.915C22.0333 10.6891 22.1405 10.6782 22.1421 10.5103V8.71125C22.1405 8.54363 22.0333 8.53244 21.915 8.52982H21.8555V8.51532V8.39746H21.8692C22.0683 8.39746 22.4077 8.41056 22.6812 8.41056C22.9555 8.41056 23.294 8.39746 23.5161 8.39746H23.5308L23.5301 8.4127C23.5279 8.46437 23.527 8.52529 23.527 8.59008C23.527 8.70887 23.5301 8.83863 23.5367 8.93651L23.5372 8.94889L23.5263 8.95225L23.4116 8.98368L23.411 8.96606C23.3917 8.7432 23.3635 8.58153 23.0275 8.5782H22.588L22.5875 9.44748H22.9622C23.15 9.44558 23.1836 9.34439 23.2058 9.15939L23.207 9.14582H23.2196H23.3321L23.3318 9.16127C23.3255 9.29508 23.3214 9.42889 23.3214 9.5627C23.3214 9.6927 23.3255 9.82294 23.3318 9.95365L23.3321 9.96582L23.3203 9.96865L23.207 9.99246L23.2058 9.97627C23.1834 9.76675 23.1818 9.65199 22.9651 9.64939L22.588 9.64913V10.4346C22.5882 10.6432 22.7592 10.642 22.9719 10.6432C23.3646 10.6408 23.5221 10.6208 23.6205 10.2351L23.6237 10.2213L23.6374 10.2239L23.742 10.2522L23.7388 10.2665C23.6967 10.4484 23.6576 10.6298 23.6284 10.8117L23.6257 10.8239H23.6145ZM23.6026 10.7939C23.6309 10.6208 23.6681 10.447 23.7082 10.2741L23.6437 10.257C23.546 10.6413 23.3569 10.6755 22.9718 10.6729C22.7664 10.6729 22.5606 10.6729 22.5596 10.4346V9.61982H22.9651C23.1928 9.6172 23.2162 9.76196 23.2322 9.95744L23.3028 9.94199C23.2965 9.81553 23.2936 9.68863 23.2936 9.56268C23.2936 9.43339 23.2965 9.30484 23.3028 9.17553H23.2322C23.2142 9.35434 23.161 9.48006 22.9621 9.47768H22.5597V8.54815H23.0275C23.3669 8.54575 23.4232 8.73006 23.4377 8.94601L23.508 8.92601C23.5024 8.8291 23.4985 8.70482 23.4985 8.59006C23.4985 8.53125 23.4999 8.47577 23.5017 8.4272C23.28 8.42815 22.9497 8.44053 22.6812 8.44053C22.4131 8.44053 22.0831 8.42815 21.8833 8.4272V8.50006H21.9149C22.0312 8.50006 22.1701 8.52149 22.1706 8.71125V10.5103C22.1701 10.6996 22.0312 10.7206 21.9149 10.7215H21.8833V10.7939C22.0736 10.7936 22.4505 10.7808 22.737 10.7808C23.0248 10.7808 23.3922 10.7936 23.6026 10.7939Z" fill="#211E1F"/>
<path d="M24.1655 8.77616C24.1655 8.52568 24.0352 8.51544 23.9336 8.51544H23.875V8.41211C23.9795 8.41211 24.1815 8.42592 24.3806 8.42592C24.5763 8.42592 24.7331 8.41211 24.9057 8.41211C25.3165 8.41211 25.6823 8.52901 25.6823 9.01711C25.6823 9.32544 25.4866 9.51449 25.2289 9.6214L25.7866 10.5C25.8779 10.6452 25.9429 10.6859 26.1031 10.7059V10.8095C25.9954 10.8095 25.8908 10.7959 25.7834 10.7959C25.6823 10.7959 25.5775 10.8095 25.4768 10.8095C25.2257 10.4626 25.0099 10.0916 24.7979 9.6964H24.5833V10.4316C24.5833 10.6964 24.7003 10.7059 24.8502 10.7059H24.909V10.8095C24.7226 10.8095 24.5342 10.7959 24.348 10.7959C24.1913 10.7959 24.0379 10.8095 23.875 10.8095V10.7059H23.9336C24.0548 10.7059 24.1655 10.6483 24.1655 10.5209V8.77616ZM24.5833 9.57282H24.7425C25.069 9.57282 25.2447 9.44237 25.2447 9.03711C25.2447 8.73187 25.059 8.53592 24.7683 8.53592C24.6704 8.53592 24.6287 8.54663 24.5832 8.54973V9.57282H24.5833Z" fill="#211E1F"/>
<path d="M26.1017 10.8238C25.9925 10.8238 25.8886 10.81 25.7814 10.81C25.6819 10.81 25.5778 10.8238 25.464 10.8181C25.2138 10.4726 24.9993 10.1038 24.7885 9.71145H24.5958V10.431C24.5992 10.6893 24.6978 10.6872 24.8487 10.691H24.9218V10.7058V10.8239H24.9073C24.7208 10.8239 24.5315 10.81 24.3462 10.81C24.1904 10.81 24.0375 10.8239 23.8736 10.8239H23.8594V10.8091V10.691H23.8736H23.9322C24.0499 10.6903 24.149 10.6365 24.1494 10.5208V8.77602C24.1469 8.53221 24.0336 8.53362 23.9322 8.53007H23.8594V8.51531V8.39697H23.8736C23.9793 8.39697 24.1806 8.41052 24.3793 8.41052C24.574 8.41052 24.7308 8.39697 24.9046 8.39697C25.3156 8.39793 25.6943 8.51745 25.6954 9.01602C25.6954 9.32626 25.5007 9.51981 25.2488 9.62792L25.797 10.4917C25.8882 10.6341 25.945 10.6696 26.1038 10.691L26.1157 10.6929V10.7058V10.8239H26.1017V10.8238ZM24.5815 9.68142H24.8046L24.8084 9.68904C25.0211 10.0836 25.2353 10.454 25.4755 10.7945C25.5751 10.7945 25.6798 10.7805 25.7814 10.7805C25.8857 10.7805 25.9861 10.7924 26.0877 10.794V10.7188C25.9345 10.6988 25.8628 10.6507 25.7737 10.5081L25.2061 9.61402L25.2222 9.60712C25.4774 9.50142 25.6662 9.31785 25.6665 9.01592C25.6662 8.5395 25.3147 8.42904 24.9046 8.42714C24.7324 8.42714 24.5758 8.44071 24.3793 8.44071C24.1877 8.44071 23.9942 8.42809 23.8874 8.42714V8.5H23.9322C24.0336 8.50026 24.1779 8.51785 24.1779 8.77597V10.5207C24.1779 10.6586 24.0551 10.7214 23.9322 10.7217H23.8874V10.794C24.0445 10.7935 24.1931 10.7805 24.3462 10.7805C24.5288 10.7805 24.7127 10.7936 24.8933 10.794V10.7217H24.8487C24.6998 10.7214 24.5673 10.7019 24.5673 10.4309V9.68142H24.5815H24.5815ZM24.5815 9.58714H24.5673V8.53571L24.5797 8.53452C24.6243 8.53097 24.6684 8.52119 24.767 8.52119C25.0643 8.52119 25.2575 8.72452 25.2579 9.03759C25.257 9.44759 25.0702 9.58688 24.7412 9.58712H24.5815V9.58714ZM24.7412 9.55764C25.0642 9.55476 25.2267 9.43669 25.2301 9.03762C25.2283 8.73762 25.0512 8.55142 24.767 8.55023C24.6788 8.55023 24.6374 8.55881 24.5957 8.56264V9.55764H24.7412Z" fill="#211E1F"/>
<path d="M28.3184 10.1329L28.3242 10.1262V8.83857C28.3242 8.55667 28.1385 8.51572 28.0408 8.51572H27.9693V8.4126C28.1225 8.4126 28.2722 8.42617 28.4258 8.42617C28.5598 8.42617 28.693 8.4126 28.8276 8.4126V8.51572H28.7785C28.6414 8.51572 28.488 8.54307 28.488 8.95167V10.5145C28.488 10.6345 28.4912 10.7545 28.5073 10.861H28.3836L26.7036 8.88979V10.3048C26.7036 10.6036 26.759 10.7062 27.0101 10.7062H27.0656V10.8098C26.9255 10.8098 26.7851 10.7962 26.645 10.7962C26.4977 10.7962 26.3478 10.8098 26.2012 10.8098V10.7062H26.2464C26.4718 10.7062 26.5403 10.5452 26.5403 10.2707V8.82431C26.5403 8.63217 26.3903 8.51574 26.2437 8.51574H26.2012V8.41265C26.3247 8.41265 26.4525 8.42619 26.5762 8.42619C26.6735 8.42619 26.7685 8.41265 26.8665 8.41265L28.3184 10.1329Z" fill="#211E1F"/>
<path d="M28.5066 10.8753L28.3722 10.8705L26.7165 8.92816V10.3041C26.7204 10.6029 26.7633 10.6877 27.0094 10.691H27.0785V10.7058V10.8239H27.0642C26.9231 10.8239 26.7832 10.8098 26.6434 10.8098C26.4978 10.8098 26.3471 10.8239 26.2002 10.8239H26.1855V10.8094V10.691H26.2002H26.2455C26.4609 10.6901 26.5226 10.5441 26.5247 10.2694V8.82388C26.5244 8.641 26.3822 8.53007 26.2428 8.52981H26.1855V8.51531V8.39697H26.2002C26.3247 8.39697 26.4523 8.41052 26.5753 8.41052C26.6712 8.41052 26.7658 8.39697 26.8753 8.40171L28.3093 10.1013V8.8379C28.3084 8.56504 28.1347 8.53123 28.0399 8.52983H27.9537V8.51531V8.39697H27.968C28.1222 8.39697 28.2724 8.41052 28.4249 8.41052C28.5579 8.41052 28.6916 8.39697 28.826 8.39697H28.8402V8.41245V8.52983H28.826H28.7776C28.643 8.53364 28.5043 8.54623 28.5009 8.95126V10.5139C28.5009 10.6339 28.5039 10.7529 28.5204 10.8586L28.5222 10.8753H28.5066ZM28.3826 10.8453H28.4898C28.4756 10.7422 28.4724 10.6279 28.4724 10.5139V8.95123C28.4726 8.53907 28.6378 8.501 28.7776 8.49981H28.8117V8.42719C28.6837 8.42814 28.5545 8.44052 28.4249 8.44052C28.2752 8.44052 28.1296 8.42814 27.9819 8.42719V8.49981H28.0399C28.1403 8.501 28.338 8.54719 28.338 8.8379L28.3335 10.136L28.3272 10.1431L28.3172 10.1541L26.8654 8.42721C26.7685 8.42721 26.674 8.44054 26.5753 8.44054C26.4545 8.44054 26.3326 8.42816 26.2138 8.42721V8.49983H26.2428C26.396 8.50102 26.5532 8.62269 26.5532 8.82388V10.2693C26.5532 10.545 26.4794 10.7205 26.2455 10.7215L26.2138 10.7212V10.7939C26.3548 10.7931 26.5002 10.7808 26.6434 10.7808C26.7803 10.7808 26.9158 10.7931 27.0506 10.7939V10.7215H27.0095C26.7525 10.7212 26.6883 10.6029 26.6878 10.3041V8.85123L28.3826 10.8453ZM28.3093 10.1258V10.1245L28.3068 10.1219L28.3093 10.1258Z" fill="#211E1F"/>
<path d="M29.3511 10.3183C29.3181 10.4347 29.2787 10.5247 29.2787 10.5859C29.2787 10.6893 29.416 10.7059 29.5233 10.7059H29.5597V10.8095C29.429 10.8021 29.2957 10.7959 29.1643 10.7959C29.0469 10.7959 28.9301 10.8021 28.8125 10.8095V10.7059H28.8322C28.9593 10.7059 29.0672 10.6271 29.1154 10.4826L29.638 8.90686C29.6801 8.77972 29.7393 8.60805 29.759 8.4807C29.8629 8.44331 29.9936 8.37474 30.0554 8.33331C30.0655 8.32977 30.0712 8.32617 30.0814 8.32617C30.0911 8.32617 30.0974 8.32617 30.1047 8.33689C30.1142 8.36403 30.1237 8.39522 30.1341 8.4226L30.7342 10.2188C30.7734 10.3388 30.812 10.4657 30.8544 10.569C30.8938 10.6652 30.9625 10.7059 31.0704 10.7059H31.0896V10.8095C30.9429 10.8021 30.7958 10.796 30.6397 10.796C30.4798 10.796 30.3162 10.8021 30.1499 10.8095V10.7059H30.1861C30.2608 10.7059 30.3884 10.6926 30.3884 10.6066C30.3884 10.5621 30.359 10.4695 30.3226 10.3593L30.1956 9.96093H29.4552L29.3511 10.3183ZM29.8271 8.79689H29.8205L29.5171 9.76879H30.1268L29.8271 8.79689Z" fill="#211E1F"/>
<path d="M31.0893 10.8239C30.9425 10.817 30.7957 10.8098 30.6402 10.8098C30.4803 10.8098 30.3179 10.817 30.1509 10.8239L30.1362 10.8248V10.8094V10.6906H30.1505H30.1864C30.262 10.6906 30.3742 10.6725 30.3742 10.6065C30.3751 10.5675 30.3457 10.4732 30.3097 10.3639L30.1855 9.97558H29.4659L29.3646 10.3225C29.3315 10.4396 29.2924 10.5303 29.2926 10.5863C29.2938 10.6701 29.4157 10.6906 29.5238 10.6906H29.5741V10.706V10.8248L29.5594 10.8239C29.4288 10.817 29.2956 10.8098 29.1655 10.8098C29.0486 10.8098 28.9309 10.817 28.814 10.8239L28.7988 10.8248V10.8094V10.6906H28.8131H28.8325C28.954 10.6901 29.0554 10.6175 29.1024 10.4777L29.6248 8.90177C29.6675 8.77438 29.7263 8.60319 29.7546 8.46629C29.8569 8.42986 29.9878 8.36081 30.0507 8.31891C30.0598 8.31581 30.0689 8.31105 30.0822 8.31105C30.0901 8.31081 30.1077 8.31296 30.1182 8.33108C30.1274 8.35939 30.1376 8.38989 30.1476 8.41774L30.7484 10.2137C30.7869 10.3342 30.8258 10.4611 30.8683 10.5625C30.9061 10.6542 30.9661 10.6901 31.071 10.6906H31.1043V10.7061V10.8249L31.0893 10.8239ZM30.1647 10.7932C30.3263 10.7872 30.4844 10.7806 30.6402 10.7806C30.7918 10.7806 30.9336 10.7872 31.0755 10.7932V10.7215H31.0709C30.9592 10.7222 30.8821 10.676 30.842 10.5748C30.7995 10.4706 30.7597 10.3432 30.7215 10.2229L30.1208 8.42722C30.1109 8.39984 30.1014 8.36865 30.0928 8.34436C30.0901 8.34103 30.0907 8.34103 30.088 8.34103H30.0821C30.0753 8.34103 30.0715 8.34317 30.0631 8.34555C30.0002 8.38865 29.8693 8.45603 29.7726 8.48293C29.7525 8.61293 29.6939 8.78436 29.6514 8.9115L29.1293 10.4877C29.0795 10.6367 28.9653 10.7217 28.8325 10.7215H28.8273V10.7932C28.939 10.7872 29.0522 10.7806 29.1655 10.7806C29.2915 10.7806 29.4204 10.7872 29.5449 10.7932V10.7215H29.5238C29.4177 10.7201 29.2693 10.7074 29.2653 10.5862C29.2655 10.5177 29.3055 10.4298 29.3374 10.3139L29.3517 10.3184L29.3374 10.3134L29.4448 9.94624H30.2054L30.3364 10.3544C30.3731 10.4646 30.4027 10.556 30.4027 10.6065C30.3982 10.712 30.2604 10.7194 30.1864 10.7215H30.1647L30.1647 10.7932ZM29.4978 9.78339L29.8102 8.78172H29.8211H29.8279H29.8376L30.1473 9.78339H29.4978ZM29.5369 9.75362H30.1079L29.824 8.83339L29.5369 9.75362Z" fill="#211E1F"/>
<path d="M31.2336 8.58374C30.9888 8.58374 30.9791 8.64566 30.93 8.89612H30.832C30.8449 8.80016 30.8615 8.70421 30.8717 8.60421C30.8847 8.50802 30.8907 8.41228 30.8907 8.31278H30.9694C30.9954 8.41588 31.0773 8.41231 31.1648 8.41231H32.8486C32.9362 8.41231 33.0176 8.40897 33.0244 8.30566L33.1024 8.31947C33.09 8.41231 33.0771 8.50495 33.0671 8.59778C33.0601 8.69043 33.0601 8.78326 33.0601 8.87564L32.9624 8.91397C32.9563 8.78707 32.94 8.58374 32.7212 8.58374H32.1862V10.4109C32.1862 10.6756 32.3007 10.7059 32.4568 10.7059H32.5188V10.8095C32.3916 10.8095 32.1636 10.7959 31.9871 10.7959C31.7917 10.7959 31.563 10.8095 31.4359 10.8095V10.7059H31.4976C31.6774 10.7059 31.7689 10.689 31.7689 10.418V8.58374H31.2336Z" fill="#211E1F"/>
<path d="M32.5177 10.8243C32.3897 10.8243 32.1612 10.8105 31.9861 10.8105C31.7911 10.8105 31.5626 10.8243 31.4348 10.8243H31.4203V10.8098V10.6915H31.4348H31.4966C31.6764 10.6869 31.7486 10.6846 31.7531 10.4183L31.7526 8.59907H31.2326V8.58405V8.56881H31.7814V10.4183C31.7814 10.6938 31.6757 10.721 31.4966 10.7217H31.4486V10.795C31.5778 10.7936 31.7967 10.7812 31.9861 10.7812C32.1564 10.7812 32.3745 10.7936 32.5035 10.795V10.7217H32.4553C32.2985 10.721 32.1714 10.6812 32.1709 10.4112V8.56881H32.7202C32.9392 8.56977 32.9679 8.76572 32.974 8.8931L33.0453 8.86572C33.0453 8.77619 33.0455 8.68643 33.0518 8.59643C33.0609 8.5081 33.0731 8.42 33.0851 8.33236L33.0358 8.32355C33.0209 8.42355 32.9288 8.42905 32.8476 8.4276H31.1638H31.1473C31.0704 8.42855 30.9871 8.42379 30.9574 8.32736H30.9041C30.9032 8.4226 30.897 8.515 30.8842 8.60643C30.8756 8.70096 30.8595 8.79191 30.8473 8.88215H30.9172C30.9604 8.64284 30.9887 8.56522 31.2326 8.56881V8.58405L31.2325 8.59905C30.9907 8.60336 30.9962 8.64643 30.9427 8.90024L30.9403 8.91191H30.9289H30.8145L30.8165 8.89474C30.8301 8.79786 30.8463 8.70212 30.8559 8.60284C30.8692 8.50688 30.8756 8.41165 30.8756 8.31307V8.29807H30.8896H30.9787L30.9814 8.30879C31.0043 8.39546 31.0637 8.39593 31.1472 8.39736L31.1637 8.39784H32.8475C32.9376 8.39596 33.0034 8.3945 33.009 8.305L33.0099 8.28857L33.0253 8.29193L33.1179 8.30717L33.1154 8.32217C33.102 8.41407 33.0896 8.50693 33.0796 8.59907C33.0731 8.6905 33.0731 8.7836 33.0731 8.87598V8.88669L33.0638 8.8905L32.9482 8.93479L32.9476 8.91477C32.9392 8.78574 32.9263 8.59905 32.7202 8.59905H32.1992V10.4112C32.2026 10.6702 32.3001 10.6881 32.4553 10.6914H32.5317V10.7062V10.8243L32.5177 10.8243Z" fill="#211E1F"/>
<path d="M33.2227 10.7062H33.2684C33.3862 10.7062 33.5095 10.6895 33.5095 10.5107V8.71165C33.5095 8.53257 33.3862 8.51569 33.2684 8.51569H33.2227V8.4126C33.35 8.4126 33.5455 8.42617 33.705 8.42617C33.8687 8.42617 34.0644 8.4126 34.2178 8.4126V8.51569H34.1721C34.0547 8.51569 33.9303 8.5326 33.9303 8.71165V10.5107C33.9303 10.6895 34.0547 10.7062 34.1721 10.7062H34.2178V10.8098C34.061 10.8098 33.8651 10.7962 33.7025 10.7962C33.5423 10.7962 33.35 10.8098 33.2227 10.8098V10.7062Z" fill="#211E1F"/>
<path d="M34.2184 10.8239C34.0607 10.8239 33.8655 10.8098 33.7028 10.8098C33.5433 10.8098 33.3506 10.8239 33.2232 10.8239H33.209V10.8094V10.7058V10.691H33.2232H33.2689C33.3868 10.6891 33.4949 10.6784 33.4954 10.5103V8.71125C33.4949 8.54363 33.3868 8.53218 33.2689 8.52982H33.209V8.51532V8.39746H33.2232C33.3506 8.39746 33.5465 8.41056 33.7055 8.41056C33.8682 8.41056 34.0639 8.39746 34.2184 8.39746H34.2322V8.4122V8.52982H34.2184H34.1727C34.0534 8.5322 33.9464 8.54363 33.9449 8.71125V10.5103C33.9464 10.6784 34.0535 10.6891 34.1727 10.691H34.2322V10.7058V10.8239H34.2184ZM34.2037 10.7939V10.7212H34.1727C34.0557 10.7212 33.9173 10.6996 33.9173 10.5103V8.71125C33.9173 8.52149 34.0557 8.50006 34.1727 8.50006H34.2037V8.4272C34.053 8.42815 33.8646 8.44053 33.7055 8.44053C33.551 8.44053 33.3639 8.42815 33.2375 8.4272V8.50006H33.269C33.385 8.50006 33.5239 8.52149 33.5243 8.71125V10.5103C33.5239 10.6996 33.385 10.7212 33.269 10.7212H33.2375V10.7939C33.3633 10.7924 33.5479 10.7808 33.7028 10.7808C33.861 10.7808 34.0499 10.7932 34.2037 10.7939Z" fill="#211E1F"/>
<path d="M35.5197 8.36084C36.2151 8.36084 36.7693 8.81465 36.7693 9.54584C36.7693 10.3359 36.2311 10.8608 35.5366 10.8608C34.8444 10.8608 34.3164 10.3663 34.3164 9.62798C34.3164 8.91394 34.8412 8.36084 35.5197 8.36084ZM35.569 10.7096C36.2019 10.7096 36.3121 10.122 36.3121 9.62132C36.3121 9.11941 36.0551 8.51179 35.5133 8.51179C34.9424 8.51179 34.7729 9.04751 34.7729 9.50727C34.7729 10.122 35.0403 10.7096 35.569 10.7096Z" fill="#211E1F"/>
<path d="M34.3008 9.62833C34.3022 8.90595 34.8333 8.34714 35.5185 8.34619V8.36119V8.37569C34.848 8.37569 34.3291 8.92167 34.3284 9.62831C34.33 10.3583 34.8505 10.8455 35.5355 10.8457C36.2232 10.8455 36.7537 10.3278 36.7548 9.54548C36.7542 8.82357 36.2083 8.37664 35.5186 8.37569V8.36119V8.34619C36.2194 8.34667 36.7811 8.805 36.7825 9.54548C36.7818 10.3438 36.2366 10.8743 35.5355 10.8757C34.8378 10.8743 34.3022 10.3747 34.3008 9.62831H34.3008V9.62833ZM34.7578 9.50762C34.7587 9.04574 34.9302 8.49667 35.5124 8.49667C36.0662 8.49812 36.3248 9.11717 36.3257 9.62167C36.3248 10.1224 36.2128 10.7243 35.5681 10.7243V10.71V10.6952C36.1884 10.6943 36.2959 10.1224 36.2974 9.62167C36.2974 9.12383 36.0427 8.52788 35.5124 8.52714C34.9528 8.52786 34.7872 9.05024 34.7861 9.50762C34.7865 10.1193 35.0514 10.6938 35.5681 10.6952V10.71V10.7243C35.0265 10.7236 34.7587 10.126 34.7578 9.50762Z" fill="#211E1F"/>
<path d="M38.967 10.1329L38.9736 10.1262V8.83857C38.9736 8.55667 38.7872 8.51572 38.6893 8.51572H38.6187V8.4126C38.7716 8.4126 38.9216 8.42617 39.0745 8.42617C39.2086 8.42617 39.3423 8.4126 39.4763 8.4126V8.51572H39.4269C39.2903 8.51572 39.1367 8.54307 39.1367 8.95167V10.5145C39.1367 10.6345 39.1399 10.7545 39.1564 10.861H39.0326L37.3522 8.88979V10.3048C37.3522 10.6036 37.4075 10.7062 37.6586 10.7062H37.7144V10.8098C37.574 10.8098 37.434 10.7962 37.2937 10.7962C37.1468 10.7962 36.9964 10.8098 36.8496 10.8098V10.7062H36.8955C37.1211 10.7062 37.1887 10.5452 37.1887 10.2707V8.82431C37.1887 8.63217 37.0394 8.51574 36.8921 8.51574H36.8496V8.41265C36.9736 8.41265 37.1009 8.42619 37.2247 8.42619C37.3226 8.42619 37.417 8.41265 37.5152 8.41265L38.967 10.1329Z" fill="#211E1F"/>
<path d="M39.1568 10.8753L39.0218 10.8703L37.3665 8.92815V10.3044C37.3701 10.6029 37.4133 10.6875 37.6583 10.6906H37.7289V10.706V10.8239H37.7146C37.5732 10.8239 37.4332 10.8101 37.2938 10.8101C37.1474 10.8101 36.9977 10.8239 36.8495 10.8239H36.8359V10.8091V10.6906H36.8495H36.8957C37.1108 10.6899 37.1726 10.5442 37.1753 10.2703V8.82389C37.1748 8.64103 37.0325 8.53008 36.8923 8.52984H36.8359V8.51532V8.39746H36.8495C36.9746 8.39746 37.1017 8.41058 37.2248 8.41058C37.3217 8.41058 37.4158 8.39746 37.5261 8.40248L38.9595 10.1013V8.83844C38.9586 8.56513 38.7848 8.53225 38.6894 8.52987H38.6037V8.51537V8.39751H38.6184C38.7719 8.39751 38.9224 8.4106 39.0741 8.4106C39.2081 8.4106 39.3411 8.39751 39.4764 8.39751H39.4904V8.41225V8.52987H39.4764H39.427C39.2929 8.53391 39.154 8.54677 39.1513 8.95129V10.5139C39.1513 10.6339 39.1538 10.7537 39.1696 10.8587L39.1723 10.8753H39.1568V10.8753ZM39.0329 10.8453H39.1396C39.1254 10.7422 39.1229 10.6279 39.1229 10.5139V8.95125C39.1229 8.53839 39.2874 8.50101 39.4272 8.49982H39.4624V8.4272C39.3337 8.42815 39.2048 8.44053 39.0743 8.44053C38.9259 8.44053 38.7799 8.42815 38.6322 8.4272V8.49982H38.6894C38.7906 8.50101 38.9874 8.54794 38.9874 8.83839L38.9838 10.136L38.9777 10.1432L38.9673 10.1541L37.5154 8.42722C37.4192 8.42722 37.324 8.44056 37.2249 8.44056C37.1048 8.44056 36.9824 8.42818 36.8636 8.42722V8.49984H36.8924C37.0455 8.50103 37.2032 8.6227 37.2032 8.82389V10.2703C37.2032 10.5448 37.1304 10.7206 36.8958 10.7215L36.8636 10.7212V10.7939C37.0052 10.7932 37.1505 10.7808 37.2939 10.7808C37.4299 10.7808 37.5649 10.7932 37.7004 10.7939V10.7215H37.6583C37.4023 10.7212 37.3383 10.6029 37.3383 10.3043V8.85077L39.0329 10.8453ZM38.9595 10.1258V10.1246L38.9568 10.122L38.9595 10.1258Z" fill="#211E1F"/>
<path d="M40.0004 10.3183C39.9685 10.4347 39.9289 10.5247 39.9289 10.5859C39.9289 10.6893 40.0662 10.7059 40.1732 10.7059H40.2096V10.8095C40.0791 10.8021 39.9452 10.7959 39.8147 10.7959C39.6968 10.7959 39.5798 10.8021 39.4629 10.8095V10.7059H39.4814C39.6093 10.7059 39.7174 10.6271 39.7656 10.4826L40.2882 8.90686C40.3302 8.77972 40.3893 8.60805 40.4083 8.4807C40.5128 8.44331 40.6431 8.37474 40.7057 8.33331C40.715 8.32977 40.7216 8.32617 40.7316 8.32617C40.7413 8.32617 40.7474 8.32617 40.754 8.33689C40.7639 8.36403 40.7741 8.39522 40.7838 8.4226L41.3838 10.2188C41.4229 10.3388 41.4618 10.4657 41.5048 10.569C41.5439 10.6652 41.6127 10.7059 41.7199 10.7059H41.7399V10.8095C41.5928 10.8021 41.446 10.796 41.2892 10.796C41.1297 10.796 40.9664 10.8021 40.7999 10.8095V10.7059H40.8361C40.9105 10.7059 41.0386 10.6926 41.0386 10.6066C41.0386 10.5621 41.0089 10.4695 40.9725 10.3593L40.8458 9.96093H40.1052L40.0004 10.3183ZM40.4773 8.79689H40.4707L40.1669 9.76879H40.7774L40.4773 8.79689Z" fill="#211E1F"/>
<path d="M41.739 10.8239C41.5922 10.8177 41.4457 10.8101 41.2898 10.8101C41.1307 10.8101 40.9674 10.8177 40.8009 10.8239L40.7865 10.8248V10.8091V10.691H40.8005H40.836C40.912 10.691 41.0244 10.6724 41.0246 10.6065C41.0253 10.5674 40.9959 10.4739 40.9595 10.3639L40.8355 9.97554H40.1155L40.0146 10.3224C39.982 10.44 39.9431 10.5303 39.9438 10.5858C39.9438 10.6701 40.0659 10.691 40.1738 10.691H40.2236V10.7058V10.8248L40.2091 10.8239C40.0786 10.8177 39.9451 10.8101 39.8153 10.8101C39.6983 10.8101 39.5811 10.8177 39.4635 10.8239L39.4492 10.8248V10.8091V10.691H39.4635H39.482C39.6037 10.6905 39.7055 10.617 39.7531 10.4777L40.2752 8.90173C40.3168 8.77435 40.3756 8.60316 40.4045 8.46673C40.5071 8.42935 40.638 8.36078 40.7014 8.31885C40.7099 8.31576 40.7188 8.31171 40.7321 8.31171C40.7407 8.31076 40.7574 8.3129 40.7679 8.33171C40.7776 8.35864 40.7871 8.3898 40.7979 8.41766L41.3979 10.2136C41.4368 10.3341 41.476 10.461 41.5182 10.5632C41.5564 10.6541 41.616 10.6901 41.72 10.691H41.754V10.7058V10.8248L41.739 10.8239ZM40.8145 10.7936C40.9758 10.7872 41.1346 10.7805 41.2898 10.7805C41.4416 10.7805 41.5839 10.7872 41.7259 10.7931L41.7255 10.7214H41.72C41.6096 10.7217 41.5325 10.676 41.492 10.5748C41.449 10.4705 41.4101 10.3431 41.3712 10.2234L40.7708 8.42719C40.7611 8.3998 40.7511 8.36861 40.7432 8.34528C40.7405 8.34099 40.7408 8.34099 40.7382 8.34099H40.7321C40.7254 8.34099 40.7217 8.34338 40.7138 8.34576C40.6502 8.3879 40.5194 8.45645 40.4229 8.4829C40.4027 8.6129 40.3435 8.78409 40.3014 8.91147L39.7791 10.4877C39.7295 10.6367 39.6155 10.7217 39.482 10.7214H39.4772V10.7931C39.5895 10.7872 39.7017 10.7805 39.8152 10.7805C39.9417 10.7805 40.0704 10.7872 40.196 10.7931V10.7214H40.1738C40.0677 10.72 39.9189 10.7079 39.915 10.5858C39.9157 10.5177 39.9562 10.4303 39.9876 10.3139L40.001 10.3184L39.9876 10.3134L40.0951 9.94621H40.8559L40.9866 10.3543C41.0226 10.4648 41.0522 10.556 41.0522 10.6065C41.0474 10.7119 40.9106 10.7193 40.8359 10.7214H40.8145V10.7936H40.8145ZM40.148 9.78316L40.4609 8.78171H40.4708H40.4779H40.4881L40.7964 9.78316H40.148ZM40.1872 9.75361H40.7577L40.474 8.83385L40.1872 9.75361Z" fill="#211E1F"/>
<path d="M42.5618 10.4731C42.5618 10.6105 42.6523 10.6514 42.7568 10.6655C42.8905 10.6759 43.0373 10.6759 43.188 10.6585C43.3246 10.6412 43.4423 10.5588 43.5006 10.4731C43.5526 10.3974 43.5821 10.3012 43.6017 10.2257H43.6963C43.6605 10.4214 43.6148 10.6143 43.5755 10.8097C43.2891 10.8097 43.0014 10.7962 42.7147 10.7962C42.4272 10.7962 42.1406 10.8097 41.8535 10.8097V10.7061H41.8983C42.0164 10.7061 42.144 10.6895 42.144 10.4764V8.71165C42.144 8.53257 42.0164 8.51569 41.8983 8.51569H41.8535V8.4126C42.0259 8.4126 42.1958 8.42617 42.3684 8.42617C42.5353 8.42617 42.6982 8.4126 42.8647 8.4126V8.51569H42.7826C42.6591 8.51569 42.5618 8.5195 42.5618 8.70093V10.4731Z" fill="#211E1F"/>
<path d="M43.5763 10.8239C43.2888 10.8239 43.0018 10.8101 42.7156 10.8101C42.4282 10.8101 42.1412 10.8239 41.8537 10.8239H41.8398V10.8091V10.691H41.8537H41.8991C42.0175 10.6882 42.1292 10.6796 42.1306 10.476V8.71056C42.1292 8.54365 42.0181 8.53222 41.8991 8.52982H41.8398V8.51532V8.39746H41.8537C42.0272 8.39746 42.1971 8.41056 42.3694 8.41056C42.535 8.41056 42.6979 8.39746 42.8655 8.39746H42.8789V8.41222V8.52982H42.8655H42.7837C42.6572 8.53363 42.5785 8.52744 42.576 8.70056V10.4727C42.5769 10.6006 42.6565 10.6351 42.7583 10.6501C42.816 10.6544 42.8764 10.657 42.9393 10.657C43.0192 10.657 43.1022 10.6529 43.1864 10.6434C43.3194 10.627 43.4338 10.5463 43.4899 10.4644C43.5401 10.391 43.5691 10.2967 43.5886 10.2217L43.5915 10.2103H43.6024H43.7144L43.7114 10.2284C43.6745 10.4249 43.6298 10.6168 43.5902 10.8122L43.5875 10.8239H43.5764H43.5763V10.8239ZM43.5646 10.7939C43.6023 10.6077 43.6451 10.4255 43.6802 10.2398H43.6132C43.5928 10.3146 43.5639 10.4067 43.5125 10.4817C43.4517 10.5707 43.3309 10.6546 43.1895 10.6729C43.104 10.6822 43.0194 10.6869 42.9393 10.6869C42.8762 10.6869 42.8149 10.6838 42.7558 10.6795C42.6497 10.6672 42.5468 10.6195 42.5473 10.4727V8.70051C42.5473 8.50979 42.6619 8.50003 42.7836 8.50003H42.8511V8.42718C42.6902 8.42813 42.5319 8.44072 42.3694 8.44072C42.2004 8.44072 42.0353 8.42813 41.8679 8.42718V8.50003H41.8991C42.0156 8.50003 42.1581 8.52146 42.1581 8.71051V10.476C42.1581 10.6981 42.0163 10.7212 41.8991 10.7212H41.8679V10.7938C42.15 10.7936 42.4321 10.7807 42.7155 10.7807C42.999 10.7807 43.2823 10.7936 43.5646 10.7939Z" fill="#211E1F"/>
<path d="M43.6562 8.31494C43.8527 8.31494 43.9996 8.47399 43.9996 8.6778C43.9996 8.88066 43.8527 9.03827 43.6562 9.03827C43.4595 9.03827 43.3125 8.88066 43.3125 8.6778C43.3125 8.47401 43.4595 8.31494 43.6562 8.31494ZM43.6562 8.97089C43.8097 8.97089 43.9278 8.8328 43.9278 8.6778C43.9278 8.52185 43.8115 8.38256 43.6562 8.38256C43.5016 8.38256 43.3835 8.52187 43.3835 8.6778C43.3835 8.8328 43.5016 8.97089 43.6562 8.97089ZM43.4851 8.86827V8.85042C43.5274 8.84423 43.5351 8.84566 43.5351 8.81804V8.55042C43.5351 8.51282 43.5312 8.49997 43.4867 8.50185V8.48351H43.6625C43.7231 8.48351 43.7785 8.51375 43.7785 8.57946C43.7785 8.63327 43.7446 8.67304 43.6973 8.68851L43.7536 8.77135C43.7801 8.80897 43.8097 8.84423 43.8294 8.85658V8.86825H43.7625C43.7303 8.86825 43.7023 8.79706 43.6389 8.70158H43.6009V8.82182C43.6009 8.84563 43.6088 8.8442 43.6512 8.85039V8.86825L43.4851 8.86827ZM43.6009 8.6778H43.6414C43.6857 8.6778 43.7066 8.64232 43.7066 8.58542C43.7066 8.5278 43.6744 8.50754 43.6392 8.50754H43.6009V8.6778Z" fill="#211E1F"/>
<path d="M8.43103 12.75C11.5472 12.7657 14.3915 10.0752 14.3915 6.80214C14.3915 3.22286 11.5472 0.74881 8.43103 0.75H5.74918C2.59566 0.74881 0 3.2236 0 6.80214C0 10.0759 2.59566 12.7657 5.74918 12.75H8.43103Z" fill="#0079BE"/>
<path d="M5.76226 1.24609C2.88065 1.24705 0.545601 3.70538 0.544922 6.73945C0.545601 9.773 2.88063 12.2311 5.76226 12.232C8.64454 12.2311 10.9801 9.773 10.9805 6.73945C10.98 3.70538 8.64454 1.24705 5.76226 1.24609ZM2.45513 6.73945C2.45785 5.25683 3.33762 3.99255 4.57822 3.49014V9.988C3.33762 9.48588 2.45782 8.22228 2.45513 6.73945ZM6.94585 9.98943V3.48993C8.1869 3.99112 9.06803 5.25612 9.07029 6.73945C9.06803 8.22324 8.1869 9.48728 6.94585 9.98943Z" fill="white"/>
<path d="M16.2189 3.33182C16.2189 2.76418 15.9376 2.80156 15.668 2.7954V2.63135C15.9017 2.64349 16.1412 2.64349 16.3754 2.64349C16.6272 2.64349 16.969 2.63135 17.4128 2.63135C18.9652 2.63135 19.8106 3.72278 19.8106 4.84037C19.8106 5.46537 19.4631 7.03656 17.3407 7.03656C17.035 7.03656 16.7529 7.02416 16.4713 7.02416C16.2016 7.02416 15.9376 7.03037 15.668 7.03656V6.87275C16.0275 6.83463 16.2016 6.82204 16.2188 6.39275L16.2189 3.33182ZM16.8066 6.29204C16.8066 6.77799 17.1366 6.83466 17.4303 6.83466C18.7256 6.83466 19.1509 5.80585 19.1509 4.86537C19.1509 3.68561 18.4313 2.8337 17.2744 2.8337C17.0283 2.8337 16.9152 2.85228 16.8066 2.85897L16.8066 6.29204Z" fill="#211E1F"/>
<path d="M20.0215 6.87274H20.135C20.3027 6.87274 20.4228 6.87274 20.4228 6.6639V4.95393C20.4228 4.67657 20.333 4.63798 20.1111 4.5125V4.41131C20.3927 4.32226 20.7289 4.20321 20.7524 4.18417C20.7947 4.15893 20.8305 4.15226 20.8606 4.15226C20.8902 4.15226 20.9026 4.19036 20.9026 4.24107V6.6639C20.9026 6.87274 21.0345 6.87274 21.2024 6.87274H21.3042V7.03679C21.1001 7.03679 20.8902 7.02419 20.6748 7.02419C20.459 7.02419 20.243 7.03038 20.0215 7.03679V6.87274H20.0215ZM20.6628 3.18057C20.5068 3.18057 20.3692 3.02917 20.3692 2.86509C20.3692 2.707 20.5131 2.56152 20.6628 2.56152C20.8182 2.56152 20.9567 2.69464 20.9567 2.86509C20.9567 3.03557 20.8244 3.18057 20.6628 3.18057Z" fill="#211E1F"/>
<path d="M21.8742 4.99163C21.8742 4.7583 21.8079 4.69544 21.5267 4.57544V4.4557C21.7844 4.36737 22.0299 4.28522 22.3178 4.15237C22.3357 4.15237 22.3533 4.16522 22.3533 4.21546V4.62592C22.6956 4.36737 22.9895 4.15234 23.3917 4.15234C23.9007 4.15234 24.0805 4.54375 24.0805 5.03589V6.66401C24.0805 6.87282 24.2124 6.87282 24.3805 6.87282H24.4884V7.03687C24.278 7.03687 24.0683 7.02427 23.853 7.02427C23.6369 7.02427 23.4208 7.03046 23.2053 7.03687V6.87282H23.3129C23.4812 6.87282 23.6005 6.87282 23.6005 6.66401V5.02994C23.6005 4.6697 23.3917 4.49327 23.0494 4.49327C22.8578 4.49327 22.5519 4.65734 22.3533 4.79637V6.66396C22.3533 6.8728 22.4859 6.8728 22.654 6.8728H22.7617V7.03684C22.5519 7.03684 22.3418 7.02422 22.126 7.02422C21.9104 7.02422 21.6941 7.03044 21.4785 7.03684V6.8728H21.5866C21.7545 6.8728 21.8742 6.8728 21.8742 6.66396V4.99163H21.8742Z" fill="#211E1F"/>
<path d="M24.9428 5.29496C24.9303 5.35189 24.9303 5.44639 24.9428 5.66115C24.9781 6.26044 25.3447 6.75261 25.8236 6.75261C26.1537 6.75261 26.412 6.56332 26.6335 6.32999L26.7172 6.41856C26.4412 6.80332 26.0996 7.13139 25.6083 7.13139C24.6548 7.13139 24.4629 6.15925 24.4629 5.7557C24.4629 4.51853 25.2542 4.15234 25.6736 4.15234C26.1595 4.15234 26.6815 4.47403 26.6871 5.14306C26.6871 5.18139 26.6871 5.21877 26.6815 5.25711L26.6272 5.29496H24.9428ZM26.0042 5.09284C26.1537 5.09284 26.1714 5.0107 26.1714 4.93522C26.1714 4.6133 25.9856 4.35449 25.6497 4.35449C25.2843 4.35449 25.0325 4.63806 24.9606 5.09284H26.0042Z" fill="#211E1F"/>
<path d="M26.8262 6.87284H26.9881C27.1555 6.87284 27.2754 6.87284 27.2754 6.66401V4.89092C27.2754 4.69544 27.054 4.65734 26.9637 4.60687V4.51258C27.4015 4.31663 27.6414 4.15234 27.696 4.15234C27.7315 4.15234 27.7491 4.17139 27.7491 4.23472V4.80258H27.7618C27.9113 4.55663 28.1636 4.15234 28.5289 4.15234C28.6789 4.15234 28.8705 4.25949 28.8705 4.48687C28.8705 4.65734 28.757 4.80925 28.5891 4.80925C28.4025 4.80925 28.4025 4.65734 28.193 4.65734C28.091 4.65734 27.7555 4.80258 27.7555 5.18139V6.66401C27.7555 6.87282 27.8752 6.87282 28.0432 6.87282H28.3787V7.03689C28.0489 7.03044 27.798 7.02427 27.5397 7.02427C27.294 7.02427 27.042 7.03046 26.8262 7.03689L26.8262 6.87284Z" fill="#211E1F"/>
<path d="M29.1335 6.15922C29.2116 6.57589 29.4512 6.92949 29.8891 6.92949C30.242 6.92949 30.3741 6.70234 30.3741 6.48139C30.3741 5.73663 29.0675 5.97639 29.0675 4.96044C29.0675 4.60687 29.3376 4.15234 29.9968 4.15234C30.1884 4.15234 30.446 4.20949 30.6797 4.33591L30.7223 4.97903H30.5841C30.5243 4.58187 30.3146 4.35451 29.9305 4.35451C29.6907 4.35451 29.4631 4.49977 29.4631 4.77094C29.4631 5.50999 30.8539 5.28213 30.8539 6.27284C30.8539 6.68927 30.5361 7.13142 29.8226 7.13142C29.5828 7.13142 29.3011 7.04308 29.0914 6.91713L29.0254 6.1912L29.1335 6.15922Z" fill="#211E1F"/>
<path d="M36.268 3.77351H36.1184C36.0044 3.03542 35.5067 2.73851 34.8355 2.73851C34.1456 2.73851 33.1443 3.2242 33.1443 4.73875C33.1443 6.01447 34.0082 6.9292 34.9312 6.9292C35.5246 6.9292 36.0166 6.50016 36.1365 5.83732L36.2741 5.87494L36.1365 6.79635C35.8847 6.96087 35.2072 7.13113 34.8111 7.13113C33.4085 7.13113 32.5215 6.17806 32.5215 4.75804C32.5215 3.46423 33.6184 2.53613 34.7934 2.53613C35.2789 2.53613 35.7465 2.70089 36.2082 2.87137L36.268 3.77351Z" fill="#211E1F"/>
<path d="M36.4844 6.87247H36.598C36.7661 6.87247 36.8864 6.87247 36.8864 6.66364V3.1489C36.8864 2.73843 36.7964 2.72578 36.5683 2.6565V2.55555C36.8081 2.47366 37.0599 2.35983 37.1859 2.2839C37.2513 2.24628 37.2997 2.21436 37.3173 2.21436C37.354 2.21436 37.366 2.25247 37.366 2.30316V6.66364C37.366 6.87247 37.4976 6.87247 37.6657 6.87247H37.7669V7.03652C37.5639 7.03652 37.354 7.0239 37.138 7.0239C36.9224 7.0239 36.7065 7.03012 36.4844 7.03652V6.87247H36.4844Z" fill="#211E1F"/>
<path d="M40.3338 6.68905C40.3338 6.80309 40.3994 6.80928 40.5012 6.80928C40.5734 6.80928 40.663 6.80309 40.7412 6.80309V6.93595C40.4832 6.96095 39.9916 7.09357 39.8775 7.13119L39.8474 7.11212V6.60143C39.4882 6.91045 39.212 7.13119 38.786 7.13119C38.4623 7.13119 38.1266 6.91045 38.1266 6.38069V4.7645C38.1266 4.60045 38.1028 4.44257 37.7676 4.41117V4.29117C37.9836 4.28497 38.4623 4.24709 38.5406 4.24709C38.6071 4.24709 38.6071 4.29117 38.6071 4.42997V6.05781C38.6071 6.24759 38.6071 6.79019 39.1283 6.79019C39.3321 6.79019 39.6018 6.62614 39.8534 6.4059V4.70733C39.8534 4.58162 39.5658 4.51233 39.3505 4.44897V4.3354C39.8893 4.29731 40.2257 4.24707 40.2852 4.24707C40.3338 4.24707 40.3338 4.29112 40.3338 4.36088L40.3338 6.68905Z" fill="#211E1F"/>
<path d="M41.5262 4.60652C41.7658 4.39197 42.0895 4.152 42.4195 4.152C43.1152 4.152 43.5344 4.79009 43.5344 5.47745C43.5344 6.30414 42.9591 7.13102 42.1012 7.13102C41.6578 7.13102 41.4241 6.97936 41.2681 6.91028L41.0885 7.05505L40.9629 6.98602C41.0161 6.61364 41.0466 6.24745 41.0466 5.86269V3.14888C41.0466 2.73843 40.9561 2.72578 40.7285 2.6565V2.55555C40.969 2.47366 41.2201 2.35983 41.3461 2.28388C41.4122 2.24626 41.4599 2.21436 41.4785 2.21436C41.5142 2.21436 41.5262 2.25247 41.5262 2.30316V4.6065H41.5262V4.60652ZM41.5262 6.32295C41.5262 6.56295 41.7418 6.96724 42.1436 6.96724C42.7851 6.96724 43.0548 6.30414 43.0548 5.74226C43.0548 5.06083 42.5637 4.49297 42.0958 4.49297C41.8735 4.49297 41.6879 4.64464 41.5262 4.79009L41.5262 6.32295Z" fill="#211E1F"/>
<path d="M15.6621 10.7062H15.708C15.8252 10.7062 15.9492 10.6895 15.9492 10.5107V8.71165C15.9492 8.53257 15.8252 8.51569 15.708 8.51569H15.6621V8.4126C15.7895 8.4126 15.9852 8.42617 16.1455 8.42617C16.3084 8.42617 16.5039 8.4126 16.6573 8.4126V8.51569H16.6113C16.4944 8.51569 16.3702 8.5326 16.3702 8.71165V10.5107C16.3702 10.6895 16.4944 10.7062 16.6113 10.7062H16.6573V10.8098C16.5007 10.8098 16.3046 10.7962 16.1419 10.7962C15.982 10.7962 15.7895 10.8098 15.6621 10.8098V10.7062Z" fill="#211E1F"/>
<path d="M16.6556 10.8239C16.498 10.8239 16.3025 10.8101 16.1401 10.8101C15.9806 10.8101 15.7888 10.8239 15.6605 10.8239H15.6465V10.8091V10.706V10.691H15.6605H15.7062C15.8245 10.6882 15.9322 10.6782 15.9333 10.5103V8.71126C15.9322 8.5434 15.8245 8.53219 15.7062 8.52983H15.6465V8.51533V8.39697H15.6605C15.7888 8.39697 15.9842 8.41054 16.1437 8.41054C16.3061 8.41054 16.5014 8.39697 16.6556 8.39697H16.6701V8.41269V8.52983H16.6556H16.6099C16.4916 8.53221 16.3832 8.5434 16.3826 8.71126V10.5103C16.3832 10.6782 16.4916 10.6882 16.6099 10.691H16.6701V10.706V10.8239H16.6556ZM16.6416 10.7946V10.7213H16.61C16.4935 10.7213 16.3548 10.7001 16.3541 10.5103V8.71126C16.3548 8.5215 16.4934 8.50007 16.61 8.50007H16.6416V8.42721C16.4909 8.42721 16.3021 8.44054 16.1437 8.44054C15.9887 8.44054 15.8012 8.42816 15.675 8.42721V8.50007H15.7062C15.8225 8.50007 15.9616 8.5215 15.9616 8.71126V10.5103C15.9616 10.7001 15.8225 10.7213 15.7062 10.7213H15.675V10.7946C15.8012 10.7932 15.9855 10.7808 16.1401 10.7808C16.2989 10.7808 16.4878 10.7936 16.6416 10.7946Z" fill="#211E1F"/>
<path d="M18.8967 10.1329L18.9033 10.1262V8.83857C18.9033 8.55667 18.7171 8.51572 18.6194 8.51572H18.5474V8.4126C18.701 8.4126 18.851 8.42617 19.0042 8.42617C19.1379 8.42617 19.2723 8.4126 19.4057 8.4126V8.51572H19.3569C19.2195 8.51572 19.0662 8.54307 19.0662 8.95167V10.5145C19.0662 10.6345 19.0695 10.7545 19.0856 10.861H18.9614L17.2817 8.88979V10.3048C17.2817 10.6036 17.3367 10.7062 17.5883 10.7062H17.6434V10.8098C17.5034 10.8098 17.3634 10.7962 17.2229 10.7962C17.0765 10.7962 16.9263 10.8098 16.7793 10.8098V10.7062H16.825C17.0501 10.7062 17.1184 10.5452 17.1184 10.2707V8.82431C17.1184 8.63217 16.968 8.51574 16.8218 8.51574H16.7793V8.41265C16.9033 8.41265 17.0304 8.42619 17.1542 8.42619C17.2521 8.42619 17.3469 8.41265 17.4446 8.41265L18.8967 10.1329Z" fill="#211E1F"/>
<path d="M19.0865 10.8756L18.9519 10.8703L17.2964 8.92818V10.3044C17.3002 10.6029 17.3434 10.6877 17.5891 10.691H17.659V10.7058V10.8239H17.6445C17.5034 10.8239 17.3629 10.8101 17.2237 10.8101C17.0776 10.8101 16.9278 10.8239 16.7799 10.8239H16.7656V10.8091V10.691H16.7799H16.8258C17.0414 10.6898 17.1029 10.5441 17.1054 10.2703V8.82413C17.105 8.64127 16.9625 8.53032 16.8227 8.52984H16.7656V8.5146V8.39746H16.7799C16.9045 8.39746 17.0323 8.41056 17.1547 8.41056C17.2518 8.41056 17.3464 8.39746 17.4563 8.40246L18.8901 10.1013V8.83844C18.8883 8.5651 18.7152 8.53225 18.6202 8.52984H18.5338V8.5146V8.39746H18.5482C18.7023 8.39746 18.8525 8.41056 19.005 8.41056C19.1378 8.41056 19.2715 8.39746 19.4063 8.39746H19.4206V8.41222V8.52982H19.4063H19.3577C19.2231 8.53389 19.0848 8.54625 19.081 8.95125V10.5139C19.081 10.6339 19.0844 10.7539 19.1002 10.8579L19.1034 10.8755H19.0865V10.8756ZM18.9625 10.8453H19.0704C19.0558 10.7422 19.0532 10.6279 19.0532 10.5139V8.95125C19.0532 8.5391 19.2172 8.50008 19.3577 8.50008H19.3921V8.4272C19.2636 8.42815 19.1347 8.44053 19.0051 8.44053C18.8558 8.44053 18.7105 8.42815 18.5628 8.4272L18.5626 8.50008H18.6203C18.7205 8.50008 18.9184 8.5472 18.9184 8.83841L18.9139 10.136L18.9073 10.1432L18.8963 10.1539L17.4455 8.4272C17.3487 8.4272 17.2541 8.44053 17.1548 8.44053C17.0351 8.44053 16.9128 8.42815 16.7944 8.4272L16.7938 8.50006H16.8227C16.9759 8.50006 17.1331 8.62315 17.1331 8.8241V10.2703C17.1331 10.5448 17.0605 10.7205 16.8259 10.7215L16.7944 10.7205V10.7946C16.9358 10.7931 17.0811 10.7807 17.2238 10.7807C17.36 10.7807 17.4955 10.7932 17.6303 10.7946V10.7215H17.5892C17.3324 10.7205 17.2686 10.6029 17.2684 10.3043V8.85075L18.9625 10.8453ZM18.8901 10.1256V10.1244L18.8874 10.122L18.8901 10.1256Z" fill="#211E1F"/>
<path d="M19.8952 8.58374C19.6502 8.58374 19.641 8.64566 19.5921 8.89612H19.4941C19.507 8.80016 19.5233 8.70421 19.5333 8.60421C19.5464 8.50802 19.5527 8.41228 19.5527 8.31278H19.6312C19.6575 8.41588 19.7389 8.41231 19.8274 8.41231H21.5102C21.5984 8.41231 21.6799 8.40897 21.6867 8.30566L21.7645 8.31947C21.7518 8.41231 21.7387 8.50495 21.7287 8.59778C21.7228 8.69043 21.7228 8.78326 21.7228 8.87564L21.6247 8.91397C21.6179 8.78707 21.6016 8.58374 21.3833 8.58374H20.8483V10.4109C20.8483 10.6756 20.9625 10.7059 21.1186 10.7059H21.1808V10.8095C21.0537 10.8095 20.825 10.7959 20.6492 10.7959C20.4535 10.7959 20.2248 10.8095 20.0974 10.8095V10.7059H20.1597C20.3395 10.7059 20.4304 10.689 20.4304 10.418V8.58374H19.8952Z" fill="#211E1F"/>
<path d="M21.182 10.8238C21.0535 10.8238 20.8252 10.81 20.6499 10.81C20.4544 10.81 20.2262 10.8238 20.0981 10.8238H20.0846V10.8093V10.691H20.0981H20.1603C20.3402 10.6865 20.4126 10.6841 20.4167 10.4179V8.59861H19.8959V8.58359V8.56835H20.445V10.4179C20.445 10.6933 20.3395 10.7212 20.1604 10.7214H20.1124V10.7938C20.2411 10.7931 20.4606 10.7807 20.6499 10.7807C20.8201 10.7807 21.0381 10.7931 21.1671 10.7938V10.7214H21.1193C20.9616 10.7212 20.8347 10.6805 20.8347 10.4107V8.56835H21.384C21.603 8.5693 21.6315 8.76525 21.6387 8.89263L21.7091 8.86525C21.7091 8.77573 21.7095 8.68597 21.7154 8.59549C21.7249 8.50716 21.7369 8.41954 21.7491 8.33192L21.6993 8.32311C21.6842 8.42311 21.5926 8.42811 21.5104 8.42716H19.828H19.8111C19.7344 8.42716 19.6504 8.42335 19.6213 8.32742H19.5674C19.5669 8.42242 19.5606 8.51456 19.5482 8.60597C19.5387 8.70028 19.5237 8.79099 19.5115 8.8817H19.5814C19.6244 8.64239 19.6525 8.56478 19.8959 8.56837V8.58361V8.59861C19.6547 8.60313 19.6597 8.64599 19.6065 8.8998L19.6041 8.91147H19.5928H19.4785L19.4803 8.89361C19.4934 8.79742 19.51 8.70168 19.5197 8.60168C19.5333 8.50644 19.5396 8.41121 19.5396 8.31263V8.29763H19.5534H19.643L19.6452 8.30835C19.6676 8.39501 19.728 8.39549 19.8111 8.39692H19.828H21.5104C21.6014 8.39549 21.6674 8.39406 21.6731 8.30428L21.6744 8.28809L21.6891 8.29142L21.7812 8.30668L21.7792 8.32168C21.766 8.41359 21.7532 8.50644 21.7437 8.59859C21.7371 8.69001 21.7371 8.78287 21.7371 8.87549V8.88621L21.7281 8.89001L21.6125 8.93428L21.6116 8.91428C21.603 8.78523 21.5901 8.59856 21.384 8.59856H20.8632V10.4107C20.8662 10.6698 20.9639 10.6876 21.1193 10.6909H21.1957V10.7057V10.8238L21.182 10.8238Z" fill="#211E1F"/>
<path d="M21.8691 10.7062H21.9151C22.0323 10.7062 22.1564 10.6895 22.1564 10.5107V8.71165C22.1564 8.53257 22.0323 8.51569 21.9151 8.51569H21.8691V8.4126C22.0678 8.4126 22.4076 8.42617 22.681 8.42617C22.9557 8.42617 23.2943 8.4126 23.516 8.4126C23.5106 8.55998 23.5135 8.78712 23.5232 8.93786L23.4248 8.96545C23.4093 8.74238 23.3701 8.56405 23.0274 8.56405H22.5743V9.46334H22.962C23.1577 9.46334 23.2005 9.34691 23.2197 9.16098H23.3174C23.3111 9.29548 23.3077 9.42931 23.3077 9.56312C23.3077 9.69384 23.3111 9.82407 23.3174 9.95455L23.2197 9.975C23.2005 9.76907 23.1905 9.63524 22.9652 9.63524H22.5743V10.435C22.5743 10.6586 22.7627 10.6586 22.9718 10.6586C23.3633 10.6586 23.5359 10.6307 23.6339 10.2398L23.7253 10.2633C23.6826 10.4457 23.6436 10.6274 23.6147 10.8098C23.4057 10.8098 23.0304 10.7962 22.7372 10.7962C22.4431 10.7962 22.0551 10.8098 21.8691 10.8098V10.7062Z" fill="#211E1F"/>
<path d="M23.6145 10.8239C23.4051 10.8239 23.03 10.8098 22.7371 10.8098C22.4432 10.8098 22.0554 10.8239 21.8692 10.8239H21.8555V10.8094V10.7058V10.691H21.8692H21.915C22.0333 10.6891 22.1405 10.6782 22.1421 10.5103V8.71125C22.1405 8.54363 22.0333 8.53244 21.915 8.52982H21.8555V8.51532V8.39746H21.8692C22.0683 8.39746 22.4077 8.41056 22.6812 8.41056C22.9555 8.41056 23.294 8.39746 23.5161 8.39746H23.5308L23.5301 8.4127C23.5279 8.46437 23.527 8.52529 23.527 8.59008C23.527 8.70887 23.5301 8.83863 23.5367 8.93651L23.5372 8.94889L23.5263 8.95225L23.4116 8.98368L23.411 8.96606C23.3917 8.7432 23.3635 8.58153 23.0275 8.5782H22.588L22.5875 9.44748H22.9622C23.15 9.44558 23.1836 9.34439 23.2058 9.15939L23.207 9.14582H23.2196H23.3321L23.3318 9.16127C23.3255 9.29508 23.3214 9.42889 23.3214 9.5627C23.3214 9.6927 23.3255 9.82294 23.3318 9.95365L23.3321 9.96582L23.3203 9.96865L23.207 9.99246L23.2058 9.97627C23.1834 9.76675 23.1818 9.65199 22.9651 9.64939L22.588 9.64913V10.4346C22.5882 10.6432 22.7592 10.642 22.9719 10.6432C23.3646 10.6408 23.5221 10.6208 23.6205 10.2351L23.6237 10.2213L23.6374 10.2239L23.742 10.2522L23.7388 10.2665C23.6967 10.4484 23.6576 10.6298 23.6284 10.8117L23.6257 10.8239H23.6145ZM23.6026 10.7939C23.6309 10.6208 23.6681 10.447 23.7082 10.2741L23.6437 10.257C23.546 10.6413 23.3569 10.6755 22.9718 10.6729C22.7664 10.6729 22.5606 10.6729 22.5596 10.4346V9.61982H22.9651C23.1928 9.6172 23.2162 9.76196 23.2322 9.95744L23.3028 9.94199C23.2965 9.81553 23.2936 9.68863 23.2936 9.56268C23.2936 9.43339 23.2965 9.30484 23.3028 9.17553H23.2322C23.2142 9.35434 23.161 9.48006 22.9621 9.47768H22.5597V8.54815H23.0275C23.3669 8.54575 23.4232 8.73006 23.4377 8.94601L23.508 8.92601C23.5024 8.8291 23.4985 8.70482 23.4985 8.59006C23.4985 8.53125 23.4999 8.47577 23.5017 8.4272C23.28 8.42815 22.9497 8.44053 22.6812 8.44053C22.4131 8.44053 22.0831 8.42815 21.8833 8.4272V8.50006H21.9149C22.0312 8.50006 22.1701 8.52149 22.1706 8.71125V10.5103C22.1701 10.6996 22.0312 10.7206 21.9149 10.7215H21.8833V10.7939C22.0736 10.7936 22.4505 10.7808 22.737 10.7808C23.0248 10.7808 23.3922 10.7936 23.6026 10.7939Z" fill="#211E1F"/>
<path d="M24.1655 8.77616C24.1655 8.52568 24.0352 8.51544 23.9336 8.51544H23.875V8.41211C23.9795 8.41211 24.1815 8.42592 24.3806 8.42592C24.5763 8.42592 24.7331 8.41211 24.9057 8.41211C25.3165 8.41211 25.6823 8.52901 25.6823 9.01711C25.6823 9.32544 25.4866 9.51449 25.2289 9.6214L25.7866 10.5C25.8779 10.6452 25.9429 10.6859 26.1031 10.7059V10.8095C25.9954 10.8095 25.8908 10.7959 25.7834 10.7959C25.6823 10.7959 25.5775 10.8095 25.4768 10.8095C25.2257 10.4626 25.0099 10.0916 24.7979 9.6964H24.5833V10.4316C24.5833 10.6964 24.7003 10.7059 24.8502 10.7059H24.909V10.8095C24.7226 10.8095 24.5342 10.7959 24.348 10.7959C24.1913 10.7959 24.0379 10.8095 23.875 10.8095V10.7059H23.9336C24.0548 10.7059 24.1655 10.6483 24.1655 10.5209V8.77616ZM24.5833 9.57282H24.7425C25.069 9.57282 25.2447 9.44237 25.2447 9.03711C25.2447 8.73187 25.059 8.53592 24.7683 8.53592C24.6704 8.53592 24.6287 8.54663 24.5832 8.54973V9.57282H24.5833Z" fill="#211E1F"/>
<path d="M26.1017 10.8238C25.9925 10.8238 25.8886 10.81 25.7814 10.81C25.6819 10.81 25.5778 10.8238 25.464 10.8181C25.2138 10.4726 24.9993 10.1038 24.7885 9.71145H24.5958V10.431C24.5992 10.6893 24.6978 10.6872 24.8487 10.691H24.9218V10.7058V10.8239H24.9073C24.7208 10.8239 24.5315 10.81 24.3462 10.81C24.1904 10.81 24.0375 10.8239 23.8736 10.8239H23.8594V10.8091V10.691H23.8736H23.9322C24.0499 10.6903 24.149 10.6365 24.1494 10.5208V8.77602C24.1469 8.53221 24.0336 8.53362 23.9322 8.53007H23.8594V8.51531V8.39697H23.8736C23.9793 8.39697 24.1806 8.41052 24.3793 8.41052C24.574 8.41052 24.7308 8.39697 24.9046 8.39697C25.3156 8.39793 25.6943 8.51745 25.6954 9.01602C25.6954 9.32626 25.5007 9.51981 25.2488 9.62792L25.797 10.4917C25.8882 10.6341 25.945 10.6696 26.1038 10.691L26.1157 10.6929V10.7058V10.8239H26.1017V10.8238ZM24.5815 9.68142H24.8046L24.8084 9.68904C25.0211 10.0836 25.2353 10.454 25.4755 10.7945C25.5751 10.7945 25.6798 10.7805 25.7814 10.7805C25.8857 10.7805 25.9861 10.7924 26.0877 10.794V10.7188C25.9345 10.6988 25.8628 10.6507 25.7737 10.5081L25.2061 9.61402L25.2222 9.60712C25.4774 9.50142 25.6662 9.31785 25.6665 9.01592C25.6662 8.5395 25.3147 8.42904 24.9046 8.42714C24.7324 8.42714 24.5758 8.44071 24.3793 8.44071C24.1877 8.44071 23.9942 8.42809 23.8874 8.42714V8.5H23.9322C24.0336 8.50026 24.1779 8.51785 24.1779 8.77597V10.5207C24.1779 10.6586 24.0551 10.7214 23.9322 10.7217H23.8874V10.794C24.0445 10.7935 24.1931 10.7805 24.3462 10.7805C24.5288 10.7805 24.7127 10.7936 24.8933 10.794V10.7217H24.8487C24.6998 10.7214 24.5673 10.7019 24.5673 10.4309V9.68142H24.5815H24.5815ZM24.5815 9.58714H24.5673V8.53571L24.5797 8.53452C24.6243 8.53097 24.6684 8.52119 24.767 8.52119C25.0643 8.52119 25.2575 8.72452 25.2579 9.03759C25.257 9.44759 25.0702 9.58688 24.7412 9.58712H24.5815V9.58714ZM24.7412 9.55764C25.0642 9.55476 25.2267 9.43669 25.2301 9.03762C25.2283 8.73762 25.0512 8.55142 24.767 8.55023C24.6788 8.55023 24.6374 8.55881 24.5957 8.56264V9.55764H24.7412Z" fill="#211E1F"/>
<path d="M28.3184 10.1329L28.3242 10.1262V8.83857C28.3242 8.55667 28.1385 8.51572 28.0408 8.51572H27.9693V8.4126C28.1225 8.4126 28.2722 8.42617 28.4258 8.42617C28.5598 8.42617 28.693 8.4126 28.8276 8.4126V8.51572H28.7785C28.6414 8.51572 28.488 8.54307 28.488 8.95167V10.5145C28.488 10.6345 28.4912 10.7545 28.5073 10.861H28.3836L26.7036 8.88979V10.3048C26.7036 10.6036 26.759 10.7062 27.0101 10.7062H27.0656V10.8098C26.9255 10.8098 26.7851 10.7962 26.645 10.7962C26.4977 10.7962 26.3478 10.8098 26.2012 10.8098V10.7062H26.2464C26.4718 10.7062 26.5403 10.5452 26.5403 10.2707V8.82431C26.5403 8.63217 26.3903 8.51574 26.2437 8.51574H26.2012V8.41265C26.3247 8.41265 26.4525 8.42619 26.5762 8.42619C26.6735 8.42619 26.7685 8.41265 26.8665 8.41265L28.3184 10.1329Z" fill="#211E1F"/>
<path d="M28.5066 10.8753L28.3722 10.8705L26.7165 8.92816V10.3041C26.7204 10.6029 26.7633 10.6877 27.0094 10.691H27.0785V10.7058V10.8239H27.0642C26.9231 10.8239 26.7832 10.8098 26.6434 10.8098C26.4978 10.8098 26.3471 10.8239 26.2002 10.8239H26.1855V10.8094V10.691H26.2002H26.2455C26.4609 10.6901 26.5226 10.5441 26.5247 10.2694V8.82388C26.5244 8.641 26.3822 8.53007 26.2428 8.52981H26.1855V8.51531V8.39697H26.2002C26.3247 8.39697 26.4523 8.41052 26.5753 8.41052C26.6712 8.41052 26.7658 8.39697 26.8753 8.40171L28.3093 10.1013V8.8379C28.3084 8.56504 28.1347 8.53123 28.0399 8.52983H27.9537V8.51531V8.39697H27.968C28.1222 8.39697 28.2724 8.41052 28.4249 8.41052C28.5579 8.41052 28.6916 8.39697 28.826 8.39697H28.8402V8.41245V8.52983H28.826H28.7776C28.643 8.53364 28.5043 8.54623 28.5009 8.95126V10.5139C28.5009 10.6339 28.5039 10.7529 28.5204 10.8586L28.5222 10.8753H28.5066ZM28.3826 10.8453H28.4898C28.4756 10.7422 28.4724 10.6279 28.4724 10.5139V8.95123C28.4726 8.53907 28.6378 8.501 28.7776 8.49981H28.8117V8.42719C28.6837 8.42814 28.5545 8.44052 28.4249 8.44052C28.2752 8.44052 28.1296 8.42814 27.9819 8.42719V8.49981H28.0399C28.1403 8.501 28.338 8.54719 28.338 8.8379L28.3335 10.136L28.3272 10.1431L28.3172 10.1541L26.8654 8.42721C26.7685 8.42721 26.674 8.44054 26.5753 8.44054C26.4545 8.44054 26.3326 8.42816 26.2138 8.42721V8.49983H26.2428C26.396 8.50102 26.5532 8.62269 26.5532 8.82388V10.2693C26.5532 10.545 26.4794 10.7205 26.2455 10.7215L26.2138 10.7212V10.7939C26.3548 10.7931 26.5002 10.7808 26.6434 10.7808C26.7803 10.7808 26.9158 10.7931 27.0506 10.7939V10.7215H27.0095C26.7525 10.7212 26.6883 10.6029 26.6878 10.3041V8.85123L28.3826 10.8453ZM28.3093 10.1258V10.1245L28.3068 10.1219L28.3093 10.1258Z" fill="#211E1F"/>
<path d="M29.3511 10.3183C29.3181 10.4347 29.2787 10.5247 29.2787 10.5859C29.2787 10.6893 29.416 10.7059 29.5233 10.7059H29.5597V10.8095C29.429 10.8021 29.2957 10.7959 29.1643 10.7959C29.0469 10.7959 28.9301 10.8021 28.8125 10.8095V10.7059H28.8322C28.9593 10.7059 29.0672 10.6271 29.1154 10.4826L29.638 8.90686C29.6801 8.77972 29.7393 8.60805 29.759 8.4807C29.8629 8.44331 29.9936 8.37474 30.0554 8.33331C30.0655 8.32977 30.0712 8.32617 30.0814 8.32617C30.0911 8.32617 30.0974 8.32617 30.1047 8.33689C30.1142 8.36403 30.1237 8.39522 30.1341 8.4226L30.7342 10.2188C30.7734 10.3388 30.812 10.4657 30.8544 10.569C30.8938 10.6652 30.9625 10.7059 31.0704 10.7059H31.0896V10.8095C30.9429 10.8021 30.7958 10.796 30.6397 10.796C30.4798 10.796 30.3162 10.8021 30.1499 10.8095V10.7059H30.1861C30.2608 10.7059 30.3884 10.6926 30.3884 10.6066C30.3884 10.5621 30.359 10.4695 30.3226 10.3593L30.1956 9.96093H29.4552L29.3511 10.3183ZM29.8271 8.79689H29.8205L29.5171 9.76879H30.1268L29.8271 8.79689Z" fill="#211E1F"/>
<path d="M31.0893 10.8239C30.9425 10.817 30.7957 10.8098 30.6402 10.8098C30.4803 10.8098 30.3179 10.817 30.1509 10.8239L30.1362 10.8248V10.8094V10.6906H30.1505H30.1864C30.262 10.6906 30.3742 10.6725 30.3742 10.6065C30.3751 10.5675 30.3457 10.4732 30.3097 10.3639L30.1855 9.97558H29.4659L29.3646 10.3225C29.3315 10.4396 29.2924 10.5303 29.2926 10.5863C29.2938 10.6701 29.4157 10.6906 29.5238 10.6906H29.5741V10.706V10.8248L29.5594 10.8239C29.4288 10.817 29.2956 10.8098 29.1655 10.8098C29.0486 10.8098 28.9309 10.817 28.814 10.8239L28.7988 10.8248V10.8094V10.6906H28.8131H28.8325C28.954 10.6901 29.0554 10.6175 29.1024 10.4777L29.6248 8.90177C29.6675 8.77438 29.7263 8.60319 29.7546 8.46629C29.8569 8.42986 29.9878 8.36081 30.0507 8.31891C30.0598 8.31581 30.0689 8.31105 30.0822 8.31105C30.0901 8.31081 30.1077 8.31296 30.1182 8.33108C30.1274 8.35939 30.1376 8.38989 30.1476 8.41774L30.7484 10.2137C30.7869 10.3342 30.8258 10.4611 30.8683 10.5625C30.9061 10.6542 30.9661 10.6901 31.071 10.6906H31.1043V10.7061V10.8249L31.0893 10.8239ZM30.1647 10.7932C30.3263 10.7872 30.4844 10.7806 30.6402 10.7806C30.7918 10.7806 30.9336 10.7872 31.0755 10.7932V10.7215H31.0709C30.9592 10.7222 30.8821 10.676 30.842 10.5748C30.7995 10.4706 30.7597 10.3432 30.7215 10.2229L30.1208 8.42722C30.1109 8.39984 30.1014 8.36865 30.0928 8.34436C30.0901 8.34103 30.0907 8.34103 30.088 8.34103H30.0821C30.0753 8.34103 30.0715 8.34317 30.0631 8.34555C30.0002 8.38865 29.8693 8.45603 29.7726 8.48293C29.7525 8.61293 29.6939 8.78436 29.6514 8.9115L29.1293 10.4877C29.0795 10.6367 28.9653 10.7217 28.8325 10.7215H28.8273V10.7932C28.939 10.7872 29.0522 10.7806 29.1655 10.7806C29.2915 10.7806 29.4204 10.7872 29.5449 10.7932V10.7215H29.5238C29.4177 10.7201 29.2693 10.7074 29.2653 10.5862C29.2655 10.5177 29.3055 10.4298 29.3374 10.3139L29.3517 10.3184L29.3374 10.3134L29.4448 9.94624H30.2054L30.3364 10.3544C30.3731 10.4646 30.4027 10.556 30.4027 10.6065C30.3982 10.712 30.2604 10.7194 30.1864 10.7215H30.1647L30.1647 10.7932ZM29.4978 9.78339L29.8102 8.78172H29.8211H29.8279H29.8376L30.1473 9.78339H29.4978ZM29.5369 9.75362H30.1079L29.824 8.83339L29.5369 9.75362Z" fill="#211E1F"/>
<path d="M31.2336 8.58374C30.9888 8.58374 30.9791 8.64566 30.93 8.89612H30.832C30.8449 8.80016 30.8615 8.70421 30.8717 8.60421C30.8847 8.50802 30.8907 8.41228 30.8907 8.31278H30.9694C30.9954 8.41588 31.0773 8.41231 31.1648 8.41231H32.8486C32.9362 8.41231 33.0176 8.40897 33.0244 8.30566L33.1024 8.31947C33.09 8.41231 33.0771 8.50495 33.0671 8.59778C33.0601 8.69043 33.0601 8.78326 33.0601 8.87564L32.9624 8.91397C32.9563 8.78707 32.94 8.58374 32.7212 8.58374H32.1862V10.4109C32.1862 10.6756 32.3007 10.7059 32.4568 10.7059H32.5188V10.8095C32.3916 10.8095 32.1636 10.7959 31.9871 10.7959C31.7917 10.7959 31.563 10.8095 31.4359 10.8095V10.7059H31.4976C31.6774 10.7059 31.7689 10.689 31.7689 10.418V8.58374H31.2336Z" fill="#211E1F"/>
<path d="M32.5177 10.8243C32.3897 10.8243 32.1612 10.8105 31.9861 10.8105C31.7911 10.8105 31.5626 10.8243 31.4348 10.8243H31.4203V10.8098V10.6915H31.4348H31.4966C31.6764 10.6869 31.7486 10.6846 31.7531 10.4183L31.7526 8.59907H31.2326V8.58405V8.56881H31.7814V10.4183C31.7814 10.6938 31.6757 10.721 31.4966 10.7217H31.4486V10.795C31.5778 10.7936 31.7967 10.7812 31.9861 10.7812C32.1564 10.7812 32.3745 10.7936 32.5035 10.795V10.7217H32.4553C32.2985 10.721 32.1714 10.6812 32.1709 10.4112V8.56881H32.7202C32.9392 8.56977 32.9679 8.76572 32.974 8.8931L33.0453 8.86572C33.0453 8.77619 33.0455 8.68643 33.0518 8.59643C33.0609 8.5081 33.0731 8.42 33.0851 8.33236L33.0358 8.32355C33.0209 8.42355 32.9288 8.42905 32.8476 8.4276H31.1638H31.1473C31.0704 8.42855 30.9871 8.42379 30.9574 8.32736H30.9041C30.9032 8.4226 30.897 8.515 30.8842 8.60643C30.8756 8.70096 30.8595 8.79191 30.8473 8.88215H30.9172C30.9604 8.64284 30.9887 8.56522 31.2326 8.56881V8.58405L31.2325 8.59905C30.9907 8.60336 30.9962 8.64643 30.9427 8.90024L30.9403 8.91191H30.9289H30.8145L30.8165 8.89474C30.8301 8.79786 30.8463 8.70212 30.8559 8.60284C30.8692 8.50688 30.8756 8.41165 30.8756 8.31307V8.29807H30.8896H30.9787L30.9814 8.30879C31.0043 8.39546 31.0637 8.39593 31.1472 8.39736L31.1637 8.39784H32.8475C32.9376 8.39596 33.0034 8.3945 33.009 8.305L33.0099 8.28857L33.0253 8.29193L33.1179 8.30717L33.1154 8.32217C33.102 8.41407 33.0896 8.50693 33.0796 8.59907C33.0731 8.6905 33.0731 8.7836 33.0731 8.87598V8.88669L33.0638 8.8905L32.9482 8.93479L32.9476 8.91477C32.9392 8.78574 32.9263 8.59905 32.7202 8.59905H32.1992V10.4112C32.2026 10.6702 32.3001 10.6881 32.4553 10.6914H32.5317V10.7062V10.8243L32.5177 10.8243Z" fill="#211E1F"/>
<path d="M33.2227 10.7062H33.2684C33.3862 10.7062 33.5095 10.6895 33.5095 10.5107V8.71165C33.5095 8.53257 33.3862 8.51569 33.2684 8.51569H33.2227V8.4126C33.35 8.4126 33.5455 8.42617 33.705 8.42617C33.8687 8.42617 34.0644 8.4126 34.2178 8.4126V8.51569H34.1721C34.0547 8.51569 33.9303 8.5326 33.9303 8.71165V10.5107C33.9303 10.6895 34.0547 10.7062 34.1721 10.7062H34.2178V10.8098C34.061 10.8098 33.8651 10.7962 33.7025 10.7962C33.5423 10.7962 33.35 10.8098 33.2227 10.8098V10.7062Z" fill="#211E1F"/>
<path d="M34.2184 10.8239C34.0607 10.8239 33.8655 10.8098 33.7028 10.8098C33.5433 10.8098 33.3506 10.8239 33.2232 10.8239H33.209V10.8094V10.7058V10.691H33.2232H33.2689C33.3868 10.6891 33.4949 10.6784 33.4954 10.5103V8.71125C33.4949 8.54363 33.3868 8.53218 33.2689 8.52982H33.209V8.51532V8.39746H33.2232C33.3506 8.39746 33.5465 8.41056 33.7055 8.41056C33.8682 8.41056 34.0639 8.39746 34.2184 8.39746H34.2322V8.4122V8.52982H34.2184H34.1727C34.0534 8.5322 33.9464 8.54363 33.9449 8.71125V10.5103C33.9464 10.6784 34.0535 10.6891 34.1727 10.691H34.2322V10.7058V10.8239H34.2184ZM34.2037 10.7939V10.7212H34.1727C34.0557 10.7212 33.9173 10.6996 33.9173 10.5103V8.71125C33.9173 8.52149 34.0557 8.50006 34.1727 8.50006H34.2037V8.4272C34.053 8.42815 33.8646 8.44053 33.7055 8.44053C33.551 8.44053 33.3639 8.42815 33.2375 8.4272V8.50006H33.269C33.385 8.50006 33.5239 8.52149 33.5243 8.71125V10.5103C33.5239 10.6996 33.385 10.7212 33.269 10.7212H33.2375V10.7939C33.3633 10.7924 33.5479 10.7808 33.7028 10.7808C33.861 10.7808 34.0499 10.7932 34.2037 10.7939Z" fill="#211E1F"/>
<path d="M35.5197 8.36084C36.2151 8.36084 36.7693 8.81465 36.7693 9.54584C36.7693 10.3359 36.2311 10.8608 35.5366 10.8608C34.8444 10.8608 34.3164 10.3663 34.3164 9.62798C34.3164 8.91394 34.8412 8.36084 35.5197 8.36084ZM35.569 10.7096C36.2019 10.7096 36.3121 10.122 36.3121 9.62132C36.3121 9.11941 36.0551 8.51179 35.5133 8.51179C34.9424 8.51179 34.7729 9.04751 34.7729 9.50727C34.7729 10.122 35.0403 10.7096 35.569 10.7096Z" fill="#211E1F"/>
<path d="M34.3008 9.62833C34.3022 8.90595 34.8333 8.34714 35.5185 8.34619V8.36119V8.37569C34.848 8.37569 34.3291 8.92167 34.3284 9.62831C34.33 10.3583 34.8505 10.8455 35.5355 10.8457C36.2232 10.8455 36.7537 10.3278 36.7548 9.54548C36.7542 8.82357 36.2083 8.37664 35.5186 8.37569V8.36119V8.34619C36.2194 8.34667 36.7811 8.805 36.7825 9.54548C36.7818 10.3438 36.2366 10.8743 35.5355 10.8757C34.8378 10.8743 34.3022 10.3747 34.3008 9.62831H34.3008V9.62833ZM34.7578 9.50762C34.7587 9.04574 34.9302 8.49667 35.5124 8.49667C36.0662 8.49812 36.3248 9.11717 36.3257 9.62167C36.3248 10.1224 36.2128 10.7243 35.5681 10.7243V10.71V10.6952C36.1884 10.6943 36.2959 10.1224 36.2974 9.62167C36.2974 9.12383 36.0427 8.52788 35.5124 8.52714C34.9528 8.52786 34.7872 9.05024 34.7861 9.50762C34.7865 10.1193 35.0514 10.6938 35.5681 10.6952V10.71V10.7243C35.0265 10.7236 34.7587 10.126 34.7578 9.50762Z" fill="#211E1F"/>
<path d="M38.967 10.1329L38.9736 10.1262V8.83857C38.9736 8.55667 38.7872 8.51572 38.6893 8.51572H38.6187V8.4126C38.7716 8.4126 38.9216 8.42617 39.0745 8.42617C39.2086 8.42617 39.3423 8.4126 39.4763 8.4126V8.51572H39.4269C39.2903 8.51572 39.1367 8.54307 39.1367 8.95167V10.5145C39.1367 10.6345 39.1399 10.7545 39.1564 10.861H39.0326L37.3522 8.88979V10.3048C37.3522 10.6036 37.4075 10.7062 37.6586 10.7062H37.7144V10.8098C37.574 10.8098 37.434 10.7962 37.2937 10.7962C37.1468 10.7962 36.9964 10.8098 36.8496 10.8098V10.7062H36.8955C37.1211 10.7062 37.1887 10.5452 37.1887 10.2707V8.82431C37.1887 8.63217 37.0394 8.51574 36.8921 8.51574H36.8496V8.41265C36.9736 8.41265 37.1009 8.42619 37.2247 8.42619C37.3226 8.42619 37.417 8.41265 37.5152 8.41265L38.967 10.1329Z" fill="#211E1F"/>
<path d="M39.1568 10.8753L39.0218 10.8703L37.3665 8.92815V10.3044C37.3701 10.6029 37.4133 10.6875 37.6583 10.6906H37.7289V10.706V10.8239H37.7146C37.5732 10.8239 37.4332 10.8101 37.2938 10.8101C37.1474 10.8101 36.9977 10.8239 36.8495 10.8239H36.8359V10.8091V10.6906H36.8495H36.8957C37.1108 10.6899 37.1726 10.5442 37.1753 10.2703V8.82389C37.1748 8.64103 37.0325 8.53008 36.8923 8.52984H36.8359V8.51532V8.39746H36.8495C36.9746 8.39746 37.1017 8.41058 37.2248 8.41058C37.3217 8.41058 37.4158 8.39746 37.5261 8.40248L38.9595 10.1013V8.83844C38.9586 8.56513 38.7848 8.53225 38.6894 8.52987H38.6037V8.51537V8.39751H38.6184C38.7719 8.39751 38.9224 8.4106 39.0741 8.4106C39.2081 8.4106 39.3411 8.39751 39.4764 8.39751H39.4904V8.41225V8.52987H39.4764H39.427C39.2929 8.53391 39.154 8.54677 39.1513 8.95129V10.5139C39.1513 10.6339 39.1538 10.7537 39.1696 10.8587L39.1723 10.8753H39.1568V10.8753ZM39.0329 10.8453H39.1396C39.1254 10.7422 39.1229 10.6279 39.1229 10.5139V8.95125C39.1229 8.53839 39.2874 8.50101 39.4272 8.49982H39.4624V8.4272C39.3337 8.42815 39.2048 8.44053 39.0743 8.44053C38.9259 8.44053 38.7799 8.42815 38.6322 8.4272V8.49982H38.6894C38.7906 8.50101 38.9874 8.54794 38.9874 8.83839L38.9838 10.136L38.9777 10.1432L38.9673 10.1541L37.5154 8.42722C37.4192 8.42722 37.324 8.44056 37.2249 8.44056C37.1048 8.44056 36.9824 8.42818 36.8636 8.42722V8.49984H36.8924C37.0455 8.50103 37.2032 8.6227 37.2032 8.82389V10.2703C37.2032 10.5448 37.1304 10.7206 36.8958 10.7215L36.8636 10.7212V10.7939C37.0052 10.7932 37.1505 10.7808 37.2939 10.7808C37.4299 10.7808 37.5649 10.7932 37.7004 10.7939V10.7215H37.6583C37.4023 10.7212 37.3383 10.6029 37.3383 10.3043V8.85077L39.0329 10.8453ZM38.9595 10.1258V10.1246L38.9568 10.122L38.9595 10.1258Z" fill="#211E1F"/>
<path d="M40.0004 10.3183C39.9685 10.4347 39.9289 10.5247 39.9289 10.5859C39.9289 10.6893 40.0662 10.7059 40.1732 10.7059H40.2096V10.8095C40.0791 10.8021 39.9452 10.7959 39.8147 10.7959C39.6968 10.7959 39.5798 10.8021 39.4629 10.8095V10.7059H39.4814C39.6093 10.7059 39.7174 10.6271 39.7656 10.4826L40.2882 8.90686C40.3302 8.77972 40.3893 8.60805 40.4083 8.4807C40.5128 8.44331 40.6431 8.37474 40.7057 8.33331C40.715 8.32977 40.7216 8.32617 40.7316 8.32617C40.7413 8.32617 40.7474 8.32617 40.754 8.33689C40.7639 8.36403 40.7741 8.39522 40.7838 8.4226L41.3838 10.2188C41.4229 10.3388 41.4618 10.4657 41.5048 10.569C41.5439 10.6652 41.6127 10.7059 41.7199 10.7059H41.7399V10.8095C41.5928 10.8021 41.446 10.796 41.2892 10.796C41.1297 10.796 40.9664 10.8021 40.7999 10.8095V10.7059H40.8361C40.9105 10.7059 41.0386 10.6926 41.0386 10.6066C41.0386 10.5621 41.0089 10.4695 40.9725 10.3593L40.8458 9.96093H40.1052L40.0004 10.3183ZM40.4773 8.79689H40.4707L40.1669 9.76879H40.7774L40.4773 8.79689Z" fill="#211E1F"/>
<path d="M41.739 10.8239C41.5922 10.8177 41.4457 10.8101 41.2898 10.8101C41.1307 10.8101 40.9674 10.8177 40.8009 10.8239L40.7865 10.8248V10.8091V10.691H40.8005H40.836C40.912 10.691 41.0244 10.6724 41.0246 10.6065C41.0253 10.5674 40.9959 10.4739 40.9595 10.3639L40.8355 9.97554H40.1155L40.0146 10.3224C39.982 10.44 39.9431 10.5303 39.9438 10.5858C39.9438 10.6701 40.0659 10.691 40.1738 10.691H40.2236V10.7058V10.8248L40.2091 10.8239C40.0786 10.8177 39.9451 10.8101 39.8153 10.8101C39.6983 10.8101 39.5811 10.8177 39.4635 10.8239L39.4492 10.8248V10.8091V10.691H39.4635H39.482C39.6037 10.6905 39.7055 10.617 39.7531 10.4777L40.2752 8.90173C40.3168 8.77435 40.3756 8.60316 40.4045 8.46673C40.5071 8.42935 40.638 8.36078 40.7014 8.31885C40.7099 8.31576 40.7188 8.31171 40.7321 8.31171C40.7407 8.31076 40.7574 8.3129 40.7679 8.33171C40.7776 8.35864 40.7871 8.3898 40.7979 8.41766L41.3979 10.2136C41.4368 10.3341 41.476 10.461 41.5182 10.5632C41.5564 10.6541 41.616 10.6901 41.72 10.691H41.754V10.7058V10.8248L41.739 10.8239ZM40.8145 10.7936C40.9758 10.7872 41.1346 10.7805 41.2898 10.7805C41.4416 10.7805 41.5839 10.7872 41.7259 10.7931L41.7255 10.7214H41.72C41.6096 10.7217 41.5325 10.676 41.492 10.5748C41.449 10.4705 41.4101 10.3431 41.3712 10.2234L40.7708 8.42719C40.7611 8.3998 40.7511 8.36861 40.7432 8.34528C40.7405 8.34099 40.7408 8.34099 40.7382 8.34099H40.7321C40.7254 8.34099 40.7217 8.34338 40.7138 8.34576C40.6502 8.3879 40.5194 8.45645 40.4229 8.4829C40.4027 8.6129 40.3435 8.78409 40.3014 8.91147L39.7791 10.4877C39.7295 10.6367 39.6155 10.7217 39.482 10.7214H39.4772V10.7931C39.5895 10.7872 39.7017 10.7805 39.8152 10.7805C39.9417 10.7805 40.0704 10.7872 40.196 10.7931V10.7214H40.1738C40.0677 10.72 39.9189 10.7079 39.915 10.5858C39.9157 10.5177 39.9562 10.4303 39.9876 10.3139L40.001 10.3184L39.9876 10.3134L40.0951 9.94621H40.8559L40.9866 10.3543C41.0226 10.4648 41.0522 10.556 41.0522 10.6065C41.0474 10.7119 40.9106 10.7193 40.8359 10.7214H40.8145V10.7936H40.8145ZM40.148 9.78316L40.4609 8.78171H40.4708H40.4779H40.4881L40.7964 9.78316H40.148ZM40.1872 9.75361H40.7577L40.474 8.83385L40.1872 9.75361Z" fill="#211E1F"/>
<path d="M42.5618 10.4731C42.5618 10.6105 42.6523 10.6514 42.7568 10.6655C42.8905 10.6759 43.0373 10.6759 43.188 10.6585C43.3246 10.6412 43.4423 10.5588 43.5006 10.4731C43.5526 10.3974 43.5821 10.3012 43.6017 10.2257H43.6963C43.6605 10.4214 43.6148 10.6143 43.5755 10.8097C43.2891 10.8097 43.0014 10.7962 42.7147 10.7962C42.4272 10.7962 42.1406 10.8097 41.8535 10.8097V10.7061H41.8983C42.0164 10.7061 42.144 10.6895 42.144 10.4764V8.71165C42.144 8.53257 42.0164 8.51569 41.8983 8.51569H41.8535V8.4126C42.0259 8.4126 42.1958 8.42617 42.3684 8.42617C42.5353 8.42617 42.6982 8.4126 42.8647 8.4126V8.51569H42.7826C42.6591 8.51569 42.5618 8.5195 42.5618 8.70093V10.4731Z" fill="#211E1F"/>
<path d="M43.5763 10.8239C43.2888 10.8239 43.0018 10.8101 42.7156 10.8101C42.4282 10.8101 42.1412 10.8239 41.8537 10.8239H41.8398V10.8091V10.691H41.8537H41.8991C42.0175 10.6882 42.1292 10.6796 42.1306 10.476V8.71056C42.1292 8.54365 42.0181 8.53222 41.8991 8.52982H41.8398V8.51532V8.39746H41.8537C42.0272 8.39746 42.1971 8.41056 42.3694 8.41056C42.535 8.41056 42.6979 8.39746 42.8655 8.39746H42.8789V8.41222V8.52982H42.8655H42.7837C42.6572 8.53363 42.5785 8.52744 42.576 8.70056V10.4727C42.5769 10.6006 42.6565 10.6351 42.7583 10.6501C42.816 10.6544 42.8764 10.657 42.9393 10.657C43.0192 10.657 43.1022 10.6529 43.1864 10.6434C43.3194 10.627 43.4338 10.5463 43.4899 10.4644C43.5401 10.391 43.5691 10.2967 43.5886 10.2217L43.5915 10.2103H43.6024H43.7144L43.7114 10.2284C43.6745 10.4249 43.6298 10.6168 43.5902 10.8122L43.5875 10.8239H43.5764H43.5763V10.8239ZM43.5646 10.7939C43.6023 10.6077 43.6451 10.4255 43.6802 10.2398H43.6132C43.5928 10.3146 43.5639 10.4067 43.5125 10.4817C43.4517 10.5707 43.3309 10.6546 43.1895 10.6729C43.104 10.6822 43.0194 10.6869 42.9393 10.6869C42.8762 10.6869 42.8149 10.6838 42.7558 10.6795C42.6497 10.6672 42.5468 10.6195 42.5473 10.4727V8.70051C42.5473 8.50979 42.6619 8.50003 42.7836 8.50003H42.8511V8.42718C42.6902 8.42813 42.5319 8.44072 42.3694 8.44072C42.2004 8.44072 42.0353 8.42813 41.8679 8.42718V8.50003H41.8991C42.0156 8.50003 42.1581 8.52146 42.1581 8.71051V10.476C42.1581 10.6981 42.0163 10.7212 41.8991 10.7212H41.8679V10.7938C42.15 10.7936 42.4321 10.7807 42.7155 10.7807C42.999 10.7807 43.2823 10.7936 43.5646 10.7939Z" fill="#211E1F"/>
<path d="M43.6562 8.31494C43.8527 8.31494 43.9996 8.47399 43.9996 8.6778C43.9996 8.88066 43.8527 9.03827 43.6562 9.03827C43.4595 9.03827 43.3125 8.88066 43.3125 8.6778C43.3125 8.47401 43.4595 8.31494 43.6562 8.31494ZM43.6562 8.97089C43.8097 8.97089 43.9278 8.8328 43.9278 8.6778C43.9278 8.52185 43.8115 8.38256 43.6562 8.38256C43.5016 8.38256 43.3835 8.52187 43.3835 8.6778C43.3835 8.8328 43.5016 8.97089 43.6562 8.97089ZM43.4851 8.86827V8.85042C43.5274 8.84423 43.5351 8.84566 43.5351 8.81804V8.55042C43.5351 8.51282 43.5312 8.49997 43.4867 8.50185V8.48351H43.6625C43.7231 8.48351 43.7785 8.51375 43.7785 8.57946C43.7785 8.63327 43.7446 8.67304 43.6973 8.68851L43.7536 8.77135C43.7801 8.80897 43.8097 8.84423 43.8294 8.85658V8.86825H43.7625C43.7303 8.86825 43.7023 8.79706 43.6389 8.70158H43.6009V8.82182C43.6009 8.84563 43.6088 8.8442 43.6512 8.85039V8.86825L43.4851 8.86827ZM43.6009 8.6778H43.6414C43.6857 8.6778 43.7066 8.64232 43.7066 8.58542C43.7066 8.5278 43.6744 8.50754 43.6392 8.50754H43.6009V8.6778Z" fill="#211E1F"/>
</g>
<defs>
<clipPath id="clip0_9828_7151">
<rect width="44" height="12" fill="white" transform="translate(0 0.75)"/>
</clipPath>
</defs>
</svg>
