<svg width="36" height="43" viewBox="0 0 36 43" fill="none" xmlns="http://www.w3.org/2000/svg">
<g clip-path="url(#clip0_20933_124867)">
<path d="M35.5938 42.8358H0.285156L0.605661 39.9329C0.608979 39.9014 0.61296 39.8685 0.616278 39.835L3.83659 10.6357H32.0417L35.5938 42.8358Z" fill="#3D9BE9"/>
<path d="M35.7804 43.0002H0.101562L0.446619 39.874C0.44861 39.8563 0.450601 39.8379 0.452591 39.8195L3.68949 10.4712H32.1925L35.7804 43.0002ZM0.471835 42.672H35.4108L31.8952 10.7994H3.98743L0.78305 39.853C0.781059 39.8714 0.779068 39.8911 0.776414 39.9108L0.771769 39.9502L0.471171 42.672H0.471835Z" fill="#333333"/>
<path d="M13.1305 14.3193C13.2141 16.554 13.2141 17.1337 12.2665 17.4724C11.3183 17.8118 10.8717 17.1337 10.875 15.9855L11.1252 10.6357H13.4238C13.0748 11.3395 13.0734 12.77 13.1312 14.3193H13.1305Z" fill="#333333"/>
<path d="M26.2066 10.6357C26.2106 12.2415 26.0208 15.8745 25.2611 16.9682C24.3407 18.2924 23.1695 17.8788 23.1111 16.787C23.0573 15.8095 24.2876 11.8168 24.0036 10.6357H26.2066Z" fill="#333333"/>
<path d="M35.5938 42.836H0.285156L0.605661 39.933C0.346205 42.366 1.12457 41.8014 10.7855 41.8014H33.0417C34.7988 41.8014 34.2129 40.4694 33.0417 29.3399C32.0702 20.1136 31.4444 13.1312 30.7822 10.6353H32.0417L35.5938 42.8354V42.836Z" fill="#333333"/>
<path d="M24.8908 16.14C24.6765 17.7957 22.9193 17.8784 23.129 16.5536C23.129 16.5536 23.1728 16.2405 23.2246 15.7068C23.2929 15.0109 23.3772 13.9375 23.3984 12.6902C23.4761 8.32521 22.8025 1.82138 18.0965 1.82138C11.0135 1.82138 12.5451 16.553 12.5451 16.553C12.6287 17.4635 11.123 17.7944 10.9552 16.1394C10.9359 15.9497 10.9074 15.6956 10.8749 15.3877C10.484 11.674 9.54838 0.163086 18.1509 0.163086C19.997 0.163086 21.3871 0.70272 22.4276 1.58635C26.6386 5.16159 25.1224 14.359 24.8915 16.1394L24.8908 16.14Z" fill="white"/>
<path d="M18.0966 1.82224C11.0137 1.82224 12.5452 16.5538 12.5452 16.5538C12.6288 17.4644 11.1232 17.7953 10.9553 16.1403C10.936 15.9505 10.9075 15.6965 10.875 15.3886C10.885 15.3814 10.8909 15.3781 10.8909 15.3781C10.9971 17.0094 12.0847 17.5064 11.9175 14.7748L11.7502 12.0431C11.7502 12.0431 11.3143 1.31543 17.9752 1.31543C23.5565 1.31543 23.6965 9.02523 23.3986 12.6917C23.4762 8.32673 22.8027 1.8229 18.0966 1.8229V1.82224Z" fill="#3D9BE9"/>
<path d="M24.8929 16.1406C24.6785 17.7963 22.9214 17.879 23.1311 16.5542C23.1311 16.5542 23.1742 16.2411 23.2266 15.7073C23.4489 16.6166 24.1105 16.5581 24.4702 13.9466C24.9254 10.6419 25.0369 4.54374 22.4297 1.58691C26.6407 5.16215 25.1244 14.3596 24.8935 16.14L24.8929 16.1406Z" fill="#3D9BE9"/>
<path d="M10.7883 16.1509C10.7763 15.9724 10.7544 15.7288 10.7285 15.4472C10.4837 12.7444 9.83405 5.5644 13.0975 2.03446C14.345 0.684718 16.0451 0 18.1493 0C20.2534 0 21.8573 0.666336 23.0544 1.98128C26.1811 5.41537 25.4545 12.2842 25.1439 15.2174C25.1015 15.6205 25.0676 15.9389 25.055 16.1496L24.7239 16.1306C24.7365 15.912 24.771 15.5903 24.8142 15.1833C24.9654 13.7508 25.2196 11.3527 25.0557 8.86457C24.858 5.86376 24.1021 3.62185 22.8082 2.20055C21.6768 0.957817 20.1094 0.327588 18.1499 0.327588C16.1904 0.327588 14.5255 0.976199 13.343 2.25569C10.1784 5.67928 10.8188 12.7543 11.0597 15.4176C11.0855 15.7012 11.1074 15.9461 11.12 16.1286L10.7889 16.1503L10.7883 16.1509Z" fill="#333333"/>
<path d="M23.2918 16.5762L22.9634 16.5316C22.9766 16.4358 24.2586 6.91339 21.1027 3.33225C20.3157 2.43877 19.3038 1.98645 18.0947 1.98645C16.8857 1.98645 15.8492 2.44271 15.0277 3.34341C11.753 6.93309 12.6986 16.4417 12.7079 16.5375L12.3781 16.571C12.3754 16.5467 12.1286 14.1164 12.2971 11.2666C12.5247 7.4202 13.3608 4.68068 14.7809 3.12349C15.6681 2.15123 16.7829 1.6582 18.0941 1.6582C19.4053 1.6582 20.4989 2.14926 21.3522 3.11692C22.7231 4.6728 23.4657 7.4143 23.5586 11.2653C23.6276 14.1177 23.2945 16.552 23.2912 16.5762H23.2918Z" fill="#333333"/>
<path d="M3.24138 39.0341C2.39268 37.7217 3.03103 31.2573 3.95339 22.9422C4.32035 19.6322 4.63754 16.7739 4.63754 15.5193C4.63754 15.1989 4.63488 14.9101 4.63289 14.6495C4.62161 13.3358 4.6163 12.7365 4.95937 12.401C5.28518 12.0819 5.83993 12.0924 6.9461 12.1134C7.27191 12.1194 7.64086 12.1266 8.06687 12.1266V12.4548C7.63754 12.4548 7.2666 12.4476 6.93946 12.4417C5.95937 12.4233 5.41856 12.4128 5.19294 12.6347C4.95008 12.8723 4.95539 13.5026 4.96534 14.6468C4.96733 14.9081 4.96998 15.1983 4.96998 15.5193C4.96998 16.7916 4.65213 19.6585 4.28385 22.9777C3.60237 29.1224 2.66872 37.5379 3.52141 38.8568L3.24205 39.0341H3.24138Z" fill="white"/>
<path d="M27.0132 39.115C26.9635 39.115 26.9137 39.1124 26.8633 39.1059L26.9024 38.7802C27.2448 38.8203 27.5574 38.6752 27.8573 38.3358C30.3756 35.4899 30.4187 20.6513 29.2495 16.1498L29.5707 16.0684C30.1533 18.3122 30.4399 23.142 30.2674 27.8143C30.1712 30.4172 29.7684 36.6742 28.1068 38.5524C27.7757 38.9266 27.4081 39.1157 27.0132 39.1157V39.115Z" fill="white"/>
</g>
<defs>
<clipPath id="clip0_20933_124867">
<rect width="35.6789" height="43" fill="white" transform="translate(0.101562)"/>
</clipPath>
</defs>
</svg>
