<svg width="172" height="174" viewBox="0 0 172 174" fill="none" xmlns="http://www.w3.org/2000/svg">
<path d="M166.569 65.0752L77.831 4.39405C74.1917 1.90692 69.1745 2.79009 66.6537 6.36633L3.83301 95.5505C0.643543 100.077 1.81072 106.275 6.43888 109.396L94.447 168.778C100.558 172.905 108.964 171.162 112.842 164.968L168.806 75.5584C171.01 72.0337 170.03 67.4436 166.569 65.0752Z" stroke="#3DCCE9" stroke-width="4" stroke-miterlimit="10"/>
<path d="M159.681 56.8255L139.377 122.98L134.809 137.875L128.447 158.604C127.616 161.313 124.662 162.822 121.91 161.942L120.106 161.368L116.147 160.101L48.0374 138.354L34.4933 134.029L21.387 129.843C17.3383 128.548 14.8054 124.81 14.9513 120.841C14.9797 120.025 15.1256 119.206 15.389 118.39L15.9402 116.699L33.233 63.7443L39.3363 45.0552L46.9432 21.7601C47.8064 19.1106 50.7081 17.6492 53.4194 18.4928L119.928 39.2334L153.31 49.6413L156.313 50.5799C158.992 51.4156 160.491 54.1918 159.681 56.8255Z" fill="white" stroke="#333333" stroke-width="3.39295" stroke-miterlimit="10"/>
<path d="M157.733 51.071C146.385 63.7443 147.601 63.7443 141.117 63.7443H32.9102L38.9892 45.1304C45.5383 43.3007 59.7227 41.9621 74.2475 41.9621C92.3914 41.9621 109.672 40.4611 123.982 39.2334L157.733 51.071Z" fill="#333333"/>
<path d="M15.942 116.699L48.0392 138.355L34.4952 134.03L14.9531 120.842C14.9815 120.026 15.1274 119.206 15.3908 118.39L15.942 116.699Z" fill="#333333"/>
<path d="M139.378 122.98L134.811 137.876L120.108 161.369L116.148 160.101L139.378 122.98Z" fill="#333333"/>
<path d="M16.6111 77.4082L3.83301 95.5508C0.643543 100.078 1.81072 106.276 6.43888 109.396L94.447 168.779C100.558 172.905 108.964 171.163 112.842 164.969L149.491 106.422" stroke="#3DCCE9" stroke-width="4" stroke-miterlimit="10"/>
<path d="M31.2925 70.4772C31.2925 70.4772 27.6937 67.0712 24.095 64.0574C20.4962 61.0435 22.0403 54.5168 22.0403 36.9405C22.0403 31.9188 22.5549 32.4217 54.4131 32.4217H159.815C173.623 32.4217 169.051 34.7069 156.691 47.1227C144.334 59.5386 143.84 60.9683 138.693 60.9683C133.546 60.9683 46.8224 60.9683 34.1294 60.9683L31.2925 70.4732V70.4772Z" fill="#3DCCE9"/>
<path d="M29.2668 63.7449C29.2668 63.7449 26.4299 60.9727 28.4563 60.9727H38.3327" stroke="#333333" stroke-width="2.03577" stroke-miterlimit="10"/>
<path d="M31.0899 70.6752C31.0899 70.6752 27.6937 67.0712 24.095 64.0574C20.4962 61.0435 22.0403 54.5168 22.0403 36.9405C22.0403 31.9188 22.5549 32.4217 54.4131 32.4217H159.815C173.623 32.4217 169.051 34.7069 156.691 47.1227C144.334 59.5386 143.84 60.9683 138.693 60.9683H33.9268L31.0899 70.6712V70.6752Z" stroke="#333333" stroke-width="2.71436" stroke-miterlimit="10"/>
<path d="M26.0234 37.6061C27.6445 36.022 26.834 36.418 67.3608 36.418" stroke="white" stroke-width="2.03577" stroke-miterlimit="10"/>
<path d="M79.125 36.374H97.05" stroke="white" stroke-width="2.03577" stroke-miterlimit="10"/>
<path d="M108.305 36.374H117.229" stroke="white" stroke-width="2.03577" stroke-miterlimit="10"/>
<path d="M126.305 36.374H157.125" stroke="white" stroke-width="2.03577" stroke-miterlimit="10"/>
<path d="M21.8945 59.0518C22.7821 63.3488 26.8348 64.9329 28.4558 65.725C30.0769 66.5171 32.1478 65.725 31.5156 63.7448C30.8834 61.7646 28.8611 61.3686 28.4558 62.9527C28.4558 62.9527 26.7294 60.9686 28.6058 60.9725C30.4822 60.9765 34.1296 60.9725 34.1296 60.9725L31.0901 70.6755C31.0901 70.6755 25.8094 65.9864 23.8925 63.8755C21.9756 61.7646 21.8945 59.0518 21.8945 59.0518Z" fill="#333333"/>
<path d="M39.4492 53.2773V42.1881H44.6042C45.8363 42.1881 46.9224 42.4205 47.8626 42.8852C48.8028 43.3393 49.5377 43.9782 50.0673 44.802C50.5968 45.6258 50.8616 46.6027 50.8616 47.7327C50.8616 48.8522 50.5968 49.8291 50.0673 50.6634C49.5377 51.4872 48.8028 52.1314 47.8626 52.5961C46.9224 53.0502 45.8363 53.2773 44.6042 53.2773H39.4492ZM42.0754 51.1703H44.4745C45.231 51.1703 45.8849 51.033 46.436 50.7584C46.998 50.4733 47.4303 50.072 47.7329 49.5545C48.0463 49.037 48.203 48.4297 48.203 47.7327C48.203 47.0251 48.0463 46.4178 47.7329 45.9109C47.4303 45.3934 46.998 44.9974 46.436 44.7228C45.8849 44.4377 45.231 44.2951 44.4745 44.2951H42.0754V51.1703Z" fill="#333333"/>
<path d="M52.8421 53.2773V42.1881H55.4682V53.2773H52.8421Z" fill="#333333"/>
<path d="M61.8897 53.4674C60.9819 53.4674 60.1119 53.3512 59.2798 53.1188C58.4476 52.8759 57.7776 52.5644 57.2696 52.1842L58.1612 50.2515C58.6475 50.5895 59.2203 50.8693 59.8796 51.0911C60.5496 51.3023 61.2251 51.4079 61.9059 51.4079C62.4247 51.4079 62.8407 51.3604 63.1541 51.2654C63.4783 51.1598 63.7161 51.0172 63.8674 50.8377C64.0187 50.6581 64.0944 50.4522 64.0944 50.2198C64.0944 49.9241 63.9755 49.6918 63.7377 49.5228C63.5 49.3433 63.1866 49.2007 62.7975 49.0951C62.4084 48.9789 61.9762 48.8733 61.5006 48.7782C61.0359 48.6726 60.5658 48.5459 60.0903 48.398C59.6256 48.2502 59.1987 48.0601 58.8097 47.8278C58.4206 47.5954 58.1018 47.2891 57.8532 46.9089C57.6155 46.5287 57.4966 46.0429 57.4966 45.4515C57.4966 44.8178 57.6695 44.2423 58.0153 43.7248C58.372 43.1967 58.9015 42.7796 59.604 42.4733C60.3173 42.1565 61.2088 41.998 62.2788 41.998C62.992 41.998 63.6945 42.0825 64.3861 42.2515C65.0778 42.4099 65.6884 42.6528 66.218 42.9802L65.4074 44.9287C64.8779 44.633 64.3483 44.4165 63.8188 44.2792C63.2892 44.1314 62.7705 44.0575 62.2625 44.0575C61.7546 44.0575 61.3385 44.1155 61.0143 44.2317C60.6901 44.3479 60.4577 44.501 60.3173 44.6911C60.1768 44.8707 60.1065 45.0819 60.1065 45.3248C60.1065 45.6099 60.2254 45.8423 60.4632 46.0218C60.7009 46.1908 61.0143 46.3281 61.4034 46.4337C61.7924 46.5393 62.2193 46.6449 62.684 46.7505C63.1595 46.8561 63.6296 46.9776 64.0944 47.1149C64.5699 47.2522 65.0022 47.437 65.3912 47.6693C65.7803 47.9017 66.0937 48.2079 66.3314 48.5881C66.58 48.9683 66.7043 49.4489 66.7043 50.0297C66.7043 50.6528 66.526 51.2231 66.1693 51.7406C65.8127 52.2581 65.2777 52.6753 64.5645 52.9921C63.862 53.3089 62.9704 53.4674 61.8897 53.4674Z" fill="#333333"/>
<path d="M73.9293 53.4674C73.054 53.4674 72.238 53.3301 71.4815 53.0555C70.7358 52.7703 70.0874 52.369 69.5362 51.8515C68.9851 51.334 68.5528 50.7268 68.2394 50.0297C67.9368 49.3327 67.7855 48.567 67.7855 47.7327C67.7855 46.8984 67.9368 46.1327 68.2394 45.4357C68.5528 44.7386 68.9851 44.1314 69.5362 43.6139C70.0982 43.0964 70.752 42.7004 71.4977 42.4258C72.2434 42.1406 73.0594 41.998 73.9455 41.998C74.929 41.998 75.8152 42.167 76.6041 42.505C77.4038 42.8324 78.0739 43.3182 78.6142 43.9624L76.9283 45.4832C76.5393 45.0502 76.107 44.7281 75.6315 44.5169C75.1559 44.2951 74.6372 44.1842 74.0752 44.1842C73.5457 44.1842 73.0594 44.2687 72.6163 44.4377C72.1732 44.6066 71.7895 44.8495 71.4653 45.1664C71.1411 45.4832 70.8871 45.8581 70.7034 46.2911C70.5305 46.7241 70.444 47.2046 70.444 47.7327C70.444 48.2608 70.5305 48.7413 70.7034 49.1743C70.8871 49.6073 71.1411 49.9822 71.4653 50.299C71.7895 50.6159 72.1732 50.8588 72.6163 51.0278C73.0594 51.1967 73.5457 51.2812 74.0752 51.2812C74.6372 51.2812 75.1559 51.1756 75.6315 50.9644C76.107 50.7426 76.5393 50.4099 76.9283 49.9664L78.6142 51.4872C78.0739 52.1314 77.4038 52.6225 76.6041 52.9604C75.8152 53.2984 74.9236 53.4674 73.9293 53.4674Z" fill="#333333"/>
<path d="M85.6619 53.4674C84.7649 53.4674 83.9327 53.3248 83.1654 53.0396C82.4089 52.7545 81.7497 52.3532 81.1877 51.8357C80.6365 51.3182 80.2042 50.7109 79.8908 50.0139C79.5882 49.3169 79.4369 48.5565 79.4369 47.7327C79.4369 46.9089 79.5882 46.1485 79.8908 45.4515C80.2042 44.7545 80.6419 44.1472 81.2039 43.6297C81.7659 43.1122 82.4251 42.7109 83.1816 42.4258C83.9381 42.1406 84.7595 41.998 85.6456 41.998C86.5426 41.998 87.364 42.1406 88.1097 42.4258C88.8662 42.7109 89.52 43.1122 90.0712 43.6297C90.6332 44.1472 91.0708 44.7545 91.3843 45.4515C91.6977 46.138 91.8544 46.8984 91.8544 47.7327C91.8544 48.5565 91.6977 49.3221 91.3843 50.0297C91.0708 50.7268 90.6332 51.334 90.0712 51.8515C89.52 52.3584 88.8662 52.7545 88.1097 53.0396C87.364 53.3248 86.548 53.4674 85.6619 53.4674ZM85.6456 51.2812C86.1536 51.2812 86.6183 51.1967 87.0398 51.0278C87.4721 50.8588 87.8503 50.6159 88.1745 50.299C88.4987 49.9822 88.7473 49.6073 88.9202 49.1743C89.1039 48.7413 89.1958 48.2608 89.1958 47.7327C89.1958 47.2046 89.1039 46.7241 88.9202 46.2911C88.7473 45.8581 88.4987 45.4832 88.1745 45.1664C87.8611 44.8495 87.4883 44.6066 87.056 44.4377C86.6237 44.2687 86.1536 44.1842 85.6456 44.1842C85.1377 44.1842 84.6676 44.2687 84.2353 44.4377C83.8138 44.6066 83.441 44.8495 83.1168 45.1664C82.7926 45.4832 82.5386 45.8581 82.3549 46.2911C82.182 46.7241 82.0955 47.2046 82.0955 47.7327C82.0955 48.2502 82.182 48.7307 82.3549 49.1743C82.5386 49.6073 82.7872 49.9822 83.1006 50.299C83.4248 50.6159 83.803 50.8588 84.2353 51.0278C84.6676 51.1967 85.1377 51.2812 85.6456 51.2812Z" fill="#333333"/>
<path d="M98.8696 53.4674C97.2593 53.4674 96.0003 53.0291 95.0925 52.1525C94.1847 51.2759 93.7308 50.0245 93.7308 48.398V42.1881H96.3569V48.303C96.3569 49.3591 96.5784 50.1195 97.0215 50.5842C97.4646 51.0489 98.086 51.2812 98.8858 51.2812C99.6855 51.2812 100.307 51.0489 100.75 50.5842C101.193 50.1195 101.415 49.3591 101.415 48.303V42.1881H104.008V48.398C104.008 50.0245 103.554 51.2759 102.647 52.1525C101.739 53.0291 100.48 53.4674 98.8696 53.4674Z" fill="#333333"/>
<path d="M106.603 53.2773V42.1881H108.776L115.471 50.1723H114.417V42.1881H117.011V53.2773H114.855L108.143 45.2931H109.197V53.2773H106.603Z" fill="#333333"/>
<path d="M122.046 53.2773V44.2792H118.415V42.1881H128.303V44.2792H124.672V53.2773H122.046Z" fill="#333333"/>
<path fill-rule="evenodd" clip-rule="evenodd" d="M64.6387 110.833H50.8899L58.6809 103.169C62.7222 99.2514 63.5138 96.5819 63.5138 93.6542C63.5138 88.3153 59.4308 85 53.098 85C48.3068 85 44.2654 86.8514 42.0156 89.9944L45.807 93.0083C47.4318 90.8556 49.8066 89.8653 52.6397 89.8653C56.2228 89.8653 58.0559 91.4583 58.0559 94.2139C58.0559 95.8931 57.556 97.6583 54.7229 100.457L43.1405 111.824V115.569H64.6387V110.833ZM67.6427 100.5C67.6427 110.403 72.8922 116 79.8083 116C86.7661 116 92.0156 110.403 92.0156 100.5C92.0156 90.5972 86.7661 85 79.8083 85C72.8922 85 67.6427 90.5972 67.6427 100.5ZM86.5578 100.5C86.5578 107.776 83.808 111.135 79.8083 111.135C75.8503 111.135 73.1006 107.776 73.1006 100.5C73.1006 93.2236 75.8503 89.8653 79.8083 89.8653C83.808 89.8653 86.5578 93.2236 86.5578 100.5ZM120.533 85.9247L99.7253 115.702H103.991L124.799 85.9247H120.533ZM98.4629 100.941C99.5657 101.622 100.828 101.962 102.25 101.962C103.73 101.962 105.007 101.622 106.081 100.941C107.184 100.261 108.04 99.3105 108.649 98.091C109.259 96.8716 109.563 95.4394 109.563 93.7946C109.563 92.1497 109.259 90.7175 108.649 89.4981C108.04 88.2786 107.184 87.3285 106.081 86.6479C105.007 85.9673 103.73 85.627 102.25 85.627C100.828 85.627 99.5657 85.9673 98.4629 86.6479C97.3602 87.3285 96.504 88.2786 95.8946 89.4981C95.2852 90.7175 94.9805 92.1497 94.9805 93.7946C94.9805 95.4394 95.2852 96.8716 95.8946 98.091C96.504 99.3105 97.3602 100.261 98.4629 100.941ZM104.993 97.6657C104.354 98.5448 103.454 98.9844 102.294 98.9844C101.133 98.9844 100.204 98.5306 99.5077 97.6231C98.8402 96.7156 98.5065 95.4394 98.5065 93.7946C98.5065 92.1497 98.8402 90.8735 99.5077 89.966C100.204 89.0585 101.133 88.6047 102.294 88.6047C103.454 88.6047 104.354 89.0585 104.993 89.966C105.66 90.8451 105.994 92.1213 105.994 93.7946C105.994 95.4678 105.66 96.7581 104.993 97.6657ZM118.444 114.979C119.546 115.66 120.809 116 122.231 116C123.711 116 124.988 115.66 126.062 114.979C127.164 114.299 128.02 113.349 128.63 112.129C129.239 110.91 129.544 109.477 129.544 107.833C129.544 106.188 129.239 104.756 128.63 103.536C128.02 102.317 127.164 101.367 126.062 100.686C124.988 100.005 123.711 99.665 122.231 99.665C120.809 99.665 119.546 100.005 118.444 100.686C117.341 101.367 116.485 102.317 115.875 103.536C115.266 104.756 114.961 106.188 114.961 107.833C114.961 109.477 115.266 110.91 115.875 112.129C116.485 113.349 117.341 114.299 118.444 114.979ZM124.973 111.661C124.306 112.569 123.392 113.022 122.231 113.022C121.099 113.022 120.185 112.583 119.488 111.704C118.821 110.796 118.487 109.506 118.487 107.833C118.487 106.159 118.821 104.883 119.488 104.004C120.185 103.097 121.099 102.643 122.231 102.643C123.392 102.643 124.306 103.097 124.973 104.004C125.641 104.912 125.974 106.188 125.974 107.833C125.974 109.477 125.641 110.754 124.973 111.661Z" fill="#333333"/>
</svg>
