<svg width="172" height="174" viewBox="0 0 172 174" fill="none" xmlns="http://www.w3.org/2000/svg">
<path d="M166.561 65.0752L77.8232 4.39405C74.1839 1.90692 69.1666 2.79009 66.6459 6.36633L3.82519 95.5505C0.635731 100.077 1.8029 106.275 6.43107 109.396L94.4392 168.778C100.551 172.905 108.956 171.162 112.834 164.968L168.798 75.5584C171.003 72.0337 170.022 67.4436 166.561 65.0752Z" stroke="#DF5FFF" stroke-width="4" stroke-miterlimit="10"/>
<path d="M159.673 56.8255L139.369 122.98L134.802 137.875L128.439 158.604C127.608 161.313 124.654 162.822 121.902 161.942L120.099 161.368L116.139 160.101L48.0296 138.354L34.4855 134.029L21.3791 129.843C17.3305 128.548 14.7976 124.81 14.9435 120.841C14.9719 120.025 15.1177 119.206 15.3812 118.39L15.9323 116.699L33.2251 63.7443L39.3285 45.0552L46.9354 21.7601C47.7986 19.1106 50.7003 17.6492 53.4116 18.4928L119.92 39.2334L153.302 49.6413L156.305 50.5799C158.984 51.4156 160.484 54.1918 159.673 56.8255Z" fill="white" stroke="#333333" stroke-width="3.39295" stroke-miterlimit="10"/>
<path d="M157.725 51.071C146.378 63.7443 147.593 63.7443 141.109 63.7443H32.9023L38.9814 45.1304C45.5305 43.3007 59.7149 41.9621 74.2397 41.9621C92.3836 41.9621 109.664 40.4611 123.974 39.2334L157.725 51.071Z" fill="#333333"/>
<path d="M15.9342 116.699L48.0314 138.355L34.4874 134.03L14.9453 120.842C14.9737 120.026 15.1196 119.206 15.383 118.39L15.9342 116.699Z" fill="#333333"/>
<path d="M139.371 122.98L134.803 137.876L120.1 161.369L116.141 160.101L139.371 122.98Z" fill="#333333"/>
<path d="M16.6033 77.4082L3.82519 95.5508C0.635731 100.078 1.8029 106.276 6.43107 109.396L94.4392 168.779C100.551 172.905 108.956 171.163 112.834 164.969L149.483 106.422" stroke="#DF5FFF" stroke-width="4" stroke-miterlimit="10"/>
<path d="M31.2847 70.4772C31.2847 70.4772 27.6859 67.0712 24.0871 64.0574C20.4884 61.0435 22.0324 54.5168 22.0324 36.9405C22.0324 31.9188 22.5471 32.4217 54.4053 32.4217H159.808C173.615 32.4217 169.044 34.7069 156.683 47.1227C144.326 59.5386 143.832 60.9683 138.685 60.9683C133.538 60.9683 46.8146 60.9683 34.1216 60.9683L31.2847 70.4732V70.4772Z" fill="#DF5FFF"/>
<path d="M29.259 63.7449C29.259 63.7449 26.4221 60.9727 28.4485 60.9727H38.3248" stroke="#333333" stroke-width="2.03577" stroke-miterlimit="10"/>
<path d="M31.0821 70.6752C31.0821 70.6752 27.6859 67.0712 24.0871 64.0574C20.4884 61.0435 22.0324 54.5168 22.0324 36.9405C22.0324 31.9188 22.5471 32.4217 54.4053 32.4217H159.808C173.615 32.4217 169.044 34.7069 156.683 47.1227C144.326 59.5386 143.832 60.9683 138.685 60.9683H33.919L31.0821 70.6712V70.6752Z" stroke="#333333" stroke-width="2.71436" stroke-miterlimit="10"/>
<path d="M26.0156 37.6061C27.6367 36.022 26.8262 36.418 67.353 36.418" stroke="white" stroke-width="2.03577" stroke-miterlimit="10"/>
<path d="M79.1172 36.374H97.0422" stroke="white" stroke-width="2.03577" stroke-miterlimit="10"/>
<path d="M108.297 36.374H117.221" stroke="white" stroke-width="2.03577" stroke-miterlimit="10"/>
<path d="M126.297 36.374H157.118" stroke="white" stroke-width="2.03577" stroke-miterlimit="10"/>
<path d="M21.8867 59.0518C22.7743 63.3488 26.8269 64.9329 28.448 65.725C30.0691 66.5171 32.14 65.725 31.5078 63.7448C30.8756 61.7646 28.8533 61.3686 28.448 62.9527C28.448 62.9527 26.7216 60.9686 28.598 60.9725C30.4744 60.9765 34.1218 60.9725 34.1218 60.9725L31.0823 70.6755C31.0823 70.6755 25.8016 65.9864 23.8847 63.8755C21.9678 61.7646 21.8867 59.0518 21.8867 59.0518Z" fill="#333333"/>
<path d="M39.4414 53.2773V42.1881H44.5964C45.8284 42.1881 46.9146 42.4205 47.8548 42.8852C48.795 43.3393 49.5299 43.9782 50.0594 44.802C50.589 45.6258 50.8538 46.6027 50.8538 47.7327C50.8538 48.8522 50.589 49.8291 50.0594 50.6634C49.5299 51.4872 48.795 52.1314 47.8548 52.5961C46.9146 53.0502 45.8284 53.2773 44.5964 53.2773H39.4414ZM42.0675 51.1703H44.4667C45.2232 51.1703 45.8771 51.033 46.4282 50.7584C46.9902 50.4733 47.4225 50.072 47.7251 49.5545C48.0385 49.037 48.1952 48.4297 48.1952 47.7327C48.1952 47.0251 48.0385 46.4178 47.7251 45.9109C47.4225 45.3934 46.9902 44.9974 46.4282 44.7228C45.8771 44.4377 45.2232 44.2951 44.4667 44.2951H42.0675V51.1703Z" fill="#333333"/>
<path d="M52.8343 53.2773V42.1881H55.4604V53.2773H52.8343Z" fill="#333333"/>
<path d="M61.8819 53.4674C60.9741 53.4674 60.1041 53.3512 59.272 53.1188C58.4398 52.8759 57.7698 52.5644 57.2618 52.1842L58.1534 50.2515C58.6397 50.5895 59.2125 50.8693 59.8718 51.0911C60.5418 51.3023 61.2172 51.4079 61.8981 51.4079C62.4168 51.4079 62.8329 51.3604 63.1463 51.2654C63.4705 51.1598 63.7083 51.0172 63.8596 50.8377C64.0109 50.6581 64.0865 50.4522 64.0865 50.2198C64.0865 49.9241 63.9677 49.6918 63.7299 49.5228C63.4921 49.3433 63.1787 49.2007 62.7897 49.0951C62.4006 48.9789 61.9683 48.8733 61.4928 48.7782C61.0281 48.6726 60.558 48.5459 60.0825 48.398C59.6178 48.2502 59.1909 48.0601 58.8018 47.8278C58.4128 47.5954 58.094 47.2891 57.8454 46.9089C57.6077 46.5287 57.4888 46.0429 57.4888 45.4515C57.4888 44.8178 57.6617 44.2423 58.0075 43.7248C58.3642 43.1967 58.8937 42.7796 59.5962 42.4733C60.3094 42.1565 61.201 41.998 62.2709 41.998C62.9842 41.998 63.6867 42.0825 64.3783 42.2515C65.07 42.4099 65.6806 42.6528 66.2102 42.9802L65.3996 44.9287C64.8701 44.633 64.3405 44.4165 63.811 44.2792C63.2814 44.1314 62.7627 44.0575 62.2547 44.0575C61.7468 44.0575 61.3307 44.1155 61.0065 44.2317C60.6823 44.3479 60.4499 44.501 60.3094 44.6911C60.1689 44.8707 60.0987 45.0819 60.0987 45.3248C60.0987 45.6099 60.2176 45.8423 60.4553 46.0218C60.6931 46.1908 61.0065 46.3281 61.3956 46.4337C61.7846 46.5393 62.2115 46.6449 62.6762 46.7505C63.1517 46.8561 63.6218 46.9776 64.0865 47.1149C64.5621 47.2522 64.9943 47.437 65.3834 47.6693C65.7725 47.9017 66.0859 48.2079 66.3236 48.5881C66.5722 48.9683 66.6965 49.4489 66.6965 50.0297C66.6965 50.6528 66.5182 51.2231 66.1615 51.7406C65.8049 52.2581 65.2699 52.6753 64.5567 52.9921C63.8542 53.3089 62.9626 53.4674 61.8819 53.4674Z" fill="#333333"/>
<path d="M73.9215 53.4674C73.0461 53.4674 72.2302 53.3301 71.4737 53.0555C70.728 52.7703 70.0796 52.369 69.5284 51.8515C68.9772 51.334 68.545 50.7268 68.2316 50.0297C67.929 49.3327 67.7777 48.567 67.7777 47.7327C67.7777 46.8984 67.929 46.1327 68.2316 45.4357C68.545 44.7386 68.9772 44.1314 69.5284 43.6139C70.0904 43.0964 70.7442 42.7004 71.4899 42.4258C72.2356 42.1406 73.0515 41.998 73.9377 41.998C74.9212 41.998 75.8074 42.167 76.5963 42.505C77.396 42.8324 78.0661 43.3182 78.6064 43.9624L76.9205 45.4832C76.5315 45.0502 76.0992 44.7281 75.6236 44.5169C75.1481 44.2951 74.6294 44.1842 74.0674 44.1842C73.5379 44.1842 73.0515 44.2687 72.6085 44.4377C72.1654 44.6066 71.7817 44.8495 71.4575 45.1664C71.1333 45.4832 70.8793 45.8581 70.6956 46.2911C70.5227 46.7241 70.4362 47.2046 70.4362 47.7327C70.4362 48.2608 70.5227 48.7413 70.6956 49.1743C70.8793 49.6073 71.1333 49.9822 71.4575 50.299C71.7817 50.6159 72.1654 50.8588 72.6085 51.0278C73.0515 51.1967 73.5379 51.2812 74.0674 51.2812C74.6294 51.2812 75.1481 51.1756 75.6236 50.9644C76.0992 50.7426 76.5315 50.4099 76.9205 49.9664L78.6064 51.4872C78.0661 52.1314 77.396 52.6225 76.5963 52.9604C75.8074 53.2984 74.9158 53.4674 73.9215 53.4674Z" fill="#333333"/>
<path d="M85.654 53.4674C84.757 53.4674 83.9249 53.3248 83.1576 53.0396C82.4011 52.7545 81.7419 52.3532 81.1799 51.8357C80.6287 51.3182 80.1964 50.7109 79.883 50.0139C79.5804 49.3169 79.4291 48.5565 79.4291 47.7327C79.4291 46.9089 79.5804 46.1485 79.883 45.4515C80.1964 44.7545 80.6341 44.1472 81.1961 43.6297C81.7581 43.1122 82.4173 42.7109 83.1738 42.4258C83.9303 42.1406 84.7516 41.998 85.6378 41.998C86.5348 41.998 87.3562 42.1406 88.1019 42.4258C88.8584 42.7109 89.5122 43.1122 90.0634 43.6297C90.6253 44.1472 91.063 44.7545 91.3764 45.4515C91.6898 46.138 91.8465 46.8984 91.8465 47.7327C91.8465 48.5565 91.6898 49.3221 91.3764 50.0297C91.063 50.7268 90.6253 51.334 90.0634 51.8515C89.5122 52.3584 88.8584 52.7545 88.1019 53.0396C87.3562 53.3248 86.5402 53.4674 85.654 53.4674ZM85.6378 51.2812C86.1458 51.2812 86.6105 51.1967 87.032 51.0278C87.4642 50.8588 87.8425 50.6159 88.1667 50.299C88.4909 49.9822 88.7395 49.6073 88.9124 49.1743C89.0961 48.7413 89.188 48.2608 89.188 47.7327C89.188 47.2046 89.0961 46.7241 88.9124 46.2911C88.7395 45.8581 88.4909 45.4832 88.1667 45.1664C87.8533 44.8495 87.4805 44.6066 87.0482 44.4377C86.6159 44.2687 86.1458 44.1842 85.6378 44.1842C85.1299 44.1842 84.6598 44.2687 84.2275 44.4377C83.806 44.6066 83.4332 44.8495 83.109 45.1664C82.7847 45.4832 82.5308 45.8581 82.3471 46.2911C82.1741 46.7241 82.0877 47.2046 82.0877 47.7327C82.0877 48.2502 82.1741 48.7307 82.3471 49.1743C82.5308 49.6073 82.7793 49.9822 83.0927 50.299C83.417 50.6159 83.7952 50.8588 84.2275 51.0278C84.6598 51.1967 85.1299 51.2812 85.6378 51.2812Z" fill="#333333"/>
<path d="M98.8617 53.4674C97.2515 53.4674 95.9924 53.0291 95.0846 52.1525C94.1768 51.2759 93.7229 50.0245 93.7229 48.398V42.1881H96.3491V48.303C96.3491 49.3591 96.5706 50.1195 97.0137 50.5842C97.4568 51.0489 98.0782 51.2812 98.878 51.2812C99.6777 51.2812 100.299 51.0489 100.742 50.5842C101.185 50.1195 101.407 49.3591 101.407 48.303V42.1881H104.001V48.398C104.001 50.0245 103.547 51.2759 102.639 52.1525C101.731 53.0291 100.472 53.4674 98.8617 53.4674Z" fill="#333333"/>
<path d="M106.596 53.2773V42.1881H108.768L115.463 50.1723H114.409V42.1881H117.003V53.2773H114.847L108.136 45.2931H109.189V53.2773H106.596Z" fill="#333333"/>
<path d="M122.038 53.2773V44.2792H118.407V42.1881H128.296V44.2792H124.664V53.2773H122.038Z" fill="#333333"/>
<path d="M54.9914 115.568V87.4644L57.4975 90.0153H48.4844V85.3026H60.7071V115.568H54.9914Z" fill="#333333"/>
<path d="M77.0124 116C74.8434 116 72.7184 115.697 70.6373 115.092C68.5855 114.458 66.8562 113.593 65.4493 112.498L67.8674 108.131C68.9812 109.025 70.3295 109.745 71.9123 110.293C73.5244 110.841 75.1952 111.114 76.9245 111.114C78.947 111.114 80.5298 110.696 81.6729 109.861C82.8453 109.025 83.4316 107.901 83.4316 106.488C83.4316 105.537 83.1824 104.701 82.6841 103.98C82.2152 103.26 81.3651 102.712 80.1341 102.338C78.9323 101.963 77.2762 101.775 75.1659 101.775H67.7355L69.3183 85.3026H87.3885V90.0153H71.4287L74.4184 87.3347L73.2313 99.6569L70.2416 97.0195H76.4409C79.4892 97.0195 81.9367 97.4231 83.7833 98.2301C85.6592 99.0084 87.0222 100.104 87.8722 101.516C88.7515 102.9 89.1912 104.485 89.1912 106.272C89.1912 108.03 88.7515 109.644 87.8722 111.114C86.9928 112.584 85.6445 113.766 83.8273 114.66C82.0393 115.553 79.7677 116 77.0124 116Z" fill="#333333"/>
<path d="M96.3673 115.568L117.383 85.3026H121.692L100.676 115.568H96.3673ZM98.9174 101.603C97.4811 101.603 96.2061 101.257 95.0923 100.565C93.9785 99.8731 93.1138 98.9075 92.4983 97.6681C91.8827 96.4286 91.575 94.973 91.575 93.3013C91.575 91.6295 91.8827 90.1739 92.4983 88.9344C93.1138 87.695 93.9785 86.7294 95.0923 86.0377C96.2061 85.3459 97.4811 85 98.9174 85C100.412 85 101.702 85.3459 102.786 86.0377C103.9 86.7294 104.765 87.695 105.38 88.9344C105.996 90.1739 106.304 91.6295 106.304 93.3013C106.304 94.973 105.996 96.4286 105.38 97.6681C104.765 98.9075 103.9 99.8731 102.786 100.565C101.702 101.257 100.412 101.603 98.9174 101.603ZM98.9613 98.576C100.134 98.576 101.042 98.1292 101.687 97.2357C102.361 96.3133 102.699 95.0019 102.699 93.3013C102.699 91.6007 102.361 90.3036 101.687 89.41C101.042 88.4877 100.134 88.0265 98.9613 88.0265C97.7889 88.0265 96.851 88.4877 96.1475 89.41C95.4733 90.3324 95.1363 91.6295 95.1363 93.3013C95.1363 94.973 95.4733 96.2701 96.1475 97.1925C96.851 98.1148 97.7889 98.576 98.9613 98.576ZM119.098 115.87C117.662 115.87 116.387 115.524 115.273 114.833C114.159 114.141 113.294 113.175 112.679 111.936C112.063 110.696 111.756 109.241 111.756 107.569C111.756 105.897 112.063 104.442 112.679 103.202C113.294 101.963 114.159 100.997 115.273 100.305C116.387 99.6137 117.662 99.2678 119.098 99.2678C120.593 99.2678 121.883 99.6137 122.967 100.305C124.081 100.997 124.946 101.963 125.561 103.202C126.177 104.442 126.484 105.897 126.484 107.569C126.484 109.241 126.177 110.696 125.561 111.936C124.946 113.175 124.081 114.141 122.967 114.833C121.883 115.524 120.593 115.87 119.098 115.87ZM119.098 112.844C120.27 112.844 121.194 112.383 121.868 111.46C122.542 110.538 122.879 109.241 122.879 107.569C122.879 105.897 122.542 104.6 121.868 103.678C121.194 102.755 120.27 102.294 119.098 102.294C117.955 102.294 117.032 102.755 116.328 103.678C115.654 104.571 115.317 105.868 115.317 107.569C115.317 109.27 115.654 110.581 116.328 111.503C117.032 112.397 117.955 112.844 119.098 112.844Z" fill="#333333"/>
</svg>
