<svg width="288" height="288" viewBox="0 0 288 288" fill="none" xmlns="http://www.w3.org/2000/svg">
<path d="M278.892 107.288L130.308 5.68219C124.215 1.5177 115.814 2.99649 111.593 8.98461L6.40488 158.316C1.06439 165.896 3.01872 176.274 10.7682 181.499L158.131 280.93C168.364 287.84 182.438 284.922 188.932 274.551L282.638 124.841C286.33 118.939 284.687 111.253 278.892 107.288Z" stroke="#3D9BE9" stroke-width="6.61453" stroke-miterlimit="10"/>
<path d="M267.359 93.4751L233.362 204.245L225.714 229.186L215.061 263.894C213.67 268.43 208.723 270.957 204.115 269.485L201.095 268.523L194.465 266.401L80.4217 229.988L57.7433 222.747L35.7977 215.737C29.0186 213.569 24.7774 207.309 25.0217 200.664C25.0692 199.298 25.3135 197.926 25.7546 196.56L26.6775 193.728L55.6329 105.06L65.8524 73.7667L78.5896 34.761C80.035 30.3246 84.8937 27.8777 89.4334 29.2901L200.797 64.0186L256.692 81.4458L261.72 83.0174C266.206 84.4166 268.717 89.0652 267.359 93.4751Z" fill="white" stroke="#333333" stroke-width="3.30727" stroke-miterlimit="10"/>
<path d="M264.099 83.8403C245.099 105.061 247.134 105.061 236.277 105.061H55.0938L65.2726 73.8933C76.2386 70.8296 99.9892 68.5882 124.31 68.5882C154.69 68.5882 183.625 66.0749 207.586 64.0192L264.099 83.8403Z" fill="#333333"/>
<path d="M26.6792 193.728L80.4235 229.988L57.745 222.747L25.0234 200.664C25.0709 199.298 25.3152 197.925 25.7563 196.559L26.6792 193.728Z" fill="#333333"/>
<path d="M233.365 204.245L225.718 229.186L201.099 268.523L194.469 266.401L233.365 204.245Z" fill="#333333"/>
<path d="M27.8008 127.938L6.40488 158.316C1.06439 165.896 3.01872 176.274 10.7682 181.499L158.131 280.93C168.364 287.84 182.438 284.922 188.932 274.551L250.297 176.519" stroke="#3D9BE9" stroke-width="6.61453" stroke-miterlimit="10"/>
<path d="M52.3834 116.334C52.3834 116.334 46.3576 110.631 40.3317 105.584C34.3058 100.538 36.8913 89.6092 36.8913 60.1792C36.8913 51.7706 37.7531 52.6128 91.097 52.6128H267.584C290.704 52.6128 283.049 56.4391 262.352 77.2284C241.662 98.0177 240.834 100.412 232.216 100.412C223.598 100.412 78.387 100.412 57.1336 100.412L52.3834 116.327V116.334Z" fill="#3D9BE9"/>
<path d="M48.9931 105.06C48.9931 105.06 44.243 100.418 47.6359 100.418H64.1731" stroke="#333333" stroke-width="1.98436" stroke-miterlimit="10"/>
<path d="M52.0441 116.665C52.0441 116.665 46.3576 110.631 40.3317 105.584C34.3058 100.538 36.8913 89.6092 36.8913 60.1792C36.8913 51.7706 37.7531 52.6128 91.097 52.6128H267.584C290.704 52.6128 283.049 56.4391 262.352 77.2284C241.662 98.0177 240.834 100.412 232.216 100.412H56.7943L52.0441 116.659V116.665Z" stroke="#333333" stroke-width="2.64581" stroke-miterlimit="10"/>
<path d="M43.5586 61.2942C46.273 58.6416 44.9158 59.3048 112.775 59.3048" stroke="white" stroke-width="1.98436" stroke-miterlimit="10"/>
<path d="M132.473 59.2311H162.487" stroke="white" stroke-width="1.98436" stroke-miterlimit="10"/>
<path d="M181.336 59.2311H196.278" stroke="white" stroke-width="1.98436" stroke-miterlimit="10"/>
<path d="M211.477 59.2311H263.083" stroke="white" stroke-width="1.98436" stroke-miterlimit="10"/>
<path d="M36.6445 97.2023C38.1306 104.397 44.9165 107.05 47.6309 108.376C50.3452 109.702 53.8128 108.376 52.7542 105.06C51.6956 101.745 48.3095 101.082 47.6309 103.734C47.6309 103.734 44.7401 100.412 47.882 100.418C51.0238 100.425 57.1311 100.418 57.1311 100.418L52.0417 116.665C52.0417 116.665 43.1997 108.814 39.99 105.279C36.7802 101.745 36.6445 97.2023 36.6445 97.2023Z" fill="#333333"/>
<path d="M66.0391 87.5332V68.9654H74.6707C76.7336 68.9654 78.5522 69.3544 80.1266 70.1325C81.7009 70.8929 82.9314 71.9628 83.8181 73.3421C84.7048 74.7214 85.1481 76.3572 85.1481 78.2493C85.1481 80.1238 84.7048 81.7595 83.8181 83.1565C82.9314 84.5358 81.7009 85.6145 80.1266 86.3926C78.5522 87.153 76.7336 87.5332 74.6707 87.5332H66.0391ZM70.4363 84.0053H74.4536C75.7203 84.0053 76.8151 83.7754 77.7379 83.3157C78.6789 82.8382 79.4027 82.1662 79.9094 81.2997C80.4342 80.4332 80.6966 79.4164 80.6966 78.2493C80.6966 77.0645 80.4342 76.0477 79.9094 75.1989C79.4027 74.3324 78.6789 73.6692 77.7379 73.2095C76.8151 72.732 75.7203 72.4933 74.4536 72.4933H70.4363V84.0053Z" fill="#333333"/>
<path d="M88.4643 87.5332V68.9654H92.8616V87.5332H88.4643Z" fill="#333333"/>
<path d="M103.614 87.8515C102.094 87.8515 100.637 87.657 99.2437 87.268C97.8503 86.8612 96.7284 86.3396 95.8779 85.703L97.3708 82.4669C98.1851 83.0327 99.1442 83.5013 100.248 83.8727C101.37 84.2264 102.501 84.4032 103.641 84.4032C104.51 84.4032 105.206 84.3236 105.731 84.1645C106.274 83.9876 106.672 83.7489 106.925 83.4483C107.179 83.1477 107.305 82.8028 107.305 82.4138C107.305 81.9187 107.106 81.5296 106.708 81.2467C106.31 80.9461 105.785 80.7073 105.134 80.5305C104.482 80.336 103.759 80.1591 102.962 80C102.184 79.8231 101.397 79.6109 100.601 79.3634C99.8228 79.1158 99.108 78.7975 98.4565 78.4085C97.8051 78.0194 97.2713 77.5066 96.8551 76.87C96.457 76.2334 96.2579 75.4199 96.2579 74.4296C96.2579 73.3686 96.5474 72.4049 97.1265 71.5384C97.7237 70.6542 98.6104 69.9557 99.7866 69.4429C100.981 68.9123 102.474 68.6471 104.265 68.6471C105.46 68.6471 106.636 68.7886 107.794 69.0715C108.952 69.3368 109.974 69.7435 110.861 70.2917L109.504 73.5543C108.617 73.0592 107.731 72.6966 106.844 72.4668C105.957 72.2192 105.089 72.0954 104.238 72.0954C103.388 72.0954 102.691 72.1927 102.148 72.3872C101.605 72.5817 101.216 72.8381 100.981 73.1564C100.746 73.457 100.628 73.8107 100.628 74.2174C100.628 74.6949 100.827 75.0839 101.225 75.3846C101.623 75.6675 102.148 75.8974 102.8 76.0742C103.451 76.2511 104.166 76.4279 104.944 76.6047C105.74 76.7816 106.527 76.9849 107.305 77.2148C108.102 77.4447 108.825 77.7542 109.477 78.1432C110.128 78.5322 110.653 79.0451 111.051 79.6817C111.467 80.3183 111.675 81.1229 111.675 82.0955C111.675 83.1388 111.377 84.0937 110.78 84.9602C110.183 85.8267 109.287 86.5252 108.093 87.0558C106.916 87.5863 105.423 87.8515 103.614 87.8515Z" fill="#333333"/>
<path d="M123.773 87.8515C122.307 87.8515 120.941 87.6216 119.675 87.1619C118.426 86.6844 117.34 86.0124 116.417 85.1459C115.494 84.2794 114.771 83.2626 114.246 82.0955C113.739 80.9284 113.486 79.6463 113.486 78.2493C113.486 76.8523 113.739 75.5702 114.246 74.4031C114.771 73.236 115.494 72.2192 116.417 71.3527C117.358 70.4862 118.453 69.8231 119.702 69.3633C120.95 68.8858 122.317 68.6471 123.8 68.6471C125.447 68.6471 126.931 68.93 128.252 69.4959C129.591 70.0441 130.713 70.8575 131.618 71.9363L128.795 74.4827C128.143 73.7577 127.419 73.2183 126.623 72.8646C125.827 72.4933 124.958 72.3076 124.018 72.3076C123.131 72.3076 122.317 72.4491 121.575 72.732C120.833 73.015 120.19 73.4217 119.647 73.9522C119.105 74.4827 118.679 75.1105 118.372 75.8355C118.082 76.5605 117.937 77.3651 117.937 78.2493C117.937 79.1335 118.082 79.9381 118.372 80.6631C118.679 81.3882 119.105 82.0159 119.647 82.5464C120.19 83.0769 120.833 83.4837 121.575 83.7666C122.317 84.0495 123.131 84.191 124.018 84.191C124.958 84.191 125.827 84.0142 126.623 83.6605C127.419 83.2891 128.143 82.7321 128.795 81.9894L131.618 84.5358C130.713 85.6145 129.591 86.4368 128.252 87.0027C126.931 87.5686 125.438 87.8515 123.773 87.8515Z" fill="#333333"/>
<path d="M143.418 87.8515C141.916 87.8515 140.523 87.6128 139.238 87.1353C137.972 86.6579 136.868 85.9859 135.927 85.1194C135.004 84.2529 134.28 83.2361 133.755 82.069C133.249 80.9018 132.995 79.6286 132.995 78.2493C132.995 76.87 133.249 75.5968 133.755 74.4296C134.28 73.2625 135.013 72.2457 135.954 71.3792C136.895 70.5127 137.999 69.8407 139.265 69.3633C140.532 68.8858 141.907 68.6471 143.391 68.6471C144.893 68.6471 146.268 68.8858 147.517 69.3633C148.784 69.8407 149.879 70.5127 150.801 71.3792C151.742 72.2457 152.475 73.2625 153 74.4296C153.525 75.5791 153.787 76.8523 153.787 78.2493C153.787 79.6286 153.525 80.9107 153 82.0955C152.475 83.2626 151.742 84.2794 150.801 85.1459C149.879 85.9947 148.784 86.6579 147.517 87.1353C146.268 87.6128 144.902 87.8515 143.418 87.8515ZM143.391 84.191C144.242 84.191 145.02 84.0495 145.726 83.7666C146.449 83.4837 147.083 83.0769 147.626 82.5464C148.168 82.0159 148.585 81.3882 148.874 80.6631C149.182 79.9381 149.336 79.1335 149.336 78.2493C149.336 77.3651 149.182 76.5605 148.874 75.8355C148.585 75.1105 148.168 74.4827 147.626 73.9522C147.101 73.4217 146.477 73.015 145.753 72.732C145.029 72.4491 144.242 72.3076 143.391 72.3076C142.541 72.3076 141.754 72.4491 141.03 72.732C140.324 73.015 139.7 73.4217 139.157 73.9522C138.614 74.4827 138.189 75.1105 137.881 75.8355C137.592 76.5605 137.447 77.3651 137.447 78.2493C137.447 79.1158 137.592 79.9204 137.881 80.6631C138.189 81.3882 138.605 82.0159 139.13 82.5464C139.673 83.0769 140.306 83.4837 141.03 83.7666C141.754 84.0495 142.541 84.191 143.391 84.191Z" fill="#333333"/>
<path d="M165.534 87.8515C162.837 87.8515 160.729 87.1176 159.209 85.6499C157.689 84.1822 156.929 82.0867 156.929 79.3634V68.9654H161.326V79.2042C161.326 80.9726 161.697 82.2458 162.439 83.0239C163.181 83.802 164.222 84.191 165.561 84.191C166.9 84.191 167.94 83.802 168.682 83.0239C169.424 82.2458 169.795 80.9726 169.795 79.2042V68.9654H174.138V79.3634C174.138 82.0867 173.378 84.1822 171.858 85.6499C170.338 87.1176 168.23 87.8515 165.534 87.8515Z" fill="#333333"/>
<path d="M178.483 87.5332V68.9654H182.121L193.331 82.3342H191.567V68.9654H195.91V87.5332H192.299L181.062 74.1644H182.826V87.5332H178.483Z" fill="#333333"/>
<path d="M204.341 87.5332V72.4668H198.261V68.9654H214.818V72.4668H208.738V87.5332H204.341Z" fill="#333333"/>
<path d="M117.641 195.724C113.791 195.724 110.019 195.19 106.326 194.123C102.684 193.004 99.6144 191.479 97.1172 189.547L101.487 181.845C103.464 183.421 105.857 184.692 108.667 185.658C111.476 186.624 114.416 187.107 117.485 187.107C121.127 187.107 123.962 186.395 125.991 184.972C128.02 183.497 129.035 181.514 129.035 179.023C129.035 176.583 128.098 174.651 126.225 173.227C124.352 171.804 121.335 171.092 117.173 171.092H112.178V164.305L127.786 146.155L129.113 149.892H99.7705V141.579H136.994V148.214L121.387 166.364L116.08 163.314H119.124C125.835 163.314 130.856 164.788 134.185 167.737C137.567 170.635 139.258 174.371 139.258 178.947C139.258 181.947 138.477 184.717 136.916 187.259C135.356 189.801 132.963 191.86 129.737 193.436C126.563 194.962 122.531 195.724 117.641 195.724Z" fill="#333333"/>
<path d="M152.779 194.962L190.081 141.579H197.729L160.427 194.962H152.779ZM157.305 170.329C154.756 170.329 152.493 169.719 150.516 168.499C148.539 167.279 147.004 165.576 145.912 163.39C144.819 161.204 144.273 158.636 144.273 155.687C144.273 152.739 144.819 150.171 145.912 147.985C147.004 145.799 148.539 144.096 150.516 142.876C152.493 141.655 154.756 141.045 157.305 141.045C159.958 141.045 162.247 141.655 164.172 142.876C166.149 144.096 167.684 145.799 168.777 147.985C169.869 150.171 170.415 152.739 170.415 155.687C170.415 158.636 169.869 161.204 168.777 163.39C167.684 165.576 166.149 167.279 164.172 168.499C162.247 169.719 159.958 170.329 157.305 170.329ZM157.383 164.991C159.464 164.991 161.077 164.203 162.221 162.627C163.418 161 164.016 158.687 164.016 155.687C164.016 152.688 163.418 150.4 162.221 148.824C161.077 147.197 159.464 146.384 157.383 146.384C155.302 146.384 153.637 147.197 152.389 148.824C151.192 150.451 150.594 152.739 150.594 155.687C150.594 158.636 151.192 160.924 152.389 162.551C153.637 164.178 155.302 164.991 157.383 164.991ZM193.124 195.496C190.575 195.496 188.312 194.885 186.335 193.665C184.358 192.445 182.823 190.742 181.731 188.556C180.638 186.37 180.092 183.802 180.092 180.853C180.092 177.905 180.638 175.337 181.731 173.151C182.823 170.965 184.358 169.262 186.335 168.042C188.312 166.822 190.575 166.211 193.124 166.211C195.778 166.211 198.067 166.822 199.992 168.042C201.969 169.262 203.503 170.965 204.596 173.151C205.688 175.337 206.235 177.905 206.235 180.853C206.235 183.802 205.688 186.37 204.596 188.556C203.503 190.742 201.969 192.445 199.992 193.665C198.067 194.885 195.778 195.496 193.124 195.496ZM193.124 190.157C195.205 190.157 196.844 189.344 198.041 187.717C199.237 186.09 199.836 183.802 199.836 180.853C199.836 177.905 199.237 175.617 198.041 173.99C196.844 172.363 195.205 171.55 193.124 171.55C191.095 171.55 189.457 172.363 188.208 173.99C187.011 175.566 186.413 177.854 186.413 180.853C186.413 183.853 187.011 186.166 188.208 187.793C189.457 189.369 191.095 190.157 193.124 190.157Z" fill="#333333"/>
</svg>
