<svg width="48" height="43" viewBox="0 0 48 43" fill="none" xmlns="http://www.w3.org/2000/svg">
<path d="M34.2976 3.54656L4.52734 25.9424L16.8587 42.4419L46.6289 20.0461L34.2976 3.54656Z" fill="white"/>
<path d="M34.2964 3.54664L46.6277 20.0462L16.8575 42.442L4.52615 25.9425L34.2964 3.54664ZM34.3593 3.10498L34.1077 3.29424L4.33751 25.6901L4.08594 25.8793L4.27457 26.1317L16.6059 42.6313L16.7945 42.8837L17.0461 42.6944L46.8163 20.2986L47.0679 20.1093L46.8792 19.8569L34.5479 3.35738L34.3593 3.10498Z" fill="#333333"/>
<path d="M40.4564 13.3935L33.4636 22.6035C33.5041 23.465 33.4145 24.6772 32.8711 25.9934C33.4729 24.5145 33.6197 22.8742 33.2776 21.303L39.6186 13.1403L33.7798 8.56309C34.1367 8.54161 34.493 8.46045 34.8324 8.31787L38.9783 11.4155L40.4564 13.3935Z" fill="#3D9BE9"/>
<path d="M27.3065 30.7119L22.5919 36.9216L20.1771 38.7379C20.1187 38.6295 20.0537 38.5234 19.9805 38.4207L25.8232 30.8994C26.3202 30.8842 26.8167 30.8222 27.3065 30.7119Z" fill="#3D9BE9"/>
<path d="M4.30859 25.9113L34.3302 3.32617L46.8503 20.0781L16.8287 42.6632L4.30859 25.9113ZM16.5021 36.975C17.8349 36.6448 19.228 37.1436 20.0513 38.2456C20.0728 38.2742 20.094 38.3034 20.114 38.333C20.1526 38.3872 20.1908 38.445 20.2279 38.5056L22.5008 36.7959L41.9424 22.1699C41.872 22.0919 41.8052 22.0109 41.7427 21.9278C40.614 20.4168 40.9206 18.2668 42.426 17.1348C42.5615 17.0327 42.7049 16.9406 42.8538 16.8599L36.0135 7.70677C35.8947 7.82743 35.7664 7.93975 35.6306 8.04202C35.4043 8.21272 35.1572 8.35461 34.8964 8.46373C34.7367 8.53086 34.5701 8.58616 34.4016 8.62791C34.2072 8.67609 34.0073 8.70702 33.8073 8.71997L33.7922 8.72104C32.6912 8.7878 31.6371 8.3233 30.9434 7.47285L9.24715 23.7945C9.73284 24.5049 9.93205 25.3576 9.81008 26.2135C9.68114 27.1187 9.20839 27.9193 8.479 28.4678C8.33576 28.5757 8.18381 28.6724 8.0255 28.7561L14.8717 37.9163C14.9954 37.7884 15.1303 37.6692 15.2743 37.5605C15.6441 37.2823 16.0572 37.0853 16.5021 36.975Z" fill="#3D9BE9"/>
<path d="M34.2962 3.54665L46.6276 20.0461L16.8576 42.4419L4.52615 25.9425L30.7676 6.20115L31.3825 5.73877L34.2962 3.54665ZM14.8571 38.1627C15.0061 37.9893 15.1761 37.8296 15.3662 37.6863C15.727 37.4148 16.1255 37.2298 16.5373 37.1278C17.7674 36.823 19.1151 37.2584 19.9229 38.3398C19.9432 38.3666 19.9628 38.3936 19.9811 38.4209C20.0544 38.5237 20.1193 38.6297 20.1778 38.7381L22.5925 36.9218L42.1757 22.1891C42.0657 22.0792 41.962 21.9607 41.8657 21.8324C40.7874 20.3891 41.0791 18.3424 42.5177 17.2606C42.6991 17.124 42.8917 17.0087 43.0896 16.9154L40.4573 13.3934L38.9793 11.4154L36.0242 7.46114C35.8795 7.62569 35.7151 7.77887 35.5336 7.91547C35.3129 8.08194 35.077 8.21579 34.8333 8.31778C34.679 8.38262 34.5212 8.43474 34.3614 8.47434C34.1698 8.52181 33.9753 8.55128 33.7808 8.56299L33.7802 8.56314C32.7245 8.62717 31.6583 8.17453 30.9763 7.26207L30.9702 7.25319L9.02685 23.7607L9.03353 23.7694C10.1124 25.2127 9.82078 27.2593 8.38213 28.3411C8.19198 28.4845 7.99122 28.6031 7.78336 28.6981L14.8571 38.1627ZM34.3591 3.10498L34.1075 3.29426L31.1939 5.48637L30.579 5.9487L4.33751 25.6901L4.08594 25.8793L4.27457 26.1317L16.606 42.6312L16.7947 42.8835L17.0462 42.6943L46.8163 20.2985L47.0678 20.1092L46.8792 19.8568L34.5478 3.35739L34.3591 3.10498ZM9.45708 23.8314L30.9172 7.68741C31.642 8.50368 32.6981 8.94483 33.7992 8.87804L33.8278 8.87631L33.829 8.87601C34.0335 8.86197 34.2379 8.82991 34.4368 8.78061C34.6131 8.73692 34.7874 8.67911 34.9548 8.60877C35.2273 8.49472 35.4858 8.34625 35.7226 8.16764C35.8159 8.09741 35.9058 8.02259 35.9918 7.94365L38.7277 11.6046L40.2057 13.5826L42.6189 16.8115C42.5191 16.8723 42.4223 16.938 42.329 17.0083C41.5662 17.5819 41.0716 18.4193 40.9366 19.3663C40.8016 20.3131 41.0422 21.2561 41.6141 22.0217C41.6453 22.0632 41.6776 22.1043 41.7107 22.1446L22.4039 36.6694L20.2653 38.278C20.2567 38.2654 20.248 38.253 20.2392 38.2407C20.2202 38.2126 20.1988 38.1828 20.1738 38.1496C19.3133 36.9978 17.856 36.4761 16.4619 36.8215C15.9963 36.9369 15.5642 37.1429 15.1775 37.4339C15.0762 37.5102 14.9793 37.5916 14.8874 37.6774L8.25633 28.8051C8.36482 28.7403 8.46995 28.6695 8.57098 28.5934C9.33374 28.0198 9.82826 27.1824 9.96318 26.2355C10.0837 25.3897 9.90447 24.5471 9.45708 23.8314Z" fill="#333333"/>
<path d="M33.277 21.303C33.6191 22.8742 33.4723 24.5145 32.8705 25.9934C32.8538 26.0333 32.837 26.0732 32.8203 26.1131C32.8056 26.1479 32.7907 26.1821 32.7752 26.2165C32.7641 26.2401 32.7532 26.2642 32.7428 26.2876C32.7293 26.3169 32.7156 26.3457 32.7021 26.375C32.6693 26.4441 32.6346 26.5134 32.5992 26.5828C32.4679 26.8424 32.3215 27.0954 32.1605 27.3406C32.1202 27.4026 32.0792 27.4645 32.0366 27.5265C32.0174 27.554 31.9984 27.5821 31.9787 27.6097C31.9762 27.6129 31.9744 27.616 31.972 27.6192C31.9701 27.6223 31.9675 27.6249 31.9657 27.6279C31.5113 28.2585 30.9567 28.8314 30.304 29.322C29.383 30.0148 28.3607 30.4749 27.3056 30.7123C26.8159 30.8226 26.3194 30.8845 25.8224 30.8998C23.3439 30.9758 20.8684 29.88 19.2679 27.7387C16.656 24.2441 17.3628 19.2869 20.846 16.6664C24.3293 14.0465 29.2701 14.755 31.8821 18.2496C32.5824 19.1868 33.0436 20.2287 33.277 21.303Z" fill="#3D9BE9"/>
<path d="M27.5115 30.8258C27.455 30.8398 27.3984 30.8532 27.3414 30.866C26.8474 30.9773 26.3384 31.0417 25.8286 31.0573C23.2116 31.1376 20.7125 29.9324 19.1435 27.8332C16.4839 24.2747 17.2059 19.2086 20.753 16.54C24.3002 13.8721 29.3497 14.5965 32.0092 18.1549C32.7072 19.0889 33.1859 20.1368 33.432 21.2692C33.7813 22.8738 33.638 24.528 33.0175 26.0529L32.9666 26.1742C32.9512 26.2106 32.9358 26.246 32.9198 26.2814C32.9081 26.3063 32.8977 26.3295 32.8877 26.3519L32.8463 26.441C32.8118 26.5133 32.7766 26.5839 32.7404 26.6546C32.6069 26.9185 32.4564 27.1787 32.2932 27.4273C32.2525 27.4898 32.2108 27.5529 32.1673 27.616L32.1471 27.6453C32.1342 27.6641 32.1211 27.6829 32.1078 27.7016C32.1066 27.7033 32.1056 27.7047 32.1046 27.706L32.0945 27.7202C31.621 28.3773 31.0508 28.9586 30.3996 29.448C29.5284 30.1036 28.5574 30.5666 27.5115 30.8258ZM23.7133 15.4719C22.7379 15.7135 21.7948 16.1508 20.9416 16.7925C17.5332 19.3567 16.8394 24.2246 19.3951 27.644C20.9027 29.661 23.3042 30.8192 25.8189 30.742C26.3089 30.727 26.7979 30.6651 27.2726 30.5582C28.3402 30.3169 29.3286 29.8596 30.211 29.1956C30.8351 28.7265 31.3817 28.1698 31.8358 27.5407L31.8483 27.5234C31.8496 27.5215 31.8522 27.5178 31.8551 27.514C31.8646 27.5005 31.8766 27.4831 31.8885 27.4658L31.9091 27.436C31.9504 27.376 31.9907 27.3152 32.0302 27.2543C32.1873 27.015 32.3319 26.7653 32.4604 26.5113C32.4955 26.4426 32.5294 26.3746 32.5617 26.3069L32.6014 26.2214C32.6115 26.1987 32.6229 26.1735 32.6344 26.149C32.6483 26.1182 32.6627 26.085 32.677 26.0513L32.727 25.932C33.3227 24.4681 33.4605 22.8784 33.1248 21.3365L33.1248 21.3364C32.8884 20.2485 32.4285 19.2418 31.7577 18.3441C29.8418 15.7808 26.6346 14.7479 23.7133 15.4719ZM32.0949 27.7194L32.0937 27.7211C32.0941 27.7205 32.0945 27.72 32.0949 27.7194ZM31.8467 27.5258C31.8463 27.5264 31.8459 27.5269 31.8455 27.5274L31.8467 27.5258Z" fill="#333333"/>
<path d="M34.3019 3.54639L45.8885 19.8359L21.4589 38.4218L22.5982 36.9215L20.1834 38.7378C20.125 38.6295 20.06 38.5234 19.9868 38.4207L16.8633 42.4416L46.6333 20.0458L34.3019 3.54639ZM32.5587 22.2369L29.9203 25.634L29.5995 26.0463L29.1549 26.6192L29.7822 27.4594L32.5025 23.8769C32.3791 24.8778 32.0573 26.1651 31.2555 27.2314C30.1876 28.6509 28.83 29.3832 28.0779 29.7041L29.0778 28.3872L28.8745 28.5402L28.2803 27.7451L25.8296 30.8994C26.3266 30.8841 26.8231 30.8222 27.3128 30.7119C28.3333 30.5337 30.3643 29.8979 31.9729 27.6275C31.9747 27.6245 31.9773 27.6219 31.9792 27.6188C31.9816 27.6156 31.9835 27.6126 31.9859 27.6094C32.0057 27.5817 32.0247 27.5536 32.0438 27.5261C32.3095 27.1399 32.5287 26.7541 32.7093 26.3746C32.7228 26.3453 32.7365 26.3166 32.75 26.2872C32.7604 26.2638 32.7713 26.2397 32.7824 26.2162C32.7979 26.1818 32.8128 26.1475 32.8275 26.1127C32.8443 26.0728 32.861 26.0329 32.8777 25.993C33.4795 24.5142 33.6263 22.8738 33.2842 21.3026L32.5587 22.2369ZM31.3882 5.7385L30.7733 6.20088L33.7859 8.56288L33.7865 8.56273C34.1433 8.54125 34.4997 8.46008 34.839 8.31751L31.3882 5.7385ZM38.985 11.4151L40.463 13.3931L40.8862 12.8359L38.985 11.4151Z" fill="#333333"/>
<path d="M28.6958 21.1436C28.2279 20.9788 27.7379 20.9418 27.2273 21.0329C26.7158 21.1247 26.0566 21.31 25.2472 21.5892C24.5088 21.8422 23.9997 21.9715 23.7215 21.9774C23.4426 21.9823 23.2124 21.8625 23.0301 21.6185C22.8503 21.378 22.7921 21.103 22.8541 20.7932C22.916 20.4835 23.1014 20.2124 23.4104 19.98C24.0283 19.5151 24.7661 19.5488 25.6251 20.0814L26.7248 18.3941C25.5423 17.5663 24.2886 17.5477 22.964 18.3407L22.293 17.4429L21.1947 18.2691L21.8658 19.1669C21.1283 19.879 20.7406 20.6048 20.7039 21.3445C20.6658 22.084 20.8593 22.7374 21.285 23.307C21.6089 23.7403 21.9993 24.0421 22.4545 24.2097C22.9106 24.3767 23.3753 24.4232 23.851 24.3488C24.3261 24.2735 24.9354 24.1027 25.6768 23.8339C26.5053 23.5403 27.0678 23.3884 27.3651 23.3791C27.6617 23.369 27.91 23.4968 28.1086 23.7625C28.3007 24.0195 28.3664 24.3119 28.3073 24.6399C28.2482 24.9679 28.0111 25.2873 27.5974 25.5986C26.7137 26.2633 25.8761 26.2315 25.0867 25.5028L23.6822 27.1711C25.0327 28.2618 26.4745 28.3329 28.0067 27.3837L28.8711 28.5403L29.9694 27.7141L29.1005 26.5514C29.901 25.8243 30.3604 25.0623 30.4787 24.2653C30.596 23.4689 30.402 22.7318 29.8952 22.0536C29.5642 21.6108 29.1647 21.3077 28.6958 21.1436Z" fill="white"/>
<path d="M29.7792 27.4594L29.0748 28.3872L28.8715 28.5402L28.2773 27.7451L29.1519 26.6191L29.7792 27.4594Z" fill="#3D9BE9"/>
<path d="M28.8406 28.7613L27.967 27.5924C26.424 28.497 24.9502 28.3971 23.5845 27.2942L23.4591 27.1929L25.0734 25.2755L25.1941 25.3869C25.9264 26.0629 26.6819 26.0909 27.504 25.4725C27.8835 25.187 28.1021 24.8974 28.1535 24.612C28.2051 24.326 28.1495 24.0791 27.9838 23.8573C27.8164 23.6333 27.6161 23.5286 27.3713 23.537C27.0921 23.5457 26.5401 23.6957 25.7301 23.9828C24.9884 24.2517 24.3644 24.4274 23.8765 24.5047C23.3769 24.5828 22.8808 24.5335 22.4016 24.358C21.9192 24.1804 21.5016 23.8587 21.1602 23.4018C20.714 22.8048 20.5079 22.11 20.5478 21.3366C20.5846 20.5941 20.9581 19.8594 21.6584 19.1514L20.9756 18.2377L22.3254 17.2222L23.007 18.1341C24.3387 17.3837 25.6195 17.4274 26.8157 18.2649L26.9408 18.3525L25.6737 20.2965L25.5434 20.2157C24.7381 19.7165 24.0715 19.6808 23.5056 20.1063C23.2261 20.3166 23.0637 20.5515 23.0091 20.8244C22.9558 21.091 23.0041 21.3198 23.1568 21.524C23.3086 21.7271 23.4926 21.8239 23.7196 21.8198C23.9805 21.8144 24.4779 21.6866 25.1973 21.4402C26.0103 21.1597 26.6844 20.9704 27.2005 20.8778C27.7359 20.7823 28.2567 20.8216 28.7486 20.9948C29.2452 21.1687 29.6736 21.4931 30.0219 21.9591C30.552 22.6684 30.7583 23.4522 30.6351 24.2886C30.5173 25.083 30.0724 25.8502 29.3123 26.5708L30.1904 27.7458L28.8406 28.7613ZM28.0473 27.1739L28.9035 28.3196L29.7502 27.6826L28.8896 26.5311L28.9959 26.4347C29.765 25.7361 30.2119 24.9985 30.3241 24.2423C30.4345 23.4924 30.2482 22.7878 29.7703 22.1484C29.4602 21.7334 29.0816 21.4455 28.645 21.2926L28.6447 21.2926C28.2044 21.1375 27.7371 21.1025 27.2558 21.1884C26.7556 21.2782 26.0973 21.4632 25.2993 21.7386C24.5383 21.9993 24.0237 22.129 23.7257 22.1353C23.3948 22.1412 23.1189 21.9992 22.9052 21.7133C22.6987 21.437 22.6299 21.1171 22.7008 20.7624C22.7702 20.4149 22.9775 20.1092 23.317 19.8539C23.9563 19.3731 24.7161 19.3782 25.5768 19.8689L26.5091 18.4384C25.4105 17.7268 24.2759 17.7395 23.0455 18.4763L22.924 18.549L22.2625 17.6639L21.4158 18.3008L22.0758 19.1841L21.9757 19.2807C21.271 19.9612 20.8963 20.6583 20.8619 21.3525C20.8259 22.0505 21.0109 22.6762 21.4117 23.2125C21.7162 23.6199 22.0855 23.9056 22.5096 24.0618C22.938 24.2186 23.3816 24.2628 23.8277 24.1931C24.2957 24.1189 24.9003 23.9483 25.6243 23.6857C26.4777 23.3832 27.0456 23.2314 27.3611 23.2217C27.7107 23.2097 28.005 23.3599 28.2353 23.6681C28.4534 23.9598 28.53 24.2962 28.463 24.6681C28.3969 25.0345 28.1377 25.3901 27.6927 25.7249C26.7889 26.4047 25.919 26.4053 25.1045 25.7273L23.9087 27.1478C25.1748 28.1057 26.4902 28.1384 27.9251 27.2496L28.0473 27.1739Z" fill="#333333"/>
<path d="M33.8015 4.28231L32.1602 5.50049L32.3471 5.7541L33.9885 4.53593L33.8015 4.28231Z" fill="white"/>
<path d="M41.7049 21.0773C41.6952 21.0522 40.7714 18.556 43.0513 17.4805L43.1851 17.7659C42.3393 18.1649 41.8823 18.8211 41.8265 19.7164C41.7843 20.3954 41.9962 20.9586 41.9984 20.9642L41.7049 21.0773Z" fill="white"/>
<path d="M23.4211 0.442591L0.511719 29.8599L16.7091 42.5569L39.6185 13.1397L23.4211 0.442591Z" fill="white"/>
<path d="M23.4211 0.442829L39.6185 13.1399L16.7091 42.5572L0.51169 29.8601L23.4211 0.442829ZM23.3669 0L23.1733 0.248589L0.263909 29.6659L0.0703125 29.9145L0.318094 30.1087L16.5155 42.8058L16.7633 43L16.9569 42.7514L39.8662 13.3341L40.0598 13.0855L39.8121 12.8913L23.6147 0.194234L23.3669 0Z" fill="#333333"/>
<path d="M0.511719 29.8601L16.7091 42.5572L39.6185 13.1399L23.4211 0.442871L0.511719 29.8601ZM35.3886 11.0445C35.2218 11.1864 35.0659 11.3479 34.926 11.5275C33.8191 12.9488 34.0702 15.0008 35.4869 16.1114C35.613 16.2103 35.7439 16.2977 35.879 16.3747L18.9503 38.1122C18.8433 37.9994 18.727 37.8931 18.6009 37.7942C17.1842 36.6836 15.1389 36.9355 14.032 38.3569C13.8854 38.545 13.7634 38.7441 13.6645 38.9503L4.37333 31.667C4.54888 31.5209 4.71187 31.3539 4.85839 31.1657C5.9653 29.7444 5.71422 27.6924 4.29753 26.5818L4.289 26.5752L21.175 4.89234L21.1835 4.89902C22.6002 6.00956 24.6455 5.75767 25.7524 4.33632C25.8923 4.15673 26.0107 3.96585 26.1077 3.76913L35.3886 11.0445Z" fill="#3D9BE9"/>
<path d="M23.4211 0.442829L39.6185 13.1399L16.7091 42.5572L0.51169 29.8601L23.4211 0.442829ZM13.6645 38.9503C13.7633 38.744 13.8854 38.545 14.0319 38.3568C14.4985 37.7577 15.1315 37.3665 15.8142 37.1974C16.7511 36.9653 17.7813 37.1517 18.6008 37.7941C18.727 37.893 18.8433 37.9993 18.9503 38.1122L35.879 16.3746C35.7439 16.2977 35.613 16.2102 35.4868 16.1113C34.0701 15.0008 33.8191 12.9488 34.926 11.5274C35.0658 11.3478 35.2218 11.1863 35.3886 11.0444L26.1076 3.76908C26.0107 3.9658 25.8923 4.15669 25.7524 4.33628C25.2858 4.93538 24.6528 5.3266 23.9701 5.49576C23.0333 5.72792 22.0031 5.54141 21.1835 4.89897L21.175 4.89229L4.28898 26.5751L4.2975 26.5818C5.71419 27.6923 5.96528 29.7444 4.85837 31.1657C4.71185 31.3538 4.54886 31.5208 4.3733 31.6669L13.6645 38.9503ZM23.3669 0L23.1733 0.248589L0.263909 29.6659L0.0703125 29.9145L0.318094 30.1087L16.5155 42.8058L16.7633 43L16.9569 42.7514L39.8662 13.3341L40.0598 13.0855L39.8121 12.8913L23.6147 0.194234L23.3669 0ZM4.72248 26.5309L21.237 5.32511C22.0649 5.86895 23.0723 6.04319 24.0455 5.80202C24.8274 5.60829 25.5033 5.16861 26.0002 4.53051C26.0719 4.43837 26.1393 4.34245 26.202 4.2434L34.9071 11.0673C34.8264 11.1522 34.75 11.241 34.6782 11.3332C33.4664 12.8892 33.7423 15.1442 35.2932 16.3599C35.3342 16.392 35.3759 16.4233 35.4184 16.4536L18.9153 37.6447C18.8757 37.6107 18.8354 37.5776 18.7944 37.5455C17.925 36.864 16.8112 36.6254 15.7388 36.8911C14.9571 37.0847 14.2812 37.5244 13.7842 38.1626C13.7065 38.2623 13.6341 38.3663 13.5673 38.4738L4.85765 31.6462C4.94543 31.5553 5.02846 31.4597 5.10614 31.3599C6.25497 29.8848 6.06672 27.7814 4.72248 26.5309Z" fill="#333333"/>
<path d="M20.0626 29.409C24.4163 29.409 27.9456 25.8681 27.9456 21.5002C27.9456 17.1322 24.4163 13.5913 20.0626 13.5913C15.709 13.5913 12.1797 17.1322 12.1797 21.5002C12.1797 25.8681 15.709 29.409 20.0626 29.409Z" fill="#3D9BE9"/>
<path d="M21.9997 29.3265C19.6832 29.9006 17.1359 29.4417 15.1141 27.8569C11.6207 25.1184 10.9992 20.0389 13.7287 16.5339C15.051 14.8361 16.9531 13.7568 19.0847 13.4939C21.2163 13.2314 23.3222 13.8174 25.0145 15.1441C26.7068 16.4706 27.7829 18.379 28.0446 20.5176C28.3063 22.6562 27.7222 24.7691 26.3999 26.4669C25.2501 27.9434 23.686 28.9086 21.9997 29.3265ZM18.1965 13.978C16.5267 14.3918 15.052 15.3472 13.9765 16.7282C11.3537 20.0961 11.9509 24.9769 15.3077 27.6083C17.2502 29.131 19.6983 29.5718 21.924 29.0204C23.5446 28.619 25.0471 27.6917 26.1521 26.2727C27.4227 24.6412 27.9839 22.611 27.7325 20.556C27.4811 18.5011 26.447 16.6673 24.8209 15.3927C23.1948 14.118 21.1712 13.5548 19.123 13.8071C18.8086 13.8458 18.4993 13.903 18.1965 13.978Z" fill="#333333"/>
<path d="M22.5905 18.8974C22.0959 18.8609 21.6133 18.9536 21.1441 19.1753C20.6743 19.3978 20.0861 19.7494 19.3775 20.231C18.7305 20.6687 18.2728 20.9268 18.0057 21.0053C17.7378 21.0832 17.4844 21.0278 17.2449 20.84C17.0088 20.6549 16.881 20.4047 16.8602 20.0895C16.8394 19.7743 16.9478 19.464 17.1856 19.1587C17.6611 18.5481 18.382 18.3874 19.3499 18.6764L19.9723 16.7596C18.6155 16.2703 17.4004 16.5808 16.3281 17.6932L15.4467 17.0023L14.6016 18.0876L15.4829 18.7785C14.9564 19.659 14.771 20.4612 14.9281 21.1849C15.0837 21.9087 15.4406 22.4888 15.9998 22.9271C16.4251 23.2605 16.8806 23.4495 17.3636 23.4921C17.8473 23.5338 18.308 23.457 18.7479 23.2605C19.1869 23.0634 19.7306 22.739 20.3764 22.2852C21.0997 21.7848 21.6031 21.4909 21.8877 21.404C22.1714 21.3165 22.4444 21.3749 22.7052 21.5794C22.9575 21.7771 23.0971 22.0422 23.1254 22.3743C23.1537 22.7063 23.0079 23.0768 22.6895 23.4856C22.0095 24.3588 21.1926 24.5476 20.241 24.0508L19.3194 26.0293C20.9069 26.7283 22.3171 26.4193 23.5492 25.1016L24.6846 25.9916L25.5298 24.9064L24.3884 24.0117C24.972 23.1001 25.2172 22.2442 25.1239 21.4438C25.0299 20.6444 24.6508 19.9836 23.9851 19.4617C23.5504 19.1209 23.0858 18.9331 22.5905 18.8974Z" fill="white"/>
<path d="M24.7098 26.2127L23.5623 25.3132C22.3083 26.5907 20.8596 26.8802 19.2542 26.1733L19.1068 26.1084L20.166 23.8346L20.3116 23.9105C21.1944 24.3714 21.9311 24.2005 22.5637 23.3881C22.8558 23.0131 22.9914 22.6764 22.9668 22.3873C22.9421 22.0978 22.8242 21.874 22.6064 21.7033C22.3865 21.5309 22.1657 21.4814 21.9319 21.5545C21.6648 21.6359 21.171 21.9254 20.4636 22.4148C19.818 22.8685 19.2614 23.2016 18.8101 23.4041C18.3482 23.6105 17.8564 23.6928 17.3482 23.6489C16.8364 23.6038 16.3496 23.4026 15.901 23.0511C15.3149 22.5916 14.9352 21.9748 14.7725 21.2178C14.6148 20.4914 14.7841 19.6844 15.2759 18.8175L14.3789 18.1144L15.4177 16.7805L16.3129 17.4823C17.4032 16.4091 18.6508 16.1158 20.0235 16.6108L20.1671 16.6626L19.4499 18.8711L19.3031 18.8273C18.3958 18.5563 17.743 18.6964 17.3075 19.2555C17.0924 19.5317 16.9967 19.801 17.0151 20.0787C17.033 20.35 17.1392 20.5582 17.3397 20.7154C17.5391 20.8717 17.742 20.9175 17.96 20.8535C18.2106 20.7798 18.6574 20.5262 19.2876 20.0999C19.9994 19.6162 20.6009 19.2569 21.075 19.0324C21.5671 18.7997 22.0801 18.7013 22.6 18.7398C23.1246 18.7775 23.6225 18.9785 24.0799 19.3371C24.7763 19.883 25.1794 20.5855 25.278 21.425C25.3711 22.2227 25.1413 23.0799 24.595 23.9746L25.7485 24.8788L24.7098 26.2127ZM23.5309 24.8882L24.6556 25.7699L25.3071 24.9332L24.1767 24.0471L24.2542 23.9261C24.8149 23.0503 25.0543 22.2212 24.9657 21.4618C24.8773 20.7091 24.5141 20.0778 23.8863 19.5857C23.479 19.2663 23.0386 19.0876 22.5773 19.0544L22.577 19.0544C22.1117 19.02 21.6515 19.1085 21.2092 19.3177C20.7497 19.5353 20.1624 19.8864 19.4637 20.3613C18.7971 20.8122 18.3341 21.0722 18.0479 21.1564C17.7293 21.2487 17.4267 21.1839 17.1461 20.9639C16.8748 20.7513 16.7252 20.4605 16.7014 20.0996C16.678 19.746 16.7985 19.3967 17.0597 19.0612C17.5517 18.4296 18.2864 18.2355 19.2451 18.4837L19.7728 16.8585C18.5271 16.4596 17.4352 16.7692 16.4392 17.8025L16.3408 17.9046L15.4718 17.2233L14.8203 18.06L15.6873 18.7397L15.6158 18.8593C15.1126 19.7008 14.9323 20.4718 15.0798 21.151C15.2267 21.8342 15.5681 22.3897 16.0946 22.8025C16.4945 23.1159 16.9254 23.2949 17.3754 23.3346C17.8298 23.3738 18.2695 23.3004 18.682 23.1161C19.1148 22.9218 19.6539 22.5986 20.2842 22.1557C21.0295 21.64 21.5381 21.3449 21.84 21.2528C22.1737 21.1492 22.4974 21.2175 22.8001 21.4547C23.0864 21.6792 23.2479 21.9839 23.2801 22.3605C23.3117 22.7314 23.154 23.1425 22.8114 23.5824C22.1161 24.4752 21.2765 24.7037 20.3137 24.2626L19.529 25.9471C21.0006 26.5402 22.2789 26.2272 23.4326 24.9933L23.5309 24.8882Z" fill="#333333"/>
<path d="M5.07199 33.0738L0.921875 29.7549L1.01754 29.6319L22.8847 1.49121L23.1326 1.68516L1.36114 29.7028L5.26796 32.827L5.07199 33.0738Z" fill="white"/>
<path d="M35.865 16.0396C33.5025 13.9338 35.1227 11.7895 35.1394 11.7681L35.3875 11.9618C35.3273 12.04 33.9357 13.898 36.0739 15.8038L35.865 16.0396Z" fill="white"/>
<path d="M14.299 39.3861L14.0391 39.2086C14.0535 39.1875 15.5013 37.1021 17.869 37.8618L17.7732 38.1622C15.6266 37.4736 14.3121 39.3669 14.299 39.3861Z" fill="white"/>
<path d="M17.0979 28.4298C17.0554 28.4111 16.043 27.9598 14.9721 26.9238C13.9828 25.9667 12.7627 24.3108 12.5687 21.858C12.39 19.5996 13.5607 17.2186 15.6241 15.644C17.6748 14.079 20.177 13.6117 22.3176 14.3943L22.2099 14.6907C20.1704 13.9451 17.7796 14.3953 15.8144 15.8951C13.8354 17.4053 12.7118 19.6806 12.8821 21.833C13.068 24.1823 14.2353 25.7701 15.1818 26.6885C16.2127 27.6887 17.2141 28.1364 17.2242 28.1409L17.0979 28.4298Z" fill="white"/>
<path d="M0.511719 29.8601L16.6481 41.9957L39.0901 13.1677L23.4211 0.442871L39.6185 13.1399L16.7091 42.5572L0.511719 29.8601Z" fill="#333333"/>
<path d="M14.75 27.3397C18.8255 30.7011 24.208 28.2486 25.8668 25.6998C27.5256 23.151 28.6688 17.563 22.7232 14.0522C22.7232 14.0522 28.454 15.8606 27.8977 22.4207C27.6039 25.8857 25.1515 28.103 22.6741 28.9676C20.4611 29.7398 18.2677 29.3759 16.9436 28.7638C15.0203 27.8746 14.75 27.3397 14.75 27.3397Z" fill="#333333"/>
</svg>
