<svg width="288" height="290" viewBox="0 0 288 290" fill="none" xmlns="http://www.w3.org/2000/svg">
<path d="M278.892 108.289L130.308 6.68292C124.215 2.51843 115.814 3.99722 111.593 9.98534L6.40488 159.317C1.06439 166.897 3.01873 177.275 10.7682 182.5L158.131 281.931C168.364 288.841 182.438 285.923 188.932 275.551L282.638 125.842C286.33 119.94 284.687 112.254 278.892 108.289Z" stroke="#3D9BE9" stroke-width="6.78589" stroke-miterlimit="10"/>
<path d="M267.363 94.4753L233.366 205.246L225.718 230.186L215.065 264.895C213.673 269.431 208.726 271.957 204.119 270.485L201.099 269.523L194.469 267.401L80.4257 230.989L57.7472 223.747L35.8016 216.738C29.0225 214.569 24.7814 208.309 25.0256 201.665C25.0731 200.299 25.3174 198.926 25.7585 197.56L26.6814 194.728L55.6368 106.06L65.8563 74.7669L78.5935 35.7613C80.0389 31.3249 84.8976 28.8779 89.4373 30.2904L200.801 65.0188L256.696 82.446L261.724 84.0177C266.21 85.4169 268.721 90.0655 267.363 94.4753Z" fill="white" stroke="#333333" stroke-width="3.39295" stroke-miterlimit="10"/>
<path d="M264.099 84.8397C245.099 106.06 247.134 106.06 236.277 106.06H55.0938L65.2726 74.8927C76.2386 71.829 99.9892 69.5876 124.31 69.5876C154.69 69.5876 183.625 67.0743 207.586 65.0186L264.099 84.8397Z" fill="#333333"/>
<path d="M26.6792 194.728L80.4235 230.988L57.745 223.747L25.0234 201.664C25.0709 200.298 25.3152 198.926 25.7563 197.56L26.6792 194.728Z" fill="#333333"/>
<path d="M233.365 205.246L225.718 230.186L201.099 269.524L194.469 267.402L233.365 205.246Z" fill="#333333"/>
<path d="M27.8008 128.938L6.40488 159.317C1.06439 166.896 3.01872 177.274 10.7682 182.5L158.131 281.931C168.364 288.84 182.438 285.923 188.932 275.551L250.297 177.52" stroke="#3D9BE9" stroke-width="6.78589" stroke-miterlimit="10"/>
<path d="M52.3834 117.334C52.3834 117.334 46.3576 111.631 40.3317 106.585C34.3058 101.538 36.8913 90.6097 36.8913 61.1797C36.8913 52.7711 37.7531 53.6133 91.097 53.6133H267.584C290.704 53.6133 283.049 57.4396 262.352 78.2289C241.662 99.0182 240.834 101.412 232.216 101.412C223.598 101.412 78.387 101.412 57.1336 101.412L52.3834 117.327V117.334Z" fill="#3D9BE9"/>
<path d="M48.9931 106.061C48.9931 106.061 44.243 101.419 47.6359 101.419H64.1731" stroke="#333333" stroke-width="2.03577" stroke-miterlimit="10"/>
<path d="M52.0441 117.666C52.0441 117.666 46.3576 111.631 40.3317 106.585C34.3058 101.538 36.8913 90.6097 36.8913 61.1797C36.8913 52.7711 37.7531 53.6133 91.097 53.6133H267.584C290.704 53.6133 283.049 57.4396 262.352 78.2289C241.662 99.0182 240.834 101.412 232.216 101.412H56.7943L52.0441 117.659V117.666Z" stroke="#333333" stroke-width="2.71436" stroke-miterlimit="10"/>
<path d="M43.5625 62.2943C46.2769 59.6417 44.9197 60.3049 112.779 60.3049" stroke="white" stroke-width="2.03577" stroke-miterlimit="10"/>
<path d="M132.477 60.2319H162.491" stroke="white" stroke-width="2.03577" stroke-miterlimit="10"/>
<path d="M181.336 60.2319H196.278" stroke="white" stroke-width="2.03577" stroke-miterlimit="10"/>
<path d="M211.477 60.2319H263.083" stroke="white" stroke-width="2.03577" stroke-miterlimit="10"/>
<path d="M36.6484 98.2029C38.1345 105.398 44.9204 108.05 47.6348 109.377C50.3492 110.703 53.8167 109.377 52.7581 106.061C51.6995 102.745 48.3134 102.082 47.6348 104.735C47.6348 104.735 44.744 101.412 47.8859 101.419C51.0277 101.426 57.135 101.419 57.135 101.419L52.0456 117.666C52.0456 117.666 43.2036 109.814 39.9939 106.28C36.7842 102.745 36.6484 98.2029 36.6484 98.2029Z" fill="#333333"/>
<path d="M66.0352 88.5341V69.9663H74.6668C76.7297 69.9663 78.5483 70.3553 80.1227 71.1334C81.697 71.8938 82.9275 72.9636 83.8142 74.343C84.7009 75.7223 85.1442 77.358 85.1442 79.2502C85.1442 81.1246 84.7009 82.7604 83.8142 84.1574C82.9275 85.5367 81.697 86.6154 80.1227 87.3935C78.5483 88.1539 76.7297 88.5341 74.6668 88.5341H66.0352ZM70.4324 85.0062H74.4497C75.7164 85.0062 76.8112 84.7763 77.734 84.3165C78.675 83.8391 79.3988 83.1671 79.9055 82.3006C80.4303 81.4341 80.6927 80.4173 80.6927 79.2502C80.6927 78.0654 80.4303 77.0485 79.9055 76.1997C79.3988 75.3332 78.675 74.6701 77.734 74.2103C76.8112 73.7329 75.7164 73.4941 74.4497 73.4941H70.4324V85.0062Z" fill="#333333"/>
<path d="M88.4604 88.5341V69.9663H92.8577V88.5341H88.4604Z" fill="#333333"/>
<path d="M103.61 88.8524C102.09 88.8524 100.633 88.6579 99.2398 88.2688C97.8464 87.8621 96.7245 87.3404 95.874 86.7038L97.3669 83.4677C98.1812 84.0336 99.1403 84.5022 100.244 84.8736C101.366 85.2272 102.497 85.4041 103.637 85.4041C104.506 85.4041 105.202 85.3245 105.727 85.1653C106.27 84.9885 106.668 84.7498 106.921 84.4491C107.175 84.1485 107.301 83.8037 107.301 83.4147C107.301 82.9195 107.102 82.5305 106.704 82.2475C106.306 81.9469 105.781 81.7082 105.13 81.5314C104.479 81.3368 103.755 81.16 102.958 81.0008C102.18 80.824 101.393 80.6118 100.597 80.3642C99.8189 80.1167 99.1041 79.7984 98.4526 79.4093C97.8012 79.0203 97.2674 78.5074 96.8512 77.8708C96.4531 77.2342 96.254 76.4208 96.254 75.4305C96.254 74.3695 96.5435 73.4057 97.1226 72.5392C97.7198 71.655 98.6064 70.9565 99.7827 70.4437C100.977 69.9132 102.47 69.6479 104.261 69.6479C105.456 69.6479 106.632 69.7894 107.79 70.0724C108.948 70.3376 109.971 70.7443 110.857 71.2925L109.5 74.5552C108.613 74.06 107.727 73.6975 106.84 73.4676C105.953 73.22 105.085 73.0963 104.234 73.0963C103.384 73.0963 102.687 73.1935 102.144 73.388C101.601 73.5826 101.212 73.839 100.977 74.1573C100.742 74.4579 100.624 74.8116 100.624 75.2183C100.624 75.6958 100.823 76.0848 101.221 76.3854C101.619 76.6684 102.144 76.8982 102.796 77.0751C103.447 77.2519 104.162 77.4287 104.94 77.6056C105.736 77.7824 106.523 77.9858 107.301 78.2157C108.098 78.4456 108.821 78.755 109.473 79.1441C110.124 79.5331 110.649 80.0459 111.047 80.6825C111.463 81.3191 111.672 82.1238 111.672 83.0964C111.672 84.1397 111.373 85.0946 110.776 85.9611C110.179 86.8276 109.283 87.5261 108.089 88.0566C106.912 88.5871 105.419 88.8524 103.61 88.8524Z" fill="#333333"/>
<path d="M123.769 88.8524C122.304 88.8524 120.937 88.6225 119.671 88.1627C118.422 87.6853 117.336 87.0133 116.413 86.1468C115.491 85.2803 114.767 84.2635 114.242 83.0964C113.735 81.9292 113.482 80.6472 113.482 79.2502C113.482 77.8532 113.735 76.5711 114.242 75.404C114.767 74.2369 115.491 73.22 116.413 72.3535C117.354 71.487 118.449 70.8239 119.698 70.3641C120.946 69.8867 122.313 69.6479 123.796 69.6479C125.443 69.6479 126.927 69.9309 128.248 70.4968C129.587 71.045 130.709 71.8584 131.614 72.9371L128.791 75.4835C128.139 74.7585 127.416 74.2192 126.619 73.8655C125.823 73.4941 124.955 73.3085 124.014 73.3085C123.127 73.3085 122.313 73.4499 121.571 73.7329C120.829 74.0158 120.186 74.4225 119.643 74.953C119.101 75.4835 118.675 76.1113 118.368 76.8363C118.078 77.5614 117.933 78.366 117.933 79.2502C117.933 80.1343 118.078 80.9389 118.368 81.664C118.675 82.389 119.101 83.0168 119.643 83.5473C120.186 84.0778 120.829 84.4845 121.571 84.7675C122.313 85.0504 123.127 85.1919 124.014 85.1919C124.955 85.1919 125.823 85.015 126.619 84.6614C127.416 84.29 128.139 83.733 128.791 82.9902L131.614 85.5367C130.709 86.6154 129.587 87.4377 128.248 88.0036C126.927 88.5694 125.434 88.8524 123.769 88.8524Z" fill="#333333"/>
<path d="M143.414 88.8524C141.913 88.8524 140.519 88.6136 139.234 88.1362C137.968 87.6587 136.864 86.9867 135.923 86.1203C135 85.2538 134.276 84.2369 133.751 83.0698C133.245 81.9027 132.991 80.6295 132.991 79.2502C132.991 77.8708 133.245 76.5976 133.751 75.4305C134.276 74.2634 135.009 73.2466 135.95 72.3801C136.891 71.5136 137.995 70.8416 139.261 70.3641C140.528 69.8867 141.903 69.6479 143.387 69.6479C144.889 69.6479 146.265 69.8867 147.513 70.3641C148.78 70.8416 149.875 71.5136 150.798 72.3801C151.738 73.2466 152.471 74.2634 152.996 75.4305C153.521 76.5799 153.783 77.8532 153.783 79.2502C153.783 80.6295 153.521 81.9115 152.996 83.0964C152.471 84.2635 151.738 85.2803 150.798 86.1468C149.875 86.9956 148.78 87.6587 147.513 88.1362C146.265 88.6136 144.898 88.8524 143.414 88.8524ZM143.387 85.1919C144.238 85.1919 145.016 85.0504 145.722 84.7675C146.445 84.4845 147.079 84.0778 147.622 83.5473C148.165 83.0168 148.581 82.389 148.87 81.664C149.178 80.9389 149.332 80.1343 149.332 79.2502C149.332 78.366 149.178 77.5614 148.87 76.8363C148.581 76.1113 148.165 75.4835 147.622 74.953C147.097 74.4225 146.473 74.0158 145.749 73.7329C145.025 73.4499 144.238 73.3085 143.387 73.3085C142.537 73.3085 141.75 73.4499 141.026 73.7329C140.32 74.0158 139.696 74.4225 139.153 74.953C138.61 75.4835 138.185 76.1113 137.877 76.8363C137.588 77.5614 137.443 78.366 137.443 79.2502C137.443 80.1167 137.588 80.9213 137.877 81.664C138.185 82.389 138.601 83.0168 139.126 83.5473C139.669 84.0778 140.302 84.4845 141.026 84.7675C141.75 85.0504 142.537 85.1919 143.387 85.1919Z" fill="#333333"/>
<path d="M165.53 88.8524C162.833 88.8524 160.725 88.1185 159.205 86.6508C157.685 85.183 156.925 83.0875 156.925 80.3642V69.9663H161.322V80.2051C161.322 81.9734 161.693 83.2467 162.435 84.0247C163.177 84.8028 164.218 85.1919 165.557 85.1919C166.896 85.1919 167.936 84.8028 168.678 84.0247C169.42 83.2467 169.791 81.9734 169.791 80.2051V69.9663H174.134V80.3642C174.134 83.0875 173.374 85.183 171.854 86.6508C170.334 88.1185 168.226 88.8524 165.53 88.8524Z" fill="#333333"/>
<path d="M178.479 88.5341V69.9663H182.117L193.327 83.3351H191.563V69.9663H195.906V88.5341H192.296L181.058 75.1652H182.822V88.5341H178.479Z" fill="#333333"/>
<path d="M204.337 88.5341V73.4676H198.257V69.9663H214.814V73.4676H208.734V88.5341H204.337Z" fill="#333333"/>
<path d="M110.241 196.725C105.715 196.725 101.787 196.064 98.4571 194.742C95.1274 193.42 92.5522 191.564 90.7313 189.175C88.9104 186.734 88 183.887 88 180.634C88 177.38 88.8844 174.634 90.6533 172.397C92.4221 170.16 94.9714 168.457 98.301 167.288C101.631 166.119 105.611 165.534 110.241 165.534C114.871 165.534 118.851 166.119 122.181 167.288C125.562 168.457 128.137 170.186 129.906 172.474C131.727 174.711 132.638 177.431 132.638 180.634C132.638 183.887 131.701 186.734 129.828 189.175C128.007 191.564 125.406 193.42 122.024 194.742C118.695 196.064 114.767 196.725 110.241 196.725ZM110.241 188.946C113.987 188.946 116.952 188.183 119.137 186.658C121.322 185.133 122.415 183.023 122.415 180.329C122.415 177.685 121.322 175.6 119.137 174.075C116.952 172.55 113.987 171.787 110.241 171.787C106.495 171.787 103.556 172.55 101.422 174.075C99.2895 175.6 98.2229 177.685 98.2229 180.329C98.2229 183.023 99.2895 185.133 101.422 186.658C103.556 188.183 106.495 188.946 110.241 188.946ZM110.241 170.72C106.027 170.72 102.411 170.186 99.3935 169.118C96.3761 168 94.0349 166.398 92.3701 164.314C90.7573 162.178 89.9509 159.636 89.9509 156.688C89.9509 153.637 90.7833 151.019 92.4482 148.833C94.165 146.596 96.5581 144.867 99.6276 143.647C102.697 142.427 106.235 141.817 110.241 141.817C114.299 141.817 117.862 142.427 120.932 143.647C124.001 144.867 126.395 146.596 128.111 148.833C129.828 151.019 130.687 153.637 130.687 156.688C130.687 159.636 129.854 162.178 128.189 164.314C126.577 166.398 124.236 168 121.166 169.118C118.097 170.186 114.455 170.72 110.241 170.72ZM110.241 164.619C113.466 164.619 116.016 163.958 117.888 162.636C119.761 161.263 120.698 159.433 120.698 157.145C120.698 154.756 119.735 152.9 117.81 151.578C115.885 150.256 113.362 149.595 110.241 149.595C107.119 149.595 104.622 150.256 102.749 151.578C100.876 152.9 99.9398 154.756 99.9398 157.145C99.9398 159.433 100.85 161.263 102.671 162.636C104.544 163.958 107.067 164.619 110.241 164.619Z" fill="#333333"/>
<path d="M146.105 195.962L183.407 142.58H191.055L153.753 195.962H146.105ZM150.631 171.33C148.082 171.33 145.819 170.72 143.842 169.5C141.865 168.279 140.33 166.576 139.238 164.39C138.145 162.204 137.599 159.636 137.599 156.688C137.599 153.739 138.145 151.172 139.238 148.985C140.33 146.799 141.865 145.096 143.842 143.876C145.819 142.656 148.082 142.046 150.631 142.046C153.285 142.046 155.574 142.656 157.499 143.876C159.476 145.096 161.01 146.799 162.103 148.985C163.195 151.172 163.742 153.739 163.742 156.688C163.742 159.636 163.195 162.204 162.103 164.39C161.01 166.576 159.476 168.279 157.499 169.5C155.574 170.72 153.285 171.33 150.631 171.33ZM150.709 165.992C152.79 165.992 154.403 165.203 155.548 163.627C156.744 162.001 157.343 159.687 157.343 156.688C157.343 153.688 156.744 151.4 155.548 149.824C154.403 148.197 152.79 147.384 150.709 147.384C148.628 147.384 146.964 148.197 145.715 149.824C144.518 151.451 143.92 153.739 143.92 156.688C143.92 159.636 144.518 161.924 145.715 163.551C146.964 165.178 148.628 165.992 150.709 165.992ZM186.451 196.496C183.901 196.496 181.638 195.886 179.661 194.666C177.684 193.445 176.15 191.742 175.057 189.556C173.965 187.37 173.418 184.802 173.418 181.854C173.418 178.905 173.965 176.338 175.057 174.151C176.15 171.965 177.684 170.262 179.661 169.042C181.638 167.822 183.901 167.212 186.451 167.212C189.104 167.212 191.393 167.822 193.318 169.042C195.295 170.262 196.83 171.965 197.922 174.151C199.015 176.338 199.561 178.905 199.561 181.854C199.561 184.802 199.015 187.37 197.922 189.556C196.83 191.742 195.295 193.445 193.318 194.666C191.393 195.886 189.104 196.496 186.451 196.496ZM186.451 191.158C188.532 191.158 190.171 190.344 191.367 188.717C192.564 187.09 193.162 184.802 193.162 181.854C193.162 178.905 192.564 176.617 191.367 174.99C190.171 173.363 188.532 172.55 186.451 172.55C184.422 172.55 182.783 173.363 181.534 174.99C180.338 176.566 179.739 178.854 179.739 181.854C179.739 184.853 180.338 187.167 181.534 188.793C182.783 190.37 184.422 191.158 186.451 191.158Z" fill="#333333"/>
</svg>
