<svg width="277" height="301" viewBox="0 0 277 301" fill="none" xmlns="http://www.w3.org/2000/svg">
<g clip-path="url(#clip0_9318_97785)">
<path d="M70.7906 301C68.7879 301 66.8392 300.407 65.1443 299.263L4.37884 258.29C2.5813 257.076 1.37755 255.252 0.994288 253.148C0.611029 251.066 1.07526 248.962 2.30061 247.22L45.6736 185.681C47.7519 182.735 51.8814 182.002 54.8827 184.052L116.15 225.926C119.011 227.885 119.826 231.704 118.002 234.623L79.3626 296.318C77.9214 298.621 75.638 300.207 72.939 300.779C72.2211 300.93 71.5031 301.006 70.7906 301.006V301ZM51.1094 185.039C49.6952 185.039 48.3025 185.697 47.4388 186.922L4.06576 248.46C3.17509 249.723 2.84041 251.249 3.11571 252.755C3.3964 254.281 4.27628 255.614 5.588 256.499L66.3534 297.472C68.1618 298.691 70.3426 299.112 72.4964 298.659C74.6178 298.211 76.4045 296.97 77.5381 295.163L116.177 233.468C117.386 231.537 116.841 229.001 114.936 227.696L53.6627 185.832C52.88 185.298 51.9893 185.044 51.104 185.044L51.1094 185.039Z" fill="#3D9BE9"/>
<path d="M110.785 221.119L96.7662 266.77L93.6138 277.047L89.2198 291.349C88.6476 293.215 86.6071 294.262 84.707 293.652L83.4601 293.259L80.7233 292.385L33.6958 277.376L24.3465 274.393L15.2994 271.501C12.5032 270.606 10.7543 268.027 10.8568 265.292C10.8784 264.731 10.9756 264.164 11.1591 263.598L11.537 262.433L23.4774 225.894L27.6932 213L32.9455 196.924C33.5393 195.095 35.5473 194.086 37.415 194.668L83.3359 208.981L106.385 216.161L108.458 216.809C110.31 217.386 111.341 219.301 110.785 221.119Z" fill="white"/>
<path d="M85.8187 294.742C85.3545 294.742 84.8849 294.672 84.4261 294.526L15.0238 272.375C11.9145 271.383 9.82551 268.453 9.94427 265.26C9.96586 264.612 10.0846 263.959 10.2897 263.323L32.0761 196.638C32.8264 194.339 35.3419 193.061 37.6901 193.794L108.733 215.935C111.049 216.658 112.366 219.102 111.659 221.389L90.094 291.619C89.7485 292.746 88.9712 293.674 87.9132 294.224C87.2546 294.57 86.5367 294.742 85.8134 294.742H85.8187ZM36.3352 195.418C35.2124 195.418 34.1706 196.114 33.8143 197.204L12.0279 263.884C11.8714 264.359 11.785 264.844 11.7688 265.324C11.6824 267.709 13.2479 269.888 15.5744 270.633L84.9767 292.784C85.673 293.005 86.4125 292.946 87.0603 292.606C87.6811 292.282 88.1345 291.743 88.3396 291.084L109.905 220.855C110.32 219.512 109.565 218.12 108.183 217.688L37.1449 195.542C36.875 195.461 36.6051 195.418 36.3352 195.418Z" fill="black"/>
<path d="M109.44 217.149C101.607 225.894 102.444 225.894 97.9692 225.894H23.2607L27.4604 213.049C31.9839 211.786 41.7759 210.864 51.8054 210.864C64.3342 210.864 76.2638 209.828 86.1422 208.981L109.445 217.149H109.44Z" fill="black"/>
<path d="M11.542 262.433L33.7008 277.376L24.3515 274.393L10.8564 265.292C10.878 264.731 10.9752 264.164 11.1587 263.598L11.542 262.433Z" fill="black"/>
<path d="M96.7709 266.765L93.6185 277.042L83.4648 293.253L80.7334 292.379L96.7709 266.765Z" fill="black"/>
<path d="M70.7906 301C68.7879 301 66.8392 300.407 65.1443 299.263L4.37884 258.289C2.5813 257.075 1.37755 255.252 0.994288 253.148C0.611029 251.066 1.07526 248.962 2.30061 247.219L11.121 234.698L12.8861 235.939L4.06576 248.46C3.17509 249.722 2.84041 251.249 3.11571 252.754C3.3964 254.281 4.27628 255.613 5.588 256.498L66.3534 297.472C68.1618 298.691 70.3426 299.112 72.4964 298.659C74.6178 298.211 76.4045 296.97 77.5381 295.163L102.844 254.766L104.674 255.91L79.368 296.306C77.9268 298.61 75.6434 300.196 72.9444 300.768C72.2265 300.919 71.5085 300.995 70.796 300.995L70.7906 301Z" fill="#3D9BE9"/>
<path d="M22.1381 230.539C22.1381 230.539 19.655 228.186 17.1665 226.109C14.6834 224.032 15.7469 219.528 15.7469 207.4C15.7469 203.937 16.1031 204.282 38.1 204.282H110.876C120.409 204.282 117.251 205.857 108.717 214.424C100.188 222.991 99.8425 223.978 96.2906 223.978H24.0976L22.1381 230.539Z" fill="#3D9BE9"/>
<path d="M20.3566 226.287C19.6711 225.618 18.91 224.669 19.1907 223.978C19.2716 223.773 19.5145 223.434 20.1785 223.434H26.9962V224.534H20.3242C20.4808 224.798 20.7993 225.187 21.1231 225.505L20.3566 226.293V226.287Z" fill="black"/>
<path d="M22.7319 232.518L21.4688 231.181C21.4688 231.181 19.1206 228.699 16.7023 226.67C14.6133 224.923 14.6997 222.009 14.8778 215.616C14.9426 213.405 15.0181 210.653 15.0181 207.395C15.0181 206.478 15.0181 205.534 15.7199 204.832C17.037 203.516 20.0383 203.521 32.6211 203.543C34.2782 203.543 36.0974 203.548 38.1 203.548H110.876C115.373 203.548 116.884 203.894 117.343 205.021C117.92 206.44 116.209 208.107 112.458 211.765C111.502 212.698 110.423 213.75 109.235 214.942C107.956 216.226 106.86 217.343 105.91 218.308C100.458 223.86 99.6158 224.712 96.2906 224.712H24.5078L22.7319 230.781V232.518ZM28.8856 205C20.9721 205 17.5336 205.091 16.7563 205.868C16.5242 206.1 16.4864 206.51 16.4864 207.395C16.4864 210.669 16.4054 213.437 16.346 215.66C16.1787 221.562 16.1031 224.254 17.647 225.548C19.234 226.875 20.74 228.343 21.6577 229.265L23.4174 223.245H96.3014C98.9518 223.245 99.4269 222.824 104.873 217.278C105.824 216.312 106.925 215.19 108.204 213.906C109.392 212.714 110.477 211.651 111.443 210.718C113.732 208.49 116.096 206.181 115.988 205.566C115.853 205.366 115.006 205.016 110.881 205.016H38.1054C36.1028 205.016 34.2836 205.016 32.6265 205.01C31.2823 205.01 30.0408 205.01 28.891 205.01L28.8856 205Z" fill="black"/>
<path d="M18.9208 208.215L18.5052 207.853L18.1543 207.427C18.8344 206.762 23.9248 206.44 33.4253 206.461C36.9826 206.472 41.4413 206.483 47.0445 206.483V207.584C41.4413 207.584 36.9772 207.573 33.4199 207.562C19.8763 207.53 19.6064 207.54 18.9208 208.215Z" fill="white"/>
<path d="M67.5407 206.456H55.1631V207.557H67.5407V206.456Z" fill="white"/>
<path d="M81.4736 206.456H75.3145V207.557H81.4736V206.456Z" fill="white"/>
<path d="M109.019 206.456H87.7402V207.557H109.019V206.456Z" fill="white"/>
<path d="M15.6499 222.651C16.2599 225.619 19.0615 226.708 20.1789 227.259C21.2963 227.803 22.7267 227.259 22.2895 225.894C21.8522 224.529 20.4542 224.254 20.1789 225.349C20.1789 225.349 18.9859 223.978 20.2814 223.984C21.5769 223.984 24.0978 223.984 24.0978 223.984L21.998 230.679C21.998 230.679 18.3543 227.442 17.0264 225.985C15.7039 224.529 15.6445 222.657 15.6445 222.657L15.6499 222.651Z" fill="black"/>
<path d="M27.7734 218.67V211.02H31.3307C32.1836 211.02 32.9339 211.182 33.5817 211.5C34.2295 211.813 34.7369 212.255 35.1039 212.822C35.471 213.388 35.6545 214.063 35.6545 214.845C35.6545 215.627 35.471 216.291 35.1039 216.868C34.7369 217.434 34.2295 217.882 33.5817 218.201C32.9339 218.513 32.1836 218.67 31.3307 218.67H27.7734ZM29.5818 217.213H31.239C31.7626 217.213 32.2106 217.116 32.5939 216.927C32.9825 216.733 33.2794 216.453 33.4899 216.097C33.7059 215.74 33.8138 215.32 33.8138 214.84C33.8138 214.359 33.7059 213.933 33.4899 213.583C33.2794 213.226 32.9825 212.951 32.5939 212.763C32.2106 212.568 31.7626 212.466 31.239 212.466H29.5818V217.208V217.213Z" fill="black"/>
<path d="M37.0205 218.67V211.02H38.8342V218.67H37.0205Z" fill="black"/>
<path d="M43.2664 218.799C42.6402 218.799 42.041 218.719 41.4635 218.557C40.8913 218.389 40.427 218.174 40.0762 217.915L40.6915 216.582C41.0262 216.814 41.4203 217.008 41.8791 217.159C42.3433 217.305 42.8076 217.375 43.2772 217.375C43.6335 217.375 43.925 217.343 44.1409 217.278C44.3622 217.203 44.5295 217.106 44.6321 216.981C44.7347 216.857 44.7886 216.717 44.7886 216.555C44.7886 216.35 44.7077 216.188 44.5403 216.075C44.3784 215.951 44.1571 215.854 43.8926 215.778C43.6227 215.697 43.3258 215.627 42.9965 215.557C42.678 215.487 42.3487 215.395 42.0249 215.293C41.7064 215.19 41.4095 215.061 41.1396 214.899C40.8697 214.737 40.6484 214.527 40.481 214.262C40.3191 213.998 40.2327 213.664 40.2327 213.259C40.2327 212.822 40.3515 212.423 40.589 212.067C40.8373 211.7 41.199 211.414 41.6848 211.204C42.176 210.982 42.7914 210.875 43.5309 210.875C44.0221 210.875 44.5079 210.934 44.9884 211.047C45.4688 211.155 45.8898 211.322 46.2515 211.549L45.6901 212.892C45.323 212.687 44.9614 212.536 44.5943 212.444C44.2272 212.342 43.871 212.293 43.5201 212.293C43.1692 212.293 42.8831 212.331 42.6564 212.412C42.4351 212.493 42.2732 212.595 42.176 212.73C42.0788 212.854 42.0302 213 42.0302 213.167C42.0302 213.362 42.1112 213.523 42.2786 213.647C42.4405 213.766 42.6618 213.858 42.9263 213.933C43.1962 214.003 43.4877 214.079 43.8116 214.155C44.1409 214.23 44.4648 214.311 44.7832 214.408C45.1125 214.505 45.4094 214.629 45.6793 214.791C45.9492 214.953 46.1651 215.163 46.3271 215.428C46.4998 215.692 46.5862 216.021 46.5862 216.42C46.5862 216.852 46.462 217.246 46.2191 217.602C45.9708 217.958 45.6037 218.249 45.1125 218.465C44.6267 218.681 44.0113 218.794 43.2664 218.794V218.799Z" fill="black"/>
<path d="M51.5788 218.799C50.9742 218.799 50.4128 218.702 49.8892 218.514C49.3764 218.319 48.9284 218.039 48.5451 217.683C48.1618 217.327 47.8649 216.906 47.649 216.426C47.4385 215.946 47.3359 215.417 47.3359 214.84C47.3359 214.262 47.4385 213.734 47.649 213.254C47.8649 212.773 48.1618 212.353 48.5451 211.997C48.9337 211.641 49.3818 211.365 49.9 211.177C50.4128 210.982 50.9796 210.88 51.5896 210.88C52.2697 210.88 52.8797 210.999 53.4249 211.231C53.9755 211.457 54.4397 211.792 54.8122 212.234L53.6462 213.286C53.3763 212.989 53.0794 212.763 52.7501 212.617C52.4209 212.466 52.0646 212.385 51.6759 212.385C51.3089 212.385 50.9742 212.444 50.6665 212.558C50.3588 212.676 50.0943 212.844 49.873 213.059C49.6517 213.281 49.4736 213.534 49.3494 213.836C49.2306 214.133 49.1713 214.467 49.1713 214.829C49.1713 215.19 49.2306 215.525 49.3494 215.822C49.4736 216.118 49.6517 216.377 49.873 216.598C50.0943 216.814 50.3642 216.987 50.6665 217.1C50.9742 217.219 51.3089 217.273 51.6759 217.273C52.0646 217.273 52.4209 217.197 52.7501 217.052C53.0794 216.9 53.3763 216.669 53.6462 216.361L54.8122 217.408C54.4397 217.85 53.9755 218.19 53.4249 218.427C52.8797 218.659 52.2643 218.778 51.5788 218.778V218.799Z" fill="black"/>
<path d="M59.6757 218.799C59.055 218.799 58.4828 218.702 57.9538 218.503C57.4301 218.309 56.9767 218.028 56.5881 217.672C56.2102 217.316 55.9079 216.895 55.692 216.415C55.4815 215.935 55.3789 215.412 55.3789 214.84C55.3789 214.268 55.4815 213.745 55.692 213.264C55.9079 212.784 56.2102 212.363 56.5989 212.007C56.9875 211.651 57.4409 211.371 57.9646 211.177C58.4882 210.982 59.055 210.88 59.6649 210.88C60.2749 210.88 60.8525 210.977 61.3653 211.177C61.8889 211.371 62.3369 211.651 62.7202 212.007C63.1089 212.363 63.4111 212.784 63.6271 213.264C63.843 213.739 63.9509 214.262 63.9509 214.84C63.9509 215.417 63.843 215.935 63.6271 216.426C63.4111 216.906 63.1089 217.327 62.7202 217.683C62.3423 218.033 61.8889 218.303 61.3653 218.503C60.8525 218.702 60.2857 218.799 59.6757 218.799ZM59.6649 217.294C60.0158 217.294 60.3343 217.235 60.6258 217.122C60.9227 217.003 61.1872 216.836 61.4085 216.62C61.6298 216.399 61.8025 216.14 61.9213 215.843C62.0455 215.546 62.1102 215.212 62.1102 214.85C62.1102 214.489 62.0455 214.155 61.9213 213.858C61.8025 213.561 61.6298 213.302 61.4085 213.081C61.1926 212.86 60.9335 212.693 60.6366 212.579C60.3397 212.461 60.0104 212.407 59.6649 212.407C59.3195 212.407 58.9902 212.466 58.6933 212.579C58.4018 212.698 58.1427 212.865 57.9214 213.081C57.6947 213.302 57.5219 213.556 57.3978 213.858C57.279 214.155 57.2196 214.489 57.2196 214.85C57.2196 215.212 57.279 215.541 57.3978 215.843C57.5219 216.14 57.6947 216.399 57.9106 216.62C58.1319 216.836 58.3964 217.008 58.6933 217.122C58.9902 217.24 59.3141 217.294 59.6649 217.294Z" fill="black"/>
<path d="M68.7984 218.799C67.6865 218.799 66.8174 218.497 66.1912 217.893C65.565 217.289 65.252 216.426 65.252 215.303V211.02H67.0657V215.239C67.0657 215.967 67.2168 216.49 67.5245 216.814C67.8322 217.138 68.2586 217.294 68.8146 217.294C69.3706 217.294 69.7971 217.132 70.0994 216.814C70.4071 216.496 70.5582 215.967 70.5582 215.239V211.02H72.3503V215.303C72.3503 216.426 72.0373 217.289 71.4111 217.893C70.7849 218.497 69.9158 218.799 68.8038 218.799H68.7984Z" fill="black"/>
<path d="M74.1377 218.67V211.02H75.6383L80.259 216.528H79.5303V211.02H81.3224V218.67H79.8326L75.2011 213.162H75.9298V218.67H74.1377Z" fill="black"/>
<path d="M84.7986 218.67V212.46H82.2939V211.02H89.1224V212.46H86.6124V218.67H84.7986Z" fill="black"/>
<path d="M46.1176 260.908C44.2688 260.908 42.6648 260.637 41.2979 260.088C39.939 259.547 38.8881 258.782 38.1375 257.795C37.3948 256.792 37.0234 255.614 37.0234 254.277C37.0234 252.939 37.3869 251.809 38.1059 250.885C38.8328 249.962 39.8678 249.262 41.2347 248.784C42.6016 248.306 44.2214 248.059 46.1176 248.059C48.0139 248.059 49.6336 248.298 51.0005 248.784C52.3832 249.262 53.4341 249.978 54.161 250.917C54.9037 251.841 55.275 252.955 55.275 254.277C55.275 255.598 54.8958 256.792 54.1294 257.795C53.3867 258.782 52.32 259.547 50.9373 260.088C49.5783 260.629 47.9744 260.908 46.1176 260.908ZM46.1176 257.708C47.6504 257.708 48.8593 257.389 49.7522 256.768C50.645 256.139 51.0953 255.272 51.0953 254.165C51.0953 253.059 50.645 252.215 49.7522 251.586C48.8593 250.957 47.6504 250.647 46.1176 250.647C44.5848 250.647 43.3838 250.957 42.5147 251.586C41.6456 252.215 41.2031 253.075 41.2031 254.165C41.2031 255.256 41.6377 256.139 42.5147 256.768C43.3838 257.397 44.5848 257.708 46.1176 257.708ZM46.1176 250.201C44.3952 250.201 42.9177 249.978 41.6851 249.54C40.4525 249.078 39.4965 248.418 38.817 247.558C38.1612 246.682 37.8294 245.632 37.8294 244.421C37.8294 243.211 38.1691 242.089 38.8486 241.189C39.5518 240.266 40.5315 239.558 41.7799 239.056C43.0362 238.555 44.4821 238.3 46.1176 238.3C47.7532 238.3 49.2307 238.555 50.487 239.056C51.7432 239.558 52.723 240.274 53.4183 241.189C54.1215 242.089 54.4691 243.172 54.4691 244.421C54.4691 245.671 54.1294 246.682 53.4499 247.558C52.7941 248.418 51.8301 249.078 50.5818 249.54C49.3255 249.978 47.8401 250.201 46.1176 250.201ZM46.1176 247.685C47.4371 247.685 48.4801 247.415 49.2465 246.865C50.0129 246.3 50.3921 245.544 50.3921 244.605C50.3921 243.665 49.9971 242.853 49.2149 242.312C48.4248 241.771 47.3976 241.492 46.1176 241.492C44.8376 241.492 43.8184 241.763 43.052 242.312C42.2856 242.853 41.9063 243.617 41.9063 244.605C41.9063 245.592 42.2777 246.3 43.0204 246.865C43.7868 247.407 44.8139 247.685 46.1176 247.685Z" fill="black"/>
<path d="M60.7743 260.598L76.0234 238.611H79.1523L63.9031 260.598H60.7743ZM62.631 250.456C61.5881 250.456 60.6636 250.201 59.8577 249.7C59.0518 249.198 58.4197 248.498 57.9773 247.598C57.5269 246.699 57.3057 245.64 57.3057 244.422C57.3057 243.204 57.5269 242.153 57.9773 241.246C58.4276 240.346 59.0518 239.645 59.8577 239.144C60.6636 238.642 61.5881 238.388 62.631 238.388C63.674 238.388 64.6537 238.634 65.4359 239.144C66.2418 239.645 66.8739 240.346 67.3164 241.246C67.7668 242.145 67.988 243.204 67.988 244.422C67.988 245.64 67.7668 246.691 67.3164 247.598C66.866 248.498 66.2418 249.198 65.4359 249.7C64.6458 250.201 63.7135 250.456 62.631 250.456ZM62.6626 248.251C63.5159 248.251 64.1717 247.924 64.6379 247.28C65.1278 246.611 65.3727 245.656 65.3727 244.422C65.3727 243.188 65.1278 242.241 64.6379 241.596C64.1717 240.927 63.508 240.593 62.6626 240.593C61.8172 240.593 61.1298 240.927 60.6241 241.596C60.1343 242.264 59.8893 243.212 59.8893 244.422C59.8893 245.632 60.1343 246.579 60.6241 247.248C61.1377 247.917 61.8172 248.251 62.6626 248.251ZM77.2718 260.821C76.2289 260.821 75.3044 260.566 74.4985 260.064C73.6926 259.563 73.0605 258.862 72.618 257.963C72.1677 257.063 71.9464 256.004 71.9464 254.786C71.9464 253.569 72.1677 252.518 72.618 251.61C73.0684 250.711 73.6926 250.01 74.4985 249.509C75.3044 249.007 76.2289 248.752 77.2718 248.752C78.3148 248.752 79.2945 249.007 80.0767 249.509C80.8826 250.01 81.5147 250.711 81.9572 251.61C82.3996 252.51 82.6288 253.569 82.6288 254.786C82.6288 256.004 82.4075 257.055 81.9572 257.963C81.5068 258.862 80.8826 259.563 80.0767 260.064C79.2866 260.566 78.3543 260.821 77.2718 260.821ZM77.2718 258.616C78.1251 258.616 78.7888 258.281 79.2787 257.613C79.7686 256.944 80.0135 255.997 80.0135 254.786C80.0135 253.576 79.7686 252.629 79.2787 251.96C78.7888 251.292 78.1172 250.957 77.2718 250.957C76.4264 250.957 75.7706 251.292 75.2649 251.96C74.775 252.613 74.5301 253.553 74.5301 254.786C74.5301 256.02 74.775 256.976 75.2649 257.644C75.7785 258.297 76.4422 258.616 77.2718 258.616Z" fill="black"/>
</g>
<g clip-path="url(#clip1_9318_97785)">
<path d="M227.959 301C225.956 301 224.007 300.407 222.312 299.263L161.547 258.29C159.749 257.076 158.546 255.252 158.162 253.148C157.779 251.066 158.243 248.962 159.469 247.22L202.842 185.681C204.92 182.735 209.049 182.002 212.051 184.052L273.318 225.926C276.179 227.885 276.994 231.704 275.17 234.623L236.531 296.318C235.089 298.621 232.806 300.207 230.107 300.779C229.389 300.93 228.671 301.006 227.959 301.006V301ZM208.277 185.039C206.863 185.039 205.47 185.697 204.607 186.922L161.234 248.46C160.343 249.723 160.008 251.249 160.284 252.755C160.564 254.281 161.444 255.614 162.756 256.499L223.521 297.472C225.33 298.691 227.511 299.112 229.664 298.659C231.786 298.211 233.572 296.97 234.706 295.163L273.345 233.468C274.554 231.537 274.009 229.001 272.104 227.696L210.831 185.832C210.048 185.298 209.157 185.044 208.272 185.044L208.277 185.039Z" fill="#3D9BE9"/>
<path d="M267.953 221.119L253.934 266.77L250.782 277.047L246.388 291.349C245.816 293.215 243.775 294.262 241.875 293.652L240.628 293.259L237.891 292.385L190.864 277.376L181.514 274.393L172.467 271.501C169.671 270.606 167.922 268.027 168.025 265.292C168.046 264.731 168.144 264.164 168.327 263.598L168.705 262.433L180.645 225.894L184.861 213L190.113 196.924C190.707 195.095 192.715 194.086 194.583 194.668L240.504 208.981L263.553 216.161L265.626 216.809C267.478 217.386 268.509 219.301 267.953 221.119Z" fill="white"/>
<path d="M242.987 294.742C242.522 294.742 242.053 294.672 241.594 294.526L172.192 272.375C169.083 271.383 166.993 268.453 167.112 265.26C167.134 264.612 167.253 263.959 167.458 263.323L189.244 196.638C189.994 194.339 192.51 193.061 194.858 193.794L265.901 215.935C268.217 216.658 269.534 219.102 268.827 221.389L247.262 291.619C246.916 292.746 246.139 293.674 245.081 294.224C244.423 294.57 243.705 294.742 242.981 294.742H242.987ZM193.503 195.418C192.38 195.418 191.339 196.114 190.982 197.204L169.196 263.884C169.039 264.359 168.953 264.844 168.937 265.324C168.85 267.709 170.416 269.888 172.742 270.633L242.145 292.784C242.841 293.005 243.58 292.946 244.228 292.606C244.849 292.282 245.302 291.743 245.508 291.084L267.073 220.855C267.488 219.512 266.733 218.12 265.351 217.688L194.313 195.542C194.043 195.461 193.773 195.418 193.503 195.418Z" fill="black"/>
<path d="M266.608 217.149C258.775 225.894 259.612 225.894 255.137 225.894H180.429L184.628 213.049C189.152 211.786 198.944 210.864 208.973 210.864C221.502 210.864 233.432 209.828 243.31 208.981L266.613 217.149H266.608Z" fill="black"/>
<path d="M168.71 262.433L190.869 277.376L181.519 274.393L168.024 265.292C168.046 264.731 168.143 264.164 168.327 263.598L168.71 262.433Z" fill="black"/>
<path d="M253.939 266.765L250.786 277.042L240.633 293.253L237.901 292.379L253.939 266.765Z" fill="black"/>
<path d="M227.959 301C225.956 301 224.007 300.407 222.312 299.263L161.547 258.289C159.749 257.075 158.546 255.252 158.162 253.148C157.779 251.066 158.243 248.962 159.469 247.219L168.289 234.698L170.054 235.939L161.234 248.46C160.343 249.722 160.008 251.249 160.284 252.754C160.564 254.281 161.444 255.613 162.756 256.498L223.521 297.472C225.33 298.691 227.511 299.112 229.664 298.659C231.786 298.211 233.572 296.97 234.706 295.163L260.012 254.766L261.842 255.91L236.536 296.306C235.095 298.61 232.811 300.196 230.112 300.768C229.394 300.919 228.676 300.995 227.964 300.995L227.959 301Z" fill="#3D9BE9"/>
<path d="M179.306 230.539C179.306 230.539 176.823 228.186 174.335 226.109C171.851 224.032 172.915 219.528 172.915 207.4C172.915 203.937 173.271 204.282 195.268 204.282H268.044C277.577 204.282 274.419 205.857 265.885 214.424C257.356 222.991 257.01 223.978 253.459 223.978H181.266L179.306 230.539Z" fill="#3D9BE9"/>
<path d="M177.525 226.287C176.839 225.618 176.078 224.669 176.359 223.978C176.44 223.773 176.683 223.434 177.346 223.434H184.164V224.534H177.492C177.649 224.798 177.967 225.187 178.291 225.505L177.525 226.293V226.287Z" fill="black"/>
<path d="M179.9 232.518L178.637 231.181C178.637 231.181 176.289 228.699 173.87 226.67C171.781 224.923 171.868 222.009 172.046 215.616C172.111 213.405 172.186 210.653 172.186 207.395C172.186 206.478 172.186 205.534 172.888 204.832C174.205 203.516 177.206 203.521 189.789 203.543C191.446 203.543 193.265 203.548 195.268 203.548H268.044C272.541 203.548 274.052 203.894 274.511 205.021C275.088 206.44 273.377 208.107 269.626 211.765C268.67 212.698 267.591 213.75 266.403 214.942C265.124 216.226 264.028 217.343 263.078 218.308C257.626 223.86 256.784 224.712 253.459 224.712H181.676L179.9 230.781V232.518ZM186.054 205C178.14 205 174.702 205.091 173.924 205.868C173.692 206.1 173.654 206.51 173.654 207.395C173.654 210.669 173.573 213.437 173.514 215.66C173.347 221.562 173.271 224.254 174.815 225.548C176.402 226.875 177.908 228.343 178.826 229.265L180.585 223.245H253.469C256.12 223.245 256.595 222.824 262.041 217.278C262.991 216.312 264.093 215.19 265.372 213.906C266.56 212.714 267.645 211.651 268.611 210.718C270.9 208.49 273.264 206.181 273.156 205.566C273.021 205.366 272.174 205.016 268.049 205.016H195.273C193.271 205.016 191.452 205.016 189.794 205.01C188.45 205.01 187.209 205.01 186.059 205.01L186.054 205Z" fill="black"/>
<path d="M176.089 208.215L175.673 207.853L175.322 207.427C176.002 206.762 181.093 206.44 190.593 206.461C194.151 206.472 198.609 206.483 204.212 206.483V207.584C198.609 207.584 194.145 207.573 190.588 207.562C177.044 207.53 176.774 207.54 176.089 208.215Z" fill="white"/>
<path d="M224.709 206.456H212.331V207.557H224.709V206.456Z" fill="white"/>
<path d="M238.642 206.456H232.482V207.557H238.642V206.456Z" fill="white"/>
<path d="M266.187 206.456H244.908V207.557H266.187V206.456Z" fill="white"/>
<path d="M172.818 222.651C173.428 225.619 176.229 226.708 177.347 227.259C178.464 227.803 179.895 227.259 179.457 225.894C179.02 224.529 177.622 224.254 177.347 225.349C177.347 225.349 176.154 223.978 177.449 223.984C178.745 223.984 181.266 223.984 181.266 223.984L179.166 230.679C179.166 230.679 175.522 227.442 174.194 225.985C172.872 224.529 172.812 222.657 172.812 222.657L172.818 222.651Z" fill="black"/>
<path d="M184.941 218.67V211.02H188.499C189.352 211.02 190.102 211.182 190.75 211.5C191.397 211.813 191.905 212.255 192.272 212.822C192.639 213.388 192.823 214.063 192.823 214.845C192.823 215.627 192.639 216.291 192.272 216.868C191.905 217.434 191.397 217.882 190.75 218.201C190.102 218.513 189.352 218.67 188.499 218.67H184.941ZM186.75 217.213H188.407C188.931 217.213 189.379 217.116 189.762 216.927C190.15 216.733 190.447 216.453 190.658 216.097C190.874 215.74 190.982 215.32 190.982 214.84C190.982 214.359 190.874 213.933 190.658 213.583C190.447 213.226 190.15 212.951 189.762 212.763C189.379 212.568 188.931 212.466 188.407 212.466H186.75V217.208V217.213Z" fill="black"/>
<path d="M194.188 218.67V211.02H196.002V218.67H194.188Z" fill="black"/>
<path d="M200.434 218.799C199.808 218.799 199.209 218.719 198.631 218.557C198.059 218.389 197.595 218.174 197.244 217.915L197.86 216.582C198.194 216.814 198.588 217.008 199.047 217.159C199.511 217.305 199.976 217.375 200.445 217.375C200.801 217.375 201.093 217.343 201.309 217.278C201.53 217.203 201.697 217.106 201.8 216.981C201.903 216.857 201.957 216.717 201.957 216.555C201.957 216.35 201.876 216.188 201.708 216.075C201.546 215.951 201.325 215.854 201.061 215.778C200.791 215.697 200.494 215.627 200.164 215.557C199.846 215.487 199.517 215.395 199.193 215.293C198.874 215.19 198.577 215.061 198.308 214.899C198.038 214.737 197.816 214.527 197.649 214.262C197.487 213.998 197.401 213.664 197.401 213.259C197.401 212.822 197.519 212.423 197.757 212.067C198.005 211.7 198.367 211.414 198.853 211.204C199.344 210.982 199.959 210.875 200.699 210.875C201.19 210.875 201.676 210.934 202.156 211.047C202.637 211.155 203.058 211.322 203.419 211.549L202.858 212.892C202.491 212.687 202.129 212.536 201.762 212.444C201.395 212.342 201.039 212.293 200.688 212.293C200.337 212.293 200.051 212.331 199.824 212.412C199.603 212.493 199.441 212.595 199.344 212.73C199.247 212.854 199.198 213 199.198 213.167C199.198 213.362 199.279 213.523 199.447 213.647C199.608 213.766 199.83 213.858 200.094 213.933C200.364 214.003 200.656 214.079 200.98 214.155C201.309 214.23 201.633 214.311 201.951 214.408C202.28 214.505 202.577 214.629 202.847 214.791C203.117 214.953 203.333 215.163 203.495 215.428C203.668 215.692 203.754 216.021 203.754 216.42C203.754 216.852 203.63 217.246 203.387 217.602C203.139 217.958 202.772 218.249 202.28 218.465C201.795 218.681 201.179 218.794 200.434 218.794V218.799Z" fill="black"/>
<path d="M208.747 218.799C208.142 218.799 207.581 218.702 207.057 218.514C206.544 218.319 206.096 218.039 205.713 217.683C205.33 217.327 205.033 216.906 204.817 216.426C204.606 215.946 204.504 215.417 204.504 214.84C204.504 214.262 204.606 213.734 204.817 213.254C205.033 212.773 205.33 212.353 205.713 211.997C206.102 211.641 206.55 211.365 207.068 211.177C207.581 210.982 208.148 210.88 208.758 210.88C209.438 210.88 210.048 210.999 210.593 211.231C211.143 211.457 211.608 211.792 211.98 212.234L210.814 213.286C210.544 212.989 210.247 212.763 209.918 212.617C209.589 212.466 209.233 212.385 208.844 212.385C208.477 212.385 208.142 212.444 207.834 212.558C207.527 212.676 207.262 212.844 207.041 213.059C206.82 213.281 206.642 213.534 206.517 213.836C206.399 214.133 206.339 214.467 206.339 214.829C206.339 215.19 206.399 215.525 206.517 215.822C206.642 216.118 206.82 216.377 207.041 216.598C207.262 216.814 207.532 216.987 207.834 217.1C208.142 217.219 208.477 217.273 208.844 217.273C209.233 217.273 209.589 217.197 209.918 217.052C210.247 216.9 210.544 216.669 210.814 216.361L211.98 217.408C211.608 217.85 211.143 218.19 210.593 218.427C210.048 218.659 209.432 218.778 208.747 218.778V218.799Z" fill="black"/>
<path d="M216.844 218.799C216.223 218.799 215.651 218.702 215.122 218.503C214.598 218.309 214.145 218.028 213.756 217.672C213.378 217.316 213.076 216.895 212.86 216.415C212.649 215.935 212.547 215.412 212.547 214.84C212.547 214.268 212.649 213.745 212.86 213.264C213.076 212.784 213.378 212.363 213.767 212.007C214.155 211.651 214.609 211.371 215.133 211.177C215.656 210.982 216.223 210.88 216.833 210.88C217.443 210.88 218.02 210.977 218.533 211.177C219.057 211.371 219.505 211.651 219.888 212.007C220.277 212.363 220.579 212.784 220.795 213.264C221.011 213.739 221.119 214.262 221.119 214.84C221.119 215.417 221.011 215.935 220.795 216.426C220.579 216.906 220.277 217.327 219.888 217.683C219.51 218.033 219.057 218.303 218.533 218.503C218.02 218.702 217.454 218.799 216.844 218.799ZM216.833 217.294C217.184 217.294 217.502 217.235 217.794 217.122C218.091 217.003 218.355 216.836 218.576 216.62C218.798 216.399 218.971 216.14 219.089 215.843C219.213 215.546 219.278 215.212 219.278 214.85C219.278 214.489 219.213 214.155 219.089 213.858C218.971 213.561 218.798 213.302 218.576 213.081C218.361 212.86 218.101 212.693 217.805 212.579C217.508 212.461 217.178 212.407 216.833 212.407C216.487 212.407 216.158 212.466 215.861 212.579C215.57 212.698 215.311 212.865 215.089 213.081C214.863 213.302 214.69 213.556 214.566 213.858C214.447 214.155 214.388 214.489 214.388 214.85C214.388 215.212 214.447 215.541 214.566 215.843C214.69 216.14 214.863 216.399 215.079 216.62C215.3 216.836 215.564 217.008 215.861 217.122C216.158 217.24 216.482 217.294 216.833 217.294Z" fill="black"/>
<path d="M225.966 218.799C224.854 218.799 223.985 218.497 223.359 217.893C222.733 217.289 222.42 216.426 222.42 215.303V211.02H224.234V215.239C224.234 215.967 224.385 216.49 224.692 216.814C225 217.138 225.427 217.294 225.983 217.294C226.539 217.294 226.965 217.132 227.267 216.814C227.575 216.496 227.726 215.967 227.726 215.239V211.02H229.518V215.303C229.518 216.426 229.205 217.289 228.579 217.893C227.953 218.497 227.084 218.799 225.972 218.799H225.966Z" fill="black"/>
<path d="M231.306 218.67V211.02H232.806L237.427 216.528H236.698V211.02H238.49V218.67H237.001L232.369 213.162H233.098V218.67H231.306Z" fill="black"/>
<path d="M241.967 218.67V212.46H239.462V211.02H246.29V212.46H243.78V218.67H241.967Z" fill="black"/>
<path d="M193.028 259.827V240.287L194.782 242.062H188.472V238.787H197.028V259.832H193.028V259.827Z" fill="black"/>
<path d="M210.29 260.129C208.59 260.129 207.046 259.709 205.675 258.867C204.32 258.025 203.251 256.801 202.474 255.198C201.697 253.575 201.303 251.611 201.303 249.307C201.303 247.004 201.691 245.051 202.474 243.443C203.251 241.819 204.32 240.589 205.675 239.748C207.052 238.906 208.59 238.485 210.29 238.485C211.991 238.485 213.551 238.906 214.906 239.748C216.261 240.589 217.324 241.819 218.107 243.443C218.906 245.045 219.305 246.998 219.305 249.307C219.305 251.616 218.906 253.575 218.107 255.198C217.324 256.801 216.261 258.025 214.906 258.867C213.551 259.709 212.012 260.129 210.29 260.129ZM210.29 256.731C211.294 256.731 212.169 256.472 212.908 255.948C213.648 255.409 214.22 254.583 214.63 253.483C215.062 252.382 215.278 250.991 215.278 249.302C215.278 247.613 215.062 246.205 214.63 245.121C214.22 244.02 213.643 243.206 212.908 242.688C212.169 242.148 211.3 241.873 210.29 241.873C209.281 241.873 208.466 242.143 207.705 242.688C206.965 243.211 206.382 244.02 205.95 245.121C205.54 246.205 205.335 247.597 205.335 249.302C205.335 251.007 205.54 252.377 205.95 253.483C206.382 254.583 206.965 255.409 207.705 255.948C208.466 256.472 209.324 256.731 210.29 256.731Z" fill="black"/>
<path d="M225.028 259.827L239.743 238.782H242.76L228.045 259.827H225.028ZM226.815 250.116C225.811 250.116 224.915 249.873 224.137 249.393C223.36 248.913 222.75 248.239 222.324 247.381C221.892 246.518 221.676 245.509 221.676 244.344C221.676 243.178 221.892 242.17 222.324 241.306C222.755 240.443 223.36 239.774 224.137 239.294C224.92 238.814 225.811 238.571 226.815 238.571C227.819 238.571 228.763 238.814 229.524 239.294C230.302 239.774 230.912 240.449 231.338 241.306C231.77 242.17 231.986 243.178 231.986 244.344C231.986 245.509 231.77 246.518 231.338 247.381C230.906 248.244 230.302 248.913 229.524 249.393C228.763 249.873 227.862 250.116 226.815 250.116ZM226.847 248.012C227.668 248.012 228.305 247.699 228.753 247.079C229.228 246.437 229.46 245.525 229.46 244.344C229.46 243.162 229.222 242.261 228.753 241.641C228.299 240.999 227.668 240.681 226.847 240.681C226.027 240.681 225.368 241.004 224.877 241.641C224.402 242.283 224.17 243.184 224.17 244.344C224.17 245.504 224.407 246.41 224.877 247.052C225.368 247.694 226.027 248.012 226.847 248.012ZM240.941 260.037C239.937 260.037 239.041 259.794 238.264 259.314C237.487 258.834 236.877 258.16 236.45 257.302C236.018 256.439 235.802 255.43 235.802 254.265C235.802 253.1 236.018 252.091 236.45 251.228C236.882 250.364 237.487 249.695 238.264 249.215C239.041 248.735 239.937 248.492 240.941 248.492C241.945 248.492 242.89 248.735 243.651 249.215C244.434 249.695 245.038 250.37 245.465 251.228C245.897 252.091 246.113 253.1 246.113 254.265C246.113 255.43 245.897 256.439 245.465 257.302C245.033 258.165 244.428 258.834 243.651 259.314C242.89 259.794 241.989 260.037 240.941 260.037ZM240.941 257.933C241.762 257.933 242.41 257.61 242.879 256.973C243.349 256.331 243.586 255.43 243.586 254.27C243.586 253.11 243.349 252.204 242.879 251.567C242.404 250.925 241.762 250.607 240.941 250.607C240.121 250.607 239.495 250.925 239.003 251.567C238.534 252.188 238.296 253.089 238.296 254.27C238.296 255.452 238.534 256.363 239.003 257.005C239.495 257.626 240.142 257.939 240.941 257.939V257.933Z" fill="black"/>
</g>
<g clip-path="url(#clip2_9318_97785)">
<path d="M155.081 184.791C151.988 184.791 148.981 183.875 146.362 182.111L51.033 117.825C48.2721 115.963 46.4212 113.16 45.8309 109.928C45.2406 106.726 45.9539 103.494 47.8417 100.82L115.887 4.27061C119.066 -0.240087 125.387 -1.35854 129.974 1.77559L226.096 67.4696C230.474 70.4623 231.717 76.3004 228.925 80.762L168.301 177.558C166.076 181.116 162.552 183.555 158.389 184.44C157.282 184.674 156.176 184.791 155.075 184.791H155.081ZM124.201 2.86332C121.901 2.86332 119.638 3.93262 118.23 5.92372L50.1844 102.474C48.7456 104.514 48.2044 106.978 48.6533 109.412C49.1084 111.876 50.5226 114.021 52.6379 115.453L147.973 179.739C150.869 181.693 154.362 182.369 157.805 181.638C161.199 180.919 164.071 178.934 165.879 176.04L226.502 79.2441C228.476 76.0915 227.591 71.9618 224.485 69.8355L128.357 4.14156C127.091 3.27506 125.639 2.85718 124.201 2.85718V2.86332Z" fill="#3D9BE9"/>
<path d="M217.832 59.7206L195.837 131.339L190.887 147.464L183.993 169.907C183.096 172.838 179.892 174.473 176.91 173.52L174.954 172.9L170.662 171.529L96.886 147.987L82.2144 143.304L68.0163 138.775C63.632 137.373 60.8895 133.324 61.0433 129.028C61.074 128.143 61.2339 127.258 61.5167 126.373L62.1132 124.542L80.8432 67.2118L87.4534 46.9813L95.6931 21.7607C96.6278 18.8908 99.77 17.3115 102.709 18.221L174.751 40.6761L210.914 51.9406L214.167 52.9546C217.069 53.858 218.693 56.863 217.813 59.7145L217.832 59.7206Z" fill="white"/>
<path d="M178.663 175.026C177.955 175.026 177.242 174.915 176.547 174.694L67.66 139.942C62.8699 138.412 59.6539 133.907 59.8323 128.979C59.8691 127.983 60.0475 126.982 60.3672 125.992L60.9637 124.161L94.5436 21.3796C95.6812 17.8829 99.5243 15.941 103.091 17.0533L214.548 51.793C218.078 52.8931 220.076 56.6171 219.006 60.0893L185.174 170.27C184.646 171.984 183.471 173.391 181.86 174.239C180.858 174.762 179.763 175.032 178.663 175.032V175.026ZM101.031 19.198C99.1861 19.198 97.4706 20.3472 96.8803 22.1478L62.7039 126.754C62.4579 127.522 62.3165 128.303 62.2919 129.071C62.1504 132.9 64.6654 136.409 68.4102 137.601L177.297 172.353C178.441 172.715 179.659 172.611 180.722 172.058C181.749 171.523 182.493 170.632 182.825 169.551L216.658 59.3641C217.328 57.1825 216.055 54.835 213.817 54.1406L174.401 41.856L102.365 19.4008C101.922 19.2656 101.474 19.198 101.037 19.198H101.031Z" fill="black"/>
<path d="M215.723 53.4952C203.431 67.2178 204.747 67.2178 197.725 67.2178H80.5117L87.0973 47.0672C94.1933 45.0884 109.554 43.6381 125.289 43.6381C144.941 43.6381 163.659 42.0157 179.161 40.6821L215.723 53.4952Z" fill="black"/>
<path d="M62.1317 124.542L96.8985 147.987L82.2268 143.304L61.0557 129.028C61.0864 128.143 61.2463 127.258 61.5291 126.373L62.1256 124.542H62.1317Z" fill="black"/>
<path d="M195.843 131.339L190.893 147.464L174.967 172.9L170.675 171.53L195.837 131.345L195.843 131.339Z" fill="black"/>
<path d="M155.081 184.791C151.988 184.791 148.981 183.875 146.362 182.112L51.033 117.825C48.2721 115.963 46.4212 113.161 45.8309 109.928C45.2406 106.726 45.9539 103.494 47.8417 100.821L61.6832 81.1802L64.0259 82.8333L50.1844 102.474C48.7456 104.514 48.2044 106.978 48.6533 109.412C49.1084 111.876 50.5226 114.021 52.6379 115.447L147.973 179.733C150.869 181.688 154.362 182.364 157.805 181.632C161.199 180.913 164.071 178.922 165.879 176.034L205.577 112.651L208.012 114.168L168.314 177.552C166.088 181.11 162.564 183.55 158.402 184.435C157.295 184.668 156.188 184.785 155.087 184.785L155.081 184.791Z" fill="#3D9BE9"/>
<path d="M78.7527 74.5005C78.7527 74.5005 74.8542 70.8133 70.9557 67.5501C67.0572 64.2869 68.7297 57.2197 68.7297 38.1937C68.7297 32.755 69.2893 33.302 103.798 33.302H217.973C232.928 33.302 227.978 35.7785 214.591 49.2185C201.205 62.6584 200.67 64.207 195.093 64.207H81.8272L78.7527 74.4943V74.5005Z" fill="#3D9BE9"/>
<path d="M76.2562 67.5191C75.6105 66.8861 74.1409 65.3129 74.5222 64.3727C74.6328 64.1023 74.9219 63.7827 75.6782 63.7827H86.3775V64.6431H75.6782C75.3892 64.6431 75.3154 64.7045 75.3154 64.7045C75.2355 64.938 75.8873 65.9582 76.8588 66.9046L76.2562 67.5191Z" fill="black"/>
<path d="M79.4596 77.032L77.867 75.3481C77.8301 75.3113 74.1775 71.4458 70.3713 68.2564C67.1799 65.5832 67.309 61.0479 67.5919 51.0985C67.6903 47.6264 67.8133 43.3062 67.8133 38.1933C67.8133 36.8044 67.8133 35.3664 68.8463 34.3278C70.8509 32.3306 76.0099 32.3367 95.2073 32.3675C97.8083 32.3675 100.668 32.3736 103.804 32.3736H217.979C224.829 32.3736 227.246 32.9021 227.916 34.5429C228.765 36.6262 226.114 39.2134 220.303 44.8794C218.803 46.342 217.106 48.0013 215.249 49.8633C213.238 51.879 211.523 53.6304 210.035 55.1422C201.53 63.7887 200.227 65.1223 195.099 65.1223H82.3004L79.4596 74.8381V77.0258V77.032ZM89.2365 34.2111C76.4957 34.2111 71.4228 34.3647 70.1437 35.6368C69.7195 36.0608 69.6518 36.7368 69.6518 38.1933C69.6518 43.3308 69.5288 47.6694 69.4305 51.1477C69.1661 60.4825 69.0431 64.7412 71.5457 66.843C74.1591 69.0307 76.6925 71.5196 78.0883 72.933L80.9107 63.2786H195.086C199.44 63.2786 200.313 62.3876 208.7 53.8517C210.194 52.3338 211.916 50.5823 213.927 48.5605C215.796 46.6862 217.5 45.0269 219 43.5582C222.72 39.9263 226.569 36.1714 226.188 35.2373C225.997 34.7703 224.417 34.2172 217.961 34.2172H103.797C100.661 34.2172 97.8022 34.2172 95.2011 34.2111C93.049 34.2111 91.0628 34.2049 89.2365 34.2049V34.2111Z" fill="black"/>
<path d="M73.3477 39.226L72.7451 38.6114L72.7943 38.5623C73.7782 37.5995 81.6612 37.1366 96.4435 37.1734C102.027 37.1857 109.024 37.2042 117.824 37.2042V38.0645C109.024 38.0645 102.027 38.0461 96.4435 38.0338C74.8296 37.9785 74.6144 37.9908 73.4031 39.1768L73.3539 39.226H73.3477Z" fill="white"/>
<path d="M149.99 37.1548H130.571V38.0151H149.99V37.1548Z" fill="white"/>
<path d="M171.843 37.1548H162.177V38.0151H171.843V37.1548Z" fill="white"/>
<path d="M215.059 37.1548H181.676V38.0151H215.059V37.1548Z" fill="white"/>
<path d="M68.5762 62.136C69.5354 66.7881 73.9258 68.5026 75.6845 69.3568C77.4431 70.2172 79.6813 69.3568 78.9988 67.2121C78.3163 65.0674 76.1211 64.6372 75.6845 66.3579C75.6845 66.3579 73.8152 64.207 75.8443 64.2132C77.8797 64.2132 81.8274 64.2132 81.8274 64.2132L78.5376 74.7156C78.5376 74.7156 72.819 69.6395 70.7406 67.3534C68.6623 65.0674 68.5762 62.1299 68.5762 62.1299V62.136Z" fill="black"/>
<path d="M87.5889 55.8798V43.8779H93.1722C94.5065 43.8779 95.681 44.1299 96.7018 44.6338C97.7225 45.1254 98.5157 45.8199 99.0876 46.7109C99.6594 47.602 99.9485 48.659 99.9485 49.8819C99.9485 51.1049 99.6594 52.1496 99.0876 53.053C98.5157 53.944 97.7163 54.6446 96.7018 55.1424C95.681 55.634 94.5065 55.8798 93.1722 55.8798H87.5889ZM90.4359 53.5999H93.0369C93.8547 53.5999 94.568 53.4524 95.1645 53.1513C95.7732 52.844 96.2406 52.4077 96.5665 51.8485C96.9047 51.2892 97.0768 50.6317 97.0768 49.8758C97.0768 49.1199 96.9047 48.4501 96.5665 47.9031C96.2406 47.3439 95.7732 46.9137 95.1645 46.6188C94.568 46.3115 93.8609 46.1579 93.0369 46.1579H90.4359V53.5999Z" fill="black"/>
<path d="M102.101 55.8798V43.8779H104.948V55.8798H102.101Z" fill="black"/>
<path d="M111.903 56.0886C110.919 56.0886 109.978 55.9657 109.074 55.7138C108.17 55.4495 107.445 55.1115 106.897 54.6998L107.863 52.6104C108.392 52.9791 109.013 53.2802 109.726 53.5199C110.452 53.7473 111.183 53.864 111.921 53.864C112.481 53.864 112.936 53.8149 113.274 53.7104C113.625 53.5936 113.883 53.44 114.049 53.2495C114.215 53.0528 114.295 52.8316 114.295 52.5796C114.295 52.2601 114.166 52.0081 113.907 51.8238C113.649 51.6271 113.311 51.4735 112.887 51.3629C112.468 51.24 111.995 51.1232 111.485 51.0187C110.98 50.902 110.47 50.7668 109.96 50.607C109.455 50.4472 108.994 50.2383 108.57 49.9924C108.152 49.7405 107.801 49.4086 107.537 48.9969C107.279 48.5852 107.15 48.0567 107.15 47.4175C107.15 46.7293 107.334 46.1086 107.709 45.5493C108.097 44.9778 108.668 44.5231 109.431 44.1974C110.206 43.8532 111.171 43.6812 112.327 43.6812C113.102 43.6812 113.858 43.7733 114.608 43.9577C115.359 44.1298 116.017 44.394 116.595 44.7443L115.715 46.8522C115.143 46.5326 114.565 46.2991 113.993 46.1516C113.422 45.9918 112.856 45.9119 112.309 45.9119C111.761 45.9119 111.306 45.9734 110.956 46.1024C110.605 46.2253 110.353 46.3913 110.2 46.6002C110.046 46.7969 109.972 47.0242 109.972 47.2885C109.972 47.5957 110.101 47.8477 110.359 48.0444C110.618 48.2287 110.956 48.3762 111.38 48.493C111.798 48.6097 112.266 48.7204 112.77 48.8371C113.286 48.9539 113.791 49.0829 114.295 49.2304C114.811 49.3779 115.279 49.5807 115.703 49.8327C116.121 50.0846 116.465 50.4165 116.724 50.8282C116.994 51.2399 117.129 51.7623 117.129 52.3891C117.129 53.0651 116.939 53.6797 116.551 54.2389C116.164 54.7981 115.586 55.2529 114.811 55.5909C114.049 55.935 113.083 56.1071 111.915 56.1071L111.903 56.0886Z" fill="black"/>
<path d="M124.945 56.0887C123.998 56.0887 123.112 55.9412 122.294 55.6401C121.489 55.3329 120.788 54.8965 120.185 54.3373C119.583 53.7781 119.121 53.1205 118.777 52.3646C118.451 51.6088 118.285 50.7791 118.285 49.8758C118.285 48.9724 118.451 48.1428 118.777 47.3869C119.115 46.631 119.583 45.9735 120.185 45.4142C120.794 44.855 121.501 44.4248 122.313 44.1298C123.118 43.8226 124.004 43.6689 124.963 43.6689C126.027 43.6689 126.986 43.8533 127.841 44.2159C128.708 44.5723 129.433 45.0947 130.018 45.7952L128.191 47.4422C127.767 46.9752 127.3 46.6249 126.783 46.3975C126.267 46.1578 125.707 46.0349 125.098 46.0349C124.526 46.0349 123.998 46.1271 123.518 46.3115C123.038 46.4958 122.62 46.7601 122.27 47.0981C121.919 47.4422 121.643 47.8478 121.446 48.3148C121.261 48.7819 121.163 49.3042 121.163 49.8758C121.163 50.4473 121.255 50.9696 121.446 51.4367C121.643 51.9037 121.919 52.3093 122.27 52.6535C122.62 52.9976 123.038 53.2619 123.518 53.4401C123.998 53.6244 124.526 53.7166 125.098 53.7166C125.707 53.7166 126.267 53.5999 126.783 53.3725C127.3 53.1328 127.767 52.7702 128.191 52.2909L130.018 53.9378C129.433 54.6323 128.708 55.1669 127.841 55.5356C126.986 55.9044 126.021 56.0826 124.945 56.0826V56.0887Z" fill="black"/>
<path d="M137.649 56.0889C136.677 56.0889 135.773 55.9353 134.943 55.628C134.125 55.3208 133.412 54.8844 132.803 54.3252C132.207 53.766 131.739 53.1084 131.401 52.3525C131.075 51.5967 130.909 50.7732 130.909 49.8821C130.909 48.991 131.075 48.1676 131.401 47.4117C131.739 46.6558 132.213 45.9982 132.822 45.439C133.43 44.8798 134.144 44.4435 134.961 44.1362C135.779 43.8289 136.671 43.6753 137.63 43.6753C138.589 43.6753 139.493 43.8289 140.299 44.1362C141.117 44.4435 141.83 44.8798 142.426 45.439C143.035 45.9982 143.509 46.6558 143.847 47.4117C144.185 48.1553 144.357 48.9787 144.357 49.8821C144.357 50.7855 144.185 51.6028 143.847 52.371C143.509 53.1269 143.035 53.7844 142.426 54.3436C141.83 54.8906 141.123 55.3208 140.299 55.628C139.493 55.9353 138.608 56.0889 137.649 56.0889ZM137.63 53.723C138.183 53.723 138.682 53.6308 139.143 53.4464C139.61 53.2621 140.022 52.9978 140.373 52.6598C140.723 52.3157 140.994 51.9101 141.178 51.443C141.375 50.976 141.479 50.4536 141.479 49.8821C141.479 49.3106 141.381 48.7882 141.178 48.3212C140.994 47.8541 140.723 47.4485 140.373 47.1044C140.034 46.7603 139.629 46.496 139.161 46.3178C138.694 46.1334 138.183 46.0413 137.63 46.0413C137.077 46.0413 136.572 46.1334 136.105 46.3178C135.65 46.5022 135.244 46.7664 134.894 47.1044C134.543 47.4485 134.267 47.8541 134.07 48.3212C133.885 48.7882 133.787 49.3106 133.787 49.8821C133.787 50.4536 133.879 50.9637 134.07 51.443C134.267 51.9101 134.537 52.3157 134.875 52.6598C135.226 53.004 135.638 53.2682 136.105 53.4464C136.572 53.6308 137.083 53.723 137.63 53.723Z" fill="black"/>
<path d="M151.957 56.0888C150.211 56.0888 148.852 55.6156 147.868 54.663C146.885 53.7167 146.393 52.3585 146.393 50.601V43.8779H149.24V50.4965C149.24 51.6395 149.479 52.463 149.959 52.9669C150.439 53.4708 151.115 53.7228 151.982 53.7228C152.849 53.7228 153.519 53.4708 153.999 52.9669C154.479 52.463 154.718 51.6395 154.718 50.4965V43.8779H157.529V50.601C157.529 52.3647 157.037 53.7167 156.053 54.663C155.069 55.6094 153.704 56.0888 151.964 56.0888H151.957Z" fill="black"/>
<path d="M160.332 55.8798V43.8779H162.687L169.937 52.5245H168.793V43.8779H171.603V55.8798H169.267L161.998 47.2333H163.142V55.8798H160.332Z" fill="black"/>
<path d="M177.063 55.8798V46.1394H173.128V43.8779H183.84V46.1394H179.904V55.8798H177.057H177.063Z" fill="black"/>
<path d="M104.204 119.896V89.2428L106.959 92.0267H97.0586V86.8892H110.482V119.902H104.204V119.896Z" fill="black"/>
<path d="M128.388 120.369C126.002 120.369 123.671 120.037 121.384 119.38C119.133 118.685 117.233 117.745 115.684 116.553L118.34 111.79C119.564 112.767 121.046 113.554 122.786 114.15C124.557 114.746 126.389 115.047 128.289 115.047C130.509 115.047 132.249 114.592 133.504 113.683C134.789 112.773 135.434 111.544 135.434 110.002C135.434 108.963 135.158 108.054 134.617 107.267C134.1 106.481 133.165 105.884 131.813 105.473C130.49 105.061 128.677 104.858 126.358 104.858H118.199L119.939 86.8892H139.788V92.0267H122.257L125.541 89.1015L124.237 102.541L120.953 99.6654H127.76C131.105 99.6654 133.799 100.108 135.822 100.987C137.882 101.835 139.382 103.033 140.311 104.569C141.276 106.081 141.762 107.808 141.762 109.756C141.762 111.704 141.276 113.437 140.311 115.041C139.345 116.645 137.863 117.936 135.865 118.907C133.903 119.884 131.407 120.369 128.381 120.369H128.388Z" fill="black"/>
<path d="M149.645 119.896L172.729 86.8833H177.463L154.38 119.896H149.645ZM152.449 104.662C150.875 104.662 149.473 104.287 148.249 103.531C147.026 102.775 146.079 101.724 145.402 100.372C144.726 99.0204 144.388 97.4349 144.388 95.6097C144.388 93.7846 144.726 92.1991 145.402 90.8471C146.079 89.4951 147.026 88.4442 148.249 87.6884C149.473 86.9325 150.875 86.5576 152.449 86.5576C154.023 86.5576 155.505 86.9325 156.698 87.6884C157.922 88.4442 158.869 89.4951 159.545 90.8471C160.221 92.1991 160.56 93.7846 160.56 95.6097C160.56 97.4349 160.221 99.0204 159.545 100.372C158.869 101.724 157.922 102.775 156.698 103.531C155.505 104.287 154.091 104.662 152.449 104.662ZM152.498 101.362C153.783 101.362 154.786 100.876 155.493 99.8992C156.231 98.8914 156.606 97.4595 156.606 95.6097C156.606 93.76 156.237 92.3404 155.493 91.3633C154.786 90.3554 153.783 89.8515 152.498 89.8515C151.213 89.8515 150.18 90.3554 149.405 91.3633C148.667 92.3711 148.292 93.7846 148.292 95.6097C148.292 97.4349 148.661 98.8483 149.405 99.8562C150.18 100.864 151.207 101.368 152.498 101.368V101.362ZM174.616 120.228C173.036 120.228 171.64 119.853 170.417 119.097C169.193 118.341 168.246 117.291 167.57 115.939C166.893 114.587 166.555 113.001 166.555 111.176C166.555 109.351 166.893 107.765 167.57 106.413C168.246 105.061 169.193 104.01 170.417 103.255C171.64 102.499 173.042 102.124 174.616 102.124C176.191 102.124 177.672 102.499 178.865 103.255C180.089 104.01 181.036 105.061 181.712 106.413C182.389 107.765 182.727 109.351 182.727 111.176C182.727 113.001 182.389 114.587 181.712 115.939C181.036 117.291 180.089 118.341 178.865 119.097C177.672 119.853 176.258 120.228 174.616 120.228ZM174.616 116.922C175.908 116.922 176.916 116.418 177.66 115.41C178.398 114.402 178.773 112.989 178.773 111.164C178.773 109.338 178.404 107.925 177.66 106.917C176.922 105.909 175.908 105.405 174.616 105.405C173.325 105.405 172.347 105.909 171.573 106.917C170.835 107.894 170.46 109.308 170.46 111.164C170.46 113.02 170.829 114.451 171.573 115.453C172.347 116.43 173.362 116.916 174.616 116.916V116.922Z" fill="black"/>
</g>
<defs>
<clipPath id="clip0_9318_97785">
<rect width="118.114" height="118.114" fill="white" transform="translate(0.859375 182.886)"/>
</clipPath>
<clipPath id="clip1_9318_97785">
<rect width="118.114" height="118.114" fill="white" transform="translate(158.027 182.886)"/>
</clipPath>
<clipPath id="clip2_9318_97785">
<rect width="184.791" height="184.791" fill="white" transform="translate(45.6279)"/>
</clipPath>
</defs>
</svg>
