<svg width="246" height="245" viewBox="0 0 246 245" fill="none" xmlns="http://www.w3.org/2000/svg">
<path d="M123.036 244.425L67.083 188.472L123.036 132.519L178.989 188.472L123.036 244.425ZM79.3569 188.472L123.036 232.151L166.716 188.472L123.036 144.792L79.3569 188.472Z" fill="white"/>
<path d="M79.0326 188.635L77.7539 187.657L122.223 143.188L123.363 144.654L123.038 144.791L79.3568 188.472L79.0326 188.635Z" fill="#FFC439"/>
<path d="M67.083 188.472L68.9888 188.945L123.036 241.435L176.613 188.472L122.955 132.845L178.989 188.472L123.036 244.425L67.083 188.472Z" fill="#FFC439"/>
<path d="M123.037 245L66.5068 188.47L123.037 131.94L179.566 188.47L123.037 245ZM67.6601 188.47L123.037 243.847L178.413 188.47L123.037 133.094L67.6601 188.47ZM123.037 232.726L78.7807 188.47L123.037 144.214L167.293 188.47L123.037 232.726ZM79.9323 188.47L123.037 231.575L166.141 188.47L123.037 145.366L79.9323 188.47Z" fill="#333333"/>
<path d="M123.036 112.483L67.083 56.5294L123.036 0.576172L178.989 56.5294L123.036 112.483ZM79.3569 56.5294L123.036 100.209L166.716 56.5294L123.036 12.8484L79.3569 56.5277V56.5294Z" fill="white"/>
<path d="M79.0326 56.6928L77.7539 55.7154L122.223 11.2461L123.363 12.7121L123.038 12.8489L79.3568 56.5299L79.0326 56.6928Z" fill="#3D9BE9"/>
<path d="M67.083 56.5298L68.9888 57.0021L123.036 109.492L176.613 56.5298L122.955 0.902344L178.989 56.5298L123.036 112.483L67.083 56.5298Z" fill="#3D9BE9"/>
<path d="M123.037 113.058L66.5068 56.5282L123.037 0L179.566 56.5298L123.037 113.06V113.058ZM67.6601 56.5282L123.037 111.905L178.413 56.5282L123.037 1.15164L67.6601 56.5282ZM123.037 100.784L78.7807 56.5282L123.037 12.2739L167.293 56.5298L123.037 100.786V100.784ZM79.9323 56.5282L123.037 99.6325L166.141 56.5282L123.037 13.4255L79.9323 56.5298V56.5282Z" fill="#333333"/>
<path d="M57.0655 178.454L1.1123 122.501L57.0655 66.5474L113.019 122.501L57.0655 178.454ZM13.3845 122.501L57.0639 166.18L100.743 122.501L57.0639 78.8212L13.3845 122.501Z" fill="white"/>
<path d="M13.0599 122.664L11.7812 121.687L56.2506 77.2173L57.3908 78.6833L57.0651 78.8201L13.3841 122.501L13.0599 122.664Z" fill="#3D9BE9"/>
<path d="M1.1123 122.501L3.01813 122.973L57.0655 175.463L110.642 122.501L56.9841 66.8735L113.019 122.501L57.0655 178.454L1.1123 122.501Z" fill="#3D9BE9"/>
<path d="M57.066 179.029L0.536133 122.501L0.824451 122.213L57.066 65.9712L113.596 122.501L57.066 179.031V179.029ZM1.68778 122.501L57.0643 177.878L112.441 122.501L57.0643 67.1245L1.68778 122.501ZM57.0643 166.757L12.81 122.501L13.0983 122.213L57.066 78.2451L101.322 122.501L57.066 166.757H57.0643ZM13.9616 122.501L57.066 165.605L100.17 122.501L57.066 79.3967L13.9616 122.501Z" fill="#333333"/>
<path d="M35.8518 102.975V136.363H26.4073V110.273H20.2061V102.975H35.8501H35.8518Z" fill="#3D9BE9"/>
<path d="M36.259 136.768H26.0001V110.678H19.7988V102.566H36.2574V136.768H36.259ZM26.8146 135.954H35.4445V103.38H20.6149V109.863H26.8162V135.954H26.8146Z" fill="#333333"/>
<path d="M63.73 117.998C65.9714 119.906 67.0921 122.45 67.0921 125.63C67.0921 127.697 66.5594 129.596 65.4941 131.329C64.4288 133.062 62.8064 134.445 60.6286 135.478C58.4507 136.511 55.7548 137.029 52.5443 137.029C50.1905 137.029 47.8611 136.742 45.5562 136.17C43.2497 135.599 41.2705 134.787 39.6172 133.738L43.0037 126.632C44.3394 127.523 45.8103 128.205 47.4148 128.682C49.0193 129.16 50.6335 129.397 52.2559 129.397C53.8783 129.397 55.1733 129.088 56.1425 128.467C57.1117 127.847 57.5971 126.982 57.5971 125.868C57.5971 124.753 57.1199 123.911 56.167 123.339C55.2124 122.768 53.5265 122.481 51.1108 122.481H42.0492L43.7188 102.973H64.9908V110.271H51.5408L51.1108 115.136H53.3522C58.0272 115.136 61.4837 116.091 63.7267 117.998H63.73Z" fill="#3D9BE9"/>
<path d="M52.545 137.436C50.17 137.436 47.7853 137.143 45.4592 136.566C43.1217 135.986 41.084 135.151 39.4013 134.082L39.0967 133.888L42.8399 126.032L43.2309 126.293C44.5258 127.156 45.9723 127.829 47.5328 128.291C49.0933 128.756 50.6831 128.99 52.2583 128.99C53.8335 128.99 55.0275 128.699 55.9266 128.124C56.7785 127.578 57.1939 126.84 57.1939 125.868C57.1939 124.895 56.7899 124.186 55.9608 123.688C55.0747 123.157 53.4442 122.888 51.1148 122.888H41.6085L43.3481 102.566H65.402V110.678H51.9179L51.5611 114.729H53.3578C58.1094 114.729 61.6881 115.724 63.9963 117.687C66.3223 119.668 67.5017 122.339 67.5017 125.628C67.5017 127.762 66.9446 129.751 65.8434 131.541C64.7407 133.334 63.0466 134.783 60.8052 135.845C58.5818 136.899 55.8028 137.434 52.5466 137.434L52.545 137.436ZM40.1441 133.584C41.6915 134.514 43.5452 135.252 45.6563 135.775C47.9189 136.337 50.2368 136.622 52.545 136.622C55.679 136.622 58.3407 136.113 60.455 135.112C62.5498 134.118 64.1282 132.774 65.1479 131.116C66.1676 129.456 66.6856 127.61 66.6856 125.63C66.6856 122.59 65.6024 120.127 63.4669 118.308C61.3118 116.474 57.909 115.543 53.3562 115.543H50.6701L51.1718 109.863H64.5876V103.38H44.0958L42.4962 122.074H51.1148C53.6299 122.074 55.3516 122.374 56.3795 122.991C57.4594 123.639 58.0084 124.607 58.0084 125.868C58.0084 127.128 57.4562 128.114 56.3664 128.809C55.3337 129.469 53.9524 129.803 52.2599 129.803C50.5675 129.803 48.9386 129.557 47.3031 129.07C45.8208 128.63 44.4346 128.01 43.1755 127.223L40.1457 133.582L40.1441 133.584Z" fill="#333333"/>
<path d="M70.4795 124.501C69.419 123.398 68.8896 121.893 68.8896 119.986C68.8896 118.735 69.1324 117.643 69.621 116.71C70.1081 115.777 70.7808 115.062 71.6409 114.563C72.4993 114.065 73.4799 113.815 74.5827 113.815C76.2784 113.815 77.6565 114.373 78.7169 115.485C79.7773 116.598 80.3067 118.098 80.3067 119.984C80.3067 121.87 79.7773 123.397 78.7169 124.499C77.6565 125.602 76.2784 126.153 74.5827 126.153C72.887 126.153 71.5399 125.602 70.4811 124.499L70.4795 124.501ZM87.746 114.104H92.3248L77.1254 136.361H72.5466L87.746 114.104ZM75.9494 122.37C76.2882 121.862 76.4576 121.067 76.4576 119.986C76.4576 118.904 76.2882 118.109 75.9494 117.601C75.6105 117.093 75.1544 116.837 74.5827 116.837C74.011 116.837 73.5809 117.098 73.2307 117.616C72.8805 118.135 72.7062 118.925 72.7062 119.984C72.7062 121.043 72.8805 121.835 73.2307 122.353C73.5809 122.872 74.0305 123.131 74.5827 123.131C75.1349 123.131 75.6105 122.877 75.9494 122.369V122.37ZM86.1724 134.995C85.1234 133.892 84.5989 132.387 84.5989 130.479C84.5989 128.572 85.1283 127.093 86.1887 125.98C87.2491 124.868 88.6158 124.311 90.2903 124.311C91.9648 124.311 93.3641 124.868 94.4245 125.98C95.4849 127.093 96.0143 128.593 96.0143 130.479C96.0143 132.366 95.4849 133.892 94.4245 134.995C93.3641 136.097 91.986 136.648 90.2903 136.648C88.5946 136.648 87.2214 136.097 86.1724 134.995ZM91.657 132.864C91.9958 132.356 92.1652 131.561 92.1652 130.479C92.1652 129.398 91.9958 128.603 91.657 128.094C91.3182 127.586 90.8621 127.332 90.2903 127.332C89.7186 127.332 89.2625 127.586 88.9237 128.094C88.5848 128.603 88.4154 129.398 88.4154 130.479C88.4154 131.561 88.5848 132.356 88.9237 132.864C89.2625 133.372 89.7186 133.628 90.2903 133.628C90.8621 133.628 91.3182 133.374 91.657 132.864Z" fill="#3D9BE9"/>
<path d="M90.2884 137.055C88.4852 137.055 86.9996 136.456 85.8756 135.275C84.7566 134.1 84.1897 132.486 84.1897 130.479C84.1897 128.473 84.7631 126.884 85.8919 125.699C87.0257 124.508 88.5063 123.903 90.2884 123.903C92.0704 123.903 93.582 124.508 94.7174 125.699C95.8462 126.884 96.4196 128.494 96.4196 130.479C96.4196 132.465 95.8462 134.102 94.7158 135.277C93.5804 136.456 92.0916 137.055 90.2884 137.055ZM90.2884 124.718C88.7148 124.718 87.4704 125.223 86.4816 126.26C85.501 127.29 85.0042 128.709 85.0042 130.479C85.0042 132.25 85.4961 133.695 86.4653 134.713C87.4427 135.741 88.6937 136.241 90.2884 136.241C91.8831 136.241 93.139 135.741 94.1294 134.713C95.1083 133.695 95.6051 132.27 95.6051 130.479C95.6051 128.689 95.1083 127.29 94.1277 126.26C93.139 125.223 91.8831 124.718 90.2884 124.718ZM77.3385 136.769H71.7741L87.529 113.697H93.095L77.3401 136.769H77.3385ZM73.3151 135.954H76.9068L91.5508 114.511H87.9574L73.3151 135.954ZM90.2867 134.034C89.5814 134.034 88.9918 133.708 88.5813 133.089C88.1936 132.507 88.0046 131.652 88.0046 130.478C88.0046 129.303 88.1936 128.45 88.5813 127.867C88.9934 127.249 89.583 126.922 90.2867 126.922C90.9904 126.922 91.5801 127.248 91.9922 127.867C92.3799 128.45 92.5688 129.303 92.5688 130.478C92.5688 131.652 92.3799 132.506 91.9922 133.089C91.5801 133.706 90.9904 134.034 90.2867 134.034ZM90.2867 127.738C89.8502 127.738 89.5228 127.922 89.2589 128.319C88.9673 128.758 88.8191 129.484 88.8191 130.478C88.8191 131.471 88.9673 132.198 89.2589 132.636C89.5228 133.034 89.8502 133.218 90.2867 133.218C90.7233 133.218 91.0507 133.034 91.3146 132.636C91.6062 132.198 91.7544 131.471 91.7544 130.478C91.7544 129.484 91.6062 128.758 91.3146 128.319C91.0507 127.922 90.7233 127.738 90.2867 127.738ZM74.5791 126.562C72.7971 126.562 71.318 125.964 70.1843 124.783C69.0538 123.609 68.4805 121.994 68.4805 119.986C68.4805 118.675 68.7427 117.508 69.2575 116.523C69.7787 115.526 70.5101 114.749 71.4337 114.213C72.3524 113.68 73.4096 113.412 74.5791 113.412C76.3823 113.412 77.8728 114.016 79.0081 115.207C80.137 116.393 80.7104 118.002 80.7104 119.988C80.7104 121.973 80.137 123.61 79.0065 124.785C77.8712 125.964 76.3823 126.563 74.5791 126.563V126.562ZM74.5791 114.224C73.5545 114.224 72.6342 114.457 71.8425 114.917C71.0558 115.373 70.4286 116.041 69.9807 116.899C69.5262 117.769 69.2949 118.807 69.2949 119.986C69.2949 121.776 69.7917 123.201 70.7707 124.219C71.7595 125.249 73.0056 125.747 74.5791 125.747C76.1527 125.747 77.4297 125.247 78.4201 124.219C79.3991 123.201 79.8959 121.776 79.8959 119.986C79.8959 118.196 79.3991 116.797 78.4185 115.767C77.4297 114.729 76.1738 114.224 74.5791 114.224ZM74.5791 123.542C73.8868 123.542 73.3183 123.219 72.8899 122.582C72.4909 121.989 72.2954 121.139 72.2954 119.986C72.2954 118.833 72.4892 117.984 72.8899 117.389C73.3183 116.753 73.8868 116.43 74.5791 116.43C75.2714 116.43 75.8725 116.756 76.2846 117.375C76.6723 117.958 76.8612 118.811 76.8612 119.986C76.8612 121.16 76.6723 122.014 76.2846 122.597C75.8725 123.214 75.2828 123.542 74.5791 123.542ZM74.5791 117.246C74.1638 117.246 73.8412 117.437 73.5659 117.846C73.2646 118.293 73.1115 119.015 73.1115 119.988C73.1115 120.96 73.2646 121.68 73.5659 122.13C73.8412 122.538 74.1638 122.729 74.5791 122.729C75.0157 122.729 75.3431 122.545 75.607 122.147C75.8985 121.709 76.0484 120.983 76.0484 119.989C76.0484 118.996 75.9002 118.269 75.6086 117.831C75.3431 117.433 75.0173 117.249 74.5808 117.249L74.5791 117.246Z" fill="#333333"/>
<path d="M20.208 104.588L21.0664 109.097H27.012V134.752H34.4235V102.975H35.8521V136.361H26.4077V110.273H20.208V104.588Z" fill="#333333"/>
<path d="M40.0101 132.918C40.0101 132.918 44.8414 135.979 53.3558 135.979C61.8701 135.979 65.9408 130.843 65.9408 124.979C65.9408 119.115 61.4401 115.247 55.9539 115.247C55.9539 115.247 67.0452 114.998 67.0452 126.668C67.0452 138.337 47.9918 139.569 39.6191 133.741L40.0101 132.92V132.918Z" fill="#333333"/>
<path d="M42.1456 121.385H52.5837C56.6559 121.385 58.4478 122.861 57.9591 126.444L57.5861 126.193C57.5861 126.193 58.2849 122.549 52.7335 122.549H42.0527L42.1472 121.386L42.1456 121.385Z" fill="#333333"/>
<path d="M51.6084 115.531L49.9795 115.694L50.7939 109.015L63.6624 108.852L63.6705 102.975H64.9948V110.273H51.5433L51.6084 115.531Z" fill="#333333"/>
<path d="M68.8984 119.611C68.8984 122.533 70.6674 125.303 74.2511 125.303C78.6491 125.303 79.7894 121.719 79.4636 118.461C79.2665 116.489 77.3851 113.824 74.2706 113.824C74.2706 113.824 80.234 113.674 80.234 118.836C80.234 123.998 78.4976 126.153 74.5833 126.153C70.6691 126.153 69.3106 123.483 69.0939 121.869C68.8773 120.255 68.9001 119.611 68.9001 119.611H68.8984Z" fill="#333333"/>
<path d="M73.5027 123.135C71.9698 122.209 71.6343 117.984 72.9472 116.671C74.0874 115.531 75.8792 116.02 76.4575 117.965C76.4575 117.965 76.1496 116.862 74.3041 116.862C72.4585 116.862 72.6214 119.641 72.7843 120.926C72.9472 122.211 73.5027 123.135 73.5027 123.135Z" fill="#333333"/>
<path d="M84.6982 130.269C84.6982 133.144 86.4672 135.869 90.0509 135.869C94.4489 135.869 95.5892 132.344 95.2634 129.139C95.0663 127.199 93.1849 124.576 90.0704 124.576C90.0704 124.576 96.0339 124.428 96.0339 129.508C96.0339 134.589 94.2974 136.707 90.3832 136.707C86.4689 136.707 85.1104 134.081 84.8937 132.491C84.6771 130.901 84.6999 130.269 84.6999 130.269H84.6982Z" fill="#333333"/>
<path d="M89.3025 133.733C87.7697 132.823 87.4341 128.666 88.747 127.374C89.8872 126.252 91.679 126.732 92.2573 128.646C92.2573 128.646 91.9494 127.562 90.1039 127.562C88.2583 127.562 88.4212 130.296 88.5841 131.559C88.747 132.821 89.3025 133.732 89.3025 133.732V133.733Z" fill="#333333"/>
<path d="M73.3441 135.191H76.7208L91.2849 114.104H92.3242L77.1248 136.361H72.5459L73.3441 135.191Z" fill="#333333"/>
<path d="M21.7188 106.898H20.9043V103.721H34.1799V104.536H21.7188V106.898Z" fill="white"/>
<path d="M28.1113 109.171H27.2969V134.263H28.1113V109.171Z" fill="white"/>
<path d="M43.7884 120.369L42.9756 120.304L44.3097 103.721H62.9298V104.536H45.0606L43.7884 120.369Z" fill="white"/>
<path d="M41.6324 133.212L40.8945 132.867L43.3917 127.518L43.794 127.83C43.8217 127.852 46.7065 130.025 52.3393 130.025C56.449 130.025 58.4477 128.347 58.4477 124.894H59.2622C59.2622 128.783 56.8677 130.839 52.3393 130.839C47.5894 130.839 44.7274 129.386 43.7109 128.756L41.6324 133.211V133.212Z" fill="white"/>
<path d="M70.031 122.734C69.3322 120.438 69.6433 118.01 70.8406 116.394C71.7202 115.206 73.0185 114.553 74.4926 114.553C77.6869 114.553 78.3743 116.628 78.402 116.716L77.625 116.961C77.6038 116.899 77.063 115.368 74.4926 115.368C73.2644 115.368 72.2268 115.891 71.4938 116.879C70.4464 118.292 70.1841 120.445 70.8097 122.497L70.031 122.735V122.734Z" fill="white"/>
<path d="M85.6687 133.322C84.9699 131.026 85.281 128.598 86.4783 126.982C87.3579 125.794 88.6562 125.141 90.1303 125.141C93.3246 125.141 94.012 127.216 94.0397 127.304L93.2627 127.549C93.2415 127.487 92.7007 125.956 90.1303 125.956C88.9021 125.956 87.8645 126.478 87.1315 127.467C86.0841 128.879 85.8218 131.033 86.4473 133.085L85.6687 133.323V133.322Z" fill="white"/>
<path d="M88.0751 114.722L74.8066 134.268L75.4805 134.726L88.749 115.179L88.0751 114.722Z" fill="white"/>
<path d="M189.008 178.454L133.055 122.501L189.008 66.5474L244.961 122.501L189.008 178.454ZM145.329 122.501L189.008 166.18L232.687 122.501L189.008 78.8212L145.329 122.501Z" fill="white"/>
<path d="M145.002 122.663L143.724 121.686L188.193 77.2168L189.333 78.6828L189.007 78.8196L145.326 122.501L145.002 122.663Z" fill="#FFC439"/>
<path d="M133.055 122.501L134.961 122.973L189.008 175.463L242.584 122.501L188.926 66.8735L244.961 122.501L189.008 178.454L133.055 122.501Z" fill="#FFC439"/>
<path d="M189.007 179.029L132.478 122.499L189.007 65.9692L245.537 122.499L189.007 179.029ZM133.631 122.499L189.007 177.876L244.384 122.499L189.007 67.1225L133.631 122.499ZM189.007 166.755L144.751 122.499L189.007 78.2431L233.263 122.499L189.007 166.755ZM145.903 122.499L189.007 165.603L232.112 122.499L189.007 79.3947L145.903 122.499Z" fill="#333333"/>
<path d="M119.752 55.3332C121.994 57.2407 123.115 59.785 123.115 62.9647C123.115 65.0318 122.582 66.9311 121.517 68.6642C120.451 70.3974 118.829 71.7804 116.651 72.8131C114.473 73.8458 111.777 74.3638 108.567 74.3638C106.213 74.3638 103.884 74.0771 101.579 73.5054C99.2721 72.9336 97.293 72.1224 95.6396 71.0734L99.0262 63.9665C100.362 64.8575 101.833 65.54 103.437 66.0173C105.042 66.4945 106.656 66.7323 108.278 66.7323C109.901 66.7323 111.196 66.4229 112.165 65.8022C113.134 65.1816 113.62 64.3167 113.62 63.2025C113.62 62.0883 113.142 61.2462 112.189 60.6744C111.235 60.1027 109.549 59.816 107.133 59.816H98.0716L99.7413 40.3081H121.013V47.6056H107.563L107.133 52.4712H109.375C114.05 52.4712 117.506 53.4257 119.749 55.3332H119.752Z" fill="#3D9BE9"/>
<path d="M108.568 74.771C106.193 74.771 103.809 74.4778 101.483 73.9012C99.1452 73.3213 97.1074 72.4857 95.4247 71.4171L95.1201 71.2233L98.8634 63.367L99.2543 63.6276C100.549 64.491 101.997 65.1637 103.556 65.6263C105.117 66.0906 106.707 66.3251 108.282 66.3251C109.857 66.3251 111.051 66.0335 111.95 65.4585C112.802 64.9129 113.217 64.175 113.217 63.2025C113.217 62.23 112.813 61.5215 111.984 61.023C111.098 60.492 109.468 60.2232 107.138 60.2232H97.6319L99.3716 39.9009H121.425V48.0129H107.941L107.585 52.064H109.381C114.133 52.064 117.712 53.0592 120.02 55.0221C122.346 57.0012 123.525 59.6743 123.525 62.963C123.525 65.0969 122.968 67.0858 121.867 68.876C120.764 70.6694 119.07 72.1175 116.829 73.1796C114.605 74.2335 111.826 74.7694 108.57 74.7694L108.568 74.771ZM96.1675 70.9187C97.715 71.8488 99.5687 72.5867 101.68 73.1095C103.942 73.6715 106.26 73.9566 108.568 73.9566C111.702 73.9566 114.364 73.4484 116.478 72.4466C118.573 71.4529 120.152 70.1091 121.171 68.4509C122.191 66.791 122.709 64.9454 122.709 62.9647C122.709 59.9251 121.626 57.4606 119.49 55.6427C117.335 53.8085 113.932 52.8784 109.38 52.8784H106.694L107.195 47.1984H120.611V40.7153H100.119L98.5197 59.4088H107.138C109.653 59.4088 111.375 59.7085 112.403 60.3258C113.483 60.9741 114.032 61.9417 114.032 63.2025C114.032 64.4633 113.48 65.4488 112.39 66.1459C111.357 66.8057 109.976 67.1396 108.283 67.1396C106.591 67.1396 104.962 66.8936 103.327 66.4066C101.846 65.9668 100.46 65.3461 99.1989 64.5594L96.1691 70.9187H96.1675Z" fill="#333333"/>
<path d="M96.0335 70.251C96.0335 70.251 100.865 73.3117 109.379 73.3117C117.894 73.3117 121.964 68.1757 121.964 62.3116C121.964 56.4475 117.464 52.5805 111.977 52.5805C111.977 52.5805 123.069 52.3313 123.069 64.0008C123.069 75.6704 104.015 76.9018 95.6426 71.0736L96.0335 70.2526V70.251Z" fill="#333333"/>
<path d="M98.17 58.7197H108.608C112.68 58.7197 114.472 60.1955 113.983 63.7791L113.61 63.5283C113.61 63.5283 114.309 59.8844 108.758 59.8844H98.0771L98.1716 58.7214L98.17 58.7197Z" fill="#333333"/>
<path d="M107.63 52.8654L106.001 53.0283L106.815 46.3497L119.684 46.1869L119.694 40.3081H121.016V47.6056H107.566L107.63 52.8654Z" fill="#333333"/>
<path d="M99.8092 57.7032L98.998 57.6364L100.33 41.0557H118.951V41.8701H101.083L99.8092 57.7032Z" fill="white"/>
<path d="M97.6559 70.5474L96.918 70.2021L99.4151 64.8527L99.8174 65.1654C99.8451 65.1866 102.73 67.3596 108.363 67.3596C112.472 67.3596 114.471 65.6818 114.471 62.2285H115.286C115.286 66.1184 112.891 68.1741 108.363 68.1741C103.613 68.1741 100.751 66.7211 99.7344 66.0907L97.6559 70.5458V70.5474Z" fill="white"/>
<path d="M126.988 61.1847C125.928 60.0819 125.398 58.5768 125.398 56.6694C125.398 55.4183 125.641 54.327 126.13 53.3936C126.617 52.4602 127.29 51.7451 128.15 51.2467C129.008 50.7482 129.989 50.499 131.091 50.499C132.787 50.499 134.165 51.0561 135.226 52.1687C136.286 53.2812 136.816 54.7814 136.816 56.6677C136.816 58.554 136.286 60.0803 135.226 61.1831C134.165 62.2858 132.787 62.8364 131.091 62.8364C129.396 62.8364 128.049 62.2858 126.99 61.1831L126.988 61.1847ZM144.255 50.7873H148.834L133.634 73.0448H129.055L144.255 50.7873ZM132.458 59.0541C132.797 58.5459 132.966 57.7509 132.966 56.6694C132.966 55.5878 132.797 54.7928 132.458 54.2846C132.119 53.7764 131.663 53.5207 131.091 53.5207C130.52 53.5207 130.09 53.7813 129.739 54.2993C129.389 54.8189 129.215 55.6089 129.215 56.6677C129.215 57.7265 129.389 58.5182 129.739 59.0362C130.09 59.5558 130.539 59.8148 131.091 59.8148C131.644 59.8148 132.119 59.5607 132.458 59.0524V59.0541ZM142.681 71.6782C141.632 70.5754 141.108 69.0703 141.108 67.1628C141.108 65.2554 141.637 63.7763 142.698 62.6638C143.758 61.5512 145.125 60.9941 146.799 60.9941C148.474 60.9941 149.873 61.5512 150.933 62.6638C151.994 63.7763 152.523 65.2765 152.523 67.1628C152.523 69.0491 151.994 70.5754 150.933 71.6782C149.873 72.7809 148.495 73.3315 146.799 73.3315C145.103 73.3315 143.73 72.7809 142.681 71.6782ZM148.166 69.5475C148.505 69.0393 148.674 68.2444 148.674 67.1628C148.674 66.0812 148.505 65.2863 148.166 64.7781C147.827 64.2699 147.371 64.0157 146.799 64.0157C146.227 64.0157 145.771 64.2699 145.432 64.7781C145.094 65.2863 144.924 66.0812 144.924 67.1628C144.924 68.2444 145.094 69.0393 145.432 69.5475C145.771 70.0558 146.227 70.3115 146.799 70.3115C147.371 70.3115 147.827 70.0574 148.166 69.5475Z" fill="#3D9BE9"/>
<path d="M146.797 73.7384C144.994 73.7384 143.509 73.139 142.385 71.958C141.266 70.7836 140.699 69.1693 140.699 67.1625C140.699 65.1557 141.272 63.5675 142.401 62.3816C143.535 61.1909 145.015 60.5866 146.797 60.5866C148.58 60.5866 150.091 61.1909 151.226 62.3816C152.355 63.5675 152.929 65.1768 152.929 67.1625C152.929 69.1481 152.355 70.7852 151.225 71.9596C150.09 73.139 148.601 73.7384 146.797 73.7384ZM146.797 61.401C145.224 61.401 143.979 61.906 142.991 62.9436C142.01 63.9731 141.513 65.3919 141.513 67.1625C141.513 68.9331 142.005 70.378 142.974 71.3977C143.952 72.4255 145.203 72.9256 146.797 72.9256C148.392 72.9256 149.648 72.4255 150.638 71.3977C151.617 70.3796 152.114 68.9543 152.114 67.1641C152.114 65.3739 151.617 63.9747 150.637 62.9452C149.648 61.9076 148.392 61.4026 146.797 61.4026V61.401ZM133.849 73.4517H128.285L144.04 50.3798H149.604L133.849 73.4517ZM129.826 72.6373H133.418L148.06 51.1942H144.468L129.826 72.6373ZM146.797 70.7168C146.094 70.7168 145.502 70.3894 145.092 69.772C144.704 69.1905 144.515 68.3369 144.515 67.1609C144.515 65.9848 144.704 65.1329 145.092 64.5497C145.504 63.9323 146.094 63.6049 146.797 63.6049C147.501 63.6049 148.092 63.9307 148.503 64.5497C148.891 65.1329 149.08 65.9864 149.08 67.1609C149.08 68.3353 148.891 69.1889 148.503 69.772C148.091 70.3894 147.501 70.7168 146.797 70.7168ZM146.797 64.421C146.361 64.421 146.034 64.6051 145.77 65.0025C145.478 65.4407 145.33 66.1672 145.33 67.1609C145.33 68.1545 145.478 68.8826 145.77 69.3192C146.034 69.7166 146.361 69.9007 146.797 69.9007C147.234 69.9007 147.561 69.7166 147.825 69.3192C148.117 68.881 148.265 68.1545 148.265 67.1609C148.265 66.1672 148.117 65.4407 147.825 65.0025C147.561 64.6067 147.234 64.421 146.797 64.421ZM131.09 63.245C129.308 63.245 127.829 62.6471 126.695 61.4662C125.565 60.2917 124.991 58.6775 124.991 56.669C124.991 55.3578 125.253 54.1914 125.77 53.206C126.291 52.2091 127.022 51.4321 127.944 50.8962C128.863 50.3635 129.92 50.0947 131.09 50.0947C132.893 50.0947 134.384 50.6991 135.519 51.8898C136.648 53.0756 137.221 54.685 137.221 56.6707C137.221 58.6563 136.648 60.2934 135.517 61.4678C134.382 62.6471 132.893 63.2466 131.09 63.2466V63.245ZM131.09 50.9076C130.065 50.9076 129.145 51.1405 128.353 51.5998C127.567 52.0559 126.939 52.7238 126.491 53.5822C126.037 54.4504 125.806 55.4897 125.806 56.669C125.806 58.4592 126.302 59.8845 127.281 60.9026C128.27 61.932 129.516 62.4305 131.09 62.4305C132.663 62.4305 133.94 61.9304 134.931 60.9026C135.91 59.8845 136.407 58.4592 136.407 56.669C136.407 54.8788 135.91 53.4796 134.929 52.4501C133.94 51.4125 132.685 50.9076 131.09 50.9076ZM131.09 60.2249C130.398 60.2249 129.829 59.9024 129.401 59.2655C129.002 58.6726 128.806 57.8239 128.806 56.669C128.806 55.5141 129 54.6671 129.401 54.0725C129.829 53.4356 130.398 53.1131 131.09 53.1131C131.782 53.1131 132.383 53.4389 132.795 54.0579C133.185 54.641 133.372 55.4946 133.372 56.669C133.372 57.8435 133.183 58.697 132.795 59.2802C132.383 59.8975 131.794 60.2249 131.09 60.2249ZM131.09 53.9292C130.674 53.9292 130.352 54.1198 130.077 54.5286C129.775 54.9766 129.622 55.6982 129.622 56.6707C129.622 57.6431 129.775 58.3647 130.077 58.8127C130.352 59.2215 130.674 59.4121 131.09 59.4121C131.526 59.4121 131.854 59.228 132.118 58.8306C132.409 58.3924 132.558 57.6659 132.558 56.6723C132.558 55.6786 132.409 54.9521 132.118 54.514C131.854 54.1165 131.526 53.9324 131.09 53.9324V53.9292Z" fill="#333333"/>
<path d="M125.407 56.2943C125.407 59.2166 127.176 61.9858 130.76 61.9858C135.158 61.9858 136.298 58.4021 135.972 55.1443C135.775 53.1717 133.894 50.5068 130.779 50.5068C130.779 50.5068 136.743 50.3569 136.743 55.519C136.743 60.681 135.006 62.836 131.092 62.836C127.178 62.836 125.819 60.1663 125.603 58.552C125.386 56.9378 125.409 56.2943 125.409 56.2943H125.407Z" fill="#333333"/>
<path d="M130.011 59.8164C128.479 58.8911 128.143 54.6657 129.456 53.3528C130.596 52.2126 132.388 52.7013 132.966 54.6462C132.966 54.6462 132.658 53.5434 130.813 53.5434C128.967 53.5434 129.13 56.3223 129.293 57.6075C129.456 58.8928 130.011 59.8164 130.011 59.8164Z" fill="#333333"/>
<path d="M141.207 66.9528C141.207 69.8278 142.976 72.553 146.56 72.553C150.958 72.553 152.098 69.028 151.772 65.8223C151.575 63.8823 149.694 61.2597 146.579 61.2597C146.579 61.2597 152.543 61.1115 152.543 66.1921C152.543 71.2727 150.806 73.3903 146.892 73.3903C142.978 73.3903 141.619 70.7644 141.402 69.1746C141.186 67.5848 141.209 66.9528 141.209 66.9528H141.207Z" fill="#333333"/>
<path d="M145.812 70.4171C144.279 69.5065 143.944 65.3495 145.257 64.0578C146.397 62.9355 148.189 63.416 148.767 65.33C148.767 65.33 148.459 64.2451 146.614 64.2451C144.768 64.2451 144.931 66.9801 145.094 68.2425C145.257 69.5049 145.812 70.4155 145.812 70.4155V70.4171Z" fill="#333333"/>
<path d="M129.855 71.875H133.232L147.796 50.7871H148.834L133.635 73.0446H129.056L129.855 71.875Z" fill="#333333"/>
<path d="M126.543 59.4172C125.844 57.1221 126.155 54.6934 127.352 53.0775C128.232 51.89 129.53 51.2368 131.004 51.2368C134.199 51.2368 134.886 53.3121 134.914 53.4L134.137 53.6444C134.116 53.5825 133.575 52.0513 131.004 52.0513C129.776 52.0513 128.739 52.5742 128.006 53.5629C126.958 54.9752 126.696 57.1286 127.321 59.181L126.543 59.4188V59.4172Z" fill="white"/>
<path d="M142.179 70.0051C141.481 67.71 141.792 65.2813 142.989 63.6654C143.869 62.4779 145.167 61.8247 146.641 61.8247C149.835 61.8247 150.523 63.8999 150.55 63.9879L149.773 64.2322C149.752 64.1703 149.211 62.6392 146.641 62.6392C145.413 62.6392 144.375 63.162 143.642 64.1508C142.595 65.5631 142.333 67.7165 142.958 69.7689L142.179 70.0067V70.0051Z" fill="white"/>
<path d="M144.582 51.4052L131.313 70.9512L131.987 71.4086L145.256 51.8626L144.582 51.4052Z" fill="white"/>
<path d="M209.048 123.92C207.987 122.817 207.458 121.312 207.458 119.404C207.458 118.153 207.701 117.062 208.189 116.128C208.676 115.195 209.349 114.48 210.209 113.982C211.068 113.483 212.048 113.234 213.151 113.234C214.847 113.234 216.225 113.791 217.285 114.904C218.346 116.016 218.875 117.516 218.875 119.403C218.875 121.289 218.346 122.815 217.285 123.918C216.225 125.021 214.847 125.571 213.151 125.571C211.455 125.571 210.108 125.021 209.049 123.918L209.048 123.92ZM226.314 113.522H230.893L215.694 135.78H211.115L226.314 113.522ZM214.518 121.789C214.857 121.281 215.026 120.486 215.026 119.404C215.026 118.323 214.857 117.528 214.518 117.019C214.179 116.511 213.723 116.256 213.151 116.256C212.579 116.256 212.149 116.516 211.799 117.034C211.449 117.554 211.275 118.344 211.275 119.403C211.275 120.461 211.449 121.253 211.799 121.771C212.149 122.291 212.599 122.55 213.151 122.55C213.703 122.55 214.179 122.296 214.518 121.787V121.789ZM224.741 134.413C223.692 133.31 223.167 131.805 223.167 129.898C223.167 127.99 223.697 126.511 224.757 125.399C225.817 124.286 227.184 123.729 228.859 123.729C230.533 123.729 231.932 124.286 232.993 125.399C234.053 126.511 234.583 128.011 234.583 129.898C234.583 131.784 234.053 133.31 232.993 134.413C231.932 135.516 230.554 136.066 228.859 136.066C227.163 136.066 225.79 135.516 224.741 134.413ZM230.225 132.282C230.564 131.774 230.734 130.979 230.734 129.898C230.734 128.816 230.564 128.021 230.225 127.513C229.887 127.005 229.43 126.751 228.859 126.751C228.287 126.751 227.831 127.005 227.492 127.513C227.153 128.021 226.984 128.816 226.984 129.898C226.984 130.979 227.153 131.774 227.492 132.282C227.831 132.791 228.287 133.046 228.859 133.046C229.43 133.046 229.887 132.792 230.225 132.282Z" fill="#FFC439"/>
<path d="M228.859 136.474C227.055 136.474 225.57 135.874 224.446 134.693C223.327 133.519 222.76 131.905 222.76 129.898C222.76 127.891 223.333 126.303 224.462 125.117C225.596 123.926 227.077 123.322 228.859 123.322C230.641 123.322 232.152 123.926 233.288 125.117C234.417 126.303 234.99 127.912 234.99 129.898C234.99 131.883 234.417 133.521 233.286 134.695C232.151 135.874 230.662 136.474 228.859 136.474ZM228.859 124.136C227.285 124.136 226.041 124.641 225.052 125.679C224.071 126.708 223.574 128.127 223.574 129.898C223.574 131.668 224.066 133.113 225.036 134.131C226.013 135.159 227.264 135.659 228.859 135.659C230.453 135.659 231.709 135.159 232.7 134.131C233.679 133.113 234.175 131.688 234.175 129.898C234.175 128.108 233.679 126.708 232.698 125.679C231.709 124.641 230.453 124.136 228.859 124.136ZM215.909 136.187H210.344L226.099 113.115H231.665L215.91 136.187H215.909ZM211.885 135.373H215.477L230.121 113.93H226.528L211.885 135.373ZM228.857 133.452C228.152 133.452 227.562 133.126 227.152 132.507C226.764 131.926 226.575 131.071 226.575 129.896C226.575 128.722 226.764 127.868 227.152 127.285C227.564 126.668 228.153 126.34 228.857 126.34C229.561 126.34 230.15 126.666 230.563 127.285C230.95 127.868 231.139 128.722 231.139 129.896C231.139 131.071 230.95 131.924 230.563 132.507C230.15 133.125 229.561 133.452 228.857 133.452ZM228.857 127.156C228.421 127.156 228.093 127.34 227.829 127.738C227.538 128.176 227.389 128.903 227.389 129.896C227.389 130.89 227.538 131.616 227.829 132.055C228.093 132.452 228.421 132.636 228.857 132.636C229.294 132.636 229.621 132.452 229.885 132.055C230.176 131.616 230.325 130.89 230.325 129.896C230.325 128.903 230.176 128.176 229.885 127.738C229.621 127.34 229.294 127.156 228.857 127.156ZM213.149 125.98C211.367 125.98 209.888 125.382 208.755 124.202C207.624 123.027 207.051 121.413 207.051 119.404C207.051 118.093 207.313 116.927 207.828 115.941C208.349 114.944 209.08 114.167 210.004 113.632C210.923 113.099 211.98 112.83 213.149 112.83C214.953 112.83 216.443 113.434 217.578 114.625C218.707 115.811 219.281 117.42 219.281 119.406C219.281 121.392 218.707 123.029 217.577 124.203C216.441 125.382 214.953 125.982 213.149 125.982V125.98ZM213.149 113.643C212.125 113.643 211.204 113.876 210.413 114.335C209.626 114.791 208.999 115.459 208.551 116.318C208.097 117.187 207.865 118.225 207.865 119.404C207.865 121.195 208.362 122.62 209.341 123.638C210.33 124.667 211.576 125.166 213.149 125.166C214.723 125.166 216 124.666 216.99 123.638C217.969 122.62 218.466 121.195 218.466 119.404C218.466 117.614 217.969 116.215 216.989 115.185C216 114.148 214.744 113.643 213.149 113.643ZM213.149 122.96C212.457 122.96 211.889 122.638 211.46 122.001C211.061 121.408 210.866 120.558 210.866 119.404C210.866 118.251 211.06 117.402 211.46 116.808C211.889 116.171 212.457 115.848 213.149 115.848C213.842 115.848 214.443 116.174 214.855 116.793C215.243 117.376 215.432 118.23 215.432 119.404C215.432 120.579 215.243 121.432 214.855 122.016C214.443 122.633 213.853 122.96 213.149 122.96ZM213.149 116.665C212.734 116.665 212.412 116.855 212.136 117.264C211.835 117.712 211.682 118.434 211.682 119.406C211.682 120.378 211.835 121.098 212.136 121.548C212.412 121.957 212.734 122.147 213.149 122.147C213.586 122.147 213.913 121.963 214.177 121.566C214.469 121.128 214.617 120.401 214.617 119.408C214.617 118.414 214.469 117.688 214.177 117.249C213.912 116.852 213.586 116.668 213.149 116.668V116.665Z" fill="#333333"/>
<path d="M207.468 119.03C207.468 121.952 209.237 124.721 212.82 124.721C217.218 124.721 218.359 121.137 218.033 117.88C217.836 115.907 215.954 113.242 212.84 113.242C212.84 113.242 218.803 113.092 218.803 118.254C218.803 123.416 217.067 125.571 213.153 125.571C209.238 125.571 207.88 122.902 207.663 121.287C207.447 119.673 207.469 119.03 207.469 119.03H207.468Z" fill="#333333"/>
<path d="M212.071 122.552C210.538 121.626 210.203 117.401 211.516 116.088C212.656 114.948 214.448 115.437 215.026 117.382C215.026 117.382 214.718 116.279 212.872 116.279C211.027 116.279 211.19 119.058 211.353 120.343C211.516 121.628 212.071 122.552 212.071 122.552Z" fill="#333333"/>
<path d="M223.269 129.688C223.269 132.563 225.038 135.288 228.621 135.288C233.019 135.288 234.159 131.763 233.834 128.558C233.637 126.618 231.755 123.995 228.641 123.995C228.641 123.995 234.604 123.847 234.604 128.927C234.604 134.008 232.868 136.126 228.953 136.126C225.039 136.126 223.681 133.5 223.464 131.91C223.247 130.32 223.27 129.688 223.27 129.688H223.269Z" fill="#333333"/>
<path d="M227.872 133.152C226.339 132.242 226.003 128.085 227.316 126.793C228.457 125.671 230.248 126.151 230.827 128.065C230.827 128.065 230.519 126.98 228.673 126.98C226.828 126.98 226.991 129.715 227.153 130.978C227.316 132.24 227.872 133.151 227.872 133.151V133.152Z" fill="#333333"/>
<path d="M211.915 134.61H215.292L229.856 113.521H230.894L215.694 135.78H211.115L211.915 134.61Z" fill="#333333"/>
<path d="M208.601 122.152C207.903 119.857 208.214 117.428 209.411 115.812C210.291 114.625 211.589 113.972 213.063 113.972C216.257 113.972 216.945 116.047 216.972 116.135L216.195 116.379C216.174 116.317 215.633 114.786 213.063 114.786C211.835 114.786 210.797 115.309 210.064 116.298C209.017 117.71 208.754 119.863 209.38 121.916L208.601 122.154V122.152Z" fill="white"/>
<path d="M224.239 132.74C223.54 130.445 223.851 128.017 225.049 126.401C225.928 125.213 227.226 124.56 228.701 124.56C231.895 124.56 232.582 126.635 232.61 126.723L231.833 126.968C231.812 126.906 231.271 125.375 228.701 125.375C227.472 125.375 226.435 125.897 225.702 126.886C224.654 128.298 224.392 130.452 225.018 132.504L224.239 132.742V132.74Z" fill="white"/>
<path d="M226.638 114.134L213.369 133.68L214.043 134.137L227.311 114.591L226.638 114.134Z" fill="white"/>
<path d="M160.134 129.449L166.332 123.72C168.523 121.716 170.002 119.923 170.771 118.343C171.536 116.761 171.921 115.078 171.921 113.293C171.921 111.291 171.38 109.53 170.3 108.01C169.22 106.492 167.718 105.326 165.793 104.512C163.867 103.699 161.652 103.292 159.147 103.292C155.985 103.292 153.245 103.901 150.929 105.122C148.849 106.219 147.187 107.678 145.941 109.506C145.798 109.714 145.659 109.929 145.527 110.148L152.432 113.998C153.089 112.966 153.926 112.174 154.944 111.627C155.961 111.079 157.081 110.804 158.301 110.804C159.679 110.804 160.728 111.102 161.448 111.697C162.168 112.293 162.528 113.122 162.528 114.186C162.528 115 162.325 115.806 161.917 116.605C161.761 116.912 161.546 117.245 161.272 117.602C160.838 118.17 160.254 118.8 159.523 119.493L147.218 130.998V136.821H172.813V129.449H160.134Z" fill="#FFC439"/>
<path d="M173.22 137.228H146.81V130.822L159.244 119.196C159.954 118.523 160.527 117.904 160.948 117.356C161.205 117.02 161.409 116.706 161.554 116.422C161.93 115.684 162.121 114.933 162.121 114.187C162.121 113.243 161.816 112.531 161.189 112.013C160.547 111.483 159.575 111.213 158.301 111.213C157.154 111.213 156.09 111.474 155.137 111.987C154.188 112.498 153.393 113.249 152.775 114.218L152.569 114.542L144.96 110.299L145.178 109.937C145.315 109.709 145.46 109.488 145.605 109.276C146.88 107.405 148.609 105.886 150.738 104.762C153.1 103.516 155.929 102.884 159.146 102.884C161.694 102.884 163.982 103.306 165.95 104.137C167.937 104.977 169.511 106.201 170.63 107.774C171.756 109.358 172.326 111.215 172.326 113.293C172.326 115.129 171.925 116.888 171.135 118.52C170.345 120.143 168.822 121.993 166.605 124.021L161.173 129.043H173.218V137.23L173.22 137.228ZM147.625 136.414H172.406V129.856H159.092L166.054 123.42C168.196 121.46 169.659 119.693 170.404 118.163C171.14 116.644 171.513 115.003 171.513 113.291C171.513 111.386 170.993 109.688 169.967 108.245C168.936 106.797 167.478 105.666 165.633 104.886C163.766 104.098 161.583 103.699 159.145 103.699C156.063 103.699 153.36 104.298 151.117 105.482C149.106 106.543 147.478 107.973 146.276 109.735C146.216 109.822 146.157 109.911 146.099 110.001L152.301 113.461C152.961 112.524 153.784 111.788 154.75 111.268C155.823 110.69 157.017 110.397 158.299 110.397C159.767 110.397 160.914 110.729 161.705 111.382C162.52 112.057 162.933 113 162.933 114.186C162.933 115.062 162.713 115.937 162.279 116.79C162.112 117.118 161.881 117.474 161.594 117.849C161.148 118.432 160.545 119.084 159.803 119.788L147.625 131.174V136.414Z" fill="#333333"/>
<path d="M147.219 135.358H171.571V129.448H172.812V136.822H147.219V135.358Z" fill="#333333"/>
<path d="M159.635 129.852H157.518C157.518 129.852 167.617 121.871 169.734 117.798C171.852 113.726 171.709 106.104 164.532 104.05C164.532 104.05 171.919 105.529 171.919 113.293C171.919 115.039 171.512 117.036 170.549 118.776C167.229 124.767 159.635 129.852 159.635 129.852Z" fill="#333333"/>
<path d="M162.487 116.414C162.276 116.864 161.842 117.258 161.271 117.602C161.545 117.245 161.76 116.913 161.917 116.605C162.324 115.807 162.527 115 162.527 114.186C162.527 113.122 162.167 112.293 161.447 111.697C160.727 111.102 159.678 110.804 158.3 110.804C157.08 110.804 155.96 111.079 154.943 111.627C153.925 112.174 153.088 112.966 152.431 113.998L145.526 110.148C145.658 109.929 145.797 109.714 145.94 109.506L152.224 112.668C152.224 112.668 153.738 109.506 158.52 109.506C163.303 109.506 163.627 113.971 162.487 116.414Z" fill="#333333"/>
<path d="M147.875 109.734L147.199 109.279C147.339 109.073 150.708 104.197 158.82 104.197C166.932 104.197 169.411 108.693 169.519 108.884L168.808 109.284C168.784 109.242 166.28 105.012 158.82 105.012C151.359 105.012 147.906 109.687 147.875 109.734Z" fill="white"/>
<path d="M148.803 134.169H147.988V131.222L148.119 131.102C148.198 131.029 156.169 123.643 161.316 118.963C164.641 115.94 163.536 112.698 163.487 112.562L164.253 112.285C164.31 112.441 165.607 116.165 161.863 119.566C157.081 123.913 149.86 130.599 148.803 131.578V134.169Z" fill="white"/>
<path d="M170.67 130.237H163.037V131.051H170.67V130.237Z" fill="white"/>
<path d="M202.667 110.878C201.538 108.521 200.013 106.68 198.091 105.351C197.905 105.224 197.716 105.101 197.524 104.983C195.333 103.637 192.844 102.964 190.057 102.964C187.27 102.964 184.734 103.637 182.543 104.983C180.352 106.33 178.637 108.294 177.402 110.878C176.164 113.459 175.547 116.52 175.547 120.058C175.547 121.273 175.62 122.432 175.767 123.533C176.044 125.64 176.589 127.543 177.402 129.239C178.637 131.822 180.352 133.787 182.543 135.132C184.734 136.479 187.239 137.152 190.057 137.152C192.875 137.152 195.333 136.479 197.524 135.132C199.715 133.787 201.429 131.822 202.667 129.239C203.903 126.657 204.522 123.596 204.522 120.058C204.522 116.52 203.903 113.459 202.667 110.878ZM193.791 127.266C192.942 128.662 191.823 129.416 190.434 129.53C190.311 129.54 190.184 129.545 190.057 129.545C188.461 129.545 187.2 128.786 186.277 127.266C185.353 125.748 184.892 123.345 184.892 120.058C184.892 116.771 185.353 114.368 186.277 112.849C187.2 111.33 188.461 110.571 190.057 110.571C191.654 110.571 192.867 111.33 193.791 112.849C194.462 113.951 194.889 115.522 195.073 117.556C195.143 118.323 195.177 119.157 195.177 120.058C195.177 123.345 194.714 125.748 193.791 127.266Z" fill="#FFC439"/>
<path d="M190.055 137.559C187.172 137.559 184.572 136.858 182.328 135.479C180.077 134.096 178.296 132.056 177.032 129.414C176.205 127.686 175.641 125.725 175.361 123.586C175.213 122.473 175.138 121.286 175.138 120.058C175.138 116.472 175.776 113.324 177.034 110.701C178.296 108.061 180.077 106.02 182.328 104.635C184.574 103.255 187.174 102.557 190.055 102.557C192.937 102.557 195.489 103.255 197.736 104.635C197.942 104.762 198.133 104.886 198.319 105.015C200.293 106.38 201.878 108.292 203.031 110.701C204.289 113.327 204.926 116.476 204.926 120.058C204.926 123.64 204.289 126.788 203.031 129.414C201.764 132.058 199.982 134.099 197.734 135.479C195.489 136.858 192.904 137.559 190.054 137.559H190.055ZM190.055 103.371C187.327 103.371 184.87 104.029 182.754 105.329C180.639 106.629 178.961 108.556 177.768 111.053C176.563 113.566 175.952 116.595 175.952 120.058C175.952 121.25 176.025 122.4 176.169 123.478C176.439 125.532 176.977 127.412 177.768 129.062C178.962 131.561 180.64 133.486 182.754 134.785C184.869 136.085 187.325 136.744 190.055 136.744C192.785 136.744 195.195 136.085 197.309 134.785C199.422 133.488 201.099 131.563 202.297 129.062C203.5 126.547 204.111 123.518 204.111 120.058C204.111 116.598 203.5 113.568 202.297 111.053C201.205 108.774 199.711 106.968 197.856 105.686C197.682 105.567 197.503 105.45 197.307 105.329C195.193 104.031 192.751 103.371 190.054 103.371H190.055Z" fill="#333333"/>
<path d="M190.055 129.952C188.314 129.952 186.924 129.12 185.926 127.478C184.955 125.881 184.482 123.454 184.482 120.058C184.482 116.662 184.955 114.236 185.926 112.637C186.924 110.995 188.314 110.164 190.055 110.164C191.796 110.164 193.138 110.996 194.137 112.637C194.837 113.787 195.287 115.429 195.476 117.519C195.546 118.289 195.582 119.143 195.582 120.058C195.582 123.404 195.095 125.901 194.137 127.478C193.222 128.985 191.985 129.812 190.465 129.936C190.332 129.947 190.193 129.952 190.057 129.952H190.055ZM186.623 113.06C185.743 114.507 185.297 116.862 185.297 120.058C185.297 123.254 185.743 125.609 186.623 127.054C187.475 128.457 188.597 129.138 190.055 129.138C190.172 129.138 190.288 129.133 190.399 129.125C191.661 129.02 192.656 128.344 193.44 127.054C194.321 125.606 194.767 123.252 194.767 120.058C194.767 119.169 194.733 118.338 194.665 117.594C194.487 115.629 194.075 114.103 193.44 113.06C192.588 111.659 191.48 110.979 190.055 110.979C188.63 110.979 187.475 111.659 186.623 113.06Z" fill="#333333"/>
<path d="M204.52 120.058C204.52 123.596 203.901 126.657 202.665 129.239C201.427 131.822 199.713 133.787 197.522 135.132C195.331 136.479 192.842 137.152 190.055 137.152C187.268 137.152 184.732 136.479 182.541 135.132C180.35 133.787 178.635 131.822 177.4 129.239C176.587 127.543 176.042 125.64 175.765 123.533L175.924 123.502C176.413 128.714 181.008 135.666 190.032 135.666C199.056 135.666 203.127 127.9 203.127 119.266C203.127 108.271 197.915 105.584 197.915 105.584L198.089 105.351C200.011 106.68 201.536 108.52 202.665 110.877C203.901 113.459 204.52 116.52 204.52 120.058Z" fill="#333333"/>
<path d="M195.071 117.556C194.887 115.522 194.46 113.951 193.789 112.849C192.865 111.331 191.621 110.571 190.055 110.571C188.49 110.571 187.198 111.331 186.275 112.849C185.351 114.368 184.89 116.771 184.89 120.058C184.89 123.345 185.351 125.748 186.275 127.266C187.198 128.786 188.459 129.545 190.055 129.545C190.182 129.545 190.309 129.54 190.431 129.53L190.422 129.855C187.653 129.855 183.743 129.04 183.743 119.267C183.743 109.493 188.956 108.679 191.562 109.656C194.168 110.633 195.146 114.054 195.308 116.335C195.333 116.678 195.243 117.095 195.071 117.556Z" fill="#333333"/>
<path d="M177.152 125.85C175.333 115.427 178.569 107.127 185.399 104.708C189.565 103.232 193.178 104.133 195.473 105.146C197.955 106.243 199.439 107.671 199.501 107.732L198.932 108.315C198.875 108.259 193.148 102.827 185.67 105.474C179.234 107.753 176.206 115.695 177.954 125.707L177.151 125.847L177.152 125.85Z" fill="white"/>
<path d="M189.949 131.369C188.522 131.369 187.087 130.897 185.873 129.991L186.36 129.338C187.927 130.508 189.908 130.86 191.661 130.283C193.518 129.671 194.917 128.09 195.596 125.831C197.137 120.715 195.464 114.409 195.446 114.346L196.233 114.132C196.305 114.399 197.986 120.721 196.376 126.066C195.617 128.586 194.032 130.356 191.916 131.055C191.278 131.265 190.615 131.368 189.949 131.368V131.369Z" fill="white"/>
<path d="M143.079 192.056C142.019 190.954 141.489 189.448 141.489 187.541C141.489 186.29 141.732 185.199 142.221 184.265C142.708 183.332 143.38 182.617 144.24 182.118C145.099 181.62 146.08 181.371 147.182 181.371C148.878 181.371 150.256 181.928 151.316 183.04C152.377 184.153 152.906 185.653 152.906 187.539C152.906 189.426 152.377 190.952 151.316 192.055C150.256 193.157 148.878 193.708 147.182 193.708C145.487 193.708 144.139 193.157 143.081 192.055L143.079 192.056ZM160.346 181.659H164.924L149.725 203.916H145.146L160.346 181.659ZM148.549 189.926C148.888 189.417 149.057 188.623 149.057 187.541C149.057 186.459 148.888 185.664 148.549 185.156C148.21 184.648 147.754 184.392 147.182 184.392C146.611 184.392 146.181 184.653 145.83 185.171C145.48 185.69 145.306 186.481 145.306 187.539C145.306 188.598 145.48 189.39 145.83 189.908C146.181 190.427 146.63 190.686 147.182 190.686C147.735 190.686 148.21 190.432 148.549 189.924V189.926ZM158.772 202.55C157.723 201.447 157.199 199.942 157.199 198.034C157.199 196.127 157.728 194.648 158.788 193.535C159.849 192.423 161.215 191.866 162.89 191.866C164.564 191.866 165.964 192.423 167.024 193.535C168.085 194.648 168.614 196.148 168.614 198.034C168.614 199.921 168.085 201.447 167.024 202.55C165.964 203.653 164.586 204.203 162.89 204.203C161.194 204.203 159.821 203.653 158.772 202.55ZM164.257 200.419C164.595 199.911 164.765 199.116 164.765 198.034C164.765 196.953 164.595 196.158 164.257 195.65C163.918 195.141 163.462 194.887 162.89 194.887C162.318 194.887 161.862 195.141 161.523 195.65C161.184 196.158 161.015 196.953 161.015 198.034C161.015 199.116 161.184 199.911 161.523 200.419C161.862 200.927 162.318 201.183 162.89 201.183C163.462 201.183 163.918 200.929 164.257 200.419Z" fill="#FFC439"/>
<path d="M162.888 204.61C161.085 204.61 159.599 204.011 158.475 202.83C157.356 201.656 156.789 200.041 156.789 198.035C156.789 196.028 157.363 194.44 158.492 193.254C159.625 192.063 161.106 191.459 162.888 191.459C164.67 191.459 166.182 192.063 167.317 193.254C168.446 194.44 169.019 196.049 169.019 198.035C169.019 200.02 168.446 201.657 167.315 202.832C166.18 204.011 164.691 204.61 162.888 204.61ZM162.888 192.273C161.314 192.273 160.07 192.778 159.081 193.816C158.101 194.845 157.604 196.264 157.604 198.035C157.604 199.805 158.096 201.25 159.065 202.27C160.042 203.298 161.293 203.798 162.888 203.798C164.483 203.798 165.739 203.298 166.729 202.27C167.708 201.252 168.205 199.828 168.205 198.036C168.205 196.244 167.708 194.847 166.727 193.817C165.739 192.78 164.483 192.275 162.888 192.275V192.273ZM149.938 204.324H144.374L160.129 181.252H165.695L149.94 204.324H149.938ZM145.915 203.509H149.506L164.15 182.066H160.557L145.915 203.509ZM162.886 201.589C162.181 201.589 161.591 201.263 161.179 200.644C160.792 200.061 160.603 199.207 160.603 198.033C160.603 196.858 160.792 196.005 161.179 195.422C161.591 194.804 162.181 194.477 162.885 194.477C163.588 194.477 164.178 194.803 164.59 195.422C164.978 196.005 165.167 196.858 165.167 198.033C165.167 199.207 164.978 200.061 164.59 200.644C164.178 201.261 163.588 201.589 162.885 201.589H162.886ZM162.886 195.293C162.448 195.293 162.122 195.477 161.859 195.875C161.567 196.313 161.419 197.039 161.419 198.033C161.419 199.027 161.567 199.753 161.859 200.191C162.122 200.589 162.45 200.773 162.886 200.773C163.323 200.773 163.65 200.589 163.916 200.191C164.207 199.751 164.356 199.027 164.356 198.033C164.356 197.039 164.207 196.313 163.916 195.875C163.652 195.477 163.325 195.293 162.888 195.293H162.886ZM147.179 194.117C145.397 194.117 143.918 193.519 142.784 192.338C141.653 191.164 141.08 189.55 141.08 187.541C141.08 186.23 141.342 185.064 141.857 184.078C142.378 183.081 143.11 182.304 144.033 181.768C144.952 181.236 146.009 180.967 147.179 180.967C148.982 180.967 150.472 181.571 151.608 182.762C152.737 183.948 153.31 185.557 153.31 187.543C153.31 189.528 152.737 191.165 151.606 192.34C150.471 193.519 148.982 194.119 147.179 194.119V194.117ZM147.179 181.78C146.154 181.78 145.234 182.013 144.442 182.472C143.655 182.928 143.028 183.596 142.58 184.454C142.126 185.324 141.896 186.362 141.896 187.541C141.896 189.331 142.393 190.757 143.372 191.775C144.361 192.804 145.607 193.303 147.18 193.303C148.754 193.303 150.031 192.803 151.021 191.775C152 190.757 152.497 189.333 152.497 187.541C152.497 185.749 152 184.352 151.02 183.322C150.031 182.285 148.775 181.78 147.18 181.78H147.179ZM147.179 191.097C146.486 191.097 145.918 190.774 145.49 190.138C145.09 189.545 144.895 188.694 144.895 187.541C144.895 186.388 145.089 185.539 145.49 184.945C145.918 184.308 146.486 183.985 147.179 183.985C147.871 183.985 148.472 184.311 148.884 184.93C149.274 185.513 149.461 186.367 149.461 187.541C149.461 188.716 149.272 189.569 148.884 190.152C148.472 190.77 147.882 191.097 147.179 191.097ZM147.179 184.801C146.763 184.801 146.441 184.992 146.166 185.401C145.864 185.849 145.711 186.57 145.711 187.543C145.711 188.515 145.864 189.235 146.166 189.685C146.441 190.094 146.763 190.284 147.179 190.284C147.615 190.284 147.943 190.1 148.207 189.703C148.498 189.264 148.648 188.538 148.648 187.544C148.648 186.551 148.5 185.824 148.207 185.386C147.943 184.989 147.615 184.805 147.179 184.805V184.801Z" fill="#333333"/>
<path d="M141.498 187.166C141.498 190.088 143.267 192.857 146.851 192.857C151.249 192.857 152.389 189.274 152.063 186.016C151.866 184.043 149.985 181.378 146.87 181.378C146.87 181.378 152.834 181.229 152.834 186.391C152.834 191.553 151.097 193.708 147.183 193.708C143.269 193.708 141.91 191.038 141.694 189.424C141.477 187.809 141.5 187.166 141.5 187.166H141.498Z" fill="#333333"/>
<path d="M146.102 190.688C144.569 189.763 144.234 185.537 145.547 184.224C146.687 183.084 148.479 183.573 149.057 185.518C149.057 185.518 148.749 184.415 146.904 184.415C145.058 184.415 145.221 187.194 145.384 188.479C145.547 189.764 146.102 190.688 146.102 190.688Z" fill="#333333"/>
<path d="M157.298 197.824C157.298 200.699 159.067 203.424 162.65 203.424C167.049 203.424 168.189 199.899 167.863 196.693C167.666 194.753 165.784 192.131 162.67 192.131C162.67 192.131 168.633 191.983 168.633 197.063C168.633 202.144 166.897 204.261 162.983 204.261C159.068 204.261 157.71 201.636 157.493 200.046C157.277 198.456 157.299 197.824 157.299 197.824H157.298Z" fill="#333333"/>
<path d="M161.903 201.289C160.37 200.379 160.035 196.222 161.348 194.93C162.488 193.808 164.28 194.288 164.858 196.202C164.858 196.202 164.55 195.117 162.704 195.117C160.859 195.117 161.022 197.852 161.185 199.115C161.348 200.377 161.903 201.288 161.903 201.288V201.289Z" fill="#333333"/>
<path d="M145.945 202.747H149.321L163.887 181.657H164.925L149.725 203.916H145.146L145.945 202.747Z" fill="#333333"/>
<path d="M142.634 190.289C141.935 187.994 142.246 185.565 143.443 183.95C144.323 182.762 145.619 182.109 147.095 182.109C150.289 182.109 150.977 184.184 151.005 184.272L150.228 184.516C150.206 184.455 149.666 182.923 147.095 182.923C145.867 182.923 144.829 183.446 144.096 184.435C143.049 185.847 142.787 188.001 143.412 190.053L142.634 190.291V190.289Z" fill="white"/>
<path d="M158.27 200.877C157.571 198.582 157.883 196.153 159.08 194.537C159.959 193.35 161.256 192.697 162.732 192.697C165.926 192.697 166.614 194.772 166.641 194.86L165.864 195.104C165.843 195.042 165.302 193.511 162.732 193.511C161.504 193.511 160.466 194.034 159.733 195.023C158.686 196.435 158.423 198.589 159.049 200.641L158.27 200.879V200.877Z" fill="white"/>
<path d="M160.675 182.268L147.406 201.814L148.08 202.271L161.349 182.725L160.675 182.268Z" fill="white"/>
<path d="M137.023 178.688C135.894 176.331 134.37 174.49 132.447 173.161C132.262 173.034 132.073 172.912 131.881 172.793C129.69 171.447 127.201 170.774 124.414 170.774C121.627 170.774 119.09 171.447 116.9 172.793C114.709 174.14 112.993 176.104 111.759 178.688C110.521 181.269 109.903 184.33 109.903 187.868C109.903 189.083 109.977 190.242 110.123 191.343C110.4 193.451 110.946 195.353 111.759 197.049C112.993 199.632 114.709 201.597 116.9 202.942C119.09 204.289 121.596 204.962 124.414 204.962C127.232 204.962 129.69 204.289 131.881 202.942C134.072 201.597 135.785 199.632 137.023 197.049C138.259 194.467 138.878 191.406 138.878 187.868C138.878 184.33 138.259 181.269 137.023 178.688ZM128.147 195.076C127.298 196.472 126.179 197.226 124.79 197.34C124.668 197.35 124.541 197.355 124.414 197.355C122.817 197.355 121.557 196.596 120.633 195.076C119.709 193.558 119.248 191.155 119.248 187.868C119.248 184.581 119.709 182.178 120.633 180.659C121.557 179.141 122.817 178.381 124.414 178.381C126.01 178.381 127.224 179.141 128.147 180.659C128.818 181.761 129.245 183.332 129.429 185.366C129.499 186.133 129.533 186.967 129.533 187.868C129.533 191.155 129.071 193.558 128.147 195.076Z" fill="#FFC439"/>
<path d="M124.414 205.367C121.531 205.367 118.931 204.667 116.686 203.287C114.435 201.906 112.655 199.865 111.391 197.223C110.563 195.496 109.999 193.535 109.719 191.395C109.571 190.28 109.496 189.093 109.496 187.866C109.496 184.281 110.135 181.132 111.392 178.51C112.655 175.869 114.437 173.828 116.686 172.444C118.932 171.064 121.532 170.365 124.414 170.365C127.295 170.365 129.848 171.064 132.094 172.444C132.303 172.572 132.493 172.696 132.677 172.823C134.651 174.188 136.236 176.101 137.39 178.51C138.647 181.136 139.286 184.284 139.286 187.866C139.286 191.448 138.647 194.597 137.39 197.223C136.122 199.866 134.34 201.908 132.092 203.287C129.848 204.667 127.263 205.367 124.412 205.367H124.414ZM124.414 171.18C121.685 171.18 119.229 171.838 117.113 173.138C114.997 174.438 113.319 176.365 112.127 178.862C110.921 181.375 110.311 184.405 110.311 187.866C110.311 189.057 110.384 190.207 110.527 191.287C110.798 193.343 111.335 195.221 112.127 196.871C113.321 199.37 114.999 201.295 117.115 202.593C119.229 203.893 121.685 204.553 124.415 204.553C127.145 204.553 129.555 203.893 131.669 202.593C133.782 201.297 135.459 199.371 136.657 196.871C137.862 194.356 138.473 191.326 138.473 187.866C138.473 184.406 137.862 181.377 136.657 178.862C135.565 176.583 134.072 174.776 132.216 173.494C132.044 173.377 131.864 173.26 131.667 173.138C129.553 171.839 127.111 171.18 124.414 171.18Z" fill="#333333"/>
<path d="M124.413 197.76C122.672 197.76 121.283 196.928 120.284 195.286C119.313 193.69 118.841 191.262 118.841 187.866C118.841 184.47 119.313 182.044 120.284 180.445C121.283 178.803 122.672 177.972 124.412 177.972C126.151 177.972 127.495 178.805 128.494 180.445C129.194 181.595 129.644 183.237 129.834 185.327C129.904 186.097 129.94 186.951 129.94 187.866C129.94 191.214 129.453 193.709 128.494 195.286C127.578 196.793 126.342 197.62 124.822 197.744C124.689 197.755 124.55 197.76 124.413 197.76ZM120.981 180.868C120.102 182.315 119.655 184.67 119.655 187.866C119.655 191.062 120.102 193.418 120.981 194.862C121.833 196.265 122.955 196.946 124.413 196.946C124.531 196.946 124.646 196.941 124.757 196.933C126.019 196.828 127.015 196.152 127.798 194.862C128.679 193.416 129.126 191.06 129.126 187.866C129.126 186.977 129.092 186.146 129.023 185.402C128.846 183.436 128.433 181.911 127.798 180.868C126.946 179.468 125.839 178.787 124.413 178.787C122.988 178.787 121.833 179.468 120.981 180.868Z" fill="#333333"/>
<path d="M138.877 187.867C138.877 191.405 138.258 194.465 137.022 197.047C135.784 199.631 134.07 201.595 131.879 202.941C129.689 204.288 127.2 204.96 124.413 204.96C121.625 204.96 119.089 204.288 116.898 202.941C114.707 201.595 112.992 199.631 111.757 197.047C110.945 195.352 110.399 193.449 110.122 191.341L110.282 191.31C110.77 196.523 115.366 203.475 124.39 203.475C133.414 203.475 137.485 195.708 137.485 187.075C137.485 176.08 132.272 173.392 132.272 173.392L132.446 173.159C134.368 174.488 135.893 176.329 137.022 178.686C138.258 181.268 138.877 184.329 138.877 187.867Z" fill="#333333"/>
<path d="M129.429 185.364C129.245 183.33 128.818 181.76 128.147 180.657C127.223 179.139 125.979 178.38 124.414 178.38C122.848 178.38 121.556 179.139 120.633 180.657C119.709 182.177 119.248 184.579 119.248 187.866C119.248 191.154 119.709 193.556 120.633 195.074C121.556 196.594 122.817 197.353 124.414 197.353C124.541 197.353 124.668 197.348 124.79 197.338L124.78 197.663C122.011 197.663 118.102 196.848 118.102 187.075C118.102 177.301 123.314 176.487 125.92 177.464C128.527 178.441 129.504 181.862 129.667 184.143C129.691 184.486 129.602 184.903 129.429 185.364Z" fill="#333333"/>
<path d="M111.508 193.661C109.688 183.238 112.925 174.938 119.755 172.519C123.92 171.044 127.533 171.944 129.828 172.957C132.311 174.054 133.795 175.482 133.856 175.543L133.288 176.126C133.231 176.07 127.504 170.638 120.025 173.285C113.59 175.564 110.561 183.506 112.309 193.518L111.506 193.658L111.508 193.661Z" fill="white"/>
<path d="M124.307 199.178C122.88 199.178 121.445 198.705 120.231 197.8L120.718 197.146C122.286 198.316 124.266 198.669 126.021 198.089C127.879 197.477 129.277 195.897 129.956 193.639C131.499 188.523 129.824 182.217 129.806 182.154L130.593 181.94C130.665 182.208 132.347 188.529 130.736 193.874C129.977 196.394 128.392 198.164 126.276 198.863C125.638 199.073 124.973 199.176 124.309 199.176L124.307 199.178Z" fill="white"/>
<path d="M104.462 187.607C103.006 185.933 100.916 184.814 98.1927 184.25L105.003 176.925V171.102H81.239V178.287H94.2019L93.1219 179.453L88.3313 184.626V190.495H92.2293C95.5783 190.495 97.2545 191.561 97.2545 193.69C97.2545 194.074 97.1975 194.426 97.0802 194.748C96.8684 195.346 96.4563 195.84 95.8455 196.226C94.9056 196.82 93.6383 197.117 92.0403 197.117C90.4424 197.117 88.8867 196.882 87.2741 196.413C85.6615 195.944 84.2134 195.271 82.9298 194.393L80.1378 200.174L79.5498 201.391C81.208 202.424 83.1725 203.222 85.4432 203.786C87.7123 204.349 90.0058 204.631 92.3221 204.631C95.4838 204.631 98.1373 204.123 100.283 203.105C102.426 202.088 104.024 200.749 105.073 199.09C106.121 197.431 106.647 195.631 106.647 193.69C106.647 191.31 105.919 189.283 104.462 187.607Z" fill="#FFC439"/>
<path d="M92.3219 205.038C89.9828 205.038 87.6355 204.75 85.3453 204.182C83.0436 203.61 81.0221 202.787 79.3346 201.738L79.0234 201.544L82.7683 193.791L83.1593 194.058C84.4005 194.907 85.8225 195.568 87.3879 196.022C88.9566 196.478 90.5219 196.71 92.0401 196.71C93.5582 196.71 94.7588 196.431 95.627 195.882C96.1629 195.543 96.5131 195.128 96.6955 194.613C96.7982 194.333 96.847 194.032 96.847 193.69C96.847 193.001 96.847 190.903 92.229 190.903H87.9238V184.467L93.2699 178.694H80.8315V170.694H105.41V177.085L98.9711 184.011C101.439 184.633 103.387 185.75 104.77 187.34C106.287 189.085 107.054 191.222 107.054 193.69C107.054 195.698 106.503 197.588 105.417 199.308C104.33 201.026 102.662 202.427 100.457 203.473C98.2674 204.512 95.5308 205.038 92.3219 205.038ZM80.0773 201.235C81.6281 202.15 83.4639 202.875 85.5407 203.39C87.7674 203.944 90.0479 204.224 92.3219 204.224C95.4087 204.224 98.028 203.724 100.108 202.737C102.172 201.758 103.728 200.458 104.729 198.871C105.731 197.285 106.239 195.54 106.239 193.69C106.239 191.424 105.537 189.466 104.154 187.874C102.765 186.277 100.73 185.192 98.1094 184.649L97.4008 184.503L104.594 176.765V171.509H81.6444V177.879H95.1318L88.7366 184.786V190.088H92.2274C95.8322 190.088 97.6598 191.3 97.6598 193.69C97.6598 194.121 97.5931 194.524 97.4611 194.887C97.22 195.568 96.7493 196.135 96.0619 196.57C95.0617 197.203 93.7081 197.524 92.0385 197.524C90.3688 197.524 88.8002 197.281 87.1582 196.804C85.6727 196.373 84.3076 195.763 83.0925 194.99L80.0757 201.235H80.0773Z" fill="#333333"/>
<path d="M106.646 193.69C106.646 195.631 106.12 197.431 105.072 199.09C104.023 200.749 102.425 202.088 100.282 203.105C98.1364 204.123 95.4829 204.631 92.3211 204.631C90.0048 204.631 87.7113 204.349 85.4422 203.786C83.1715 203.222 81.2071 202.424 79.5488 201.391L80.1369 200.174C80.2346 200.253 83.9404 203.119 93.4223 203.119C102.904 203.119 105.476 196.278 105.476 193.509C105.476 190.74 104.01 185.69 97.9832 184.387L97.6575 184.55L96.843 184.387L103.684 176.568V171.102H105.002V176.925L98.1917 184.25C100.915 184.814 103.005 185.933 104.461 187.607C105.918 189.283 106.646 191.31 106.646 193.69Z" fill="#333333"/>
<path d="M97.6582 193.672C97.6582 194.18 97.4448 194.527 97.08 194.749C97.1972 194.426 97.2542 194.074 97.2542 193.69C97.2542 191.561 95.5781 190.496 92.229 190.496H88.3311V188.909H92.9246C96.0293 188.909 97.6582 190.089 97.6582 193.672Z" fill="#333333"/>
<path d="M96.1917 176.894L93.5854 179.5L93.1212 179.453L94.2012 178.287H81.2383V176.894H96.1917Z" fill="#333333"/>
<path d="M82.835 175.998H82.0205V171.845H102.952V172.659H82.835V175.998Z" fill="white"/>
<path d="M90.0029 188.623H89.1885V185.01L95.9762 177.725L96.5723 178.281L90.0029 185.33V188.623Z" fill="white"/>
<path d="M81.6021 200.561L80.874 200.198L83.2669 195.399L83.6611 195.718C83.6937 195.744 87.0492 198.376 93.1479 197.909C95.1172 197.757 96.5051 197.204 97.2739 196.262C98.2154 195.109 98.1503 193.472 97.989 192.175L98.797 192.074C98.9794 193.532 99.0429 195.384 97.9059 196.777C96.9775 197.912 95.443 198.549 93.213 198.72C87.9468 199.126 84.6612 197.362 83.5601 196.64L81.6054 200.561H81.6021Z" fill="white"/>
</svg>
