<svg width="198" height="198" viewBox="0 0 198 198" fill="none" xmlns="http://www.w3.org/2000/svg">
<g clip-path="url(#clip0_6093_21975)">
<path d="M191.739 73.7608L89.5878 3.9069C85.3984 1.04381 79.6227 2.06048 76.7209 6.17732L4.40409 108.843C0.7325 114.054 2.07611 121.189 7.40388 124.781L108.716 193.14C115.751 197.89 125.427 195.884 129.891 188.754L194.314 85.8287C196.852 81.7711 195.723 76.4872 191.739 73.7608Z" stroke="#3D9BE9" stroke-width="4.6653" stroke-miterlimit="10"/>
<path d="M183.813 64.2645L160.44 140.419L155.182 157.566L147.857 181.428C146.901 184.546 143.5 186.283 140.332 185.271L138.256 184.61L133.698 183.151L55.2931 158.117L39.7017 153.139L24.6141 148.32C19.9535 146.829 17.0377 142.525 17.2056 137.957C17.2383 137.018 17.4062 136.074 17.7095 135.135L18.344 133.188L38.2508 72.2291L45.2767 50.7149L54.0335 23.8985C55.0272 20.8485 58.3676 19.1662 61.4887 20.1373L138.051 44.0131L176.479 55.9943L179.936 57.0748C183.02 58.0368 184.746 61.2327 183.813 64.2645Z" fill="white" stroke="black" stroke-width="2.33265" stroke-miterlimit="10"/>
<path d="M181.569 57.6397C168.506 72.2287 169.906 72.2287 162.441 72.2287H37.8777L44.8756 50.8011C52.4148 48.6949 68.7433 47.1539 85.4637 47.1539C106.35 47.1539 126.243 45.426 142.716 44.0127L181.569 57.6397Z" fill="black"/>
<path d="M18.3441 133.188L55.2933 158.117L39.7019 153.138L17.2058 137.957C17.2385 137.018 17.4064 136.074 17.7097 135.135L18.3441 133.188Z" fill="black"/>
<path d="M160.44 140.419L155.182 157.566L138.256 184.61L133.698 183.151L160.44 140.419Z" fill="black"/>
<path d="M19.1138 87.9575L4.40409 108.843C0.7325 114.054 2.07611 121.189 7.40388 124.781L108.716 193.14C115.751 197.89 125.427 195.884 129.891 188.754L172.08 121.357" stroke="#3D9BE9" stroke-width="4.6653" stroke-miterlimit="10"/>
<path d="M36.0114 79.9794C36.0114 79.9794 31.8686 76.0586 27.7258 72.5892C23.5831 69.1197 25.3605 61.6064 25.3605 41.3733C25.3605 35.5924 25.953 36.1714 62.627 36.1714H183.962C199.857 36.1714 194.594 38.802 180.365 53.0946C166.141 67.3873 165.571 69.0331 159.647 69.0331C153.722 69.0331 53.8888 69.0331 39.2771 69.0331L36.0114 79.9749V79.9794Z" fill="#3D9BE9"/>
<path d="M33.6788 72.2294C33.6788 72.2294 30.4131 69.0381 32.7458 69.0381H44.1151" stroke="black" stroke-width="1.39959" stroke-miterlimit="10"/>
<path d="M35.7782 80.2074C35.7782 80.2074 31.8686 76.0586 27.7258 72.5892C23.5831 69.1197 25.3605 61.6064 25.3605 41.3733C25.3605 35.5924 25.953 36.1714 62.627 36.1714H183.962C199.857 36.1714 194.594 38.802 180.365 53.0946C166.141 67.3873 165.571 69.0331 159.647 69.0331H39.0439L35.7782 80.2028V80.2074Z" stroke="black" stroke-width="1.86612" stroke-miterlimit="10"/>
<path d="M29.9465 42.1396C31.8127 40.3159 30.8796 40.7718 77.5326 40.7718" stroke="white" stroke-width="1.39959" stroke-miterlimit="10"/>
<path d="M91.0759 40.7217H111.711" stroke="white" stroke-width="1.39959" stroke-miterlimit="10"/>
<path d="M124.666 40.7217H134.939" stroke="white" stroke-width="1.39959" stroke-miterlimit="10"/>
<path d="M145.389 40.7217H180.869" stroke="white" stroke-width="1.39959" stroke-miterlimit="10"/>
<path d="M25.1926 66.8267C26.2143 71.7732 30.8796 73.5969 32.7457 74.5087C34.6119 75.4205 36.9958 74.5087 36.268 72.2291C35.5403 69.9496 33.2123 69.4937 32.7457 71.3173C32.7457 71.3173 30.7583 69.0332 32.9184 69.0378C35.0784 69.0424 39.2772 69.0378 39.2772 69.0378L35.7782 80.2075C35.7782 80.2075 29.6993 74.8096 27.4926 72.3796C25.2859 69.9496 25.1926 66.8267 25.1926 66.8267Z" fill="black"/>
<path d="M45.4028 60.1795V47.4141H51.3371C52.7553 47.4141 54.0056 47.6816 55.088 48.2165C56.1703 48.7393 57.0163 49.4748 57.6259 50.4231C58.2355 51.3714 58.5403 52.496 58.5403 53.7968C58.5403 55.0855 58.2355 56.2101 57.6259 57.1705C57.0163 58.1188 56.1703 58.8604 55.088 59.3954C54.0056 59.9181 52.7553 60.1795 51.3371 60.1795H45.4028ZM48.4259 57.7541H51.1878C52.0587 57.7541 52.8113 57.5961 53.4458 57.28C54.0927 56.9517 54.5904 56.4897 54.9387 55.894C55.2995 55.2983 55.4799 54.5992 55.4799 53.7968C55.4799 52.9823 55.2995 52.2832 54.9387 51.6997C54.5904 51.1039 54.0927 50.648 53.4458 50.3319C52.8113 50.0037 52.0587 49.8396 51.1878 49.8396H48.4259V57.7541Z" fill="black"/>
<path d="M60.8202 60.1795V47.4141H63.8433V60.1795H60.8202Z" fill="black"/>
<path d="M71.2355 60.3984C70.1904 60.3984 69.189 60.2646 68.231 59.9972C67.2731 59.7175 66.5017 59.3589 65.917 58.9212L66.9434 56.6964C67.5032 57.0854 68.1626 57.4076 68.9215 57.6629C69.6928 57.9061 70.4704 58.0276 71.2541 58.0276C71.8513 58.0276 72.3303 57.9729 72.691 57.8635C73.0643 57.7419 73.338 57.5778 73.5121 57.3711C73.6863 57.1645 73.7734 56.9274 73.7734 56.6599C73.7734 56.3195 73.6365 56.052 73.3629 55.8575C73.0892 55.6509 72.7284 55.4867 72.2805 55.3651C71.8326 55.2314 71.335 55.1098 70.7876 55.0004C70.2526 54.8789 69.7115 54.733 69.1641 54.5628C68.6291 54.3925 68.1377 54.1737 67.6898 53.9063C67.242 53.6388 66.875 53.2862 66.5888 52.8485C66.3151 52.4109 66.1783 51.8516 66.1783 51.1708C66.1783 50.4414 66.3773 49.7788 66.7754 49.1831C67.186 48.5752 67.7956 48.095 68.6042 47.7424C69.4253 47.3777 70.4517 47.1953 71.6833 47.1953C72.5044 47.1953 73.3131 47.2926 74.1093 47.4871C74.9055 47.6695 75.6084 47.9491 76.218 48.326L75.285 50.569C74.6754 50.2286 74.0658 49.9794 73.4562 49.8213C72.8466 49.6511 72.2494 49.566 71.6647 49.566C71.08 49.566 70.601 49.6329 70.2278 49.7666C69.8545 49.9004 69.5871 50.0766 69.4253 50.2955C69.2636 50.5022 69.1827 50.7453 69.1827 51.0249C69.1827 51.3532 69.3196 51.6206 69.5933 51.8273C69.867 52.0218 70.2278 52.1799 70.6756 52.3015C71.1235 52.423 71.6149 52.5446 72.1499 52.6662C72.6973 52.7878 73.2384 52.9276 73.7734 53.0856C74.3208 53.2437 74.8184 53.4564 75.2663 53.7239C75.7142 53.9914 76.0749 54.3439 76.3486 54.7816C76.6348 55.2193 76.7778 55.7724 76.7778 56.4411C76.7778 57.1584 76.5726 57.8149 76.162 58.4106C75.7515 59.0063 75.1357 59.4865 74.3146 59.8513C73.5059 60.216 72.4796 60.3984 71.2355 60.3984Z" fill="black"/>
<path d="M85.0951 60.3984C84.0874 60.3984 83.1481 60.2403 82.2772 59.9242C81.4188 59.596 80.6724 59.134 80.0379 58.5383C79.4034 57.9425 78.9058 57.2435 78.545 56.4411C78.1966 55.6387 78.0225 54.7573 78.0225 53.7968C78.0225 52.8364 78.1966 51.955 78.545 51.1526C78.9058 50.3502 79.4034 49.6511 80.0379 49.0554C80.6848 48.4597 81.4375 48.0038 82.2959 47.6877C83.1543 47.3594 84.0936 47.1953 85.1137 47.1953C86.2458 47.1953 87.266 47.3898 88.1742 47.7789C89.0948 48.1558 89.8661 48.715 90.4881 49.4566L88.5474 51.2073C88.0995 50.7088 87.6019 50.338 87.0545 50.0949C86.5071 49.8396 85.9099 49.7119 85.263 49.7119C84.6534 49.7119 84.0936 49.8092 83.5835 50.0037C83.0734 50.1982 82.6318 50.4778 82.2586 50.8426C81.8853 51.2073 81.593 51.6389 81.3815 52.1373C81.1824 52.6358 81.0829 53.189 81.0829 53.7968C81.0829 54.4047 81.1824 54.9579 81.3815 55.4563C81.593 55.9548 81.8853 56.3864 82.2586 56.7511C82.6318 57.1158 83.0734 57.3955 83.5835 57.59C84.0936 57.7845 84.6534 57.8818 85.263 57.8818C85.9099 57.8818 86.5071 57.7602 87.0545 57.517C87.6019 57.2617 88.0995 56.8788 88.5474 56.3681L90.4881 58.1188C89.8661 58.8604 89.0948 59.4258 88.1742 59.8148C87.266 60.2038 86.2396 60.3984 85.0951 60.3984Z" fill="black"/>
<path d="M98.6011 60.3984C97.5685 60.3984 96.6106 60.2342 95.7273 59.906C94.8564 59.5777 94.0975 59.1157 93.4506 58.52C92.8161 57.9243 92.3185 57.2252 91.9577 56.4229C91.6094 55.6205 91.4352 54.7451 91.4352 53.7968C91.4352 52.8485 91.6094 51.9732 91.9577 51.1708C92.3185 50.3684 92.8223 49.6694 93.4693 49.0736C94.1162 48.4779 94.8751 48.0159 95.7459 47.6877C96.6168 47.3594 97.5623 47.1953 98.5824 47.1953C99.615 47.1953 100.561 47.3594 101.419 47.6877C102.29 48.0159 103.042 48.4779 103.677 49.0736C104.324 49.6694 104.828 50.3684 105.189 51.1708C105.549 51.9611 105.73 52.8364 105.73 53.7968C105.73 54.7451 105.549 55.6265 105.189 56.4411C104.828 57.2435 104.324 57.9425 103.677 58.5383C103.042 59.1218 102.29 59.5777 101.419 59.906C100.561 60.2342 99.6212 60.3984 98.6011 60.3984ZM98.5824 57.8818C99.1672 57.8818 99.7021 57.7845 100.187 57.59C100.685 57.3955 101.12 57.1158 101.494 56.7511C101.867 56.3864 102.153 55.9548 102.352 55.4563C102.563 54.9579 102.669 54.4047 102.669 53.7968C102.669 53.189 102.563 52.6358 102.352 52.1373C102.153 51.6389 101.867 51.2073 101.494 50.8426C101.133 50.4778 100.704 50.1982 100.206 50.0037C99.7083 49.8092 99.1672 49.7119 98.5824 49.7119C97.9977 49.7119 97.4566 49.8092 96.9589 50.0037C96.4737 50.1982 96.0445 50.4778 95.6713 50.8426C95.2981 51.2073 95.0057 51.6389 94.7942 52.1373C94.5952 52.6358 94.4956 53.189 94.4956 53.7968C94.4956 54.3925 94.5952 54.9457 94.7942 55.4563C95.0057 55.9548 95.2918 56.3864 95.6526 56.7511C96.0259 57.1158 96.4613 57.3955 96.9589 57.59C97.4566 57.7845 97.9977 57.8818 98.5824 57.8818Z" fill="black"/>
<path d="M113.805 60.3984C111.952 60.3984 110.502 59.8938 109.457 58.8847C108.412 57.8757 107.89 56.435 107.89 54.5628V47.4141H110.913V54.4533C110.913 55.6691 111.168 56.5444 111.678 57.0794C112.188 57.6143 112.903 57.8818 113.824 57.8818C114.745 57.8818 115.46 57.6143 115.97 57.0794C116.48 56.5444 116.735 55.6691 116.735 54.4533V47.4141H119.721V54.5628C119.721 56.435 119.198 57.8757 118.153 58.8847C117.108 59.8938 115.659 60.3984 113.805 60.3984Z" fill="black"/>
<path d="M122.708 60.1795V47.4141H125.209L132.916 56.6052H131.703V47.4141H134.689V60.1795H132.207L124.481 50.9885H125.694V60.1795H122.708Z" fill="black"/>
<path d="M140.485 60.1795V49.8213H136.305V47.4141H147.689V49.8213H143.508V60.1795H140.485Z" fill="black"/>
<path d="M63.0563 131.757V99.1598L65.9814 102.119H55.4612V96.6523H69.7277V131.757H63.0563Z" fill="black"/>
<path d="M88.7595 132.259C86.2278 132.259 83.7475 131.908 81.3184 131.205C78.9235 130.47 76.905 129.467 75.2628 128.196L78.0853 123.131C79.3854 124.168 80.9592 125.004 82.8066 125.639C84.6883 126.274 86.6384 126.592 88.6569 126.592C91.0175 126.592 92.865 126.107 94.1993 125.137C95.5678 124.168 96.252 122.864 96.252 121.226C96.252 120.122 95.9612 119.153 95.3796 118.317C94.8322 117.481 93.8401 116.846 92.4031 116.411C91.0004 115.977 89.0675 115.759 86.6042 115.759H77.9314L79.7788 96.6523H100.871V102.119H82.2421L85.7318 99.0093L84.3462 113.302L80.8565 110.243H88.0924C91.6505 110.243 94.5072 110.711 96.6626 111.647C98.8521 112.55 100.443 113.82 101.435 115.458C102.462 117.063 102.975 118.902 102.975 120.975C102.975 123.014 102.462 124.887 101.435 126.592C100.409 128.297 98.835 129.668 96.7139 130.704C94.6269 131.74 91.9755 132.259 88.7595 132.259Z" fill="black"/>
<path d="M111.351 131.757L135.881 96.6523H140.91L116.38 131.757H111.351ZM114.327 115.559C112.651 115.559 111.163 115.158 109.863 114.355C108.563 113.553 107.553 112.433 106.835 110.995C106.116 109.557 105.757 107.869 105.757 105.93C105.757 103.991 106.116 102.303 106.835 100.865C107.553 99.4273 108.563 98.3073 109.863 97.5049C111.163 96.7025 112.651 96.3013 114.327 96.3013C116.072 96.3013 117.577 96.7025 118.843 97.5049C120.143 98.3073 121.153 99.4273 121.871 100.865C122.59 102.303 122.949 103.991 122.949 105.93C122.949 107.869 122.59 109.557 121.871 110.995C121.153 112.433 120.143 113.553 118.843 114.355C117.577 115.158 116.072 115.559 114.327 115.559ZM114.379 112.048C115.747 112.048 116.808 111.53 117.56 110.494C118.347 109.424 118.741 107.903 118.741 105.93C118.741 103.957 118.347 102.453 117.56 101.417C116.808 100.347 115.747 99.8117 114.379 99.8117C113.01 99.8117 111.915 100.347 111.094 101.417C110.307 102.486 109.914 103.991 109.914 105.93C109.914 107.869 110.307 109.374 111.094 110.443C111.915 111.513 113.01 112.048 114.379 112.048ZM137.882 132.108C136.206 132.108 134.718 131.707 133.418 130.905C132.118 130.102 131.108 128.982 130.39 127.545C129.671 126.107 129.312 124.419 129.312 122.479C129.312 120.54 129.671 118.852 130.39 117.414C131.108 115.977 132.118 114.857 133.418 114.054C134.718 113.252 136.206 112.851 137.882 112.851C139.627 112.851 141.133 113.252 142.398 114.054C143.698 114.857 144.708 115.977 145.426 117.414C146.145 118.852 146.504 120.54 146.504 122.479C146.504 124.419 146.145 126.107 145.426 127.545C144.708 128.982 143.698 130.102 142.398 130.905C141.133 131.707 139.627 132.108 137.882 132.108ZM137.882 128.598C139.251 128.598 140.329 128.063 141.115 126.993C141.902 125.923 142.296 124.419 142.296 122.479C142.296 120.54 141.902 119.036 141.115 117.966C140.329 116.896 139.251 116.361 137.882 116.361C136.548 116.361 135.47 116.896 134.649 117.966C133.862 119.002 133.469 120.507 133.469 122.479C133.469 124.452 133.862 125.973 134.649 127.043C135.47 128.079 136.548 128.598 137.882 128.598Z" fill="black"/>
</g>
<defs>
<clipPath id="clip0_6093_21975">
<rect width="198" height="198" fill="white"/>
</clipPath>
</defs>
</svg>
