<svg width="34" height="43" viewBox="0 0 34 43" fill="none" xmlns="http://www.w3.org/2000/svg">
<g clip-path="url(#clip0_20933_124881)">
<path d="M19.1919 10.5847H2.7442C1.83561 10.5847 1.09766 11.319 1.09766 12.2231V41.1985C1.09766 42.1026 1.83561 42.8369 2.7442 42.8369H19.1919C20.1005 42.8369 20.8385 42.1048 20.8385 41.1985V12.2209C20.8385 11.3168 20.1005 10.5825 19.1919 10.5825V10.5847Z" fill="white"/>
<path d="M20.8385 12.2207V41.1961C20.8385 42.1002 20.1005 42.8345 19.1919 42.8345H2.7442C1.83561 42.8345 1.09766 42.1024 1.09766 41.1961V39.3548C1.09766 41.2093 1.26386 41.8069 5.53203 41.8069H17.7116C20.003 41.8069 19.562 41.5423 19.562 37.7583V14.267C19.562 11.7289 19.4645 10.8491 18.7221 10.5845H19.1875C20.0961 10.5845 20.8341 11.3188 20.8341 12.2229L20.8385 12.2207Z" fill="#3D9BE9"/>
<path d="M20.8357 15.6606V37.7582H5.40071C4.68048 37.7582 4.09766 37.1783 4.09766 36.4616V16.9573C4.09766 16.2406 4.68048 15.6606 5.40071 15.6606H20.8357Z" fill="#3D9BE9"/>
<path d="M20.8384 15.6606H19.5664V37.7582H20.8384V15.6606Z" fill="#333333"/>
<path d="M19.1902 43H2.74244C1.74299 43 0.929688 42.1907 0.929688 41.1962V12.2208C0.929688 11.2263 1.74299 10.417 2.74244 10.417H19.1902C20.1896 10.417 21.0029 11.2263 21.0029 12.2208V41.1962C21.0029 42.1907 20.1896 43 19.1902 43ZM2.74244 10.75C1.92692 10.75 1.26432 11.4093 1.26432 12.2208V41.1962C1.26432 42.0077 1.92692 42.667 2.74244 42.667H19.1902C20.0057 42.667 20.6683 42.0077 20.6683 41.1962V12.2208C20.6683 11.4093 20.0057 10.75 19.1902 10.75H2.74244Z" fill="#333333"/>
<path d="M17.2353 7.39844H4.96484V10.5826H17.2353V7.39844Z" fill="white"/>
<path d="M17.2353 7.39844V10.5826H4.96484V10.027C5.22412 10.1835 5.80474 10.1504 6.86624 10.1504H15.4691C16.6037 10.1504 16.535 10.0181 16.535 9.15592C16.535 8.29372 16.668 8.09526 16.0962 8.09526H9.80033C4.99808 8.09526 4.96484 8.09526 4.96484 8.54731V7.39844H17.2353Z" fill="#3D9BE9"/>
<path d="M17.4019 10.7501H4.79688V7.23291H17.4019V10.7501ZM5.1315 10.4193H17.0695V7.56589H5.1315V10.4193Z" fill="#333333"/>
<path d="M18.6341 3.48438V6.39735C18.6341 6.95084 18.1842 7.39848 17.628 7.39848H4.5686C4.01236 7.39848 3.5625 6.95084 3.5625 6.39735V3.48438H18.6341Z" fill="#3D9BE9"/>
<path d="M18.6363 3.48438V6.39735C18.6363 6.95084 18.1864 7.39848 17.6302 7.39848H4.57082C4.01458 7.39848 3.56472 6.95084 3.56472 6.39735V6.12832C3.56472 6.61566 4.19851 6.6355 5.065 6.6355H14.0002C16.9343 6.6355 17.7343 6.76781 17.7343 6.30473V5.50868C17.7343 4.91109 17.6678 4.91109 17.1293 4.91109H10.131C3.59574 4.91109 3.5625 5.0434 3.5625 5.53514V3.48438H18.6341H18.6363Z" fill="#333333"/>
<path d="M17.6279 7.56592H4.57074C3.92365 7.56592 3.39844 7.04331 3.39844 6.39941V3.31885H18.8024V6.39941C18.8024 7.04331 18.2772 7.56592 17.6301 7.56592H17.6279ZM3.73085 3.64962V6.39721C3.73085 6.85808 4.10758 7.23295 4.57074 7.23295H17.6301C18.0933 7.23295 18.47 6.85808 18.47 6.39721V3.64962H3.73085Z" fill="#333333"/>
<path d="M20.2753 0.165039H1.92395C1.6137 0.165039 1.36328 0.416424 1.36328 0.722937V2.92365C1.36328 3.23237 1.6137 3.48155 1.92395 3.48155H20.2753C20.5856 3.48155 20.836 3.23237 20.836 2.92365V0.722937C20.836 0.414219 20.5856 0.165039 20.2753 0.165039Z" fill="white"/>
<path d="M20.836 0.722937V2.92365C20.836 3.23237 20.5856 3.48155 20.2753 3.48155H1.92395C1.6137 3.48155 1.36328 3.23237 1.36328 2.92365V2.27976C1.38766 2.90381 1.81315 2.85089 7.73229 2.85089H18.888C19.8033 2.85089 20.2376 3.01186 20.2376 2.03499V0.165039H20.2753C20.5856 0.165039 20.836 0.414219 20.836 0.722937Z" fill="#3D9BE9"/>
<path d="M20.2774 3.64949H1.92609C1.52498 3.64949 1.19922 3.32533 1.19922 2.92621V0.723282C1.19922 0.324154 1.52498 0 1.92609 0H20.2774C20.6786 0 21.0043 0.324154 21.0043 0.723282V2.924C21.0043 3.32313 20.6786 3.64728 20.2774 3.64728V3.64949ZM1.92609 0.330769C1.70892 0.330769 1.53163 0.507179 1.53163 0.723282V2.924C1.53163 3.1401 1.70892 3.31651 1.92609 3.31651H20.2774C20.4946 3.31651 20.6719 3.1401 20.6719 2.924V0.723282C20.6719 0.507179 20.4946 0.330769 20.2774 0.330769H1.92609Z" fill="#333333"/>
<path d="M16.4336 14.8319C16.4336 17.95 18.0004 23.7098 24.6863 23.7098C31.3722 23.7098 32.8348 18.316 32.837 15.3788C32.837 12.4416 30.9245 7.39844 24.1123 7.39844C19.3012 7.39844 16.4336 11.7778 16.4336 14.8297V14.8319Z" fill="white"/>
<path d="M32.1334 10.5647C31.7478 9.99133 31.2979 9.46651 30.7948 8.99682C29.1948 7.51277 27.0475 6.60205 24.6873 6.60205C19.7433 6.60205 15.7344 10.5911 15.7344 15.5108V15.5769C15.7366 15.9386 15.761 16.2936 15.8053 16.6442C16.3637 21.0302 20.1266 24.4195 24.6851 24.4195C29.6292 24.4195 33.6381 20.4304 33.6381 15.5108C33.6381 13.6805 33.0841 11.9782 32.1334 10.5647ZM24.6873 7.97144C28.8713 7.97144 32.2641 11.3475 32.2641 15.5108C32.2641 19.674 28.8713 23.0501 24.6873 23.0501C20.5034 23.0501 17.1106 19.674 17.1106 15.5108C17.1106 11.3475 20.5034 7.97144 24.6873 7.97144Z" fill="#3D9BE9"/>
<path d="M24.6895 24.5852C20.1088 24.5852 16.2196 21.1805 15.6434 16.6644C15.5991 16.3094 15.5725 15.9433 15.5703 15.5773V15.5111C15.5703 10.5077 19.6612 6.43701 24.6895 6.43701C27.0075 6.43701 29.2169 7.30363 30.91 8.87588C31.4241 9.35219 31.8829 9.89024 32.2751 10.4724C33.279 11.9631 33.8086 13.7073 33.8086 15.5111C33.8086 20.5145 29.7178 24.5852 24.6895 24.5852ZM24.6895 6.76999C19.8451 6.76999 15.9027 10.6907 15.9027 15.5133V15.5751C15.9049 15.9301 15.9293 16.2807 15.9736 16.6247C16.5277 20.9754 20.275 24.2544 24.6895 24.2544C29.5338 24.2544 33.4762 20.3337 33.4762 15.5111C33.4762 13.7735 32.9665 12.0932 31.9981 10.6554C31.6214 10.0931 31.1782 9.57711 30.684 9.11624C29.0529 7.60132 26.9233 6.76558 24.6917 6.76558L24.6895 6.76999ZM24.6895 23.2158C20.4191 23.2158 16.9465 19.7582 16.9465 15.5111C16.9465 11.264 20.4213 7.8064 24.6895 7.8064C28.9576 7.8064 32.4325 11.264 32.4325 15.5111C32.4325 19.7582 28.9576 23.2158 24.6895 23.2158ZM24.6895 8.13937C20.6052 8.13937 17.2789 11.4471 17.2789 15.5133C17.2789 19.5796 20.603 22.8873 24.6895 22.8873C28.7759 22.8873 32.1 19.5796 32.1 15.5133C32.1 11.4471 28.7759 8.13937 24.6895 8.13937Z" fill="#333333"/>
<path d="M22.906 10.4349L21.0666 12.1571L20.4062 12.7039C20.3929 12.715 20.3819 12.726 20.373 12.737L19.8544 13.339C19.7724 13.4338 19.7791 13.5728 19.8677 13.661C19.9121 13.7051 19.9741 13.7315 20.0362 13.7315H20.8539C20.9204 13.7315 20.9846 13.7095 21.0356 13.6676L22.6467 12.3665C22.722 12.307 22.8218 12.2872 22.9126 12.318C23.0279 12.3555 23.1054 12.4636 23.1054 12.5849V20.8695C23.1054 20.9136 23.1165 20.9577 23.1364 20.9974V21.004C23.1874 21.1011 23.2871 21.1628 23.3979 21.1628H23.6439C23.6639 21.1628 23.6816 21.1628 23.7015 21.1562L24.0074 21.0944C24.1425 21.068 24.2378 20.9489 24.2378 20.8144V10.8737C24.2378 10.8296 24.2268 10.7855 24.2068 10.7458L24.0916 10.5142C24.0428 10.4172 23.9431 10.3555 23.8345 10.3555H23.1076C23.0345 10.3555 22.9636 10.3841 22.9104 10.4326L22.906 10.4349Z" fill="#3D9BE9"/>
<path d="M21.8291 12.1658C21.8291 12.1658 21.0845 12.8097 20.6523 13.2L20.8451 13.3984C21.2751 13.0103 22.0086 12.3753 22.0152 12.3687L21.8291 12.1636V12.1658Z" fill="white"/>
<path d="M23.7073 14.1084L23.4414 14.1371C23.5456 15.3212 23.5035 19.6896 23.5035 19.7337H23.7716C23.7716 19.5573 23.8137 15.308 23.7073 14.1084Z" fill="white"/>
<path d="M23.9156 21.3059H23.4325C23.1777 21.3059 22.9716 21.103 22.9716 20.8539V12.4744C22.9716 12.4192 22.9295 12.395 22.9117 12.3884C22.8962 12.3818 22.8453 12.3641 22.7987 12.4082L21.1189 13.8195C21.0392 13.8967 20.9239 13.943 20.802 13.943H20.0264C19.8336 13.943 19.663 13.8283 19.5943 13.6519C19.5256 13.4755 19.5699 13.2881 19.7117 13.1602L22.8209 10.3332C22.9073 10.256 23.0181 10.2119 23.1356 10.2119H23.9134C24.1683 10.2119 24.3743 10.4148 24.3743 10.664V20.8539C24.3743 21.103 24.166 21.3059 23.9134 21.3059H23.9156ZM22.8696 12.0929C22.9228 12.0929 22.9738 12.1039 23.0248 12.1238C23.171 12.1855 23.2597 12.3178 23.2597 12.4744V20.8539C23.2597 20.9443 23.3372 21.0192 23.4325 21.0192H23.9156C24.0109 21.0192 24.0885 20.9443 24.0885 20.8539V10.664C24.0885 10.5736 24.0109 10.4986 23.9156 10.4986H23.1378C23.0935 10.4986 23.0491 10.514 23.0181 10.5449L19.909 13.3719C19.8314 13.4424 19.8558 13.524 19.8668 13.5483C19.8757 13.5725 19.9178 13.6563 20.0308 13.6563H20.8065C20.853 13.6563 20.8973 13.6387 20.9306 13.6056L22.6104 12.1943C22.679 12.126 22.7743 12.0907 22.8741 12.0907L22.8696 12.0929Z" fill="#333333"/>
<path d="M16.2129 17.4604C16.1996 17.4185 15.8805 16.4041 15.9802 14.9068C16.0733 13.5286 16.5564 11.4646 18.3403 9.47119L18.5907 9.6917C16.8755 11.6124 16.4057 13.5926 16.3148 14.9157C16.2151 16.3534 16.5276 17.3501 16.532 17.3589L16.2151 17.4604H16.2129Z" fill="white"/>
<path d="M24.6554 23.7072C23.944 23.7072 23.4897 23.6145 23.4609 23.6079L23.5296 23.2838C23.5407 23.2838 24.6532 23.5109 26.1291 23.2397C27.4853 22.9905 29.4399 22.2584 31.0466 20.1812L31.3103 20.384C29.6349 22.5495 27.5939 23.3124 26.1756 23.5704C25.6017 23.6741 25.0831 23.7072 24.6576 23.7072H24.6554Z" fill="white"/>
<path d="M30.5764 9.53282C28.737 7.49749 25.2112 7.16452 25.1758 7.16231L25.2046 6.83154C25.3553 6.84477 28.8944 7.17775 30.8246 9.31011L30.5764 9.53282Z" fill="white"/>
<path d="M25.2625 13.2202L25.2227 13.3062L25.3024 13.3591C25.5285 13.5091 25.9274 13.6127 26.313 13.6127C26.6565 13.6127 26.9379 13.5377 27.1396 13.3988C27.3434 13.2577 27.4587 13.0504 27.4587 12.81C27.4587 12.5697 27.3612 12.3889 27.2083 12.2764C27.0642 12.1683 26.8759 12.1176 26.7074 12.0845C26.6365 12.0713 26.5678 12.0603 26.5013 12.0493C26.488 12.0493 26.4747 12.0449 26.4614 12.0426C26.3839 12.0294 26.3174 12.0184 26.2598 12.0052C26.2022 11.9897 26.1667 11.9743 26.149 11.9611C26.1357 11.9522 26.1357 11.9456 26.1357 11.939C26.1357 11.9302 26.1357 11.9125 26.1756 11.8927C26.2177 11.8684 26.2997 11.8486 26.4326 11.8486C26.6166 11.8486 26.8138 11.8861 27.0088 11.9963L27.113 12.0559L27.1639 11.9478L27.3745 11.498L27.4166 11.4076L27.3301 11.3569C27.0997 11.2223 26.7429 11.1518 26.4304 11.1518C26.0958 11.1518 25.8166 11.229 25.6193 11.3701C25.4177 11.5134 25.3069 11.7229 25.3069 11.9677C25.3069 12.2124 25.4044 12.3933 25.5573 12.5079C25.7035 12.6182 25.8897 12.6689 26.0581 12.6998C26.1335 12.713 26.2088 12.724 26.2775 12.7351C26.2864 12.7351 26.2975 12.7373 26.3063 12.7395C26.3839 12.7505 26.4526 12.7615 26.508 12.7747C26.5656 12.788 26.6011 12.8034 26.6188 12.8166C26.6299 12.8255 26.6299 12.8277 26.6299 12.8299C26.6299 12.8431 26.6277 12.8519 26.6254 12.8563C26.6232 12.8607 26.6166 12.8696 26.5966 12.8784C26.5567 12.9004 26.4792 12.9181 26.3373 12.9181C26.0869 12.9181 25.8121 12.8387 25.6348 12.724L25.5285 12.6557L25.4753 12.7703L25.2625 13.2246V13.2202ZM29.595 12.8784L29.5418 12.7395L29.4243 12.8299C29.3778 12.8652 29.3091 12.8872 29.236 12.8872C29.1717 12.8872 29.1363 12.8696 29.1163 12.8475C29.0941 12.8255 29.0742 12.7836 29.0742 12.7108V11.9346H29.6194V11.2267H29.0742V10.6953H28.2166V11.2267H27.8775V11.9346H28.2166V12.7196C28.2166 12.9997 28.2986 13.229 28.467 13.3856C28.6332 13.5421 28.8703 13.6127 29.1473 13.6127C29.3556 13.6127 29.5728 13.5664 29.7279 13.4539L29.7966 13.4054L29.7656 13.326L29.595 12.8806V12.8784Z" fill="#3D9BE9"/>
<path d="M29.1441 13.7226C28.825 13.7226 28.5701 13.6366 28.3884 13.4668C28.2001 13.2904 28.1025 13.039 28.1025 12.7215V12.0467H27.7657V11.1183H28.1025V10.5869H29.1818V11.1183H29.7269V12.0467H29.1818V12.7127C29.1818 12.7524 29.1906 12.77 29.1929 12.7744C29.1929 12.7744 29.3081 12.781 29.3546 12.7435L29.5895 12.5649L29.9264 13.4448L29.789 13.544C29.6272 13.6587 29.3967 13.7226 29.1419 13.7226H29.1441ZM27.9873 11.824H28.3242V12.7193C28.3242 12.9751 28.3973 13.1713 28.5391 13.3058C28.6787 13.4359 28.8826 13.5021 29.1419 13.5021C29.348 13.5021 29.5363 13.4514 29.6582 13.3654L29.4876 12.9199C29.4211 12.9707 29.3258 13.0015 29.2305 13.0015C29.1242 13.0015 29.0621 12.9618 29.0289 12.9266C28.9801 12.878 28.9557 12.8053 28.9557 12.7127V11.8262H29.5009V11.3389H28.9557V10.8074H28.3197V11.3389H27.9829V11.8262L27.9873 11.824ZM26.312 13.7226C25.9131 13.7226 25.492 13.6168 25.2416 13.4514L25.082 13.3477L25.4499 12.5605C25.2815 12.415 25.1951 12.2143 25.1951 11.9651C25.1951 11.6895 25.3236 11.4447 25.5541 11.2793C25.7712 11.1228 26.0748 11.0412 26.4294 11.0412C26.784 11.0412 27.1518 11.125 27.3845 11.2617L27.5596 11.3631L27.194 12.1393C27.2205 12.1548 27.2471 12.1724 27.2715 12.1922C27.4665 12.3378 27.5663 12.5473 27.5663 12.8141C27.5663 13.0809 27.4355 13.3301 27.2006 13.4933C26.979 13.6454 26.671 13.727 26.3097 13.727L26.312 13.7226ZM25.3635 13.2661C25.5762 13.4073 25.9596 13.5021 26.312 13.5021C26.6266 13.5021 26.8926 13.4337 27.0743 13.308C27.2516 13.1846 27.3446 13.0126 27.3446 12.8097C27.3446 12.6068 27.2759 12.4679 27.1386 12.3642C27.0034 12.2628 26.8239 12.2187 26.6843 12.1922C26.6156 12.179 26.5469 12.168 26.4826 12.1592L26.4427 12.1526C26.3607 12.1393 26.2898 12.1283 26.23 12.1129C26.1613 12.0952 26.1125 12.0754 26.0793 12.0489C26.0416 12.0202 26.0216 11.985 26.0216 11.9387C26.0216 11.8968 26.0394 11.8394 26.1192 11.7953C26.1901 11.7556 26.2942 11.7358 26.4294 11.7358C26.6599 11.7358 26.866 11.7887 27.061 11.8968L27.2715 11.4469C27.0743 11.3322 26.7441 11.2573 26.4294 11.2573C26.1147 11.2573 25.8621 11.3256 25.6826 11.4557C25.5075 11.5814 25.4144 11.7556 25.4144 11.9629C25.4144 12.1702 25.4809 12.3091 25.6205 12.415C25.7557 12.5164 25.9352 12.5605 26.0748 12.587C26.148 12.6002 26.2211 12.6112 26.2898 12.6222L26.3186 12.6267C26.4006 12.6377 26.4715 12.6487 26.5291 12.6641C26.5978 12.6796 26.6444 12.6994 26.6798 12.7237L26.7308 12.7612L26.7352 12.8361C26.7352 12.8582 26.7286 12.8847 26.7153 12.9067C26.6998 12.9332 26.6754 12.9552 26.6444 12.9729C26.5779 13.0081 26.4737 13.0258 26.3341 13.0258C26.0704 13.0258 25.7712 12.942 25.5718 12.8141L25.359 13.2683L25.3635 13.2661Z" fill="#333333"/>
<path d="M25.9962 11.7958L25.8633 11.6191C26.2688 11.3143 26.7852 11.3673 27.0046 11.4998L26.8915 11.6898C26.7497 11.6059 26.3309 11.5462 25.9962 11.7958Z" fill="white"/>
<path d="M28.8499 13.2773C28.3734 13.1604 28.4 12.4988 28.4178 12.1019C28.42 12.038 28.4222 11.9806 28.4222 11.9321H28.6438C28.6438 11.9828 28.6416 12.0446 28.6394 12.1129C28.6239 12.4614 28.6017 12.9906 28.9031 13.0634L28.8499 13.2773Z" fill="white"/>
</g>
<defs>
<clipPath id="clip0_20933_124881">
<rect width="32.88" height="43" fill="white" transform="translate(0.929688)"/>
</clipPath>
</defs>
</svg>
