<svg width="173" height="174" viewBox="0 0 173 174" fill="none" xmlns="http://www.w3.org/2000/svg">
<path d="M166.576 65.0752L77.8388 4.39405C74.1995 1.90692 69.1823 2.79009 66.6615 6.36633L3.84082 95.5505C0.651356 100.077 1.81853 106.275 6.4467 109.396L94.4548 168.778C100.566 172.905 108.972 171.162 112.85 164.968L168.813 75.5584C171.018 72.0337 170.037 67.4436 166.576 65.0752Z" stroke="#3DCCE9" stroke-width="4" stroke-miterlimit="10"/>
<path d="M159.689 56.8255L139.385 122.98L134.817 137.875L128.455 158.604C127.624 161.313 124.669 162.822 121.918 161.942L120.114 161.368L116.155 160.101L48.0452 138.354L34.5012 134.029L21.3948 129.843C17.3461 128.548 14.8132 124.81 14.9591 120.841C14.9875 120.025 15.1334 119.206 15.3968 118.39L15.948 116.699L33.2408 63.7443L39.3441 45.0552L46.951 21.7601C47.8142 19.1106 50.716 17.6492 53.4272 18.4928L119.936 39.2334L153.318 49.6413L156.321 50.5799C159 51.4156 160.499 54.1918 159.689 56.8255Z" fill="white" stroke="#333333" stroke-width="3.39295" stroke-miterlimit="10"/>
<path d="M157.741 51.071C146.393 63.7443 147.609 63.7443 141.125 63.7443H32.918L38.997 45.1304C45.5461 43.3007 59.7305 41.9621 74.2554 41.9621C92.3992 41.9621 109.68 40.4611 123.99 39.2334L157.741 51.071Z" fill="#333333"/>
<path d="M15.9498 116.699L48.0471 138.355L34.503 134.03L14.9609 120.842C14.9893 120.026 15.1352 119.206 15.3986 118.39L15.9498 116.699Z" fill="#333333"/>
<path d="M139.386 122.98L134.819 137.876L120.116 161.369L116.156 160.101L139.386 122.98Z" fill="#333333"/>
<path d="M16.6189 77.4082L3.84082 95.5508C0.651356 100.078 1.81853 106.276 6.44669 109.396L94.4548 168.779C100.566 172.905 108.972 171.163 112.85 164.969L149.498 106.422" stroke="#3DCCE9" stroke-width="4" stroke-miterlimit="10"/>
<path d="M31.3003 70.4772C31.3003 70.4772 27.7016 67.0712 24.1028 64.0574C20.504 61.0435 22.0481 54.5168 22.0481 36.9405C22.0481 31.9188 22.5628 32.4217 54.4209 32.4217H159.823C173.631 32.4217 169.059 34.7069 156.699 47.1227C144.342 59.5386 143.847 60.9683 138.701 60.9683C133.554 60.9683 46.8302 60.9683 34.1372 60.9683L31.3003 70.4732V70.4772Z" fill="#3DCCE9"/>
<path d="M29.2746 63.7449C29.2746 63.7449 26.4377 60.9727 28.4641 60.9727H38.3405" stroke="#333333" stroke-width="2.03577" stroke-miterlimit="10"/>
<path d="M31.0977 70.6752C31.0977 70.6752 27.7016 67.0712 24.1028 64.0574C20.504 61.0435 22.0481 54.5168 22.0481 36.9405C22.0481 31.9188 22.5628 32.4217 54.4209 32.4217H159.823C173.631 32.4217 169.059 34.7069 156.699 47.1227C144.342 59.5386 143.847 60.9683 138.701 60.9683H33.9346L31.0977 70.6712V70.6752Z" stroke="#333333" stroke-width="2.71436" stroke-miterlimit="10"/>
<path d="M26.0312 37.6061C27.6523 36.022 26.8418 36.418 67.3686 36.418" stroke="white" stroke-width="2.03577" stroke-miterlimit="10"/>
<path d="M79.1328 36.374H97.0578" stroke="white" stroke-width="2.03577" stroke-miterlimit="10"/>
<path d="M108.312 36.374H117.237" stroke="white" stroke-width="2.03577" stroke-miterlimit="10"/>
<path d="M126.312 36.374H157.133" stroke="white" stroke-width="2.03577" stroke-miterlimit="10"/>
<path d="M21.9023 59.0518C22.7899 63.3488 26.8426 64.9329 28.4636 65.725C30.0847 66.5171 32.1556 65.725 31.5234 63.7448C30.8912 61.7646 28.8689 61.3686 28.4636 62.9527C28.4636 62.9527 26.7372 60.9686 28.6136 60.9725C30.49 60.9765 34.1374 60.9725 34.1374 60.9725L31.0979 70.6755C31.0979 70.6755 25.8172 65.9864 23.9003 63.8755C21.9834 61.7646 21.9023 59.0518 21.9023 59.0518Z" fill="#333333"/>
<path d="M39.457 53.2773V42.1881H44.612C45.8441 42.1881 46.9302 42.4205 47.8704 42.8852C48.8106 43.3393 49.5455 43.9782 50.0751 44.802C50.6046 45.6258 50.8694 46.6027 50.8694 47.7327C50.8694 48.8522 50.6046 49.8291 50.0751 50.6634C49.5455 51.4872 48.8106 52.1314 47.8704 52.5961C46.9302 53.0502 45.8441 53.2773 44.612 53.2773H39.457ZM42.0832 51.1703H44.4824C45.2389 51.1703 45.8927 51.033 46.4439 50.7584C47.0058 50.4733 47.4381 50.072 47.7407 49.5545C48.0541 49.037 48.2108 48.4297 48.2108 47.7327C48.2108 47.0251 48.0541 46.4178 47.7407 45.9109C47.4381 45.3934 47.0058 44.9974 46.4439 44.7228C45.8927 44.4377 45.2389 44.2951 44.4824 44.2951H42.0832V51.1703Z" fill="#333333"/>
<path d="M52.8499 53.2773V42.1881H55.476V53.2773H52.8499Z" fill="#333333"/>
<path d="M61.8975 53.4674C60.9897 53.4674 60.1197 53.3512 59.2876 53.1188C58.4554 52.8759 57.7854 52.5644 57.2774 52.1842L58.169 50.2515C58.6554 50.5895 59.2281 50.8693 59.8874 51.0911C60.5574 51.3023 61.2329 51.4079 61.9137 51.4079C62.4325 51.4079 62.8485 51.3604 63.1619 51.2654C63.4862 51.1598 63.7239 51.0172 63.8752 50.8377C64.0265 50.6581 64.1022 50.4522 64.1022 50.2198C64.1022 49.9241 63.9833 49.6918 63.7455 49.5228C63.5078 49.3433 63.1944 49.2007 62.8053 49.0951C62.4163 48.9789 61.984 48.8733 61.5084 48.7782C61.0437 48.6726 60.5736 48.5459 60.0981 48.398C59.6334 48.2502 59.2065 48.0601 58.8175 47.8278C58.4284 47.5954 58.1096 47.2891 57.861 46.9089C57.6233 46.5287 57.5044 46.0429 57.5044 45.4515C57.5044 44.8178 57.6773 44.2423 58.0231 43.7248C58.3798 43.1967 58.9093 42.7796 59.6118 42.4733C60.3251 42.1565 61.2167 41.998 62.2866 41.998C62.9998 41.998 63.7023 42.0825 64.394 42.2515C65.0856 42.4099 65.6962 42.6528 66.2258 42.9802L65.4152 44.9287C64.8857 44.633 64.3561 44.4165 63.8266 44.2792C63.297 44.1314 62.7783 44.0575 62.2704 44.0575C61.7624 44.0575 61.3463 44.1155 61.0221 44.2317C60.6979 44.3479 60.4656 44.501 60.3251 44.6911C60.1846 44.8707 60.1143 45.0819 60.1143 45.3248C60.1143 45.6099 60.2332 45.8423 60.471 46.0218C60.7087 46.1908 61.0221 46.3281 61.4112 46.4337C61.8002 46.5393 62.2271 46.6449 62.6918 46.7505C63.1673 46.8561 63.6375 46.9776 64.1022 47.1149C64.5777 47.2522 65.01 47.437 65.399 47.6693C65.7881 47.9017 66.1015 48.2079 66.3393 48.5881C66.5878 48.9683 66.7121 49.4489 66.7121 50.0297C66.7121 50.6528 66.5338 51.2231 66.1771 51.7406C65.8205 52.2581 65.2856 52.6753 64.5723 52.9921C63.8698 53.3089 62.9782 53.4674 61.8975 53.4674Z" fill="#333333"/>
<path d="M73.9371 53.4674C73.0618 53.4674 72.2458 53.3301 71.4893 53.0555C70.7436 52.7703 70.0952 52.369 69.544 51.8515C68.9929 51.334 68.5606 50.7268 68.2472 50.0297C67.9446 49.3327 67.7933 48.567 67.7933 47.7327C67.7933 46.8984 67.9446 46.1327 68.2472 45.4357C68.5606 44.7386 68.9929 44.1314 69.544 43.6139C70.106 43.0964 70.7598 42.7004 71.5055 42.4258C72.2512 42.1406 73.0672 41.998 73.9534 41.998C74.9368 41.998 75.823 42.167 76.6119 42.505C77.4116 42.8324 78.0817 43.3182 78.6221 43.9624L76.9361 45.4832C76.5471 45.0502 76.1148 44.7281 75.6393 44.5169C75.1638 44.2951 74.645 44.1842 74.083 44.1842C73.5535 44.1842 73.0672 44.2687 72.6241 44.4377C72.181 44.6066 71.7973 44.8495 71.4731 45.1664C71.1489 45.4832 70.8949 45.8581 70.7112 46.2911C70.5383 46.7241 70.4518 47.2046 70.4518 47.7327C70.4518 48.2608 70.5383 48.7413 70.7112 49.1743C70.8949 49.6073 71.1489 49.9822 71.4731 50.299C71.7973 50.6159 72.181 50.8588 72.6241 51.0278C73.0672 51.1967 73.5535 51.2812 74.083 51.2812C74.645 51.2812 75.1638 51.1756 75.6393 50.9644C76.1148 50.7426 76.5471 50.4099 76.9361 49.9664L78.6221 51.4872C78.0817 52.1314 77.4116 52.6225 76.6119 52.9604C75.823 53.2984 74.9314 53.4674 73.9371 53.4674Z" fill="#333333"/>
<path d="M85.6697 53.4674C84.7727 53.4674 83.9405 53.3248 83.1732 53.0396C82.4167 52.7545 81.7575 52.3532 81.1955 51.8357C80.6443 51.3182 80.2121 50.7109 79.8986 50.0139C79.596 49.3169 79.4447 48.5565 79.4447 47.7327C79.4447 46.9089 79.596 46.1485 79.8986 45.4515C80.2121 44.7545 80.6497 44.1472 81.2117 43.6297C81.7737 43.1122 82.4329 42.7109 83.1894 42.4258C83.9459 42.1406 84.7673 41.998 85.6535 41.998C86.5505 41.998 87.3718 42.1406 88.1175 42.4258C88.874 42.7109 89.5278 43.1122 90.079 43.6297C90.641 44.1472 91.0787 44.7545 91.3921 45.4515C91.7055 46.138 91.8622 46.8984 91.8622 47.7327C91.8622 48.5565 91.7055 49.3221 91.3921 50.0297C91.0787 50.7268 90.641 51.334 90.079 51.8515C89.5278 52.3584 88.874 52.7545 88.1175 53.0396C87.3718 53.3248 86.5559 53.4674 85.6697 53.4674ZM85.6535 51.2812C86.1614 51.2812 86.6261 51.1967 87.0476 51.0278C87.4799 50.8588 87.8581 50.6159 88.1823 50.299C88.5065 49.9822 88.7551 49.6073 88.928 49.1743C89.1118 48.7413 89.2036 48.2608 89.2036 47.7327C89.2036 47.2046 89.1118 46.7241 88.928 46.2911C88.7551 45.8581 88.5065 45.4832 88.1823 45.1664C87.8689 44.8495 87.4961 44.6066 87.0638 44.4377C86.6315 44.2687 86.1614 44.1842 85.6535 44.1842C85.1455 44.1842 84.6754 44.2687 84.2431 44.4377C83.8216 44.6066 83.4488 44.8495 83.1246 45.1664C82.8004 45.4832 82.5464 45.8581 82.3627 46.2911C82.1898 46.7241 82.1033 47.2046 82.1033 47.7327C82.1033 48.2502 82.1898 48.7307 82.3627 49.1743C82.5464 49.6073 82.795 49.9822 83.1084 50.299C83.4326 50.6159 83.8108 50.8588 84.2431 51.0278C84.6754 51.1967 85.1455 51.2812 85.6535 51.2812Z" fill="#333333"/>
<path d="M98.8774 53.4674C97.2671 53.4674 96.0081 53.0291 95.1003 52.1525C94.1925 51.2759 93.7386 50.0245 93.7386 48.398V42.1881H96.3647V48.303C96.3647 49.3591 96.5863 50.1195 97.0293 50.5842C97.4724 51.0489 98.0938 51.2812 98.8936 51.2812C99.6933 51.2812 100.315 51.0489 100.758 50.5842C101.201 50.1195 101.422 49.3591 101.422 48.303V42.1881H104.016V48.398C104.016 50.0245 103.562 51.2759 102.654 52.1525C101.747 53.0291 100.488 53.4674 98.8774 53.4674Z" fill="#333333"/>
<path d="M106.611 53.2773V42.1881H108.784L115.479 50.1723H114.425V42.1881H117.019V53.2773H114.863L108.151 45.2931H109.205V53.2773H106.611Z" fill="#333333"/>
<path d="M122.054 53.2773V44.2792H118.423V42.1881H128.311V44.2792H124.68V53.2773H122.054Z" fill="#333333"/>
<path d="M55.007 115.568V87.4644L57.5131 90.0153H48.5V85.3026H60.7227V115.568H55.007Z" fill="#333333"/>
<path d="M77.0281 116C74.8591 116 72.734 115.697 70.6529 115.092C68.6012 114.458 66.8718 113.593 65.4649 112.498L67.883 108.131C68.9969 109.025 70.3452 109.745 71.928 110.293C73.5401 110.841 75.2108 111.114 76.9401 111.114C78.9626 111.114 80.5454 110.696 81.6885 109.861C82.861 109.025 83.4472 107.901 83.4472 106.488C83.4472 105.537 83.198 104.701 82.6998 103.98C82.2308 103.26 81.3808 102.712 80.1497 102.338C78.9479 101.963 77.2919 101.775 75.1815 101.775H67.7511L69.3339 85.3026H87.4042V90.0153H71.4443L74.434 87.3347L73.247 99.6569L70.2572 97.0195H76.4565C79.5049 97.0195 81.9523 97.4231 83.7989 98.2301C85.6748 99.0084 87.0378 100.104 87.8878 101.516C88.7671 102.9 89.2068 104.485 89.2068 106.272C89.2068 108.03 88.7671 109.644 87.8878 111.114C87.0085 112.584 85.6602 113.766 83.8429 114.66C82.0549 115.553 79.7833 116 77.0281 116Z" fill="#333333"/>
<path d="M96.3829 115.568L117.399 85.3026H121.708L100.692 115.568H96.3829ZM98.933 101.603C97.4968 101.603 96.2217 101.257 95.1079 100.565C93.9941 99.8731 93.1294 98.9075 92.5139 97.6681C91.8984 96.4286 91.5906 94.973 91.5906 93.3013C91.5906 91.6295 91.8984 90.1739 92.5139 88.9344C93.1294 87.695 93.9941 86.7294 95.1079 86.0377C96.2217 85.3459 97.4968 85 98.933 85C100.428 85 101.718 85.3459 102.802 86.0377C103.916 86.7294 104.781 87.695 105.396 88.9344C106.012 90.1739 106.319 91.6295 106.319 93.3013C106.319 94.973 106.012 96.4286 105.396 97.6681C104.781 98.9075 103.916 99.8731 102.802 100.565C101.718 101.257 100.428 101.603 98.933 101.603ZM98.977 98.576C100.149 98.576 101.058 98.1292 101.703 97.2357C102.377 96.3133 102.714 95.0019 102.714 93.3013C102.714 91.6007 102.377 90.3036 101.703 89.41C101.058 88.4877 100.149 88.0265 98.977 88.0265C97.8045 88.0265 96.8666 88.4877 96.1631 89.41C95.489 90.3324 95.1519 91.6295 95.1519 93.3013C95.1519 94.973 95.489 96.2701 96.1631 97.1925C96.8666 98.1148 97.8045 98.576 98.977 98.576ZM119.114 115.87C117.677 115.87 116.402 115.524 115.289 114.833C114.175 114.141 113.31 113.175 112.695 111.936C112.079 110.696 111.771 109.241 111.771 107.569C111.771 105.897 112.079 104.442 112.695 103.202C113.31 101.963 114.175 100.997 115.289 100.305C116.402 99.6137 117.677 99.2678 119.114 99.2678C120.608 99.2678 121.898 99.6137 122.983 100.305C124.097 100.997 124.961 101.963 125.577 103.202C126.192 104.442 126.5 105.897 126.5 107.569C126.5 109.241 126.192 110.696 125.577 111.936C124.961 113.175 124.097 114.141 122.983 114.833C121.898 115.524 120.608 115.87 119.114 115.87ZM119.114 112.844C120.286 112.844 121.209 112.383 121.884 111.46C122.558 110.538 122.895 109.241 122.895 107.569C122.895 105.897 122.558 104.6 121.884 103.678C121.209 102.755 120.286 102.294 119.114 102.294C117.97 102.294 117.047 102.755 116.344 103.678C115.67 104.571 115.333 105.868 115.333 107.569C115.333 109.27 115.67 110.581 116.344 111.503C117.047 112.397 117.97 112.844 119.114 112.844Z" fill="#333333"/>
</svg>
