<svg width="396" height="396" viewBox="0 0 396 396" fill="none" xmlns="http://www.w3.org/2000/svg">
<path d="M332.823 20.0176H295.387V57.6233H332.823V20.0176Z" fill="white"/>
<path d="M302.991 54.6545H330.093V20.0176H332.823V57.6233H295.387L302.991 54.6545Z" fill="#FFC439"/>
<path d="M332.824 58.6077H295.387C294.844 58.6077 294.402 58.1667 294.402 57.6233V20.0176C294.402 19.4742 294.844 19.0333 295.387 19.0333H332.824C333.368 19.0333 333.809 19.4742 333.809 20.0176V57.6233C333.809 58.1667 333.368 58.6077 332.824 58.6077ZM296.372 56.639H331.839V21.0019H296.372V56.639Z" fill="#333333"/>
<path d="M295.387 57.6233L320.144 47.9531H295.387V57.6233Z" fill="#FFC439"/>
<path d="M295.387 58.6077C295.19 58.6077 294.997 58.5486 294.832 58.4344C294.564 58.2494 294.402 57.9462 294.402 57.6233V47.9532C294.402 47.4098 294.844 46.9688 295.387 46.9688H320.148C320.621 46.9688 321.027 47.3074 321.118 47.772C321.204 48.2366 320.948 48.6973 320.507 48.8706L295.746 58.5407C295.632 58.584 295.51 58.6077 295.387 58.6077ZM296.372 48.9375V56.1822L314.919 48.9375H296.372Z" fill="#333333"/>
<path d="M320.146 0.984314H208.876V47.8704H320.146V0.984314Z" fill="white"/>
<path d="M208.876 44.2362H317.202V0.984314H320.146V47.8704H208.876V44.2362Z" fill="#FFC439"/>
<path d="M320.147 48.8548H208.877C208.333 48.8548 207.892 48.4138 207.892 47.8704V0.98434C207.892 0.440984 208.333 0 208.877 0H320.147C320.69 0 321.132 0.440984 321.132 0.98434V47.8704C321.132 48.4138 320.69 48.8548 320.147 48.8548ZM209.862 46.8861H319.161V1.96868H209.862V46.8861Z" fill="#333333"/>
<path d="M272.572 28.4435C271.583 27.4159 271.087 26.0102 271.087 24.2266C271.087 23.0572 271.315 22.0414 271.769 21.1673C272.226 20.2971 272.852 19.6278 273.656 19.1632C274.46 18.6986 275.374 18.4662 276.406 18.4662C277.99 18.4662 279.279 18.986 280.268 20.0254C281.257 21.0649 281.753 22.4666 281.753 24.2266C281.753 25.9866 281.257 27.4119 280.268 28.4435C279.279 29.4712 277.99 29.987 276.406 29.987C274.822 29.987 273.565 29.4712 272.572 28.4435ZM288.708 18.734H292.987L278.782 39.5193H274.503L288.708 18.734ZM277.683 26.4552C277.998 25.9787 278.16 25.2385 278.16 24.2266C278.16 23.2147 278.002 22.4745 277.683 21.9981C277.368 21.5216 276.938 21.2854 276.406 21.2854C275.874 21.2854 275.469 21.5295 275.145 22.0138C274.818 22.4981 274.657 23.2344 274.657 24.2266C274.657 25.2188 274.818 25.9551 275.145 26.4394C275.472 26.9237 275.894 27.1678 276.406 27.1678C276.919 27.1678 277.368 26.9316 277.683 26.4552ZM287.234 38.2436C286.253 37.216 285.764 35.8103 285.764 34.0267C285.764 32.2431 286.261 30.865 287.25 29.8255C288.239 28.7861 289.52 28.2663 291.084 28.2663C292.648 28.2663 293.956 28.7861 294.945 29.8255C295.934 30.865 296.431 32.2667 296.431 34.0267C296.431 35.7867 295.934 37.212 294.945 38.2436C293.956 39.2713 292.668 39.7871 291.084 39.7871C289.5 39.7871 288.215 39.2713 287.234 38.2436ZM292.361 36.2552C292.676 35.7788 292.837 35.0386 292.837 34.0267C292.837 33.0148 292.68 32.2746 292.361 31.7982C292.045 31.3217 291.616 31.0855 291.084 31.0855C290.552 31.0855 290.122 31.3217 289.807 31.7982C289.492 32.2746 289.33 33.0148 289.33 34.0267C289.33 35.0386 289.488 35.7788 289.807 36.2552C290.122 36.7317 290.552 36.9679 291.084 36.9679C291.616 36.9679 292.045 36.7317 292.361 36.2552Z" fill="#3D9BE9"/>
<path d="M291.085 40.7714C289.229 40.7714 287.692 40.1493 286.522 38.9209C285.367 37.7082 284.78 36.0623 284.78 34.0267C284.78 33.3889 284.839 32.7904 284.957 32.2313L279.303 40.5037H272.64L279.737 30.1169C278.783 30.6839 277.668 30.9713 276.407 30.9713C274.571 30.9713 273.042 30.3492 271.864 29.1247C270.698 27.912 270.103 26.2622 270.103 24.2266C270.103 22.9037 270.37 21.7225 270.898 20.7106C271.438 19.675 272.203 18.8679 273.164 18.3127C274.114 17.7615 275.205 17.4819 276.407 17.4819C278.263 17.4819 279.804 18.108 280.982 19.3443C282.148 20.5688 282.739 22.2107 282.739 24.2266C282.739 24.8369 282.684 25.4157 282.578 25.9551L288.185 17.7497H294.848L287.724 28.1758C288.685 27.5813 289.808 27.282 291.081 27.282C292.937 27.282 294.477 27.9081 295.655 29.1444C296.822 30.3689 297.413 32.0108 297.413 34.0267C297.413 36.0427 296.822 37.7121 295.651 38.9248C294.473 40.1493 292.933 40.7714 291.081 40.7714H291.085ZM291.085 29.2507C289.788 29.2507 288.768 29.6602 287.964 30.5028C287.148 31.3611 286.75 32.5108 286.75 34.0267C286.75 35.5426 287.144 36.7159 287.948 37.5625C288.74 38.3972 289.769 38.8027 291.081 38.8027C292.393 38.8027 293.429 38.3972 294.233 37.5625C295.049 36.7159 295.443 35.5584 295.443 34.0267C295.443 32.4951 295.045 31.3611 294.229 30.5028C293.425 29.6602 292.393 29.2507 291.081 29.2507H291.085ZM276.372 38.535H278.263L291.12 19.7184H289.229L276.372 38.535ZM276.407 19.4546C275.544 19.4546 274.807 19.6396 274.153 20.0176C273.511 20.3916 273.014 20.9153 272.644 21.628C272.266 22.3524 272.073 23.2265 272.073 24.2306C272.073 25.7622 272.467 26.9198 273.282 27.7624C274.086 28.5971 275.107 29.0027 276.407 29.0027C277.707 29.0027 278.755 28.5971 279.559 27.7624C280.375 26.9159 280.769 25.7583 280.769 24.2266C280.769 22.695 280.371 21.561 279.555 20.7027C278.751 19.8601 277.723 19.4506 276.407 19.4506V19.4546ZM291.085 37.9523C290.214 37.9523 289.489 37.5546 288.988 36.8026C288.559 36.1568 288.346 35.2512 288.346 34.0307C288.346 32.8101 288.555 31.9045 288.988 31.2588C289.489 30.5067 290.214 30.109 291.085 30.109C291.955 30.109 292.68 30.5067 293.181 31.2588C293.61 31.9084 293.823 32.814 293.823 34.0307C293.823 35.2473 293.614 36.1568 293.181 36.8026C292.676 37.5546 291.951 37.9523 291.085 37.9523ZM291.085 32.0738C290.911 32.0738 290.781 32.1171 290.628 32.3494C290.513 32.5227 290.316 32.9715 290.316 34.0307C290.316 35.0898 290.509 35.5387 290.628 35.7119C290.781 35.9403 290.911 35.9875 291.085 35.9875C291.258 35.9875 291.388 35.9442 291.542 35.7119C291.656 35.5387 291.853 35.0859 291.853 34.0307C291.853 32.9754 291.66 32.5227 291.542 32.3494C291.388 32.121 291.258 32.0777 291.085 32.0777V32.0738ZM276.407 28.1561C275.816 28.1561 274.973 27.9553 274.327 26.9946C273.885 26.3371 273.668 25.4354 273.668 24.2345C273.668 23.0336 273.885 22.132 274.327 21.4744C274.973 20.5137 275.816 20.3129 276.407 20.3129C277.278 20.3129 278.003 20.7106 278.503 21.4626C278.933 22.1083 279.146 23.0179 279.146 24.2345C279.146 25.4512 278.937 26.3607 278.503 27.0064C277.999 27.7584 277.274 28.1561 276.407 28.1561ZM276.407 22.2776C276.312 22.2776 276.159 22.2776 275.962 22.569C275.844 22.7462 275.639 23.199 275.639 24.2306C275.639 25.2622 275.84 25.715 275.962 25.8921C276.143 26.1638 276.281 26.1835 276.407 26.1835C276.58 26.1835 276.71 26.1402 276.864 25.9079C276.978 25.7346 277.175 25.2858 277.175 24.2266C277.175 23.1675 276.982 22.7186 276.864 22.5454C276.71 22.317 276.58 22.2698 276.407 22.2698V22.2776Z" fill="#333333"/>
<path d="M271.971 27.3646C271.266 25.0416 271.589 22.5689 272.819 20.9074C273.756 19.6395 275.143 18.9426 276.716 18.9426C280.14 18.9426 280.916 21.2854 280.947 21.3838L279.068 21.9744C279.032 21.8878 278.611 20.9113 276.716 20.9113C275.518 20.9113 274.793 21.5452 274.399 22.0768C273.532 23.2462 273.323 25.0495 273.851 26.7858L271.967 27.3607L271.971 27.3646Z" fill="white"/>
<path d="M286.587 37.2514C285.881 34.9283 286.204 32.4557 287.434 30.7941C288.372 29.5263 289.759 28.8293 291.331 28.8293C294.755 28.8293 295.531 31.1721 295.563 31.2744L293.683 31.865C293.648 31.7784 293.226 30.802 291.331 30.802C290.133 30.802 289.408 31.4359 289.014 31.9674C288.147 33.1368 287.938 34.9401 288.466 36.6765L286.583 37.2514H286.587Z" fill="white"/>
<path d="M288.892 19.3552L276.495 37.6101L278.125 38.7155L290.522 20.4606L288.892 19.3552Z" fill="white"/>
<path d="M291.085 40.7714C289.229 40.7714 287.692 40.1493 286.522 38.9209C285.367 37.7082 284.78 36.0623 284.78 34.0267C284.78 33.3889 284.839 32.7904 284.957 32.2313L279.303 40.5037H272.64L279.737 30.1169C278.783 30.6839 277.668 30.9713 276.407 30.9713C274.571 30.9713 273.042 30.3492 271.864 29.1247C270.698 27.912 270.103 26.2622 270.103 24.2266C270.103 22.9037 270.37 21.7225 270.898 20.7106C271.438 19.675 272.203 18.8679 273.164 18.3127C274.114 17.7615 275.205 17.4819 276.407 17.4819C278.263 17.4819 279.804 18.108 280.982 19.3443C282.148 20.5688 282.739 22.2107 282.739 24.2266C282.739 24.8369 282.684 25.4157 282.578 25.9551L288.185 17.7497H294.848L287.724 28.1758C288.685 27.5813 289.808 27.282 291.081 27.282C292.937 27.282 294.477 27.9081 295.655 29.1444C296.822 30.3689 297.413 32.0108 297.413 34.0267C297.413 36.0427 296.822 37.7121 295.651 38.9248C294.473 40.1493 292.933 40.7714 291.081 40.7714H291.085ZM291.085 29.2507C289.788 29.2507 288.768 29.6602 287.964 30.5028C287.148 31.3611 286.75 32.5108 286.75 34.0267C286.75 35.5426 287.144 36.7159 287.948 37.5625C288.74 38.3972 289.769 38.8027 291.081 38.8027C292.393 38.8027 293.429 38.3972 294.233 37.5625C295.049 36.7159 295.443 35.5584 295.443 34.0267C295.443 32.4951 295.045 31.3611 294.229 30.5028C293.425 29.6602 292.393 29.2507 291.081 29.2507H291.085ZM276.372 38.535H278.263L291.12 19.7184H289.229L276.372 38.535ZM276.407 19.4546C275.544 19.4546 274.807 19.6396 274.153 20.0176C273.511 20.3916 273.014 20.9153 272.644 21.628C272.266 22.3524 272.073 23.2265 272.073 24.2306C272.073 25.7622 272.467 26.9198 273.282 27.7624C274.086 28.5971 275.107 29.0027 276.407 29.0027C277.707 29.0027 278.755 28.5971 279.559 27.7624C280.375 26.9159 280.769 25.7583 280.769 24.2266C280.769 22.695 280.371 21.561 279.555 20.7027C278.751 19.8601 277.723 19.4506 276.407 19.4506V19.4546ZM291.085 37.9523C290.214 37.9523 289.489 37.5546 288.988 36.8026C288.559 36.1568 288.346 35.2512 288.346 34.0307C288.346 32.8101 288.555 31.9045 288.988 31.2588C289.489 30.5067 290.214 30.109 291.085 30.109C291.955 30.109 292.68 30.5067 293.181 31.2588C293.61 31.9084 293.823 32.814 293.823 34.0307C293.823 35.2473 293.614 36.1568 293.181 36.8026C292.676 37.5546 291.951 37.9523 291.085 37.9523ZM291.085 32.0738C290.911 32.0738 290.781 32.1171 290.628 32.3494C290.513 32.5227 290.316 32.9715 290.316 34.0307C290.316 35.0898 290.509 35.5387 290.628 35.7119C290.781 35.9403 290.911 35.9875 291.085 35.9875C291.258 35.9875 291.388 35.9442 291.542 35.7119C291.656 35.5387 291.853 35.0859 291.853 34.0307C291.853 32.9754 291.66 32.5227 291.542 32.3494C291.388 32.121 291.258 32.0777 291.085 32.0777V32.0738ZM276.407 28.1561C275.816 28.1561 274.973 27.9553 274.327 26.9946C273.885 26.3371 273.668 25.4354 273.668 24.2345C273.668 23.0336 273.885 22.132 274.327 21.4744C274.973 20.5137 275.816 20.3129 276.407 20.3129C277.278 20.3129 278.003 20.7106 278.503 21.4626C278.933 22.1083 279.146 23.0179 279.146 24.2345C279.146 25.4512 278.937 26.3607 278.503 27.0064C277.999 27.7584 277.274 28.1561 276.407 28.1561ZM276.407 22.2776C276.312 22.2776 276.159 22.2776 275.962 22.569C275.844 22.7462 275.639 23.199 275.639 24.2306C275.639 25.2622 275.84 25.715 275.962 25.8921C276.143 26.1638 276.281 26.1835 276.407 26.1835C276.58 26.1835 276.71 26.1402 276.864 25.9079C276.978 25.7346 277.175 25.2858 277.175 24.2266C277.175 23.1675 276.982 22.7186 276.864 22.5454C276.71 22.317 276.58 22.2698 276.407 22.2698V22.2776Z" fill="#333333"/>
<path d="M266.778 24.4431C265.419 22.88 263.464 21.8326 260.919 21.309L267.283 14.4698V9.03229H245.075V15.7415H257.188L256.179 16.8322L251.703 21.6633V27.1441H255.344C258.472 27.1441 260.04 28.1403 260.04 30.1287C260.04 30.487 259.985 30.8177 259.879 31.1169C259.682 31.676 259.296 32.1367 258.724 32.495C257.846 33.0502 256.664 33.3258 255.17 33.3258C253.677 33.3258 252.223 33.1053 250.718 32.6683C249.212 32.2312 247.857 31.6012 246.659 30.7823L244.051 36.1804L243.503 37.3183C245.051 38.2829 246.888 39.0271 249.011 39.5547C251.131 40.0823 253.275 40.3422 255.438 40.3422C258.393 40.3422 260.872 39.8658 262.877 38.9169C264.879 37.9679 266.372 36.7159 267.354 35.1685C268.331 33.6211 268.823 31.9398 268.823 30.1247C268.823 27.9041 268.142 26.0102 266.782 24.4471L266.778 24.4431Z" fill="#3D9BE9"/>
<path d="M255.433 41.3226C253.199 41.3226 250.957 41.0469 248.767 40.5036C246.552 39.9563 244.606 39.1609 242.974 38.149L242.222 37.6805L246.264 29.3215L247.21 29.9672C248.317 30.7232 249.586 31.3138 250.989 31.7193C252.399 32.1288 253.806 32.3375 255.166 32.3375C256.525 32.3375 257.482 32.1091 258.196 31.6563C258.578 31.4162 258.822 31.1287 258.948 30.7783C259.019 30.5814 259.055 30.3649 259.055 30.1168C259.055 29.5695 259.055 28.1166 255.343 28.1166H250.717V21.2656L254.933 16.718H244.089V8.04004H268.267V14.8477L262.758 20.7695C264.736 21.4153 266.332 22.4272 267.522 23.7895C269.035 25.5337 269.804 27.6599 269.804 30.1129C269.804 32.1052 269.256 33.9754 268.18 35.6803C267.105 37.3852 265.458 38.7672 263.294 39.7949C261.167 40.8028 258.523 41.3147 255.433 41.3147V41.3226ZM244.783 36.9206C246.075 37.6175 247.573 38.1805 249.243 38.594C251.276 39.0979 253.361 39.3539 255.433 39.3539C258.227 39.3539 260.587 38.905 262.451 38.023C264.275 37.1608 265.643 36.0189 266.518 34.6369C267.392 33.2549 267.838 31.7351 267.838 30.1208C267.838 28.1285 267.25 26.4787 266.037 25.0888C264.827 23.6989 263.038 22.75 260.721 22.2736L259.007 21.9192L266.297 14.0839V10.0166H246.06V14.7572H259.441L252.687 22.0452V26.1558H255.343C260.04 26.1558 261.025 28.3135 261.025 30.1247C261.025 30.5972 260.95 31.046 260.804 31.4477C260.532 32.2115 260.008 32.8454 259.252 33.3218C258.219 33.9754 256.844 34.3062 255.169 34.3062C253.621 34.3062 252.029 34.0699 250.441 33.6093C249.231 33.2588 248.101 32.7824 247.068 32.1957L244.783 36.9206Z" fill="#333333"/>
<path d="M247.565 13.9972H245.595V9.51257H265.761V11.4813H247.565V13.9972Z" fill="white"/>
<path d="M254.263 25.7857H252.293V22.1712L258.798 15.1982L260.241 16.5408L254.263 22.9469V25.7857Z" fill="white"/>
<path d="M246.351 37.2002L244.59 36.3222L247.163 31.1682L248.116 31.9399C248.14 31.9596 251.127 34.2708 256.553 33.8535C258.219 33.7235 259.378 33.2825 259.985 32.5344C260.721 31.6367 260.658 30.2665 260.52 29.1759L262.475 28.9318C262.66 30.4122 262.719 32.3021 261.509 33.7787C260.544 34.9599 258.929 35.641 256.702 35.8143C252.333 36.1489 249.342 34.9284 247.888 34.1212L246.351 37.2002Z" fill="white"/>
<path d="M255.433 41.3226C253.199 41.3226 250.957 41.0469 248.767 40.5036C246.552 39.9563 244.606 39.1609 242.974 38.149L242.222 37.6805L246.264 29.3215L247.21 29.9672C248.317 30.7232 249.586 31.3138 250.989 31.7193C252.399 32.1288 253.806 32.3375 255.166 32.3375C256.525 32.3375 257.482 32.1091 258.196 31.6563C258.578 31.4162 258.822 31.1287 258.948 30.7783C259.019 30.5814 259.055 30.3649 259.055 30.1168C259.055 29.5695 259.055 28.1166 255.343 28.1166H250.717V21.2656L254.933 16.718H244.089V8.04004H268.267V14.8477L262.758 20.7695C264.736 21.4153 266.332 22.4272 267.522 23.7895C269.035 25.5337 269.804 27.6599 269.804 30.1129C269.804 32.1052 269.256 33.9754 268.18 35.6803C267.105 37.3852 265.458 38.7672 263.294 39.7949C261.167 40.8028 258.523 41.3147 255.433 41.3147V41.3226ZM244.783 36.9206C246.075 37.6175 247.573 38.1805 249.243 38.594C251.276 39.0979 253.361 39.3539 255.433 39.3539C258.227 39.3539 260.587 38.905 262.451 38.023C264.275 37.1608 265.643 36.0189 266.518 34.6369C267.392 33.2549 267.838 31.7351 267.838 30.1208C267.838 28.1285 267.25 26.4787 266.037 25.0888C264.827 23.6989 263.038 22.75 260.721 22.2736L259.007 21.9192L266.297 14.0839V10.0166H246.06V14.7572H259.441L252.687 22.0452V26.1558H255.343C260.04 26.1558 261.025 28.3135 261.025 30.1247C261.025 30.5972 260.95 31.046 260.804 31.4477C260.532 32.2115 260.008 32.8454 259.252 33.3218C258.219 33.9754 256.844 34.3062 255.169 34.3062C253.621 34.3062 252.029 34.0699 250.441 33.6093C249.231 33.2588 248.101 32.7824 247.068 32.1957L244.783 36.9206Z" fill="#333333"/>
<path d="M188.944 59.8322H142.771V106.214H188.944V59.8322Z" fill="white"/>
<path d="M152.153 102.553H185.575V59.8322H188.944V106.214H142.771L152.153 102.553Z" fill="#3D9BE9"/>
<path d="M188.944 107.199H142.772C142.228 107.199 141.787 106.758 141.787 106.214V59.8321C141.787 59.2888 142.228 58.8478 142.772 58.8478H188.944C189.488 58.8478 189.93 59.2888 189.93 59.8321V106.214C189.93 106.758 189.488 107.199 188.944 107.199ZM143.757 105.23H187.959V60.8165H143.757V105.23Z" fill="#333333"/>
<path d="M142.771 106.214L173.309 94.292H142.771V106.214Z" fill="#3D9BE9"/>
<path d="M142.772 107.199C142.575 107.199 142.382 107.14 142.217 107.025C141.949 106.84 141.787 106.537 141.787 106.214V94.2881C141.787 93.7447 142.228 93.3037 142.772 93.3037H173.309C173.782 93.3037 174.188 93.6423 174.279 94.1069C174.365 94.5715 174.109 95.0322 173.668 95.2055L143.131 107.132C143.016 107.175 142.894 107.199 142.772 107.199ZM143.757 95.2724V104.773L168.081 95.2724H143.757Z" fill="#333333"/>
<path d="M173.312 36.3616H36.0791V94.1896H173.312V36.3616Z" fill="white"/>
<path d="M36.0791 89.7049H169.679V36.3616H173.312V94.1896H36.0791V89.7049Z" fill="#3D9BE9"/>
<path d="M173.307 95.1738H36.0788C35.5351 95.1738 35.0938 94.7328 35.0938 94.1895V36.3615C35.0938 35.8181 35.5351 35.3771 36.0788 35.3771H173.311C173.855 35.3771 174.296 35.8181 174.296 36.3615V94.1895C174.296 94.7328 173.855 95.1738 173.311 95.1738H173.307ZM37.06 93.2052H172.322V37.3458H37.0639V93.2052H37.06Z" fill="#333333"/>
<path d="M78.0917 48.8981V83.8185H68.2055V56.5326H61.7158V48.902H78.0917V48.8981Z" fill="#3D9BE9"/>
<path d="M79.0774 84.799H67.2211V57.5131H60.7314V47.9138H79.0774V84.8029V84.799ZM69.1912 82.8303H77.1073V49.8786H62.7016V55.5405H69.1912V82.8264V82.8303Z" fill="#333333"/>
<path d="M64.2514 53.3906H62.2812V49.5123H76.7342V51.4809H64.2514V53.3906Z" fill="white"/>
<path d="M70.9457 55.7726H68.9756V82.0152H70.9457V55.7726Z" fill="white"/>
<path d="M79.0774 84.799H67.2211V57.5131H60.7314V47.9138H79.0774V84.8029V84.799ZM69.1912 82.8303H77.1073V49.8786H62.7016V55.5405H69.1912V82.8264V82.8303Z" fill="#333333"/>
<path d="M118.599 70.3962C117.488 69.2425 116.937 67.6676 116.937 65.6753C116.937 64.3681 117.193 63.2263 117.701 62.2498C118.209 61.2733 118.915 60.5252 119.813 60.0055C120.711 59.4858 121.736 59.2259 122.89 59.2259C124.663 59.2259 126.106 59.8086 127.217 60.9701C128.328 62.1356 128.88 63.7027 128.88 65.6753C128.88 67.6479 128.324 69.2465 127.217 70.3962C126.106 71.5498 124.663 72.1247 122.89 72.1247C121.117 72.1247 119.707 71.5498 118.595 70.3962H118.599ZM136.67 59.5212H141.461L125.554 82.7989H120.763L136.67 59.5212ZM124.321 68.1676C124.675 67.6361 124.853 66.8053 124.853 65.6753C124.853 64.5453 124.675 63.7145 124.321 63.1829C123.966 62.6514 123.489 62.3837 122.89 62.3837C122.291 62.3837 121.842 62.6553 121.476 63.1987C121.109 63.742 120.928 64.5689 120.928 65.6753C120.928 66.7817 121.109 67.6085 121.476 68.1519C121.842 68.6952 122.311 68.9669 122.89 68.9669C123.47 68.9669 123.966 68.6992 124.321 68.1676ZM135.022 81.3696C133.923 80.216 133.375 78.641 133.375 76.6487C133.375 74.6564 133.931 73.1051 135.038 71.9436C136.149 70.7781 137.58 70.1993 139.333 70.1993C141.087 70.1993 142.548 70.782 143.66 71.9436C144.771 73.109 145.322 74.6761 145.322 76.6487C145.322 78.6213 144.767 80.2199 143.66 81.3696C142.548 82.5233 141.106 83.0981 139.333 83.0981C137.56 83.0981 136.122 82.5233 135.022 81.3696ZM140.763 79.1411C141.118 78.6095 141.295 77.7787 141.295 76.6487C141.295 75.5187 141.118 74.6879 140.763 74.1564C140.409 73.6248 139.932 73.3571 139.333 73.3571C138.734 73.3571 138.257 73.6248 137.903 74.1564C137.548 74.6879 137.371 75.5187 137.371 76.6487C137.371 77.7787 137.548 78.6095 137.903 79.1411C138.257 79.6726 138.734 79.9403 139.333 79.9403C139.932 79.9403 140.409 79.6726 140.763 79.1411Z" fill="#3D9BE9"/>
<path d="M139.333 84.0824C137.284 84.0824 135.597 83.3973 134.309 82.0468C133.036 80.712 132.39 78.893 132.39 76.6447C132.39 75.6919 132.508 74.8139 132.749 74.0185L126.074 83.7832H118.895L127.059 71.8372C125.904 72.6798 124.506 73.109 122.89 73.109C120.869 73.109 119.182 72.4239 117.886 71.0773C116.597 69.7426 115.947 67.9235 115.947 65.6713C115.947 64.2066 116.243 62.9034 116.826 61.7891C117.421 60.6512 118.26 59.7613 119.316 59.1471C120.364 58.5408 121.566 58.2336 122.89 58.2336C124.935 58.2336 126.633 58.9227 127.93 60.285C129.214 61.6316 129.864 63.4467 129.864 65.6713C129.864 66.5887 129.758 67.4313 129.541 68.1991L136.145 58.5329H143.324L135.113 70.5497C136.279 69.6599 137.694 69.2071 139.329 69.2071C141.374 69.2071 143.072 69.8961 144.369 71.2584C145.653 72.605 146.303 74.4201 146.303 76.6447C146.303 78.8694 145.649 80.712 144.365 82.0507C143.068 83.3973 141.374 84.0824 139.329 84.0824H139.333ZM139.333 71.1797C137.847 71.1797 136.677 71.6522 135.755 72.6208C134.817 73.6051 134.364 74.9202 134.364 76.6487C134.364 78.3772 134.813 79.7198 135.739 80.6923C136.653 81.6491 137.828 82.1177 139.337 82.1177C140.846 82.1177 142.028 81.6491 142.954 80.6923C143.888 79.7198 144.341 78.4008 144.341 76.6526C144.341 74.9044 143.884 73.609 142.95 72.6247C142.024 71.6561 140.846 71.1836 139.337 71.1836L139.333 71.1797ZM122.626 81.8145H125.034L139.597 60.5055H137.189L122.626 81.8145ZM122.89 60.2063C121.905 60.2063 121.058 60.4189 120.305 60.8559C119.564 61.2851 118.997 61.8915 118.572 62.7065C118.138 63.5333 117.917 64.5334 117.917 65.6753C117.917 67.4234 118.371 68.7464 119.304 69.715C120.226 70.6757 121.401 71.1443 122.886 71.1443C124.372 71.1443 125.577 70.6757 126.503 69.7189C127.437 68.7464 127.89 67.4274 127.89 65.6792C127.89 63.931 127.433 62.6356 126.499 61.6513C125.573 60.6827 124.395 60.2102 122.886 60.2102L122.89 60.2063ZM139.333 80.9247C138.399 80.9247 137.623 80.4955 137.083 79.6883C136.614 78.9835 136.386 77.9913 136.386 76.6487C136.386 75.306 136.614 74.3138 137.083 73.609C137.623 72.8019 138.399 72.3727 139.333 72.3727C140.267 72.3727 141.043 72.8019 141.583 73.609C142.052 74.3138 142.28 75.31 142.28 76.6487C142.28 77.9874 142.052 78.9835 141.583 79.6883C141.043 80.4994 140.263 80.9247 139.333 80.9247ZM139.333 74.3414C139.108 74.3414 138.919 74.4044 138.722 74.6997C138.584 74.9044 138.356 75.432 138.356 76.6487C138.356 77.8653 138.584 78.3929 138.722 78.5977C138.923 78.8969 139.112 78.956 139.333 78.956C139.554 78.956 139.747 78.893 139.944 78.5977C140.082 78.3929 140.31 77.8653 140.31 76.6487C140.31 75.432 140.082 74.9044 139.944 74.6997C139.747 74.4004 139.554 74.3414 139.333 74.3414ZM122.89 69.9512C122.256 69.9512 121.353 69.7347 120.66 68.7031C120.179 67.9865 119.943 66.9982 119.943 65.6753C119.943 64.3523 120.179 63.364 120.66 62.6474C121.357 61.6158 122.26 61.3993 122.89 61.3993C123.824 61.3993 124.6 61.8285 125.14 62.6356C125.609 63.3404 125.837 64.3366 125.837 65.6753C125.837 67.014 125.609 68.0101 125.14 68.7149C124.6 69.5221 123.82 69.9512 122.89 69.9512ZM122.89 63.368C122.713 63.368 122.52 63.4152 122.291 63.7499C122.118 64.0098 121.909 64.5531 121.909 65.6792C121.909 66.8053 122.118 67.3486 122.291 67.6085C122.516 67.9432 122.713 67.9865 122.89 67.9865C123.115 67.9865 123.304 67.9235 123.501 67.6282C123.639 67.4234 123.867 66.8958 123.867 65.6792C123.867 64.4625 123.639 63.9349 123.501 63.7302C123.3 63.431 123.111 63.3719 122.89 63.3719V63.368Z" fill="#333333"/>
<path d="M117.99 69.1047C117.21 66.5375 117.564 63.8089 118.924 61.9781C119.952 60.5921 121.469 59.8243 123.195 59.8243C126.942 59.8243 127.785 62.3679 127.821 62.4781L125.941 63.0687C125.929 63.0372 125.445 61.793 123.195 61.793C121.804 61.793 120.965 62.5293 120.508 63.1475C119.515 64.4862 119.274 66.5494 119.877 68.5298L117.994 69.1047H117.99Z" fill="white"/>
<path d="M134.357 80.1765C133.577 77.6094 133.931 74.8808 135.291 73.0499C136.319 71.664 137.836 70.8962 139.562 70.8962C143.309 70.8962 144.152 73.4397 144.188 73.55L142.308 74.1406C142.297 74.1091 141.812 72.8649 139.562 72.8649C138.171 72.8649 137.332 73.6011 136.875 74.2193C135.882 75.558 135.641 77.6212 136.244 79.6017L134.361 80.1765H134.357Z" fill="white"/>
<path d="M136.939 60.2459L123.056 80.6902L124.686 81.7956L138.569 61.3513L136.939 60.2459Z" fill="white"/>
<path d="M139.333 84.0824C137.284 84.0824 135.597 83.3973 134.309 82.0468C133.036 80.712 132.39 78.893 132.39 76.6447C132.39 75.6919 132.508 74.8139 132.749 74.0185L126.074 83.7832H118.895L127.059 71.8372C125.904 72.6798 124.506 73.109 122.89 73.109C120.869 73.109 119.182 72.4239 117.886 71.0773C116.597 69.7426 115.947 67.9235 115.947 65.6713C115.947 64.2066 116.243 62.9034 116.826 61.7891C117.421 60.6512 118.26 59.7613 119.316 59.1471C120.364 58.5408 121.566 58.2336 122.89 58.2336C124.935 58.2336 126.633 58.9227 127.93 60.285C129.214 61.6316 129.864 63.4467 129.864 65.6713C129.864 66.5887 129.758 67.4313 129.541 68.1991L136.145 58.5329H143.324L135.113 70.5497C136.279 69.6599 137.694 69.2071 139.329 69.2071C141.374 69.2071 143.072 69.8961 144.369 71.2584C145.653 72.605 146.303 74.4201 146.303 76.6447C146.303 78.8694 145.649 80.712 144.365 82.0507C143.068 83.3973 141.374 84.0824 139.329 84.0824H139.333ZM139.333 71.1797C137.847 71.1797 136.677 71.6522 135.755 72.6208C134.817 73.6051 134.364 74.9202 134.364 76.6487C134.364 78.3772 134.813 79.7198 135.739 80.6923C136.653 81.6491 137.828 82.1177 139.337 82.1177C140.846 82.1177 142.028 81.6491 142.954 80.6923C143.888 79.7198 144.341 78.4008 144.341 76.6526C144.341 74.9044 143.884 73.609 142.95 72.6247C142.024 71.6561 140.846 71.1836 139.337 71.1836L139.333 71.1797ZM122.626 81.8145H125.034L139.597 60.5055H137.189L122.626 81.8145ZM122.89 60.2063C121.905 60.2063 121.058 60.4189 120.305 60.8559C119.564 61.2851 118.997 61.8915 118.572 62.7065C118.138 63.5333 117.917 64.5334 117.917 65.6753C117.917 67.4234 118.371 68.7464 119.304 69.715C120.226 70.6757 121.401 71.1443 122.886 71.1443C124.372 71.1443 125.577 70.6757 126.503 69.7189C127.437 68.7464 127.89 67.4274 127.89 65.6792C127.89 63.931 127.433 62.6356 126.499 61.6513C125.573 60.6827 124.395 60.2102 122.886 60.2102L122.89 60.2063ZM139.333 80.9247C138.399 80.9247 137.623 80.4955 137.083 79.6883C136.614 78.9835 136.386 77.9913 136.386 76.6487C136.386 75.306 136.614 74.3138 137.083 73.609C137.623 72.8019 138.399 72.3727 139.333 72.3727C140.267 72.3727 141.043 72.8019 141.583 73.609C142.052 74.3138 142.28 75.31 142.28 76.6487C142.28 77.9874 142.052 78.9835 141.583 79.6883C141.043 80.4994 140.263 80.9247 139.333 80.9247ZM139.333 74.3414C139.108 74.3414 138.919 74.4044 138.722 74.6997C138.584 74.9044 138.356 75.432 138.356 76.6487C138.356 77.8653 138.584 78.3929 138.722 78.5977C138.923 78.8969 139.112 78.956 139.333 78.956C139.554 78.956 139.747 78.893 139.944 78.5977C140.082 78.3929 140.31 77.8653 140.31 76.6487C140.31 75.432 140.082 74.9044 139.944 74.6997C139.747 74.4004 139.554 74.3414 139.333 74.3414ZM122.89 69.9512C122.256 69.9512 121.353 69.7347 120.66 68.7031C120.179 67.9865 119.943 66.9982 119.943 65.6753C119.943 64.3523 120.179 63.364 120.66 62.6474C121.357 61.6158 122.26 61.3993 122.89 61.3993C123.824 61.3993 124.6 61.8285 125.14 62.6356C125.609 63.3404 125.837 64.3366 125.837 65.6753C125.837 67.014 125.609 68.0101 125.14 68.7149C124.6 69.5221 123.82 69.9512 122.89 69.9512ZM122.89 63.368C122.713 63.368 122.52 63.4152 122.291 63.7499C122.118 64.0098 121.909 64.5531 121.909 65.6792C121.909 66.8053 122.118 67.3486 122.291 67.6085C122.516 67.9432 122.713 67.9865 122.89 67.9865C123.115 67.9865 123.304 67.9235 123.501 67.6282C123.639 67.4234 123.867 66.8958 123.867 65.6792C123.867 64.4625 123.639 63.9349 123.501 63.7302C123.3 63.431 123.111 63.3719 122.89 63.3719V63.368Z" fill="#333333"/>
<path d="M99.0587 85.2202C95.938 85.2202 93.1167 84.4603 90.6777 82.9602C88.2308 81.4561 86.2921 79.2433 84.9249 76.3809C84.0344 74.5224 83.4275 72.412 83.1241 70.1165C82.9665 68.9275 82.8838 67.6636 82.8838 66.3524C82.8838 62.5174 83.5694 59.1431 84.9209 56.324C86.2882 53.4654 88.2229 51.2487 90.6737 49.7446C93.1128 48.2484 95.934 47.4885 99.0547 47.4885C102.175 47.4885 104.945 48.2484 107.385 49.7446C107.601 49.8785 107.814 50.0163 108.019 50.1581C110.166 51.6424 111.888 53.7174 113.141 56.324C114.493 59.147 115.178 62.5214 115.178 66.3524C115.178 70.1835 114.493 73.5578 113.141 76.3809C111.766 79.2433 109.831 81.4561 107.385 82.9602C104.945 84.4603 102.144 85.2163 99.0547 85.2163L99.0587 85.2202ZM99.0587 49.4651C96.3084 49.4651 93.8339 50.1266 91.71 51.4298C89.5902 52.7331 87.9037 54.6663 86.7019 57.1823C85.4765 59.7337 84.8579 62.8206 84.8579 66.3603C84.8579 67.5809 84.9327 68.7621 85.0785 69.8645C85.3543 71.9553 85.8981 73.8649 86.7019 75.5383C87.9037 78.0543 89.5902 79.9875 91.71 81.2868C93.8339 82.5901 96.3084 83.2555 99.0587 83.2555C101.809 83.2555 104.232 82.594 106.356 81.2868C108.476 79.9875 110.158 78.0543 111.368 75.5343C112.594 72.979 113.212 69.8921 113.212 66.3564C113.212 62.8206 112.59 59.7337 111.368 57.1784C110.269 54.8829 108.768 53.0678 106.908 51.7842C106.73 51.6621 106.545 51.544 106.356 51.4259C104.232 50.1226 101.777 49.4611 99.0587 49.4611V49.4651Z" fill="#333333"/>
<path d="M112.255 56.7531C111.073 54.2883 109.477 52.3629 107.468 50.973C107.274 50.8392 107.074 50.7132 106.873 50.5872C104.579 49.1815 101.975 48.4767 99.059 48.4767C96.1431 48.4767 93.4874 49.1815 91.1941 50.5872C88.9009 51.9967 87.1041 54.052 85.8117 56.7531C84.5153 59.4541 83.8691 62.6552 83.8691 66.3563C83.8691 67.6281 83.944 68.8368 84.0977 69.9905C84.3893 72.1954 84.9606 74.1838 85.8078 75.9595C87.1002 78.6605 88.8969 80.7159 91.1902 82.1215C93.4834 83.5311 96.1037 84.2358 99.055 84.2358C102.006 84.2358 104.575 83.5311 106.869 82.1215C109.162 80.7159 110.955 78.6605 112.251 75.9595C113.543 73.2585 114.194 70.0574 114.194 66.3563C114.194 62.6552 113.547 59.4541 112.251 56.7531H112.255ZM95.099 58.8163C96.0643 57.2295 97.3843 56.4341 99.055 56.4341C100.726 56.4341 101.994 57.2295 102.964 58.8163C103.665 59.9699 104.114 61.6118 104.307 63.738C104.382 64.5412 104.418 65.4113 104.418 66.3563C104.418 69.7936 103.933 72.3056 102.968 73.8963C102.081 75.3571 100.907 76.1446 99.453 76.2627C99.3269 76.2745 99.1929 76.2784 99.059 76.2784C97.3883 76.2784 96.0683 75.4831 95.1029 73.8963C94.1375 72.3096 93.6529 69.7975 93.6529 66.3563C93.6529 62.915 94.1336 60.4069 95.1029 58.8163H95.099Z" fill="#3D9BE9"/>
<path d="M99.0601 77.2629C97.0269 77.2629 95.4153 76.3022 94.2608 74.4043C93.1891 72.6443 92.6689 70.0102 92.6689 66.3564C92.6689 62.7025 93.1891 60.0684 94.2608 58.3045C95.4153 56.4106 97.0269 55.4499 99.0601 55.4499C101.093 55.4499 102.658 56.4106 103.808 58.3045C104.596 59.5999 105.081 61.3481 105.29 63.6514C105.365 64.4743 105.404 65.3838 105.404 66.3564C105.404 70.0102 104.884 72.6443 103.808 74.4083C102.752 76.1447 101.314 77.1014 99.5329 77.2471C99.3753 77.2589 99.2177 77.2668 99.0601 77.2668V77.2629ZM95.9433 59.3282C95.0765 60.7535 94.6391 63.1199 94.6391 66.3564C94.6391 69.5929 95.0765 71.9592 95.9433 73.3846C96.7353 74.6878 97.7243 75.2942 99.0601 75.2942C99.1665 75.2942 99.2729 75.2902 99.3753 75.2824C100.506 75.1918 101.405 74.5697 102.126 73.3846C102.993 71.9592 103.434 69.5968 103.434 66.3564C103.434 65.4429 103.398 64.5924 103.327 63.8286C103.15 61.8599 102.744 60.344 102.126 59.3282C101.334 58.0249 100.36 57.4186 99.0601 57.4186C97.7598 57.4186 96.7393 58.0249 95.9433 59.3282Z" fill="#333333"/>
<path d="M85.3989 72.9042C83.4445 61.7182 86.975 52.7961 94.3946 50.1699C103.055 47.1067 109.462 53.1978 109.73 53.4576L108.355 54.8672C108.123 54.6428 102.539 49.3746 95.0486 52.0244C88.5826 54.312 85.5565 62.3757 87.3375 72.5656L85.3949 72.9042H85.3989Z" fill="white"/>
<path d="M99.3425 79.137C97.7309 79.137 96.1075 78.6055 94.7441 77.5857L95.9223 76.0068C97.4157 77.1211 99.2991 77.4597 100.962 76.9124C102.727 76.3297 104.063 74.8099 104.721 72.6246C106.285 67.4313 104.579 60.9858 104.559 60.9189L106.463 60.4031C106.541 60.6866 108.338 67.4509 106.608 73.1916C105.761 76.0068 103.972 77.9913 101.581 78.7787C100.856 79.0189 100.103 79.1331 99.3464 79.1331L99.3425 79.137Z" fill="white"/>
<path d="M99.0587 85.2202C95.938 85.2202 93.1167 84.4603 90.6777 82.9602C88.2308 81.4561 86.2921 79.2433 84.9249 76.3809C84.0344 74.5224 83.4275 72.412 83.1241 70.1165C82.9665 68.9275 82.8838 67.6636 82.8838 66.3524C82.8838 62.5174 83.5694 59.1431 84.9209 56.324C86.2882 53.4654 88.2229 51.2487 90.6737 49.7446C93.1128 48.2484 95.934 47.4885 99.0547 47.4885C102.175 47.4885 104.945 48.2484 107.385 49.7446C107.601 49.8785 107.814 50.0163 108.019 50.1581C110.166 51.6424 111.888 53.7174 113.141 56.324C114.493 59.147 115.178 62.5214 115.178 66.3524C115.178 70.1835 114.493 73.5578 113.141 76.3809C111.766 79.2433 109.831 81.4561 107.385 82.9602C104.945 84.4603 102.144 85.2163 99.0547 85.2163L99.0587 85.2202ZM99.0587 49.4651C96.3084 49.4651 93.8339 50.1266 91.71 51.4298C89.5902 52.7331 87.9037 54.6663 86.7019 57.1823C85.4765 59.7337 84.8579 62.8206 84.8579 66.3603C84.8579 67.5809 84.9327 68.7621 85.0785 69.8645C85.3543 71.9553 85.8981 73.8649 86.7019 75.5383C87.9037 78.0543 89.5902 79.9875 91.71 81.2868C93.8339 82.5901 96.3084 83.2555 99.0587 83.2555C101.809 83.2555 104.232 82.594 106.356 81.2868C108.476 79.9875 110.158 78.0543 111.368 75.5343C112.594 72.979 113.212 69.8921 113.212 66.3564C113.212 62.8206 112.59 59.7337 111.368 57.1784C110.269 54.8829 108.768 53.0678 106.908 51.7842C106.73 51.6621 106.545 51.544 106.356 51.4259C104.232 50.1226 101.777 49.4611 99.0587 49.4611V49.4651Z" fill="#333333"/>
<path d="M99.0591 77.2629C97.0259 77.2629 95.4144 76.3022 94.2598 74.4043C93.1881 72.6443 92.668 70.0102 92.668 66.3564C92.668 62.7025 93.1881 60.0684 94.2598 58.3045C95.4144 56.4106 97.0259 55.4499 99.0591 55.4499C101.092 55.4499 102.657 56.4106 103.807 58.3045C104.595 59.5999 105.08 61.3481 105.289 63.6514C105.364 64.4743 105.403 65.3838 105.403 66.3564C105.403 70.0102 104.883 72.6443 103.807 74.4083C102.751 76.1447 101.313 77.1014 99.532 77.2471C99.3743 77.2589 99.2167 77.2668 99.0591 77.2668V77.2629ZM95.9424 59.3282C95.0755 60.7535 94.6381 63.1199 94.6381 66.3564C94.6381 69.5929 95.0755 71.9592 95.9424 73.3846C96.7344 74.6878 97.7234 75.2942 99.0591 75.2942C99.1655 75.2942 99.2719 75.2902 99.3743 75.2824C100.505 75.1918 101.404 74.5697 102.125 73.3846C102.992 71.9592 103.433 69.5968 103.433 66.3564C103.433 65.4429 103.397 64.5924 103.326 63.8286C103.149 61.8599 102.743 60.344 102.125 59.3282C101.333 58.0249 100.359 57.4186 99.0591 57.4186C97.7588 57.4186 96.7383 58.0249 95.9424 59.3282Z" fill="#333333"/>
<path d="M395.015 142.395H342.408V195.242H395.015V142.395Z" fill="white"/>
<path d="M353.098 191.064H391.177V142.395H395.015V195.242H342.408L353.098 191.064Z" fill="#FFC439"/>
<path d="M395.014 196.226H342.407C341.863 196.226 341.422 195.785 341.422 195.242V142.395C341.422 141.851 341.863 141.41 342.407 141.41H395.014C395.558 141.41 395.999 141.851 395.999 142.395V195.242C395.999 195.785 395.558 196.226 395.014 196.226ZM343.392 194.258H394.029V143.379H343.392V194.258Z" fill="#333333"/>
<path d="M342.408 195.242L377.201 181.654H342.408V195.242Z" fill="#FFC439"/>
<path d="M342.407 196.226C342.21 196.226 342.017 196.167 341.851 196.053C341.583 195.868 341.422 195.565 341.422 195.242V181.654C341.422 181.111 341.863 180.67 342.407 180.67H377.2C377.673 180.67 378.078 181.008 378.169 181.473C378.256 181.938 378 182.398 377.558 182.571L342.766 196.159C342.651 196.203 342.529 196.226 342.407 196.226ZM343.392 182.638V193.801L371.971 182.638H343.392Z" fill="#333333"/>
<path d="M377.201 115.652H220.843V181.54H377.201V115.652Z" fill="white"/>
<path d="M220.843 176.429H373.064V115.652H377.201V181.536H220.843V176.429Z" fill="#FFC439"/>
<path d="M377.202 182.52H220.847C220.304 182.52 219.862 182.079 219.862 181.536V115.648C219.862 115.105 220.304 114.664 220.847 114.664H377.202C377.746 114.664 378.187 115.105 378.187 115.648V181.536C378.187 182.079 377.746 182.52 377.202 182.52ZM221.832 180.552H376.217V116.632H221.832V180.552Z" fill="#333333"/>
<path d="M322.92 153.463C321.588 152.081 320.922 150.191 320.922 147.793C320.922 146.222 321.229 144.852 321.84 143.682C322.451 142.513 323.298 141.615 324.377 140.989C325.457 140.363 326.687 140.052 328.073 140.052C330.205 140.052 331.935 140.749 333.267 142.147C334.599 143.544 335.265 145.426 335.265 147.797C335.265 150.167 334.599 152.081 333.267 153.467C331.935 154.852 330.205 155.542 328.073 155.542C325.942 155.542 324.251 154.849 322.92 153.467V153.463ZM344.611 140.41H350.364L331.269 168.354H325.516L344.611 140.41ZM329.791 150.789C330.217 150.151 330.43 149.151 330.43 147.797C330.43 146.442 330.217 145.442 329.791 144.804C329.366 144.166 328.795 143.848 328.073 143.848C327.352 143.848 326.817 144.174 326.375 144.824C325.934 145.478 325.717 146.466 325.717 147.797C325.717 149.128 325.938 150.12 326.375 150.769C326.817 151.423 327.38 151.746 328.073 151.746C328.767 151.746 329.366 151.427 329.791 150.789ZM342.637 166.637C341.317 165.255 340.659 163.365 340.659 160.967C340.659 158.569 341.325 156.715 342.657 155.317C343.988 153.919 345.706 153.222 347.81 153.222C349.915 153.222 351.672 153.919 353.004 155.317C354.336 156.715 355.001 158.597 355.001 160.967C355.001 163.337 354.336 165.251 353.004 166.637C351.672 168.023 349.942 168.712 347.81 168.712C345.679 168.712 343.957 168.019 342.637 166.637ZM349.528 163.964C349.954 163.326 350.167 162.326 350.167 160.971C350.167 159.617 349.954 158.617 349.528 157.979C349.103 157.341 348.531 157.022 347.81 157.022C347.089 157.022 346.518 157.341 346.092 157.979C345.667 158.617 345.454 159.617 345.454 160.971C345.454 162.326 345.667 163.326 346.092 163.964C346.518 164.601 347.089 164.92 347.81 164.92C348.531 164.92 349.103 164.601 349.528 163.964Z" fill="#FFC439"/>
<path d="M347.809 169.696C345.41 169.696 343.428 168.893 341.922 167.314C340.429 165.747 339.672 163.613 339.672 160.967C339.672 159.014 340.098 157.333 340.937 155.951L331.792 169.338H323.655L334.195 153.911C334.125 153.99 334.054 154.069 333.979 154.144C332.462 155.723 330.472 156.522 328.076 156.522C325.68 156.522 323.73 155.723 322.213 154.144C320.704 152.577 319.939 150.443 319.939 147.793C319.939 146.068 320.286 144.533 320.972 143.225C321.669 141.895 322.65 140.855 323.888 140.135C325.113 139.422 326.524 139.064 328.076 139.064C330.476 139.064 332.466 139.871 333.983 141.465C335.488 143.044 336.252 145.174 336.252 147.793C336.252 149.545 335.917 151.073 335.251 152.36L344.093 139.422H352.23L341.398 155.27C341.568 155.049 341.749 154.841 341.938 154.636C343.455 153.041 345.429 152.234 347.805 152.234C350.181 152.234 352.195 153.041 353.712 154.636C355.217 156.215 355.981 158.345 355.981 160.963C355.981 163.582 355.217 165.747 353.708 167.314C352.191 168.893 350.205 169.692 347.805 169.692L347.809 169.696ZM347.809 154.207C345.969 154.207 344.519 154.793 343.368 155.998C342.206 157.215 341.643 158.841 341.643 160.967C341.643 163.093 342.202 164.751 343.349 165.956C344.484 167.149 345.941 167.728 347.809 167.728C349.677 167.728 351.143 167.149 352.293 165.952C353.452 164.747 354.015 163.117 354.015 160.967C354.015 158.817 353.452 157.215 352.289 155.998C351.139 154.793 349.677 154.207 347.809 154.207ZM327.383 167.369H330.748L348.499 141.395H345.13L327.379 167.369H327.383ZM328.072 141.036C326.87 141.036 325.795 141.308 324.873 141.839C323.951 142.375 323.245 143.127 322.713 144.139C322.178 145.163 321.906 146.391 321.906 147.793C321.906 149.943 322.469 151.577 323.628 152.777C324.774 153.97 326.228 154.553 328.072 154.553C329.916 154.553 331.406 153.974 332.556 152.781C333.715 151.577 334.278 149.946 334.278 147.797C334.278 145.647 333.715 144.044 332.552 142.828C331.406 141.623 329.94 141.036 328.072 141.036ZM347.805 165.905C346.753 165.905 345.878 165.42 345.268 164.507C344.728 163.696 344.464 162.538 344.464 160.967C344.464 159.396 344.728 158.239 345.268 157.427C345.878 156.514 346.753 156.03 347.805 156.03C348.857 156.03 349.732 156.514 350.343 157.427C350.887 158.239 351.147 159.4 351.147 160.967C351.147 162.534 350.883 163.696 350.343 164.507C349.732 165.42 348.857 165.905 347.805 165.905ZM347.805 158.002C347.419 158.002 347.151 158.156 346.907 158.522C346.69 158.845 346.434 159.534 346.434 160.971C346.434 162.408 346.69 163.097 346.907 163.42C347.151 163.786 347.419 163.94 347.805 163.94C348.191 163.94 348.459 163.786 348.704 163.42C348.92 163.097 349.176 162.408 349.176 160.971C349.176 159.534 348.92 158.849 348.704 158.522C348.459 158.16 348.191 158.002 347.805 158.002ZM328.072 152.734C327.359 152.734 326.342 152.49 325.558 151.321C325.003 150.494 324.731 149.344 324.731 147.797C324.731 146.249 325.003 145.1 325.558 144.273C326.346 143.103 327.359 142.859 328.072 142.859C329.124 142.859 329.999 143.344 330.61 144.257C331.15 145.068 331.414 146.226 331.414 147.797C331.414 149.368 331.15 150.525 330.61 151.336C329.999 152.25 329.124 152.734 328.072 152.734ZM328.072 144.832C327.816 144.832 327.513 144.895 327.194 145.375C326.969 145.706 326.701 146.399 326.701 147.801C326.701 149.202 326.969 149.891 327.194 150.226C327.517 150.706 327.82 150.769 328.076 150.769C328.462 150.769 328.73 150.616 328.975 150.25C329.191 149.927 329.447 149.238 329.447 147.801C329.447 146.363 329.191 145.678 328.975 145.352C328.73 144.989 328.462 144.832 328.076 144.832H328.072Z" fill="#333333"/>
<path d="M322.301 151.773C321.379 148.753 321.797 145.541 323.389 143.395C324.587 141.78 326.352 140.891 328.357 140.891C332.715 140.891 333.681 143.812 333.72 143.938L331.841 144.529C331.821 144.478 331.21 142.859 328.357 142.859C326.604 142.859 325.548 143.788 324.973 144.564C323.743 146.222 323.444 148.761 324.185 151.199L322.301 151.773Z" fill="white"/>
<path d="M341.946 165.066C341.024 162.046 341.441 158.833 343.033 156.687C344.231 155.073 345.996 154.183 348.002 154.183C352.36 154.183 353.325 157.105 353.365 157.231L351.485 157.821C351.466 157.77 350.855 156.152 348.002 156.152C346.249 156.152 345.193 157.081 344.617 157.857C343.388 159.514 343.088 162.054 343.829 164.491L341.946 165.066Z" fill="white"/>
<path d="M345.012 141.294L328.346 165.837L329.976 166.942L346.643 142.4L345.012 141.294Z" fill="white"/>
<path d="M347.809 169.696C345.41 169.696 343.428 168.893 341.922 167.314C340.429 165.747 339.672 163.613 339.672 160.967C339.672 159.014 340.098 157.333 340.937 155.951L331.792 169.338H323.655L334.195 153.911C334.125 153.99 334.054 154.069 333.979 154.144C332.462 155.723 330.472 156.522 328.076 156.522C325.68 156.522 323.73 155.723 322.213 154.144C320.704 152.577 319.939 150.443 319.939 147.793C319.939 146.068 320.286 144.533 320.972 143.225C321.669 141.895 322.65 140.855 323.888 140.135C325.113 139.422 326.524 139.064 328.076 139.064C330.476 139.064 332.466 139.871 333.983 141.465C335.488 143.044 336.252 145.174 336.252 147.793C336.252 149.545 335.917 151.073 335.251 152.36L344.093 139.422H352.23L341.398 155.27C341.568 155.049 341.749 154.841 341.938 154.636C343.455 153.041 345.429 152.234 347.805 152.234C350.181 152.234 352.195 153.041 353.712 154.636C355.217 156.215 355.981 158.345 355.981 160.963C355.981 163.582 355.217 165.747 353.708 167.314C352.191 168.893 350.205 169.692 347.805 169.692L347.809 169.696ZM347.809 154.207C345.969 154.207 344.519 154.793 343.368 155.998C342.206 157.215 341.643 158.841 341.643 160.967C341.643 163.093 342.202 164.751 343.349 165.956C344.484 167.149 345.941 167.728 347.809 167.728C349.677 167.728 351.143 167.149 352.293 165.952C353.452 164.747 354.015 163.117 354.015 160.967C354.015 158.817 353.452 157.215 352.289 155.998C351.139 154.793 349.677 154.207 347.809 154.207ZM327.383 167.369H330.748L348.499 141.395H345.13L327.379 167.369H327.383ZM328.072 141.036C326.87 141.036 325.795 141.308 324.873 141.839C323.951 142.375 323.245 143.127 322.713 144.139C322.178 145.163 321.906 146.391 321.906 147.793C321.906 149.943 322.469 151.577 323.628 152.777C324.774 153.97 326.228 154.553 328.072 154.553C329.916 154.553 331.406 153.974 332.556 152.781C333.715 151.577 334.278 149.946 334.278 147.797C334.278 145.647 333.715 144.044 332.552 142.828C331.406 141.623 329.94 141.036 328.072 141.036ZM347.805 165.905C346.753 165.905 345.878 165.42 345.268 164.507C344.728 163.696 344.464 162.538 344.464 160.967C344.464 159.396 344.728 158.239 345.268 157.427C345.878 156.514 346.753 156.03 347.805 156.03C348.857 156.03 349.732 156.514 350.343 157.427C350.887 158.239 351.147 159.4 351.147 160.967C351.147 162.534 350.883 163.696 350.343 164.507C349.732 165.42 348.857 165.905 347.805 165.905ZM347.805 158.002C347.419 158.002 347.151 158.156 346.907 158.522C346.69 158.845 346.434 159.534 346.434 160.971C346.434 162.408 346.69 163.097 346.907 163.42C347.151 163.786 347.419 163.94 347.805 163.94C348.191 163.94 348.459 163.786 348.704 163.42C348.92 163.097 349.176 162.408 349.176 160.971C349.176 159.534 348.92 158.849 348.704 158.522C348.459 158.16 348.191 158.002 347.805 158.002ZM328.072 152.734C327.359 152.734 326.342 152.49 325.558 151.321C325.003 150.494 324.731 149.344 324.731 147.797C324.731 146.249 325.003 145.1 325.558 144.273C326.346 143.103 327.359 142.859 328.072 142.859C329.124 142.859 329.999 143.344 330.61 144.257C331.15 145.068 331.414 146.226 331.414 147.797C331.414 149.368 331.15 150.525 330.61 151.336C329.999 152.25 329.124 152.734 328.072 152.734ZM328.072 144.832C327.816 144.832 327.513 144.895 327.194 145.375C326.969 145.706 326.701 146.399 326.701 147.801C326.701 149.202 326.969 149.891 327.194 150.226C327.517 150.706 327.82 150.769 328.076 150.769C328.462 150.769 328.73 150.616 328.975 150.25C329.191 149.927 329.447 149.238 329.447 147.801C329.447 146.363 329.191 145.678 328.975 145.352C328.73 144.989 328.462 144.832 328.076 144.832H328.072Z" fill="#333333"/>
<path d="M261.461 160.404L269.247 153.211C272.002 150.695 273.857 148.442 274.823 146.462C275.784 144.478 276.269 142.363 276.269 140.123C276.269 137.611 275.591 135.398 274.232 133.492C272.876 131.587 270.989 130.122 268.57 129.098C266.15 128.078 263.368 127.567 260.22 127.567C256.248 127.567 252.804 128.33 249.897 129.866C247.284 131.244 245.196 133.075 243.631 135.37C243.45 135.63 243.277 135.902 243.111 136.178L251.788 141.013C252.611 139.717 253.663 138.721 254.944 138.036C256.221 137.347 257.627 137.004 259.16 137.004C260.89 137.004 262.21 137.378 263.112 138.127C264.019 138.875 264.468 139.914 264.468 141.253C264.468 142.277 264.212 143.288 263.699 144.289C263.502 144.674 263.234 145.092 262.888 145.541C262.34 146.253 261.607 147.045 260.689 147.915L245.231 162.357V169.669H277.388V160.412H261.457L261.461 160.404Z" fill="#FFC439"/>
<path d="M278.377 170.641H244.25V161.92L260.023 147.182C260.894 146.356 261.599 145.596 262.112 144.93C262.419 144.533 262.659 144.162 262.825 143.832C263.262 142.973 263.487 142.099 263.487 141.241C263.487 140.205 263.16 139.43 262.486 138.875C261.769 138.28 260.646 137.981 259.16 137.981C257.801 137.981 256.54 138.288 255.409 138.894C254.286 139.497 253.348 140.387 252.619 141.532L252.119 142.316L241.74 136.532L242.268 135.662C242.446 135.37 242.631 135.083 242.82 134.807C244.467 132.394 246.693 130.437 249.44 128.992C252.478 127.389 256.107 126.578 260.224 126.578C263.487 126.578 266.426 127.122 268.956 128.189C271.533 129.279 273.582 130.87 275.04 132.917C276.513 134.988 277.258 137.41 277.258 140.119C277.258 142.497 276.738 144.773 275.713 146.887C274.693 148.978 272.742 151.348 269.913 153.935L263.979 159.416H278.377V170.641ZM246.22 168.673H276.407V161.385H258.944L268.578 152.486C271.225 150.065 273.03 147.895 273.936 146.029C274.831 144.186 275.284 142.198 275.284 140.119C275.284 137.827 274.661 135.788 273.428 134.055C272.187 132.307 270.422 130.945 268.184 130C265.898 129.035 263.215 128.547 260.216 128.547C256.422 128.547 253.104 129.283 250.35 130.732C247.93 132.008 245.964 133.721 244.502 135.823L251.481 139.713C252.304 138.638 253.309 137.784 254.467 137.162C255.886 136.398 257.462 136.012 259.152 136.012C261.111 136.012 262.651 136.465 263.735 137.359C264.874 138.3 265.449 139.607 265.449 141.241C265.449 142.414 265.153 143.588 264.574 144.726C264.354 145.163 264.046 145.635 263.668 146.127C263.093 146.879 262.32 147.714 261.367 148.616L246.216 162.77V168.669L246.22 168.673Z" fill="#333333"/>
<path d="M246.851 136.307L245.216 135.209C245.397 134.941 249.767 128.622 260.209 128.622C270.65 128.622 273.921 134.496 274.063 134.748L272.345 135.717C272.226 135.512 269.271 130.594 260.209 130.594C251.146 130.594 246.89 136.256 246.851 136.311V136.307Z" fill="white"/>
<path d="M248.097 166.724H246.127V162.818L246.442 162.526C246.541 162.432 256.557 153.159 263.027 147.285C266.951 143.718 265.683 139.914 265.627 139.757L267.479 139.091C267.554 139.3 269.284 144.261 264.351 148.746C258.539 154.026 249.854 162.058 248.097 163.684V166.731V166.724Z" fill="white"/>
<path d="M275.096 161.314H265.505V163.282H275.096V161.314Z" fill="white"/>
<path d="M278.377 170.641H244.25V161.92L260.023 147.182C260.894 146.356 261.599 145.596 262.112 144.93C262.419 144.533 262.659 144.162 262.825 143.832C263.262 142.973 263.487 142.099 263.487 141.241C263.487 140.205 263.16 139.43 262.486 138.875C261.769 138.28 260.646 137.981 259.16 137.981C257.801 137.981 256.54 138.288 255.409 138.894C254.286 139.497 253.348 140.387 252.619 141.532L252.119 142.316L241.74 136.532L242.268 135.662C242.446 135.37 242.631 135.083 242.82 134.807C244.467 132.394 246.693 130.437 249.44 128.992C252.478 127.389 256.107 126.578 260.224 126.578C263.487 126.578 266.426 127.122 268.956 128.189C271.533 129.279 273.582 130.87 275.04 132.917C276.513 134.988 277.258 137.41 277.258 140.119C277.258 142.497 276.738 144.773 275.713 146.887C274.693 148.978 272.742 151.348 269.913 153.935L263.979 159.416H278.377V170.641ZM246.22 168.673H276.407V161.385H258.944L268.578 152.486C271.225 150.065 273.03 147.895 273.936 146.029C274.831 144.186 275.284 142.198 275.284 140.119C275.284 137.827 274.661 135.788 273.428 134.055C272.187 132.307 270.422 130.945 268.184 130C265.898 129.035 263.215 128.547 260.216 128.547C256.422 128.547 253.104 129.283 250.35 130.732C247.93 132.008 245.964 133.721 244.502 135.823L251.481 139.713C252.304 138.638 253.309 137.784 254.467 137.162C255.886 136.398 257.462 136.012 259.152 136.012C261.111 136.012 262.651 136.465 263.735 137.359C264.874 138.3 265.449 139.607 265.449 141.241C265.449 142.414 265.153 143.588 264.574 144.726C264.354 145.163 264.046 145.635 263.668 146.127C263.093 146.879 262.32 147.714 261.367 148.616L246.216 162.77V168.669L246.22 168.673Z" fill="#333333"/>
<path d="M299.057 171.055C295.345 171.055 291.996 170.153 289.1 168.373C286.192 166.59 283.894 163.96 282.267 160.562C281.207 158.349 280.486 155.837 280.124 153.1C279.934 151.683 279.84 150.171 279.84 148.612C279.84 144.04 280.655 140.016 282.267 136.662C283.89 133.264 286.192 130.634 289.1 128.85C291.996 127.07 295.345 126.169 299.057 126.169C302.768 126.169 306.055 127.07 308.955 128.846C309.211 129.004 309.463 129.165 309.707 129.334C312.257 131.098 314.302 133.559 315.787 136.658C317.399 140.02 318.214 144.04 318.214 148.608C318.214 153.175 317.399 157.199 315.787 160.558C314.156 163.96 311.855 166.59 308.955 168.369C306.059 170.149 302.729 171.051 299.057 171.051V171.055ZM299.057 128.134C295.715 128.134 292.713 128.937 290.132 130.523C287.555 132.106 285.506 134.457 284.048 137.508C282.567 140.599 281.814 144.332 281.814 148.608C281.814 150.084 281.905 151.51 282.082 152.84C282.413 155.372 283.075 157.683 284.048 159.707C285.51 162.763 287.555 165.109 290.136 166.692C292.717 168.279 295.719 169.082 299.061 169.082C302.402 169.082 305.345 168.279 307.926 166.692C310.503 165.113 312.548 162.763 314.014 159.707C315.496 156.612 316.248 152.88 316.248 148.608C316.248 144.336 315.496 140.603 314.014 137.508C312.678 134.721 310.854 132.516 308.592 130.953C308.375 130.803 308.151 130.657 307.922 130.52C305.341 128.937 302.359 128.134 299.061 128.134H299.057Z" fill="#333333"/>
<path d="M314.901 137.087C313.482 134.126 311.567 131.819 309.152 130.149C308.919 129.988 308.683 129.838 308.439 129.689C305.684 128 302.56 127.153 299.057 127.153C295.554 127.153 292.37 128 289.616 129.689C286.862 131.382 284.71 133.847 283.158 137.091C281.601 140.331 280.825 144.174 280.825 148.616C280.825 150.139 280.916 151.596 281.101 152.978C281.448 155.624 282.133 158.014 283.154 160.14C284.706 163.385 286.862 165.849 289.612 167.539C292.366 169.232 295.511 170.074 299.053 170.074C302.595 170.074 305.681 169.228 308.435 167.539C311.189 165.849 313.34 163.385 314.897 160.14C316.449 156.9 317.23 153.057 317.23 148.616C317.23 144.174 316.453 140.331 314.897 137.091L314.901 137.087ZM294.309 139.56C295.467 137.654 297.051 136.701 299.057 136.701C301.063 136.701 302.587 137.654 303.746 139.56C304.589 140.946 305.125 142.914 305.357 145.47C305.444 146.434 305.487 147.482 305.487 148.612C305.487 152.738 304.908 155.754 303.746 157.66C302.678 159.412 301.275 160.361 299.53 160.502C299.376 160.514 299.218 160.522 299.057 160.522C297.051 160.522 295.467 159.569 294.309 157.66C293.15 155.754 292.571 152.738 292.571 148.612C292.571 144.485 293.15 141.469 294.309 139.56Z" fill="#FFC439"/>
<path d="M299.058 161.507C296.694 161.507 294.81 160.384 293.466 158.172C292.198 156.089 291.583 152.962 291.583 148.612C291.583 144.261 292.198 141.131 293.466 139.048C294.814 136.835 296.694 135.717 299.058 135.717C301.422 135.717 303.242 136.839 304.59 139.048C305.52 140.576 306.091 142.647 306.339 145.379C306.43 146.36 306.473 147.446 306.473 148.608C306.473 152.959 305.859 156.085 304.59 158.168C303.357 160.195 301.682 161.31 299.609 161.479C299.428 161.495 299.243 161.503 299.058 161.503V161.507ZM295.149 140.072C294.089 141.812 293.553 144.686 293.553 148.612C293.553 152.537 294.089 155.412 295.149 157.148C296.126 158.754 297.407 159.538 299.058 159.538C299.192 159.538 299.326 159.534 299.452 159.522C300.874 159.404 302.005 158.628 302.907 157.148C303.967 155.408 304.507 152.533 304.507 148.612C304.507 147.509 304.464 146.482 304.381 145.56C304.164 143.166 303.668 141.32 302.911 140.072C301.934 138.465 300.673 137.686 299.062 137.686C297.45 137.686 296.13 138.465 295.153 140.072H295.149Z" fill="#333333"/>
<path d="M282.776 156.36C280.447 143.036 284.636 132.409 293.446 129.291C303.726 125.653 311.335 132.886 311.654 133.193L310.279 134.603C309.995 134.331 303.21 127.921 294.104 131.142C286.247 133.921 282.563 143.686 284.719 156.018L282.776 156.357V156.36Z" fill="white"/>
<path d="M299.322 163.68C297.427 163.68 295.524 163.054 293.92 161.857L295.098 160.278C296.942 161.652 299.271 162.07 301.328 161.392C303.511 160.672 305.158 158.802 305.969 156.116C307.865 149.828 305.8 142.036 305.776 141.958L307.679 141.442C307.77 141.78 309.917 149.848 307.857 156.683C306.856 159.999 304.76 162.333 301.946 163.259C301.095 163.538 300.213 163.676 299.326 163.676L299.322 163.68Z" fill="white"/>
<path d="M299.057 171.055C295.345 171.055 291.996 170.153 289.1 168.373C286.192 166.59 283.894 163.96 282.267 160.562C281.207 158.349 280.486 155.837 280.124 153.1C279.934 151.683 279.84 150.171 279.84 148.612C279.84 144.04 280.655 140.016 282.267 136.662C283.89 133.264 286.192 130.634 289.1 128.85C291.996 127.07 295.345 126.169 299.057 126.169C302.768 126.169 306.055 127.07 308.955 128.846C309.211 129.004 309.463 129.165 309.707 129.334C312.257 131.098 314.302 133.559 315.787 136.658C317.399 140.02 318.214 144.04 318.214 148.608C318.214 153.175 317.399 157.199 315.787 160.558C314.156 163.96 311.855 166.59 308.955 168.369C306.059 170.149 302.729 171.051 299.057 171.051V171.055ZM299.057 128.134C295.715 128.134 292.713 128.937 290.132 130.523C287.555 132.106 285.506 134.457 284.048 137.508C282.567 140.599 281.814 144.332 281.814 148.608C281.814 150.084 281.905 151.51 282.082 152.84C282.413 155.372 283.075 157.683 284.048 159.707C285.51 162.763 287.555 165.109 290.136 166.692C292.717 168.279 295.719 169.082 299.061 169.082C302.402 169.082 305.345 168.279 307.926 166.692C310.503 165.113 312.548 162.763 314.014 159.707C315.496 156.612 316.248 152.88 316.248 148.608C316.248 144.336 315.496 140.603 314.014 137.508C312.678 134.721 310.854 132.516 308.592 130.953C308.375 130.803 308.151 130.657 307.922 130.52C305.341 128.937 302.359 128.134 299.061 128.134H299.057Z" fill="#333333"/>
<path d="M299.057 161.507C296.693 161.507 294.809 160.384 293.466 158.172C292.197 156.089 291.582 152.962 291.582 148.612C291.582 144.261 292.197 141.131 293.466 139.048C294.813 136.835 296.693 135.717 299.057 135.717C301.421 135.717 303.241 136.839 304.589 139.048C305.519 140.576 306.09 142.647 306.338 145.379C306.429 146.36 306.472 147.446 306.472 148.608C306.472 152.959 305.858 156.085 304.589 158.168C303.356 160.195 301.681 161.31 299.608 161.479C299.427 161.495 299.242 161.503 299.057 161.503V161.507ZM295.148 140.072C294.088 141.812 293.552 144.686 293.552 148.612C293.552 152.537 294.088 155.412 295.148 157.148C296.125 158.754 297.406 159.538 299.057 159.538C299.191 159.538 299.325 159.534 299.451 159.522C300.873 159.404 302.004 158.628 302.906 157.148C303.966 155.408 304.506 152.533 304.506 148.612C304.506 147.509 304.463 146.482 304.38 145.56C304.163 143.166 303.667 141.32 302.91 140.072C301.933 138.465 300.672 137.686 299.061 137.686C297.449 137.686 296.129 138.465 295.152 140.072H295.148Z" fill="#333333"/>
<path d="M223.596 190.608H156.359V258.149H223.596V190.608Z" fill="white"/>
<path d="M170.02 252.814H218.691V190.608H223.596V258.149H156.359L170.02 252.814Z" fill="#3D9BE9"/>
<path d="M223.596 259.134H156.359C155.815 259.134 155.374 258.693 155.374 258.149V190.608C155.374 190.064 155.815 189.623 156.359 189.623H223.596C224.14 189.623 224.581 190.064 224.581 190.608V258.149C224.581 258.693 224.14 259.134 223.596 259.134ZM157.344 257.165H222.611V191.592H157.344V257.165Z" fill="#333333"/>
<path d="M156.359 258.149L200.829 240.785H156.359V258.149Z" fill="#3D9BE9"/>
<path d="M156.359 259.133C156.162 259.133 155.969 259.074 155.804 258.96C155.536 258.775 155.374 258.472 155.374 258.149V240.781C155.374 240.238 155.815 239.797 156.359 239.797H200.829C201.302 239.797 201.708 240.136 201.799 240.6C201.885 241.065 201.629 241.526 201.188 241.699L156.718 259.067C156.603 259.11 156.481 259.133 156.359 259.133ZM157.344 241.766V256.708L195.6 241.766H157.344Z" fill="#333333"/>
<path d="M200.828 156.423H0.984375V240.632H200.828V156.423Z" fill="white"/>
<path d="M0.984375 234.108H195.54V156.423H200.828V240.636H0.984375V234.108Z" fill="#3D9BE9"/>
<path d="M200.829 241.62H0.985073C0.441312 241.62 0 241.179 0 240.636V156.427C0 155.884 0.441312 155.443 0.985073 155.443H200.829C201.372 155.443 201.814 155.884 201.814 156.427V240.636C201.814 241.179 201.372 241.62 200.829 241.62ZM1.97015 239.651H199.844V157.412H1.97015V239.651Z" fill="#333333"/>
<path d="M60.7669 169.716V225.469H44.986V181.902H34.623V169.716H60.7669Z" fill="#3D9BE9"/>
<path d="M61.7526 226.453H44.0016V182.886H33.6387V168.732H61.7526V226.453ZM45.9718 224.485H59.7825V170.7H35.6088V180.918H45.9718V224.485Z" fill="#333333"/>
<path d="M37.8422 176.661H35.8721V171.051H58.3632V173.019H37.8422V176.661Z" fill="white"/>
<path d="M48.5287 180.457H46.5586V222.359H48.5287V180.457Z" fill="white"/>
<path d="M61.7526 226.453H44.0016V182.886H33.6387V168.732H61.7526V226.453ZM45.9718 224.485H59.7825V170.7H35.6088V180.918H45.9718V224.485Z" fill="#333333"/>
<path d="M107.353 194.805C111.1 197.99 112.972 202.239 112.972 207.55C112.972 211.003 112.081 214.173 110.3 217.067C108.519 219.961 105.808 222.272 102.171 223.996C98.5306 225.721 94.0269 226.583 88.6602 226.583C84.7278 226.583 80.8348 226.107 76.9851 225.15C73.1315 224.193 69.8256 222.839 67.0635 221.087L72.7217 209.22C74.9519 210.708 77.4107 211.85 80.094 212.645C82.7774 213.44 85.4725 213.838 88.1834 213.838C90.8944 213.838 93.0576 213.322 94.681 212.287C96.3004 211.251 97.1121 209.806 97.1121 207.948C97.1121 206.089 96.3162 204.684 94.7204 203.727C93.1246 202.77 90.3072 202.294 86.2724 202.294H71.1299L73.9196 169.72H109.469V181.906H86.9935L86.2763 190.029H90.0236C97.8332 190.029 103.614 191.623 107.361 194.809L107.353 194.805Z" fill="#3D9BE9"/>
<path d="M88.6594 227.568C84.664 227.568 80.6567 227.075 76.744 226.107C72.8037 225.13 69.3678 223.721 66.5308 221.921L65.7939 221.453L72.3191 207.771L73.2647 208.401C75.4043 209.826 77.7961 210.936 80.373 211.7C82.9539 212.464 85.5781 212.854 88.1827 212.854C90.7872 212.854 92.6943 212.385 94.1483 211.456C95.4801 210.606 96.1263 209.456 96.1263 207.944C96.1263 206.432 95.5195 205.349 94.2153 204.566C92.7849 203.707 90.1134 203.274 86.2716 203.274H70.0534L73.0126 168.732H110.449V182.886H87.8911L87.3473 189.041H90.0189C98.0334 189.041 104.082 190.726 107.994 194.053C111.954 197.419 113.96 201.959 113.96 207.546C113.96 211.165 113.014 214.543 111.143 217.579C109.267 220.626 106.395 223.083 102.596 224.882C98.8372 226.662 94.1522 227.564 88.6634 227.564L88.6594 227.568ZM68.3315 220.709C70.8454 222.181 73.8282 223.351 77.2208 224.193C80.9759 225.127 84.8255 225.599 88.6594 225.599C93.8527 225.599 98.2541 224.76 101.749 223.107C105.197 221.473 107.79 219.268 109.46 216.551C111.135 213.826 111.986 210.798 111.986 207.55C111.986 202.498 110.26 198.573 106.714 195.557C103.168 192.541 97.5487 191.013 90.0149 191.013H85.192L86.0825 180.922H108.475V170.704H74.8172L72.1969 201.309H86.2677C90.5271 201.309 93.4587 201.825 95.224 202.884C97.1271 204.026 98.0925 205.731 98.0925 207.948C98.0925 210.165 97.1232 211.893 95.2082 213.118C93.4351 214.252 91.0709 214.826 88.1827 214.826C85.2944 214.826 82.5717 214.409 79.8135 213.59C77.4257 212.881 75.1837 211.893 73.1308 210.649L68.3315 220.713V220.709Z" fill="#333333"/>
<path d="M74.723 199.179L72.7607 199.022L75.0106 171.051H106.407V173.019H76.8271L74.723 199.179Z" fill="white"/>
<path d="M71.0945 220.732L69.3096 219.902L73.6439 210.621L74.6171 211.377C74.6605 211.413 79.4204 214.98 88.7116 214.98C95.3746 214.98 98.6135 212.275 98.6135 206.715H100.584C100.584 213.409 96.4779 216.949 88.7116 216.949C80.9452 216.949 76.3785 214.744 74.4241 213.598L71.0906 220.732H71.0945Z" fill="white"/>
<path d="M88.6594 227.568C84.664 227.568 80.6567 227.075 76.744 226.107C72.8037 225.13 69.3678 223.721 66.5308 221.921L65.7939 221.453L72.3191 207.771L73.2647 208.401C75.4043 209.826 77.7961 210.936 80.373 211.7C82.9539 212.464 85.5781 212.854 88.1827 212.854C90.7872 212.854 92.6943 212.385 94.1483 211.456C95.4801 210.606 96.1263 209.456 96.1263 207.944C96.1263 206.432 95.5195 205.349 94.2153 204.566C92.7849 203.707 90.1134 203.274 86.2716 203.274H70.0534L73.0126 168.732H110.449V182.886H87.8911L87.3473 189.041H90.0189C98.0334 189.041 104.082 190.726 107.994 194.053C111.954 197.419 113.96 201.959 113.96 207.546C113.96 211.165 113.014 214.543 111.143 217.579C109.267 220.626 106.395 223.083 102.596 224.882C98.8372 226.662 94.1522 227.564 88.6634 227.564L88.6594 227.568ZM68.3315 220.709C70.8454 222.181 73.8282 223.351 77.2208 224.193C80.9759 225.127 84.8255 225.599 88.6594 225.599C93.8527 225.599 98.2541 224.76 101.749 223.107C105.197 221.473 107.79 219.268 109.46 216.551C111.135 213.826 111.986 210.798 111.986 207.55C111.986 202.498 110.26 198.573 106.714 195.557C103.168 192.541 97.5487 191.013 90.0149 191.013H85.192L86.0825 180.922H108.475V170.704H74.8172L72.1969 201.309H86.2677C90.5271 201.309 93.4587 201.825 95.224 202.884C97.1271 204.026 98.0925 205.731 98.0925 207.948C98.0925 210.165 97.1232 211.893 95.2082 213.118C93.4351 214.252 91.0709 214.826 88.1827 214.826C85.2944 214.826 82.5717 214.409 79.8135 213.59C77.4257 212.881 75.1837 211.893 73.1308 210.649L68.3315 220.713V220.709Z" fill="#333333"/>
<path d="M118.629 205.664C116.856 203.825 115.974 201.309 115.974 198.124C115.974 196.037 116.379 194.214 117.195 192.655C118.011 191.096 119.134 189.903 120.568 189.072C122.002 188.241 123.641 187.824 125.482 187.824C128.315 187.824 130.616 188.753 132.389 190.611C134.158 192.47 135.045 194.974 135.045 198.124C135.045 201.274 134.158 203.825 132.389 205.664C130.616 207.507 128.315 208.424 125.482 208.424C122.648 208.424 120.399 207.503 118.625 205.664H118.629ZM147.484 188.3H155.136L129.737 225.469H122.085L147.484 188.3ZM127.771 202.105C128.338 201.254 128.622 199.927 128.622 198.124C128.622 196.321 128.338 194.99 127.771 194.143C127.203 193.293 126.443 192.868 125.486 192.868C124.528 192.868 123.811 193.301 123.228 194.167C122.645 195.033 122.353 196.352 122.353 198.124C122.353 199.896 122.645 201.211 123.228 202.081C123.811 202.947 124.563 203.38 125.486 203.38C126.408 203.38 127.203 202.955 127.771 202.105ZM144.856 223.185C143.103 221.347 142.224 218.831 142.224 215.645C142.224 212.46 143.11 209.991 144.88 208.133C146.649 206.274 148.934 205.345 151.736 205.345C154.537 205.345 156.87 206.274 158.643 208.133C160.412 209.991 161.299 212.495 161.299 215.645C161.299 218.795 160.412 221.347 158.643 223.185C156.87 225.028 154.569 225.945 151.736 225.945C148.903 225.945 146.609 225.024 144.856 223.185ZM154.021 219.626C154.588 218.775 154.872 217.449 154.872 215.645C154.872 213.842 154.588 212.511 154.021 211.665C153.454 210.814 152.693 210.389 151.736 210.389C150.778 210.389 150.018 210.814 149.45 211.665C148.883 212.515 148.599 213.842 148.599 215.645C148.599 217.449 148.883 218.779 149.45 219.626C150.018 220.476 150.778 220.902 151.736 220.902C152.693 220.902 153.454 220.476 154.021 219.626Z" fill="#3D9BE9"/>
<path d="M151.736 226.93C148.635 226.93 146.082 225.898 144.143 223.863C142.217 221.843 141.239 219.075 141.239 215.645C141.239 212.216 142.225 209.491 144.167 207.452C146.121 205.4 148.671 204.357 151.736 204.357C154.802 204.357 157.403 205.396 159.357 207.452C161.299 209.491 162.285 212.247 162.285 215.645C162.285 219.043 161.299 221.847 159.353 223.867C157.399 225.898 154.833 226.93 151.736 226.93ZM151.736 206.33C149.195 206.33 147.185 207.141 145.597 208.81C143.994 210.495 143.214 212.728 143.214 215.645C143.214 218.563 144.006 220.862 145.574 222.508C147.146 224.162 149.163 224.965 151.74 224.965C154.317 224.965 156.347 224.162 157.938 222.504C159.518 220.862 160.318 218.555 160.318 215.645C160.318 212.736 159.538 210.495 157.934 208.81C156.343 207.141 154.317 206.33 151.74 206.33H151.736ZM130.258 226.453H120.222L146.969 187.316H157.005L130.258 226.453ZM123.953 224.485H129.218L153.273 189.285H148.009L123.953 224.485ZM151.736 221.886C150.452 221.886 149.38 221.295 148.631 220.173C147.95 219.15 147.615 217.669 147.615 215.645C147.615 213.621 147.946 212.141 148.631 211.117C149.38 209.999 150.452 209.405 151.736 209.405C153.021 209.405 154.093 209.995 154.841 211.117C155.523 212.141 155.858 213.625 155.858 215.645C155.858 217.665 155.527 219.15 154.841 220.173C154.093 221.295 153.021 221.886 151.736 221.886ZM151.736 211.373C151.11 211.373 150.657 211.629 150.271 212.208C149.959 212.677 149.585 213.653 149.585 215.645C149.585 217.638 149.955 218.614 150.271 219.083C150.657 219.661 151.106 219.917 151.736 219.917C152.367 219.917 152.816 219.661 153.202 219.083C153.513 218.614 153.888 217.638 153.888 215.645C153.888 213.653 153.513 212.677 153.202 212.208C152.816 211.629 152.363 211.373 151.736 211.373ZM125.486 209.409C122.421 209.409 119.875 208.377 117.921 206.345C115.974 204.325 114.989 201.557 114.989 198.124C114.989 195.884 115.438 193.891 116.325 192.198C117.223 190.482 118.484 189.143 120.076 188.218C121.656 187.3 123.477 186.836 125.486 186.836C128.587 186.836 131.152 187.875 133.107 189.93C135.049 191.97 136.034 194.726 136.034 198.124C136.034 201.522 135.049 204.325 133.103 206.345C131.148 208.377 128.583 209.409 125.486 209.409ZM125.486 188.808C123.831 188.808 122.342 189.182 121.065 189.923C119.785 190.667 118.803 191.71 118.071 193.112C117.334 194.517 116.959 196.207 116.959 198.124C116.959 201.073 117.74 203.317 119.339 204.983C120.931 206.637 122.941 207.444 125.482 207.444C128.024 207.444 130.088 206.641 131.68 204.983C133.26 203.341 134.06 201.034 134.06 198.124C134.06 195.214 133.28 192.974 131.676 191.289C130.085 189.619 128.059 188.808 125.482 188.808H125.486ZM125.486 204.365C124.237 204.365 123.177 203.766 122.409 202.628C121.707 201.585 121.365 200.112 121.365 198.124C121.365 196.136 121.707 194.663 122.409 193.62C123.173 192.486 124.237 191.883 125.482 191.883C126.727 191.883 127.839 192.474 128.587 193.596C129.273 194.62 129.604 196.104 129.604 198.124C129.604 200.144 129.273 201.628 128.587 202.652C127.839 203.774 126.767 204.365 125.482 204.365H125.486ZM125.486 193.852C125.088 193.852 124.564 193.95 124.044 194.718C123.575 195.415 123.335 196.561 123.335 198.124C123.335 199.687 123.571 200.833 124.044 201.53C124.56 202.298 125.084 202.396 125.486 202.396C126.113 202.396 126.566 202.14 126.952 201.561C127.263 201.093 127.638 200.116 127.638 198.124C127.638 196.132 127.263 195.155 126.952 194.687C126.566 194.108 126.113 193.852 125.486 193.852Z" fill="#333333"/>
<path d="M117.988 203.195C116.794 199.274 117.33 195.112 119.387 192.336C120.916 190.273 123.17 189.139 125.735 189.139C131.295 189.139 132.508 192.809 132.559 192.966L130.68 193.557C130.648 193.47 129.789 191.112 125.735 191.112C123.78 191.112 122.133 191.942 120.971 193.513C119.277 195.797 118.859 199.29 119.872 202.624L117.988 203.199V203.195Z" fill="white"/>
<path d="M144.12 220.874C142.926 216.953 143.462 212.791 145.519 210.019C147.048 207.956 149.302 206.822 151.867 206.822C157.426 206.822 158.64 210.491 158.691 210.649L156.812 211.239C156.78 211.153 155.921 208.794 151.867 208.794C149.912 208.794 148.265 209.625 147.103 211.196C145.409 213.48 144.991 216.972 146.007 220.307L144.124 220.882L144.12 220.874Z" fill="white"/>
<path d="M148.177 189.549L126.01 222.191L127.64 223.297L149.807 190.654L148.177 189.549Z" fill="white"/>
<path d="M358.961 310.248H274.576V395.016H358.961V310.248Z" fill="white"/>
<path d="M291.724 388.318H352.803V310.248H358.961V395.016H274.576L291.724 388.318Z" fill="#FFC439"/>
<path d="M358.962 396H274.577C274.033 396 273.592 395.559 273.592 395.016V310.248C273.592 309.705 274.033 309.264 274.577 309.264H358.962C359.506 309.264 359.947 309.705 359.947 310.248V395.016C359.947 395.559 359.506 396 358.962 396ZM275.562 394.031H357.977V311.233H275.562V394.031Z" fill="#333333"/>
<path d="M274.576 395.016L330.386 373.218H274.576V395.016Z" fill="#FFC439"/>
<path d="M274.577 396C274.38 396 274.187 395.941 274.021 395.827C273.753 395.642 273.592 395.339 273.592 395.016V373.222C273.592 372.679 274.033 372.238 274.577 372.238H330.383C330.856 372.238 331.262 372.577 331.353 373.041C331.443 373.506 331.183 373.967 330.742 374.14L274.935 395.933C274.821 395.98 274.699 396 274.577 396ZM275.562 374.207V393.575L325.158 374.207H275.562Z" fill="#333333"/>
<path d="M330.387 267.351H79.5879V373.033H330.387V267.351Z" fill="white"/>
<path d="M79.5879 364.84H323.752V267.351H330.387V373.033H79.5879V364.84Z" fill="#FFC439"/>
<path d="M330.388 374.018H79.5886C79.0448 374.018 78.6035 373.577 78.6035 373.033V267.351C78.6035 266.807 79.0448 266.366 79.5886 266.366H330.388C330.932 266.366 331.373 266.807 331.373 267.351V373.033C331.373 373.577 330.932 374.018 330.388 374.018ZM80.5737 372.049H329.403V268.335H80.5737V372.049Z" fill="#333333"/>
<path d="M247.773 328.372C245.574 326.088 244.475 322.966 244.475 319.013C244.475 316.422 244.979 314.158 245.992 312.225C247.004 310.292 248.399 308.807 250.18 307.776C251.961 306.744 253.994 306.228 256.284 306.228C259.802 306.228 262.659 307.382 264.858 309.689C267.056 311.996 268.156 315.107 268.156 319.017C268.156 322.927 267.056 326.092 264.858 328.376C262.659 330.66 259.798 331.805 256.284 331.805C252.769 331.805 249.971 330.664 247.773 328.376V328.372ZM283.594 306.819H293.094L261.56 352.961H252.06L283.59 306.819H283.594ZM259.121 323.958C259.822 322.903 260.177 321.257 260.177 319.013C260.177 316.769 259.826 315.123 259.121 314.068C258.415 313.012 257.47 312.485 256.284 312.485C255.098 312.485 254.207 313.024 253.482 314.099C252.757 315.178 252.395 316.812 252.395 319.009C252.395 321.206 252.757 322.844 253.482 323.919C254.207 324.998 255.141 325.533 256.284 325.533C257.426 325.533 258.415 325.006 259.121 323.95V323.958ZM280.327 350.126C278.148 347.842 277.061 344.72 277.061 340.767C277.061 336.814 278.16 333.746 280.359 331.439C282.558 329.132 285.395 327.978 288.87 327.978C292.345 327.978 295.245 329.132 297.444 331.439C299.643 333.746 300.742 336.857 300.742 340.767C300.742 344.677 299.643 347.842 297.444 350.126C295.245 352.41 292.385 353.555 288.87 353.555C285.355 353.555 282.502 352.414 280.327 350.126ZM291.707 345.708C292.408 344.653 292.763 343.007 292.763 340.763C292.763 338.519 292.412 336.873 291.707 335.818C291.002 334.762 290.056 334.235 288.87 334.235C287.684 334.235 286.738 334.762 286.033 335.818C285.328 336.873 284.977 338.519 284.977 340.763C284.977 343.007 285.328 344.653 286.033 345.708C286.734 346.763 287.684 347.291 288.87 347.291C290.056 347.291 291.002 346.763 291.707 345.708Z" fill="#FFC439"/>
<path d="M288.871 354.536C285.088 354.536 281.975 353.28 279.615 350.803C277.266 348.338 276.076 344.964 276.076 340.763C276.076 336.562 277.278 333.242 279.646 330.758C282.026 328.258 285.131 326.994 288.871 326.994C292.61 326.994 295.778 328.262 298.158 330.758C300.526 333.242 301.728 336.609 301.728 340.763C301.728 344.917 300.526 348.342 298.154 350.807C295.774 353.284 292.649 354.536 288.867 354.536H288.871ZM288.871 328.959C285.647 328.959 283.098 329.99 281.073 332.112C279.063 334.219 278.047 337.129 278.047 340.759C278.047 344.389 279.055 347.354 281.041 349.441C283.043 351.539 285.604 352.563 288.871 352.563C292.137 352.563 294.714 351.539 296.735 349.437C298.741 347.35 299.758 344.432 299.758 340.759C299.758 337.085 298.741 334.219 296.731 332.112C294.706 329.99 292.137 328.959 288.871 328.959ZM262.081 353.941H250.197L283.074 305.831H294.958L262.081 353.941ZM253.928 351.973H261.04L291.227 307.799H284.115L253.928 351.973ZM288.871 348.271C287.361 348.271 286.097 347.575 285.214 346.252C284.394 345.023 283.992 343.224 283.992 340.763C283.992 338.302 284.39 336.503 285.214 335.274C286.093 333.951 287.357 333.254 288.871 333.254C290.384 333.254 291.645 333.951 292.527 335.274C293.351 336.507 293.749 338.302 293.749 340.763C293.749 343.224 293.351 345.019 292.527 346.252C291.645 347.575 290.38 348.271 288.871 348.271ZM288.871 335.219C288.016 335.219 287.373 335.581 286.853 336.361C286.262 337.247 285.963 338.727 285.963 340.759C285.963 342.791 286.262 344.271 286.853 345.157C287.373 345.937 288.016 346.299 288.871 346.299C289.726 346.299 290.368 345.937 290.888 345.157C291.479 344.271 291.778 342.791 291.778 340.759C291.778 338.727 291.479 337.247 290.888 336.361C290.368 335.581 289.726 335.219 288.871 335.219ZM256.284 332.782C252.549 332.782 249.444 331.526 247.064 329.053C244.692 326.592 243.49 323.21 243.49 319.009C243.49 316.269 244.038 313.827 245.118 311.764C246.213 309.673 247.75 308.043 249.684 306.921C251.611 305.807 253.83 305.24 256.28 305.24C260.063 305.24 263.188 306.508 265.568 309.004C267.936 311.489 269.138 314.855 269.138 319.009C269.138 323.163 267.936 326.588 265.564 329.053C263.18 331.53 260.059 332.782 256.276 332.782H256.284ZM256.284 307.205C254.184 307.205 252.297 307.681 250.677 308.622C249.07 309.555 247.785 310.918 246.867 312.678C245.933 314.461 245.46 316.591 245.46 319.013C245.46 322.686 246.477 325.608 248.483 327.691C250.504 329.793 253.057 330.817 256.28 330.817C259.504 330.817 262.12 329.793 264.145 327.691C266.151 325.608 267.167 322.686 267.167 319.013C267.167 315.339 266.151 312.473 264.141 310.362C262.116 308.24 259.547 307.209 256.28 307.209L256.284 307.205ZM256.284 326.518C254.819 326.518 253.566 325.809 252.663 324.466C251.816 323.214 251.406 321.426 251.406 319.005C251.406 316.584 251.816 314.8 252.663 313.544C253.566 312.201 254.819 311.493 256.284 311.493C257.75 311.493 259.058 312.189 259.941 313.512C260.764 314.745 261.162 316.54 261.162 319.001C261.162 321.462 260.764 323.257 259.941 324.49C259.058 325.813 257.793 326.51 256.284 326.51V326.518ZM256.284 313.465C255.473 313.465 254.842 313.839 254.298 314.646C253.688 315.552 253.376 317.021 253.376 319.009C253.376 320.997 253.688 322.466 254.298 323.372C254.842 324.179 255.473 324.553 256.284 324.553C257.139 324.553 257.782 324.191 258.302 323.411C258.893 322.525 259.192 321.045 259.192 319.013C259.192 316.981 258.893 315.501 258.302 314.615C257.782 313.835 257.139 313.473 256.284 313.473V313.465Z" fill="#333333"/>
<path d="M247.107 325.143C245.646 320.344 246.296 315.261 248.81 311.874C250.662 309.374 253.392 308 256.501 308C263.231 308 264.689 312.394 264.744 312.583L262.865 313.174C262.825 313.052 261.718 309.969 256.501 309.969C253.999 309.969 251.887 311.032 250.394 313.048C248.246 315.942 247.71 320.355 248.995 324.568L247.111 325.143H247.107Z" fill="white"/>
<path d="M279.547 347.094C278.085 342.294 278.735 337.211 281.249 333.825C283.101 331.325 285.832 329.951 288.94 329.951C295.67 329.951 297.128 334.345 297.188 334.534L295.308 335.125C295.269 335.002 294.161 331.919 288.944 331.919C286.442 331.919 284.33 332.983 282.837 334.999C280.69 337.892 280.154 342.306 281.438 346.523L279.555 347.098L279.547 347.094Z" fill="white"/>
<path d="M284.555 308.403L257.029 348.922L258.659 350.027L286.185 309.509L284.555 308.403Z" fill="white"/>
<path d="M235.205 300.657C232.86 295.771 229.7 291.955 225.713 289.199C225.327 288.939 224.932 288.683 224.534 288.439C219.991 285.648 214.826 284.254 209.045 284.254C203.265 284.254 198.001 285.648 193.457 288.439C188.91 291.231 185.352 295.302 182.791 300.657C180.222 306.012 178.941 312.355 178.941 319.69C178.941 322.21 179.095 324.612 179.398 326.891C179.974 331.262 181.105 335.207 182.791 338.723C185.352 344.078 188.91 348.149 193.457 350.941C198.001 353.732 203.198 355.126 209.045 355.126C214.893 355.126 219.991 353.732 224.534 350.941C229.082 348.149 232.636 344.078 235.205 338.723C237.77 333.368 239.054 327.025 239.054 319.69C239.054 312.355 237.77 306.012 235.205 300.657ZM216.792 334.632C215.031 337.526 212.71 339.089 209.825 339.326C209.573 339.345 209.309 339.357 209.045 339.357C205.731 339.357 203.119 337.782 201.2 334.632C199.285 331.486 198.328 326.506 198.328 319.69C198.328 312.874 199.285 307.894 201.2 304.744C203.119 301.598 205.731 300.023 209.045 300.023C212.359 300.023 214.873 301.598 216.792 304.744C218.183 307.031 219.069 310.284 219.448 314.505C219.593 316.095 219.664 317.824 219.664 319.69C219.664 326.506 218.707 331.486 216.792 334.632Z" fill="#FFC439"/>
<path d="M209.046 356.111C203.041 356.111 197.619 354.654 192.942 351.78C188.249 348.901 184.537 344.649 181.905 339.149C180.179 335.554 179.009 331.475 178.426 327.025C178.119 324.71 177.961 322.245 177.961 319.694C177.961 312.241 179.289 305.693 181.905 300.236C184.533 294.735 188.249 290.487 192.942 287.601C197.623 284.726 203.041 283.27 209.046 283.27C215.051 283.27 220.37 284.726 225.051 287.601C225.485 287.868 225.883 288.124 226.269 288.392C230.386 291.235 233.688 295.219 236.092 300.236C238.708 305.701 240.036 312.245 240.036 319.694C240.036 327.144 238.708 333.687 236.092 339.152C233.452 344.657 229.736 348.909 225.051 351.784C220.37 354.658 214.988 356.115 209.046 356.115V356.111ZM209.046 285.238C203.411 285.238 198.34 286.597 193.974 289.278C189.608 291.959 186.145 295.932 183.682 301.086C181.192 306.276 179.931 312.536 179.931 319.694C179.931 322.159 180.081 324.537 180.38 326.766C180.94 331.01 182.051 334.892 183.686 338.298C186.153 343.452 189.612 347.425 193.978 350.102C198.344 352.784 203.415 354.142 209.05 354.142C214.684 354.142 219.661 352.784 224.023 350.102C228.381 347.429 231.844 343.456 234.319 338.298C236.809 333.101 238.07 326.844 238.07 319.69C238.07 312.536 236.809 306.279 234.319 301.082C232.065 296.381 228.98 292.652 225.154 290.01C224.795 289.766 224.425 289.526 224.019 289.274C219.653 286.597 214.617 285.238 209.046 285.238Z" fill="#333333"/>
<path d="M209.047 340.338C205.383 340.338 202.459 338.589 200.363 335.14C198.334 331.809 197.349 326.754 197.349 319.686C197.349 312.619 198.334 307.567 200.363 304.228C202.459 300.783 205.383 299.035 209.047 299.035C212.712 299.035 215.537 300.783 217.633 304.228C219.095 306.63 220.037 310.055 220.431 314.41C220.577 316.009 220.652 317.784 220.652 319.686C220.652 326.75 219.663 331.801 217.633 335.14C215.71 338.302 213.11 340.042 209.906 340.302C209.627 340.326 209.335 340.338 209.043 340.338H209.047ZM202.045 305.252C200.233 308.228 199.315 313.087 199.315 319.686C199.315 326.285 200.233 331.144 202.045 334.117C203.787 336.979 206.076 338.369 209.047 338.369C209.288 338.369 209.524 338.361 209.749 338.341C212.322 338.129 214.351 336.751 215.951 334.117C217.763 331.14 218.681 326.285 218.681 319.686C218.681 317.844 218.61 316.131 218.469 314.587C218.102 310.536 217.255 307.394 215.947 305.252C214.205 302.393 211.947 301.003 209.043 301.003C206.139 301.003 203.783 302.393 202.042 305.252H202.045Z" fill="#333333"/>
<path d="M182.532 332.116C178.746 310.437 185.495 293.172 199.732 288.132C216.336 282.258 229.008 294.31 229.134 294.432L227.759 295.842C227.641 295.727 215.82 284.526 200.39 289.987C187.107 294.688 180.858 311.091 184.471 331.774L182.528 332.113L182.532 332.116Z" fill="white"/>
<path d="M209.22 343.673C206.23 343.673 203.223 342.68 200.682 340.787L201.86 339.208C205.071 341.606 209.138 342.33 212.731 341.145C216.541 339.889 219.41 336.644 220.805 332.01C223.996 321.427 220.529 308.41 220.493 308.28L222.397 307.764C222.546 308.319 226.045 321.462 222.692 332.577C221.104 337.845 217.786 341.55 213.346 343.015C212.006 343.456 210.615 343.673 209.22 343.673Z" fill="white"/>
<path d="M167.656 319.151C164.634 315.678 160.3 313.359 154.65 312.189L168.779 297.003V284.931H119.479V299.826H146.371L144.129 302.244L134.192 312.969V325.135H142.277C149.224 325.135 152.703 327.344 152.703 331.758C152.703 332.553 152.585 333.286 152.341 333.951C151.903 335.191 151.048 336.215 149.779 337.014C147.829 338.247 145.201 338.861 141.887 338.861C138.573 338.861 135.346 338.377 132.001 337.404C128.655 336.432 125.653 335.038 122.989 333.219L117.197 345.204L115.976 347.728C119.415 349.87 123.49 351.524 128.202 352.693C132.911 353.862 137.667 354.445 142.474 354.445C149.035 354.445 154.539 353.39 158.988 351.279C163.436 349.173 166.75 346.397 168.925 342.956C171.096 339.519 172.188 335.786 172.188 331.762C172.188 326.828 170.679 322.627 167.656 319.155V319.151Z" fill="#FFC439"/>
<path d="M142.47 355.426C137.604 355.426 132.726 354.827 127.962 353.642C123.171 352.453 118.963 350.744 115.452 348.559L114.699 348.09L122.596 331.758L123.541 332.404C126.102 334.156 129.042 335.518 132.273 336.459C135.512 337.4 138.747 337.881 141.887 337.881C145.028 337.881 147.475 337.31 149.256 336.188C150.343 335.503 151.048 334.664 151.415 333.628C151.62 333.061 151.718 332.455 151.718 331.762C151.718 330.368 151.718 326.124 142.277 326.124H133.207V312.587L144.117 300.814H118.494V283.951H169.765V297.393L156.529 311.619C161.569 312.926 165.557 315.237 168.401 318.505C171.569 322.147 173.173 326.608 173.173 331.758C173.173 335.947 172.023 339.893 169.757 343.48C167.491 347.067 164.008 349.988 159.406 352.165C154.847 354.327 149.149 355.426 142.47 355.426ZM117.249 347.346C120.428 349.205 124.187 350.681 128.435 351.732C133.041 352.878 137.762 353.457 142.47 353.457C148.854 353.457 154.268 352.425 158.563 350.39C162.822 348.374 166.025 345.692 168.09 342.428C170.155 339.16 171.203 335.573 171.203 331.762C171.203 327.1 169.761 323.072 166.912 319.8C164.051 316.513 159.855 314.276 154.449 313.158L152.735 312.804L167.791 296.621V285.919H120.46V298.846H148.621L135.173 313.359V324.155H142.273C151.702 324.155 153.684 328.293 153.684 331.762C153.684 332.676 153.543 333.526 153.263 334.294C152.751 335.735 151.754 336.936 150.304 337.853C148.204 339.18 145.37 339.853 141.883 339.853C138.396 339.853 135.138 339.349 131.721 338.357C128.679 337.475 125.882 336.231 123.384 334.664L117.249 347.354V347.346Z" fill="#333333"/>
<path d="M123.324 295.479H121.354V286.726H164.917V288.695H123.324V295.479Z" fill="white"/>
<path d="M138.195 321.651H136.225V314.103L150.343 298.964L151.785 300.306L138.195 314.879V321.651Z" fill="white"/>
<path d="M120.754 346.46L118.993 345.582L124.037 335.475L124.99 336.247C125.057 336.302 131.984 341.727 144.57 340.759C148.612 340.448 151.461 339.318 153.029 337.396C154.948 335.046 154.814 331.691 154.479 329.029L156.434 328.785C156.816 331.837 156.946 335.711 154.554 338.641C152.604 341.027 149.385 342.361 144.719 342.72C133.962 343.55 127.165 340.026 124.738 338.471L120.754 346.456V346.46Z" fill="white"/>
</svg>
