<svg width="292" height="294" viewBox="0 0 292 294" fill="none" xmlns="http://www.w3.org/2000/svg">
<path d="M282.817 109.77L132.116 6.71662C125.936 2.4928 117.415 3.99266 113.134 10.0661L6.44777 161.525C1.0312 169.212 3.01337 179.738 10.8732 185.038L160.335 285.885C170.714 292.894 184.988 289.934 191.575 279.415L286.616 127.573C290.36 121.587 288.694 113.792 282.817 109.77Z" stroke="#3D9BE9" stroke-width="6.6945" stroke-miterlimit="10"/>
<path d="M271.12 95.7598L236.639 208.108L228.882 233.404L218.076 268.607C216.665 273.207 211.648 275.77 206.975 274.277L203.912 273.301L197.188 271.149L81.5196 234.218L58.5181 226.873L36.26 219.764C29.3843 217.564 25.0827 211.215 25.3305 204.476C25.3787 203.09 25.6264 201.698 26.0738 200.313L27.0098 197.441L56.3777 107.51L66.7428 75.7707L79.6614 36.2094C81.1273 31.7098 86.0552 29.228 90.6597 30.6606L203.609 65.8837L260.301 83.5592L265.401 85.1532C269.95 86.5723 272.497 91.2871 271.12 95.7598Z" fill="white" stroke="#333333" stroke-width="3.34725" stroke-miterlimit="10"/>
<path d="M267.815 85.9872C248.544 107.51 250.608 107.51 239.596 107.51H55.832L66.1559 75.8984C77.2781 72.7911 101.367 70.5178 126.034 70.5178C156.847 70.5178 186.194 67.9687 210.497 65.8837L267.815 85.9872Z" fill="#333333"/>
<path d="M27.0114 197.441L81.5212 234.218L58.5197 226.873L25.332 204.476C25.3802 203.091 25.628 201.699 26.0753 200.313L27.0114 197.441Z" fill="#333333"/>
<path d="M236.642 208.108L228.886 233.404L203.916 273.302L197.191 271.149L236.642 208.108Z" fill="#333333"/>
<path d="M28.1485 130.715L6.44777 161.526C1.0312 169.213 3.01337 179.739 10.8732 185.039L160.335 285.886C170.714 292.894 184.988 289.935 191.575 279.416L253.814 179.988" stroke="#3D9BE9" stroke-width="6.6945" stroke-miterlimit="10"/>
<path d="M53.0729 118.944C53.0729 118.944 46.9612 113.16 40.8495 108.041C34.7378 102.923 37.36 91.8387 37.36 61.9895C37.36 53.4611 38.2341 54.3153 92.3379 54.3153H271.339C294.788 54.3153 287.025 58.1961 266.033 79.2815C245.048 100.367 244.208 102.795 235.467 102.795C226.727 102.795 79.4469 102.795 57.8907 102.795L53.0729 118.937V118.944Z" fill="#3D9BE9"/>
<path d="M49.6314 107.51C49.6314 107.51 44.8136 102.802 48.2549 102.802H65.0276" stroke="#333333" stroke-width="2.00835" stroke-miterlimit="10"/>
<path d="M52.7288 119.28C52.7288 119.28 46.9612 113.16 40.8495 108.041C34.7378 102.923 37.36 91.8387 37.36 61.9895C37.36 53.4611 38.2341 54.3153 92.3379 54.3153H271.339C294.788 54.3153 287.025 58.1961 266.033 79.2815C245.048 100.367 244.208 102.795 235.467 102.795H57.5466L52.7288 119.273V119.28Z" stroke="#333333" stroke-width="2.6778" stroke-miterlimit="10"/>
<path d="M44.125 63.1191C46.878 60.4288 45.5015 61.1013 114.327 61.1013" stroke="white" stroke-width="2.00835" stroke-miterlimit="10"/>
<path d="M134.305 61.0273H164.746" stroke="white" stroke-width="2.00835" stroke-miterlimit="10"/>
<path d="M183.863 61.0273H199.019" stroke="white" stroke-width="2.00835" stroke-miterlimit="10"/>
<path d="M214.438 61.0273H266.779" stroke="white" stroke-width="2.00835" stroke-miterlimit="10"/>
<path d="M37.1133 99.5394C38.6206 106.837 45.5031 109.527 48.2561 110.872C51.0092 112.218 54.5261 110.872 53.4525 107.51C52.3788 104.147 48.9444 103.474 48.2561 106.164C48.2561 106.164 45.3242 102.795 48.5108 102.801C51.6974 102.808 57.8917 102.801 57.8917 102.801L52.7298 119.28C52.7298 119.28 43.7618 111.316 40.5064 107.731C37.2509 104.147 37.1133 99.5394 37.1133 99.5394Z" fill="#333333"/>
<path d="M66.9336 89.7342V70.9019H75.6882C77.7805 70.9019 79.625 71.2965 81.2218 72.0857C82.8185 72.8569 84.0666 73.942 84.9659 75.341C85.8652 76.74 86.3149 78.399 86.3149 80.3181C86.3149 82.2193 85.8652 83.8783 84.9659 85.2952C84.0666 86.6942 82.8185 87.7882 81.2218 88.5774C79.625 89.3486 77.7805 89.7342 75.6882 89.7342H66.9336ZM71.3935 86.1561H75.468C76.7527 86.1561 77.8631 85.9229 78.7991 85.4566C79.7535 84.9724 80.4876 84.2908 81.0015 83.412C81.5338 82.5331 81.7999 81.5018 81.7999 80.3181C81.7999 79.1164 81.5338 78.0851 81.0015 77.2242C80.4876 76.3454 79.7535 75.6728 78.7991 75.2065C77.8631 74.7222 76.7527 74.4801 75.468 74.4801H71.3935V86.1561Z" fill="#333333"/>
<path d="M89.6783 89.7342V70.9019H94.1382V89.7342H89.6783Z" fill="#333333"/>
<path d="M105.044 90.0571C103.502 90.0571 102.024 89.8598 100.611 89.4652C99.198 89.0527 98.0601 88.5236 97.1975 87.8779L98.7116 84.5957C99.5375 85.1697 100.51 85.6449 101.63 86.0216C102.768 86.3803 103.915 86.5597 105.071 86.5597C105.952 86.5597 106.659 86.4789 107.191 86.3175C107.742 86.1382 108.145 85.896 108.402 85.5911C108.659 85.2862 108.788 84.9365 108.788 84.5419C108.788 84.0397 108.586 83.6451 108.182 83.3582C107.778 83.0533 107.246 82.8111 106.585 82.6318C105.925 82.4345 105.19 82.2551 104.383 82.0937C103.594 81.9144 102.795 81.6991 101.988 81.448C101.199 81.1969 100.474 80.8741 99.8128 80.4795C99.1521 80.0849 98.6107 79.5648 98.1886 78.9191C97.7848 78.2734 97.5829 77.4484 97.5829 76.444C97.5829 75.3679 97.8766 74.3904 98.4639 73.5116C99.0695 72.6148 99.9688 71.9063 101.162 71.3862C102.373 70.8481 103.887 70.5791 105.704 70.5791C106.916 70.5791 108.109 70.7226 109.283 71.0096C110.458 71.2786 111.495 71.6911 112.394 72.2471L111.018 75.5562C110.118 75.054 109.219 74.6863 108.32 74.4532C107.42 74.2021 106.539 74.0765 105.677 74.0765C104.814 74.0765 104.108 74.1752 103.557 74.3725C103.006 74.5698 102.612 74.8298 102.373 75.1527C102.135 75.4576 102.015 75.8163 102.015 76.2288C102.015 76.7131 102.217 77.1076 102.621 77.4125C103.025 77.6995 103.557 77.9327 104.218 78.112C104.878 78.2914 105.603 78.4707 106.393 78.6501C107.2 78.8294 107.998 79.0357 108.788 79.2689C109.595 79.502 110.329 79.8159 110.99 80.2105C111.651 80.6051 112.183 81.1252 112.587 81.7709C113.009 82.4165 113.22 83.2326 113.22 84.2191C113.22 85.2773 112.917 86.2458 112.312 87.1246C111.706 88.0035 110.797 88.7119 109.586 89.25C108.393 89.7881 106.879 90.0571 105.044 90.0571Z" fill="#333333"/>
<path d="M125.49 90.0571C124.004 90.0571 122.618 89.8239 121.333 89.3576C120.067 88.8733 118.965 88.1918 118.029 87.3129C117.093 86.4341 116.359 85.4028 115.827 84.2191C115.313 83.0353 115.056 81.735 115.056 80.3181C115.056 78.9012 115.313 77.6009 115.827 76.4171C116.359 75.2334 117.093 74.2021 118.029 73.3232C118.984 72.4444 120.094 71.7718 121.361 71.3055C122.627 70.8212 124.013 70.5791 125.518 70.5791C127.188 70.5791 128.693 70.8661 130.033 71.44C131.391 71.996 132.529 72.821 133.446 73.9151L130.583 76.4978C129.923 75.7625 129.188 75.2154 128.381 74.8567C127.573 74.4801 126.692 74.2918 125.738 74.2918C124.839 74.2918 124.013 74.4352 123.26 74.7222C122.508 75.0092 121.856 75.4217 121.306 75.9598C120.755 76.4978 120.324 77.1345 120.012 77.8699C119.718 78.6053 119.571 79.4213 119.571 80.3181C119.571 81.2149 119.718 82.0309 120.012 82.7663C120.324 83.5016 120.755 84.1384 121.306 84.6764C121.856 85.2145 122.508 85.627 123.26 85.914C124.013 86.2009 124.839 86.3444 125.738 86.3444C126.692 86.3444 127.573 86.1651 128.381 85.8064C129.188 85.4297 129.923 84.8647 130.583 84.1115L133.446 86.6942C132.529 87.7882 131.391 88.6222 130.033 89.1962C128.693 89.7701 127.179 90.0571 125.49 90.0571Z" fill="#333333"/>
<path d="M145.415 90.0571C143.892 90.0571 142.479 89.815 141.175 89.3307C139.891 88.8464 138.771 88.1649 137.817 87.286C136.881 86.4072 136.147 85.3759 135.614 84.1922C135.1 83.0084 134.844 81.7171 134.844 80.3181C134.844 78.9191 135.1 77.6278 135.614 76.444C136.147 75.2603 136.89 74.229 137.844 73.3501C138.799 72.4713 139.918 71.7897 141.203 71.3055C142.488 70.8212 143.883 70.5791 145.388 70.5791C146.911 70.5791 148.306 70.8212 149.572 71.3055C150.857 71.7897 151.967 72.4713 152.903 73.3501C153.858 74.229 154.601 75.2603 155.133 76.444C155.666 77.6098 155.932 78.9012 155.932 80.3181C155.932 81.7171 155.666 83.0174 155.133 84.2191C154.601 85.4028 153.858 86.4341 152.903 87.3129C151.967 88.1739 150.857 88.8464 149.572 89.3307C148.306 89.815 146.92 90.0571 145.415 90.0571ZM145.388 86.3444C146.25 86.3444 147.039 86.2009 147.755 85.914C148.489 85.627 149.132 85.2145 149.682 84.6764C150.233 84.1384 150.655 83.5016 150.949 82.7663C151.261 82.0309 151.417 81.2149 151.417 80.3181C151.417 79.4213 151.261 78.6053 150.949 77.8699C150.655 77.1345 150.233 76.4978 149.682 75.9598C149.15 75.4217 148.517 75.0092 147.783 74.7222C147.049 74.4352 146.25 74.2918 145.388 74.2918C144.525 74.2918 143.727 74.4352 142.992 74.7222C142.277 75.0092 141.644 75.4217 141.093 75.9598C140.542 76.4978 140.111 77.1345 139.799 77.8699C139.505 78.6053 139.358 79.4213 139.358 80.3181C139.358 81.1969 139.505 82.013 139.799 82.7663C140.111 83.5016 140.533 84.1384 141.065 84.6764C141.616 85.2145 142.258 85.627 142.992 85.914C143.727 86.2009 144.525 86.3444 145.388 86.3444Z" fill="#333333"/>
<path d="M167.845 90.0571C165.111 90.0571 162.973 89.3128 161.431 87.8241C159.889 86.3355 159.118 84.2101 159.118 81.448V70.9019H163.578V81.2866C163.578 83.0802 163.954 84.3715 164.707 85.1607C165.459 85.9498 166.515 86.3444 167.873 86.3444C169.231 86.3444 170.286 85.9498 171.039 85.1607C171.791 84.3715 172.168 83.0802 172.168 81.2866V70.9019H176.572V81.448C176.572 84.2101 175.802 86.3355 174.26 87.8241C172.718 89.3128 170.58 90.0571 167.845 90.0571Z" fill="#333333"/>
<path d="M180.98 89.7342V70.9019H184.669L196.039 84.4612H194.249V70.9019H198.654V89.7342H194.993L183.595 76.175H185.384V89.7342H180.98Z" fill="#333333"/>
<path d="M207.205 89.7342V74.4532H201.039V70.9019H217.832V74.4532H211.665V89.7342H207.205Z" fill="#333333"/>
<path d="M117.461 199.466C113.556 199.466 109.731 198.924 105.984 197.841C102.291 196.707 99.1773 195.16 96.6445 193.2L100.998 185.388C103.003 186.987 105.43 188.276 108.279 189.256C111.182 190.236 114.189 190.725 117.303 190.725C120.943 190.725 123.793 189.978 125.851 188.482C127.961 186.987 129.017 184.976 129.017 182.449C129.017 180.748 128.568 179.252 127.671 177.963C126.827 176.674 125.297 175.694 123.08 175.024C120.917 174.354 117.936 174.018 114.137 174.018H100.76L103.61 144.549H136.14V152.98H107.409L112.791 148.185L110.654 170.228L105.272 165.51H116.432C121.92 165.51 126.326 166.232 129.65 167.676C133.027 169.068 135.48 171.028 137.011 173.554C138.594 176.029 139.385 178.866 139.385 182.063C139.385 185.208 138.594 188.096 137.011 190.725C135.428 193.355 133 195.469 129.729 197.068C126.51 198.666 122.421 199.466 117.461 199.466Z" fill="#333333"/>
<path d="M152.304 198.692L190.137 144.549H197.894L160.06 198.692H152.304ZM156.895 173.709C154.309 173.709 152.014 173.09 150.009 171.853C148.003 170.615 146.447 168.888 145.339 166.67C144.231 164.453 143.677 161.849 143.677 158.858C143.677 155.868 144.231 153.264 145.339 151.046C146.447 148.829 148.003 147.102 150.009 145.864C152.014 144.627 154.309 144.008 156.895 144.008C159.586 144.008 161.907 144.627 163.86 145.864C165.865 147.102 167.421 148.829 168.529 151.046C169.638 153.264 170.192 155.868 170.192 158.858C170.192 161.849 169.638 164.453 168.529 166.67C167.421 168.888 165.865 170.615 163.86 171.853C161.907 173.09 159.586 173.709 156.895 173.709ZM156.974 168.295C159.084 168.295 160.72 167.496 161.881 165.897C163.095 164.247 163.701 161.901 163.701 158.858C163.701 155.816 163.095 153.496 161.881 151.897C160.72 150.247 159.084 149.422 156.974 149.422C154.863 149.422 153.174 150.247 151.908 151.897C150.694 153.547 150.088 155.868 150.088 158.858C150.088 161.849 150.694 164.17 151.908 165.82C153.174 167.47 154.863 168.295 156.974 168.295ZM193.224 199.234C190.639 199.234 188.343 198.615 186.338 197.377C184.333 196.14 182.776 194.412 181.668 192.195C180.56 189.978 180.006 187.374 180.006 184.383C180.006 181.392 180.56 178.788 181.668 176.571C182.776 174.354 184.333 172.626 186.338 171.389C188.343 170.151 190.639 169.532 193.224 169.532C195.915 169.532 198.237 170.151 200.189 171.389C202.194 172.626 203.751 174.354 204.859 176.571C205.967 178.788 206.521 181.392 206.521 184.383C206.521 187.374 205.967 189.978 204.859 192.195C203.751 194.412 202.194 196.14 200.189 197.377C198.237 198.615 195.915 199.234 193.224 199.234ZM193.224 193.819C195.335 193.819 196.997 192.994 198.21 191.344C199.424 189.694 200.031 187.374 200.031 184.383C200.031 181.392 199.424 179.072 198.21 177.422C196.997 175.772 195.335 174.947 193.224 174.947C191.166 174.947 189.504 175.772 188.238 177.422C187.024 179.02 186.417 181.341 186.417 184.383C186.417 187.425 187.024 189.771 188.238 191.421C189.504 193.02 191.166 193.819 193.224 193.819Z" fill="#333333"/>
</svg>
