<svg width="558" height="348" viewBox="0 0 558 348" fill="none" xmlns="http://www.w3.org/2000/svg">
<path d="M551.042 81.9566L437.541 4.34113C432.886 1.15991 426.469 2.28955 423.244 6.86381L342.892 120.937C338.813 126.727 340.306 134.654 346.225 138.646L458.794 214.6C466.611 219.878 477.362 217.649 482.323 209.727L553.904 95.3653C556.724 90.8569 555.469 84.9858 551.042 81.9566Z" stroke="#3D9BE9" stroke-width="4" stroke-miterlimit="10"/>
<path d="M542.234 71.4048L516.264 156.021L510.422 175.073L502.284 201.586C501.221 205.051 497.442 206.981 493.922 205.856L491.616 205.122L486.551 203.501L399.435 175.686L382.111 170.154L365.347 164.8C360.168 163.143 356.928 158.361 357.115 153.285C357.151 152.242 357.338 151.193 357.675 150.15L358.38 147.987L380.499 80.2544L388.305 56.3497L398.035 26.5537C399.139 23.1648 402.851 21.2956 406.318 22.3746L491.388 48.9033L534.085 62.2157L537.927 63.4163C541.353 64.4851 543.271 68.0361 542.234 71.4048Z" fill="white" stroke="black" stroke-width="3.39295" stroke-miterlimit="10"/>
<path d="M539.743 64.0447C525.229 80.2547 526.784 80.2547 518.49 80.2547H380.086L387.861 56.4463C396.238 54.106 414.381 52.3938 432.959 52.3938C456.167 52.3938 478.27 50.4739 496.573 48.9036L539.743 64.0447Z" fill="black"/>
<path d="M358.38 147.987L399.435 175.686L382.111 170.154L357.115 153.286C357.152 152.242 357.338 151.193 357.675 150.15L358.38 147.987Z" fill="black"/>
<path d="M516.266 156.021L510.424 175.073L491.617 205.122L486.553 203.501L516.266 156.021Z" fill="black"/>
<path d="M359.236 97.7311L342.892 120.937C338.813 126.727 340.306 134.654 346.225 138.646L458.794 214.6C466.611 219.878 477.362 217.65 482.323 209.727L529.198 134.842" stroke="#3D9BE9" stroke-width="4" stroke-miterlimit="10"/>
<path d="M378.013 88.8658C378.013 88.8658 373.41 84.5094 368.807 80.6545C364.204 76.7995 366.179 68.4514 366.179 45.9702C366.179 39.5469 366.837 40.1903 407.586 40.1903H542.403C560.064 40.1903 554.217 43.1131 538.406 58.9939C522.601 74.8746 521.969 76.7033 515.386 76.7033C508.802 76.7033 397.877 76.7033 381.642 76.7033L378.013 88.8608V88.8658Z" fill="#3D9BE9"/>
<path d="M375.423 80.2549C375.423 80.2549 371.795 76.7089 374.386 76.7089H387.019" stroke="black" stroke-width="2.03577" stroke-miterlimit="10"/>
<path d="M377.754 89.1191C377.754 89.1191 373.41 84.5094 368.807 80.6545C364.204 76.7995 366.179 68.4514 366.179 45.9702C366.179 39.5469 366.837 40.1903 407.586 40.1903H542.403C560.064 40.1903 554.217 43.1131 538.406 58.9939C522.601 74.8746 521.969 76.7033 515.386 76.7033H381.383L377.754 89.1141V89.1191Z" stroke="black" stroke-width="2.71436" stroke-miterlimit="10"/>
<path d="M371.273 46.8219C373.347 44.7956 372.31 45.3022 424.147 45.3022" stroke="white" stroke-width="2.03577" stroke-miterlimit="10"/>
<path d="M439.193 45.2458H462.121" stroke="white" stroke-width="2.03577" stroke-miterlimit="10"/>
<path d="M476.518 45.2458H487.932" stroke="white" stroke-width="2.03577" stroke-miterlimit="10"/>
<path d="M499.541 45.2458H538.963" stroke="white" stroke-width="2.03577" stroke-miterlimit="10"/>
<path d="M365.992 74.2516C367.127 79.7478 372.311 81.7741 374.385 82.7872C376.458 83.8003 379.107 82.7872 378.298 80.2544C377.49 77.7216 374.903 77.215 374.385 79.2413C374.385 79.2413 372.176 76.7034 374.576 76.7085C376.976 76.7135 381.642 76.7085 381.642 76.7085L377.754 89.1192C377.754 89.1192 371 83.1215 368.548 80.4216C366.096 77.7216 365.992 74.2516 365.992 74.2516Z" fill="black"/>
<path d="M388.445 66.866V52.6822H395.039C396.615 52.6822 398.004 52.9794 399.207 53.5738C400.409 54.1546 401.349 54.9719 402.027 56.0255C402.704 57.0792 403.043 58.3287 403.043 59.7741C403.043 61.206 402.704 62.4555 402.027 63.5227C401.349 64.5763 400.409 65.4003 399.207 65.9947C398.004 66.5756 396.615 66.866 395.039 66.866H388.445ZM391.804 64.1711H394.873C395.841 64.1711 396.677 63.9955 397.382 63.6442C398.101 63.2795 398.654 62.7662 399.041 62.1043C399.442 61.4424 399.642 60.6657 399.642 59.7741C399.642 58.8691 399.442 58.0923 399.041 57.4439C398.654 56.782 398.101 56.2755 397.382 55.9242C396.677 55.5595 395.841 55.3771 394.873 55.3771H391.804V64.1711Z" fill="black"/>
<path d="M405.576 66.866V52.6822H408.935V66.866H405.576Z" fill="black"/>
<path d="M417.148 67.1091C415.987 67.1091 414.874 66.9605 413.81 66.6634C412.746 66.3527 411.889 65.9542 411.239 65.4679L412.379 62.9958C413.001 63.4281 413.734 63.7861 414.577 64.0698C415.434 64.3399 416.298 64.475 417.169 64.475C417.832 64.475 418.365 64.4142 418.766 64.2926C419.18 64.1576 419.484 63.9752 419.678 63.7456C419.871 63.5159 419.968 63.2525 419.968 62.9553C419.968 62.5771 419.816 62.2799 419.512 62.0638C419.208 61.8341 418.807 61.6518 418.309 61.5167C417.812 61.3681 417.259 61.233 416.651 61.1114C416.056 60.9764 415.455 60.8142 414.847 60.6251C414.252 60.436 413.706 60.1929 413.209 59.8957C412.711 59.5985 412.303 59.2068 411.985 58.7205C411.681 58.2342 411.529 57.6128 411.529 56.8563C411.529 56.0458 411.75 55.3096 412.193 54.6477C412.649 53.9723 413.326 53.4387 414.225 53.047C415.137 52.6417 416.277 52.4391 417.646 52.4391C418.558 52.4391 419.457 52.5472 420.341 52.7633C421.226 52.9659 422.007 53.2766 422.684 53.6954L421.648 56.1876C420.97 55.8094 420.293 55.5325 419.616 55.3569C418.938 55.1678 418.275 55.0732 417.625 55.0732C416.975 55.0732 416.443 55.1475 416.029 55.2961C415.614 55.4447 415.317 55.6406 415.137 55.8837C414.957 56.1134 414.867 56.3835 414.867 56.6942C414.867 57.0589 415.019 57.3561 415.324 57.5858C415.628 57.8019 416.029 57.9775 416.526 58.1126C417.024 58.2477 417.57 58.3828 418.164 58.5178C418.772 58.6529 419.374 58.8083 419.968 58.9839C420.576 59.1595 421.129 59.3959 421.627 59.6931C422.125 59.9902 422.525 60.382 422.83 60.8683C423.147 61.3546 423.306 61.9692 423.306 62.7122C423.306 63.5092 423.078 64.2386 422.622 64.9005C422.166 65.5624 421.482 66.096 420.569 66.5013C419.671 66.9065 418.531 67.1091 417.148 67.1091Z" fill="black"/>
<path d="M432.548 67.1091C431.428 67.1091 430.384 66.9335 429.417 66.5823C428.463 66.2176 427.634 65.7043 426.929 65.0424C426.224 64.3804 425.671 63.6037 425.27 62.7122C424.883 61.8206 424.689 60.8413 424.689 59.7741C424.689 58.707 424.883 57.7276 425.27 56.836C425.671 55.9445 426.224 55.1678 426.929 54.5059C427.647 53.844 428.484 53.3374 429.438 52.9862C430.391 52.6214 431.435 52.4391 432.569 52.4391C433.826 52.4391 434.96 52.6552 435.969 53.0875C436.992 53.5062 437.849 54.1276 438.54 54.9516L436.384 56.8968C435.886 56.343 435.333 55.931 434.725 55.6608C434.117 55.3771 433.453 55.2353 432.734 55.2353C432.057 55.2353 431.435 55.3434 430.868 55.5595C430.302 55.7756 429.811 56.0863 429.396 56.4916C428.981 56.8968 428.657 57.3764 428.422 57.9302C428.2 58.4841 428.09 59.0987 428.09 59.7741C428.09 60.4495 428.2 61.0642 428.422 61.618C428.657 62.1718 428.981 62.6514 429.396 63.0566C429.811 63.4619 430.302 63.7726 430.868 63.9887C431.435 64.2048 432.057 64.3129 432.734 64.3129C433.453 64.3129 434.117 64.1778 434.725 63.9077C435.333 63.624 435.886 63.1985 436.384 62.6311L438.54 64.5763C437.849 65.4003 436.992 66.0285 435.969 66.4607C434.96 66.893 433.82 67.1091 432.548 67.1091Z" fill="black"/>
<path d="M447.554 67.1091C446.407 67.1091 445.343 66.9268 444.361 66.562C443.394 66.1973 442.551 65.684 441.832 65.0221C441.127 64.3602 440.574 63.5835 440.173 62.6919C439.786 61.8004 439.592 60.8278 439.592 59.7741C439.592 58.7205 439.786 57.7479 440.173 56.8563C440.574 55.9648 441.134 55.188 441.852 54.5261C442.571 53.8642 443.414 53.3509 444.382 52.9862C445.35 52.6214 446.4 52.4391 447.534 52.4391C448.681 52.4391 449.732 52.6214 450.685 52.9862C451.653 53.3509 452.489 53.8642 453.194 54.5261C453.913 55.188 454.473 55.9648 454.874 56.8563C455.275 57.7344 455.475 58.707 455.475 59.7741C455.475 60.8278 455.275 61.8071 454.874 62.7122C454.473 63.6037 453.913 64.3804 453.194 65.0424C452.489 65.6908 451.653 66.1973 450.685 66.562C449.732 66.9268 448.688 67.1091 447.554 67.1091ZM447.534 64.3129C448.183 64.3129 448.778 64.2048 449.317 63.9887C449.87 63.7726 450.354 63.4619 450.768 63.0566C451.183 62.6514 451.501 62.1718 451.722 61.618C451.957 61.0642 452.075 60.4495 452.075 59.7741C452.075 59.0987 451.957 58.4841 451.722 57.9302C451.501 57.3764 451.183 56.8968 450.768 56.4916C450.368 56.0863 449.891 55.7756 449.338 55.5595C448.785 55.3434 448.183 55.2353 447.534 55.2353C446.884 55.2353 446.283 55.3434 445.73 55.5595C445.191 55.7756 444.714 56.0863 444.299 56.4916C443.884 56.8968 443.56 57.3764 443.325 57.9302C443.103 58.4841 442.993 59.0987 442.993 59.7741C442.993 60.436 443.103 61.0506 443.325 61.618C443.56 62.1718 443.878 62.6514 444.278 63.0566C444.693 63.4619 445.177 63.7726 445.73 63.9887C446.283 64.2048 446.884 64.3129 447.534 64.3129Z" fill="black"/>
<path d="M464.448 67.1091C462.388 67.1091 460.778 66.5485 459.617 65.4273C458.456 64.3062 457.875 62.7054 457.875 60.6251V52.6822H461.234V60.5036C461.234 61.8544 461.518 62.827 462.084 63.4214C462.651 64.0157 463.446 64.3129 464.469 64.3129C465.492 64.3129 466.287 64.0157 466.853 63.4214C467.42 62.827 467.703 61.8544 467.703 60.5036V52.6822H471.021V60.6251C471.021 62.7054 470.44 64.3062 469.279 65.4273C468.118 66.5485 466.508 67.1091 464.448 67.1091Z" fill="black"/>
<path d="M474.34 66.866V52.6822H477.119L485.682 62.8945H484.334V52.6822H487.652V66.866H484.894L476.31 56.6537H477.658V66.866H474.34Z" fill="black"/>
<path d="M494.092 66.866V55.3569H489.448V52.6822H502.096V55.3569H497.451V66.866H494.092Z" fill="black"/>
<path d="M403.429 143.155V106.935L406.679 110.223H394.99V104.149H410.842V143.155H403.429Z" fill="black"/>
<path d="M435.41 143.712C432.255 143.712 429.403 142.932 426.857 141.372C424.348 139.811 422.371 137.545 420.926 134.574C419.482 131.565 418.76 127.924 418.76 123.652C418.76 119.38 419.482 115.758 420.926 112.786C422.371 109.777 424.348 107.493 426.857 105.932C429.403 104.372 432.255 103.592 435.41 103.592C438.603 103.592 441.454 104.372 443.963 105.932C446.472 107.493 448.448 109.777 449.893 112.786C451.375 115.758 452.117 119.38 452.117 123.652C452.117 127.924 451.375 131.565 449.893 134.574C448.448 137.545 446.472 139.811 443.963 141.372C441.454 142.932 438.603 143.712 435.41 143.712ZM435.41 137.415C437.272 137.415 438.888 136.932 440.256 135.967C441.625 134.964 442.689 133.441 443.45 131.397C444.248 129.354 444.647 126.772 444.647 123.652C444.647 120.494 444.248 117.913 443.45 115.907C442.689 113.864 441.625 112.359 440.256 111.393C438.888 110.39 437.272 109.889 435.41 109.889C433.623 109.889 432.026 110.39 430.62 111.393C429.251 112.359 428.168 113.864 427.37 115.907C426.609 117.913 426.229 120.494 426.229 123.652C426.229 126.772 426.609 129.354 427.37 131.397C428.168 133.441 429.251 134.964 430.62 135.967C432.026 136.932 433.623 137.415 435.41 137.415Z" fill="black"/>
<path d="M462.714 143.155L489.97 104.149H495.558L468.302 143.155H462.714ZM466.021 125.157C464.158 125.157 462.505 124.711 461.06 123.819C459.616 122.928 458.494 121.683 457.696 120.086C456.898 118.488 456.499 116.613 456.499 114.458C456.499 112.303 456.898 110.427 457.696 108.83C458.494 107.233 459.616 105.988 461.06 105.097C462.505 104.205 464.158 103.759 466.021 103.759C467.96 103.759 469.632 104.205 471.039 105.097C472.483 105.988 473.605 107.233 474.403 108.83C475.201 110.427 475.601 112.303 475.601 114.458C475.601 116.613 475.201 118.488 474.403 120.086C473.605 121.683 472.483 122.928 471.039 123.819C469.632 124.711 467.96 125.157 466.021 125.157ZM466.078 121.256C467.599 121.256 468.777 120.68 469.613 119.529C470.488 118.34 470.925 116.65 470.925 114.458C470.925 112.266 470.488 110.595 469.613 109.443C468.777 108.254 467.599 107.66 466.078 107.66C464.558 107.66 463.341 108.254 462.429 109.443C461.554 110.632 461.117 112.303 461.117 114.458C461.117 116.613 461.554 118.284 462.429 119.473C463.341 120.662 464.558 121.256 466.078 121.256ZM492.193 143.545C490.331 143.545 488.677 143.099 487.233 142.207C485.788 141.316 484.667 140.071 483.868 138.474C483.07 136.877 482.671 135.001 482.671 132.846C482.671 130.692 483.07 128.816 483.868 127.218C484.667 125.621 485.788 124.376 487.233 123.485C488.677 122.593 490.331 122.148 492.193 122.148C494.132 122.148 495.805 122.593 497.211 123.485C498.656 124.376 499.777 125.621 500.575 127.218C501.374 128.816 501.773 130.692 501.773 132.846C501.773 135.001 501.374 136.877 500.575 138.474C499.777 140.071 498.656 141.316 497.211 142.207C495.805 143.099 494.132 143.545 492.193 143.545ZM492.193 139.644C493.714 139.644 494.911 139.05 495.786 137.861C496.66 136.672 497.097 135.001 497.097 132.846C497.097 130.692 496.66 129.02 495.786 127.831C494.911 126.642 493.714 126.048 492.193 126.048C490.711 126.048 489.513 126.642 488.601 127.831C487.727 128.983 487.29 130.654 487.29 132.846C487.29 135.038 487.727 136.728 488.601 137.917C489.513 139.068 490.711 139.644 492.193 139.644Z" fill="black"/>
<path d="M293.419 127.877L137.096 20.9789C130.685 16.5975 121.847 18.1533 117.406 24.4533L6.73941 181.563C1.12076 189.537 3.17689 200.456 11.33 205.953L166.368 310.563C177.134 317.832 191.941 314.763 198.773 303.851L297.36 146.344C301.244 140.135 299.516 132.049 293.419 127.877Z" stroke="#3D9BE9" stroke-width="4.6653" stroke-miterlimit="10"/>
<path d="M281.289 113.344L245.521 229.883L237.475 256.123L226.267 292.639C224.803 297.411 219.598 300.07 214.751 298.521L211.574 297.509L204.599 295.277L84.6153 256.967L60.7557 249.349L37.6671 241.974C30.5349 239.693 26.0729 233.107 26.3299 226.116C26.3799 224.679 26.6369 223.235 27.1009 221.797L28.0719 218.818L58.5354 125.532L69.2872 92.6091L82.6877 51.5719C84.2084 46.9044 89.3201 44.33 94.0963 45.816L211.26 82.3532L270.066 100.688L275.357 102.342C280.076 103.814 282.717 108.704 281.289 113.344Z" fill="white" stroke="black" stroke-width="4" stroke-miterlimit="10"/>
<path d="M277.855 103.207C257.865 125.532 260.007 125.532 248.584 125.532H57.9639L68.6729 92.7416C80.21 89.5183 105.198 87.1602 130.785 87.1602C162.748 87.1602 193.19 84.516 218.399 82.3532L277.855 103.207Z" fill="black"/>
<path d="M28.0721 218.818L84.6155 256.967L60.7559 249.349L26.3301 226.116C26.3801 224.679 26.6371 223.235 27.1011 221.797L28.0721 218.818Z" fill="black"/>
<path d="M245.521 229.884L237.475 256.123L211.574 297.509L204.599 295.277L245.521 229.884Z" fill="black"/>
<path d="M29.2497 149.602L6.73941 181.563C1.12076 189.537 3.17689 200.456 11.33 205.953L166.368 310.563C177.134 317.832 191.941 314.763 198.773 303.851L263.334 200.714" stroke="#3D9BE9" stroke-width="4.6653" stroke-miterlimit="10"/>
<path d="M55.1087 137.393C55.1087 137.393 48.769 131.393 42.4293 126.083C36.0895 120.774 38.8096 109.276 38.8096 78.3137C38.8096 69.4672 39.7163 70.3532 95.8385 70.3532H281.518C305.842 70.3532 297.789 74.3788 276.014 96.2509C254.246 118.123 253.375 120.642 244.308 120.642C235.241 120.642 82.4666 120.642 60.1062 120.642L55.1087 137.386V137.393Z" fill="#3D9BE9"/>
<path d="M51.5395 125.533C51.5395 125.533 46.542 120.649 50.1116 120.649H67.5102" stroke="black" stroke-width="1.39959" stroke-miterlimit="10"/>
<path d="M54.7517 137.742C54.7517 137.742 48.769 131.393 42.4293 126.083C36.0895 120.774 38.8096 109.276 38.8096 78.3137C38.8096 69.4672 39.7163 70.3532 95.8385 70.3532H281.518C305.842 70.3532 297.789 74.3788 276.014 96.2509C254.246 118.123 253.375 120.642 244.308 120.642H59.7493L54.7517 137.735V137.742Z" stroke="black" stroke-width="3" stroke-miterlimit="10"/>
<path d="M45.8271 79.486C48.6829 76.6953 47.255 77.393 118.648 77.393" stroke="white" stroke-width="1.39959" stroke-miterlimit="10"/>
<path d="M139.374 77.3162H170.951" stroke="white" stroke-width="1.39959" stroke-miterlimit="10"/>
<path d="M190.777 77.3162H206.498" stroke="white" stroke-width="1.39959" stroke-miterlimit="10"/>
<path d="M222.49 77.3162H276.785" stroke="white" stroke-width="1.39959" stroke-miterlimit="10"/>
<path d="M38.5527 117.265C40.1162 124.835 47.2556 127.626 50.1113 129.021C52.967 130.416 56.6152 129.021 55.5015 125.533C54.3878 122.044 50.8252 121.347 50.1113 124.137C50.1113 124.137 47.0699 120.642 50.3755 120.649C53.681 120.656 60.1064 120.649 60.1064 120.649L54.7519 137.742C54.7519 137.742 45.4493 129.481 42.0724 125.763C38.6955 122.044 38.5527 117.265 38.5527 117.265Z" fill="black"/>
<path d="M69.4795 107.093V87.5582H78.5607C80.7311 87.5582 82.6444 87.9675 84.3007 88.7861C85.9571 89.5861 87.2516 90.7117 88.1845 92.1629C89.1174 93.614 89.5838 95.335 89.5838 97.3257C89.5838 99.2977 89.1174 101.019 88.1845 102.488C87.2516 103.94 85.9571 105.074 84.3007 105.893C82.6444 106.693 80.7311 107.093 78.5607 107.093H69.4795ZM74.1058 103.381H78.3323C79.6649 103.381 80.8167 103.14 81.7877 102.656C82.7777 102.154 83.5392 101.447 84.0723 100.535C84.6244 99.6233 84.9004 98.5536 84.9004 97.3257C84.9004 96.0791 84.6244 95.0094 84.0723 94.1164C83.5392 93.2047 82.7777 92.507 81.7877 92.0233C80.8167 91.521 79.6649 91.2698 78.3323 91.2698H74.1058V103.381Z" fill="black"/>
<path d="M93.0727 107.093V87.5582H97.699V107.093H93.0727Z" fill="black"/>
<path d="M109.011 107.428C107.412 107.428 105.879 107.223 104.414 106.814C102.948 106.386 101.767 105.837 100.872 105.168L102.443 101.763C103.3 102.358 104.309 102.851 105.47 103.242C106.651 103.614 107.84 103.8 109.04 103.8C109.954 103.8 110.687 103.716 111.239 103.549C111.81 103.363 112.229 103.112 112.495 102.795C112.762 102.479 112.895 102.116 112.895 101.707C112.895 101.186 112.686 100.777 112.267 100.479C111.848 100.163 111.296 99.9117 110.61 99.7257C109.925 99.521 109.164 99.335 108.326 99.1675C107.507 98.9815 106.679 98.7582 105.841 98.4977C105.023 98.2373 104.271 97.9024 103.585 97.4931C102.9 97.0838 102.338 96.5443 101.9 95.8745C101.482 95.2047 101.272 94.3489 101.272 93.307C101.272 92.1908 101.577 91.1768 102.186 90.2652C102.814 89.335 103.747 88.6001 104.985 88.0605C106.241 87.5024 107.812 87.2233 109.697 87.2233C110.953 87.2233 112.191 87.3722 113.409 87.6698C114.628 87.9489 115.703 88.3768 116.636 88.9536L115.208 92.3861C114.275 91.8652 113.342 91.4838 112.41 91.2419C111.477 90.9815 110.563 90.8512 109.668 90.8512C108.773 90.8512 108.04 90.9536 107.469 91.1582C106.898 91.3629 106.489 91.6326 106.241 91.9675C105.994 92.2838 105.87 92.6559 105.87 93.0838C105.87 93.5861 106.079 93.9954 106.498 94.3117C106.917 94.6094 107.469 94.8512 108.155 95.0373C108.84 95.2233 109.592 95.4094 110.411 95.5954C111.248 95.7815 112.076 95.9954 112.895 96.2373C113.733 96.4791 114.494 96.8047 115.18 97.214C115.865 97.6233 116.417 98.1629 116.836 98.8326C117.274 99.5024 117.493 100.349 117.493 101.372C117.493 102.47 117.179 103.474 116.55 104.386C115.922 105.298 114.98 106.033 113.723 106.591C112.486 107.149 110.915 107.428 109.011 107.428Z" fill="black"/>
<path d="M130.221 107.428C128.679 107.428 127.241 107.186 125.908 106.702C124.595 106.2 123.453 105.493 122.482 104.581C121.511 103.67 120.749 102.6 120.197 101.372C119.664 100.144 119.397 98.7954 119.397 97.3257C119.397 95.8559 119.664 94.507 120.197 93.2791C120.749 92.0512 121.511 90.9815 122.482 90.0698C123.472 89.1582 124.623 88.4605 125.937 87.9768C127.251 87.4745 128.688 87.2233 130.249 87.2233C131.982 87.2233 133.543 87.521 134.933 88.1164C136.341 88.6931 137.522 89.5489 138.474 90.6838L135.504 93.3629C134.818 92.6001 134.057 92.0326 133.219 91.6605C132.381 91.2698 131.468 91.0745 130.478 91.0745C129.545 91.0745 128.688 91.2233 127.907 91.521C127.127 91.8187 126.451 92.2466 125.88 92.8047C125.309 93.3629 124.861 94.0233 124.538 94.7861C124.233 95.5489 124.081 96.3954 124.081 97.3257C124.081 98.2559 124.233 99.1024 124.538 99.8652C124.861 100.628 125.309 101.288 125.88 101.847C126.451 102.405 127.127 102.833 127.907 103.13C128.688 103.428 129.545 103.577 130.478 103.577C131.468 103.577 132.381 103.391 133.219 103.019C134.057 102.628 134.818 102.042 135.504 101.261L138.474 103.94C137.522 105.074 136.341 105.94 134.933 106.535C133.543 107.13 131.972 107.428 130.221 107.428Z" fill="black"/>
<path d="M150.889 107.428C149.309 107.428 147.843 107.177 146.491 106.674C145.158 106.172 143.997 105.465 143.007 104.554C142.036 103.642 141.275 102.572 140.723 101.344C140.189 100.116 139.923 98.7768 139.923 97.3257C139.923 95.8745 140.189 94.535 140.723 93.307C141.275 92.0791 142.046 91.0094 143.036 90.0977C144.026 89.1861 145.187 88.4791 146.52 87.9768C147.852 87.4745 149.299 87.2233 150.86 87.2233C152.441 87.2233 153.887 87.4745 155.201 87.9768C156.534 88.4791 157.686 89.1861 158.657 90.0977C159.647 91.0094 160.418 92.0791 160.97 93.307C161.522 94.5164 161.798 95.8559 161.798 97.3257C161.798 98.7768 161.522 100.126 160.97 101.372C160.418 102.6 159.647 103.67 158.657 104.581C157.686 105.474 156.534 106.172 155.201 106.674C153.887 107.177 152.45 107.428 150.889 107.428ZM150.86 103.577C151.755 103.577 152.574 103.428 153.316 103.13C154.078 102.833 154.744 102.405 155.315 101.847C155.886 101.288 156.324 100.628 156.629 99.8652C156.953 99.1024 157.114 98.2559 157.114 97.3257C157.114 96.3954 156.953 95.5489 156.629 94.7861C156.324 94.0233 155.886 93.3629 155.315 92.8047C154.763 92.2466 154.106 91.8187 153.345 91.521C152.583 91.2233 151.755 91.0745 150.86 91.0745C149.966 91.0745 149.137 91.2233 148.376 91.521C147.633 91.8187 146.977 92.2466 146.405 92.8047C145.834 93.3629 145.387 94.0233 145.063 94.7861C144.759 95.5489 144.606 96.3954 144.606 97.3257C144.606 98.2373 144.759 99.0838 145.063 99.8652C145.387 100.628 145.825 101.288 146.377 101.847C146.948 102.405 147.614 102.833 148.376 103.13C149.137 103.428 149.966 103.577 150.86 103.577Z" fill="black"/>
<path d="M174.156 107.428C171.319 107.428 169.101 106.656 167.502 105.112C165.903 103.568 165.103 101.363 165.103 98.4977V87.5582H169.73V98.3303C169.73 100.191 170.12 101.53 170.9 102.349C171.681 103.168 172.776 103.577 174.185 103.577C175.593 103.577 176.688 103.168 177.469 102.349C178.249 101.53 178.64 100.191 178.64 98.3303V87.5582H183.209V98.4977C183.209 101.363 182.409 103.568 180.81 105.112C179.211 106.656 176.993 107.428 174.156 107.428Z" fill="black"/>
<path d="M187.78 107.093V87.5582H191.607L203.401 101.623H201.545V87.5582H206.114V107.093H202.316L190.493 93.028H192.349V107.093H187.78Z" fill="black"/>
<path d="M214.984 107.093V91.2419H208.588V87.5582H226.008V91.2419H219.611V107.093H214.984Z" fill="black"/>
<path d="M96.4949 211.258V161.374L100.971 165.902H84.8721V157.537H106.704V211.258H96.4949Z" fill="black"/>
<path d="M135.829 212.026C131.954 212.026 128.159 211.488 124.441 210.414C120.777 209.288 117.688 207.753 115.175 205.809L119.494 198.058C121.483 199.644 123.892 200.923 126.719 201.895C129.598 202.867 132.583 203.353 135.672 203.353C139.284 203.353 142.111 202.612 144.153 201.128C146.247 199.644 147.294 197.649 147.294 195.142C147.294 193.453 146.849 191.97 145.959 190.691C145.122 189.412 143.603 188.44 141.404 187.774C139.258 187.109 136.3 186.777 132.53 186.777H119.258L122.085 157.537H154.362V165.902H125.855L131.195 161.144L129.075 183.016L123.735 178.335H134.808C140.253 178.335 144.624 179.051 147.923 180.484C151.273 181.865 153.708 183.809 155.226 186.316C156.797 188.772 157.582 191.586 157.582 194.758C157.582 197.879 156.797 200.744 155.226 203.353C153.656 205.963 151.247 208.06 148.001 209.647C144.808 211.233 140.75 212.026 135.829 212.026Z" fill="black"/>
<path d="M170.4 211.258L207.939 157.537H215.635L178.096 211.258H170.4ZM174.955 186.47C172.39 186.47 170.112 185.856 168.123 184.628C166.133 183.4 164.589 181.686 163.489 179.486C162.39 177.286 161.84 174.702 161.84 171.735C161.84 168.767 162.39 166.184 163.489 163.984C164.589 161.784 166.133 160.07 168.123 158.842C170.112 157.614 172.39 157 174.955 157C177.625 157 179.929 157.614 181.866 158.842C183.855 160.07 185.4 161.784 186.499 163.984C187.599 166.184 188.149 168.767 188.149 171.735C188.149 174.702 187.599 177.286 186.499 179.486C185.4 181.686 183.855 183.4 181.866 184.628C179.929 185.856 177.625 186.47 174.955 186.47ZM175.034 181.098C177.128 181.098 178.751 180.305 179.903 178.719C181.107 177.081 181.709 174.753 181.709 171.735C181.709 168.716 181.107 166.414 179.903 164.828C178.751 163.191 177.128 162.372 175.034 162.372C172.939 162.372 171.264 163.191 170.007 164.828C168.803 166.465 168.201 168.767 168.201 171.735C168.201 174.702 168.803 177.005 170.007 178.642C171.264 180.279 172.939 181.098 175.034 181.098ZM211.001 211.795C208.436 211.795 206.159 211.181 204.169 209.953C202.18 208.726 200.635 207.012 199.536 204.812C198.436 202.612 197.887 200.028 197.887 197.06C197.887 194.093 198.436 191.509 199.536 189.309C200.635 187.109 202.18 185.395 204.169 184.167C206.159 182.94 208.436 182.326 211.001 182.326C213.672 182.326 215.975 182.94 217.912 184.167C219.902 185.395 221.446 187.109 222.546 189.309C223.645 191.509 224.195 194.093 224.195 197.06C224.195 200.028 223.645 202.612 222.546 204.812C221.446 207.012 219.902 208.726 217.912 209.953C215.975 211.181 213.672 211.795 211.001 211.795ZM211.001 206.423C213.096 206.423 214.745 205.605 215.949 203.967C217.153 202.33 217.755 200.028 217.755 197.06C217.755 194.093 217.153 191.791 215.949 190.153C214.745 188.516 213.096 187.698 211.001 187.698C208.96 187.698 207.31 188.516 206.054 190.153C204.85 191.74 204.248 194.042 204.248 197.06C204.248 200.079 204.85 202.407 206.054 204.044C207.31 205.63 208.96 206.423 211.001 206.423Z" fill="black"/>
<path d="M410.289 253.507L333.417 200.94C330.265 198.786 325.918 199.551 323.734 202.649L269.314 279.907C266.551 283.828 267.562 289.198 271.572 291.901L347.811 343.343C353.105 346.918 360.387 345.408 363.747 340.042L412.227 262.588C414.136 259.535 413.287 255.559 410.289 253.507Z" stroke="#3D9BE9" stroke-width="4" stroke-miterlimit="10"/>
<path d="M404.323 246.361L386.734 303.669L382.777 316.572L377.265 334.529C376.546 336.876 373.986 338.183 371.602 337.421L370.04 336.924L366.61 335.826L307.608 316.987L295.875 313.241L284.522 309.614C281.014 308.492 278.82 305.254 278.947 301.816C278.971 301.109 279.098 300.399 279.326 299.692L279.803 298.227L294.784 252.354L300.071 236.164L306.66 215.984C307.408 213.689 309.922 212.423 312.271 213.154L369.886 231.121L398.804 240.137L401.405 240.95C403.726 241.674 405.025 244.079 404.323 246.361Z" fill="white" stroke="black" stroke-width="4" stroke-miterlimit="10"/>
<path d="M402.635 241.375C392.805 252.354 393.858 252.354 388.241 252.354H294.504L299.77 236.229C305.443 234.644 317.731 233.485 330.314 233.485C346.031 233.485 361.001 232.184 373.398 231.121L402.635 241.375Z" fill="black"/>
<path d="M279.804 298.227L307.609 316.987L295.876 313.241L278.947 301.816C278.972 301.109 279.098 300.399 279.326 299.692L279.804 298.227Z" fill="black"/>
<path d="M386.735 303.669L382.778 316.572L370.041 336.924L366.611 335.826L386.735 303.669Z" fill="black"/>
<path d="M280.384 264.19L269.314 279.907C266.551 283.828 267.562 289.198 271.572 291.901L347.811 343.343C353.105 346.917 360.387 345.408 363.747 340.042L395.494 289.324" stroke="#3D9BE9" stroke-width="4" stroke-miterlimit="10"/>
<path d="M293.101 258.187C293.101 258.187 289.984 255.236 286.866 252.625C283.748 250.015 285.086 244.361 285.086 229.135C285.086 224.784 285.532 225.22 313.13 225.22H404.438C416.399 225.22 412.439 227.2 401.731 237.955C391.027 248.711 390.598 249.949 386.14 249.949C381.681 249.949 306.554 249.949 295.559 249.949L293.101 258.183V258.187Z" fill="#3D9BE9"/>
<path d="M291.347 252.355C291.347 252.355 288.889 249.953 290.645 249.953H299.201" stroke="black" stroke-width="2.03577" stroke-miterlimit="10"/>
<path d="M292.926 258.358C292.926 258.358 289.984 255.236 286.866 252.625C283.748 250.015 285.086 244.361 285.086 229.135C285.086 224.784 285.532 225.22 313.13 225.22H404.438C416.399 225.22 412.439 227.2 401.731 237.955C391.027 248.711 390.598 249.949 386.14 249.949H295.383L292.926 258.355V258.358Z" stroke="black" stroke-width="2.71436" stroke-miterlimit="10"/>
<path d="M288.537 229.711C289.941 228.339 289.239 228.682 324.347 228.682" stroke="white" stroke-width="2.03577" stroke-miterlimit="10"/>
<path d="M334.538 228.644H350.066" stroke="white" stroke-width="2.03577" stroke-miterlimit="10"/>
<path d="M359.814 228.644H367.545" stroke="white" stroke-width="2.03577" stroke-miterlimit="10"/>
<path d="M375.41 228.644H402.109" stroke="white" stroke-width="2.03577" stroke-miterlimit="10"/>
<path d="M284.96 248.289C285.729 252.011 289.24 253.384 290.644 254.07C292.048 254.756 293.842 254.07 293.294 252.355C292.747 250.639 290.995 250.296 290.644 251.668C290.644 251.668 289.148 249.95 290.774 249.953C292.399 249.956 295.559 249.953 295.559 249.953L292.926 258.358C292.926 258.358 288.351 254.296 286.691 252.468C285.03 250.639 284.96 248.289 284.96 248.289Z" fill="black"/>
<path d="M300.165 243.287V233.68H304.631C305.698 233.68 306.639 233.882 307.453 234.284C308.268 234.678 308.904 235.231 309.363 235.945C309.822 236.658 310.051 237.505 310.051 238.484C310.051 239.453 309.822 240.3 309.363 241.022C308.904 241.736 308.268 242.294 307.453 242.697C306.639 243.09 305.698 243.287 304.631 243.287H300.165ZM302.44 241.461H304.518C305.174 241.461 305.74 241.343 306.218 241.105C306.704 240.858 307.079 240.51 307.341 240.062C307.613 239.613 307.748 239.087 307.748 238.484C307.748 237.871 307.613 237.345 307.341 236.905C307.079 236.457 306.704 236.114 306.218 235.876C305.74 235.629 305.174 235.506 304.518 235.506H302.44V241.461Z" fill="black"/>
<path d="M311.767 243.287V233.68H314.042V243.287H311.767Z" fill="black"/>
<path d="M319.605 243.451C318.818 243.451 318.065 243.351 317.344 243.149C316.623 242.939 316.043 242.669 315.602 242.34L316.375 240.666C316.796 240.958 317.292 241.201 317.863 241.393C318.444 241.576 319.029 241.667 319.619 241.667C320.068 241.667 320.429 241.626 320.7 241.544C320.981 241.452 321.187 241.329 321.318 241.173C321.449 241.018 321.515 240.839 321.515 240.638C321.515 240.382 321.412 240.181 321.206 240.034C321 239.879 320.728 239.755 320.391 239.664C320.054 239.563 319.68 239.472 319.268 239.389C318.865 239.298 318.458 239.188 318.046 239.06C317.643 238.932 317.274 238.767 316.937 238.566C316.6 238.365 316.323 238.099 316.108 237.77C315.902 237.441 315.799 237.02 315.799 236.507C315.799 235.958 315.949 235.46 316.248 235.012C316.557 234.554 317.016 234.193 317.625 233.927C318.243 233.653 319.015 233.516 319.942 233.516C320.56 233.516 321.168 233.589 321.767 233.735C322.367 233.873 322.896 234.083 323.354 234.367L322.652 236.055C322.193 235.798 321.735 235.611 321.276 235.492C320.817 235.364 320.368 235.3 319.928 235.3C319.488 235.3 319.127 235.35 318.846 235.451C318.566 235.551 318.364 235.684 318.243 235.849C318.121 236.004 318.06 236.187 318.06 236.398C318.06 236.645 318.163 236.846 318.369 237.001C318.575 237.148 318.846 237.267 319.183 237.358C319.52 237.45 319.89 237.541 320.293 237.633C320.705 237.724 321.112 237.829 321.515 237.948C321.927 238.067 322.301 238.227 322.638 238.429C322.975 238.63 323.247 238.895 323.453 239.225C323.668 239.554 323.776 239.97 323.776 240.473C323.776 241.013 323.621 241.507 323.312 241.956C323.003 242.404 322.54 242.765 321.922 243.04C321.313 243.314 320.541 243.451 319.605 243.451Z" fill="black"/>
<path d="M330.034 243.451C329.276 243.451 328.569 243.332 327.914 243.095C327.268 242.848 326.706 242.5 326.229 242.052C325.751 241.603 325.377 241.077 325.105 240.473C324.843 239.87 324.712 239.206 324.712 238.484C324.712 237.761 324.843 237.098 325.105 236.494C325.377 235.89 325.751 235.364 326.229 234.916C326.716 234.467 327.282 234.124 327.928 233.886C328.574 233.639 329.281 233.516 330.048 233.516C330.9 233.516 331.668 233.662 332.352 233.955C333.044 234.239 333.625 234.659 334.093 235.217L332.632 236.535C332.295 236.16 331.921 235.881 331.509 235.698C331.097 235.506 330.648 235.41 330.161 235.41C329.702 235.41 329.281 235.483 328.897 235.629C328.513 235.776 328.181 235.986 327.9 236.26C327.619 236.535 327.399 236.86 327.24 237.235C327.09 237.61 327.015 238.026 327.015 238.484C327.015 238.941 327.09 239.357 327.24 239.732C327.399 240.107 327.619 240.432 327.9 240.707C328.181 240.981 328.513 241.192 328.897 241.338C329.281 241.484 329.702 241.558 330.161 241.558C330.648 241.558 331.097 241.466 331.509 241.283C331.921 241.091 332.295 240.803 332.632 240.419L334.093 241.736C333.625 242.294 333.044 242.719 332.352 243.012C331.668 243.305 330.896 243.451 330.034 243.451Z" fill="black"/>
<path d="M340.198 243.451C339.421 243.451 338.7 243.328 338.035 243.081C337.38 242.834 336.809 242.486 336.322 242.038C335.845 241.59 335.47 241.064 335.199 240.46C334.937 239.856 334.806 239.197 334.806 238.484C334.806 237.77 334.937 237.111 335.199 236.507C335.47 235.904 335.849 235.378 336.336 234.929C336.823 234.481 337.394 234.133 338.049 233.886C338.705 233.639 339.416 233.516 340.184 233.516C340.961 233.516 341.673 233.639 342.319 233.886C342.974 234.133 343.54 234.481 344.018 234.929C344.505 235.378 344.884 235.904 345.155 236.507C345.427 237.102 345.563 237.761 345.563 238.484C345.563 239.197 345.427 239.86 345.155 240.473C344.884 241.077 344.505 241.603 344.018 242.052C343.54 242.491 342.974 242.834 342.319 243.081C341.673 243.328 340.966 243.451 340.198 243.451ZM340.184 241.558C340.624 241.558 341.027 241.484 341.392 241.338C341.766 241.192 342.094 240.981 342.375 240.707C342.656 240.432 342.871 240.107 343.021 239.732C343.18 239.357 343.259 238.941 343.259 238.484C343.259 238.026 343.18 237.61 343.021 237.235C342.871 236.86 342.656 236.535 342.375 236.26C342.103 235.986 341.78 235.776 341.406 235.629C341.031 235.483 340.624 235.41 340.184 235.41C339.744 235.41 339.337 235.483 338.962 235.629C338.597 235.776 338.274 235.986 337.993 236.26C337.712 236.535 337.492 236.86 337.333 237.235C337.184 237.61 337.109 238.026 337.109 238.484C337.109 238.932 337.184 239.348 337.333 239.732C337.492 240.107 337.708 240.432 337.979 240.707C338.26 240.981 338.588 241.192 338.962 241.338C339.337 241.484 339.744 241.558 340.184 241.558Z" fill="black"/>
<path d="M351.64 243.451C350.245 243.451 349.154 243.072 348.368 242.312C347.581 241.553 347.188 240.469 347.188 239.06V233.68H349.463V238.978C349.463 239.892 349.655 240.551 350.039 240.954C350.423 241.356 350.961 241.558 351.654 241.558C352.346 241.558 352.885 241.356 353.269 240.954C353.652 240.551 353.844 239.892 353.844 238.978V233.68H356.091V239.06C356.091 240.469 355.698 241.553 354.912 242.312C354.125 243.072 353.035 243.451 351.64 243.451Z" fill="black"/>
<path d="M358.339 243.287V233.68H360.221L366.021 240.597H365.108V233.68H367.355V243.287H365.487L359.673 236.37H360.586V243.287H358.339Z" fill="black"/>
<path d="M371.717 243.287V235.492H368.571V233.68H377.138V235.492H373.992V243.287H371.717Z" fill="black"/>
<path d="M323.034 295.734C320.692 295.734 318.66 295.392 316.937 294.708C315.215 294.024 313.882 293.064 312.94 291.828C311.998 290.565 311.527 289.092 311.527 287.409C311.527 285.725 311.985 284.305 312.9 283.148C313.815 281.99 315.134 281.109 316.857 280.504C318.579 279.899 320.638 279.597 323.034 279.597C325.429 279.597 327.488 279.899 329.211 280.504C330.961 281.109 332.293 282.003 333.208 283.187C334.15 284.344 334.621 285.752 334.621 287.409C334.621 289.092 334.137 290.565 333.168 291.828C332.226 293.064 330.88 294.024 329.13 294.708C327.408 295.392 325.376 295.734 323.034 295.734ZM323.034 291.709C324.972 291.709 326.506 291.315 327.636 290.526C328.767 289.736 329.332 288.645 329.332 287.251C329.332 285.883 328.767 284.805 327.636 284.016C326.506 283.226 324.972 282.832 323.034 282.832C321.096 282.832 319.575 283.226 318.472 284.016C317.368 284.805 316.816 285.883 316.816 287.251C316.816 288.645 317.368 289.736 318.472 290.526C319.575 291.315 321.096 291.709 323.034 291.709ZM323.034 282.28C320.854 282.28 318.983 282.003 317.422 281.451C315.861 280.872 314.65 280.044 313.788 278.965C312.954 277.861 312.537 276.546 312.537 275.02C312.537 273.442 312.967 272.087 313.829 270.956C314.717 269.799 315.955 268.905 317.543 268.273C319.131 267.642 320.961 267.326 323.034 267.326C325.133 267.326 326.977 267.642 328.565 268.273C330.153 268.905 331.391 269.799 332.279 270.956C333.168 272.087 333.612 273.442 333.612 275.02C333.612 276.546 333.181 277.861 332.32 278.965C331.485 280.044 330.274 280.872 328.686 281.451C327.098 282.003 325.214 282.28 323.034 282.28ZM323.034 279.123C324.703 279.123 326.022 278.781 326.99 278.097C327.959 277.387 328.444 276.44 328.444 275.257C328.444 274.02 327.946 273.06 326.95 272.377C325.954 271.693 324.649 271.351 323.034 271.351C321.419 271.351 320.127 271.693 319.158 272.377C318.189 273.06 317.705 274.02 317.705 275.257C317.705 276.44 318.176 277.387 319.118 278.097C320.087 278.781 321.392 279.123 323.034 279.123Z" fill="black"/>
<path d="M341.589 295.339L360.887 267.721H364.844L345.545 295.339H341.589ZM343.93 282.595C342.612 282.595 341.441 282.28 340.418 281.648C339.395 281.017 338.601 280.136 338.036 279.005C337.471 277.874 337.188 276.546 337.188 275.02C337.188 273.494 337.471 272.166 338.036 271.035C338.601 269.904 339.395 269.023 340.418 268.392C341.441 267.76 342.612 267.445 343.93 267.445C345.303 267.445 346.487 267.76 347.483 268.392C348.506 269.023 349.3 269.904 349.865 271.035C350.431 272.166 350.713 273.494 350.713 275.02C350.713 276.546 350.431 277.874 349.865 279.005C349.3 280.136 348.506 281.017 347.483 281.648C346.487 282.28 345.303 282.595 343.93 282.595ZM343.971 279.833C345.047 279.833 345.882 279.426 346.474 278.61C347.093 277.769 347.403 276.572 347.403 275.02C347.403 273.468 347.093 272.285 346.474 271.469C345.882 270.627 345.047 270.207 343.971 270.207C342.894 270.207 342.033 270.627 341.387 271.469C340.768 272.311 340.458 273.494 340.458 275.02C340.458 276.546 340.768 277.729 341.387 278.571C342.033 279.413 342.894 279.833 343.971 279.833ZM362.462 295.615C361.143 295.615 359.972 295.3 358.949 294.668C357.927 294.037 357.133 293.156 356.567 292.025C356.002 290.894 355.72 289.565 355.72 288.04C355.72 286.514 356.002 285.186 356.567 284.055C357.133 282.924 357.927 282.043 358.949 281.412C359.972 280.78 361.143 280.465 362.462 280.465C363.835 280.465 365.019 280.78 366.015 281.412C367.038 282.043 367.832 282.924 368.397 284.055C368.962 285.186 369.245 286.514 369.245 288.04C369.245 289.565 368.962 290.894 368.397 292.025C367.832 293.156 367.038 294.037 366.015 294.668C365.019 295.3 363.835 295.615 362.462 295.615ZM362.462 292.853C363.539 292.853 364.386 292.433 365.005 291.591C365.625 290.749 365.934 289.565 365.934 288.04C365.934 286.514 365.625 285.331 365.005 284.489C364.386 283.647 363.539 283.226 362.462 283.226C361.412 283.226 360.564 283.647 359.918 284.489C359.299 285.304 358.99 286.488 358.99 288.04C358.99 289.592 359.299 290.789 359.918 291.63C360.564 292.446 361.412 292.853 362.462 292.853Z" fill="black"/>
</svg>
