<svg width="221" height="241" viewBox="0 0 221 241" fill="none" xmlns="http://www.w3.org/2000/svg">
<g clip-path="url(#clip0_15393_116521)">
<path d="M56.2881 241C54.6847 241 53.1244 240.525 51.7673 239.609L3.11459 206.803C1.67536 205.831 0.711559 204.371 0.404697 202.687C0.0978354 201.019 0.469527 199.335 1.45062 197.94L36.1779 148.668C37.8418 146.31 41.1482 145.722 43.5512 147.363L92.6059 180.891C94.8965 182.459 95.5491 185.517 94.0883 187.854L63.1514 237.251C61.9975 239.095 60.1693 240.365 58.0083 240.823C57.4334 240.944 56.8586 241.004 56.2881 241.004V241ZM40.5301 148.154C39.3978 148.154 38.2827 148.681 37.5912 149.661L2.86391 198.933C2.15078 199.944 1.88282 201.166 2.10324 202.371C2.32799 203.594 3.03247 204.661 4.08272 205.369L52.7354 238.175C54.1833 239.151 55.9294 239.488 57.6539 239.125C59.3524 238.767 60.783 237.773 61.6906 236.326L92.6275 186.929C93.5956 185.383 93.1591 183.353 91.6334 182.308L42.5744 148.789C41.9477 148.361 41.2346 148.158 40.5258 148.158L40.5301 148.154Z" fill="#3D9BE9"/>
<path d="M88.3101 177.042L77.0859 213.593L74.5618 221.822L71.0437 233.273C70.5856 234.767 68.9519 235.605 67.4305 235.117L66.4321 234.802L64.2409 234.102L26.5877 222.085L19.1019 219.697L11.8583 217.381C9.61949 216.664 8.21916 214.6 8.30128 212.41C8.31856 211.961 8.39636 211.507 8.54331 211.053L8.84585 210.12L18.4061 180.865L21.7816 170.542L25.9869 157.67C26.4623 156.205 28.0701 155.398 29.5655 155.864L66.3327 167.324L84.7877 173.073L86.4473 173.591C87.9298 174.053 88.7553 175.587 88.3101 177.042Z" fill="white"/>
<path d="M68.3212 235.99C67.9495 235.99 67.5735 235.933 67.2062 235.817L11.6382 218.081C9.14877 217.286 7.47615 214.941 7.57124 212.384C7.58853 211.866 7.68361 211.343 7.84785 210.833L25.2914 157.441C25.8922 155.601 27.9062 154.577 29.7863 155.164L86.6681 172.891C88.5223 173.47 89.5768 175.427 89.0106 177.258L71.7443 233.489C71.4677 234.391 70.8453 235.134 69.9982 235.575C69.4709 235.851 68.8961 235.99 68.3169 235.99H68.3212ZM28.7015 156.464C27.8025 156.464 26.9684 157.022 26.6831 157.894L9.23953 211.282C9.11419 211.663 9.04504 212.051 9.03207 212.436C8.96292 214.345 10.2163 216.09 12.0791 216.686L67.647 234.422C68.2045 234.599 68.7967 234.551 69.3153 234.279C69.8123 234.02 70.1754 233.588 70.3396 233.061L87.606 176.831C87.9388 175.755 87.3337 174.641 86.2273 174.295L29.3498 156.564C29.1337 156.499 28.9176 156.464 28.7015 156.464Z" fill="black"/>
<path d="M87.2341 173.863C80.9629 180.865 81.6328 180.865 78.0498 180.865H18.2334L21.5959 170.581C25.2177 169.57 33.0578 168.831 41.0881 168.831C51.1195 168.831 60.6711 168.002 68.5803 167.324L87.2384 173.863H87.2341Z" fill="black"/>
<path d="M8.84968 210.121L26.5915 222.085L19.1058 219.697L8.30078 212.41C8.31807 211.961 8.39586 211.507 8.54281 211.054L8.84968 210.121Z" fill="black"/>
<path d="M77.0897 213.589L74.5656 221.818L66.436 234.798L64.249 234.098L77.0897 213.589Z" fill="black"/>
<path d="M56.2881 241C54.6847 241 53.1244 240.525 51.7673 239.61L3.11459 206.803C1.67536 205.832 0.711559 204.372 0.404697 202.687C0.0978354 201.02 0.469527 199.335 1.45062 197.94L8.51276 187.915L9.92606 188.908L2.86391 198.933C2.15078 199.944 1.88282 201.167 2.10324 202.372C2.32799 203.594 3.03247 204.661 4.08272 205.369L52.7354 238.175C54.1833 239.152 55.9294 239.489 57.6539 239.126C59.3524 238.767 60.783 237.774 61.6906 236.327L81.9521 203.983L83.4173 204.899L63.1558 237.242C62.0018 239.087 60.1736 240.357 58.0126 240.815C57.4378 240.936 56.8629 240.996 56.2924 240.996L56.2881 241Z" fill="#3D9BE9"/>
<path d="M17.3346 184.584C17.3346 184.584 15.3465 182.701 13.354 181.038C11.3659 179.375 12.2174 175.768 12.2174 166.058C12.2174 163.285 12.5026 163.561 30.1148 163.561H88.3839C96.0166 163.561 93.4882 164.823 86.6551 171.682C79.8264 178.541 79.5498 179.332 76.7059 179.332H18.9035L17.3346 184.584Z" fill="#3D9BE9"/>
<path d="M15.9082 181.18C15.3593 180.645 14.7499 179.885 14.9746 179.332C15.0395 179.168 15.234 178.896 15.7656 178.896H21.2242V179.777H15.8823C16.0076 179.988 16.2626 180.299 16.5219 180.554L15.9082 181.185V181.18Z" fill="black"/>
<path d="M17.8097 186.169L16.7984 185.098C16.7984 185.098 14.9183 183.111 12.9821 181.487C11.3095 180.088 11.3786 177.755 11.5212 172.637C11.5731 170.866 11.6336 168.663 11.6336 166.054C11.6336 165.319 11.6336 164.564 12.1955 164.002C13.25 162.948 15.6531 162.952 25.7276 162.97C27.0545 162.97 28.511 162.974 30.1145 162.974H88.3836C91.9839 162.974 93.194 163.25 93.5614 164.153C94.0238 165.289 92.6538 166.624 89.65 169.552C88.885 170.3 88.0206 171.142 87.0698 172.097C86.0454 173.125 85.1681 174.019 84.4074 174.792C80.0422 179.237 79.368 179.919 76.7056 179.919H19.2317L17.8097 184.778V186.169ZM22.7368 164.136C16.4008 164.136 13.6477 164.209 13.0253 164.831C12.8394 165.017 12.8092 165.345 12.8092 166.054C12.8092 168.676 12.7444 170.892 12.6968 172.671C12.5628 177.397 12.5023 179.552 13.7384 180.589C15.0091 181.651 16.2149 182.826 16.9497 183.565L18.3586 178.744H76.7142C78.8363 178.744 79.2167 178.407 83.5776 173.967C84.3382 173.194 85.2199 172.295 86.2442 171.267C87.1951 170.313 88.0638 169.462 88.8374 168.715C90.67 166.931 92.563 165.082 92.4766 164.589C92.3685 164.43 91.69 164.149 88.388 164.149H30.1188C28.5153 164.149 27.0588 164.149 25.732 164.145C24.6558 164.145 23.6617 164.145 22.7411 164.145L22.7368 164.136Z" fill="black"/>
<path d="M14.7583 166.71L14.4255 166.421L14.1445 166.08C14.6891 165.547 18.7647 165.289 26.3715 165.306C29.2197 165.315 32.7896 165.324 37.2759 165.324V166.205C32.7896 166.205 29.2153 166.196 26.3671 166.188C15.5232 166.162 15.3071 166.17 14.7583 166.71Z" fill="white"/>
<path d="M53.6867 165.302H43.7764V166.183H53.6867V165.302Z" fill="white"/>
<path d="M64.8416 165.302H59.9102V166.183H64.8416V165.302Z" fill="white"/>
<path d="M86.8967 165.302H69.8594V166.183H86.8967V165.302Z" fill="white"/>
<path d="M12.1391 178.269C12.6275 180.645 14.8706 181.517 15.7652 181.958C16.6599 182.394 17.8052 181.958 17.4551 180.865C17.1051 179.772 15.9857 179.552 15.7652 180.429C15.7652 180.429 14.8101 179.332 15.8474 179.336C16.8846 179.336 18.903 179.336 18.903 179.336L17.2218 184.696C17.2218 184.696 14.3044 182.105 13.2412 180.938C12.1823 179.772 12.1348 178.273 12.1348 178.273L12.1391 178.269Z" fill="black"/>
<path d="M21.8467 175.081V168.957H24.6949C25.3778 168.957 25.9785 169.086 26.4971 169.341C27.0158 169.591 27.4221 169.946 27.716 170.399C28.0098 170.853 28.1568 171.393 28.1568 172.019C28.1568 172.645 28.0098 173.177 27.716 173.639C27.4221 174.092 27.0158 174.451 26.4971 174.706C25.9785 174.956 25.3778 175.081 24.6949 175.081H21.8467ZM23.2945 173.915H24.6214C25.0406 173.915 25.3994 173.837 25.7062 173.686C26.0174 173.531 26.2551 173.306 26.4237 173.021C26.5966 172.736 26.683 172.399 26.683 172.015C26.683 171.63 26.5966 171.289 26.4237 171.008C26.2551 170.723 26.0174 170.503 25.7062 170.352C25.3994 170.196 25.0406 170.114 24.6214 170.114H23.2945V173.911V173.915Z" fill="black"/>
<path d="M29.25 175.081V168.957H30.7022V175.081H29.25Z" fill="black"/>
<path d="M34.2506 175.185C33.7492 175.185 33.2695 175.12 32.807 174.991C32.3489 174.857 31.9772 174.684 31.6963 174.477L32.189 173.41C32.457 173.596 32.7725 173.751 33.1398 173.872C33.5115 173.989 33.8832 174.045 34.2592 174.045C34.5445 174.045 34.7779 174.019 34.9508 173.967C35.128 173.907 35.2619 173.829 35.3441 173.729C35.4262 173.63 35.4694 173.518 35.4694 173.388C35.4694 173.224 35.4046 173.094 35.2706 173.004C35.1409 172.904 34.9637 172.827 34.7519 172.766C34.5358 172.701 34.2981 172.645 34.0345 172.589C33.7795 172.533 33.5159 172.46 33.2565 172.377C33.0015 172.295 32.7638 172.192 32.5477 172.062C32.3316 171.933 32.1544 171.764 32.0204 171.552C31.8908 171.341 31.8216 171.073 31.8216 170.749C31.8216 170.399 31.9167 170.08 32.1069 169.794C32.3057 169.501 32.5953 169.272 32.9842 169.103C33.3775 168.926 33.8703 168.84 34.4624 168.84C34.8557 168.84 35.2446 168.887 35.6293 168.978C36.014 169.064 36.3511 169.198 36.6407 169.38L36.1912 170.455C35.8973 170.291 35.6077 170.17 35.3138 170.097C35.0199 170.015 34.7347 169.976 34.4537 169.976C34.1728 169.976 33.9437 170.006 33.7622 170.071C33.585 170.136 33.4553 170.218 33.3775 170.326C33.2997 170.425 33.2609 170.542 33.2609 170.676C33.2609 170.831 33.3257 170.961 33.4597 171.06C33.5893 171.155 33.7665 171.228 33.9783 171.289C34.1944 171.345 34.4278 171.406 34.6871 171.466C34.9508 171.527 35.2101 171.591 35.4651 171.669C35.7287 171.747 35.9664 171.846 36.1825 171.976C36.3986 172.105 36.5715 172.274 36.7012 172.485C36.8395 172.697 36.9086 172.961 36.9086 173.28C36.9086 173.626 36.8092 173.941 36.6147 174.226C36.4159 174.511 36.122 174.745 35.7287 174.917C35.3397 175.09 34.847 175.181 34.2506 175.181V175.185Z" fill="black"/>
<path d="M40.9059 175.185C40.4218 175.185 39.9723 175.107 39.5531 174.956C39.1425 174.801 38.7838 174.576 38.4769 174.291C38.1701 174.006 37.9323 173.669 37.7595 173.285C37.5909 172.9 37.5088 172.477 37.5088 172.015C37.5088 171.553 37.5909 171.129 37.7595 170.745C37.9323 170.36 38.1701 170.023 38.4769 169.738C38.7881 169.453 39.1468 169.233 39.5617 169.082C39.9723 168.926 40.4261 168.844 40.9145 168.844C41.4591 168.844 41.9475 168.939 42.384 169.125C42.8248 169.306 43.1965 169.574 43.4948 169.928L42.5612 170.771C42.3451 170.533 42.1074 170.352 41.8438 170.235C41.5801 170.114 41.2949 170.049 40.9837 170.049C40.6898 170.049 40.4218 170.097 40.1755 170.188C39.9291 170.283 39.7173 170.417 39.5401 170.589C39.3629 170.766 39.2203 170.969 39.1209 171.211C39.0258 171.449 38.9783 171.717 38.9783 172.006C38.9783 172.295 39.0258 172.563 39.1209 172.801C39.2203 173.038 39.3629 173.246 39.5401 173.423C39.7173 173.596 39.9334 173.734 40.1755 173.825C40.4218 173.92 40.6898 173.963 40.9837 173.963C41.2949 173.963 41.5801 173.902 41.8438 173.786C42.1074 173.665 42.3451 173.479 42.5612 173.233L43.4948 174.071C43.1965 174.425 42.8248 174.697 42.384 174.887C41.9475 175.073 41.4548 175.168 40.9059 175.168V175.185Z" fill="black"/>
<path d="M47.3895 175.185C46.8925 175.185 46.4344 175.107 46.0108 174.948C45.5916 174.792 45.2285 174.567 44.9173 174.282C44.6148 173.997 44.3728 173.66 44.1999 173.276C44.0313 172.892 43.9492 172.473 43.9492 172.015C43.9492 171.557 44.0313 171.138 44.1999 170.753C44.3728 170.369 44.6148 170.032 44.926 169.747C45.2372 169.462 45.6002 169.237 46.0195 169.082C46.4387 168.926 46.8925 168.844 47.3809 168.844C47.8693 168.844 48.3317 168.922 48.7423 169.082C49.1615 169.237 49.5203 169.462 49.8271 169.747C50.1383 170.032 50.3804 170.369 50.5532 170.753C50.7261 171.134 50.8125 171.553 50.8125 172.015C50.8125 172.477 50.7261 172.892 50.5532 173.285C50.3804 173.669 50.1383 174.006 49.8271 174.291C49.5246 174.572 49.1615 174.788 48.7423 174.948C48.3317 175.107 47.8779 175.185 47.3895 175.185ZM47.3809 173.98C47.6618 173.98 47.9168 173.933 48.1502 173.842C48.3879 173.747 48.5997 173.613 48.7769 173.44C48.9541 173.263 49.0924 173.056 49.1875 172.818C49.2869 172.581 49.3387 172.313 49.3387 172.023C49.3387 171.734 49.2869 171.466 49.1875 171.229C49.0924 170.991 48.9541 170.784 48.7769 170.607C48.604 170.429 48.3966 170.296 48.1588 170.205C47.9211 170.11 47.6575 170.067 47.3809 170.067C47.1043 170.067 46.8406 170.114 46.6029 170.205C46.3695 170.3 46.1621 170.434 45.9849 170.607C45.8034 170.784 45.6651 170.987 45.5656 171.229C45.4706 171.466 45.423 171.734 45.423 172.023C45.423 172.313 45.4706 172.576 45.5656 172.818C45.6651 173.056 45.8034 173.263 45.9762 173.44C46.1534 173.613 46.3652 173.751 46.6029 173.842C46.8406 173.937 47.1 173.98 47.3809 173.98Z" fill="black"/>
<path d="M54.6931 175.185C53.8027 175.185 53.1069 174.943 52.6055 174.459C52.1042 173.976 51.8535 173.285 51.8535 172.386V168.957H53.3057V172.334C53.3057 172.917 53.4267 173.336 53.6731 173.596C53.9194 173.855 54.2609 173.98 54.706 173.98C55.1512 173.98 55.4926 173.85 55.7347 173.596C55.981 173.341 56.102 172.917 56.102 172.334V168.957H57.5369V172.386C57.5369 173.285 57.2863 173.976 56.7849 174.459C56.2836 174.943 55.5877 175.185 54.6974 175.185H54.6931Z" fill="black"/>
<path d="M58.9678 175.081V168.957H60.1693L63.8689 173.367H63.2855V168.957H64.7204V175.081H63.5275L59.8192 170.671H60.4027V175.081H58.9678Z" fill="black"/>
<path d="M67.5035 175.081V170.11H65.498V168.957H70.9654V170.11H68.9556V175.081H67.5035Z" fill="black"/>
<path d="M36.5334 208.9C35.053 208.9 33.7688 208.683 32.6744 208.243C31.5863 207.81 30.7449 207.198 30.1439 206.408C29.5493 205.605 29.252 204.661 29.252 203.59C29.252 202.52 29.543 201.615 30.1186 200.875C30.7006 200.136 31.5294 199.575 32.6238 199.193C33.7182 198.81 35.0151 198.613 36.5334 198.613C38.0516 198.613 39.3485 198.804 40.4429 199.193C41.55 199.575 42.3914 200.149 42.9734 200.901C43.568 201.64 43.8654 202.532 43.8654 203.59C43.8654 204.649 43.5617 205.605 42.9481 206.408C42.3534 207.198 41.4994 207.81 40.3923 208.243C39.3042 208.677 38.02 208.9 36.5334 208.9ZM36.5334 206.338C37.7606 206.338 38.7285 206.083 39.4434 205.585C40.1582 205.082 40.5188 204.387 40.5188 203.501C40.5188 202.615 40.1582 201.94 39.4434 201.436C38.7285 200.933 37.7606 200.684 36.5334 200.684C35.3061 200.684 34.3445 200.933 33.6486 201.436C32.9528 201.94 32.5985 202.628 32.5985 203.501C32.5985 204.374 32.9464 205.082 33.6486 205.585C34.3445 206.089 35.3061 206.338 36.5334 206.338ZM36.5334 200.327C35.1543 200.327 33.9713 200.149 32.9844 199.798C31.9975 199.428 31.232 198.899 30.688 198.211C30.1629 197.51 29.8972 196.669 29.8972 195.7C29.8972 194.731 30.1692 193.832 30.7133 193.112C31.2763 192.373 32.0608 191.805 33.0603 191.404C34.0662 191.002 35.2238 190.798 36.5334 190.798C37.8429 190.798 39.0259 191.002 40.0317 191.404C41.0376 191.805 41.822 192.379 42.3787 193.112C42.9417 193.832 43.2201 194.699 43.2201 195.7C43.2201 196.7 42.9481 197.51 42.404 198.211C41.8789 198.899 41.1072 199.428 40.1076 199.798C39.1018 200.149 37.9125 200.327 36.5334 200.327ZM36.5334 198.313C37.5898 198.313 38.4249 198.096 39.0385 197.657C39.6521 197.204 39.9558 196.598 39.9558 195.846C39.9558 195.094 39.6395 194.444 39.0132 194.011C38.3806 193.577 37.5582 193.354 36.5334 193.354C35.5085 193.354 34.6924 193.571 34.0788 194.011C33.4652 194.444 33.1615 195.056 33.1615 195.846C33.1615 196.637 33.4588 197.204 34.0535 197.657C34.6671 198.09 35.4895 198.313 36.5334 198.313Z" fill="black"/>
<path d="M48.2684 208.651L60.4779 191.047H62.983L50.7735 208.651H48.2684ZM49.755 200.531C48.92 200.531 48.1798 200.327 47.5346 199.926C46.8893 199.524 46.3832 198.963 46.0289 198.243C45.6683 197.523 45.4912 196.675 45.4912 195.7C45.4912 194.725 45.6683 193.883 46.0289 193.157C46.3895 192.437 46.8893 191.876 47.5346 191.474C48.1798 191.073 48.92 190.869 49.755 190.869C50.5901 190.869 51.3745 191.066 52.0008 191.474C52.6461 191.876 53.1522 192.437 53.5064 193.157C53.867 193.877 54.0442 194.725 54.0442 195.7C54.0442 196.675 53.867 197.516 53.5064 198.243C53.1459 198.963 52.6461 199.524 52.0008 199.926C51.3682 200.327 50.6217 200.531 49.755 200.531ZM49.7803 198.766C50.4636 198.766 50.9886 198.504 51.3619 197.988C51.7541 197.453 51.9502 196.688 51.9502 195.7C51.9502 194.712 51.7541 193.954 51.3619 193.437C50.9886 192.902 50.4572 192.634 49.7803 192.634C49.1034 192.634 48.5531 192.902 48.1482 193.437C47.756 193.973 47.5599 194.731 47.5599 195.7C47.5599 196.669 47.756 197.427 48.1482 197.963C48.5594 198.498 49.1034 198.766 49.7803 198.766ZM61.4774 208.83C60.6423 208.83 59.9022 208.626 59.2569 208.224C58.6116 207.823 58.1056 207.262 57.7513 206.542C57.3907 205.821 57.2136 204.974 57.2136 203.999C57.2136 203.023 57.3907 202.182 57.7513 201.455C58.1119 200.735 58.6116 200.174 59.2569 199.773C59.9022 199.371 60.6423 199.167 61.4774 199.167C62.3124 199.167 63.0969 199.371 63.7232 199.773C64.3684 200.174 64.8745 200.735 65.2288 201.455C65.5831 202.176 65.7665 203.023 65.7665 203.999C65.7665 204.974 65.5894 205.815 65.2288 206.542C64.8682 207.262 64.3684 207.823 63.7232 208.224C63.0906 208.626 62.3441 208.83 61.4774 208.83ZM61.4774 207.064C62.1606 207.064 62.692 206.797 63.0842 206.261C63.4765 205.726 63.6726 204.967 63.6726 203.999C63.6726 203.03 63.4765 202.271 63.0842 201.736C62.692 201.201 62.1543 200.933 61.4774 200.933C60.8005 200.933 60.2754 201.201 59.8705 201.736C59.4783 202.259 59.2822 203.011 59.2822 203.999C59.2822 204.987 59.4783 205.751 59.8705 206.287C60.2817 206.809 60.8131 207.064 61.4774 207.064Z" fill="black"/>
</g>
<g clip-path="url(#clip1_15393_116521)">
<path d="M182.126 241C180.523 241 178.962 240.525 177.605 239.609L128.952 206.803C127.513 205.831 126.549 204.371 126.243 202.687C125.936 201.019 126.307 199.335 127.289 197.94L162.016 148.668C163.68 146.31 166.986 145.722 169.389 147.363L218.444 180.891C220.734 182.459 221.387 185.517 219.926 187.854L188.989 237.251C187.835 239.095 186.007 240.365 183.846 240.823C183.271 240.944 182.697 241.004 182.126 241.004V241ZM166.368 148.154C165.236 148.154 164.121 148.681 163.429 149.661L128.702 198.933C127.989 199.944 127.721 201.166 127.941 202.371C128.166 203.594 128.87 204.661 129.921 205.369L178.573 238.175C180.021 239.151 181.767 239.488 183.492 239.125C185.19 238.767 186.621 237.773 187.529 236.326L218.465 186.929C219.433 185.383 218.997 183.353 217.471 182.308L168.412 148.789C167.786 148.361 167.072 148.158 166.364 148.158L166.368 148.154Z" fill="#3D9BE9"/>
<path d="M214.148 177.042L202.924 213.593L200.4 221.822L196.882 233.273C196.423 234.767 194.79 235.605 193.268 235.117L192.27 234.802L190.079 234.102L152.426 222.085L144.94 219.697L137.696 217.381C135.457 216.664 134.057 214.6 134.139 212.41C134.156 211.961 134.234 211.507 134.381 211.053L134.684 210.12L144.244 180.865L147.619 170.542L151.825 157.67C152.3 156.205 153.908 155.398 155.403 155.864L192.171 167.324L210.626 173.073L212.285 173.591C213.768 174.053 214.593 175.587 214.148 177.042Z" fill="white"/>
<path d="M194.159 235.99C193.787 235.99 193.411 235.933 193.044 235.817L137.476 218.081C134.987 217.286 133.314 214.941 133.409 212.384C133.426 211.866 133.521 211.343 133.686 210.833L151.129 157.441C151.73 155.601 153.744 154.577 155.624 155.164L212.506 172.891C214.36 173.47 215.415 175.427 214.849 177.258L197.582 233.489C197.306 234.391 196.683 235.134 195.836 235.575C195.309 235.851 194.734 235.99 194.155 235.99H194.159ZM154.539 156.464C153.64 156.464 152.806 157.022 152.521 157.894L135.077 211.282C134.952 211.663 134.883 212.051 134.87 212.436C134.801 214.345 136.054 216.09 137.917 216.686L193.485 234.422C194.042 234.599 194.635 234.551 195.153 234.279C195.65 234.02 196.013 233.588 196.178 233.061L213.444 176.831C213.777 175.755 213.172 174.641 212.065 174.295L155.188 156.564C154.972 156.499 154.755 156.464 154.539 156.464Z" fill="black"/>
<path d="M213.072 173.863C206.801 180.865 207.471 180.865 203.888 180.865H144.071L147.434 170.581C151.056 169.57 158.896 168.831 166.926 168.831C176.957 168.831 186.509 168.002 194.418 167.324L213.076 173.863H213.072Z" fill="black"/>
<path d="M134.688 210.121L152.429 222.085L144.944 219.697L134.139 212.41C134.156 211.961 134.234 211.507 134.381 211.054L134.688 210.121Z" fill="black"/>
<path d="M202.928 213.589L200.404 221.818L192.274 234.798L190.087 234.098L202.928 213.589Z" fill="black"/>
<path d="M182.126 241C180.523 241 178.962 240.525 177.605 239.61L128.952 206.803C127.513 205.832 126.549 204.372 126.243 202.687C125.936 201.02 126.307 199.335 127.289 197.94L134.351 187.915L135.764 188.908L128.702 198.933C127.989 199.944 127.721 201.167 127.941 202.372C128.166 203.594 128.87 204.661 129.921 205.369L178.573 238.175C180.021 239.152 181.767 239.489 183.492 239.126C185.19 238.767 186.621 237.774 187.529 236.327L207.79 203.983L209.255 204.899L188.994 237.242C187.84 239.087 186.011 240.357 183.85 240.815C183.276 240.936 182.701 240.996 182.13 240.996L182.126 241Z" fill="#3D9BE9"/>
<path d="M143.172 184.584C143.172 184.584 141.184 182.701 139.192 181.038C137.204 179.375 138.055 175.768 138.055 166.058C138.055 163.285 138.341 163.561 155.953 163.561H214.222C221.854 163.561 219.326 164.823 212.493 171.682C205.664 178.541 205.388 179.332 202.544 179.332H144.741L143.172 184.584Z" fill="#3D9BE9"/>
<path d="M141.746 181.18C141.197 180.645 140.588 179.885 140.813 179.332C140.877 179.168 141.072 178.896 141.603 178.896H147.062V179.777H141.72C141.845 179.988 142.1 180.299 142.36 180.554L141.746 181.185V181.18Z" fill="black"/>
<path d="M143.648 186.169L142.636 185.098C142.636 185.098 140.756 183.111 138.82 181.487C137.147 180.088 137.216 177.755 137.359 172.637C137.411 170.866 137.471 168.663 137.471 166.054C137.471 165.319 137.471 164.564 138.033 164.002C139.088 162.948 141.491 162.952 151.566 162.97C152.892 162.97 154.349 162.974 155.952 162.974H214.222C217.822 162.974 219.032 163.25 219.399 164.153C219.862 165.289 218.492 166.624 215.488 169.552C214.723 170.3 213.858 171.142 212.908 172.097C211.883 173.125 211.006 174.019 210.245 174.792C205.88 179.237 205.206 179.919 202.543 179.919H145.07L143.648 184.778V186.169ZM148.575 164.136C142.239 164.136 139.486 164.209 138.863 164.831C138.677 165.017 138.647 165.345 138.647 166.054C138.647 168.676 138.582 170.892 138.535 172.671C138.401 177.397 138.34 179.552 139.576 180.589C140.847 181.651 142.053 182.826 142.788 183.565L144.197 178.744H202.552C204.674 178.744 205.055 178.407 209.415 173.967C210.176 173.194 211.058 172.295 212.082 171.267C213.033 170.313 213.902 169.462 214.675 168.715C216.508 166.931 218.401 165.082 218.314 164.589C218.206 164.43 217.528 164.149 214.226 164.149H155.957C154.353 164.149 152.897 164.149 151.57 164.145C150.494 164.145 149.5 164.145 148.579 164.145L148.575 164.136Z" fill="black"/>
<path d="M140.596 166.71L140.263 166.421L139.982 166.08C140.527 165.547 144.603 165.289 152.209 165.306C155.058 165.315 158.628 165.324 163.114 165.324V166.205C158.628 166.205 155.053 166.196 152.205 166.188C141.361 166.162 141.145 166.17 140.596 166.71Z" fill="white"/>
<path d="M179.525 165.302H169.614V166.183H179.525V165.302Z" fill="white"/>
<path d="M190.679 165.302H185.748V166.183H190.679V165.302Z" fill="white"/>
<path d="M212.735 165.302H195.697V166.183H212.735V165.302Z" fill="white"/>
<path d="M137.977 178.269C138.465 180.645 140.708 181.517 141.603 181.958C142.498 182.394 143.643 181.958 143.293 180.865C142.943 179.772 141.824 179.552 141.603 180.429C141.603 180.429 140.648 179.332 141.685 179.336C142.723 179.336 144.741 179.336 144.741 179.336L143.06 184.696C143.06 184.696 140.142 182.105 139.079 180.938C138.02 179.772 137.973 178.273 137.973 178.273L137.977 178.269Z" fill="black"/>
<path d="M147.685 175.081V168.957H150.533C151.216 168.957 151.816 169.086 152.335 169.341C152.854 169.591 153.26 169.946 153.554 170.399C153.848 170.853 153.995 171.393 153.995 172.019C153.995 172.645 153.848 173.177 153.554 173.639C153.26 174.092 152.854 174.451 152.335 174.706C151.816 174.956 151.216 175.081 150.533 175.081H147.685ZM149.132 173.915H150.459C150.879 173.915 151.237 173.837 151.544 173.686C151.855 173.531 152.093 173.306 152.262 173.021C152.434 172.736 152.521 172.399 152.521 172.015C152.521 171.63 152.434 171.289 152.262 171.008C152.093 170.723 151.855 170.503 151.544 170.352C151.237 170.196 150.879 170.114 150.459 170.114H149.132V173.911V173.915Z" fill="black"/>
<path d="M155.088 175.081V168.957H156.54V175.081H155.088Z" fill="black"/>
<path d="M160.088 175.185C159.587 175.185 159.107 175.12 158.645 174.991C158.187 174.857 157.815 174.684 157.534 174.477L158.027 173.41C158.295 173.596 158.61 173.751 158.978 173.872C159.349 173.989 159.721 174.045 160.097 174.045C160.382 174.045 160.616 174.019 160.789 173.967C160.966 173.907 161.1 173.829 161.182 173.729C161.264 173.63 161.307 173.518 161.307 173.388C161.307 173.224 161.242 173.094 161.108 173.004C160.979 172.904 160.802 172.827 160.59 172.766C160.374 172.701 160.136 172.645 159.872 172.589C159.617 172.533 159.354 172.46 159.094 172.377C158.839 172.295 158.602 172.192 158.386 172.062C158.17 171.933 157.992 171.764 157.858 171.552C157.729 171.341 157.66 171.073 157.66 170.749C157.66 170.399 157.755 170.08 157.945 169.794C158.144 169.501 158.433 169.272 158.822 169.103C159.215 168.926 159.708 168.84 160.3 168.84C160.694 168.84 161.083 168.887 161.467 168.978C161.852 169.064 162.189 169.198 162.479 169.38L162.029 170.455C161.735 170.291 161.446 170.17 161.152 170.097C160.858 170.015 160.573 169.976 160.292 169.976C160.011 169.976 159.782 170.006 159.6 170.071C159.423 170.136 159.293 170.218 159.215 170.326C159.138 170.425 159.099 170.542 159.099 170.676C159.099 170.831 159.164 170.961 159.298 171.06C159.427 171.155 159.604 171.228 159.816 171.289C160.032 171.345 160.266 171.406 160.525 171.466C160.789 171.527 161.048 171.591 161.303 171.669C161.567 171.747 161.804 171.846 162.02 171.976C162.237 172.105 162.409 172.274 162.539 172.485C162.677 172.697 162.747 172.961 162.747 173.28C162.747 173.626 162.647 173.941 162.453 174.226C162.254 174.511 161.96 174.745 161.567 174.917C161.178 175.09 160.685 175.181 160.088 175.181V175.185Z" fill="black"/>
<path d="M166.744 175.185C166.26 175.185 165.81 175.107 165.391 174.956C164.98 174.801 164.622 174.576 164.315 174.291C164.008 174.006 163.77 173.669 163.597 173.285C163.429 172.9 163.347 172.477 163.347 172.015C163.347 171.553 163.429 171.129 163.597 170.745C163.77 170.36 164.008 170.023 164.315 169.738C164.626 169.453 164.985 169.233 165.4 169.082C165.81 168.926 166.264 168.844 166.752 168.844C167.297 168.844 167.785 168.939 168.222 169.125C168.663 169.306 169.034 169.574 169.333 169.928L168.399 170.771C168.183 170.533 167.945 170.352 167.682 170.235C167.418 170.114 167.133 170.049 166.822 170.049C166.528 170.049 166.26 170.097 166.013 170.188C165.767 170.283 165.555 170.417 165.378 170.589C165.201 170.766 165.058 170.969 164.959 171.211C164.864 171.449 164.816 171.717 164.816 172.006C164.816 172.295 164.864 172.563 164.959 172.801C165.058 173.038 165.201 173.246 165.378 173.423C165.555 173.596 165.771 173.734 166.013 173.825C166.26 173.92 166.528 173.963 166.822 173.963C167.133 173.963 167.418 173.902 167.682 173.786C167.945 173.665 168.183 173.479 168.399 173.233L169.333 174.071C169.034 174.425 168.663 174.697 168.222 174.887C167.785 175.073 167.293 175.168 166.744 175.168V175.185Z" fill="black"/>
<path d="M173.227 175.185C172.73 175.185 172.272 175.107 171.849 174.948C171.429 174.792 171.066 174.567 170.755 174.282C170.453 173.997 170.211 173.66 170.038 173.276C169.869 172.892 169.787 172.473 169.787 172.015C169.787 171.557 169.869 171.138 170.038 170.753C170.211 170.369 170.453 170.032 170.764 169.747C171.075 169.462 171.438 169.237 171.857 169.082C172.277 168.926 172.73 168.844 173.219 168.844C173.707 168.844 174.17 168.922 174.58 169.082C174.999 169.237 175.358 169.462 175.665 169.747C175.976 170.032 176.218 170.369 176.391 170.753C176.564 171.134 176.65 171.553 176.65 172.015C176.65 172.477 176.564 172.892 176.391 173.285C176.218 173.669 175.976 174.006 175.665 174.291C175.362 174.572 174.999 174.788 174.58 174.948C174.17 175.107 173.716 175.185 173.227 175.185ZM173.219 173.98C173.5 173.98 173.755 173.933 173.988 173.842C174.226 173.747 174.438 173.613 174.615 173.44C174.792 173.263 174.93 173.056 175.025 172.818C175.125 172.581 175.177 172.313 175.177 172.023C175.177 171.734 175.125 171.466 175.025 171.229C174.93 170.991 174.792 170.784 174.615 170.607C174.442 170.429 174.234 170.296 173.997 170.205C173.759 170.11 173.495 170.067 173.219 170.067C172.942 170.067 172.679 170.114 172.441 170.205C172.207 170.3 172 170.434 171.823 170.607C171.641 170.784 171.503 170.987 171.404 171.229C171.308 171.466 171.261 171.734 171.261 172.023C171.261 172.313 171.308 172.576 171.404 172.818C171.503 173.056 171.641 173.263 171.814 173.44C171.991 173.613 172.203 173.751 172.441 173.842C172.679 173.937 172.938 173.98 173.219 173.98Z" fill="black"/>
<path d="M180.531 175.185C179.641 175.185 178.945 174.943 178.443 174.459C177.942 173.976 177.691 173.285 177.691 172.386V168.957H179.144V172.334C179.144 172.917 179.265 173.336 179.511 173.596C179.757 173.855 180.099 173.98 180.544 173.98C180.989 173.98 181.331 173.85 181.573 173.596C181.819 173.341 181.94 172.917 181.94 172.334V168.957H183.375V172.386C183.375 173.285 183.124 173.976 182.623 174.459C182.121 174.943 181.426 175.185 180.535 175.185H180.531Z" fill="black"/>
<path d="M184.806 175.081V168.957H186.007L189.707 173.367H189.123V168.957H190.558V175.081H189.365L185.657 170.671H186.241V175.081H184.806Z" fill="black"/>
<path d="M193.341 175.081V170.11H191.336V168.957H196.803V170.11H194.794V175.081H193.341Z" fill="black"/>
<path d="M154.159 208.034V192.389L155.563 193.81H150.511V191.188H157.361V208.039H154.159V208.034Z" fill="black"/>
<path d="M167.98 208.276C166.619 208.276 165.383 207.939 164.285 207.266C163.2 206.592 162.344 205.611 161.722 204.328C161.1 203.028 160.784 201.456 160.784 199.612C160.784 197.767 161.095 196.204 161.722 194.916C162.344 193.616 163.2 192.631 164.285 191.958C165.387 191.284 166.619 190.947 167.98 190.947C169.342 190.947 170.591 191.284 171.676 191.958C172.76 192.631 173.612 193.616 174.239 194.916C174.878 196.199 175.198 197.763 175.198 199.612C175.198 201.46 174.878 203.028 174.239 204.328C173.612 205.611 172.76 206.592 171.676 207.266C170.591 207.939 169.359 208.276 167.98 208.276ZM167.98 205.555C168.784 205.555 169.484 205.348 170.076 204.929C170.669 204.497 171.127 203.836 171.455 202.955C171.801 202.074 171.974 200.959 171.974 199.607C171.974 198.255 171.801 197.128 171.455 196.26C171.127 195.379 170.664 194.726 170.076 194.312C169.484 193.88 168.789 193.659 167.98 193.659C167.172 193.659 166.519 193.875 165.91 194.312C165.318 194.731 164.851 195.379 164.505 196.26C164.177 197.128 164.013 198.242 164.013 199.607C164.013 200.972 164.177 202.069 164.505 202.955C164.851 203.836 165.318 204.497 165.91 204.929C166.519 205.348 167.207 205.555 167.98 205.555Z" fill="black"/>
<path d="M179.78 208.034L191.561 191.184H193.977L182.196 208.034H179.78ZM181.21 200.259C180.406 200.259 179.689 200.065 179.067 199.68C178.444 199.296 177.956 198.756 177.614 198.069C177.269 197.378 177.096 196.57 177.096 195.637C177.096 194.704 177.269 193.897 177.614 193.206C177.96 192.514 178.444 191.979 179.067 191.594C179.693 191.21 180.406 191.016 181.21 191.016C182.014 191.016 182.77 191.21 183.38 191.594C184.002 191.979 184.491 192.519 184.832 193.206C185.178 193.897 185.351 194.704 185.351 195.637C185.351 196.57 185.178 197.378 184.832 198.069C184.486 198.76 184.002 199.296 183.38 199.68C182.77 200.065 182.049 200.259 181.21 200.259ZM181.236 198.575C181.893 198.575 182.403 198.324 182.762 197.827C183.142 197.313 183.328 196.583 183.328 195.637C183.328 194.691 183.138 193.97 182.762 193.473C182.399 192.959 181.893 192.705 181.236 192.705C180.579 192.705 180.052 192.964 179.659 193.473C179.278 193.987 179.092 194.709 179.092 195.637C179.092 196.566 179.283 197.292 179.659 197.806C180.052 198.32 180.579 198.575 181.236 198.575ZM192.521 208.203C191.717 208.203 191 208.008 190.377 207.624C189.755 207.239 189.266 206.699 188.925 206.013C188.579 205.322 188.406 204.514 188.406 203.581C188.406 202.648 188.579 201.84 188.925 201.149C189.271 200.458 189.755 199.922 190.377 199.538C191 199.153 191.717 198.959 192.521 198.959C193.325 198.959 194.081 199.153 194.691 199.538C195.317 199.922 195.801 200.462 196.143 201.149C196.489 201.84 196.661 202.648 196.661 203.581C196.661 204.514 196.489 205.322 196.143 206.013C195.797 206.704 195.313 207.239 194.691 207.624C194.081 208.008 193.359 208.203 192.521 208.203ZM192.521 206.518C193.178 206.518 193.696 206.259 194.073 205.749C194.449 205.235 194.639 204.514 194.639 203.585C194.639 202.656 194.449 201.931 194.073 201.421C193.692 200.907 193.178 200.652 192.521 200.652C191.864 200.652 191.363 200.907 190.969 201.421C190.593 201.918 190.403 202.639 190.403 203.585C190.403 204.531 190.593 205.261 190.969 205.775C191.363 206.272 191.881 206.522 192.521 206.522V206.518Z" fill="black"/>
</g>
<g clip-path="url(#clip2_15393_116521)">
<path d="M123.777 147.955C121.301 147.955 118.893 147.222 116.796 145.81L40.4694 94.338C38.2589 92.8472 36.777 90.6035 36.3043 88.0154C35.8317 85.4518 36.4028 82.8637 37.9142 80.7234L92.3957 3.41933C94.9411 -0.192227 100.002 -1.08774 103.675 1.42166L180.636 54.0205C184.142 56.4167 185.136 61.0911 182.901 64.6632L134.362 142.164C132.58 145.013 129.759 146.966 126.426 147.675C125.54 147.862 124.653 147.955 123.772 147.955H123.777ZM99.0521 2.29256C97.2107 2.29256 95.399 3.14871 94.2715 4.74291L39.79 82.0469C38.638 83.6805 38.2047 85.6536 38.5641 87.602C38.9284 89.5751 40.0608 91.2923 41.7544 92.4388L118.086 143.911C120.405 145.475 123.201 146.017 125.958 145.431C128.676 144.856 130.975 143.266 132.422 140.949L180.961 63.4479C182.542 60.9238 181.833 57.6173 179.347 55.9148L102.38 3.316C101.366 2.62223 100.204 2.28764 99.0521 2.28764V2.29256Z" fill="#3D9BE9"/>
<path d="M174.019 47.816L156.409 105.158L152.445 118.069L146.926 136.038C146.207 138.385 143.642 139.694 141.255 138.931L139.689 138.435L136.252 137.337L77.1825 118.487L65.4354 114.738L54.0675 111.112C50.5571 109.99 48.3613 106.747 48.4844 103.308C48.509 102.599 48.637 101.891 48.8635 101.182L49.3411 99.7161L64.3375 53.8139L69.6301 37.616L76.2273 17.4228C76.9757 15.125 79.4915 13.8605 81.8449 14.5887L139.527 32.5677L168.481 41.5868L171.085 42.3986C173.409 43.1219 174.709 45.528 174.005 47.8111L174.019 47.816Z" fill="white"/>
<path d="M142.658 140.137C142.091 140.137 141.52 140.048 140.964 139.871L53.7818 112.047C49.9466 110.821 47.3717 107.215 47.5144 103.269C47.544 102.472 47.6868 101.67 47.9428 100.877L48.4203 99.4111L75.3066 17.1178C76.2174 14.3181 79.2945 12.7633 82.15 13.6539L171.39 41.4688C174.216 42.3495 175.816 45.3312 174.96 48.1113L147.871 136.329C147.448 137.701 146.508 138.828 145.218 139.507C144.415 139.925 143.539 140.142 142.658 140.142V140.137ZM80.5007 15.3711C79.0237 15.3711 77.6501 16.2912 77.1775 17.7329L49.8136 101.487C49.6167 102.103 49.5035 102.727 49.4838 103.342C49.3705 106.408 51.3842 109.217 54.3825 110.172L141.565 137.997C142.48 138.287 143.455 138.203 144.307 137.761C145.129 137.332 145.725 136.619 145.991 135.753L173.079 47.5307C173.616 45.7839 172.596 43.9043 170.804 43.3483L139.246 33.5125L81.5691 15.5335C81.2146 15.4252 80.8552 15.3711 80.5056 15.3711H80.5007Z" fill="black"/>
<path d="M172.33 42.8317C162.489 53.8189 163.542 53.8189 157.92 53.8189H64.0713L69.3442 37.685C75.0257 36.1007 87.3241 34.9395 99.9229 34.9395C115.658 34.9395 130.644 33.6405 143.056 32.5728L172.33 42.8317Z" fill="black"/>
<path d="M49.3557 99.7163L77.1922 118.488L65.4451 114.738L48.4941 103.308C48.5188 102.6 48.6468 101.891 48.8732 101.183L49.3508 99.7163H49.3557Z" fill="black"/>
<path d="M156.414 105.158L152.451 118.069L139.699 138.435L136.263 137.337L156.409 105.163L156.414 105.158Z" fill="black"/>
<path d="M123.777 147.956C121.301 147.956 118.893 147.222 116.796 145.81L40.4694 94.3382C38.2589 92.8474 36.777 90.6037 36.3043 88.0156C35.8317 85.452 36.4028 82.8639 37.9142 80.7236L48.9966 64.998L50.8724 66.3216L39.79 82.0471C38.638 83.6807 38.2047 85.6538 38.5641 87.6022C38.9284 89.5753 40.0608 91.2925 41.7544 92.4341L118.086 143.906C120.405 145.471 123.201 146.012 125.958 145.427C128.676 144.851 130.975 143.257 132.422 140.944L164.207 90.1953L166.157 91.4106L134.372 142.159C132.59 145.008 129.769 146.962 126.436 147.67C125.549 147.857 124.663 147.951 123.782 147.951L123.777 147.956Z" fill="#3D9BE9"/>
<path d="M62.6631 59.6498C62.6631 59.6498 59.5418 56.6976 56.4204 54.0849C53.299 51.4722 54.6381 45.8137 54.6381 30.5803C54.6381 26.2257 55.0861 26.6636 82.7158 26.6636H174.132C186.106 26.6636 182.142 28.6466 171.424 39.4074C160.706 50.1683 160.278 51.4082 155.812 51.4082H65.1248L62.6631 59.6449V59.6498Z" fill="#3D9BE9"/>
<path d="M60.6647 54.0599C60.1478 53.5532 58.9711 52.2935 59.2764 51.5407C59.365 51.3242 59.5964 51.0684 60.2019 51.0684H68.7685V51.7572H60.2019C59.9706 51.7572 59.9115 51.8064 59.9115 51.8064C59.8475 51.9934 60.3693 52.8102 61.1472 53.5679L60.6647 54.0599Z" fill="black"/>
<path d="M63.2293 61.6767L61.9542 60.3286C61.9247 60.299 59.0002 57.2041 55.9527 54.6505C53.3975 52.5101 53.5008 48.8789 53.7273 40.9128C53.8061 38.1328 53.9046 34.6737 53.9046 30.58C53.9046 29.468 53.9046 28.3166 54.7317 27.4851C56.3367 25.8859 60.4673 25.8909 75.838 25.9155C77.9205 25.9155 80.2099 25.9204 82.7208 25.9204H174.137C179.622 25.9204 181.556 26.3435 182.093 27.6573C182.773 29.3253 180.651 31.3968 175.998 35.9333C174.797 37.1044 173.438 38.4329 171.951 39.9238C170.341 41.5376 168.968 42.94 167.776 44.1504C160.967 51.0733 159.923 52.1411 155.817 52.1411H65.5039L63.2293 59.9202V61.6718V61.6767ZM71.0574 27.3916C60.8563 27.3916 56.7945 27.5146 55.7705 28.5331C55.4308 28.8726 55.3766 29.4138 55.3766 30.58C55.3766 34.6934 55.2782 38.1672 55.1994 40.9521C54.9877 48.4262 54.8892 51.836 56.893 53.5188C58.9854 55.2704 61.0138 57.2632 62.1314 58.3949L64.3912 50.6649H155.808C159.293 50.6649 159.992 49.9515 166.708 43.1171C167.904 41.9018 169.283 40.4994 170.893 38.8806C172.389 37.3799 173.753 36.0514 174.954 34.8755C177.933 31.9675 181.015 28.9612 180.71 28.2133C180.557 27.8393 179.292 27.3965 174.122 27.3965H82.7158C80.2049 27.3965 77.9156 27.3965 75.833 27.3916C74.1099 27.3916 72.5196 27.3866 71.0574 27.3866V27.3916Z" fill="black"/>
<path d="M58.336 31.4068L57.8535 30.9147L57.8929 30.8754C58.6806 30.1045 64.9923 29.7338 76.828 29.7634C81.2984 29.7732 86.9011 29.788 93.9464 29.788V30.4768C86.9011 30.4768 81.2984 30.462 76.828 30.4522C59.5225 30.4079 59.3502 30.4178 58.3803 31.3674L58.3409 31.4068H58.336Z" fill="white"/>
<path d="M119.7 29.7485H104.152V30.4374H119.7V29.7485Z" fill="white"/>
<path d="M137.197 29.7485H129.458V30.4374H137.197V29.7485Z" fill="white"/>
<path d="M171.799 29.7485H145.07V30.4374H171.799V29.7485Z" fill="white"/>
<path d="M54.5156 49.75C55.2837 53.4748 58.7989 54.8475 60.207 55.5315C61.6151 56.2203 63.4071 55.5315 62.8607 53.8143C62.3142 52.0971 60.5565 51.7526 60.207 53.1303C60.207 53.1303 58.7103 51.4082 60.335 51.4131C61.9646 51.4131 65.1254 51.4131 65.1254 51.4131L62.4914 59.822C62.4914 59.822 57.9127 55.7578 56.2486 53.9274C54.5846 52.0971 54.5156 49.7451 54.5156 49.7451V49.75Z" fill="black"/>
<path d="M69.7383 44.7408V35.1313H74.2087C75.277 35.1313 76.2174 35.3331 77.0346 35.7366C77.8519 36.1302 78.487 36.6862 78.9449 37.3996C79.4028 38.1131 79.6342 38.9594 79.6342 39.9386C79.6342 40.9177 79.4028 41.7542 78.9449 42.4775C78.487 43.1909 77.847 43.7518 77.0346 44.1504C76.2174 44.544 75.277 44.7408 74.2087 44.7408H69.7383ZM72.0178 42.9154H74.1003C74.7551 42.9154 75.3263 42.7973 75.8038 42.5562C76.2912 42.3102 76.6654 41.9608 76.9263 41.5131C77.1971 41.0653 77.335 40.5388 77.335 39.9336C77.335 39.3284 77.1971 38.7921 76.9263 38.3542C76.6654 37.9064 76.2912 37.562 75.8038 37.3258C75.3263 37.0798 74.7601 36.9568 74.1003 36.9568H72.0178V42.9154Z" fill="black"/>
<path d="M81.3574 44.7408V35.1313H83.6369V44.7408H81.3574Z" fill="black"/>
<path d="M89.2049 44.9084C88.4171 44.9084 87.6639 44.81 86.9401 44.6082C86.2164 44.3966 85.6354 44.126 85.1973 43.7964L85.9702 42.1234C86.3936 42.4186 86.8909 42.6597 87.462 42.8516C88.0429 43.0337 88.6288 43.1272 89.2196 43.1272C89.6676 43.1272 90.032 43.0878 90.3028 43.0042C90.5834 42.9107 90.7902 42.7877 90.9231 42.6351C91.056 42.4777 91.12 42.3006 91.12 42.0988C91.12 41.843 91.0166 41.6412 90.8099 41.4936C90.6031 41.3362 90.3323 41.2132 89.9926 41.1246C89.6578 41.0262 89.2787 40.9327 88.8701 40.849C88.4664 40.7556 88.0577 40.6473 87.6491 40.5194C87.2454 40.3915 86.8761 40.2242 86.5364 40.0273C86.2016 39.8256 85.921 39.5599 85.7093 39.2302C85.5025 38.9006 85.3991 38.4774 85.3991 37.9657C85.3991 37.4146 85.5468 36.9177 85.8471 36.4699C86.1573 36.0123 86.6152 35.6482 87.2257 35.3874C87.846 35.1119 88.619 34.9741 89.5446 34.9741C90.1649 34.9741 90.7705 35.0479 91.3711 35.1955C91.9718 35.3333 92.4986 35.5449 92.9613 35.8253L92.2573 37.513C91.7994 37.2572 91.3367 37.0702 90.8788 36.9521C90.4209 36.8242 89.968 36.7602 89.5298 36.7602C89.0916 36.7602 88.7273 36.8094 88.4467 36.9127C88.166 37.0112 87.9642 37.144 87.8411 37.3113C87.718 37.4688 87.6589 37.6508 87.6589 37.8624C87.6589 38.1084 87.7623 38.3101 87.9691 38.4676C88.1759 38.6152 88.4467 38.7333 88.7864 38.8268C89.1212 38.9203 89.4953 39.0088 89.899 39.1023C90.3126 39.1958 90.7163 39.2991 91.12 39.4172C91.5336 39.5353 91.9078 39.6977 92.2475 39.8994C92.5823 40.1012 92.858 40.3669 93.0647 40.6965C93.2814 41.0262 93.3897 41.4444 93.3897 41.9463C93.3897 42.4875 93.2371 42.9796 92.9269 43.4273C92.6167 43.8751 92.1539 44.2392 91.5336 44.5098C90.9231 44.7853 90.1501 44.9231 89.2147 44.9231L89.2049 44.9084Z" fill="black"/>
<path d="M99.6474 44.9084C98.8892 44.9084 98.1802 44.7903 97.5254 44.5492C96.8805 44.3032 96.3192 43.9539 95.8367 43.5061C95.3542 43.0584 94.985 42.5319 94.7093 41.9267C94.4484 41.3215 94.3154 40.6572 94.3154 39.9339C94.3154 39.2106 94.4484 38.5464 94.7093 37.9412C94.9801 37.336 95.3542 36.8095 95.8367 36.3617C96.3241 35.914 96.8903 35.5696 97.5402 35.3334C98.1852 35.0874 98.8941 34.9644 99.6622 34.9644C100.514 34.9644 101.282 35.112 101.966 35.4023C102.66 35.6877 103.241 36.1059 103.709 36.6668L102.247 37.9855C101.907 37.6115 101.533 37.3311 101.119 37.149C100.706 36.9571 100.258 36.8587 99.7705 36.8587C99.3126 36.8587 98.8892 36.9325 98.5052 37.0801C98.1212 37.2277 97.7864 37.4393 97.5057 37.7099C97.2251 37.9855 97.0036 38.3102 96.846 38.6842C96.6983 39.0581 96.6195 39.4763 96.6195 39.9339C96.6195 40.3915 96.6934 40.8098 96.846 41.1837C97.0036 41.5577 97.2251 41.8824 97.5057 42.1579C97.7864 42.4335 98.1212 42.6451 98.5052 42.7878C98.8892 42.9354 99.3126 43.0092 99.7705 43.0092C100.258 43.0092 100.706 42.9157 101.119 42.7336C101.533 42.5417 101.907 42.2514 102.247 41.8676L103.709 43.1863C103.241 43.7423 102.66 44.1704 101.966 44.4656C101.282 44.7608 100.509 44.9035 99.6474 44.9035V44.9084Z" fill="black"/>
<path d="M109.819 44.9084C109.041 44.9084 108.317 44.7854 107.653 44.5394C106.998 44.2933 106.427 43.944 105.939 43.4963C105.462 43.0485 105.088 42.522 104.817 41.9168C104.556 41.3116 104.423 40.6523 104.423 39.9388C104.423 39.2254 104.556 38.566 104.817 37.9608C105.088 37.3556 105.467 36.8291 105.954 36.3814C106.441 35.9336 107.013 35.5843 107.667 35.3383C108.322 35.0922 109.036 34.9692 109.804 34.9692C110.572 34.9692 111.296 35.0922 111.941 35.3383C112.596 35.5843 113.167 35.9336 113.644 36.3814C114.132 36.8291 114.511 37.3556 114.782 37.9608C115.052 38.5562 115.19 39.2155 115.19 39.9388C115.19 40.6621 115.052 41.3165 114.782 41.9316C114.511 42.5368 114.132 43.0633 113.644 43.511C113.167 43.9489 112.6 44.2933 111.941 44.5394C111.296 44.7854 110.587 44.9084 109.819 44.9084ZM109.804 43.0141C110.247 43.0141 110.646 42.9402 111.015 42.7926C111.389 42.645 111.719 42.4334 112 42.1628C112.28 41.8873 112.497 41.5625 112.645 41.1886C112.802 40.8146 112.886 40.3964 112.886 39.9388C112.886 39.4812 112.807 39.063 112.645 38.689C112.497 38.3151 112.28 37.9903 112 37.7148C111.729 37.4393 111.404 37.2277 111.03 37.085C110.656 36.9374 110.247 36.8636 109.804 36.8636C109.361 36.8636 108.957 36.9374 108.583 37.085C108.219 37.2326 107.894 37.4442 107.613 37.7148C107.333 37.9903 107.111 38.3151 106.953 38.689C106.806 39.063 106.727 39.4812 106.727 39.9388C106.727 40.3964 106.801 40.8048 106.953 41.1886C107.111 41.5625 107.328 41.8873 107.598 42.1628C107.879 42.4384 108.209 42.6499 108.583 42.7926C108.957 42.9402 109.366 43.0141 109.804 43.0141Z" fill="black"/>
<path d="M121.276 44.9081C119.878 44.9081 118.79 44.5293 118.002 43.7666C117.214 43.0089 116.82 41.9215 116.82 40.5142V35.1313H119.1V40.4306C119.1 41.3458 119.292 42.0051 119.676 42.4086C120.06 42.8121 120.601 43.0138 121.296 43.0138C121.99 43.0138 122.526 42.8121 122.91 42.4086C123.294 42.0051 123.486 41.3458 123.486 40.4306V35.1313H125.736V40.5142C125.736 41.9264 125.343 43.0089 124.555 43.7666C123.767 44.5243 122.674 44.9081 121.281 44.9081H121.276Z" fill="black"/>
<path d="M127.981 44.7408V35.1313H129.867L135.672 42.0543H134.756V35.1313H137.006V44.7408H135.135L129.316 37.8179H130.231V44.7408H127.981Z" fill="black"/>
<path d="M141.377 44.7408V36.942H138.227V35.1313H146.803V36.942H143.652V44.7408H141.373H141.377Z" fill="black"/>
<path d="M83.0412 95.9967V71.4538L85.2469 73.6828H77.3203V69.5693H88.0679V96.0016H83.0412V95.9967Z" fill="black"/>
<path d="M102.405 96.3755C100.495 96.3755 98.6288 96.1098 96.7973 95.5834C94.9954 95.0274 93.4741 94.2745 92.2334 93.32L94.3603 89.5067C95.34 90.289 96.5265 90.9188 97.9198 91.3961C99.3378 91.8734 100.805 92.1145 102.326 92.1145C104.104 92.1145 105.497 91.7504 106.501 91.0222C107.53 90.294 108.047 89.3099 108.047 88.0749C108.047 87.2433 107.826 86.5151 107.392 85.8853C106.979 85.2555 106.23 84.7782 105.147 84.4486C104.089 84.1189 102.636 83.9565 100.78 83.9565H94.247L95.6403 69.5693H111.533V73.6828H97.4964L100.125 71.3407L99.0817 82.1015L96.4527 79.7988H101.903C104.581 79.7988 106.738 80.1531 108.357 80.8567C110.007 81.5357 111.208 82.4952 111.951 83.7253C112.724 84.9357 113.113 86.3183 113.113 87.8781C113.113 89.4378 112.724 90.8254 111.951 92.1096C111.178 93.3938 109.992 94.4271 108.392 95.2045C106.821 95.9868 104.822 96.3755 102.4 96.3755H102.405Z" fill="black"/>
<path d="M119.424 95.9967L137.906 69.5645H141.697L123.215 95.9967H119.424ZM121.669 83.7991C120.409 83.7991 119.286 83.499 118.307 82.8938C117.327 82.2886 116.569 81.4472 116.027 80.3647C115.486 79.2822 115.215 78.0128 115.215 76.5514C115.215 75.0901 115.486 73.8206 116.027 72.7381C116.569 71.6556 117.327 70.8143 118.307 70.2091C119.286 69.6039 120.409 69.3037 121.669 69.3037C122.93 69.3037 124.116 69.6039 125.071 70.2091C126.051 70.8143 126.809 71.6556 127.351 72.7381C127.892 73.8206 128.163 75.0901 128.163 76.5514C128.163 78.0128 127.892 79.2822 127.351 80.3647C126.809 81.4472 126.051 82.2886 125.071 82.8938C124.116 83.499 122.984 83.7991 121.669 83.7991ZM121.709 81.1569C122.738 81.1569 123.54 80.7682 124.106 79.9858C124.697 79.1789 124.997 78.0325 124.997 76.5514C124.997 75.0704 124.702 73.9338 124.106 73.1514C123.54 72.3445 122.738 71.941 121.709 71.941C120.68 71.941 119.853 72.3445 119.232 73.1514C118.641 73.9584 118.341 75.0901 118.341 76.5514C118.341 78.0128 118.637 79.1445 119.232 79.9514C119.853 80.7583 120.675 81.1618 121.709 81.1618V81.1569ZM139.418 96.2624C138.153 96.2624 137.035 95.9623 136.055 95.3571C135.076 94.7519 134.317 93.9105 133.776 92.828C133.234 91.7455 132.963 90.4761 132.963 89.0147C132.963 87.5534 133.234 86.2839 133.776 85.2014C134.317 84.119 135.076 83.2776 136.055 82.6724C137.035 82.0672 138.158 81.767 139.418 81.767C140.678 81.767 141.865 82.0672 142.82 82.6724C143.8 83.2776 144.558 84.119 145.099 85.2014C145.641 86.2839 145.912 87.5534 145.912 89.0147C145.912 90.4761 145.641 91.7455 145.099 92.828C144.558 93.9105 143.8 94.7519 142.82 95.3571C141.865 95.9623 140.732 96.2624 139.418 96.2624ZM139.418 93.6153C140.452 93.6153 141.259 93.2118 141.855 92.4049C142.446 91.5979 142.746 90.4662 142.746 89.0049C142.746 87.5435 142.451 86.4119 141.855 85.6049C141.264 84.798 140.452 84.3945 139.418 84.3945C138.384 84.3945 137.601 84.798 136.981 85.6049C136.39 86.3873 136.09 87.5189 136.09 89.0049C136.09 90.4908 136.385 91.6373 136.981 92.4393C137.601 93.2217 138.414 93.6104 139.418 93.6104V93.6153Z" fill="black"/>
</g>
<defs>
<clipPath id="clip0_15393_116521">
<rect width="94.5696" height="94.5696" fill="white" transform="translate(0.296875 146.431)"/>
</clipPath>
<clipPath id="clip1_15393_116521">
<rect width="94.5696" height="94.5696" fill="white" transform="translate(126.135 146.431)"/>
</clipPath>
<clipPath id="clip2_15393_116521">
<rect width="147.956" height="147.956" fill="white" transform="translate(36.1416)"/>
</clipPath>
</defs>
</svg>
