<svg width="30" height="28" viewBox="0 0 30 28" fill="none" xmlns="http://www.w3.org/2000/svg">
<path d="M29.2482 22.545L17.797 2.29591C17.5108 1.79981 17.1023 1.38848 16.6119 1.10267C16.1216 0.81686 15.5663 0.666504 15.0013 0.666504C14.4363 0.666504 13.881 0.81686 13.3907 1.10267C12.9003 1.38848 12.4918 1.79981 12.2056 2.29591L0.754415 22.545C0.479084 23.0249 0.333984 23.5706 0.333984 24.1264C0.333984 24.6821 0.479084 25.2278 0.754415 25.7077C1.0369 26.2068 1.44472 26.6203 1.93602 26.906C2.42731 27.1916 2.9844 27.339 3.55011 27.333H26.4525C27.0178 27.3385 27.5743 27.1909 28.0651 26.9053C28.5559 26.6197 28.9633 26.2064 29.2456 25.7077C29.5213 25.2281 29.6669 24.6825 29.6673 24.1267C29.6678 23.571 29.5231 23.0251 29.2482 22.545ZM27.432 24.6397C27.3321 24.8131 27.1888 24.9563 27.0167 25.0547C26.8446 25.1531 26.6499 25.2032 26.4525 25.1997H3.55011C3.35274 25.2032 3.15802 25.1531 2.9859 25.0547C2.81378 24.9563 2.67046 24.8131 2.57063 24.6397C2.48021 24.4838 2.43251 24.3061 2.43251 24.125C2.43251 23.944 2.48021 23.7662 2.57063 23.6104L14.0218 3.36123C14.1237 3.18866 14.2676 3.04587 14.4397 2.94673C14.6118 2.8476 14.8062 2.7955 15.0039 2.7955C15.2017 2.7955 15.396 2.8476 15.5681 2.94673C15.7402 3.04587 15.8842 3.18866 15.986 3.36123L27.4372 23.6104C27.5269 23.7667 27.5736 23.9447 27.5727 24.1258C27.5718 24.3068 27.5232 24.4843 27.432 24.6397ZM13.9537 16.6664V11.3332C13.9537 11.0503 14.0641 10.7789 14.2606 10.5789C14.457 10.3789 14.7235 10.2665 15.0013 10.2665C15.2791 10.2665 15.5456 10.3789 15.742 10.5789C15.9385 10.7789 16.0489 11.0503 16.0489 11.3332V16.6664C16.0489 16.9493 15.9385 17.2206 15.742 17.4207C15.5456 17.6207 15.2791 17.7331 15.0013 17.7331C14.7235 17.7331 14.457 17.6207 14.2606 17.4207C14.0641 17.2206 13.9537 16.9493 13.9537 16.6664ZM16.5727 21.4664C16.5727 21.7828 16.4805 22.0922 16.3078 22.3553C16.1352 22.6184 15.8898 22.8235 15.6026 22.9446C15.3155 23.0657 14.9996 23.0974 14.6947 23.0356C14.3899 22.9739 14.11 22.8215 13.8902 22.5977C13.6704 22.374 13.5208 22.0889 13.4601 21.7785C13.3995 21.4682 13.4306 21.1465 13.5496 20.8541C13.6685 20.5617 13.8699 20.3119 14.1283 20.136C14.3867 19.9602 14.6905 19.8664 15.0013 19.8664C15.4181 19.8664 15.8177 20.035 16.1124 20.335C16.4071 20.6351 16.5727 21.042 16.5727 21.4664Z" fill="#333333"/>
</svg>
