<svg width="18" height="19" viewBox="0 0 18 19" fill="none" xmlns="http://www.w3.org/2000/svg">
<circle cx="9" cy="9.5" r="8.5" stroke="#333333"/>
<path fill-rule="evenodd" clip-rule="evenodd" d="M5.14645 12.6464C4.95118 12.8417 4.95118 13.1583 5.14645 13.3536C5.34171 13.5488 5.65829 13.5488 5.85355 13.3536L9 10.2071L12.1464 13.3536C12.3417 13.5488 12.6583 13.5488 12.8536 13.3536C13.0488 13.1583 13.0488 12.8417 12.8536 12.6464L9.70711 9.5L12.8536 6.35355C13.0488 6.15829 13.0488 5.84171 12.8536 5.64645C12.6583 5.45118 12.3417 5.45118 12.1464 5.64645L9 8.79289L5.85355 5.64645C5.65829 5.45118 5.34171 5.45118 5.14645 5.64645C4.95118 5.84171 4.95118 6.15829 5.14645 6.35355L8.29289 9.5L5.14645 12.6464Z" fill="#333333"/>
</svg>
