<svg width="229" height="229" viewBox="0 0 229 229" fill="none" xmlns="http://www.w3.org/2000/svg">
<path d="M8.31403 89.8579H3.70801V174.167H8.31403V89.8579Z" fill="white"/>
<path d="M3.70801 171.292C4.2634 172.198 6.80522 172.356 6.80522 170.576V94.5121C6.80522 92.0061 3.70801 92.4483 3.70801 92.4483V90.9321H8.31403V173.555H3.70801V171.292Z" fill="#3D9BE9"/>
<path d="M8.77874 174.614H3.24707V89.4102H8.77874V174.614ZM4.17272 173.719H7.85309V90.3052H4.17272V173.719Z" fill="#333333"/>
<path d="M11.7538 186.518H2.6214C2.25114 186.518 1.89569 186.376 1.63466 186.122L0.870074 185.383C0.609041 185.131 0.460938 184.787 0.460938 184.429V175.747C0.460938 175.389 0.60719 175.046 0.870074 174.793L1.74203 173.95C2.00307 173.698 2.35852 173.555 2.72877 173.555H11.7538C12.5258 173.555 13.1497 174.16 13.1497 174.904V185.166C13.1497 185.913 12.524 186.516 11.7538 186.516V186.518Z" fill="#3D9BE9"/>
<path d="M11.7539 186.966H2.62143C2.12529 186.966 1.65691 186.78 1.30701 186.44L0.544281 185.702C0.192535 185.362 0 184.911 0 184.431V175.75C0 175.27 0.192535 174.819 0.544281 174.479L1.41624 173.636C1.76799 173.296 2.23451 173.109 2.73066 173.109H11.7557C12.7813 173.109 13.6144 173.917 13.6144 174.907V185.169C13.6144 186.16 12.7795 186.966 11.7557 186.966H11.7539ZM2.72881 174.003C2.48259 174.003 2.24192 174.099 2.0679 174.268L1.19594 175.111C1.02191 175.279 0.921945 175.512 0.921945 175.75V184.431C0.921945 184.673 1.01821 184.898 1.19594 185.07L1.95867 185.808C2.13454 185.978 2.36966 186.073 2.61958 186.073H11.752C12.2667 186.073 12.6851 185.668 12.6851 185.17V174.908C12.6851 174.411 12.2667 174.006 11.752 174.006H2.72881V174.003Z" fill="#333333"/>
<path d="M22.9619 165.038H19.0742V171.081H22.9619V165.038Z" fill="#3D9BE9"/>
<path d="M23.4247 171.528H18.6113V164.59H23.4247V171.528ZM19.537 170.633H22.499V165.485H19.537V170.633Z" fill="#333333"/>
<path d="M22.9619 187.234H19.0742V193.277H22.9619V187.234Z" fill="#3D9BE9"/>
<path d="M23.4247 193.724H18.6113V186.786H23.4247V193.724ZM19.537 192.829H22.499V187.681H19.537V192.829Z" fill="#333333"/>
<path d="M28.216 170.766H13.8203C13.1434 170.766 12.5947 171.297 12.5947 171.951V187.481C12.5947 188.136 13.1434 188.666 13.8203 188.666H28.216C28.8928 188.666 29.4415 188.136 29.4415 187.481V171.951C29.4415 171.297 28.8928 170.766 28.216 170.766Z" fill="#3D9BE9"/>
<path d="M28.2177 189.114H13.8202C12.889 189.114 12.1318 188.382 12.1318 187.481V171.949C12.1318 171.049 12.889 170.317 13.8202 170.317H28.2177C29.1489 170.317 29.9061 171.049 29.9061 171.949V187.481C29.9061 188.382 29.1489 189.114 28.2177 189.114ZM13.8202 171.214C13.4 171.214 13.0575 171.545 13.0575 171.951V187.483C13.0575 187.889 13.4 188.22 13.8202 188.22H28.2177C28.638 188.22 28.9805 187.889 28.9805 187.483V171.951C28.9805 171.545 28.638 171.214 28.2177 171.214H13.8202Z" fill="#333333"/>
<path d="M9.52196 48.1509H3.22755C2.77666 48.1509 2.41113 48.5043 2.41113 48.9403V90.1425C2.41113 90.5785 2.77666 90.9319 3.22755 90.9319H9.52196C9.97285 90.9319 10.3384 90.5785 10.3384 90.1425V48.9403C10.3384 48.5043 9.97285 48.1509 9.52196 48.1509Z" fill="#3D9BE9"/>
<path d="M9.52384 91.3792H3.22944C2.5241 91.3792 1.9502 90.8243 1.9502 90.1423V48.94C1.9502 48.258 2.5241 47.7031 3.22944 47.7031H9.52384C10.2292 47.7031 10.8031 48.258 10.8031 48.94V90.1423C10.8031 90.8243 10.2292 91.3792 9.52384 91.3792ZM3.22944 48.5981C3.03505 48.5981 2.87584 48.7521 2.87584 48.94V90.1423C2.87584 90.3302 3.03505 90.4842 3.22944 90.4842H9.52384C9.71823 90.4842 9.87744 90.3302 9.87744 90.1423V48.94C9.87744 48.7521 9.71823 48.5981 9.52384 48.5981H3.22944Z" fill="#333333"/>
<path d="M20.6469 227.151C27.9574 227.151 33.8837 221.421 33.8837 214.353C33.8837 207.284 27.9574 201.554 20.6469 201.554C13.3365 201.554 7.41016 207.284 7.41016 214.353C7.41016 221.421 13.3365 227.151 20.6469 227.151Z" fill="white"/>
<path d="M20.6468 200.659C13.399 200.659 7.42298 205.924 6.58435 212.713C6.53806 213.093 6.50659 213.477 6.49363 213.868C6.48808 214.029 6.48438 214.19 6.48438 214.353C6.48438 221.915 12.8251 228.046 20.6468 228.046C28.4685 228.046 34.8092 221.915 34.8092 214.353C34.8092 206.79 28.4685 200.659 20.6468 200.659ZM20.6468 224.287C20.158 224.287 19.6767 224.255 19.2046 224.189C14.2135 223.512 10.3721 219.366 10.3721 214.353C10.3721 208.866 14.9726 204.418 20.6468 204.418C24.6178 204.418 28.0631 206.597 29.7737 209.786C30.5068 211.154 30.9215 212.706 30.9215 214.353C30.9215 219.839 26.321 224.287 20.6468 224.287Z" fill="#3D9BE9"/>
<path d="M20.6467 228.493C12.5825 228.493 6.02148 222.15 6.02148 214.352C6.02148 214.184 6.02519 214.018 6.03074 213.853C6.0437 213.466 6.07517 213.065 6.12516 212.661C7.00267 205.564 13.2452 200.211 20.6467 200.211C28.711 200.211 35.2719 206.555 35.2719 214.352C35.2719 222.15 28.711 228.493 20.6467 228.493ZM20.6467 201.106C13.7136 201.106 7.86537 206.118 7.0434 212.766C6.99712 213.144 6.9675 213.52 6.95639 213.882C6.95083 214.039 6.94713 214.195 6.94713 214.352C6.94713 221.656 13.0934 227.598 20.6467 227.598C28.2 227.598 34.3463 221.656 34.3463 214.352C34.3463 207.049 28.2 201.106 20.6467 201.106Z" fill="#333333"/>
<path d="M20.6477 224.735C20.133 224.735 19.6258 224.701 19.1389 224.631C13.8793 223.918 9.91016 219.499 9.91016 214.353C9.91016 208.628 14.7272 203.971 20.6477 203.971C24.6742 203.971 28.3305 206.12 30.1855 209.581C30.9816 211.066 31.3852 212.672 31.3852 214.353C31.3852 220.077 26.5681 224.735 20.6477 224.735ZM20.6477 204.866C15.2382 204.866 10.8358 209.122 10.8358 214.353C10.8358 219.055 14.4606 223.093 19.2703 223.745C19.7165 223.807 20.1793 223.84 20.6477 223.84C26.0572 223.84 30.4595 219.583 30.4595 214.353C30.4595 212.815 30.0911 211.349 29.3636 209.992C27.6678 206.829 24.328 204.866 20.6477 204.866Z" fill="#333333"/>
<path d="M25.5521 214.353C25.5521 216.973 23.3565 219.096 20.6462 219.096C18.3376 219.096 16.403 217.557 15.8809 215.481C15.7884 215.119 15.7402 214.741 15.7402 214.353C15.7402 211.732 17.9359 209.609 20.6462 209.609C21.7347 209.609 22.74 209.951 23.5546 210.531C23.5546 210.531 23.5546 210.532 23.5546 210.533C24.7653 211.398 25.5502 212.787 25.5502 214.353H25.5521Z" fill="#3D9BE9"/>
<path d="M20.6461 219.544C18.1617 219.544 16.0179 217.917 15.431 215.586C15.3292 215.189 15.2773 214.773 15.2773 214.353C15.2773 211.49 17.6859 209.162 20.6461 209.162C21.7495 209.162 22.8047 209.48 23.7063 210.085H23.71L23.784 210.137C23.7989 210.148 23.8155 210.159 23.8303 210.169L24.0192 210.311C25.2743 211.294 26.0167 212.786 26.0167 214.351C26.0167 217.213 23.6082 219.542 20.648 219.542L20.6461 219.544ZM20.6461 210.057C18.1968 210.057 16.203 211.984 16.203 214.353C16.203 214.7 16.2456 215.044 16.3307 215.373C16.8158 217.303 18.5912 218.649 20.6461 218.649C23.0954 218.649 25.0892 216.721 25.0892 214.353C25.0892 213.042 24.4598 211.793 23.399 210.98H23.0935V210.765C22.366 210.302 21.5255 210.057 20.6461 210.057Z" fill="#333333"/>
<path d="M36.6442 191.53H10.3892C9.76649 191.53 9.26172 192.018 9.26172 192.62V198.853C9.26172 199.455 9.76649 199.943 10.3892 199.943H36.6442C37.2669 199.943 37.7717 199.455 37.7717 198.853V192.62C37.7717 192.018 37.2669 191.53 36.6442 191.53Z" fill="white"/>
<path d="M9.26172 196.605C9.26172 198.153 9.44685 198.343 12.594 198.343H33.1434C36.1055 198.343 34.0691 191.53 34.0691 191.53H35.7352L37.0497 199.943H10.6021C9.86154 199.943 9.26172 199.363 9.26172 198.647V196.605Z" fill="#3D9BE9"/>
<path d="M36.646 200.391H10.3891C9.51158 200.391 8.79883 199.702 8.79883 198.853V192.621C8.79883 191.772 9.51158 191.083 10.3891 191.083H36.6442C37.5217 191.083 38.2344 191.772 38.2344 192.621V198.853C38.2344 199.702 37.5217 200.391 36.6442 200.391H36.646ZM10.3909 191.978C10.0244 191.978 9.72633 192.266 9.72633 192.621V198.853C9.72633 199.208 10.0244 199.496 10.3909 199.496H36.646C37.0126 199.496 37.3106 199.208 37.3106 198.853V192.621C37.3106 192.266 37.0126 191.978 36.646 191.978H10.3891H10.3909Z" fill="#333333"/>
<path d="M58.9204 213.189H40.1761C39.5392 213.189 38.9968 212.738 38.9042 212.127L32.1822 168.004C32.0933 167.422 31.5953 166.98 30.99 166.944L15.0947 166.003C14.4172 165.963 13.8877 165.419 13.8877 164.762V158.76C13.8877 158.075 14.4634 157.518 15.1725 157.518H46.0077C46.6038 157.518 47.1221 157.915 47.2591 158.478L60.1701 211.662C60.3589 212.442 59.748 213.189 58.9186 213.189H58.9204Z" fill="white"/>
<path d="M60.5419 213.189L39.015 212.844L38.6484 210.438C39.8462 211.157 41.8641 211.578 45.5464 211.578C53.5069 211.578 57.5798 212.115 57.7649 210.146C57.95 208.177 45.4705 157.52 45.4705 157.52H47.0274L60.5419 213.189Z" fill="#3D9BE9"/>
<path d="M61.1273 213.637H40.1781C39.3172 213.637 38.5748 213.015 38.449 212.192L31.7269 168.069C31.6714 167.698 31.3492 167.413 30.9642 167.39L15.069 166.449C14.1489 166.395 13.4287 165.654 13.4287 164.762V158.761C13.4287 157.828 14.2137 157.071 15.1763 157.071H46.0115C46.8279 157.071 47.5277 157.608 47.7128 158.374L61.1273 213.635V213.637ZM15.1763 157.968C14.7228 157.968 14.3544 158.324 14.3544 158.762V164.764C14.3544 165.183 14.6931 165.532 15.1263 165.557L31.0216 166.499C31.8417 166.547 32.5248 167.154 32.6433 167.94L39.3654 212.063C39.4246 212.45 39.7745 212.742 40.1781 212.742H59.9592L46.8113 158.582C46.7242 158.22 46.3947 157.968 46.0115 157.968H15.1763Z" fill="#333333"/>
<path d="M46.1033 198.868C47.8414 198.868 49.2505 197.506 49.2505 195.825C49.2505 194.145 47.8414 192.782 46.1033 192.782C44.3651 192.782 42.9561 194.145 42.9561 195.825C42.9561 197.506 44.3651 198.868 46.1033 198.868Z" fill="#3D9BE9"/>
<path d="M46.1032 199.316C44.113 199.316 42.4932 197.75 42.4932 195.825C42.4932 193.901 44.113 192.335 46.1032 192.335C48.0933 192.335 49.7132 193.901 49.7132 195.825C49.7132 197.75 48.0933 199.316 46.1032 199.316ZM46.1032 193.23C44.6222 193.23 43.4188 194.393 43.4188 195.825C43.4188 197.257 44.6222 198.421 46.1032 198.421C47.5842 198.421 48.7876 197.257 48.7876 195.825C48.7876 194.393 47.5842 193.23 46.1032 193.23Z" fill="#333333"/>
<path d="M226.009 213.189H38.9209C37.9792 213.189 37.2158 213.928 37.2158 214.838V221.028C37.2158 221.938 37.9792 222.676 38.9209 222.676H226.009C226.951 222.676 227.714 221.938 227.714 221.028V214.838C227.714 213.928 226.951 213.189 226.009 213.189Z" fill="white"/>
<path d="M37.2164 219.517C37.2164 221.244 37.5867 221.065 44.9919 221.065H221.791C224.753 221.065 225.678 220.528 225.678 217.485V213.189C226.804 213.189 227.715 214.07 227.715 215.158V220.997C227.715 221.925 226.937 222.676 225.978 222.676H38.9881C37.9347 222.676 37.0943 221.823 37.1479 220.804L37.2164 219.517Z" fill="#3D9BE9"/>
<path d="M226.011 223.124H38.9208C37.7249 223.124 36.7529 222.184 36.7529 221.027V214.836C36.7529 213.679 37.7249 212.74 38.9208 212.74H226.011C227.207 212.74 228.179 213.679 228.179 214.836V221.027C228.179 222.184 227.207 223.124 226.011 223.124ZM38.9208 213.637C38.2358 213.637 37.6786 214.175 37.6786 214.838V221.029C37.6786 221.692 38.2358 222.23 38.9208 222.23H226.011C226.696 222.23 227.253 221.692 227.253 221.029V214.838C227.253 214.175 226.696 213.637 226.011 213.637H38.9208Z" fill="#333333"/>
<path d="M139.522 160.384H69.1285C67.556 160.384 66.2812 161.616 66.2812 163.137V210.436C66.2812 211.956 67.556 213.189 69.1285 213.189H139.522C141.095 213.189 142.369 211.956 142.369 210.436V163.137C142.369 161.616 141.095 160.384 139.522 160.384Z" fill="#3D9BE9"/>
<path d="M139.522 213.636H69.1304C67.3051 213.636 65.8203 212.201 65.8203 210.436V163.139C65.8203 161.374 67.3051 159.938 69.1304 159.938H139.522C141.348 159.938 142.832 161.374 142.832 163.139V210.436C142.832 212.201 141.348 213.636 139.522 213.636ZM69.1304 160.831C67.816 160.831 66.746 161.866 66.746 163.137V210.434C66.746 211.705 67.816 212.739 69.1304 212.739H139.522C140.837 212.739 141.907 211.705 141.907 210.434V163.137C141.907 161.866 140.837 160.831 139.522 160.831H69.1304Z" fill="#333333"/>
<path d="M215.981 160.384H145.588C144.015 160.384 142.74 161.616 142.74 163.137V210.436C142.74 211.956 144.015 213.189 145.588 213.189H215.981C217.554 213.189 218.828 211.956 218.828 210.436V163.137C218.828 161.616 217.554 160.384 215.981 160.384Z" fill="#3D9BE9"/>
<path d="M215.981 213.636H145.589C143.764 213.636 142.279 212.201 142.279 210.436V163.139C142.279 161.374 143.764 159.938 145.589 159.938H215.981C217.807 159.938 219.291 161.374 219.291 163.139V210.436C219.291 212.201 217.807 213.636 215.981 213.636ZM145.589 160.831C144.275 160.831 143.205 161.866 143.205 163.137V210.434C143.205 211.705 144.275 212.739 145.589 212.739H215.981C217.296 212.739 218.366 211.705 218.366 210.434V163.137C218.366 161.866 217.296 160.831 215.981 160.831H145.589Z" fill="#333333"/>
<path d="M134.06 107.132H63.6666C62.0941 107.132 60.8193 108.364 60.8193 109.885V157.184C60.8193 158.704 62.0941 159.937 63.6666 159.937H134.06C135.633 159.937 136.908 158.704 136.908 157.184V109.885C136.908 108.364 135.633 107.132 134.06 107.132Z" fill="#3D9BE9"/>
<path d="M134.06 160.384H63.6685C61.8431 160.384 60.3584 158.949 60.3584 157.184V109.885C60.3584 108.12 61.8431 106.684 63.6685 106.684H134.06C135.886 106.684 137.37 108.12 137.37 109.885V157.184C137.37 158.949 135.886 160.384 134.06 160.384ZM63.6685 107.579C62.3541 107.579 61.284 108.614 61.284 109.885V157.184C61.284 158.454 62.3541 159.489 63.6685 159.489H134.06C135.375 159.489 136.445 158.454 136.445 157.184V109.885C136.445 108.614 135.375 107.579 134.06 107.579H63.6685Z" fill="#333333"/>
<path d="M210.52 107.131H140.127C138.554 107.131 137.279 108.364 137.279 109.884V157.183C137.279 158.704 138.554 159.936 140.127 159.936H210.52C212.093 159.936 213.368 158.704 213.368 157.183V109.884C213.368 108.364 212.093 107.131 210.52 107.131Z" fill="#3D9BE9"/>
<path d="M210.52 160.384H140.128C138.303 160.384 136.818 158.949 136.818 157.184V109.885C136.818 108.12 138.303 106.684 140.128 106.684H210.52C212.346 106.684 213.83 108.12 213.83 109.885V157.184C213.83 158.949 212.346 160.384 210.52 160.384ZM140.128 107.579C138.814 107.579 137.744 108.614 137.744 109.885V157.184C137.744 158.454 138.814 159.489 140.128 159.489H210.52C211.835 159.489 212.905 158.454 212.905 157.184V109.885C212.905 108.614 211.835 107.579 210.52 107.579H140.128Z" fill="#333333"/>
<path d="M139.615 53.9692H69.2213C67.6488 53.9692 66.374 55.2018 66.374 56.7223V104.021C66.374 105.542 67.6488 106.774 69.2213 106.774H139.615C141.187 106.774 142.462 105.542 142.462 104.021V56.7223C142.462 55.2018 141.187 53.9692 139.615 53.9692Z" fill="#3D9BE9"/>
<path d="M139.615 107.222H69.2232C67.3978 107.222 65.9131 105.786 65.9131 104.021V56.722C65.9131 54.9571 67.3978 53.5215 69.2232 53.5215H139.615C141.44 53.5215 142.925 54.9571 142.925 56.722V104.021C142.925 105.786 141.44 107.222 139.615 107.222ZM69.2232 54.4165C67.9088 54.4165 66.8387 55.4511 66.8387 56.722V104.021C66.8387 105.292 67.9088 106.327 69.2232 106.327H139.615C140.929 106.327 141.999 105.292 141.999 104.021V56.722C141.999 55.4511 140.929 54.4165 139.615 54.4165H69.2232Z" fill="#333333"/>
<path d="M216.074 53.9692H145.68C144.108 53.9692 142.833 55.2018 142.833 56.7223V104.021C142.833 105.542 144.108 106.774 145.68 106.774H216.074C217.646 106.774 218.921 105.542 218.921 104.021V56.7223C218.921 55.2018 217.646 53.9692 216.074 53.9692Z" fill="#3D9BE9"/>
<path d="M216.074 107.222H145.682C143.857 107.222 142.372 105.786 142.372 104.021V56.722C142.372 54.9571 143.857 53.5215 145.682 53.5215H216.074C217.899 53.5215 219.384 54.9571 219.384 56.722V104.021C219.384 105.786 217.899 107.222 216.074 107.222ZM145.682 54.4165C144.368 54.4165 143.298 55.4511 143.298 56.722V104.021C143.298 105.292 144.368 106.327 145.682 106.327H216.074C217.388 106.327 218.458 105.292 218.458 104.021V56.722C218.458 55.4511 217.388 54.4165 216.074 54.4165H145.682Z" fill="#333333"/>
<path d="M134.06 0.447754H63.6666C62.0941 0.447754 60.8193 1.68032 60.8193 3.20078V50.4998C60.8193 52.0202 62.0941 53.2528 63.6666 53.2528H134.06C135.633 53.2528 136.908 52.0202 136.908 50.4998V3.20078C136.908 1.68032 135.633 0.447754 134.06 0.447754Z" fill="#3D9BE9"/>
<path d="M134.06 53.7H63.6685C61.8431 53.7 60.3584 52.2644 60.3584 50.4995V3.20052C60.3584 1.43558 61.8431 0 63.6685 0H134.06C135.886 0 137.37 1.43558 137.37 3.20052V50.4995C137.37 52.2644 135.886 53.7 134.06 53.7ZM63.6685 0.895C62.3541 0.895 61.284 1.92962 61.284 3.20052V50.4995C61.284 51.7704 62.3541 52.805 63.6685 52.805H134.06C135.375 52.805 136.445 51.7704 136.445 50.4995V3.20052C136.445 1.92962 135.375 0.895 134.06 0.895H63.6685Z" fill="#333333"/>
<path d="M210.52 0.447754H140.127C138.554 0.447754 137.279 1.68032 137.279 3.20078V50.4998C137.279 52.0202 138.554 53.2528 140.127 53.2528H210.52C212.093 53.2528 213.368 52.0202 213.368 50.4998V3.20078C213.368 1.68032 212.093 0.447754 210.52 0.447754Z" fill="#3D9BE9"/>
<path d="M210.52 53.7H140.128C138.303 53.7 136.818 52.2644 136.818 50.4995V3.20052C136.818 1.43558 138.303 0 140.128 0H210.52C212.346 0 213.83 1.43558 213.83 3.20052V50.4995C213.83 52.2644 212.346 53.7 210.52 53.7ZM140.128 0.895C138.814 0.895 137.744 1.92962 137.744 3.20052V50.4995C137.744 51.7704 138.814 52.805 140.128 52.805H210.52C211.835 52.805 212.905 51.7704 212.905 50.4995V3.20052C212.905 1.92962 211.835 0.895 210.52 0.895H140.128Z" fill="#333333"/>
<path d="M108.324 160.384H100.326C99.6721 160.384 99.1416 160.897 99.1416 161.529V204.525C99.1416 205.158 99.6721 205.671 100.326 205.671H108.324C108.978 205.671 109.509 205.158 109.509 204.525V161.529C109.509 160.897 108.978 160.384 108.324 160.384Z" fill="white"/>
<path d="M108.326 206.118H100.326C99.4174 206.118 98.6787 205.404 98.6787 204.525V161.528C98.6787 160.649 99.4174 159.935 100.326 159.935H108.326C109.235 159.935 109.973 160.649 109.973 161.528V204.525C109.973 205.404 109.235 206.118 108.326 206.118ZM100.326 160.831C99.9283 160.831 99.6044 161.145 99.6044 161.529V204.527C99.6044 204.912 99.9283 205.225 100.326 205.225H108.326C108.724 205.225 109.048 204.912 109.048 204.527V161.529C109.048 161.145 108.724 160.831 108.326 160.831H100.326Z" fill="#333333"/>
<path d="M184.783 160.384H176.785C176.131 160.384 175.601 160.897 175.601 161.529V204.525C175.601 205.158 176.131 205.671 176.785 205.671H184.783C185.437 205.671 185.968 205.158 185.968 204.525V161.529C185.968 160.897 185.437 160.384 184.783 160.384Z" fill="white"/>
<path d="M184.785 206.118H176.785C175.876 206.118 175.138 205.404 175.138 204.525V161.528C175.138 160.649 175.876 159.935 176.785 159.935H184.785C185.694 159.935 186.432 160.649 186.432 161.528V204.525C186.432 205.404 185.694 206.118 184.785 206.118ZM176.785 160.831C176.387 160.831 176.063 161.145 176.063 161.529V204.527C176.063 204.912 176.387 205.225 176.785 205.225H184.785C185.183 205.225 185.507 204.912 185.507 204.527V161.529C185.507 161.145 185.183 160.831 184.785 160.831H176.785Z" fill="#333333"/>
<path d="M179.322 107.132H171.324C170.67 107.132 170.14 107.645 170.14 108.277V151.273C170.14 151.906 170.67 152.419 171.324 152.419H179.322C179.976 152.419 180.507 151.906 180.507 151.273V108.277C180.507 107.645 179.976 107.132 179.322 107.132Z" fill="white"/>
<path d="M179.324 152.866H171.324C170.415 152.866 169.677 152.152 169.677 151.273V108.275C169.677 107.396 170.415 106.682 171.324 106.682H179.324C180.233 106.682 180.972 107.396 180.972 108.275V151.273C180.972 152.152 180.233 152.866 179.324 152.866ZM171.324 107.579C170.926 107.579 170.602 107.892 170.602 108.277V151.275C170.602 151.659 170.926 151.973 171.324 151.973H179.324C179.722 151.973 180.046 151.659 180.046 151.275V108.277C180.046 107.892 179.722 107.579 179.324 107.579H171.324Z" fill="#333333"/>
<path d="M102.863 107.132H94.8655C94.2111 107.132 93.6807 107.645 93.6807 108.277V151.273C93.6807 151.906 94.2111 152.419 94.8655 152.419H102.863C103.517 152.419 104.048 151.906 104.048 151.273V108.277C104.048 107.645 103.517 107.132 102.863 107.132Z" fill="white"/>
<path d="M102.865 152.866H94.8654C93.9564 152.866 93.2178 152.152 93.2178 151.273V108.275C93.2178 107.396 93.9564 106.682 94.8654 106.682H102.865C103.774 106.682 104.513 107.396 104.513 108.275V151.273C104.513 152.152 103.774 152.866 102.865 152.866ZM94.8654 107.579C94.4674 107.579 94.1434 107.892 94.1434 108.277V151.275C94.1434 151.659 94.4674 151.973 94.8654 151.973H102.865C103.263 151.973 103.587 151.659 103.587 151.275V108.277C103.587 107.892 103.263 107.579 102.865 107.579H94.8654Z" fill="#333333"/>
<path d="M108.417 53.9692H100.419C99.7648 53.9692 99.2344 54.4821 99.2344 55.1148V98.1106C99.2344 98.7433 99.7648 99.2563 100.419 99.2563H108.417C109.071 99.2563 109.602 98.7433 109.602 98.1106V55.1148C109.602 54.4821 109.071 53.9692 108.417 53.9692Z" fill="white"/>
<path d="M108.419 99.7033H100.419C99.5102 99.7033 98.7715 98.9891 98.7715 98.1102V55.1126C98.7715 54.2337 99.5102 53.5195 100.419 53.5195H108.419C109.328 53.5195 110.066 54.2337 110.066 55.1126V98.1102C110.066 98.9891 109.328 99.7033 108.419 99.7033ZM100.419 54.4163C100.021 54.4163 99.6971 54.7296 99.6971 55.1144V98.112C99.6971 98.4969 100.021 98.8101 100.419 98.8101H108.419C108.817 98.8101 109.141 98.4969 109.141 98.112V55.1144C109.141 54.7296 108.817 54.4163 108.419 54.4163H100.419Z" fill="#333333"/>
<path d="M184.876 53.9692H176.878C176.224 53.9692 175.693 54.4821 175.693 55.1148V98.1106C175.693 98.7433 176.224 99.2563 176.878 99.2563H184.876C185.53 99.2563 186.061 98.7433 186.061 98.1106V55.1148C186.061 54.4821 185.53 53.9692 184.876 53.9692Z" fill="white"/>
<path d="M184.878 99.7033H176.878C175.969 99.7033 175.23 98.9891 175.23 98.1102V55.1126C175.23 54.2337 175.969 53.5195 176.878 53.5195H184.878C185.787 53.5195 186.525 54.2337 186.525 55.1126V98.1102C186.525 98.9891 185.787 99.7033 184.878 99.7033ZM176.878 54.4163C176.48 54.4163 176.156 54.7296 176.156 55.1144V98.112C176.156 98.4969 176.48 98.8101 176.878 98.8101H184.878C185.276 98.8101 185.6 98.4969 185.6 98.112V55.1144C185.6 54.7296 185.276 54.4163 184.878 54.4163H176.878Z" fill="#333333"/>
<path d="M179.322 0.447754H171.324C170.67 0.447754 170.14 0.960657 170.14 1.59335V44.5892C170.14 45.2219 170.67 45.7348 171.324 45.7348H179.322C179.976 45.7348 180.507 45.2219 180.507 44.5892V1.59335C180.507 0.960657 179.976 0.447754 179.322 0.447754Z" fill="white"/>
<path d="M179.324 46.182H171.324C170.415 46.182 169.677 45.4678 169.677 44.5889V1.5931C169.677 0.71421 170.415 0 171.324 0H179.324C180.233 0 180.972 0.71421 180.972 1.5931V44.5907C180.972 45.4696 180.233 46.1838 179.324 46.1838V46.182ZM171.324 0.895C170.926 0.895 170.602 1.20825 170.602 1.5931V44.5907C170.602 44.9756 170.926 45.2888 171.324 45.2888H179.324C179.722 45.2888 180.046 44.9756 180.046 44.5907V1.5931C180.046 1.20825 179.722 0.895 179.324 0.895H171.324Z" fill="#333333"/>
<path d="M101.2 0.447754H96.527C94.9545 0.447754 93.6797 1.68032 93.6797 3.20077V42.9817C93.6797 44.5022 94.9545 45.7348 96.527 45.7348H101.2C102.772 45.7348 104.047 44.5022 104.047 42.9817V3.20077C104.047 1.68032 102.772 0.447754 101.2 0.447754Z" fill="white"/>
<path d="M101.2 46.182H96.5289C94.7035 46.182 93.2188 44.7464 93.2188 42.9815V3.20052C93.2188 1.43558 94.7035 0 96.5289 0H101.2C103.025 0 104.51 1.43558 104.51 3.20052V42.9815C104.51 44.7464 103.025 46.182 101.2 46.182ZM96.5289 0.895C95.2144 0.895 94.1444 1.92962 94.1444 3.20052V42.9815C94.1444 44.2524 95.2144 45.287 96.5289 45.287H101.2C102.514 45.287 103.584 44.2524 103.584 42.9815V3.20052C103.584 1.92962 102.514 0.895 101.2 0.895H96.5289Z" fill="#333333"/>
<path d="M34.8092 214.353C34.8092 221.915 28.4685 228.046 20.6468 228.046C12.8251 228.046 6.48438 221.915 6.48438 214.353C6.48438 214.19 6.48808 214.029 6.49363 213.868C6.76207 218.649 11.2052 226.845 20.6468 226.845C30.0884 226.845 33.2356 219.186 33.4207 215.248C33.6058 211.31 30.9307 201.996 19.9581 201.996C11.4347 201.996 7.96911 208.476 6.58435 212.713C7.42298 205.924 13.399 200.659 20.6468 200.659C28.4685 200.659 34.8092 206.79 34.8092 214.353Z" fill="#333333"/>
<path d="M29.7744 209.786C28.0639 206.597 24.6186 204.418 20.6476 204.418C14.9733 204.418 10.3729 208.866 10.3729 214.353C10.3729 219.366 14.2143 223.512 19.2054 224.189L19.074 224.287C12.9647 224.287 7.78106 218.022 9.81749 211.041C11.8539 204.06 20.7401 201.196 26.4791 205.313C28.3008 206.62 29.2839 208.217 29.7744 209.786Z" fill="#333333"/>
<path d="M25.553 214.353C25.553 216.973 23.3574 219.096 20.6471 219.096C18.3385 219.096 16.4039 217.557 15.8818 215.48C16.7593 218.291 21.3876 218.974 23.5166 216.663C25.2327 214.802 24.8366 212.115 23.5573 210.533C24.7681 211.397 25.553 212.786 25.553 214.353Z" fill="#333333"/>
<path d="M18.9863 190.256C20.1841 190.635 21.8503 190.277 21.2949 189.919C20.7395 189.561 19.0733 189.74 19.0733 189.74V188.845H22.7759V191.278H18.9863V190.256Z" fill="#333333"/>
<path d="M12.5938 185.802C12.5938 187.234 15.3707 187.413 22.0354 187.413C28.7 187.413 28.1113 187.055 28.1113 185.355V170.766C28.8444 170.766 29.4405 171.341 29.4405 172.051V188.025C29.4405 188.38 29.1425 188.668 28.7759 188.668H13.2584C12.8918 188.668 12.5938 188.38 12.5938 188.025V185.804V185.802Z" fill="#333333"/>
<path d="M0.460938 181.664C0.746037 183.296 1.1163 184.907 3.33785 184.907H9.81738C11.4835 184.907 11.6798 184.886 11.6798 183.286V173.555H12.5943V186.076C12.5943 186.32 12.3888 186.518 12.1371 186.518H2.23263C2.11044 186.518 1.99566 186.472 1.90865 186.389L0.594231 185.119C0.509071 185.036 0.460938 184.923 0.460938 184.805V181.664Z" fill="#333333"/>
<path d="M19.2587 169.334C19.9992 169.871 21.6654 169.586 21.0174 168.387C20.3695 167.188 19.1606 168.061 19.1606 168.061L19.0736 166.345L23.1464 166.651L22.9613 170.768H19.0088L19.2587 169.336V169.334Z" fill="#333333"/>
<path d="M32.1934 168.059C32.2508 168.346 32.3619 169.304 32.51 170.739L31.7491 166.996L15.4503 166.026C14.5728 165.974 13.8896 165.271 13.8896 164.422V162.7C13.8896 165.038 20.26 164.68 26.6099 165.038C32.958 165.396 31.7972 166.069 32.1934 168.059Z" fill="#333333"/>
<path d="M66.2821 207.135C66.2821 211.041 67.578 211.22 79.2412 211.22H136.631C140.519 211.22 140.71 210.493 140.71 207.276V160.384L142.37 162.174V210.024C142.37 211.771 140.906 213.189 139.097 213.189H68.9869C67.4929 213.189 66.2803 212.018 66.2803 210.572V207.133L66.2821 207.135Z" fill="#333333"/>
<path d="M142.74 207.136C142.74 211.041 144.036 211.22 155.699 211.22H213.089C216.977 211.22 217.168 210.494 217.168 207.277V160.889C217.168 160.712 217.394 160.628 217.516 160.76L218.777 162.119C218.81 162.155 218.828 162.201 218.828 162.248V209.45C218.828 211.514 217.098 213.188 214.963 213.188H145.915C144.162 213.188 142.74 211.813 142.74 210.118V207.132V207.136Z" fill="#333333"/>
<path d="M60.8203 153.883C60.8203 157.788 62.1162 157.967 73.7794 157.967H131.17C135.057 157.967 135.248 157.241 135.248 154.024V107.131L136.909 109.011V156.408C136.909 158.356 135.276 159.936 133.26 159.936H63.9453C62.2199 159.936 60.8203 158.583 60.8203 156.915V153.883Z" fill="#333333"/>
<path d="M137.278 153.883C137.278 157.788 138.574 157.967 150.237 157.967H207.628C211.515 157.967 211.706 157.241 211.706 154.024V107.131L213.367 109.19V156.877C213.367 158.567 211.95 159.936 210.203 159.936H140.714C138.817 159.936 137.278 158.449 137.278 156.614V153.883Z" fill="#333333"/>
<path d="M66.375 100.72C66.375 104.626 67.6709 104.805 79.3341 104.805H136.724C140.612 104.805 140.803 104.078 140.803 100.861V53.9688L142.463 55.6693V103.641C142.463 105.37 141.012 106.774 139.223 106.774H69.3315C67.6987 106.774 66.375 105.494 66.375 103.915V100.72Z" fill="#333333"/>
<path d="M142.833 100.72C142.833 104.626 144.129 104.805 155.792 104.805H213.182C217.07 104.805 217.261 104.078 217.261 100.861V53.9688L218.921 56.2063V103.742C218.921 105.417 217.518 106.774 215.785 106.774H146.6C144.52 106.774 142.833 105.143 142.833 103.131V100.72Z" fill="#333333"/>
<path d="M60.8203 47.199C60.8203 51.1048 62.1162 51.2838 73.7794 51.2838H131.17C135.057 51.2838 135.248 50.557 135.248 47.3404V0.447754L136.909 2.32726V49.7462C136.909 51.683 135.285 53.2528 133.282 53.2528H63.7824C62.1458 53.2528 60.8203 51.9711 60.8203 50.3888V47.199Z" fill="#333333"/>
<path d="M137.278 47.199C137.278 51.1048 138.574 51.2838 150.237 51.2838H207.628C211.515 51.2838 211.706 50.557 211.706 47.3404V0.447754L213.367 1.96925V49.594C213.367 51.6149 211.673 53.2528 209.583 53.2528H140.681C138.802 53.2528 137.278 51.7796 137.278 49.9628V47.199Z" fill="#333333"/>
<path d="M42.9738 196.148C43.3255 197.795 46.843 198.332 47.7686 196.721C48.6943 195.11 48.324 193.594 47.7686 193.277C47.7686 193.277 49.2497 193.857 49.2497 195.826C49.2497 197.795 47.4243 199.562 45.0047 198.679C42.585 197.797 42.9719 196.15 42.9719 196.15L42.9738 196.148Z" fill="#333333"/>
<path d="M2.41211 86.9317C2.41211 90.0374 8.70651 89.6794 8.70651 87.3524V48.1514H9.07122C9.77101 48.1514 10.3394 48.7009 10.3394 49.3775V90.143C10.3394 90.5798 9.9728 90.9324 9.52293 90.9324H3.23038C2.77867 90.9324 2.41396 90.578 2.41396 90.143V86.9317H2.41211Z" fill="#333333"/>
<path d="M7.20106 215.86C6.56422 210.236 11.1036 203.115 17.9108 202.363L18.0163 203.253C11.7256 203.947 7.53244 210.549 8.12116 215.763L7.20106 215.86Z" fill="white"/>
<path d="M16.6724 215.496C16.4114 213.897 16.8871 212.498 18.0109 211.556C19.1439 210.606 20.8137 210.271 22.2652 210.702L21.993 211.558C20.8397 211.214 19.5141 211.479 18.6181 212.233C17.7443 212.965 17.3796 214.075 17.5888 215.356L16.6742 215.496H16.6724Z" fill="white"/>
<path d="M2.41198 183.386H1.48633V176.405C1.48633 175.732 1.91027 175.057 2.61747 174.6C3.06178 174.314 3.6579 174.317 6.96986 174.334C7.98067 174.339 9.24696 174.346 10.8354 174.346V175.241C9.24511 175.241 7.97882 175.234 6.96616 175.229C4.47617 175.216 3.33947 175.211 3.13213 175.345C2.68782 175.631 2.41198 176.038 2.41198 176.405V183.386Z" fill="white"/>
<path d="M14.3534 186.087H13.4277V172.741C13.4277 172.096 13.9702 171.572 14.6366 171.572H27.405V172.467H14.6366C14.4811 172.467 14.3534 172.59 14.3534 172.741V186.087Z" fill="white"/>
<path d="M43.6975 196.653C43.6938 196.574 43.6161 194.704 44.8194 193.891C45.5303 193.411 46.4911 193.411 47.6723 193.891L47.3131 194.716C46.4449 194.364 45.7858 194.331 45.3526 194.623C44.7009 195.062 44.6047 196.206 44.6232 196.61L43.6994 196.651L43.6975 196.653Z" fill="white"/>
<path d="M4.17076 87.6261H3.24512V49.8284C3.24512 49.2986 3.69128 48.8672 4.23926 48.8672H7.98814V49.7622H4.23926C4.20224 49.7622 4.17076 49.7926 4.17076 49.8284V87.6261Z" fill="white"/>
<path d="M138.473 161.369H110.769V162.264H138.473V161.369Z" fill="white"/>
<path d="M68.3348 209.308H67.4092V163.4C67.4092 162.28 68.3515 161.369 69.5104 161.369H98.0314V162.264H69.5104C68.8624 162.264 68.3348 162.774 68.3348 163.4V209.308Z" fill="white"/>
<path d="M133.105 108.205H105.4V109.1H133.105V108.205Z" fill="white"/>
<path d="M62.9667 156.145H62.041V110.237C62.041 109.116 62.9833 108.205 64.1422 108.205H92.6633V109.1H64.1422C63.4943 109.1 62.9667 109.61 62.9667 110.237V156.145Z" fill="white"/>
<path d="M138.657 55.0425H110.952V55.9375H138.657V55.0425Z" fill="white"/>
<path d="M68.5194 102.982H67.5938V57.0741C67.5938 55.9536 68.5361 55.0425 69.695 55.0425H98.216V55.9375H69.695C69.047 55.9375 68.5194 56.4476 68.5194 57.0741V102.982Z" fill="white"/>
<path d="M132.918 1.52148H105.214V2.41648H132.918V1.52148Z" fill="white"/>
<path d="M62.7801 49.4613H61.8545V3.55314C61.8545 2.43259 62.7968 1.52148 63.9557 1.52148H92.4768V2.41648H63.9557C63.3078 2.41648 62.7801 2.92663 62.7801 3.55314V49.4613Z" fill="white"/>
<path d="M214.932 161.369H187.228V162.264H214.932V161.369Z" fill="white"/>
<path d="M144.793 209.308H143.867V163.4C143.867 162.28 144.809 161.369 145.968 161.369H174.489V162.264H145.968C145.32 162.264 144.793 162.774 144.793 163.4V209.308Z" fill="white"/>
<path d="M209.563 108.205H181.858V109.1H209.563V108.205Z" fill="white"/>
<path d="M139.425 156.145H138.499V110.237C138.499 109.116 139.441 108.205 140.6 108.205H169.121V109.1H140.6C139.952 109.1 139.425 109.61 139.425 110.237V156.145Z" fill="white"/>
<path d="M215.117 55.0425H187.412V55.9375H215.117V55.0425Z" fill="white"/>
<path d="M144.978 102.982H144.053V57.0741C144.053 55.9536 144.995 55.0425 146.154 55.0425H174.675V55.9375H146.154C145.506 55.9375 144.978 56.4476 144.978 57.0741V102.982Z" fill="white"/>
<path d="M209.378 1.52148H181.674V2.41648H209.378V1.52148Z" fill="white"/>
<path d="M139.24 49.4613H138.314V3.55314C138.314 2.43259 139.257 1.52148 140.416 1.52148H168.937V2.41648H140.416C139.768 2.41648 139.24 2.92663 139.24 3.55314V49.4613Z" fill="white"/>
</svg>
