<svg width="356" height="369" viewBox="0 0 356 369" fill="none" xmlns="http://www.w3.org/2000/svg">
<path d="M12.9646 144.917H5.78223V280.886H12.9646V144.917Z" fill="white"/>
<path d="M5.78223 276.249C6.64827 277.71 10.6118 277.964 10.6118 275.095V152.423C10.6118 148.382 5.78223 149.095 5.78223 149.095V146.649H12.9646V279.898H5.78223V276.249Z" fill="#3D9BE9"/>
<path d="M13.6892 281.607H5.06348V144.196H13.6892V281.607ZM6.50688 280.164H12.2458V145.639H6.50688V280.164Z" fill="#333333"/>
<path d="M18.3282 300.805H4.08765C3.51029 300.805 2.95602 300.576 2.54898 300.167L1.35673 298.974C0.949694 298.567 0.71875 298.013 0.71875 297.436V283.435C0.71875 282.857 0.946807 282.303 1.35673 281.896L2.71642 280.536C3.12345 280.129 3.67772 279.898 4.25508 279.898H18.3282C19.532 279.898 20.5049 280.874 20.5049 282.075V298.625C20.5049 299.829 19.5291 300.802 18.3282 300.802V300.805Z" fill="#3D9BE9"/>
<path d="M18.3283 301.526H4.08771C3.31405 301.526 2.58369 301.226 2.03808 300.678L0.848719 299.488C0.300227 298.94 0 298.212 0 297.439V283.438C0 282.664 0.300227 281.936 0.848719 281.388L2.2084 280.028C2.75689 279.48 3.48437 279.18 4.25803 279.18H18.3312C19.9305 279.18 21.2295 280.481 21.2295 282.078V298.628C21.2295 300.227 19.9276 301.526 18.3312 301.526H18.3283ZM4.25514 280.62C3.8712 280.62 3.49591 280.776 3.22456 281.047L1.86487 282.407C1.59351 282.678 1.43763 283.054 1.43763 283.438V297.439C1.43763 297.828 1.58774 298.192 1.86487 298.469L3.05423 299.658C3.32848 299.933 3.6951 300.086 4.08482 300.086H18.3254C19.1279 300.086 19.7804 299.433 19.7804 298.631V282.081C19.7804 281.278 19.1279 280.626 18.3254 280.626H4.25514V280.62Z" fill="#333333"/>
<path d="M35.8045 266.163H29.7422V275.909H35.8045V266.163Z" fill="#3D9BE9"/>
<path d="M36.5262 276.63H29.0205V265.441H36.5262V276.63ZM30.4639 275.187H35.0828V266.885H30.4639V275.187Z" fill="#333333"/>
<path d="M35.8045 301.959H29.7422V311.705H35.8045V301.959Z" fill="#3D9BE9"/>
<path d="M36.5262 312.427H29.0205V301.238H36.5262V312.427ZM30.4639 310.983H35.0828V302.681H30.4639V310.983Z" fill="#333333"/>
<path d="M43.9985 275.401H21.5507C20.4953 275.401 19.6396 276.256 19.6396 277.312V302.358C19.6396 303.413 20.4953 304.269 21.5507 304.269H43.9985C45.0539 304.269 45.9095 303.413 45.9095 302.358V277.312C45.9095 276.256 45.0539 275.401 43.9985 275.401Z" fill="#3D9BE9"/>
<path d="M44.0014 304.99H21.5507C20.0987 304.99 18.918 303.81 18.918 302.358V277.309C18.918 275.857 20.0987 274.676 21.5507 274.676H44.0014C45.4534 274.676 46.6341 275.857 46.6341 277.309V302.358C46.6341 303.81 45.4534 304.99 44.0014 304.99ZM21.5507 276.122C20.8954 276.122 20.3614 276.656 20.3614 277.312V302.361C20.3614 303.016 20.8954 303.55 21.5507 303.55H44.0014C44.6567 303.55 45.1907 303.016 45.1907 302.361V277.312C45.1907 276.656 44.6567 276.122 44.0014 276.122H21.5507Z" fill="#333333"/>
<path d="M14.8489 77.6549H5.03382C4.33072 77.6549 3.76074 78.2249 3.76074 78.928V145.376C3.76074 146.079 4.33072 146.649 5.03382 146.649H14.8489C15.552 146.649 16.122 146.079 16.122 145.376V78.928C16.122 78.2249 15.552 77.6549 14.8489 77.6549Z" fill="#3D9BE9"/>
<path d="M14.8519 147.371H5.03677C3.9369 147.371 3.04199 146.476 3.04199 145.376V78.928C3.04199 77.8281 3.9369 76.9332 5.03677 76.9332H14.8519C15.9518 76.9332 16.8467 77.8281 16.8467 78.928V145.376C16.8467 146.476 15.9518 147.371 14.8519 147.371ZM5.03677 78.3766C4.73366 78.3766 4.48539 78.6249 4.48539 78.928V145.376C4.48539 145.679 4.73366 145.928 5.03677 145.928H14.8519C15.155 145.928 15.4033 145.679 15.4033 145.376V78.928C15.4033 78.6249 15.155 78.3766 14.8519 78.3766H5.03677Z" fill="#333333"/>
<path d="M32.1963 366.335C43.5958 366.335 52.8369 357.094 52.8369 345.694C52.8369 334.295 43.5958 325.054 32.1963 325.054C20.7968 325.054 11.5557 334.295 11.5557 345.694C11.5557 357.094 20.7968 366.335 32.1963 366.335Z" fill="white"/>
<path d="M32.1963 323.61C20.8945 323.61 11.5759 332.1 10.2682 343.05C10.196 343.662 10.1469 344.283 10.1267 344.912C10.1181 345.172 10.1123 345.432 10.1123 345.694C10.1123 357.891 19.9996 367.778 32.1963 367.778C44.3931 367.778 54.2803 357.891 54.2803 345.694C54.2803 333.498 44.3931 323.61 32.1963 323.61ZM32.1963 361.716C31.4342 361.716 30.6836 361.664 29.9475 361.557C22.1647 360.466 16.1746 353.78 16.1746 345.694C16.1746 336.846 23.3483 329.673 32.1963 329.673C38.3885 329.673 43.7608 333.186 46.4282 338.33C47.5714 340.536 48.2181 343.038 48.2181 345.694C48.2181 354.542 41.0444 361.716 32.1963 361.716Z" fill="#3D9BE9"/>
<path d="M32.1963 368.5C19.6214 368.5 9.39062 358.269 9.39062 345.694C9.39062 345.423 9.3964 345.154 9.40506 344.889C9.42527 344.265 9.47434 343.619 9.55229 342.966C10.9206 331.52 20.6549 322.889 32.1963 322.889C44.7712 322.889 55.0021 333.119 55.0021 345.694C55.0021 358.269 44.7712 368.5 32.1963 368.5ZM32.1963 324.332C21.3853 324.332 12.2659 332.415 10.9841 343.137C10.912 343.746 10.8658 344.352 10.8485 344.935C10.8398 345.189 10.834 345.44 10.834 345.694C10.834 357.472 20.4182 367.057 32.1963 367.057C43.9745 367.057 53.5587 357.472 53.5587 345.694C53.5587 333.916 43.9745 324.332 32.1963 324.332Z" fill="#333333"/>
<path d="M32.1966 362.438C31.394 362.438 30.6031 362.383 29.8438 362.27C21.6424 361.121 15.4531 353.994 15.4531 345.694C15.4531 336.462 22.9646 328.951 32.1966 328.951C38.4754 328.951 44.1768 332.418 47.0694 337.998C48.3107 340.394 48.94 342.984 48.94 345.694C48.94 354.926 41.4286 362.438 32.1966 362.438ZM32.1966 330.394C23.7613 330.394 16.8965 337.259 16.8965 345.694C16.8965 353.278 22.5489 359.791 30.0488 360.841C30.7445 360.942 31.4662 360.994 32.1966 360.994C40.6318 360.994 47.4966 354.13 47.4966 345.694C47.4966 343.215 46.9221 340.85 45.7876 338.662C43.1433 333.561 37.9355 330.394 32.1966 330.394Z" fill="#333333"/>
<path d="M39.8459 345.694C39.8459 349.921 36.4222 353.344 32.1959 353.344C28.5961 353.344 25.5794 350.862 24.7653 347.513C24.621 346.93 24.5459 346.321 24.5459 345.694C24.5459 341.468 27.9696 338.044 32.1959 338.044C33.8934 338.044 35.4609 338.596 36.7311 339.531C36.7311 339.531 36.7311 339.532 36.7311 339.534C38.619 340.928 39.8431 343.168 39.8431 345.694H39.8459Z" fill="#3D9BE9"/>
<path d="M32.1959 354.066C28.3219 354.066 24.9789 351.442 24.0638 347.683C23.905 347.042 23.8242 346.373 23.8242 345.694C23.8242 341.078 27.5799 337.323 32.1959 337.323C33.9165 337.323 35.5619 337.836 36.9678 338.812H36.9736L37.0891 338.896C37.1122 338.913 37.1381 338.931 37.1612 338.948L37.4557 339.176C39.4129 340.761 40.5705 343.168 40.5705 345.691C40.5705 350.307 36.8148 354.063 32.1988 354.063L32.1959 354.066ZM32.1959 338.766C28.3767 338.766 25.2676 341.875 25.2676 345.694C25.2676 346.254 25.334 346.809 25.4668 347.34C26.2232 350.452 28.9916 352.623 32.1959 352.623C36.0152 352.623 39.1243 349.514 39.1243 345.694C39.1243 343.581 38.1427 341.566 36.4886 340.256H36.0123V339.909C34.8778 339.161 33.5672 338.766 32.1959 338.766Z" fill="#333333"/>
<path d="M57.141 308.888H16.2004C15.2295 308.888 14.4424 309.675 14.4424 310.646V320.697C14.4424 321.668 15.2295 322.456 16.2004 322.456H57.141C58.112 322.456 58.8991 321.668 58.8991 320.697V310.646C58.8991 309.675 58.112 308.888 57.141 308.888Z" fill="white"/>
<path d="M14.4424 317.072C14.4424 319.569 14.7311 319.875 19.6386 319.875H51.6821C56.301 319.875 53.1255 308.888 53.1255 308.888H55.7236L57.7733 322.456H16.5324C15.3777 322.456 14.4424 321.52 14.4424 320.365V317.072Z" fill="#3D9BE9"/>
<path d="M57.144 323.177H16.2005C14.8321 323.177 13.7207 322.066 13.7207 320.698V310.646C13.7207 309.277 14.8321 308.166 16.2005 308.166H57.1411C58.5094 308.166 59.6208 309.277 59.6208 310.646V320.698C59.6208 322.066 58.5094 323.177 57.1411 323.177H57.144ZM16.2034 309.609C15.6318 309.609 15.167 310.074 15.167 310.646V320.698C15.167 321.269 15.6318 321.734 16.2034 321.734H57.144C57.7155 321.734 58.1803 321.269 58.1803 320.698V310.646C58.1803 310.074 57.7155 309.609 57.144 309.609H16.2005H16.2034Z" fill="#333333"/>
<path d="M91.8777 343.818H62.6488C61.6558 343.818 60.8099 343.09 60.6656 342.106L50.1836 270.946C50.045 270.008 49.2685 269.295 48.3245 269.237L23.5384 267.719C22.4819 267.655 21.6562 266.778 21.6562 265.718V256.039C21.6562 254.933 22.554 254.035 23.6597 254.035H71.7422C72.6718 254.035 73.4801 254.676 73.6937 255.583L93.8262 341.355C94.1207 342.614 93.1681 343.818 91.8748 343.818H91.8777Z" fill="white"/>
<path d="M94.4069 343.818L60.8392 343.261L60.2676 339.381C62.1353 340.541 65.2819 341.22 71.0238 341.22C83.437 341.22 89.788 342.086 90.0767 338.91C90.3654 335.735 70.9054 254.038 70.9054 254.038H73.3332L94.4069 343.818Z" fill="#3D9BE9"/>
<path d="M95.3188 344.54H62.6518C61.3094 344.54 60.1518 343.538 59.9555 342.21L49.4736 271.05C49.387 270.453 48.8847 269.994 48.2842 269.956L23.4981 268.438C22.0634 268.351 20.9404 267.156 20.9404 265.718V256.039C20.9404 254.535 22.1644 253.314 23.6656 253.314H71.7481C73.0212 253.314 74.1124 254.18 74.4011 255.415L95.3188 344.537V344.54ZM23.6656 254.76C22.9583 254.76 22.3838 255.335 22.3838 256.042V265.721C22.3838 266.397 22.9121 266.96 23.5876 267L48.3737 268.519C49.6525 268.597 50.7178 269.575 50.9025 270.842L61.3845 342.002C61.4769 342.626 62.0225 343.096 62.6518 343.096H93.4973L72.9952 255.75C72.8595 255.167 72.3457 254.76 71.7481 254.76H23.6656Z" fill="#333333"/>
<path d="M71.89 320.723C74.6004 320.723 76.7975 318.526 76.7975 315.816C76.7975 313.106 74.6004 310.908 71.89 310.908C69.1796 310.908 66.9824 313.106 66.9824 315.816C66.9824 318.526 69.1796 320.723 71.89 320.723Z" fill="#3D9BE9"/>
<path d="M71.89 321.445C68.7867 321.445 66.2607 318.919 66.2607 315.816C66.2607 312.713 68.7867 310.187 71.89 310.187C74.9933 310.187 77.5193 312.713 77.5193 315.816C77.5193 318.919 74.9933 321.445 71.89 321.445ZM71.89 311.63C69.5806 311.63 67.7041 313.506 67.7041 315.816C67.7041 318.125 69.5806 320.002 71.89 320.002C74.1994 320.002 76.0759 318.125 76.0759 315.816C76.0759 313.506 74.1994 311.63 71.89 311.63Z" fill="#333333"/>
<path d="M352.426 343.818H60.6919C59.2236 343.818 58.0332 345.008 58.0332 346.477V356.459C58.0332 357.928 59.2236 359.118 60.6919 359.118H352.426C353.895 359.118 355.085 357.928 355.085 356.459V346.477C355.085 345.008 353.895 343.818 352.426 343.818Z" fill="white"/>
<path d="M58.0335 354.023C58.0335 356.808 58.6108 356.52 70.158 356.52H345.847C350.466 356.52 351.91 355.654 351.91 350.746V343.818C353.665 343.818 355.085 345.238 355.085 346.993V356.41C355.085 357.905 353.873 359.118 352.377 359.118H60.7961C59.1535 359.118 57.8429 357.741 57.9267 356.098L58.0335 354.023Z" fill="#3D9BE9"/>
<path d="M352.429 359.84H60.692C58.8271 359.84 57.3115 358.324 57.3115 356.459V346.474C57.3115 344.609 58.8271 343.093 60.692 343.093H352.429C354.294 343.093 355.81 344.609 355.81 346.474V356.459C355.81 358.324 354.294 359.84 352.429 359.84ZM60.692 344.54C59.6239 344.54 58.7549 345.408 58.7549 346.477V356.462C58.7549 357.53 59.6239 358.399 60.692 358.399H352.429C353.497 358.399 354.366 357.53 354.366 356.462V346.477C354.366 345.408 353.497 344.54 352.429 344.54H60.692Z" fill="#333333"/>
<path d="M217.563 258.657H107.795C105.343 258.657 103.355 260.645 103.355 263.097V339.378C103.355 341.83 105.343 343.818 107.795 343.818H217.563C220.015 343.818 222.003 341.83 222.003 339.378V263.097C222.003 260.645 220.015 258.657 217.563 258.657Z" fill="#3D9BE9"/>
<path d="M217.563 344.54H107.798C104.952 344.54 102.637 342.224 102.637 339.378V263.1C102.637 260.254 104.952 257.938 107.798 257.938H217.563C220.409 257.938 222.725 260.254 222.725 263.1V339.378C222.725 342.224 220.409 344.54 217.563 344.54ZM107.798 259.379C105.749 259.379 104.08 261.048 104.08 263.097V339.375C104.08 341.425 105.749 343.093 107.798 343.093H217.563C219.613 343.093 221.281 341.425 221.281 339.375V263.097C221.281 261.048 219.613 259.379 217.563 259.379H107.798Z" fill="#333333"/>
<path d="M336.789 258.657H227.021C224.569 258.657 222.581 260.645 222.581 263.097V339.378C222.581 341.83 224.569 343.818 227.021 343.818H336.789C339.241 343.818 341.229 341.83 341.229 339.378V263.097C341.229 260.645 339.241 258.657 336.789 258.657Z" fill="#3D9BE9"/>
<path d="M336.789 344.54H227.024C224.178 344.54 221.862 342.224 221.862 339.378V263.1C221.862 260.254 224.178 257.938 227.024 257.938H336.789C339.635 257.938 341.95 260.254 341.95 263.1V339.378C341.95 342.224 339.635 344.54 336.789 344.54ZM227.024 259.379C224.974 259.379 223.306 261.048 223.306 263.097V339.375C223.306 341.425 224.974 343.093 227.024 343.093H336.789C338.838 343.093 340.507 341.425 340.507 339.375V263.097C340.507 261.048 338.838 259.379 336.789 259.379H227.024Z" fill="#333333"/>
<path d="M209.047 172.775H99.2797C96.8277 172.775 94.8398 174.763 94.8398 177.215V253.496C94.8398 255.948 96.8277 257.936 99.2797 257.936H209.047C211.499 257.936 213.487 255.948 213.487 253.496V177.215C213.487 174.763 211.499 172.775 209.047 172.775Z" fill="#3D9BE9"/>
<path d="M209.047 258.657H99.2827C96.4363 258.657 94.1211 256.342 94.1211 253.496V177.215C94.1211 174.368 96.4363 172.053 99.2827 172.053H209.047C211.894 172.053 214.209 174.368 214.209 177.215V253.496C214.209 256.342 211.894 258.657 209.047 258.657ZM99.2827 173.497C97.2331 173.497 95.5645 175.165 95.5645 177.215V253.496C95.5645 255.545 97.2331 257.214 99.2827 257.214H209.047C211.097 257.214 212.766 255.545 212.766 253.496V177.215C212.766 175.165 211.097 173.497 209.047 173.497H99.2827Z" fill="#333333"/>
<path d="M328.273 172.775H218.505C216.053 172.775 214.065 174.763 214.065 177.215V253.496C214.065 255.948 216.053 257.936 218.505 257.936H328.273C330.725 257.936 332.713 255.948 332.713 253.496V177.215C332.713 174.763 330.725 172.775 328.273 172.775Z" fill="#3D9BE9"/>
<path d="M328.273 258.657H218.508C215.662 258.657 213.347 256.342 213.347 253.496V177.215C213.347 174.368 215.662 172.053 218.508 172.053H328.273C331.119 172.053 333.435 174.368 333.435 177.215V253.496C333.435 256.342 331.119 258.657 328.273 258.657ZM218.508 173.497C216.459 173.497 214.79 175.165 214.79 177.215V253.496C214.79 255.545 216.459 257.214 218.508 257.214H328.273C330.323 257.214 331.991 255.545 331.991 253.496V177.215C331.991 175.165 330.323 173.497 328.273 173.497H218.508Z" fill="#333333"/>
<path d="M217.709 87.037H107.941C105.489 87.037 103.501 89.0248 103.501 91.4769V167.758C103.501 170.21 105.489 172.198 107.941 172.198H217.709C220.161 172.198 222.148 170.21 222.148 167.758V91.4769C222.148 89.0248 220.161 87.037 217.709 87.037Z" fill="#3D9BE9"/>
<path d="M217.709 172.919H107.944C105.097 172.919 102.782 170.604 102.782 167.758V91.4769C102.782 88.6305 105.097 86.3153 107.944 86.3153H217.709C220.555 86.3153 222.87 88.6305 222.87 91.4769V167.758C222.87 170.604 220.555 172.919 217.709 172.919ZM107.944 87.7587C105.894 87.7587 104.226 89.4273 104.226 91.4769V167.758C104.226 169.807 105.894 171.476 107.944 171.476H217.709C219.758 171.476 221.427 169.807 221.427 167.758V91.4769C221.427 89.4273 219.758 87.7587 217.709 87.7587H107.944Z" fill="#333333"/>
<path d="M336.932 87.037H227.165C224.712 87.037 222.725 89.0248 222.725 91.4769V167.758C222.725 170.21 224.712 172.198 227.165 172.198H336.932C339.384 172.198 341.372 170.21 341.372 167.758V91.4769C341.372 89.0248 339.384 87.037 336.932 87.037Z" fill="#3D9BE9"/>
<path d="M336.932 172.919H227.167C224.321 172.919 222.006 170.604 222.006 167.758V91.4769C222.006 88.6305 224.321 86.3153 227.167 86.3153H336.932C339.779 86.3153 342.094 88.6305 342.094 91.4769V167.758C342.094 170.604 339.779 172.919 336.932 172.919ZM227.167 87.7587C225.118 87.7587 223.449 89.4273 223.449 91.4769V167.758C223.449 169.807 225.118 171.476 227.167 171.476H336.932C338.982 171.476 340.65 169.807 340.65 167.758V91.4769C340.65 89.4273 338.982 87.7587 336.932 87.7587H227.167Z" fill="#333333"/>
<path d="M209.047 0.72171H99.2797C96.8277 0.72171 94.8398 2.70952 94.8398 5.16161V81.4424C94.8398 83.8945 96.8277 85.8823 99.2797 85.8823H209.047C211.499 85.8823 213.487 83.8945 213.487 81.4424V5.16161C213.487 2.70952 211.499 0.72171 209.047 0.72171Z" fill="#3D9BE9"/>
<path d="M209.047 86.604H99.2827C96.4363 86.604 94.1211 84.2888 94.1211 81.4424V5.1616C94.1211 2.31521 96.4363 0 99.2827 0H209.047C211.894 0 214.209 2.31521 214.209 5.1616V81.4424C214.209 84.2888 211.894 86.604 209.047 86.604ZM99.2827 1.4434C97.2331 1.4434 95.5645 3.11197 95.5645 5.1616V81.4424C95.5645 83.492 97.2331 85.1606 99.2827 85.1606H209.047C211.097 85.1606 212.766 83.492 212.766 81.4424V5.1616C212.766 3.11197 211.097 1.4434 209.047 1.4434H99.2827Z" fill="#333333"/>
<path d="M328.273 0.72171H218.505C216.053 0.72171 214.065 2.70952 214.065 5.16161V81.4424C214.065 83.8945 216.053 85.8823 218.505 85.8823H328.273C330.725 85.8823 332.713 83.8945 332.713 81.4424V5.16161C332.713 2.70952 330.725 0.72171 328.273 0.72171Z" fill="#3D9BE9"/>
<path d="M328.273 86.604H218.508C215.662 86.604 213.347 84.2888 213.347 81.4424V5.1616C213.347 2.31521 215.662 0 218.508 0H328.273C331.119 0 333.435 2.31521 333.435 5.1616V81.4424C333.435 84.2888 331.119 86.604 328.273 86.604ZM218.508 1.4434C216.459 1.4434 214.79 3.11197 214.79 5.1616V81.4424C214.79 83.492 216.459 85.1606 218.508 85.1606H328.273C330.323 85.1606 331.991 83.492 331.991 81.4424V5.1616C331.991 3.11197 330.323 1.4434 328.273 1.4434H218.508Z" fill="#333333"/>
<path d="M168.915 258.657H156.444C155.424 258.657 154.597 259.484 154.597 260.505V329.846C154.597 330.866 155.424 331.693 156.444 331.693H168.915C169.936 331.693 170.763 330.866 170.763 329.846V260.505C170.763 259.484 169.936 258.657 168.915 258.657Z" fill="white"/>
<path d="M168.918 332.415H156.444C155.027 332.415 153.875 331.263 153.875 329.846V260.502C153.875 259.085 155.027 257.933 156.444 257.933H168.918C170.336 257.933 171.487 259.085 171.487 260.502V329.846C171.487 331.263 170.336 332.415 168.918 332.415ZM156.444 259.379C155.824 259.379 155.318 259.884 155.318 260.505V329.849C155.318 330.469 155.824 330.974 156.444 330.974H168.918C169.539 330.974 170.044 330.469 170.044 329.849V260.505C170.044 259.884 169.539 259.379 168.918 259.379H156.444Z" fill="#333333"/>
<path d="M288.14 258.657H275.669C274.648 258.657 273.821 259.484 273.821 260.505V329.846C273.821 330.866 274.648 331.693 275.669 331.693H288.14C289.16 331.693 289.987 330.866 289.987 329.846V260.505C289.987 259.484 289.16 258.657 288.14 258.657Z" fill="white"/>
<path d="M288.143 332.415H275.669C274.251 332.415 273.1 331.263 273.1 329.846V260.502C273.1 259.085 274.251 257.933 275.669 257.933H288.143C289.56 257.933 290.712 259.085 290.712 260.502V329.846C290.712 331.263 289.56 332.415 288.143 332.415ZM275.669 259.379C275.048 259.379 274.543 259.884 274.543 260.505V329.849C274.543 330.469 275.048 330.974 275.669 330.974H288.143C288.763 330.974 289.269 330.469 289.269 329.849V260.505C289.269 259.884 288.763 259.379 288.143 259.379H275.669Z" fill="#333333"/>
<path d="M279.623 172.775H267.152C266.132 172.775 265.305 173.602 265.305 174.623V243.963C265.305 244.984 266.132 245.811 267.152 245.811H279.623C280.644 245.811 281.471 244.984 281.471 243.963V174.623C281.471 173.602 280.644 172.775 279.623 172.775Z" fill="white"/>
<path d="M279.626 246.533H267.152C265.735 246.533 264.583 245.381 264.583 243.963V174.62C264.583 173.202 265.735 172.05 267.152 172.05H279.626C281.044 172.05 282.195 173.202 282.195 174.62V243.963C282.195 245.381 281.044 246.533 279.626 246.533ZM267.152 173.497C266.532 173.497 266.026 174.002 266.026 174.623V243.966C266.026 244.587 266.532 245.092 267.152 245.092H279.626C280.247 245.092 280.752 244.587 280.752 243.966V174.623C280.752 174.002 280.247 173.497 279.626 173.497H267.152Z" fill="#333333"/>
<path d="M160.399 172.775H147.928C146.907 172.775 146.08 173.602 146.08 174.623V243.963C146.08 244.984 146.907 245.811 147.928 245.811H160.399C161.419 245.811 162.246 244.984 162.246 243.963V174.623C162.246 173.602 161.419 172.775 160.399 172.775Z" fill="white"/>
<path d="M160.402 246.533H147.928C146.51 246.533 145.358 245.381 145.358 243.963V174.62C145.358 173.202 146.51 172.05 147.928 172.05H160.402C161.819 172.05 162.971 173.202 162.971 174.62V243.963C162.971 245.381 161.819 246.533 160.402 246.533ZM147.928 173.497C147.307 173.497 146.802 174.002 146.802 174.623V243.966C146.802 244.587 147.307 245.092 147.928 245.092H160.402C161.022 245.092 161.527 244.587 161.527 243.966V174.623C161.527 174.002 161.022 173.497 160.402 173.497H147.928Z" fill="#333333"/>
<path d="M169.06 87.037H156.589C155.568 87.037 154.741 87.8642 154.741 88.8846V158.225C154.741 159.246 155.568 160.073 156.589 160.073H169.06C170.08 160.073 170.907 159.246 170.907 158.225V88.8846C170.907 87.8642 170.08 87.037 169.06 87.037Z" fill="white"/>
<path d="M169.063 160.795H156.589C155.171 160.795 154.02 159.643 154.02 158.226V88.8817C154.02 87.4643 155.171 86.3124 156.589 86.3124H169.063C170.48 86.3124 171.632 87.4643 171.632 88.8817V158.226C171.632 159.643 170.48 160.795 169.063 160.795ZM156.589 87.7587C155.968 87.7587 155.463 88.2639 155.463 88.8846V158.228C155.463 158.849 155.968 159.354 156.589 159.354H169.063C169.683 159.354 170.188 158.849 170.188 158.228V88.8846C170.188 88.2639 169.683 87.7587 169.063 87.7587H156.589Z" fill="#333333"/>
<path d="M288.284 87.037H275.813C274.793 87.037 273.966 87.8642 273.966 88.8846V158.225C273.966 159.246 274.793 160.073 275.813 160.073H288.284C289.305 160.073 290.132 159.246 290.132 158.225V88.8846C290.132 87.8642 289.305 87.037 288.284 87.037Z" fill="white"/>
<path d="M288.287 160.795H275.813C274.396 160.795 273.244 159.643 273.244 158.226V88.8817C273.244 87.4643 274.396 86.3124 275.813 86.3124H288.287C289.705 86.3124 290.857 87.4643 290.857 88.8817V158.226C290.857 159.643 289.705 160.795 288.287 160.795ZM275.813 87.7587C275.193 87.7587 274.688 88.2639 274.688 88.8846V158.228C274.688 158.849 275.193 159.354 275.813 159.354H288.287C288.908 159.354 289.413 158.849 289.413 158.228V88.8846C289.413 88.2639 288.908 87.7587 288.287 87.7587H275.813Z" fill="#333333"/>
<path d="M279.623 0.72171H267.152C266.132 0.72171 265.305 1.54889 265.305 2.56926V71.9102C265.305 72.9306 266.132 73.7577 267.152 73.7577H279.623C280.644 73.7577 281.471 72.9306 281.471 71.9102V2.56926C281.471 1.54889 280.644 0.72171 279.623 0.72171Z" fill="white"/>
<path d="M279.626 74.4794H267.152C265.735 74.4794 264.583 73.3276 264.583 71.9102V2.56925C264.583 1.15183 265.735 0 267.152 0H279.626C281.044 0 282.195 1.15183 282.195 2.56925V71.9131C282.195 73.3305 281.044 74.4823 279.626 74.4823V74.4794ZM267.152 1.4434C266.532 1.4434 266.026 1.94859 266.026 2.56925V71.9131C266.026 72.5337 266.532 73.0389 267.152 73.0389H279.626C280.247 73.0389 280.752 72.5337 280.752 71.9131V2.56925C280.752 1.94859 280.247 1.4434 279.626 1.4434H267.152Z" fill="#333333"/>
<path d="M157.806 0.72171H150.52C148.068 0.72171 146.08 2.70952 146.08 5.16161V69.3178C146.08 71.7699 148.068 73.7577 150.52 73.7577H157.806C160.258 73.7577 162.246 71.7699 162.246 69.3178V5.16161C162.246 2.70952 160.258 0.72171 157.806 0.72171Z" fill="white"/>
<path d="M157.806 74.4794H150.523C147.677 74.4794 145.361 72.1642 145.361 69.3178V5.1616C145.361 2.31521 147.677 0 150.523 0H157.806C160.653 0 162.968 2.31521 162.968 5.1616V69.3178C162.968 72.1642 160.653 74.4794 157.806 74.4794ZM150.523 1.4434C148.473 1.4434 146.805 3.11197 146.805 5.1616V69.3178C146.805 71.3675 148.473 73.036 150.523 73.036H157.806C159.856 73.036 161.525 71.3675 161.525 69.3178V5.1616C161.525 3.11197 159.856 1.4434 157.806 1.4434H150.523Z" fill="#333333"/>
<path d="M54.2803 345.694C54.2803 357.891 44.3931 367.778 32.1963 367.778C19.9996 367.778 10.1123 357.891 10.1123 345.694C10.1123 345.432 10.1181 345.172 10.1267 344.912C10.5453 352.623 17.4736 365.841 32.1963 365.841C46.919 365.841 51.8266 353.489 52.1152 347.138C52.4039 340.787 48.2325 325.767 31.1224 325.767C17.8316 325.767 12.4275 336.217 10.2682 343.05C11.5759 332.1 20.8945 323.61 32.1963 323.61C44.3931 323.61 54.2803 333.498 54.2803 345.694Z" fill="#333333"/>
<path d="M46.4283 338.33C43.7609 333.186 38.3886 329.673 32.1964 329.673C23.3484 329.673 16.1747 336.846 16.1747 345.694C16.1747 353.78 22.1648 360.466 29.9476 361.557L29.7426 361.716C20.2162 361.716 12.1331 351.612 15.3086 340.354C18.4841 329.095 32.3407 324.476 41.2898 331.116C44.1304 333.223 45.6633 335.798 46.4283 338.33Z" fill="#333333"/>
<path d="M39.8463 345.694C39.8463 349.921 36.4225 353.344 32.1962 353.344C28.5964 353.344 25.5797 350.862 24.7656 347.513C26.134 352.045 33.351 353.148 36.6708 349.421C39.3469 346.419 38.7291 342.086 36.7343 339.534C38.6223 340.928 39.8463 343.168 39.8463 345.694Z" fill="#333333"/>
<path d="M29.6064 306.832C31.4742 307.444 34.0723 306.867 33.2063 306.289C32.3402 305.712 29.7421 306.001 29.7421 306.001V304.557H35.5157V308.481H29.6064V306.832Z" fill="#333333"/>
<path d="M19.6387 299.65C19.6387 301.959 23.9689 302.248 34.3614 302.248C44.7538 302.248 43.8358 301.671 43.8358 298.928V275.401C44.979 275.401 45.9085 276.327 45.9085 277.473V303.235C45.9085 303.807 45.4438 304.272 44.8722 304.272H20.675C20.1034 304.272 19.6387 303.807 19.6387 303.235V299.653V299.65Z" fill="#333333"/>
<path d="M0.71875 292.976C1.16332 295.608 1.74068 298.206 5.20484 298.206H15.3086C17.9068 298.206 18.2128 298.172 18.2128 295.591V279.898H19.6388V300.092C19.6388 300.484 19.3184 300.805 18.9258 300.805H3.48142C3.29089 300.805 3.11191 300.729 2.97623 300.597L0.9266 298.547C0.793807 298.414 0.71875 298.232 0.71875 298.042V292.976Z" fill="#333333"/>
<path d="M30.0313 273.091C31.186 273.957 33.7842 273.498 32.7738 271.564C31.7634 269.63 29.8783 271.039 29.8783 271.039L29.7426 268.27L36.0936 268.764L35.8049 275.404H29.6416L30.0313 273.094V273.091Z" fill="#333333"/>
<path d="M50.2019 271.036C50.2914 271.498 50.4646 273.042 50.6956 275.357L49.5091 269.321L24.0937 267.756C22.7254 267.673 21.6602 266.538 21.6602 265.17V262.393C21.6602 266.163 31.5936 265.586 41.4954 266.163C51.3942 266.74 49.5842 267.826 50.2019 271.036Z" fill="#333333"/>
<path d="M103.356 334.055C103.356 340.354 105.377 340.642 123.564 340.642H213.055C219.117 340.642 219.414 339.47 219.414 334.283V258.657L222.004 261.544V338.714C222.004 341.531 219.72 343.818 216.9 343.818H107.574C105.244 343.818 103.354 341.93 103.354 339.597V334.052L103.356 334.055Z" fill="#333333"/>
<path d="M222.581 334.055C222.581 340.354 224.602 340.642 242.789 340.642H332.279C338.342 340.642 338.639 339.47 338.639 334.283V259.471C338.639 259.186 338.991 259.05 339.182 259.263L341.148 261.455C341.2 261.512 341.229 261.587 341.229 261.662V337.787C341.229 341.116 338.529 343.815 335.201 343.815H227.532C224.798 343.815 222.581 341.598 222.581 338.864V334.049V334.055Z" fill="#333333"/>
<path d="M94.8398 248.172C94.8398 254.471 96.8606 254.76 115.047 254.76H204.538C210.601 254.76 210.898 253.588 210.898 248.4V172.775L213.487 175.806V252.246C213.487 255.387 210.941 257.936 207.797 257.936H99.7128C97.0223 257.936 94.8398 255.753 94.8398 253.063V248.172Z" fill="#333333"/>
<path d="M214.064 248.172C214.064 254.471 216.085 254.76 234.272 254.76H323.763C329.825 254.76 330.122 253.588 330.122 248.4V172.775L332.712 176.095V253.002C332.712 255.727 330.504 257.936 327.778 257.936H219.422C216.463 257.936 214.064 255.537 214.064 252.578V248.172Z" fill="#333333"/>
<path d="M103.501 162.434C103.501 168.733 105.522 169.022 123.709 169.022H213.199C219.262 169.022 219.559 167.85 219.559 162.663V87.037L222.148 89.7795V167.146C222.148 169.934 219.885 172.198 217.097 172.198H108.111C105.565 172.198 103.501 170.134 103.501 167.587V162.434Z" fill="#333333"/>
<path d="M222.726 162.434C222.726 168.733 224.746 169.022 242.933 169.022H332.424C338.486 169.022 338.784 167.85 338.784 162.663V87.037L341.373 90.6455V167.307C341.373 170.009 339.185 172.198 336.483 172.198H228.6C225.355 172.198 222.726 169.568 222.726 166.323V162.434Z" fill="#333333"/>
<path d="M94.8398 76.1191C94.8398 82.4181 96.8606 82.7068 115.047 82.7068H204.538C210.601 82.7068 210.898 81.5348 210.898 76.3472V0.72171L213.487 3.75285V80.2271C213.487 83.3506 210.956 85.8823 207.832 85.8823H99.4587C96.9068 85.8823 94.8398 83.8154 94.8398 81.2634V76.1191Z" fill="#333333"/>
<path d="M214.064 76.1191C214.064 82.4181 216.085 82.7068 234.272 82.7068H323.763C329.825 82.7068 330.122 81.5348 330.122 76.3472V0.72171L332.712 3.17549V79.9817C332.712 83.2409 330.071 85.8823 326.811 85.8823H219.37C216.44 85.8823 214.064 83.5065 214.064 80.5764V76.1191Z" fill="#333333"/>
<path d="M67.011 316.336C67.5595 318.991 73.0444 319.857 74.4878 317.259C75.9312 314.661 75.3538 312.216 74.4878 311.705C74.4878 311.705 76.7972 312.64 76.7972 315.816C76.7972 318.991 73.9508 321.841 70.1778 320.417C66.4047 318.994 67.0081 316.338 67.0081 316.338L67.011 316.336Z" fill="#333333"/>
<path d="M3.76172 140.197C3.76172 145.206 13.5768 144.629 13.5768 140.876V77.6549H14.1455C15.2367 77.6549 16.123 78.5412 16.123 79.6324V145.376C16.123 146.081 15.5514 146.649 14.8499 146.649H5.03768C4.3333 146.649 3.76461 146.078 3.76461 145.376V140.197H3.76172Z" fill="#333333"/>
<path d="M11.2294 348.125C10.2364 339.055 17.3148 327.571 27.9296 326.358L28.0941 327.793C18.2848 328.913 11.7462 339.56 12.6642 347.969L11.2294 348.125Z" fill="white"/>
<path d="M25.9986 347.539C25.5915 344.961 26.3335 342.704 28.0857 341.185C29.8525 339.652 32.4564 339.112 34.7196 339.808L34.2952 341.188C32.4968 340.634 30.4298 341.061 29.0326 342.276C27.67 343.457 27.1013 345.247 27.4275 347.314L26.0015 347.539H25.9986Z" fill="white"/>
<path d="M3.76176 295.753H2.31836V284.494C2.31836 283.409 2.97944 282.32 4.08219 281.584C4.77503 281.122 5.70458 281.128 10.8691 281.154C12.4453 281.163 14.4198 281.174 16.8967 281.174V282.618C14.4169 282.618 12.4424 282.606 10.8633 282.597C6.98054 282.577 5.20805 282.569 4.88472 282.785C4.19189 283.247 3.76176 283.902 3.76176 284.494V295.753Z" fill="white"/>
<path d="M22.3819 300.109H20.9385V278.585C20.9385 277.546 21.7843 276.7 22.8236 276.7H42.7338V278.143H22.8236C22.5811 278.143 22.3819 278.342 22.3819 278.585V300.109Z" fill="white"/>
<path d="M68.1402 317.15C68.1344 317.023 68.0132 314.006 69.8896 312.695C70.9981 311.922 72.4964 311.922 74.3381 312.695L73.7781 314.026C72.4242 313.457 71.3965 313.405 70.721 313.876C69.7048 314.583 69.5547 316.428 69.5836 317.08L68.1431 317.147L68.1402 317.15Z" fill="white"/>
<path d="M6.50395 141.318H5.06055V80.3598C5.06055 79.5053 5.75627 78.8096 6.61076 78.8096H12.4565V80.253H6.61076C6.55302 80.253 6.50395 80.3021 6.50395 80.3598V141.318Z" fill="white"/>
<path d="M215.927 260.245H172.726V261.688H215.927V260.245Z" fill="white"/>
<path d="M106.558 337.559H105.114V263.522C105.114 261.714 106.584 260.245 108.391 260.245H152.865V261.688H108.391C107.38 261.688 106.558 262.511 106.558 263.522V337.559Z" fill="white"/>
<path d="M207.555 174.507H164.354V175.95H207.555V174.507Z" fill="white"/>
<path d="M98.1866 251.821H96.7432V177.784C96.7432 175.976 98.2125 174.507 100.02 174.507H144.494V175.95H100.02C99.0093 175.95 98.1866 176.773 98.1866 177.784V251.821Z" fill="white"/>
<path d="M216.216 88.7691H173.015V90.2125H216.216V88.7691Z" fill="white"/>
<path d="M106.847 166.083H105.403V92.0456C105.403 90.2385 106.873 88.7691 108.68 88.7691H153.154V90.2125H108.68C107.669 90.2125 106.847 91.0352 106.847 92.0456V166.083Z" fill="white"/>
<path d="M207.265 2.4538H164.064V3.8972H207.265V2.4538Z" fill="white"/>
<path d="M97.8965 79.7681H96.4531V5.73031C96.4531 3.92318 97.9225 2.4538 99.7296 2.4538H144.204V3.8972H99.7296C98.7193 3.8972 97.8965 4.71993 97.8965 5.73031V79.7681Z" fill="white"/>
<path d="M335.152 260.245H291.951V261.688H335.152V260.245Z" fill="white"/>
<path d="M225.782 337.559H224.339V263.522C224.339 261.714 225.808 260.245 227.615 260.245H272.089V261.688H227.615C226.605 261.688 225.782 262.511 225.782 263.522V337.559Z" fill="white"/>
<path d="M326.781 174.507H283.58V175.95H326.781V174.507Z" fill="white"/>
<path d="M217.411 251.821H215.968V177.784C215.968 175.976 217.437 174.507 219.244 174.507H263.718V175.95H219.244C218.234 175.95 217.411 176.773 217.411 177.784V251.821Z" fill="white"/>
<path d="M335.439 88.7691H292.238V90.2125H335.439V88.7691Z" fill="white"/>
<path d="M226.07 166.083H224.627V92.0456C224.627 90.2385 226.096 88.7691 227.903 88.7691H272.378V90.2125H227.903C226.893 90.2125 226.07 91.0352 226.07 92.0456V166.083Z" fill="white"/>
<path d="M326.492 2.45377H283.291V3.89717H326.492V2.45377Z" fill="white"/>
<path d="M217.122 79.768H215.679V5.73028C215.679 3.92315 217.148 2.45377 218.955 2.45377H263.429V3.89717H218.955C217.945 3.89717 217.122 4.7199 217.122 5.73028V79.768Z" fill="white"/>
</svg>
