<svg width="226" height="235" viewBox="0 0 226 235" fill="none" xmlns="http://www.w3.org/2000/svg">
<path d="M8.23488 92.4165H3.67285V179.126H8.23488V92.4165Z" fill="white"/>
<path d="M3.67285 176.169C4.22294 177.101 6.74049 177.263 6.74049 175.433V97.2029C6.74049 94.6256 3.67285 95.0803 3.67285 95.0803V93.521H8.23488V178.496H3.67285V176.169Z" fill="#3D9BE9"/>
<path d="M8.69466 179.587H3.21582V91.9565H8.69466V179.587ZM4.13263 178.666H7.77785V92.877H4.13263V178.666Z" fill="#333333"/>
<path d="M11.6411 191.829H2.59588C2.22916 191.829 1.87711 191.683 1.61857 191.422L0.861283 190.662C0.602744 190.402 0.456055 190.049 0.456055 189.68V180.752C0.456055 180.384 0.60091 180.03 0.861283 179.771L1.72492 178.903C1.98345 178.644 2.33551 178.497 2.70223 178.497H11.6411C12.4057 178.497 13.0236 179.119 13.0236 179.885V190.439C13.0236 191.207 12.4039 191.827 11.6411 191.827V191.829Z" fill="#3D9BE9"/>
<path d="M11.6416 192.289H2.5964C2.10499 192.289 1.64108 192.098 1.29453 191.748L0.539082 190.989C0.190696 190.639 0 190.176 0 189.682V180.754C0 180.26 0.190696 179.796 0.539082 179.446L1.40271 178.579C1.7511 178.23 2.21317 178.038 2.70458 178.038H11.6434C12.6593 178.038 13.4844 178.868 13.4844 179.886V190.441C13.4844 191.461 12.6574 192.289 11.6434 192.289H11.6416ZM2.70275 178.957C2.45888 178.957 2.22051 179.056 2.04815 179.229L1.18451 180.096C1.01215 180.269 0.913139 180.509 0.913139 180.754V189.682C0.913139 189.931 1.00849 190.163 1.18451 190.339L1.93996 191.098C2.11416 191.273 2.34702 191.37 2.59456 191.37H11.6398C12.1495 191.37 12.5639 190.954 12.5639 190.443V179.888C12.5639 179.376 12.1495 178.96 11.6398 178.96H2.70275V178.957Z" fill="#333333"/>
<path d="M22.7422 169.737H18.8916V175.952H22.7422V169.737Z" fill="#3D9BE9"/>
<path d="M23.201 176.413H18.4336V169.277H23.201V176.413ZM19.3504 175.492H22.2842V170.198H19.3504V175.492Z" fill="#333333"/>
<path d="M22.7422 192.564H18.8916V198.78H22.7422V192.564Z" fill="#3D9BE9"/>
<path d="M23.201 199.24H18.4336V192.104H23.201V199.24ZM19.3504 198.32H22.2842V193.025H19.3504V198.32Z" fill="#333333"/>
<path d="M27.9447 175.628H13.6865C13.0161 175.628 12.4727 176.174 12.4727 176.847V192.819C12.4727 193.492 13.0161 194.038 13.6865 194.038H27.9447C28.6151 194.038 29.1585 193.492 29.1585 192.819V176.847C29.1585 176.174 28.6151 175.628 27.9447 175.628Z" fill="#3D9BE9"/>
<path d="M27.9469 194.499H13.6869C12.7646 194.499 12.0146 193.746 12.0146 192.82V176.845C12.0146 175.919 12.7646 175.167 13.6869 175.167H27.9469C28.8692 175.167 29.6192 175.919 29.6192 176.845V192.82C29.6192 193.746 28.8692 194.499 27.9469 194.499ZM13.6869 176.089C13.2707 176.089 12.9315 176.429 12.9315 176.847V192.821C12.9315 193.239 13.2707 193.58 13.6869 193.58H27.9469C28.3631 193.58 28.7024 193.239 28.7024 192.821V176.847C28.7024 176.429 28.3631 176.089 27.9469 176.089H13.6869Z" fill="#333333"/>
<path d="M9.43158 49.522H3.1973C2.75071 49.522 2.38867 49.8855 2.38867 50.3338V92.7093C2.38867 93.1576 2.75071 93.5211 3.1973 93.5211H9.43158C9.87817 93.5211 10.2402 93.1576 10.2402 92.7093V50.3338C10.2402 49.8855 9.87817 49.522 9.43158 49.522Z" fill="#3D9BE9"/>
<path d="M9.43295 93.9812H3.19867C2.50006 93.9812 1.93164 93.4105 1.93164 92.709V50.3336C1.93164 49.6322 2.50006 49.0615 3.19867 49.0615H9.43295C10.1316 49.0615 10.7 49.6322 10.7 50.3336V92.709C10.7 93.4105 10.1316 93.9812 9.43295 93.9812ZM3.19867 49.982C3.00614 49.982 2.84845 50.1403 2.84845 50.3336V92.709C2.84845 92.9023 3.00614 93.0607 3.19867 93.0607H9.43295C9.62548 93.0607 9.78317 92.9023 9.78317 92.709V50.3336C9.78317 50.1403 9.62548 49.982 9.43295 49.982H3.19867Z" fill="#333333"/>
<path d="M20.4502 233.619C27.6908 233.619 33.5605 227.726 33.5605 220.456C33.5605 213.186 27.6908 207.293 20.4502 207.293C13.2095 207.293 7.33984 213.186 7.33984 220.456C7.33984 227.726 13.2095 233.619 20.4502 233.619Z" fill="white"/>
<path d="M20.451 206.373C13.2724 206.373 7.35347 211.787 6.52284 218.77C6.477 219.16 6.44583 219.556 6.433 219.958C6.4275 220.123 6.42383 220.289 6.42383 220.456C6.42383 228.235 12.704 234.54 20.451 234.54C28.198 234.54 34.4781 228.235 34.4781 220.456C34.4781 212.678 28.198 206.373 20.451 206.373ZM20.451 230.674C19.9669 230.674 19.4902 230.641 19.0226 230.573C14.0792 229.877 10.2744 225.613 10.2744 220.456C10.2744 214.814 14.8309 210.239 20.451 210.239C24.3841 210.239 27.7964 212.48 29.4907 215.76C30.2168 217.167 30.6275 218.763 30.6275 220.456C30.6275 226.099 26.071 230.674 20.451 230.674Z" fill="#3D9BE9"/>
<path d="M20.4514 235C12.4641 235 5.96582 228.476 5.96582 220.456C5.96582 220.283 5.96949 220.112 5.97499 219.943C5.98782 219.545 6.01899 219.133 6.0685 218.717C6.93763 211.417 13.1206 205.913 20.4514 205.913C28.4386 205.913 34.9369 212.437 34.9369 220.456C34.9369 228.476 28.4386 235 20.4514 235ZM20.4514 206.833C13.5845 206.833 7.7921 211.988 6.97797 218.825C6.93213 219.214 6.9028 219.6 6.89179 219.972C6.88629 220.134 6.88263 220.294 6.88263 220.456C6.88263 227.967 12.9702 234.079 20.4514 234.079C27.9325 234.079 34.0201 227.967 34.0201 220.456C34.0201 212.945 27.9325 206.833 20.4514 206.833Z" fill="#333333"/>
<path d="M20.4514 231.134C19.9416 231.134 19.4392 231.099 18.957 231.027C13.7477 230.295 9.81641 225.749 9.81641 220.456C9.81641 214.569 14.5875 209.779 20.4514 209.779C24.4395 209.779 28.0609 211.99 29.8981 215.548C30.6866 217.076 31.0863 218.728 31.0863 220.456C31.0863 226.344 26.3153 231.134 20.4514 231.134ZM20.4514 210.699C15.0935 210.699 10.7332 215.077 10.7332 220.456C10.7332 225.293 14.3234 229.446 19.0872 230.116C19.5291 230.18 19.9875 230.214 20.4514 230.214C25.8092 230.214 30.1695 225.836 30.1695 220.456C30.1695 218.875 29.8046 217.367 29.084 215.972C27.4044 212.719 24.0966 210.699 20.4514 210.699Z" fill="#333333"/>
<path d="M25.309 220.456C25.309 223.151 23.1343 225.334 20.4499 225.334C18.1634 225.334 16.2473 223.751 15.7302 221.616C15.6385 221.244 15.5908 220.855 15.5908 220.456C15.5908 217.761 17.7655 215.577 20.4499 215.577C21.5281 215.577 22.5237 215.929 23.3305 216.525C23.3305 216.525 23.3305 216.526 23.3305 216.527C24.5297 217.416 25.3071 218.845 25.3071 220.456H25.309Z" fill="#3D9BE9"/>
<path d="M20.4503 225.794C17.9896 225.794 15.8663 224.121 15.285 221.724C15.1842 221.315 15.1328 220.888 15.1328 220.456C15.1328 217.512 17.5183 215.117 20.4503 215.117C21.5431 215.117 22.5883 215.444 23.4813 216.067H23.4849L23.5583 216.12C23.5729 216.131 23.5894 216.142 23.6041 216.153L23.7911 216.299C25.0343 217.309 25.7696 218.845 25.7696 220.454C25.7696 223.397 23.3841 225.792 20.4521 225.792L20.4503 225.794ZM20.4503 216.037C18.0244 216.037 16.0496 218.02 16.0496 220.456C16.0496 220.813 16.0918 221.166 16.1761 221.505C16.6565 223.489 18.415 224.874 20.4503 224.874C22.8762 224.874 24.851 222.891 24.851 220.456C24.851 219.108 24.2275 217.823 23.1769 216.987H22.8743V216.766C22.1537 216.289 21.3213 216.037 20.4503 216.037Z" fill="#333333"/>
<path d="M36.2938 196.984H10.2895C9.6728 196.984 9.17285 197.486 9.17285 198.105V204.515C9.17285 205.134 9.6728 205.636 10.2895 205.636H36.2938C36.9105 205.636 37.4105 205.134 37.4105 204.515V198.105C37.4105 197.486 36.9105 196.984 36.2938 196.984Z" fill="white"/>
<path d="M9.17285 202.203C9.17285 203.795 9.35621 203.991 12.4734 203.991H32.8265C35.7602 203.991 33.7433 196.984 33.7433 196.984H35.3935L36.6954 205.636H10.5004C9.76694 205.636 9.17285 205.04 9.17285 204.304V202.203Z" fill="#3D9BE9"/>
<path d="M36.2951 206.097H10.2889C9.41981 206.097 8.71387 205.388 8.71387 204.516V198.105C8.71387 197.233 9.41981 196.524 10.2889 196.524H36.2932C37.1624 196.524 37.8683 197.233 37.8683 198.105V204.516C37.8683 205.388 37.1624 206.097 36.2932 206.097H36.2951ZM10.2908 197.444C9.92772 197.444 9.63251 197.741 9.63251 198.105V204.516C9.63251 204.88 9.92772 205.176 10.2908 205.176H36.2951C36.6581 205.176 36.9533 204.88 36.9533 204.516V198.105C36.9533 197.741 36.6581 197.444 36.2951 197.444H10.2889H10.2908Z" fill="#333333"/>
<path d="M58.3575 219.259H39.7922C39.1614 219.259 38.6242 218.795 38.5325 218.168L31.8747 172.788C31.7866 172.189 31.2934 171.735 30.6938 171.698L14.9504 170.73C14.2793 170.689 13.7549 170.129 13.7549 169.454V163.281C13.7549 162.576 14.3251 162.003 15.0274 162.003H45.5681C46.1585 162.003 46.6719 162.412 46.8076 162.99L59.5952 217.689C59.7822 218.492 59.1772 219.259 58.3557 219.259H58.3575Z" fill="white"/>
<path d="M59.9646 219.259L38.6433 218.904L38.2803 216.43C39.4666 217.17 41.4653 217.603 45.1123 217.603C52.9969 217.603 57.0308 218.155 57.2142 216.13C57.3975 214.105 45.0371 162.005 45.0371 162.005H46.5792L59.9646 219.259Z" fill="#3D9BE9"/>
<path d="M60.5429 219.72H39.7937C38.941 219.72 38.2058 219.081 38.0811 218.234L31.4232 172.854C31.3682 172.473 31.0492 172.181 30.6678 172.157L14.9244 171.188C14.0131 171.133 13.2998 170.371 13.2998 169.454V163.281C13.2998 162.322 14.0773 161.543 15.0307 161.543H45.5714C46.38 161.543 47.0731 162.096 47.2565 162.884L60.5429 219.718V219.72ZM15.0307 162.466C14.5815 162.466 14.2166 162.832 14.2166 163.283V169.456C14.2166 169.887 14.5522 170.246 14.9812 170.271L30.7246 171.24C31.5369 171.29 32.2135 171.914 32.3309 172.722L38.9887 218.102C39.0474 218.499 39.3939 218.799 39.7937 218.799H59.3858L46.3635 163.097C46.2773 162.725 45.951 162.466 45.5714 162.466H15.0307Z" fill="#333333"/>
<path d="M45.6611 204.531C47.3826 204.531 48.7782 203.13 48.7782 201.402C48.7782 199.673 47.3826 198.272 45.6611 198.272C43.9395 198.272 42.5439 199.673 42.5439 201.402C42.5439 203.13 43.9395 204.531 45.6611 204.531Z" fill="#3D9BE9"/>
<path d="M45.6615 204.992C43.6903 204.992 42.0859 203.381 42.0859 201.402C42.0859 199.423 43.6903 197.812 45.6615 197.812C47.6326 197.812 49.237 199.423 49.237 201.402C49.237 203.381 47.6326 204.992 45.6615 204.992ZM45.6615 198.732C44.1946 198.732 43.0027 199.929 43.0027 201.402C43.0027 202.875 44.1946 204.071 45.6615 204.071C47.1284 204.071 48.3202 202.875 48.3202 201.402C48.3202 199.929 47.1284 198.732 45.6615 198.732Z" fill="#333333"/>
<path d="M223.851 219.26H38.5501C37.6174 219.26 36.8613 220.019 36.8613 220.955V227.321C36.8613 228.258 37.6174 229.017 38.5501 229.017H223.851C224.784 229.017 225.54 228.258 225.54 227.321V220.955C225.54 220.019 224.784 219.26 223.851 219.26Z" fill="white"/>
<path d="M36.8613 225.768C36.8613 227.544 37.228 227.36 44.5624 227.36H219.673C222.606 227.36 223.523 226.808 223.523 223.678V219.26C224.638 219.26 225.54 220.166 225.54 221.285V227.29C225.54 228.244 224.77 229.017 223.82 229.017H38.616C37.5727 229.017 36.7403 228.139 36.7934 227.091L36.8613 225.768Z" fill="#3D9BE9"/>
<path d="M223.853 229.477H38.5495C37.365 229.477 36.4023 228.51 36.4023 227.321V220.953C36.4023 219.764 37.365 218.797 38.5495 218.797H223.853C225.037 218.797 226 219.764 226 220.953V227.321C226 228.51 225.037 229.477 223.853 229.477ZM38.5495 219.72C37.8711 219.72 37.3192 220.274 37.3192 220.955V227.323C37.3192 228.004 37.8711 228.558 38.5495 228.558H223.853C224.531 228.558 225.083 228.004 225.083 227.323V220.955C225.083 220.274 224.531 219.72 223.853 219.72H38.5495Z" fill="#333333"/>
<path d="M138.188 164.951H68.4666C66.9091 164.951 65.6465 166.218 65.6465 167.782V216.428C65.6465 217.992 66.9091 219.259 68.4666 219.259H138.188C139.745 219.259 141.008 217.992 141.008 216.428V167.782C141.008 166.218 139.745 164.951 138.188 164.951Z" fill="#3D9BE9"/>
<path d="M138.188 219.719H68.4689C66.661 219.719 65.1904 218.243 65.1904 216.428V167.784C65.1904 165.969 66.661 164.492 68.4689 164.492H138.188C139.996 164.492 141.467 165.969 141.467 167.784V216.428C141.467 218.243 139.996 219.719 138.188 219.719ZM68.4689 165.411C67.1671 165.411 66.1072 166.475 66.1072 167.782V216.426C66.1072 217.733 67.1671 218.797 68.4689 218.797H138.188C139.49 218.797 140.55 217.733 140.55 216.426V167.782C140.55 166.475 139.49 165.411 138.188 165.411H68.4689Z" fill="#333333"/>
<path d="M213.918 164.95H144.197C142.64 164.95 141.377 166.218 141.377 167.782V216.427C141.377 217.991 142.64 219.259 144.197 219.259H213.918C215.476 219.259 216.738 217.991 216.738 216.427V167.782C216.738 166.218 215.476 164.95 213.918 164.95Z" fill="#3D9BE9"/>
<path d="M213.919 219.719H144.199C142.391 219.719 140.921 218.242 140.921 216.427V167.783C140.921 165.968 142.391 164.492 144.199 164.492H213.919C215.727 164.492 217.197 165.968 217.197 167.783V216.427C217.197 218.242 215.727 219.719 213.919 219.719ZM144.199 165.41C142.898 165.41 141.838 166.474 141.838 167.782V216.425C141.838 217.732 142.898 218.797 144.199 218.797H213.919C215.221 218.797 216.281 217.732 216.281 216.425V167.782C216.281 166.474 215.221 165.41 213.919 165.41H144.199Z" fill="#333333"/>
<path d="M132.781 110.182H63.0594C61.5019 110.182 60.2393 111.449 60.2393 113.013V161.659C60.2393 163.223 61.5019 164.49 63.0594 164.49H132.781C134.338 164.49 135.601 163.223 135.601 161.659V113.013C135.601 111.449 134.338 110.182 132.781 110.182Z" fill="#3D9BE9"/>
<path d="M132.781 164.951H63.0617C61.2538 164.951 59.7832 163.474 59.7832 161.659V113.013C59.7832 111.198 61.2538 109.722 63.0617 109.722H132.781C134.589 109.722 136.06 111.198 136.06 113.013V161.659C136.06 163.474 134.589 164.951 132.781 164.951ZM63.0617 110.642C61.7598 110.642 60.7 111.706 60.7 113.013V161.659C60.7 162.966 61.7598 164.03 63.0617 164.03H132.781C134.083 164.03 135.143 162.966 135.143 161.659V113.013C135.143 111.706 134.083 110.642 132.781 110.642H63.0617Z" fill="#333333"/>
<path d="M208.509 110.182H138.788C137.23 110.182 135.968 111.449 135.968 113.013V161.659C135.968 163.223 137.23 164.49 138.788 164.49H208.509C210.067 164.49 211.329 163.223 211.329 161.659V113.013C211.329 111.449 210.067 110.182 208.509 110.182Z" fill="#3D9BE9"/>
<path d="M208.51 164.951H138.79C136.982 164.951 135.512 163.474 135.512 161.659V113.013C135.512 111.198 136.982 109.722 138.79 109.722H208.51C210.318 109.722 211.788 111.198 211.788 113.013V161.659C211.788 163.474 210.318 164.951 208.51 164.951ZM138.79 110.642C137.488 110.642 136.429 111.706 136.429 113.013V161.659C136.429 162.966 137.488 164.03 138.79 164.03H208.51C209.812 164.03 210.871 162.966 210.871 161.659V113.013C210.871 111.706 209.812 110.642 208.51 110.642H138.79Z" fill="#333333"/>
<path d="M138.282 55.5054H68.5603C67.0028 55.5054 65.7402 56.773 65.7402 58.3368V106.983C65.7402 108.546 67.0028 109.814 68.5603 109.814H138.282C139.839 109.814 141.102 108.546 141.102 106.983V58.3368C141.102 56.773 139.839 55.5054 138.282 55.5054Z" fill="#3D9BE9"/>
<path d="M138.282 110.274H68.5627C66.7547 110.274 65.2842 108.798 65.2842 106.982V58.3366C65.2842 56.5214 66.7547 55.0449 68.5627 55.0449H138.282C140.09 55.0449 141.561 56.5214 141.561 58.3366V106.982C141.561 108.798 140.09 110.274 138.282 110.274ZM68.5627 55.9654C67.2608 55.9654 66.201 57.0295 66.201 58.3366V106.982C66.201 108.289 67.2608 109.353 68.5627 109.353H138.282C139.584 109.353 140.644 108.289 140.644 106.982V58.3366C140.644 57.0295 139.584 55.9654 138.282 55.9654H68.5627Z" fill="#333333"/>
<path d="M214.01 55.5054H144.289C142.731 55.5054 141.469 56.773 141.469 58.3368V106.983C141.469 108.546 142.731 109.814 144.289 109.814H214.01C215.568 109.814 216.83 108.546 216.83 106.983V58.3368C216.83 56.773 215.568 55.5054 214.01 55.5054Z" fill="#3D9BE9"/>
<path d="M214.011 110.274H144.291C142.483 110.274 141.013 108.798 141.013 106.982V58.3366C141.013 56.5214 142.483 55.0449 144.291 55.0449H214.011C215.819 55.0449 217.289 56.5214 217.289 58.3366V106.982C217.289 108.798 215.819 110.274 214.011 110.274ZM144.291 55.9654C142.989 55.9654 141.93 57.0295 141.93 58.3366V106.982C141.93 108.289 142.989 109.353 144.291 109.353H214.011C215.313 109.353 216.372 108.289 216.372 106.982V58.3366C216.372 57.0295 215.313 55.9654 214.011 55.9654H144.291Z" fill="#333333"/>
<path d="M132.781 0.459961H63.0594C61.5019 0.459961 60.2393 1.72763 60.2393 3.29137V51.9371C60.2393 53.5009 61.5019 54.7685 63.0594 54.7685H132.781C134.338 54.7685 135.601 53.5009 135.601 51.9371V3.29137C135.601 1.72763 134.338 0.459961 132.781 0.459961Z" fill="#3D9BE9"/>
<path d="M132.781 55.2291H63.0617C61.2538 55.2291 59.7832 53.7526 59.7832 51.9374V3.29165C59.7832 1.47646 61.2538 0 63.0617 0H132.781C134.589 0 136.06 1.47646 136.06 3.29165V51.9374C136.06 53.7526 134.589 55.2291 132.781 55.2291ZM63.0617 0.920484C61.7598 0.920484 60.7 1.98456 60.7 3.29165V51.9374C60.7 53.2445 61.7598 54.3086 63.0617 54.3086H132.781C134.083 54.3086 135.143 53.2445 135.143 51.9374V3.29165C135.143 1.98456 134.083 0.920484 132.781 0.920484H63.0617Z" fill="#333333"/>
<path d="M208.509 0.459961H138.788C137.23 0.459961 135.968 1.72763 135.968 3.29137V51.9371C135.968 53.5009 137.23 54.7685 138.788 54.7685H208.509C210.067 54.7685 211.329 53.5009 211.329 51.9371V3.29137C211.329 1.72763 210.067 0.459961 208.509 0.459961Z" fill="#3D9BE9"/>
<path d="M208.51 55.2291H138.79C136.982 55.2291 135.512 53.7526 135.512 51.9374V3.29165C135.512 1.47646 136.982 0 138.79 0H208.51C210.318 0 211.788 1.47646 211.788 3.29165V51.9374C211.788 53.7526 210.318 55.2291 208.51 55.2291ZM138.79 0.920484C137.488 0.920484 136.429 1.98456 136.429 3.29165V51.9374C136.429 53.2445 137.488 54.3086 138.79 54.3086H208.51C209.812 54.3086 210.871 53.2445 210.871 51.9374V3.29165C210.871 1.98456 209.812 0.920484 208.51 0.920484H138.79Z" fill="#333333"/>
<path d="M107.29 164.951H99.3688C98.7207 164.951 98.1953 165.479 98.1953 166.129V210.349C98.1953 211 98.7207 211.528 99.3688 211.528H107.29C107.938 211.528 108.464 211 108.464 210.349V166.129C108.464 165.479 107.938 164.951 107.29 164.951Z" fill="white"/>
<path d="M107.292 211.988H99.3692C98.4689 211.988 97.7373 211.253 97.7373 210.349V166.127C97.7373 165.223 98.4689 164.489 99.3692 164.489H107.292C108.193 164.489 108.924 165.223 108.924 166.127V210.349C108.924 211.253 108.193 211.988 107.292 211.988ZM99.3692 165.411C98.975 165.411 98.6541 165.733 98.6541 166.129V210.351C98.6541 210.747 98.975 211.069 99.3692 211.069H107.292C107.686 211.069 108.007 210.747 108.007 210.351V166.129C108.007 165.733 107.686 165.411 107.292 165.411H99.3692Z" fill="#333333"/>
<path d="M183.018 164.951H175.096C174.448 164.951 173.923 165.479 173.923 166.129V210.349C173.923 211 174.448 211.528 175.096 211.528H183.018C183.666 211.528 184.191 211 184.191 210.349V166.129C184.191 165.479 183.666 164.951 183.018 164.951Z" fill="white"/>
<path d="M183.02 211.988H175.097C174.196 211.988 173.465 211.253 173.465 210.349V166.127C173.465 165.223 174.196 164.489 175.097 164.489H183.02C183.92 164.489 184.652 165.223 184.652 166.127V210.349C184.652 211.253 183.92 211.988 183.02 211.988ZM175.097 165.411C174.703 165.411 174.382 165.733 174.382 166.129V210.351C174.382 210.747 174.703 211.069 175.097 211.069H183.02C183.414 211.069 183.735 210.747 183.735 210.351V166.129C183.735 165.733 183.414 165.411 183.02 165.411H175.097Z" fill="#333333"/>
<path d="M177.607 110.182H169.686C169.038 110.182 168.513 110.709 168.513 111.36V155.58C168.513 156.231 169.038 156.758 169.686 156.758H177.607C178.256 156.758 178.781 156.231 178.781 155.58V111.36C178.781 110.709 178.256 110.182 177.607 110.182Z" fill="white"/>
<path d="M177.61 157.219H169.687C168.786 157.219 168.055 156.484 168.055 155.58V111.358C168.055 110.454 168.786 109.72 169.687 109.72H177.61C178.51 109.72 179.242 110.454 179.242 111.358V155.58C179.242 156.484 178.51 157.219 177.61 157.219ZM169.687 110.642C169.292 110.642 168.971 110.964 168.971 111.36V155.582C168.971 155.978 169.292 156.3 169.687 156.3H177.61C178.004 156.3 178.325 155.978 178.325 155.582V111.36C178.325 110.964 178.004 110.642 177.61 110.642H169.687Z" fill="#333333"/>
<path d="M101.88 110.182H93.9587C93.3106 110.182 92.7852 110.709 92.7852 111.36V155.58C92.7852 156.231 93.3106 156.758 93.9587 156.758H101.88C102.528 156.758 103.053 156.231 103.053 155.58V111.36C103.053 110.709 102.528 110.182 101.88 110.182Z" fill="white"/>
<path d="M101.882 157.219H93.9591C93.0588 157.219 92.3271 156.484 92.3271 155.581V111.359C92.3271 110.455 93.0588 109.72 93.9591 109.72H101.882C102.782 109.72 103.514 110.455 103.514 111.359V155.581C103.514 156.484 102.782 157.219 101.882 157.219ZM93.9591 110.643C93.5648 110.643 93.244 110.965 93.244 111.361V155.582C93.244 155.978 93.5648 156.3 93.9591 156.3H101.882C102.276 156.3 102.597 155.978 102.597 155.582V111.361C102.597 110.965 102.276 110.643 101.882 110.643H93.9591Z" fill="#333333"/>
<path d="M107.381 55.5054H99.4596C98.8115 55.5054 98.2861 56.0329 98.2861 56.6836V100.904C98.2861 101.554 98.8115 102.082 99.4596 102.082H107.381C108.029 102.082 108.554 101.554 108.554 100.904V56.6836C108.554 56.0329 108.029 55.5054 107.381 55.5054Z" fill="white"/>
<path d="M107.383 102.542H99.46C98.5597 102.542 97.8281 101.808 97.8281 100.904V56.6819C97.8281 55.778 98.5597 55.0435 99.46 55.0435H107.383C108.283 55.0435 109.015 55.778 109.015 56.6819V100.904C109.015 101.808 108.283 102.542 107.383 102.542ZM99.46 55.9658C99.0658 55.9658 98.7449 56.288 98.7449 56.6838V100.906C98.7449 101.301 99.0658 101.624 99.46 101.624H107.383C107.777 101.624 108.098 101.301 108.098 100.906V56.6838C108.098 56.288 107.777 55.9658 107.383 55.9658H99.46Z" fill="#333333"/>
<path d="M183.109 55.5054H175.188C174.54 55.5054 174.015 56.0329 174.015 56.6836V100.904C174.015 101.554 174.54 102.082 175.188 102.082H183.109C183.757 102.082 184.283 101.554 184.283 100.904V56.6836C184.283 56.0329 183.757 55.5054 183.109 55.5054Z" fill="white"/>
<path d="M183.112 102.542H175.189C174.288 102.542 173.557 101.808 173.557 100.904V56.6819C173.557 55.778 174.288 55.0435 175.189 55.0435H183.112C184.012 55.0435 184.744 55.778 184.744 56.6819V100.904C184.744 101.808 184.012 102.542 183.112 102.542ZM175.189 55.9658C174.794 55.9658 174.473 56.288 174.473 56.6838V100.906C174.473 101.301 174.794 101.624 175.189 101.624H183.112C183.506 101.624 183.827 101.301 183.827 100.906V56.6838C183.827 56.288 183.506 55.9658 183.112 55.9658H175.189Z" fill="#333333"/>
<path d="M177.607 0.459961H169.686C169.038 0.459961 168.513 0.987468 168.513 1.63818V45.8582C168.513 46.509 169.038 47.0365 169.686 47.0365H177.607C178.256 47.0365 178.781 46.509 178.781 45.8582V1.63818C178.781 0.987468 178.256 0.459961 177.607 0.459961Z" fill="white"/>
<path d="M177.61 47.497H169.687C168.786 47.497 168.055 46.7624 168.055 45.8585V1.63846C168.055 0.734546 168.786 0 169.687 0H177.61C178.51 0 179.242 0.734546 179.242 1.63846V45.8604C179.242 46.7643 178.51 47.4988 177.61 47.4988V47.497ZM169.687 0.920484C169.292 0.920484 168.971 1.24265 168.971 1.63846V45.8604C168.971 46.2562 169.292 46.5783 169.687 46.5783H177.61C178.004 46.5783 178.325 46.2562 178.325 45.8604V1.63846C178.325 1.24265 178.004 0.920484 177.61 0.920484H169.687Z" fill="#333333"/>
<path d="M100.232 0.459961H95.6043C94.0468 0.459961 92.7842 1.72763 92.7842 3.29137V44.2051C92.7842 45.7688 94.0468 47.0365 95.6043 47.0365H100.232C101.79 47.0365 103.052 45.7688 103.052 44.2051V3.29137C103.052 1.72763 101.79 0.459961 100.232 0.459961Z" fill="white"/>
<path d="M100.233 47.497H95.6066C93.7987 47.497 92.3281 46.0205 92.3281 44.2053V3.29165C92.3281 1.47646 93.7987 0 95.6066 0H100.233C102.041 0 103.511 1.47646 103.511 3.29165V44.2053C103.511 46.0205 102.041 47.497 100.233 47.497ZM95.6066 0.920484C94.3048 0.920484 93.2449 1.98456 93.2449 3.29165V44.2053C93.2449 45.5124 94.3048 46.5765 95.6066 46.5765H100.233C101.535 46.5765 102.595 45.5124 102.595 44.2053V3.29165C102.595 1.98456 101.535 0.920484 100.233 0.920484H95.6066Z" fill="#333333"/>
<path d="M34.4781 220.456C34.4781 228.235 28.198 234.54 20.451 234.54C12.704 234.54 6.42383 228.235 6.42383 220.456C6.42383 220.289 6.4275 220.123 6.433 219.958C6.69887 224.875 11.0995 233.305 20.451 233.305C29.8024 233.305 32.9195 225.427 33.1029 221.377C33.2863 217.327 30.6367 207.748 19.7689 207.748C11.3269 207.748 7.89439 214.413 6.52284 218.77C7.35347 211.787 13.2724 206.373 20.451 206.373C28.198 206.373 34.4781 212.678 34.4781 220.456Z" fill="#333333"/>
<path d="M29.4897 215.759C27.7954 212.479 24.3831 210.238 20.45 210.238C14.83 210.238 10.2734 214.813 10.2734 220.456C10.2734 225.612 14.0782 229.876 19.0216 230.572L18.8914 230.673C12.8405 230.673 7.70637 224.23 9.72334 217.05C11.7403 209.87 20.5417 206.925 26.2259 211.159C28.0301 212.503 29.0038 214.145 29.4897 215.759Z" fill="#333333"/>
<path d="M25.3083 220.456C25.3083 223.151 23.1336 225.335 20.4492 225.335C18.1627 225.335 16.2466 223.751 15.7295 221.616C16.5986 224.506 21.1827 225.209 23.2913 222.833C24.9911 220.918 24.5987 218.155 23.3317 216.527C24.5308 217.417 25.3083 218.845 25.3083 220.456Z" fill="#333333"/>
<path d="M18.8057 195.673C19.992 196.063 21.6423 195.695 21.0922 195.327C20.5421 194.959 18.8918 195.143 18.8918 195.143V194.222H22.5591V196.724H18.8057V195.673Z" fill="#333333"/>
<path d="M12.4746 191.093C12.4746 192.565 15.225 192.749 21.826 192.749C28.427 192.749 27.844 192.381 27.844 190.632V175.628C28.5701 175.628 29.1605 176.219 29.1605 176.95V193.379C29.1605 193.744 28.8653 194.04 28.5022 194.04H13.1329C12.7698 194.04 12.4746 193.744 12.4746 193.379V191.094V191.093Z" fill="#333333"/>
<path d="M0.456055 186.836C0.738431 188.515 1.10515 190.172 3.30549 190.172H9.72314C11.3734 190.172 11.5678 190.15 11.5678 188.504V178.497H12.4736V191.374C12.4736 191.625 12.27 191.829 12.0207 191.829H2.21082C2.0898 191.829 1.97612 191.781 1.88994 191.696L0.588075 190.389C0.503729 190.305 0.456055 190.189 0.456055 190.067V186.836Z" fill="#333333"/>
<path d="M19.0757 174.156C19.8091 174.708 21.4594 174.416 20.8176 173.182C20.1758 171.949 18.9785 172.847 18.9785 172.847L18.8923 171.082L22.9262 171.396L22.7429 175.631H18.8281L19.0757 174.158V174.156Z" fill="#333333"/>
<path d="M31.8858 172.845C31.9426 173.139 32.0526 174.124 32.1993 175.601L31.4457 171.751L15.3026 170.754C14.4334 170.7 13.7568 169.977 13.7568 169.104V167.333C13.7568 169.737 20.0663 169.369 26.3556 169.737C32.6431 170.106 31.4934 170.798 31.8858 172.845Z" fill="#333333"/>
<path d="M65.6483 213.034C65.6483 217.051 66.9318 217.235 78.4836 217.235H135.326C139.176 217.235 139.365 216.487 139.365 213.179V164.951L141.01 166.792V216.005C141.01 217.802 139.559 219.26 137.768 219.26H68.3272C66.8475 219.26 65.6465 218.056 65.6465 216.568V213.032L65.6483 213.034Z" fill="#333333"/>
<path d="M141.377 213.033C141.377 217.05 142.66 217.234 154.212 217.234H211.054C214.905 217.234 215.094 216.487 215.094 213.178V165.47C215.094 165.288 215.317 165.201 215.438 165.337L216.687 166.735C216.72 166.771 216.738 166.819 216.738 166.867V215.413C216.738 217.536 215.024 219.257 212.91 219.257H144.522C142.785 219.257 141.377 217.843 141.377 216.1V213.029V213.033Z" fill="#333333"/>
<path d="M60.2393 158.264C60.2393 162.281 61.5228 162.465 73.0746 162.465H129.917C133.767 162.465 133.956 161.718 133.956 158.409V110.182L135.601 112.115V160.862C135.601 162.865 133.984 164.49 131.987 164.49H63.3344C61.6255 164.49 60.2393 163.098 60.2393 161.383V158.264Z" fill="#333333"/>
<path d="M135.969 158.264C135.969 162.281 137.252 162.465 148.804 162.465H205.646C209.497 162.465 209.685 161.718 209.685 158.409V110.182L211.33 112.299V161.344C211.33 163.082 209.928 164.49 208.197 164.49H139.372C137.492 164.49 135.969 162.96 135.969 161.073V158.264Z" fill="#333333"/>
<path d="M65.7402 103.588C65.7402 107.605 67.0238 107.789 78.5755 107.789H135.418C139.268 107.789 139.457 107.041 139.457 103.733V55.5054L141.102 57.2543V106.592C141.102 108.371 139.664 109.814 137.893 109.814H68.6685C67.0513 109.814 65.7402 108.498 65.7402 106.874V103.588Z" fill="#333333"/>
<path d="M141.468 103.588C141.468 107.605 142.751 107.789 154.303 107.789H211.145C214.996 107.789 215.185 107.041 215.185 103.733V55.5054L216.829 57.8066V106.695C216.829 108.418 215.439 109.814 213.723 109.814H145.199C143.138 109.814 141.468 108.137 141.468 106.068V103.588Z" fill="#333333"/>
<path d="M60.2393 48.5424C60.2393 52.5594 61.5228 52.7435 73.0746 52.7435H129.917C133.767 52.7435 133.956 51.996 133.956 48.6878V0.459961L135.601 2.39298V51.1621C135.601 53.154 133.993 54.7685 132.009 54.7685H63.173C61.5521 54.7685 60.2393 53.4504 60.2393 51.823V48.5424Z" fill="#333333"/>
<path d="M135.967 48.5424C135.967 52.5594 137.25 52.7435 148.802 52.7435H205.644C209.495 52.7435 209.684 51.996 209.684 48.6878V0.459961L211.328 2.02478V51.0056C211.328 53.084 209.651 54.7685 207.58 54.7685H139.337C137.476 54.7685 135.967 53.2534 135.967 51.3848V48.5424Z" fill="#333333"/>
<path d="M42.5634 201.733C42.9118 203.427 46.3957 203.979 47.3125 202.322C48.2293 200.665 47.8625 199.106 47.3125 198.78C47.3125 198.78 48.7793 199.377 48.7793 201.402C48.7793 203.427 46.9714 205.244 44.5749 204.336C42.1783 203.429 42.5616 201.735 42.5616 201.735L42.5634 201.733Z" fill="#333333"/>
<path d="M2.38867 89.4066C2.38867 92.6006 8.62296 92.2324 8.62296 89.8392V49.522H8.98418C9.67728 49.522 10.2402 50.0872 10.2402 50.783V92.7093C10.2402 93.1584 9.87715 93.5211 9.43158 93.5211H3.19913C2.75173 93.5211 2.39051 93.1566 2.39051 92.7093V89.4066H2.38867Z" fill="#333333"/>
<path d="M7.13311 222.006C6.50235 216.222 10.9984 208.898 17.7406 208.125L17.8451 209.04C11.6145 209.754 7.46133 216.544 8.04442 221.906L7.13311 222.006Z" fill="white"/>
<path d="M16.5126 221.632C16.254 219.988 16.7253 218.549 17.8383 217.58C18.9604 216.603 20.6143 216.259 22.0519 216.702L21.7824 217.582C20.64 217.229 19.3271 217.501 18.4397 218.276C17.5742 219.029 17.213 220.171 17.4202 221.489L16.5144 221.632H16.5126Z" fill="white"/>
<path d="M2.38946 188.607H1.47266V181.427C1.47266 180.735 1.89255 180.041 2.59299 179.571C3.03306 179.277 3.62348 179.281 6.90382 179.297C7.90497 179.303 9.15916 179.31 10.7324 179.31V180.231C9.15733 180.231 7.90314 180.223 6.90015 180.218C4.43394 180.205 3.3081 180.199 3.10274 180.337C2.66267 180.632 2.38946 181.05 2.38946 181.427V188.607Z" fill="white"/>
<path d="M14.2156 191.385H13.2988V177.659C13.2988 176.996 13.8361 176.457 14.4962 176.457H27.1426V177.378H14.4962C14.3422 177.378 14.2156 177.505 14.2156 177.659V191.385Z" fill="white"/>
<path d="M43.2795 202.253C43.2759 202.172 43.1989 200.248 44.3907 199.412C45.0948 198.919 46.0465 198.919 47.2163 199.412L46.8606 200.261C46.0006 199.898 45.3479 199.865 44.9188 200.165C44.2734 200.616 44.178 201.792 44.1964 202.208L43.2814 202.251L43.2795 202.253Z" fill="white"/>
<path d="M4.13165 90.1208H3.21484V51.2469C3.21484 50.702 3.65674 50.2583 4.19949 50.2583H7.91256V51.1788H4.19949C4.16282 51.1788 4.13165 51.2101 4.13165 51.2469V90.1208Z" fill="white"/>
<path d="M137.149 165.963H109.709V166.884H137.149V165.963Z" fill="white"/>
<path d="M67.6824 215.268H66.7656V168.053C66.7656 166.9 67.6989 165.963 68.8468 165.963H97.0954V166.884H68.8468C68.205 166.884 67.6824 167.409 67.6824 168.053V215.268Z" fill="white"/>
<path d="M131.833 111.286H104.393V112.207H131.833V111.286Z" fill="white"/>
<path d="M62.3641 160.591H61.4473V113.376C61.4473 112.223 62.3806 111.286 63.5284 111.286H91.7771V112.207H63.5284C62.8867 112.207 62.3641 112.731 62.3641 113.376V160.591Z" fill="white"/>
<path d="M137.333 56.6094H109.893V57.5299H137.333V56.6094Z" fill="white"/>
<path d="M67.865 105.914H66.9482V58.6989C66.9482 57.5464 67.8816 56.6094 69.0294 56.6094H97.278V57.5299H69.0294C68.3876 57.5299 67.865 58.0545 67.865 58.6989V105.914Z" fill="white"/>
<path d="M131.648 1.56494H104.208V2.48543H131.648V1.56494Z" fill="white"/>
<path d="M62.1805 50.8698H61.2637V3.65444C61.2637 2.50199 62.197 1.56494 63.3448 1.56494H91.5935V2.48543H63.3448C62.7031 2.48543 62.1805 3.0101 62.1805 3.65444V50.8698Z" fill="white"/>
<path d="M212.878 165.963H185.438V166.884H212.878V165.963Z" fill="white"/>
<path d="M143.409 215.268H142.492V168.053C142.492 166.9 143.425 165.963 144.573 165.963H172.822V166.884H144.573C143.932 166.884 143.409 167.409 143.409 168.053V215.268Z" fill="white"/>
<path d="M207.561 111.287H180.121V112.208H207.561V111.287Z" fill="white"/>
<path d="M138.094 160.592H137.177V113.377C137.177 112.224 138.11 111.287 139.258 111.287H167.507V112.208H139.258C138.616 112.208 138.094 112.732 138.094 113.377V160.592Z" fill="white"/>
<path d="M213.061 56.6099H185.621V57.5303H213.061V56.6099Z" fill="white"/>
<path d="M143.593 105.915H142.676V58.6994C142.676 57.5469 143.609 56.6099 144.757 56.6099H173.006V57.5303H144.757C144.115 57.5303 143.593 58.055 143.593 58.6994V105.915Z" fill="white"/>
<path d="M207.378 1.56543H179.938V2.48591H207.378V1.56543Z" fill="white"/>
<path d="M137.911 50.8703H136.994V3.65493C136.994 2.50248 137.927 1.56543 139.075 1.56543H167.324V2.48591H139.075C138.434 2.48591 137.911 3.01059 137.911 3.65493V50.8703Z" fill="white"/>
</svg>
