<svg width="1107" height="1046" viewBox="0 0 1107 1046" fill="none" xmlns="http://www.w3.org/2000/svg">
<path d="M218.102 125.974V304.506H36.5474V125.974C36.9252 77.0562 77.0341 36.6888 125.952 35.953H127.324H128.697C177.615 36.6888 217.724 77.0562 218.102 125.974Z" fill="url(#paint0_linear_165_83)"/>
<path d="M94.8677 4.19562C96.8165 3.65871 98.805 3.20135 100.794 2.78375C98.805 3.20135 96.8165 3.6786 94.8677 4.19562Z" fill="#216DB1"/>
<path d="M110.978 1.03406V1.07383C110.361 1.13348 109.765 1.21303 109.168 1.31245C109.765 1.19314 110.361 1.1136 110.978 1.03406Z" fill="#216DB1"/>
<path d="M110.978 1.03388C111.614 0.954335 112.231 0.874793 112.867 0.835022C112.231 0.894678 111.614 0.97422 110.978 1.07365V1.03388Z" fill="#062958"/>
<path d="M37.4191 37.4045C37.6378 37.1857 37.8367 36.9869 38.0554 36.788C37.3197 37.5238 36.5839 38.2794 35.8481 39.0351C36.3453 38.4982 36.8822 37.9414 37.4191 37.4045Z" fill="#062958"/>
<path d="M143.666 1.03388V1.07365C143.03 0.97422 142.413 0.894678 141.777 0.835022C142.413 0.874793 143.03 0.954335 143.666 1.03388Z" fill="#062958"/>
<path d="M889.153 119.233V740.733H435.605V918.509C435.605 968.561 394.88 1009.31 344.828 1009.31C294.777 1009.31 254.051 968.561 254.051 918.509V126.75C254.051 126.312 254.051 125.895 254.031 125.477C253.713 92.2685 240.649 61.0086 217.223 37.4045C197.179 17.2606 171.467 4.63331 143.667 1.07381V1.03404C143.031 0.954502 142.414 0.87496 141.778 0.835189C140.843 0.715876 139.909 0.616449 138.974 0.536907C138.557 0.517022 138.159 0.477251 137.741 0.43748C136.011 0.278396 134.281 0.178969 132.531 0.119313C131.497 0.0596564 130.463 0.0397709 129.429 0.0397709C128.733 0 128.037 0 127.321 0H762.403C763.119 0 763.815 0 764.511 0.0397709C797.899 0.576678 829.178 13.9596 852.643 37.7625C874.418 59.8154 887.144 88.53 888.934 119.233H889.153Z" fill="url(#paint1_linear_165_83)"/>
<path d="M143.666 1.03388V1.07365C143.03 0.97422 142.413 0.894678 141.777 0.835022C142.413 0.874793 143.03 0.954335 143.666 1.03388Z" fill="#216DB1"/>
<path d="M236.934 984.926C236.337 983.992 235.78 983.037 235.204 982.063C235.144 981.964 235.084 981.864 235.044 981.765C235.064 981.804 235.084 981.844 235.124 981.884C235.721 982.918 236.317 983.932 236.934 984.926Z" fill="#216DB1"/>
<path d="M263.815 1015.91C260.613 1013.3 257.551 1010.5 254.608 1007.52C250.034 1002.86 245.878 997.932 242.16 992.742C242.577 993.318 243.015 993.895 243.452 994.472C243.89 995.068 244.327 995.645 244.785 996.221C246.713 998.727 248.782 1001.17 250.949 1003.54C251.526 1004.22 252.142 1004.87 252.779 1005.53C253.156 1005.93 253.534 1006.34 253.932 1006.74C254.886 1007.74 255.841 1008.69 256.835 1009.64C257.829 1010.62 258.844 1011.55 259.878 1012.47C260.275 1012.85 260.653 1013.18 261.051 1013.52C261.707 1014.1 262.363 1014.68 263.039 1015.23C263.298 1015.47 263.556 1015.69 263.815 1015.91Z" fill="#216DB1"/>
<path d="M471.557 740.733V926.026H471.338C475.912 926.026 462.728 970.191 460.222 974.467C450.24 991.489 432.84 1014.52 416.295 1025.27C379.865 1049 330.251 1051.13 290.878 1032.93C282.784 1029.19 275.089 1024.6 267.989 1019.21C232.434 992.145 217.62 950.823 218.156 907.433C218.316 894.985 218.077 882.497 218.077 870.028V125.974C217.699 77.0562 177.59 36.6887 128.672 35.9529H127.3H125.928C77.0095 36.6887 36.9006 77.0562 36.5227 125.974V304.506H0.56983V186.784C0.56983 176.424 0.56983 166.063 0.56983 155.703C0.56983 143.096 -0.643183 130.389 0.470402 117.742C3.0754 88.0528 15.9811 59.2189 36.9801 38.0011C85.958 -11.5136 168.085 -11.971 217.202 37.4046C240.627 61.0086 253.692 92.2685 254.01 125.477C254.03 125.895 254.03 126.312 254.03 126.75V918.509C254.03 968.561 294.755 1009.31 344.807 1009.31C394.859 1009.31 435.584 968.561 435.584 918.509V740.733H471.537H471.557Z" fill="url(#paint2_linear_165_83)"/>
<path d="M236.932 984.927C236.335 983.992 235.778 983.037 235.202 982.063C235.182 982.003 235.142 981.944 235.122 981.884C235.719 982.918 236.315 983.932 236.932 984.927Z" fill="#062958"/>
<path d="M1106.64 740.733V919.742C1106.32 953.289 1093.04 984.787 1069.19 1008.45C1049.21 1028.3 1023.75 1040.67 996.253 1044.21L346.496 1044.92C413.848 1044.92 467.439 992.404 471.337 926.026H471.556V740.733H1106.64Z" fill="url(#paint3_linear_165_83)"/>
<g style="mix-blend-mode:screen">
<path d="M731.207 514.948C755.928 514.948 775.705 523.06 790.537 539.283C805.524 555.506 813.018 576.21 813.018 601.393C813.018 624.569 806.683 643.959 794.014 659.564L812.786 677.179L793.782 697.341L772.924 677.41C760.718 684.363 746.812 687.839 731.207 687.839C706.487 687.839 686.71 679.727 671.878 663.505C657.046 647.282 649.629 626.578 649.629 601.393C649.629 576.209 657.046 555.506 671.878 539.283C686.71 523.06 706.487 514.948 731.207 514.948ZM504.207 552.724H421.934V586.33H490.766V619.471H421.934V683.899H380.912V518.193H504.207V552.724ZM655.111 683.899H612.005L602.271 654.003H544.332L534.83 683.899H493.577L553.139 518.193H595.318L655.111 683.899ZM731.439 548.09C718.616 548.09 708.727 553.034 701.774 562.922C694.822 572.81 691.346 585.634 691.346 601.393C691.346 617.153 694.822 629.977 701.774 639.865C708.727 649.599 718.616 654.466 731.439 654.466C736.847 654.466 741.791 653.539 746.271 651.685L731.207 637.084L750.212 617.385L765.508 631.985C769.37 623.642 771.302 613.444 771.302 601.393C771.302 585.634 767.902 572.81 761.104 562.922C754.306 553.034 744.417 548.09 731.439 548.09ZM573.302 561.068C570.675 570.956 568.434 578.759 566.58 584.475L553.834 624.569H592.769L580.254 584.475L573.765 561.068H573.302ZM647.267 469.539H380.912V429.133H647.267V469.539ZM719.643 399.105C726.926 399.105 733.912 401.991 739.062 407.126C744.213 412.261 747.106 419.226 747.106 426.488C747.106 433.75 744.213 440.715 739.062 445.85C733.912 450.986 726.926 453.871 719.643 453.871C712.359 453.871 705.374 450.986 700.224 445.85C695.073 440.715 692.18 433.75 692.18 426.488C692.18 419.226 695.073 412.261 700.224 407.126C705.374 401.991 712.359 399.105 719.643 399.105ZM647.267 400.27H380.912V359.863H647.267V400.27ZM656.017 176.32C673.955 160.219 697.595 151.544 722.642 152.081C772.481 153.045 813.017 191.753 813.018 238.182V251.918C813.018 288.687 787.499 320.802 750.698 332.39C750.129 332.565 749.63 332.917 749.274 333.393C748.919 333.87 748.725 334.447 748.721 335.041V353.683C748.721 368.054 736.153 379.631 720.653 379.631C705.164 379.631 692.586 368.054 692.586 353.782V323.223C692.586 304.351 707.262 288.162 727.409 284.733C744.535 281.831 756.883 267.997 756.883 251.918V238.293C756.883 219.738 741.042 204.305 721.478 203.867C711.873 203.586 702.528 207.006 695.388 213.418C688.401 219.738 684.557 228.204 684.557 237.219C684.557 251.479 671.978 263.068 656.489 263.068C641 263.068 628.301 251.48 628.301 237.109C628.301 214.064 638.199 192.399 656.017 176.32ZM647.267 331.002H380.912V290.595H647.267V331.002ZM568.103 261.732H380.912V221.326H568.103V261.732ZM568.103 192.464H380.912V152.057H568.103V192.464Z" fill="url(#paint4_linear_165_83)"/>
</g>
<g style="mix-blend-mode:screen">
<path d="M731.207 514.948C755.928 514.948 775.705 523.06 790.537 539.283C805.524 555.506 813.018 576.209 813.018 601.393C813.018 624.569 806.683 643.959 794.014 659.564L812.786 677.178L793.782 697.341L772.924 677.41C760.718 684.362 746.812 687.838 731.207 687.839C706.487 687.838 686.71 679.727 671.878 663.505C657.046 647.282 649.629 626.577 649.629 601.393C649.629 576.209 657.046 555.506 671.878 539.283C686.71 523.06 706.487 514.948 731.207 514.948ZM504.207 552.724H421.934V586.33H490.766V619.47H421.934V683.899H380.911V518.193H504.207V552.724ZM655.111 683.899H612.005L602.271 654.003H544.332L534.83 683.899H493.577L553.139 518.193H595.318L655.111 683.899ZM731.439 548.09C718.616 548.09 708.727 553.034 701.774 562.922C694.822 572.81 691.346 585.634 691.346 601.393C691.346 617.153 694.822 629.977 701.774 639.865C708.727 649.599 718.616 654.466 731.439 654.466C736.847 654.465 741.791 653.539 746.271 651.685L731.207 637.084L750.212 617.384L765.508 631.985C769.37 623.642 771.302 613.444 771.302 601.393C771.302 585.634 767.903 572.81 761.104 562.922C754.306 553.033 744.417 548.09 731.439 548.09ZM573.302 561.068C570.675 570.956 568.434 578.759 566.58 584.475L553.834 624.569H592.769L580.254 584.475L573.765 561.068H573.302ZM647.267 469.539H380.911V429.132H647.267V469.539ZM719.643 399.105C726.926 399.105 733.912 401.99 739.062 407.126C744.213 412.261 747.106 419.226 747.106 426.488C747.106 433.75 744.213 440.716 739.062 445.851C733.912 450.986 726.926 453.871 719.643 453.871C712.359 453.871 705.374 450.986 700.224 445.851C695.073 440.716 692.18 433.75 692.18 426.488C692.18 419.226 695.073 412.261 700.224 407.126C705.374 401.991 712.359 399.105 719.643 399.105ZM647.267 400.27H380.911V359.863H647.267V400.27ZM656.017 176.32C673.955 160.219 697.595 151.544 722.642 152.081C772.482 153.045 813.018 191.753 813.018 238.183V251.918C813.018 288.687 787.499 320.802 750.698 332.39C750.129 332.565 749.63 332.917 749.274 333.393C748.919 333.87 748.725 334.447 748.721 335.041V353.683C748.721 368.054 736.153 379.632 720.653 379.632C705.164 379.631 692.586 368.054 692.586 353.782V323.222C692.586 304.35 707.263 288.161 727.409 284.733C744.535 281.831 756.883 267.997 756.883 251.918V238.293C756.883 219.738 741.042 204.305 721.478 203.867C711.873 203.586 702.528 207.006 695.388 213.418C688.401 219.738 684.557 228.205 684.557 237.219C684.556 251.48 671.978 263.068 656.489 263.068C641 263.068 628.301 251.48 628.301 237.109C628.301 214.064 638.199 192.399 656.017 176.32ZM647.267 331.002H380.911V290.594H647.267V331.002ZM568.103 261.733H380.911V221.326H568.103V261.733ZM568.103 192.464H380.912V152.057H568.103V192.464Z" fill="white"/>
</g>
<defs>
<linearGradient id="paint0_linear_165_83" x1="52.6056" y1="407.405" x2="231.158" y2="128.25" gradientUnits="userSpaceOnUse">
<stop offset="0.278846" stop-color="#FF8816"/>
<stop offset="0.855769" stop-color="#FE431D"/>
</linearGradient>
<linearGradient id="paint1_linear_165_83" x1="640.1" y1="87.932" x2="644.324" y2="889.687" gradientUnits="userSpaceOnUse">
<stop stop-color="#FE431E"/>
<stop offset="0.201923" stop-color="#FF8411"/>
<stop offset="0.673077" stop-color="#FF8A1A"/>
<stop offset="1" stop-color="#FE431D"/>
</linearGradient>
<linearGradient id="paint2_linear_165_83" x1="-328.794" y1="97.277" x2="320.514" y2="921.256" gradientUnits="userSpaceOnUse">
<stop stop-color="#FE431D"/>
<stop offset="0.663734" stop-color="#FF8715"/>
</linearGradient>
<linearGradient id="paint3_linear_165_83" x1="644.323" y1="722.271" x2="651.234" y2="1119.69" gradientUnits="userSpaceOnUse">
<stop offset="0.192113" stop-color="#FF8817"/>
<stop offset="0.684654" stop-color="#FE431D"/>
</linearGradient>
<linearGradient id="paint4_linear_165_83" x1="641.473" y1="845.087" x2="19.5385" y2="-7.18679" gradientUnits="userSpaceOnUse">
<stop offset="0.144231" stop-color="#FE431D"/>
<stop offset="0.659711" stop-color="#FF8816"/>
</linearGradient>
</defs>
</svg>
