<svg width="24" height="24" viewBox="0 0 24 24" fill="none" xmlns="http://www.w3.org/2000/svg">
<g clip-path="url(#clip0_10019_86071)">
<path fill-rule="evenodd" clip-rule="evenodd" d="M16.7258 9.82671H12.9258V6.35354C13.1067 4.87061 13.9543 4.10964 15.3829 4.10964H17.002V2.04134C16.8496 2.02183 16.7162 2.00232 16.5734 2.00232H14.4877C13.5543 2.00232 12.6591 2.26573 11.9543 2.75354C11.1829 3.30964 10.6496 4.2072 10.5258 5.13403C10.4305 5.57305 10.3829 6.00232 10.3829 6.40232V9.87549H7.00195V12.2755H10.3353V22.0023H13.0781V12.2267H16.4781L16.7258 9.82671Z" fill="white"/>
</g>
<g clip-path="url(#clip1_10019_86071)">
<path fill-rule="evenodd" clip-rule="evenodd" d="M16.7238 9.82439H12.9238V6.35122C13.1048 4.86829 13.9524 4.10732 15.381 4.10732H17V2.03902C16.8476 2.01951 16.7143 2 16.5714 2H14.4857C13.5524 2 12.6571 2.26341 11.9524 2.75122C11.181 3.30732 10.6476 4.20488 10.5238 5.13171C10.4286 5.57073 10.381 6 10.381 6.4V9.87317H7V12.2732H10.3333V22H13.0762V12.2244H16.4762L16.7238 9.82439Z" fill="white"/>
</g>
<defs>
<clipPath id="clip0_10019_86071">
<rect width="10" height="20" fill="white" transform="translate(7.00195 2.00232)"/>
</clipPath>
<clipPath id="clip1_10019_86071">
<rect width="10" height="20" fill="white" transform="translate(7 2)"/>
</clipPath>
</defs>
</svg>
