<?xml version="1.0" encoding="UTF-8"?><svg id="uuid-89e146f7-4a5d-4899-9e38-48b4c59b32f7" xmlns="http://www.w3.org/2000/svg" width="62.9" height="49" viewBox="0 0 62.9 49"><g id="uuid-c5617791-1854-4578-9f30-6ab8293f3c06"><path d="m0,0h62.9v49H0V0Z" fill="#43338e" fill-rule="evenodd"/><path d="m49.98,31.41l-2-2.23-2,2.23h-4.08l4-4.55-4-4.55h4.28l2,2.21,1.94-2.21h4.12l-4,4.53,4.09,4.57h-4.35Zm-16.08,0v-14.34h8v3.2h-4.61v2h4.61v3.07h-4.61v2.83h4.61v3.2l-8,.04Z" fill="#d9782d" fill-rule="evenodd"/><path d="m30.56,17.07v5.87h0c-.69-.79-1.71-1.21-2.75-1.15-2.1.01-3.93,1.44-4.46,3.48-.6-2.2-2.66-3.67-4.93-3.52-1.85-.09-3.6.85-4.55,2.44v-1.88h-4.3v-2h4.66v-3.2H5.76v14.3h3.81v-6h3.79c-.11.47-.17.94-.17,1.42-.05,2.76,2.14,5.04,4.91,5.09.1,0,.2,0,.29,0,2.18.14,4.19-1.19,4.93-3.25h-3.27c-.33.59-.99.92-1.66.82-1.05-.05-1.88-.9-1.9-1.95h6.64c.21,2.45,2.22,4.35,4.68,4.42,1.09,0,2.11-.54,2.72-1.45h0v.93h3.37v-14.37h-3.34Zm-14,8.35c.16-.87.92-1.5,1.8-1.5.9-.04,1.69.61,1.82,1.5h-3.62Zm11.93,3.81c-1.2-.09-2.1-1.14-2-2.35,0,0,0,0,0-.01,0-1.29.67-2.53,2-2.53s1.94,1.24,1.94,2.53-.53,2.36-1.91,2.36h-.03Z" fill="#fff" fill-rule="evenodd"/><path d="m55.19,30.49c0-.51.42-.92.93-.92h0c.51,0,.92.41.92.92h0c0,.5-.41.91-.91.92h0c-.51,0-.92-.41-.93-.92h0Zm1.69,0c0-.42-.34-.76-.76-.76s-.76.34-.76.76.34.76.76.76h0c.42,0,.76-.34.76-.76Zm-1,.06v.45h-.17v-1.07h.36c.19,0,.4.06.4.3,0,.13-.09.24-.22.26h0c.15,0,.17.1.18.21.01.11.04.22.07.32h-.22v-.2c0-.08-.02-.16-.06-.23-.05-.02-.1-.02-.15,0l-.19-.04Zm.18-.17c.16,0,.2-.07.2-.16s0-.12-.17-.12h-.19v.28h.16Z" fill="#d9782d" fill-rule="evenodd"/></g></svg>