<svg width="22" height="22" viewBox="0 0 22 22" fill="none" xmlns="http://www.w3.org/2000/svg">
<path d="M1 3.38464H5.16667" stroke="white" stroke-width="1.4" stroke-linecap="round"/>
<path d="M11.833 3.38464L20.9997 3.38464" stroke="white" stroke-width="1.4" stroke-linecap="round"/>
<path d="M20.167 11L21.0003 11" stroke="white" stroke-width="1.4" stroke-linecap="round"/>
<path d="M1 11H13.5" stroke="white" stroke-width="1.4" stroke-linecap="round"/>
<path d="M8.5 18.6154L21 18.6154" stroke="white" stroke-width="1.4" stroke-linecap="round"/>
<path d="M1 18.6154H1.83333" stroke="white" stroke-width="1.4" stroke-linecap="round"/>
<path d="M11.1337 3.38462C11.1337 4.87741 9.94464 6.06924 8.50033 6.06924C7.05601 6.06924 5.86699 4.87741 5.86699 3.38462C5.86699 1.89183 7.05601 0.7 8.50033 0.7C9.94464 0.7 11.1337 1.89183 11.1337 3.38462Z" fill="#3D9BE9" stroke="white" stroke-width="1.4"/>
<path d="M7.79967 18.6154C7.79967 20.1082 6.61065 21.3 5.16634 21.3C3.72203 21.3 2.53301 20.1082 2.53301 18.6154C2.53301 17.1226 3.72203 15.9308 5.16634 15.9308C6.61065 15.9308 7.79967 17.1226 7.79967 18.6154Z" fill="#3D9BE9" stroke="white" stroke-width="1.4"/>
<path d="M19.4667 11C19.4667 12.4928 18.2776 13.6846 16.8333 13.6846C15.389 13.6846 14.2 12.4928 14.2 11C14.2 9.50719 15.389 8.31536 16.8333 8.31536C18.2776 8.31536 19.4667 9.50719 19.4667 11Z" fill="#3D9BE9" stroke="white" stroke-width="1.4"/>
</svg>
