<svg width="271" height="354" viewBox="0 0 271 354" fill="none" xmlns="http://www.w3.org/2000/svg">
<path opacity="0.1" d="M271 286.129C271 286.129 271 286.129 271 285.711C271 284.668 271 283.624 270.164 282.998C270.164 282.998 270.164 281.537 269.328 281.12C269.328 281.12 269.119 279.868 268.492 279.659C266.82 276.946 264.52 274.65 262.43 272.354C262.012 271.937 261.385 271.52 260.967 271.102C260.967 271.102 259.504 269.85 258.459 269.641C258.25 269.641 257.832 269.641 257.832 269.224C257.414 268.598 256.787 268.598 256.369 268.389C256.369 268.389 255.324 267.972 254.906 267.554C254.906 267.554 253.861 266.928 253.442 266.719C253.442 266.719 252.188 266.302 251.561 265.885C251.561 265.885 250.098 265.259 249.262 265.05C248.426 265.05 247.381 264.841 246.545 264.424C245.918 263.172 244.664 263.589 243.41 263.589C242.365 263.172 241.11 263.172 239.856 262.754C238.393 261.711 236.93 261.919 235.258 261.919C233.168 261.502 230.869 261.502 228.569 261.085C228.36 261.085 228.151 261.085 227.942 261.085C227.942 261.085 227.524 261.085 227.315 261.085C226.897 261.085 226.479 261.085 226.061 261.085C224.598 260.876 223.135 260.458 221.672 260.458C215.401 260.458 209.131 260.458 202.86 260.876C202.024 259.624 201.815 260.876 201.397 261.293C199.098 261.293 197.008 261.293 194.917 262.128C188.647 262.128 182.794 263.798 176.733 264.841C173.807 265.467 170.88 266.093 167.954 266.719C167.118 265.467 166.909 266.719 166.491 267.137C166.073 267.763 165.446 267.554 165.028 267.554C164.192 266.302 163.983 267.554 163.565 267.972C163.565 268.18 163.147 268.18 162.729 268.389C159.175 269.224 155.622 270.059 152.487 271.52C150.606 271.52 149.143 272.146 147.47 272.98C147.47 272.98 145.589 272.98 144.753 273.607C144.753 273.607 143.081 273.607 142.454 274.233C141.618 274.233 140.782 274.233 140.155 275.067C139.319 275.067 138.483 275.067 137.856 275.902C137.02 276.32 136.183 274.65 135.556 275.485C134.302 276.946 132.003 276.528 130.958 278.198C130.958 278.198 130.958 278.198 130.749 278.198C130.122 278.407 129.286 278.615 128.659 278.824C128.032 279.033 127.405 279.241 126.778 279.659C125.942 279.868 125.105 279.868 124.478 280.494C124.06 281.12 123.015 280.494 122.597 281.328C122.597 281.328 122.597 281.537 122.597 281.746C122.597 281.746 122.597 281.537 122.597 281.328C122.388 281.328 121.97 281.328 121.761 281.328C121.761 281.12 121.761 280.911 121.761 280.494C121.97 280.285 122.388 279.868 122.597 279.659C123.015 279.659 123.224 279.45 123.642 279.241C124.896 278.615 126.151 278.198 127.196 277.363C128.032 276.946 129.077 276.32 129.913 275.902C130.331 275.694 130.958 275.485 131.376 275.276C131.794 275.067 132.003 274.65 132.421 274.441C132.421 274.441 132.421 274.233 132.003 274.024C132.003 274.024 132.003 274.233 132.212 274.441C132.839 274.233 133.466 273.815 134.093 273.607C135.765 274.441 136.392 273.607 136.81 272.146C136.81 272.146 137.856 271.728 138.274 271.311C138.274 271.311 139.319 270.893 139.737 270.476C140.573 270.059 141.2 269.433 142.036 269.015C142.036 269.015 142.036 268.806 142.036 268.598V269.015C142.036 269.015 143.29 268.598 143.917 268.18C144.335 267.972 144.962 267.763 145.38 267.554C147.47 266.302 149.77 265.259 151.86 264.006C151.86 264.006 151.86 263.798 151.651 263.589C151.651 263.589 151.651 263.798 151.86 264.006C153.741 263.38 155.413 262.545 156.876 261.293C157.503 261.085 158.13 261.085 158.548 260.458C158.548 260.458 159.593 260.041 160.011 259.624C161.057 258.998 161.893 258.58 162.938 257.954C165.028 258.371 167.536 257.119 168.79 255.032C169.208 254.824 169.835 254.824 169.835 254.197C169.835 254.197 170.044 254.197 170.253 254.197C170.671 253.989 171.298 253.78 171.925 253.363C172.344 253.154 172.971 253.154 173.389 252.737C173.389 252.737 174.434 252.319 174.852 251.902C174.852 251.902 175.897 251.484 176.315 251.067C177.569 251.484 178.614 251.693 178.823 250.023C179.45 249.606 180.286 249.189 180.913 248.771C181.54 248.771 182.167 248.562 182.585 247.936C182.585 247.936 183.63 247.519 184.049 247.31C184.467 247.102 185.094 246.684 185.512 246.475C186.139 246.267 186.557 246.267 187.184 245.641C187.184 245.641 188.856 245.015 189.692 244.597C190.528 244.18 191.364 243.971 192.2 243.345C193.245 242.928 194.29 242.301 195.126 241.884C195.754 241.884 196.172 241.675 196.799 241.049C196.799 241.049 197.844 240.632 198.262 240.214C198.262 240.214 199.307 239.797 199.725 239.38C200.352 239.171 200.979 238.754 201.606 238.545C202.233 238.545 202.86 238.336 203.278 237.71C203.278 237.71 204.323 237.501 204.741 236.875C204.741 236.875 205.786 236.458 206.204 236.04C206.831 236.04 207.459 236.04 207.668 235.414C209.967 234.162 212.266 233.327 214.565 231.866C217.491 230.614 220.209 229.153 223.135 227.692C223.135 227.692 222.926 227.484 222.717 227.275C222.717 227.275 222.717 227.484 222.926 227.692C224.389 227.066 226.061 226.44 227.106 225.397C228.987 224.562 230.869 223.727 232.541 222.266C234.004 221.64 235.467 220.597 236.721 219.553C236.721 219.344 236.512 219.344 236.303 219.136C236.303 219.136 236.512 219.344 236.721 219.553C237.975 218.718 239.229 217.675 239.438 216.214C239.856 216.214 239.856 215.796 239.647 215.379C239.647 215.379 239.856 215.379 240.065 215.379C241.11 213.709 241.319 212.04 240.065 210.37C240.065 210.37 239.856 209.327 239.229 208.909C239.229 208.909 238.393 207.24 237.557 207.031C237.139 206.822 236.93 206.614 236.512 206.405C236.303 205.779 235.467 205.779 235.049 205.57C235.049 205.57 233.795 204.735 233.168 204.735C232.75 204.735 232.123 204.735 231.705 204.527C231.078 203.483 230.032 204.109 229.405 203.901C229.196 203.901 228.987 203.901 228.778 203.901C226.688 203.483 224.389 203.483 222.299 203.901C221.881 203.901 221.672 203.901 221.254 203.901C218.536 203.901 215.819 203.692 213.102 204.735C213.102 204.735 211.012 204.735 209.967 204.735C209.549 204.527 209.131 204.735 208.713 205.153C208.295 205.153 207.668 205.153 207.25 205.57C205.577 205.57 203.905 205.57 202.233 206.196C200.979 206.196 199.516 206.196 198.471 207.031C198.262 207.031 198.053 207.031 197.844 207.031C195.336 207.031 192.827 207.031 190.528 208.492C188.02 208.909 185.512 208.492 183.212 209.953C183.003 209.953 182.376 209.953 182.167 209.953C181.122 209.535 180.913 210.162 180.495 210.996C179.241 210.788 177.987 211.622 176.942 211.622C175.061 211.622 173.598 212.666 172.135 213.292C170.253 213.709 168.581 214.127 166.7 214.753C166.7 214.753 164.61 214.753 163.983 215.588C161.893 214.753 160.639 216.214 158.966 217.049C158.966 217.049 157.294 217.257 156.667 217.883C156.667 217.883 154.995 218.092 154.368 218.718C152.905 219.136 151.233 219.553 149.77 220.179C149.77 220.179 148.097 220.388 147.47 221.014C144.544 221.64 141.409 221.849 139.11 224.145C139.11 224.145 137.438 224.145 136.81 224.771C136.183 224.771 135.765 224.979 135.138 225.188C132.003 226.232 129.077 227.901 125.942 228.736C125.942 228.527 126.151 228.319 126.36 227.901C126.987 227.484 127.405 226.858 128.241 226.649C129.495 226.232 131.167 226.44 131.794 224.771C132.212 224.562 132.63 224.353 132.839 223.936C133.257 223.727 133.884 223.518 134.302 223.101C134.72 222.892 135.347 222.475 135.765 222.266C136.81 221.849 137.647 221.431 138.483 220.805C138.483 220.805 139.528 220.388 139.946 219.97C140.364 219.762 140.782 219.553 140.991 219.136C141.409 218.927 142.036 218.718 142.454 218.301C142.454 218.301 143.917 218.927 143.917 217.466C144.335 217.257 144.962 216.84 145.38 216.631C147.47 217.049 148.306 215.379 149.77 214.336C149.77 214.336 150.815 213.918 151.233 213.501C151.233 213.501 152.278 213.083 152.696 212.666C152.696 212.666 153.741 212.249 154.159 211.831C154.577 211.622 155.204 211.205 155.622 210.996C156.249 210.996 156.876 210.996 157.294 210.162C157.294 210.162 158.339 209.744 158.757 209.535C159.175 209.327 159.802 208.909 160.22 208.701C160.848 208.492 161.266 208.283 161.684 207.866C161.684 207.866 162.729 207.448 163.147 207.031C163.147 207.031 164.192 206.614 164.61 206.196C164.61 206.196 165.655 205.779 166.073 205.361C168.372 204.109 170.88 203.274 172.971 201.814C173.389 201.814 173.807 201.605 174.225 201.396C174.852 201.187 175.27 200.979 175.897 200.77C177.151 200.353 178.405 200.144 179.241 199.1C179.241 199.1 180.704 199.1 181.122 198.266C182.167 197.848 183.212 197.222 184.258 196.805C184.885 196.387 185.512 196.387 186.139 195.97C186.139 195.97 187.184 195.761 187.602 195.344C187.602 195.344 188.856 194.926 189.483 194.509C189.901 194.3 190.528 193.883 190.946 193.674C191.573 193.674 192.2 193.674 192.409 193.048C192.409 193.048 193.872 193.048 194.29 192.213C194.29 192.213 195.545 191.796 196.172 191.379C196.172 191.379 197.217 191.17 197.635 190.752C197.635 190.752 198.68 190.335 199.098 190.126C199.516 189.5 200.352 189.5 200.979 189.292C202.024 189.083 202.86 188.457 203.696 188.248C203.905 188.248 204.114 188.039 204.323 187.831C204.95 187.831 205.368 187.413 205.995 187.204C205.995 187.204 207.459 187.204 207.877 186.37C207.877 186.37 209.131 185.952 209.758 185.535L211.221 184.7C211.221 184.7 212.266 184.283 212.893 184.074C212.893 184.074 214.147 183.657 214.774 183.239C214.774 183.239 215.401 182.822 215.61 182.613C215.401 182.822 214.983 183.03 214.774 183.239C215.401 183.239 216.028 183.239 216.237 182.613C217.491 181.987 218.746 181.778 219.791 180.735C222.299 179.9 224.598 178.439 227.106 177.187C228.151 176.769 228.987 176.143 229.823 175.726C229.823 175.726 229.823 175.517 230.032 175.309C231.287 174.682 231.914 173.43 232.75 172.595C233.795 172.178 233.586 171.135 233.586 170.3C233.586 169.465 233.586 168.63 233.586 167.795C233.586 166.961 233.795 166.126 232.75 165.917C232.541 165.5 232.332 165.082 232.123 164.665C231.914 164.247 231.496 163.83 231.078 163.621C230.242 163.204 229.405 162.369 228.36 162.369C227.106 160.908 225.225 161.534 223.762 161.534C223.553 161.534 223.344 161.534 223.135 161.534C221.881 161.117 220.627 161.117 219.373 161.534C219.164 161.534 218.955 161.534 218.746 161.534C216.028 161.534 213.311 161.326 210.594 162.369C210.594 162.369 210.594 162.369 210.385 162.369C208.295 162.369 206.413 162.16 204.532 163.204C202.86 163.413 201.188 163.413 199.516 164.039C198.053 164.247 196.59 164.247 195.336 164.874C194.081 165.082 192.618 165.291 191.364 165.708C190.319 165.917 189.065 166.126 187.811 166.543C187.811 166.543 185.721 166.752 184.676 167.378C183.421 167.378 182.167 167.378 181.331 168.213C181.331 168.213 179.241 168.421 178.196 169.048C178.196 169.048 176.315 169.465 175.479 169.882C174.434 169.882 173.389 169.882 172.344 170.717C172.344 170.717 170.462 171.135 169.626 171.552C169.626 171.552 167.954 171.969 167.327 172.387C167.327 172.387 167.327 172.387 167.118 172.387C166.282 172.387 165.446 172.595 164.61 173.222C164.61 173.222 164.61 172.387 164.61 171.969C166.282 171.135 168.163 170.508 169.626 169.465C170.671 169.465 171.507 169.048 172.344 168.213C174.434 167.378 176.524 166.334 178.405 165.5C179.032 165.291 179.868 165.082 180.495 164.665C181.331 164.247 182.167 163.621 183.212 163.204C186.557 161.952 189.692 160.491 192.827 159.03C195.963 157.569 199.307 156.317 202.442 154.856C202.86 154.647 203.487 154.438 203.905 154.23C206.204 153.186 208.504 152.351 210.385 150.682C212.893 149.847 215.192 149.012 216.446 146.508C216.655 146.09 217.073 145.673 217.282 145.464C217.282 145.047 217.282 144.63 217.282 144.421C217.282 144.003 217.491 143.377 217.282 142.96C217.073 142.751 216.864 142.334 216.655 142.125C216.655 141.916 216.655 141.499 216.237 141.29C215.61 141.082 215.192 140.456 214.565 140.247C213.52 139.412 212.266 139.412 211.012 138.995C208.713 138.786 206.413 138.786 204.114 138.995C203.905 138.995 203.696 138.995 203.278 138.995C197.008 139.829 190.737 140.664 184.676 142.334C178.196 143.586 172.135 145.464 165.864 147.551C158.966 149.638 152.069 151.934 145.38 154.647C138.692 156.943 132.003 159.447 125.524 162.369C125.524 162.369 125.314 162.787 125.314 162.995C125.314 162.787 125.524 162.578 125.733 162.16C123.851 162.787 122.179 163.413 120.507 164.247C115.073 166.543 109.638 168.63 104.204 171.343C102.323 172.178 100.441 173.013 98.5602 173.639C98.3512 173.639 97.9331 173.639 97.7241 173.222C99.3963 171.969 101.068 170.717 102.741 169.465C107.966 166.126 112.982 162.787 118.208 159.447C119.671 158.821 120.925 157.986 121.97 157.152C126.569 154.438 131.167 151.725 135.765 148.804C137.647 147.551 139.737 146.717 141.618 145.256C143.081 144.838 144.335 143.795 145.589 142.96C146.425 142.96 146.843 142.543 147.47 142.125C151.024 140.247 154.368 138.16 157.921 136.282C165.028 132.525 172.135 128.977 179.241 125.22C183.003 123.551 186.766 121.881 190.319 119.794C193.036 118.542 195.963 117.29 198.471 115.62C200.143 114.785 201.815 113.951 203.069 112.49C204.323 111.655 204.741 110.194 204.323 108.733C203.905 107.272 202.86 106.229 201.188 106.229C201.606 107.063 202.651 107.063 203.278 108.107C202.86 107.481 202.442 106.855 201.188 106.229C200.561 105.811 199.725 105.811 198.889 105.811C193.036 105.394 187.393 106.229 181.749 107.272C176.315 108.107 170.88 109.15 165.655 110.82C164.819 110.82 163.774 111.237 162.938 111.446C152.487 114.159 142.454 117.916 132.421 121.672C132.003 121.672 131.376 121.672 131.167 121.255C133.257 120.003 135.138 118.959 137.229 117.916C142.872 114.785 148.306 111.864 153.95 108.942C154.159 108.942 154.577 108.942 154.786 108.524C162.729 104.35 171.089 100.594 179.241 96.8371C183.421 94.7501 188.02 93.0805 191.991 90.5761C192.827 90.5761 193.454 89.95 193.872 89.5326C196.172 88.0717 197.008 86.1934 196.381 83.8977C195.963 82.0194 194.081 80.5585 191.782 80.3498C188.438 80.1411 185.303 80.3498 182.167 81.3933C178.196 82.0194 174.225 83.0629 170.253 84.3151C157.921 88.2804 145.38 92.4544 133.048 96.4197C132.63 96.4197 132.212 96.4197 132.003 96.0023C132.003 96.0023 132.003 95.7936 132.212 95.5849C133.884 94.9588 135.347 93.9153 136.81 93.0805C138.065 92.6631 139.319 92.037 140.364 91.2022C144.962 88.6978 149.561 86.4021 154.159 83.8977C155.831 83.0629 157.503 82.4368 159.175 81.602C164.819 78.6802 170.462 76.3844 175.897 73.0452C178.405 72.2104 180.704 70.7495 182.585 69.2886C184.467 67.8277 184.885 65.9494 184.049 64.2798C183.212 62.4015 181.54 61.9841 179.659 61.9841C176.942 62.1928 174.225 62.6102 171.507 63.445C170.88 63.445 170.253 63.445 169.626 63.8624C168.999 63.8624 168.163 63.8624 167.536 64.2798C167.536 64.2798 167.536 64.2798 167.327 64.2798C166.909 64.2798 166.282 64.2798 165.864 64.4885C158.757 66.3668 151.442 68.0364 144.335 69.9147C142.872 70.3321 141.409 70.7495 139.528 70.1234C141.2 68.2451 143.081 67.4103 144.753 65.9494C149.561 63.2363 154.159 60.5232 158.966 57.8101C158.966 57.8101 160.848 57.184 161.684 56.3492C163.983 55.3057 166.073 54.2622 168.163 53.01C170.044 52.3839 171.716 51.1317 173.18 49.8795C174.016 49.0447 174.434 48.0012 174.016 46.7489C173.598 45.4967 172.553 45.0793 171.298 45.0793C170.044 45.0793 168.79 45.0793 167.745 45.0793C163.147 45.7054 158.757 46.5402 154.159 47.1663C153.532 47.1663 152.905 47.1663 152.487 46.5402C152.278 46.5402 152.069 46.9576 151.86 47.1663C152.069 47.1663 152.487 47.1663 152.696 46.5402C155.413 44.8706 158.339 43.6184 161.266 42.3662C165.237 40.6966 169.208 39.027 172.553 36.3139C173.598 35.4791 174.434 34.4356 174.016 32.9747C173.598 31.5138 172.553 31.0964 171.089 30.8877C170.253 30.8877 169.208 30.679 168.372 30.8877C166.7 30.8877 164.819 31.3051 162.938 31.3051C163.774 30.2616 165.237 30.2616 165.864 29.2181C166.491 29.2181 166.909 28.8007 167.327 28.3833C169.626 27.5485 171.716 26.2963 173.598 24.6267C175.061 23.3745 174.852 21.2875 173.18 20.8701C171.298 20.4527 169.626 20.0353 168.999 17.9483C168.999 17.9483 168.79 17.9483 168.581 17.9483C168.372 17.9483 168.163 17.9483 167.954 17.9483C167.745 17.3222 166.909 17.3222 166.7 17.1135C166.282 16.6961 165.237 16.4874 165.655 15.4438C166.282 14.8177 167.118 14.1916 167.118 13.1481C167.327 12.7307 167.745 12.1046 167.954 11.6872C168.581 10.2263 167.954 9.18283 166.909 8.34803C166.282 7.93062 165.655 7.72192 165.237 7.09582C165.237 6.46972 165.864 6.26102 166.282 5.84362C166.282 5.84362 166.7 5.42622 166.7 5.21752C167.327 3.54791 167.954 2.08701 166.491 0C166.491 1.0435 166.491 1.66961 166.491 2.50441C166.282 3.13051 165.864 3.75661 165.655 4.38271C165.655 4.38271 165.237 4.80012 165.028 5.00882C162.102 7.51322 162.102 8.13933 165.655 10.0176C166.7 10.6437 166.282 11.2698 166.073 11.8959C165.655 12.1046 165.237 12.522 165.237 12.9394C163.565 14.609 162.311 16.4874 164.192 18.7831C164.819 19.4092 163.983 19.6179 163.774 19.8266C162.102 19.8266 160.639 20.4527 159.175 21.2875C157.503 21.9136 157.503 23.1658 158.339 24.418C158.966 25.2528 159.384 26.2963 160.639 26.505C161.684 26.505 161.057 27.1311 160.639 27.5485C160.011 27.5485 159.802 27.9659 159.384 28.1746C157.503 29.0094 156.04 30.0529 154.577 31.5138C153.532 32.5573 152.696 34.0182 153.532 35.6878C154.368 37.1487 155.831 37.5661 157.503 37.3574C159.593 36.94 161.684 36.7313 163.774 36.3139C164.192 36.3139 164.819 36.3139 165.028 36.7313C163.147 37.5661 161.475 38.4009 159.593 39.027C154.995 40.9053 150.397 42.3662 146.216 45.0793C145.589 45.0793 144.962 45.4967 144.753 46.1228C143.081 47.1663 142.454 48.6273 143.081 50.5056C143.708 52.5926 145.589 53.01 147.261 52.8013C151.651 52.3839 156.04 51.5491 160.22 50.2969C160.639 50.2969 161.057 50.2969 161.684 50.2969C162.102 50.2969 162.311 50.2969 162.52 50.7143C160.848 51.5491 159.175 52.5926 157.503 53.4274C154.368 54.6796 151.651 56.3492 148.934 57.8101C146.216 59.4797 143.29 60.9406 140.991 63.2363C139.319 64.2798 138.065 65.532 136.81 66.9929C135.138 68.4538 134.511 70.1234 135.138 72.2104C135.765 74.0887 137.647 74.7148 139.319 74.9235C144.544 75.1322 149.561 74.0887 154.577 72.8365C156.876 72.4191 159.175 72.0017 161.266 71.5843C161.684 71.5843 162.52 71.5843 162.938 72.0017C160.011 73.4626 157.085 74.7148 154.159 76.1757C152.696 76.3844 151.442 77.2192 150.188 77.8453C142.454 81.602 134.511 85.1499 127.405 90.1587C125.314 91.4109 123.433 92.6631 121.552 94.3327C119.044 96.0023 116.954 97.8806 115.909 100.802C115.073 102.263 115.282 103.516 116.745 104.559C118.417 106.646 120.716 105.811 122.806 106.02C123.642 105.603 124.478 106.02 125.105 105.603C125.733 105.603 126.36 104.976 126.987 105.185C127.614 104.768 128.45 105.185 128.868 104.768C129.286 104.35 129.704 104.35 130.331 104.35C132.839 103.724 135.556 103.098 138.065 102.472C142.663 101.22 147.261 99.9676 151.86 98.7154C151.86 99.1328 151.651 99.5502 151.442 99.9676C151.442 99.9676 150.397 100.385 149.979 100.594C149.352 100.802 148.515 101.22 147.888 101.429C142.872 103.933 138.065 106.437 133.048 108.942C132.63 109.15 132.003 109.359 131.585 109.568C128.868 111.237 125.942 112.907 123.224 114.577C118.417 117.081 114.237 120.212 109.847 123.342C109.22 123.759 108.175 123.968 108.175 125.22C108.175 125.22 106.712 125.429 106.294 126.264C106.294 126.473 106.712 126.681 107.13 126.681C107.13 126.473 106.712 126.264 106.503 126.264C104.204 127.933 102.113 129.812 100.441 132.108C99.1872 132.942 98.5602 133.986 98.3512 135.447C98.1422 136.282 98.1422 137.325 98.3512 138.16C98.7692 139.412 99.3963 140.247 100.65 141.082C102.323 142.125 103.995 141.499 105.667 141.708C106.712 141.708 107.966 141.708 108.802 140.873C109.638 140.873 110.474 140.456 111.31 140.247C114.655 139.203 118.208 138.16 121.552 137.116C122.179 137.116 123.015 136.699 123.642 136.49C124.269 136.49 125.105 136.073 125.733 135.864C128.659 134.612 131.794 133.568 134.929 132.734C135.765 132.525 136.601 132.316 137.229 131.899C137.229 131.899 138.901 131.899 139.528 131.064C139.528 131.064 141.2 130.855 141.827 130.229C141.827 130.229 143.499 130.021 144.126 129.394C144.126 129.394 145.798 129.186 146.425 128.56C146.425 128.56 148.097 128.351 148.725 127.725C148.725 127.725 150.397 127.307 151.024 126.89C151.024 126.89 152.696 126.473 153.323 126.055C154.786 125.22 156.458 125.429 157.921 124.594C158.339 124.594 158.757 124.594 158.966 124.594C158.966 124.803 158.757 125.012 158.548 125.22C155.204 126.89 151.86 128.351 148.515 130.021C148.934 130.438 149.352 130.229 149.561 130.229C149.352 130.021 148.934 130.021 148.515 129.812C148.097 130.021 147.47 130.229 147.052 130.438C146.425 130.647 146.007 130.855 145.589 131.064C145.589 131.064 144.544 131.481 144.126 131.899C140.991 133.36 138.065 135.029 134.929 136.49C134.511 136.699 133.884 136.908 133.466 137.325C133.466 137.325 132.212 137.325 132.003 137.951C131.167 138.577 130.122 138.995 129.286 139.621C128.868 139.829 128.241 140.038 127.823 140.456C127.614 140.456 127.405 140.873 126.987 140.873C122.388 143.586 117.79 146.09 113.609 149.221C113.609 149.221 113.4 149.221 113.191 149.221C110.265 150.891 107.757 152.56 105.04 154.647C103.577 155.482 102.113 156.525 100.859 157.778C96.679 160.491 93.1257 163.621 89.1544 166.543C88.7363 166.961 88.3183 167.378 87.6913 167.795C86.6462 168.839 85.3921 170.091 84.347 171.135C81.0027 173.43 78.4945 176.352 76.4043 179.691C73.269 184.074 75.9863 189.083 80.1666 188.874C80.7937 189.083 81.4207 189.083 82.0478 188.874C82.4658 188.874 82.8838 188.874 83.0929 188.874C85.6011 188.457 88.1093 187.622 90.6175 186.787C93.1257 185.744 95.843 185.326 98.1422 184.074C98.1422 184.074 97.9331 183.865 97.7241 183.657C97.7241 183.657 97.9331 183.865 98.1422 184.074C102.95 182.613 107.548 180.735 112.355 178.648C114.237 178.022 115.909 177.396 117.79 176.769C118.417 176.561 119.044 176.352 119.88 176.143C121.134 175.309 122.597 174.891 124.06 174.474C124.896 174.474 125.524 174.474 126.151 173.639C126.151 173.639 127.405 173.222 128.032 173.013C128.659 172.595 129.495 172.387 130.122 172.178C130.749 172.178 131.585 171.761 132.212 171.343C132.212 171.343 133.675 171.135 134.093 170.508C134.72 170.508 135.556 170.091 136.183 169.882C138.274 168.839 140.573 168.004 142.872 167.587C143.499 167.587 144.335 167.169 144.962 166.752C144.962 166.752 146.634 166.543 147.261 165.917C147.261 165.917 148.934 165.708 149.561 165.082C149.561 165.082 151.233 164.874 151.86 164.247C151.86 164.247 153.532 163.83 154.159 163.413C154.159 163.413 155.831 162.995 156.458 162.578C157.294 162.369 158.13 161.952 158.966 161.743C159.384 161.743 160.22 161.534 159.802 162.578C157.294 163.621 154.786 164.665 152.278 165.708C151.651 165.708 151.024 166.126 150.606 166.334C149.979 166.752 148.934 166.752 148.306 167.587C147.888 167.587 147.261 167.795 146.843 168.004C146.216 168.004 145.798 168.421 145.171 168.63C144.544 168.839 143.917 169.256 143.29 169.465C142.663 169.465 142.036 169.465 141.618 170.091C141.827 170.091 142.036 170.091 142.454 170.091C142.245 170.091 142.036 170.091 141.618 170.091C139.946 170.926 138.065 171.761 136.183 172.387C135.556 172.595 135.138 172.804 134.511 173.013C134.511 173.013 134.511 173.013 134.302 173.013C133.675 173.013 133.048 173.222 132.63 173.848C132.63 173.848 131.585 174.265 131.167 174.682C131.167 174.682 129.913 175.1 129.286 175.517C128.241 175.935 127.196 176.561 126.36 176.978C125.733 177.187 125.314 177.396 124.687 177.813C124.687 177.813 123.642 178.23 123.224 178.648C123.224 178.648 122.179 179.065 121.761 179.483C118.626 180.943 115.7 182.613 112.564 184.074C111.728 184.491 110.683 185.117 109.847 185.535C108.802 185.535 107.966 186.161 107.13 186.787C106.085 187.413 104.831 188.039 103.786 188.665C103.159 188.874 102.741 189.083 102.113 189.292C101.904 189.292 101.695 189.5 101.277 189.709C100.65 190.126 100.023 190.335 99.3963 190.752C98.9782 190.961 98.3512 191.379 97.9331 191.587C96.888 192.005 96.052 192.422 95.2159 193.048C94.7979 193.257 94.3798 193.674 94.1708 193.883C93.5438 194.092 93.1257 194.3 92.4987 194.509C92.0806 194.718 91.6626 194.926 91.2446 195.344C90.8265 195.761 90.1995 195.761 89.7814 196.179C88.9454 196.805 87.9003 197.431 87.0642 198.057C86.4371 198.474 85.8101 198.683 85.183 198.892C80.7937 201.605 76.1953 204.527 71.8059 207.24C71.1788 207.657 70.3428 207.866 69.7157 208.492C68.2526 209.535 66.7895 210.579 65.3263 211.622C61.773 214.127 58.2197 216.631 54.6664 219.136C54.2484 219.553 53.8303 219.97 53.2033 220.179C52.9943 220.388 52.7853 220.805 52.3672 221.014C52.3672 221.431 51.9492 221.64 52.1582 222.058C52.1582 221.64 52.3672 221.223 52.5762 221.014C50.9041 222.057 49.441 223.101 48.3959 224.562C46.7237 225.814 45.0516 226.858 44.2155 228.736C42.7524 230.197 42.3344 231.866 42.7524 233.745C42.7524 234.58 42.5434 235.414 43.5885 236.04C44.0065 237.084 44.8426 237.71 45.4696 238.336C45.8877 238.754 46.5147 238.754 46.9327 239.171C48.3959 239.588 49.65 240.006 51.1131 239.588C51.1131 239.588 51.1131 239.588 51.1131 239.38C51.1131 239.38 52.1582 238.962 52.5762 239.38C53.4123 239.38 54.2484 238.962 54.8754 238.754C55.9205 238.754 56.7566 238.127 57.3836 237.501C58.4287 237.084 59.4738 236.667 60.5189 236.249C61.146 236.04 61.982 235.832 62.4001 235.414C62.8181 235.206 63.4452 234.997 63.8632 234.58C64.4903 234.58 65.1173 234.58 65.5353 233.953C66.1624 233.745 66.7895 233.327 67.4165 233.119C68.0436 233.119 68.4616 232.701 69.0887 232.493C69.0887 232.493 70.3428 232.075 70.9698 231.658C72.0149 231.24 73.06 230.614 74.1051 230.197C74.5231 229.988 75.1502 229.779 75.5682 229.571C76.8223 229.571 78.0764 228.945 78.9125 227.901C78.9125 227.901 79.9576 227.692 80.3756 227.066C81.6297 226.649 82.6748 226.023 83.9289 225.605C84.347 225.397 84.974 225.188 85.3921 224.771C86.0191 224.771 86.6462 224.562 87.0642 224.145C87.0642 224.145 88.3183 223.727 88.9454 223.31C88.9454 223.31 88.9454 223.31 88.9454 223.101C90.6175 222.684 92.0806 222.266 93.5438 221.223C94.1708 221.223 94.5888 220.805 95.2159 220.597C96.052 220.597 96.47 219.971 97.0971 219.762C98.1422 219.553 98.9782 218.927 99.8143 218.718C100.023 218.718 100.232 218.51 100.441 218.301C101.068 218.301 101.486 217.883 102.113 217.675C102.95 217.675 103.368 217.049 103.995 216.84C104.622 216.631 105.458 216.423 105.876 216.005C105.876 216.005 106.921 215.588 107.339 215.379C107.339 215.379 108.802 215.379 109.22 214.544C109.22 214.544 110.474 214.127 111.101 213.709C111.101 213.709 112.355 213.292 112.982 212.875C114.028 212.875 114.864 212.457 115.7 211.831C117.163 211.205 118.835 210.579 120.298 209.953C120.298 209.953 120.716 209.953 120.925 209.744C121.343 209.744 121.97 209.744 122.388 209.327C122.388 209.327 123.851 209.327 124.269 208.701C124.896 208.701 125.733 208.701 126.151 207.866C126.987 207.866 127.614 207.866 128.032 207.031C128.45 207.031 128.868 207.031 129.286 207.24C128.032 208.492 125.942 208.701 124.896 209.953C124.269 209.953 123.642 209.953 123.433 210.788C122.806 210.788 122.179 210.788 121.97 211.414C118.835 213.083 115.7 214.544 112.773 216.631C112.982 216.631 113.191 216.631 113.609 216.84C113.609 216.84 113.191 216.631 112.982 216.423C112.355 216.84 111.728 217.049 111.101 217.466C110.474 217.675 110.056 217.675 109.638 218.301C109.638 218.301 108.802 218.718 108.384 218.927C108.384 218.927 107.339 219.344 106.921 219.762C106.921 219.762 106.503 219.97 106.294 220.179C105.458 220.388 104.831 220.805 104.204 221.223C103.786 221.431 103.368 221.849 103.159 222.058C101.486 222.684 100.232 223.727 98.7692 224.562C98.1422 224.771 97.3061 225.188 96.679 225.605C95.2159 226.44 93.9618 227.484 92.4987 228.319C91.8716 228.736 91.0355 228.945 90.4085 229.362C90.4085 229.362 90.1995 229.779 89.9905 229.779C90.1995 229.779 90.4085 229.779 90.8265 229.988C90.8265 229.988 90.4085 229.571 90.1995 229.571C86.4371 232.075 82.4658 234.58 78.7035 237.084C78.2854 237.501 77.6584 237.71 77.2404 238.127C76.1953 238.962 74.9412 239.797 73.8961 240.632C73.06 240.841 72.4329 241.467 71.8059 242.093C68.6706 244.597 65.1173 246.684 62.1911 249.397C59.6828 251.067 57.3836 252.736 55.2935 254.824C55.2935 254.824 55.5025 255.032 55.7115 255.241C55.7115 255.241 55.7115 254.824 55.2935 254.824C54.6664 255.241 54.0394 255.867 53.2033 256.284C52.7853 256.702 52.3672 257.119 51.7402 257.328C50.9041 258.163 49.859 258.789 49.0229 259.624C48.3959 260.041 47.7688 260.667 47.1418 261.085C45.8877 262.128 44.8426 263.172 43.5885 264.215C42.7524 264.215 42.1253 265.05 41.7073 265.676C40.0352 267.137 38.363 268.806 36.6909 270.267C35.4368 270.685 34.8097 271.728 34.1827 272.563C32.3015 274.441 30.4203 276.32 28.5392 278.198C28.1211 278.615 27.7031 279.241 27.2851 279.659C27.2851 279.868 27.076 280.076 26.867 280.494C26.867 280.494 26.867 280.702 26.867 280.911C26.24 280.911 25.8219 281.537 25.8219 282.163C22.8957 285.294 25.1949 292.598 28.9572 293.224C30.8384 295.103 34.3917 295.311 37.3179 294.059C37.3179 294.059 39.1991 293.642 40.0352 293.224C40.4532 292.807 41.2893 292.807 41.9163 292.39C42.7524 292.181 43.5885 292.181 44.2155 291.555C44.2155 291.555 45.2606 291.137 45.6786 290.929C45.6786 290.929 47.1418 290.929 47.5598 290.094C47.5598 290.094 49.441 289.259 50.277 289.05C50.4861 289.05 50.6951 288.842 50.9041 288.633C51.5311 288.633 52.1582 288.633 52.5762 288.007C53.6213 287.381 54.8754 286.963 55.9205 286.337C56.5476 286.129 56.9656 285.92 57.3836 285.503C57.3836 285.503 58.4287 285.085 58.8468 284.668C58.8468 284.668 59.8919 284.25 60.3099 283.833C60.3099 283.833 61.355 283.415 61.773 282.998C61.773 282.998 62.8181 282.581 63.2362 282.163C63.2362 282.163 64.2812 281.746 64.6993 281.328C64.6993 281.328 65.7444 280.911 66.1624 280.494C66.1624 280.494 67.2075 280.076 67.6255 279.659C67.6255 279.659 68.6706 279.241 69.0887 278.824C69.0887 278.824 70.1337 278.615 70.5518 277.989C70.5518 277.989 71.5969 277.781 72.0149 277.154C72.0149 277.154 73.06 276.946 73.478 276.32C73.478 276.32 74.5231 276.111 74.9412 275.485C74.9412 275.485 75.9862 275.276 76.4043 274.65C76.4043 274.65 77.4494 274.233 77.8674 273.815C78.2854 273.607 78.9125 273.189 79.3305 272.98C79.9576 272.98 80.5846 272.772 81.0027 272.146C81.0027 272.146 82.0478 271.728 82.4658 271.311C82.4658 271.311 83.5109 270.893 83.9289 270.476C85.3921 269.85 86.6462 269.015 88.1093 268.598C88.9454 268.18 89.5724 267.763 90.4085 267.346C91.0355 267.346 91.4536 266.928 92.0806 266.719C92.0806 266.719 93.3347 266.302 93.9618 265.885C93.9618 265.885 95.0069 265.676 95.4249 265.05C95.4249 265.05 96.47 264.632 96.888 264.215C96.888 264.215 98.3512 264.215 98.7692 263.38C99.1872 263.172 99.8143 262.754 100.232 262.545C100.859 262.337 101.486 262.128 102.113 261.711C103.368 261.293 104.413 260.667 105.667 260.25C105.667 260.25 106.712 259.832 107.13 259.624C107.13 259.624 108.593 259.624 109.011 258.789C109.011 258.789 110.265 258.371 110.892 257.954C110.892 257.954 111.937 257.537 112.355 257.328C112.982 257.328 113.4 256.911 114.028 256.702C114.655 256.493 115.282 256.076 115.909 255.867C116.954 255.867 117.79 255.45 118.626 255.032C120.925 253.989 123.224 253.571 125.314 252.11C126.36 251.902 127.405 251.276 128.45 250.858C128.659 250.858 128.868 250.649 129.286 250.441C130.122 250.232 130.958 250.232 131.585 249.606C131.585 249.606 133.048 249.606 133.466 248.98C134.093 248.562 134.929 248.354 135.556 248.145C136.183 247.936 137.02 247.728 137.647 247.31C137.647 247.31 139.528 246.893 140.364 246.475C142.245 245.641 144.335 245.641 145.798 244.18C147.261 244.18 148.725 243.345 149.979 242.719C150.815 242.719 151.651 242.719 152.278 241.884C153.95 241.884 155.204 241.258 156.458 240.423C157.503 240.423 158.339 240.423 159.175 239.588C159.802 239.588 160.22 239.588 160.848 239.588C160.43 239.797 160.22 240.006 159.802 240.423C159.175 240.423 158.757 240.423 158.548 241.258C157.712 241.258 157.085 241.258 156.667 242.093C156.249 242.301 155.622 242.51 155.204 242.928C154.577 242.928 153.95 243.136 153.532 243.762C153.532 243.762 152.487 244.18 152.069 244.597C152.069 244.597 150.815 244.597 150.606 245.223C147.888 246.475 145.171 247.936 142.663 249.189C141.827 249.189 140.991 249.606 140.364 250.232C138.483 251.484 136.392 252.11 134.511 253.363C134.302 253.363 134.093 253.571 133.884 253.78C132.839 253.78 132.003 254.824 131.167 255.241C131.167 255.241 130.122 255.658 129.704 256.076C128.659 256.702 127.823 257.119 126.778 257.745C125.733 258.163 124.896 258.58 124.06 259.206C124.06 259.206 122.806 259.206 122.597 259.832C120.716 260.876 118.835 261.919 117.163 262.963C117.163 262.963 117.163 262.963 117.163 263.172C117.163 263.172 117.163 262.963 117.163 262.754C116.536 262.754 116.118 262.754 115.7 263.589C115.282 263.798 114.864 264.215 114.446 264.424C114.446 264.424 114.655 264.632 114.864 264.841C114.864 264.841 114.864 264.424 114.446 264.424C113.609 264.841 112.773 265.467 111.937 265.885C110.892 266.093 110.056 266.928 109.22 267.346C109.22 267.346 108.802 267.554 108.593 267.763C107.757 267.972 107.13 268.389 106.503 268.806C105.249 269.641 103.995 270.476 102.741 271.102C101.695 271.311 100.859 272.146 100.023 272.563C99.6053 272.772 99.3963 273.189 98.9782 273.398C98.3512 273.607 97.7241 274.024 96.888 274.441L93.1257 276.737C93.1257 276.737 91.6626 277.363 91.0355 277.781C89.5724 278.615 88.3183 279.659 86.8552 280.494C86.2281 280.702 85.3921 281.12 84.765 281.537C84.765 281.537 84.556 281.746 84.347 281.955C81.8388 283.415 79.3305 284.876 77.0313 286.546C73.8961 288.633 70.7608 290.72 67.6255 292.598C66.9985 292.807 66.3714 293.224 65.9534 293.642C64.6993 294.477 63.4452 295.311 62.1911 296.146C61.564 296.146 61.146 296.981 60.5189 297.19C60.5189 297.19 60.1009 297.607 59.8919 297.607C59.2648 297.607 58.8468 298.442 58.2197 298.651C58.2197 298.651 57.1746 299.277 56.7566 299.694C51.9492 303.033 47.1418 306.373 42.3344 309.712C41.7073 309.712 41.2893 310.547 40.6622 310.755C38.781 312.216 36.8999 313.677 35.0187 315.138C34.1827 315.555 33.5556 315.764 33.1376 316.599C32.3015 317.225 31.6744 317.642 30.8384 318.268C29.1662 319.103 27.7031 320.355 26.24 321.608C26.24 321.608 26.449 321.816 26.658 322.025C26.658 322.025 26.658 321.608 26.24 321.608C23.5227 323.486 20.8055 325.573 18.0883 327.869C18.0883 327.869 18.2973 328.077 18.5063 328.286C18.5063 328.286 18.5063 327.869 18.0883 327.869C17.4612 328.286 17.0432 328.495 16.4161 328.912C15.7891 329.538 14.953 329.747 14.535 330.373C14.535 330.373 13.4899 331.208 13.0718 331.417C11.3997 332.878 9.72755 334.338 8.05541 335.591C7.21934 335.591 6.59228 336.425 6.17425 337.052C6.38327 337.052 6.59228 337.052 6.8013 337.052C6.59228 337.052 6.38327 337.052 5.96523 337.052C4.92014 338.095 3.87505 339.139 2.82996 340.182C2.41192 340.808 1.99389 341.226 1.57585 341.643C1.57585 341.852 1.36683 342.06 1.15782 342.478C0.112727 343.313 0.321745 344.565 0.112727 345.608C-0.514327 348.113 1.57585 351.452 3.87505 352.287C5.75621 354.165 10.1456 354.582 13.4899 353.122C13.4899 353.122 15.162 352.913 15.7891 352.287C15.7891 352.287 17.4612 352.078 18.0883 351.452C18.0883 351.452 19.3424 351.034 19.9694 350.617C19.9694 350.617 21.2235 350.2 21.8506 349.782C21.8506 349.782 23.1047 349.365 23.7318 348.947C23.7318 348.947 24.5678 348.739 24.9859 348.113C24.5678 348.321 24.1498 348.53 23.7318 348.947C24.3588 348.947 24.9859 348.947 25.1949 348.321C25.4039 348.321 25.6129 347.904 25.8219 347.904C26.658 347.487 27.7031 347.278 28.5392 346.652C28.5392 346.652 29.5843 346.443 30.0023 345.817C30.0023 345.817 31.0474 345.4 31.4654 344.982C31.4654 344.982 32.5105 344.565 32.9285 344.147C32.9285 344.147 33.9736 343.73 34.3917 343.313C36.0638 342.686 37.5269 341.852 38.9901 341.017C38.9901 341.017 40.0352 340.599 40.4532 340.182C40.4532 340.182 41.4983 339.765 41.9163 339.347C41.9163 339.347 42.9614 338.93 43.3794 338.512C43.3794 338.512 44.4245 338.095 44.8426 337.678C44.8426 337.678 45.8877 337.469 46.3057 336.843C46.3057 336.843 47.5598 336.843 47.9778 336.217C48.6049 336.217 49.2319 336.217 49.441 335.382C50.068 335.382 50.6951 335.382 50.9041 334.547C51.5311 334.547 52.1582 334.547 52.3672 333.712C52.9943 333.712 53.6213 333.712 53.8303 332.878C54.4574 332.878 55.0844 332.878 55.2935 332.043C55.9205 332.043 56.5476 332.043 56.7566 331.208C57.3836 331.208 58.0107 331.208 58.2197 330.373C58.8468 330.373 59.4738 330.373 59.6828 329.538C59.6828 329.538 59.6828 329.33 59.8919 329.121C60.3099 329.121 60.7279 328.912 61.146 328.704C61.773 328.495 62.1911 328.495 62.8181 327.869C62.8181 327.869 63.8632 327.451 64.2812 327.034C65.9534 326.408 67.6255 325.573 69.2977 324.738C69.2977 324.738 70.3428 324.53 70.7608 323.903C70.7608 323.903 72.2239 323.903 72.642 323.069C74.7321 321.816 77.0313 320.982 79.1215 319.938C79.7486 319.938 80.1666 319.521 80.7937 319.312C80.7937 319.312 81.2117 319.312 81.4207 319.103C82.4658 318.895 83.5109 318.477 84.347 317.851C85.6011 317.851 86.8552 317.225 87.9003 316.39C89.1544 316.39 90.4085 315.973 91.4536 314.929C91.4536 314.929 92.9167 314.929 93.3347 314.303C95.843 313.677 98.3512 312.634 100.65 311.173C102.114 311.173 103.368 310.755 104.413 309.712C107.966 308.877 111.101 307.416 114.446 305.955C114.446 305.955 115.909 305.955 116.327 305.329C117.999 305.329 119.253 304.703 120.507 303.868C122.179 303.868 123.433 303.242 124.687 302.407C126.36 302.407 127.614 301.781 128.868 300.946C128.868 300.946 130.54 300.946 131.167 300.32C131.167 300.32 132.839 300.32 133.466 299.694C134.302 299.694 135.138 299.694 135.765 298.859C135.765 298.859 137.438 298.859 138.065 298.233C138.065 298.233 139.737 298.233 140.364 297.607C140.364 297.607 142.036 297.607 142.663 296.981C143.708 296.981 144.544 296.981 145.38 296.146C147.261 296.146 148.725 295.52 150.397 294.685C151.233 294.685 152.069 294.268 152.696 294.059C153.532 294.059 154.368 293.642 154.995 293.433C155.831 293.224 156.876 293.016 157.712 292.807C158.757 292.807 159.593 291.764 160.639 291.972C161.475 291.764 162.52 291.555 163.356 291.137C164.192 290.929 165.237 290.72 166.073 290.511C166.909 290.511 167.954 290.094 168.79 289.885C170.044 290.094 170.88 288.842 172.135 289.05C173.389 288.842 174.434 288.842 175.688 288.216C175.688 288.216 177.151 288.633 177.569 287.59C178.196 287.172 178.823 287.381 179.45 287.381C180.704 287.172 181.749 286.963 183.003 286.546C183.63 286.129 184.467 286.546 185.094 286.337C185.721 286.337 186.348 285.711 186.975 285.92C188.438 285.711 189.901 285.503 191.155 285.085C192.618 284.876 194.29 284.876 195.754 284.25C197.635 284.042 199.307 284.042 201.188 283.415C201.397 283.415 201.606 283.415 201.815 283.415C204.323 283.207 206.831 282.998 209.131 282.581C209.549 282.581 209.758 282.581 210.176 282.581C211.012 282.163 211.639 282.581 212.475 282.581C213.102 282.581 213.729 282.581 214.147 282.581C212.893 282.581 211.43 282.581 210.176 282.581C216.028 282.581 221.881 282.581 227.524 282.581C227.942 282.581 228.151 282.581 228.569 282.581C230.242 282.789 231.914 282.998 233.586 283.207C235.676 284.042 237.557 284.668 239.647 284.668C239.647 284.668 241.738 285.503 242.574 286.129C242.574 286.129 242.783 286.337 242.992 286.546C243.201 286.963 243.619 287.381 244.037 287.59C244.037 287.798 244.246 288.216 244.455 288.424C244.873 289.468 244.664 290.511 244.455 291.555C244.455 291.555 244.455 291.555 244.455 291.764C243.828 293.433 243.619 295.311 242.783 297.19C242.365 298.025 242.156 298.859 241.947 299.903C241.319 300.738 241.528 301.781 241.11 302.616C241.11 302.616 240.692 304.703 240.274 305.538C239.856 305.955 240.065 306.581 239.856 307.207C239.02 307.833 239.438 308.877 239.438 309.503C239.438 309.503 239.438 309.712 239.438 309.92C238.602 311.173 239.02 312.216 239.856 313.051C240.901 314.094 242.156 313.886 243.201 313.26C243.619 313.051 243.828 312.634 244.246 312.842C244.873 312.842 245.5 312.634 245.918 312.007C245.918 312.007 246.963 311.59 247.381 311.173C248.008 310.755 248.635 310.338 249.262 309.92C249.889 309.712 250.516 309.294 250.934 308.877C251.77 308.042 252.397 306.999 253.442 306.373C254.488 306.373 254.906 305.746 255.115 304.912C256.996 302.616 258.668 300.32 259.922 297.607C260.967 296.772 261.176 295.52 261.385 294.477C261.385 294.268 261.385 294.059 261.594 293.851C261.594 293.851 261.594 293.851 261.594 293.642C262.012 292.807 262.012 291.764 262.43 290.929C263.475 288.007 263.684 285.085 262.43 282.163L271 286.129ZM238.393 217.675C238.393 217.675 238.393 218.092 238.393 218.301C238.393 218.301 238.184 218.301 238.184 218.51C238.184 218.301 238.602 217.883 238.602 217.675H238.393ZM225.225 208.283C225.225 208.283 225.225 208.283 225.434 208.283C225.225 208.283 225.016 208.283 224.807 208.283C224.807 208.283 225.016 208.283 225.225 208.075V208.283ZM223.344 208.492C223.344 208.492 223.971 208.492 224.389 208.492C223.971 208.492 223.762 208.492 223.344 208.492ZM208.295 236.249C208.086 236.458 207.668 236.667 207.459 236.875C207.668 236.875 208.086 236.458 208.295 236.249ZM203.487 228.945C203.487 228.945 203.487 228.945 203.278 228.945C203.278 228.945 203.696 228.945 203.905 228.736C203.905 228.736 203.905 228.945 203.696 228.945H203.487ZM202.024 207.866C202.024 207.866 203.696 208.075 204.323 207.448C204.323 207.448 202.86 207.448 202.024 207.866C202.024 207.866 202.024 207.866 202.024 208.075C202.024 208.075 202.024 208.075 202.024 207.866ZM192.2 243.971C192.2 243.971 192.2 243.971 191.991 243.971C191.991 243.971 191.991 243.971 192.2 243.971ZM176.315 239.588H176.733C176.524 239.588 176.106 239.797 175.897 240.006C175.897 240.006 176.106 240.006 176.315 239.797V239.588ZM231.496 175.309C231.496 175.309 231.496 175.309 231.287 175.309C231.287 175.309 231.287 175.309 231.496 175.1V175.309ZM176.733 148.595C176.733 148.595 176.733 148.595 176.315 148.595C176.315 148.595 176.524 148.595 176.733 148.595ZM175.27 162.786C175.27 162.786 174.852 163.204 174.434 162.995C174.225 162.995 174.016 162.995 173.807 162.995C174.225 162.995 174.852 162.995 175.27 162.786ZM167.536 167.169C167.536 167.169 167.536 167.169 167.536 167.378C167.536 167.378 167.327 167.378 167.118 167.169C167.118 167.169 167.327 167.169 167.536 167.169ZM186.557 114.368C186.557 114.368 186.557 114.368 186.348 114.368H186.557ZM177.36 110.82C177.151 110.82 176.942 111.237 176.733 111.446C177.151 111.446 177.151 111.029 177.36 110.82ZM173.18 112.281C173.18 112.281 173.598 112.281 173.807 112.281C173.389 112.281 172.971 112.281 172.762 112.49C172.762 112.49 173.18 112.49 173.18 112.281ZM183.84 63.2363C183.84 63.2363 183.84 63.2363 184.049 63.2363C184.049 63.2363 183.84 63.2363 183.631 63.2363H183.84ZM167.954 51.3404C167.954 51.3404 168.163 51.3404 168.372 51.3404C168.372 51.3404 168.372 51.3404 168.163 51.3404H167.954ZM167.118 18.3657C167.118 18.3657 167.118 18.7831 166.909 18.9918C166.909 18.9918 167.118 18.5744 167.327 18.3657H167.118ZM157.712 34.853C157.712 34.853 157.712 34.853 157.921 34.853H157.712ZM162.102 23.3745C162.102 23.3745 162.729 23.3745 163.147 23.3745C162.729 23.3745 162.52 23.3745 162.102 23.3745ZM163.565 30.4703C163.565 30.4703 163.147 30.679 162.938 30.8877C162.938 30.8877 163.147 30.8877 163.356 30.679C163.356 30.679 163.565 30.679 163.774 30.679L163.565 30.4703ZM141.409 69.4973C141.409 69.4973 141.409 69.2886 141.409 69.0799C141.409 69.0799 141.409 69.0799 141.409 69.2886V69.4973ZM155.831 83.4803C155.831 83.4803 155.831 83.4803 156.04 83.4803H155.831ZM134.511 94.7501C134.511 94.7501 134.511 94.9588 134.511 95.1675C134.511 95.1675 134.511 95.1675 134.511 94.9588C134.511 94.9588 134.511 94.9588 134.72 94.9588L134.511 94.7501ZM133.884 97.0458C133.884 97.0458 133.466 97.0458 133.257 97.0458C133.466 97.0458 133.675 97.0458 134.093 97.0458H133.884ZM158.13 97.4632C158.13 97.4632 158.13 97.0458 157.921 97.0458C157.921 97.0458 157.921 97.4632 157.921 97.6719L158.13 97.4632ZM168.163 95.1675C168.163 95.1675 168.163 95.1675 167.954 95.1675C167.954 95.1675 168.163 95.1675 168.372 95.1675H168.163ZM154.786 96.8371C155.831 96.8371 156.876 96.4197 158.13 96.4197C156.876 96.4197 155.831 96.4197 154.577 97.0458L154.786 96.8371ZM98.9782 175.1C98.9782 175.1 98.7692 175.1 98.5602 175.1C98.5602 175.1 98.7692 175.1 98.9782 174.891C98.9782 174.891 98.9782 174.891 98.9782 175.1ZM113.191 176.561C113.191 176.561 112.773 176.561 112.355 176.561C112.773 176.561 112.982 176.561 113.4 176.561H113.191ZM142.663 164.456C142.663 164.456 142.872 164.039 142.663 163.413C143.081 163.83 143.499 163.83 143.917 164.039C143.499 164.039 143.081 164.247 142.663 164.456ZM160.639 174.474C160.639 174.474 159.802 174.891 159.593 175.309C160.011 175.1 160.43 174.891 160.639 174.682V174.474ZM153.741 178.648C153.741 178.648 153.95 178.648 154.159 178.648C154.159 178.648 153.95 178.648 153.741 178.648ZM95.843 220.805C95.843 220.805 95.843 220.805 95.6339 220.805H95.843ZM123.224 209.744C123.224 209.744 123.224 209.744 123.015 209.744H123.224ZM44.6336 266.511C44.6336 266.511 44.6336 266.511 44.6336 266.302C44.6336 266.302 44.6336 266.302 44.6336 266.511ZM100.441 266.511C100.441 266.511 100.441 266.511 100.441 266.302C100.441 266.302 100.441 266.302 100.232 266.302L100.441 266.511ZM120.089 257.745C120.089 257.745 120.089 257.745 119.88 257.745C119.88 257.745 119.88 257.745 120.089 257.745C120.089 257.745 120.089 257.745 120.089 257.954V257.745ZM123.015 232.284C123.015 232.284 123.224 232.284 123.433 232.284C123.433 232.284 123.224 232.284 123.224 232.493L123.015 232.284ZM125.314 230.823C125.314 230.823 125.524 230.823 125.733 230.614C125.733 230.614 125.524 230.614 125.314 230.823ZM137.02 226.649C137.02 226.649 137.02 226.649 136.81 226.649C136.81 226.649 137.02 226.649 137.229 226.649C137.229 226.649 137.229 226.649 137.229 226.858L137.02 226.649ZM163.983 246.058C163.983 246.058 163.565 246.267 163.565 246.684H163.356C163.147 246.684 162.938 246.684 162.938 246.684C163.356 246.684 163.774 246.267 164.192 245.849L163.983 246.058ZM139.11 255.867C139.11 255.867 139.11 255.867 139.319 255.867H139.11ZM5.75621 351.661C5.75621 351.661 5.75621 351.452 5.75621 351.243C5.75621 351.452 5.96523 351.869 6.17425 352.078C6.17425 352.078 5.96523 352.078 5.96523 351.661H5.75621ZM31.8835 323.486C31.8835 323.486 31.8835 323.486 31.6744 323.695C31.6744 323.695 31.8835 323.695 32.0925 323.277L31.8835 323.486ZM61.773 334.965C61.773 334.965 63.2362 334.13 64.0722 333.921C63.0271 333.712 62.1911 333.921 61.773 334.965ZM86.2281 286.546C86.2281 286.546 86.2281 286.337 86.4371 286.129C86.4371 286.129 86.4371 286.129 86.4371 286.337L86.2281 286.546ZM94.5889 290.72C94.5889 290.72 94.5889 290.72 94.3798 290.72C94.3798 290.72 94.1708 290.72 93.9618 290.511C94.1708 290.511 94.3798 290.72 94.5889 290.72ZM105.249 289.05C105.249 289.05 105.249 289.05 105.458 289.05C105.458 289.05 105.876 289.05 106.085 289.05C105.876 289.05 105.667 289.05 105.249 289.259V289.05ZM107.548 277.781C107.339 277.781 107.13 277.989 106.712 277.989C107.13 277.781 107.548 277.363 107.757 277.154C107.757 277.363 107.757 277.363 107.757 277.781H107.548ZM116.536 278.615C116.536 278.615 116.954 278.407 117.163 278.198H117.581C117.163 278.407 116.745 278.615 116.327 278.824L116.536 278.615ZM117.581 267.346C117.581 267.346 119.044 267.137 119.044 266.302C118.835 266.928 117.999 267.137 117.581 267.346ZM178.823 267.554C178.823 267.554 178.823 267.554 179.032 267.554H178.823ZM186.975 263.798C186.975 263.798 186.975 263.798 186.975 264.006C186.975 264.006 186.766 264.006 186.557 264.006L186.975 263.798ZM218.955 261.293H219.373C219.791 261.293 220 261.293 220.418 261.293C220 261.293 219.373 261.293 218.955 261.293ZM243.201 286.963C243.201 286.963 243.201 286.963 243.201 286.755C243.201 286.755 243.201 286.755 243.201 286.963ZM251.979 290.511C251.979 290.511 251.979 290.511 252.188 290.511C252.188 290.511 252.188 290.511 251.979 290.511ZM252.397 268.18C253.861 268.806 255.115 269.224 256.578 270.059C257.205 270.476 257.832 270.893 258.459 271.311C256.578 270.059 254.488 269.224 252.397 268.18Z" fill="#2B6DA3"/>
</svg>
