<svg width="26" height="26" viewBox="0 0 26 26" fill="none" xmlns="http://www.w3.org/2000/svg">
<path d="M20.0144 1H6.28491C3.46451 1 1.17626 3.22508 1.12305 5.97994V20.0191C1.17626 22.827 3.46451 25.052 6.28491 24.9991H19.9612C22.7816 25.052 25.0698 22.774 25.123 20.0191V5.97994C25.0698 3.22508 22.7816 1 20.0144 1ZM23.0477 20.0721C23.0477 21.7144 21.7173 23.0389 20.0676 23.0389C20.0144 23.0389 20.0144 23.0389 19.9612 23.0389H6.28491C4.63524 23.0919 3.25165 21.8204 3.19844 20.1781C3.19844 20.1251 3.19844 20.1251 3.19844 20.0721V6.03292C3.19844 4.3906 4.52881 3.06615 6.17848 3.06615C6.23169 3.06615 6.23169 3.06615 6.28491 3.06615H19.9612C21.6108 3.01317 22.9944 4.28464 23.0477 5.92696C23.0477 5.97994 23.0477 5.97994 23.0477 6.03292V20.0721Z" fill="white" stroke="#333333" stroke-width="0.3"/>
<path d="M13.1225 7.54541C10.1179 7.54541 7.66797 9.99533 7.66797 13C7.66797 16.0046 10.1179 18.4545 13.1225 18.4545C16.1271 18.4545 18.5771 16.0046 18.5771 13C18.5771 9.99533 16.1271 7.54541 13.1225 7.54541ZM13.1225 16.6055C11.0886 16.6055 9.47074 14.9876 9.47074 12.9537C9.47074 10.9198 11.0886 9.30195 13.1225 9.30195C15.1564 9.30195 16.7743 10.9198 16.7743 12.9537V13C16.7743 14.9876 15.1564 16.6517 13.1225 16.6517V16.6055Z" fill="white"/>
<path d="M19.1227 8.63637C20.0264 8.63637 20.7591 7.90376 20.7591 7.00002C20.7591 6.09628 20.0264 5.36365 19.1227 5.36365C18.219 5.36365 17.4863 6.09628 17.4863 7.00002C17.4863 7.90376 18.219 8.63637 19.1227 8.63637Z" fill="white"/>
</svg>
