<svg width="22" height="18" viewBox="0 0 22 18" fill="none" xmlns="http://www.w3.org/2000/svg">
<g clip-path="url(#clip0_9828_7231)">
<path d="M21.9275 13.779C21.9275 15.6516 20.4048 17.1764 18.5347 17.1764H0.0742188V3.72062C0.0742188 1.84805 1.59701 0.323242 3.4671 0.323242H21.9275V13.779Z" fill="white"/>
<path d="M15.918 10.328H17.3205C17.3606 10.328 17.4541 10.3146 17.4942 10.3146C17.7613 10.2611 17.9884 10.0204 17.9884 9.68597C17.9884 9.36496 17.7613 9.1242 17.4942 9.05732C17.4541 9.04395 17.374 9.04395 17.3205 9.04395H15.918V10.328Z" fill="url(#paint0_linear_9828_7231)"/>
<path d="M17.1593 1.45996C15.8235 1.45996 14.7282 2.54338 14.7282 3.8943V6.42227H18.1612C18.2413 6.42227 18.3348 6.42227 18.4016 6.43565C19.1763 6.47578 19.7507 6.87704 19.7507 7.57257C19.7507 8.12096 19.3634 8.58911 18.642 8.68273V8.70949C19.4301 8.76299 20.0312 9.20438 20.0312 9.88653C20.0312 10.6222 19.3634 11.1037 18.4817 11.1037H14.7148V16.0526H18.2814C19.6171 16.0526 20.7125 14.9692 20.7125 13.6183V1.45996H17.1593Z" fill="url(#paint1_linear_9828_7231)"/>
<path d="M17.8148 7.73305C17.8148 7.41204 17.5877 7.19803 17.3205 7.15791C17.2938 7.15791 17.227 7.14453 17.187 7.14453H15.918V8.32158H17.187C17.227 8.32158 17.3072 8.32158 17.3205 8.3082C17.5877 8.26807 17.8148 8.05407 17.8148 7.73305Z" fill="url(#paint2_linear_9828_7231)"/>
<path d="M3.72182 1.45996C2.38604 1.45996 1.2907 2.54338 1.2907 3.8943V9.89991C1.97195 10.2343 2.67991 10.4483 3.38787 10.4483C4.22941 10.4483 4.68358 9.94003 4.68358 9.24451V6.4089H6.76739V9.23113C6.76739 10.3279 6.08614 11.2241 3.77525 11.2241C2.37268 11.2241 1.27734 10.9164 1.27734 10.9164V16.0393H4.84387C6.17965 16.0393 7.27499 14.9558 7.27499 13.6049V1.45996H3.72182Z" fill="url(#paint3_linear_9828_7231)"/>
<path d="M10.4389 1.45996C9.10315 1.45996 8.00781 2.54338 8.00781 3.8943V7.07767C8.62227 6.55603 9.69089 6.22164 11.414 6.30189C12.3357 6.34202 13.3242 6.59616 13.3242 6.59616V7.62607C12.83 7.37193 12.2422 7.14455 11.4808 7.09105C10.1718 6.99742 9.38366 7.63945 9.38366 8.76299C9.38366 9.89991 10.1718 10.5419 11.4808 10.4349C12.2422 10.3814 12.83 10.1407 13.3242 9.89991V10.9298C13.3242 10.9298 12.3491 11.184 11.414 11.2241C9.69089 11.3043 8.62227 10.9699 8.00781 10.4483V16.066H11.5743C12.9101 16.066 14.0055 14.9826 14.0055 13.6317V1.45996H10.4389Z" fill="url(#paint4_linear_9828_7231)"/>
</g>
<defs>
<linearGradient id="paint0_linear_9828_7231" x1="14.7269" y1="9.68756" x2="20.7295" y2="9.68756" gradientUnits="userSpaceOnUse">
<stop stop-color="#007940"/>
<stop offset="0.2285" stop-color="#00873F"/>
<stop offset="0.7433" stop-color="#40A737"/>
<stop offset="1" stop-color="#5CB531"/>
</linearGradient>
<linearGradient id="paint1_linear_9828_7231" x1="14.7258" y1="8.75046" x2="20.7289" y2="8.75046" gradientUnits="userSpaceOnUse">
<stop stop-color="#007940"/>
<stop offset="0.2285" stop-color="#00873F"/>
<stop offset="0.7433" stop-color="#40A737"/>
<stop offset="1" stop-color="#5CB531"/>
</linearGradient>
<linearGradient id="paint2_linear_9828_7231" x1="14.7267" y1="7.73138" x2="20.7296" y2="7.73138" gradientUnits="userSpaceOnUse">
<stop stop-color="#007940"/>
<stop offset="0.2285" stop-color="#00873F"/>
<stop offset="0.7433" stop-color="#40A737"/>
<stop offset="1" stop-color="#5CB531"/>
</linearGradient>
<linearGradient id="paint3_linear_9828_7231" x1="1.28787" y1="8.75046" x2="7.38344" y2="8.75046" gradientUnits="userSpaceOnUse">
<stop stop-color="#1F286F"/>
<stop offset="0.4751" stop-color="#004E94"/>
<stop offset="0.8261" stop-color="#0066B1"/>
<stop offset="1" stop-color="#006FBC"/>
</linearGradient>
<linearGradient id="paint4_linear_9828_7231" x1="7.97327" y1="8.75046" x2="13.8935" y2="8.75046" gradientUnits="userSpaceOnUse">
<stop stop-color="#6C2C2F"/>
<stop offset="0.1735" stop-color="#882730"/>
<stop offset="0.5731" stop-color="#BE1833"/>
<stop offset="0.8585" stop-color="#DC0436"/>
<stop offset="1" stop-color="#E60039"/>
</linearGradient>
<clipPath id="clip0_9828_7231">
<rect width="22" height="17" fill="white" transform="translate(0 0.25)"/>
</clipPath>
</defs>
</svg>
