<svg width="109" height="40" viewBox="0 0 109 40" fill="none" xmlns="http://www.w3.org/2000/svg">
<path d="M0 7H108.5C108.775 25.144 94.1423 40 75.9962 40H0V7Z" fill="#FFA439"/>
<path d="M83 26.6668C90.0745 27.9571 89.1902 35.6991 88.3059 37.4195C98.9177 33.5485 109.267 11.2193 108.071 2.58078C107.985 1.95728 107.761 1.29046 106.877 0.860352L83 26.6668Z" fill="#9A590C"/>
<path d="M83 26.6667C89.9215 27.957 90.2099 35.1255 89.0563 36.9893C106.774 30 109.972 11.6129 108.394 1.72043C108.31 1.09693 108.091 0.430108 107.225 0L83 26.6667Z" fill="#E78E26"/>
<path d="M37.2399 20.3H38.9999V28H37.5369L33.6979 23.325V28H31.9379V20.3H33.4119L37.2399 24.975V20.3ZM42.5927 26.57H46.7837V28H40.8217V20.3H46.6407V21.73H42.5927V23.402H46.1677V24.788H42.5927V26.57ZM58.0272 20.3H59.7322L57.2132 28H55.2992L53.6052 22.786L51.8562 28H49.9532L47.4232 20.3H49.2712L51.0092 25.712L52.8242 20.3H54.4742L56.2342 25.756L58.0272 20.3Z" fill="white"/>
</svg>
