<svg width="109" height="40" viewBox="0 0 109 40" fill="none" xmlns="http://www.w3.org/2000/svg">
<path d="M0 7.31152L108.5 7.31152C108.5 25.3647 93.865 39.9997 75.8118 39.9997H0V7.31152Z" fill="#8EC5F2"/>
<path d="M83 26.6668C90.0745 27.9571 89.1902 35.6991 88.3059 37.4195C98.9177 33.5485 109.267 11.2193 108.071 2.58078C107.985 1.95728 107.761 1.29046 106.877 0.860352L83 26.6668Z" fill="#2B6DA3"/>
<path d="M83 26.6667C89.9215 27.957 90.2099 35.1255 89.0563 36.9893C107.213 28.1639 109.972 11.6129 108.394 1.72043C108.31 1.09693 108.091 0.430108 107.225 0L83 26.6667Z" fill="#3D9BE9"/>
<path d="M12.8649 28V21.752H10.4009V20.3H17.1109V21.752H14.6469V28H12.8649ZM21.6913 28.132C19.2603 28.132 17.4783 26.438 17.4783 24.15C17.4783 21.862 19.2603 20.168 21.6913 20.168C24.1113 20.168 25.9043 21.851 25.9043 24.15C25.9043 26.449 24.1113 28.132 21.6913 28.132ZM21.6913 26.614C23.0663 26.614 24.1003 25.613 24.1003 24.15C24.1003 22.687 23.0663 21.686 21.6913 21.686C20.3163 21.686 19.2823 22.687 19.2823 24.15C19.2823 25.613 20.3163 26.614 21.6913 26.614ZM30.5766 20.3C32.6336 20.3 33.9206 21.367 33.9206 23.094C33.9206 24.81 32.6336 25.877 30.5766 25.877H29.0256V28H27.2436V20.3H30.5766ZM30.4776 24.425C31.5666 24.425 32.1166 23.93 32.1166 23.094C32.1166 22.247 31.5666 21.752 30.4776 21.752H29.0256V24.425H30.4776ZM40.9454 28.132C39.7244 28.132 38.4924 27.769 37.8104 27.241L38.4154 25.899C39.0644 26.372 40.0324 26.702 40.9564 26.702C42.0124 26.702 42.4414 26.35 42.4414 25.877C42.4414 24.436 37.9644 25.426 37.9644 22.566C37.9644 21.257 39.0204 20.168 41.2094 20.168C42.1774 20.168 43.1674 20.399 43.8824 20.85L43.3324 22.203C42.6174 21.796 41.8804 21.598 41.1984 21.598C40.1424 21.598 39.7354 21.994 39.7354 22.478C39.7354 23.897 44.2124 22.918 44.2124 25.745C44.2124 27.032 43.1454 28.132 40.9454 28.132ZM47.2011 26.57H51.3921V28H45.4301V20.3H51.2491V21.73H47.2011V23.402H50.7761V24.788H47.2011V26.57ZM52.81 28V20.3H54.592V26.548H58.453V28H52.81ZM59.4486 28V20.3H61.2306V26.548H65.0916V28H59.4486ZM67.8583 26.57H72.0493V28H66.0873V20.3H71.9063V21.73H67.8583V23.402H71.4333V24.788H67.8583V26.57ZM80.2872 28H78.3732L76.8882 25.855H76.8002H75.2492V28H73.4672V20.3H76.8002C78.8572 20.3 80.1442 21.367 80.1442 23.094C80.1442 24.249 79.5612 25.096 78.5602 25.525L80.2872 28ZM78.3402 23.094C78.3402 22.247 77.7902 21.752 76.7012 21.752H75.2492V24.436H76.7012C77.7902 24.436 78.3402 23.93 78.3402 23.094Z" fill="white"/>
</svg>
