<svg width="109" height="40" viewBox="0 0 109 40" fill="none" xmlns="http://www.w3.org/2000/svg">
<path d="M0 7.31152H108.5C108.223 25.445 93.4436 39.9997 75.308 39.9997H0V7.31152Z" fill="#39D935"/>
<path d="M83 26.6668C90.0745 27.9571 89.1902 35.6991 88.3059 37.4195C98.9177 33.5485 109.267 11.2193 108.071 2.58078C107.985 1.95728 107.761 1.29046 106.877 0.860352L83 26.6668Z" fill="#138E10"/>
<path d="M83 26.6667C89.9215 27.957 90.2099 35.1255 89.0563 36.9893C107.213 28.1639 109.972 11.6129 108.394 1.72043C108.31 1.09693 108.091 0.430108 107.225 0L83 26.6667Z" fill="#22C71E"/>
<path d="M21.0635 21.73H17.0265V23.765H20.5905V25.195H17.0265V28H15.2445V20.3H21.0635V21.73ZM24.0409 26.57H28.2319V28H22.2699V20.3H28.0889V21.73H24.0409V23.402H27.6159V24.788H24.0409V26.57ZM35.4028 28L34.7208 26.35H31.1458L30.4638 28H28.6378L32.0698 20.3H33.8298L37.2728 28H35.4028ZM31.7178 24.997H34.1598L32.9388 22.049L31.7178 24.997ZM39.28 28V21.752H36.816V20.3H43.526V21.752H41.062V28H39.28ZM47.7769 28.132C45.5879 28.132 44.2899 26.878 44.2899 24.612V20.3H46.0719V24.546C46.0719 26.009 46.7099 26.614 47.7879 26.614C48.8769 26.614 49.5039 26.009 49.5039 24.546V20.3H51.2639V24.612C51.2639 26.878 49.9659 28.132 47.7769 28.132ZM59.8448 28H57.9308L56.4458 25.855H56.3578H54.8068V28H53.0248V20.3H56.3578C58.4148 20.3 59.7018 21.367 59.7018 23.094C59.7018 24.249 59.1188 25.096 58.1178 25.525L59.8448 28ZM57.8978 23.094C57.8978 22.247 57.3478 21.752 56.2588 21.752H54.8068V24.436H56.2588C57.3478 24.436 57.8978 23.93 57.8978 23.094ZM62.8847 26.57H67.0757V28H61.1137V20.3H66.9327V21.73H62.8847V23.402H66.4597V24.788H62.8847V26.57ZM68.4936 28V20.3H71.9916C74.5106 20.3 76.2376 21.818 76.2376 24.15C76.2376 26.482 74.5106 28 71.9916 28H68.4936ZM70.2756 26.537H71.9036C73.4326 26.537 74.4336 25.624 74.4336 24.15C74.4336 22.676 73.4326 21.763 71.9036 21.763H70.2756V26.537Z" fill="white"/>
</svg>
