<svg width="109" height="40" viewBox="0 0 109 40" fill="none" xmlns="http://www.w3.org/2000/svg">
<path d="M0 7.31152H108.5C108.775 25.2833 94.2818 39.9997 76.308 39.9997H0V7.31152Z" fill="#8075FF"/>
<path d="M83 26.6668C90.0745 27.9571 89.1902 35.6991 88.3059 37.4195C98.9177 33.5485 109.267 11.2193 108.071 2.58078C107.985 1.95728 107.761 1.29046 106.877 0.860352L83 26.6668Z" fill="#2719C6"/>
<path d="M83 26.6667C89.9215 27.957 90.2099 35.1255 89.0563 36.9893C107.213 28.1639 109.972 11.6129 108.394 1.72043C108.31 1.09693 108.091 0.430108 107.225 0L83 26.6667Z" fill="#695CFC"/>
<path d="M24.7743 28.132C22.3433 28.132 20.5613 26.438 20.5613 24.15C20.5613 21.862 22.3433 20.168 24.7743 20.168C27.1943 20.168 28.9873 21.851 28.9873 24.15C28.9873 26.449 27.1943 28.132 24.7743 28.132ZM24.7743 26.614C26.1493 26.614 27.1833 25.613 27.1833 24.15C27.1833 22.687 26.1493 21.686 24.7743 21.686C23.3993 21.686 22.3653 22.687 22.3653 24.15C22.3653 25.613 23.3993 26.614 24.7743 26.614ZM35.6286 20.3H37.3886V28H35.9256L32.0866 23.325V28H30.3266V20.3H31.8006L35.6286 24.975V20.3ZM44.8556 28.132C43.6346 28.132 42.4026 27.769 41.7206 27.241L42.3256 25.899C42.9746 26.372 43.9426 26.702 44.8666 26.702C45.9226 26.702 46.3516 26.35 46.3516 25.877C46.3516 24.436 41.8746 25.426 41.8746 22.566C41.8746 21.257 42.9306 20.168 45.1196 20.168C46.0876 20.168 47.0776 20.399 47.7926 20.85L47.2426 22.203C46.5276 21.796 45.7906 21.598 45.1086 21.598C44.0526 21.598 43.6456 21.994 43.6456 22.478C43.6456 23.897 48.1226 22.918 48.1226 25.745C48.1226 27.032 47.0556 28.132 44.8556 28.132ZM55.0932 28L54.4112 26.35H50.8362L50.1542 28H48.3282L51.7602 20.3H53.5202L56.9632 28H55.0932ZM51.4082 24.997H53.8502L52.6292 22.049L51.4082 24.997ZM57.7621 28V20.3H59.5441V26.548H63.4051V28H57.7621ZM66.1718 26.57H70.3628V28H64.4008V20.3H70.2198V21.73H66.1718V23.402H69.7468V24.788H66.1718V26.57Z" fill="white"/>
</svg>
