<svg width="34" height="49" viewBox="0 0 34 49" fill="none" xmlns="http://www.w3.org/2000/svg">
<path d="M23.0312 48V43.5938H24.5V39.1875H25.9688V34.7812L25.9695 30.6996C30.5747 27.7011 33.3125 22.6692 33.3125 17.1562C33.3125 8.24755 26.065 1 17.1562 1C8.24755 1 1 8.24755 1 17.1562C1 22.634 3.80311 27.815 8.34375 30.7789V33.3125V34.7812V39.1875H9.8125V43.5938H11.2812V48H23.0312ZM21.5625 46.5312H12.75V43.5938H21.5625V46.5312ZM9.46294 29.7493C5.14848 27.0923 2.46875 22.2675 2.46875 17.1562C2.46875 9.05756 9.05756 2.46875 17.1562 2.46875C25.2549 2.46875 31.8438 9.05756 31.8438 17.1562C31.8438 22.2932 29.2286 26.9719 24.8503 29.6707L24.5 29.8859V33.3125H20.9464L22.9142 20.1945C22.9744 19.7933 22.6979 19.4193 22.2967 19.359L21.9458 19.3064C21.7382 19.2752 21.5447 19.4183 21.5136 19.6259C21.4988 19.7248 21.4457 19.8138 21.3657 19.8737L19.4277 21.3268L18.5705 20.4696C17.7894 19.6885 16.5231 19.6885 15.742 20.4696L14.8841 21.3275L12.946 19.8745C12.8661 19.8145 12.8129 19.7255 12.7982 19.6267C12.7671 19.419 12.5736 19.276 12.366 19.3071L12.0151 19.3598C11.6139 19.42 11.3374 19.7941 11.3976 20.1953L13.3661 33.3125H9.8125V29.9645L9.46294 29.7493ZM14.851 33.3125L13.1319 21.8489L15.0222 23.267L17.1562 21.1322L19.2903 23.2663L21.1806 21.8482L19.4615 33.3125H14.851ZM9.8125 34.7812H24.5V37.7188H9.8125V34.7812ZM11.2812 39.1875H23.0312V42.125H11.2812V39.1875Z" fill="#8EC5F2" stroke="#8EC5F2" stroke-width="0.8"/>
</svg>
