<svg width="39" height="39" viewBox="0 0 39 39" fill="none" xmlns="http://www.w3.org/2000/svg">
<path d="M12.7759 16.8103H9.41383L6.72417 16.1379L6.05176 29.5862L8.069 32.2758L13.4483 32.9483L28.9138 32.2758L31.6035 30.2586L33.6207 20.8448L32.2759 16.8103L24.8793 16.1379V11.431L25.5518 8.06895L23.5345 6.72412L20.8449 7.39653L19.5 10.0862L15.4656 14.7931L12.7759 16.8103Z" fill="white"/>
<path d="M23.875 16.7662C23.858 16.7498 23.8418 16.7325 23.8265 16.7144L23.4451 17.0377L23.8265 16.7144C23.8112 16.6964 23.7968 16.6776 23.7834 16.6582L23.875 16.6734V16.7662ZM24.875 16.9684V16.8396L25.4955 16.9428L25.6498 16.9684H24.875ZM29.66 16.9684H25.9979L26.0707 16.5318L26.2375 15.5309H29.66V16.9684ZM30.66 17.0157V15.5625C31.0741 15.6151 31.4783 15.7328 31.8575 15.9121C32.3881 16.1632 32.8565 16.5288 33.2287 16.9827C33.601 17.4366 33.868 17.9674 34.0104 18.5369C34.1122 18.9437 34.1485 19.3639 34.1191 19.7807L32.6923 19.4945C32.6928 18.2957 31.8378 17.25 30.66 17.0157ZM29.8159 31.2063C30.1378 30.9427 30.3876 30.6056 30.5465 30.2265L31.9727 30.5127C31.7362 31.2164 31.3057 31.8431 30.7263 32.3178C30.1463 32.7931 29.4466 33.093 28.71 33.1868V31.7311C29.114 31.6496 29.4942 31.4698 29.8159 31.2063ZM32.546 20.4865L33.9543 20.7691L32.2008 29.5369L30.7925 29.2543L32.546 20.4865ZM10.25 31.7809H27.71V33.2184H10.25V31.7809ZM9.25 33.1868C8.38182 33.0766 7.56911 32.6814 6.94367 32.056C6.31823 31.4306 5.92309 30.6179 5.81286 29.7497H7.26818C7.46803 30.7462 8.25351 31.5316 9.25 31.7315V33.1868ZM7.21875 17.9684V28.7497H5.78125V16.7497H6V17.4684V17.9684H6.5H7.21875ZM6 15.7497H5.98367C5.98634 15.7469 5.98904 15.7442 5.99177 15.7414L5.63937 15.389L5.99177 15.7414C5.99449 15.7387 5.99724 15.736 6 15.7333V15.7497ZM7 15.7497V15.5309H12.3862V16.9684H8.21875V16.2497V15.7497H7.71875H7ZM15.2696 13.9871L18.8018 8.68806L19.9978 9.48536L16.4656 14.7844L15.2696 13.9871ZM24.8932 8.7668L26.3119 9.00356L25.3904 14.5309H24.375H23.9325L24.8932 8.7668ZM23.875 14.8762V15.0309V15.6597L23.7479 15.6386L23.875 14.8762ZM24.875 15.8259V15.5309H25.2237L25.1665 15.8744L24.875 15.8259ZM19.3764 7.86716C19.8467 7.28249 20.4309 6.79702 21.0955 6.44133C21.7595 6.0859 22.4873 5.86995 23.2348 5.80321V7.2482C22.725 7.30935 22.229 7.4642 21.7728 7.70826C21.3168 7.95225 20.9119 8.27922 20.5777 8.66961L19.3764 7.86716ZM26.4228 8.00825L24.9092 7.75564C24.8745 7.6778 24.8289 7.60504 24.7736 7.53961L24.5825 7.70112L24.7736 7.53961C24.7177 7.47355 24.6529 7.41601 24.5811 7.36857L24.5821 5.8349C24.7489 5.87134 24.9118 5.926 25.0676 5.99822C25.3763 6.14132 25.6502 6.34991 25.8702 6.60952L26.2516 6.28629L25.8702 6.60953C26.0901 6.86914 26.2509 7.17353 26.3414 7.50156C26.3871 7.66717 26.4143 7.83723 26.4228 8.00825ZM14.6732 14.7914L15.8846 15.599C15.2452 16.3365 14.3553 16.8126 13.3862 16.9353V15.4793C13.6279 15.4306 13.8619 15.3466 14.0808 15.2294C14.299 15.1125 14.4986 14.9651 14.6732 14.7914ZM7 16.7497H7.21875V16.9684H7V16.7497ZM5.63821 15.3879C5.53273 15.4934 5.44858 15.6162 5.38854 15.7497L5.63821 15.3879Z" fill="#3D9BE9" stroke="#3D9BE9"/>
<path d="M12.999 16.2495V32.4995" stroke="#3D9BE9" stroke-width="2.5"/>
</svg>
