<svg width="288" height="37" viewBox="0 0 288 37" fill="none" xmlns="http://www.w3.org/2000/svg">
<g clip-path="url(#clip0_405_51507)">
<path d="M68.6643 15.8095C68.6643 20.6148 65.0364 23.5991 59.2461 23.5991H54.8738V29.5441H49.8516V7.98462H59.2461C65.0364 7.98462 68.6643 10.9806 68.6643 15.8095ZM63.583 15.8095C63.583 13.4362 62.0349 12.0498 58.9625 12.0498H54.8738V19.5339H58.9625C62.0349 19.5457 63.583 18.1593 63.583 15.8095Z" fill="#3D9BE9"/>
<path d="M89.0264 25.5494V29.5558H72.2344V7.98462H88.6246V11.991H77.2212V16.6789H87.2893V20.5561H77.2212V25.5494H89.0264Z" fill="#3D9BE9"/>
<path d="M111.832 15.8095C111.832 20.6148 108.204 23.5991 102.414 23.5991H98.0418V29.5441H93.0195V7.98462H102.414C108.204 7.98462 111.832 10.9806 111.832 15.8095ZM106.751 15.8095C106.751 13.4362 105.203 12.0498 102.13 12.0498H98.0418V19.5339H102.13C105.203 19.5457 106.751 18.1593 106.751 15.8095Z" fill="#3D9BE9"/>
<path d="M119.3 12.0498H112.363V7.98462H131.271V12.0498H124.334V29.5558H119.312V12.0498H119.3Z" fill="#3D9BE9"/>
<path d="M133.953 7.98462H138.975V29.5558H133.953V7.98462Z" fill="#3D9BE9"/>
<path d="M144.115 7.98462H153.971C161.073 7.98462 165.929 12.2378 165.929 18.7702C165.929 25.3027 161.061 29.5558 153.971 29.5558H144.115V7.98462ZM153.722 25.4554C158.036 25.4554 160.848 22.8941 160.848 18.7702C160.848 14.6463 158.024 12.085 153.722 12.085H149.137V25.4554H153.722Z" fill="#3D9BE9"/>
<path d="M186.515 25.5494V29.5558H169.723V7.98462H186.113V11.991H174.709V16.6789H184.778V20.5561H174.709V25.5494H186.515Z" fill="#3D9BE9"/>
<path d="M198.688 26.9357L199.586 25.1851C201.134 26.689 203.899 27.8051 206.747 27.8051C210.812 27.8051 212.573 26.1133 212.573 23.9867C212.573 18.0652 199.219 21.7074 199.219 13.7298C199.219 10.5576 201.701 7.82007 207.219 7.82007C209.666 7.82007 212.206 8.52501 213.943 9.73516L213.163 11.5563C211.308 10.3579 209.134 9.77041 207.219 9.77041C203.249 9.77041 201.488 11.521 201.488 13.6828C201.488 19.6043 214.841 16.0209 214.841 23.881C214.841 27.0532 212.301 29.7672 206.759 29.7672C203.497 29.7437 200.295 28.6041 198.688 26.9357Z" fill="#333333"/>
<path d="M237.956 7.98462V29.5558H235.687V19.6044H222.109V29.5558H219.816V7.98462H222.109V17.5953H235.687V7.98462H237.956Z" fill="#333333"/>
<path d="M243.096 18.7702C243.096 12.4845 247.929 7.79663 254.499 7.79663C261.069 7.79663 265.867 12.4492 265.867 18.7702C265.867 25.0912 260.999 29.7438 254.499 29.7438C248 29.7438 243.096 25.0559 243.096 18.7702ZM263.575 18.7702C263.575 13.6241 259.699 9.84096 254.499 9.84096C249.3 9.84096 245.353 13.6359 245.353 18.7702C245.353 23.9045 249.252 27.6995 254.499 27.6995C259.746 27.6995 263.575 23.9163 263.575 18.7702Z" fill="#333333"/>
<path d="M288.001 15.3865C288.001 19.9804 284.656 22.7531 279.138 22.7531H273.312V29.5676H271.02V7.98462H279.138C284.645 7.98462 288.001 10.7574 288.001 15.3865ZM285.696 15.3865C285.696 11.9323 283.404 9.95845 279.067 9.95845H273.3V20.7441H279.067C283.404 20.7441 285.696 18.7702 285.696 15.3865Z" fill="#333333"/>
<path d="M25.885 18.1886C25.885 22.02 22.7593 25.1264 18.9058 25.1252C17.7347 25.1252 16.5838 24.8327 15.5569 24.2734C14.9199 23.9256 14.3421 23.4815 13.8422 22.9575C11.1987 20.1742 11.3252 15.7871 14.1246 13.1588C14.2168 13.0719 14.3114 12.9885 14.4083 12.9062C14.9424 12.4492 15.5427 12.0756 16.1891 11.7983C19.2225 10.5259 22.7381 11.5328 24.6264 14.2151C25.1653 14.9799 25.5423 15.8447 25.7337 16.7587C25.833 17.2287 25.8838 17.7081 25.885 18.1886Z" fill="url(#paint0_radial_405_51507)"/>
<path d="M11.7379 28.9589C11.2534 28.3973 10.6484 27.952 9.96537 27.6583L9.94055 27.6477C7.45307 26.588 4.57207 27.7323 3.50499 30.2055C2.4391 32.6787 3.59008 35.5431 6.07756 36.604C8.56505 37.6638 11.446 36.5194 12.5131 34.0462C13.2481 32.3426 12.9468 30.3723 11.7367 28.9624V28.9589H11.7379Z" fill="url(#paint1_radial_405_51507)"/>
<path d="M12.8814 1.07609C11.435 -0.360815 9.09167 -0.35964 7.64763 1.07844C6.20241 2.51652 6.20359 4.84635 7.65 6.28208C9.09522 7.71781 11.4374 7.71781 12.8826 6.28208L12.8909 6.27385C14.3302 4.83578 14.3266 2.51064 12.8826 1.07609H12.8814Z" fill="url(#paint2_radial_405_51507)"/>
<path d="M39.7439 7.3995C37.5909 5.25883 34.1001 5.26 31.9482 7.3995C30.7405 8.60025 30.1615 10.2898 30.3789 11.9746C30.3789 11.9945 30.3789 12.0145 30.3849 12.0345C30.5077 12.9074 30.841 13.7381 31.3562 14.4548C31.3692 14.4736 31.3834 14.4912 31.3976 14.51C31.563 14.7344 31.7462 14.9471 31.9447 15.1433C34.0989 17.2851 37.5897 17.2851 39.7439 15.1433C41.8982 13.0014 41.8982 9.53077 39.7439 7.38892V7.39832V7.3995Z" fill="url(#paint3_radial_405_51507)"/>
<path d="M15.5555 24.2722C14.9185 23.9244 14.3407 23.4803 13.8408 22.9563C13.8987 23.0315 14.2509 23.6448 12.541 25.7949C10.9008 27.8592 10.1137 27.7123 9.96484 27.6571C10.6479 27.9508 11.2529 28.3961 11.7374 28.9577C11.7149 28.9072 11.4455 28.2116 13.0373 26.2202C14.6917 24.1512 15.5602 24.2734 15.5602 24.2734H15.5555V24.2722Z" fill="url(#paint4_linear_405_51507)"/>
<path d="M14.0734 9.48731C12.6057 7.05409 12.9106 6.26221 12.9106 6.26221L12.8917 6.27396L12.8834 6.28218C12.4568 6.70632 11.9321 7.02119 11.3555 7.19625C11.3791 7.19625 12.0267 7.21975 13.4672 9.72699C14.8959 12.2154 14.4303 12.8593 14.4054 12.891C14.9408 12.4387 15.5422 12.0697 16.1886 11.7972C16.1886 11.7972 15.5422 11.9205 14.0734 9.48731Z" fill="url(#paint5_linear_405_51507)"/>
<path d="M30.3858 12.0369C30.4 12.2812 30.2889 13.2212 28.0224 14.1117C25.4971 15.1045 24.6864 14.2856 24.625 14.2187C25.1639 14.9835 25.5408 15.8482 25.7323 16.7623C25.7252 16.6977 25.6696 15.7766 28.267 14.7203C30.5182 13.8039 31.1929 14.2774 31.3524 14.4572C30.8384 13.7393 30.5063 12.9098 30.3858 12.0369Z" fill="url(#paint6_linear_405_51507)"/>
<path d="M31.9157 30.2063C32.1188 28.9625 31.2692 27.7905 30.0182 27.5886C28.7671 27.3867 27.5883 28.2313 27.3853 29.4752C27.1822 30.719 28.0318 31.891 29.2828 32.0929C30.5338 32.2948 31.7126 31.4502 31.9157 30.2063Z" fill="url(#paint7_linear_405_51507)"/>
<path d="M3.6101 20.3786C5.60391 20.3786 7.22021 18.7716 7.22021 16.7893C7.22021 14.8069 5.60391 13.2 3.6101 13.2C1.6163 13.2 0 14.8069 0 16.7893C0 18.7716 1.6163 20.3786 3.6101 20.3786Z" fill="url(#paint8_linear_405_51507)"/>
<path d="M23.1926 7.66141C23.9699 7.66141 24.6 7.03492 24.6 6.2621C24.6 5.48928 23.9699 4.86279 23.1926 4.86279C22.4153 4.86279 21.7852 5.48928 21.7852 6.2621C21.7852 7.03492 22.4153 7.66141 23.1926 7.66141Z" fill="url(#paint9_linear_405_51507)"/>
</g>
<defs>
<radialGradient id="paint0_radial_405_51507" cx="0" cy="0" r="1" gradientUnits="userSpaceOnUse" gradientTransform="translate(18.2452 17.768) scale(8.62525 8.57561)">
<stop stop-color="#85BBDD"/>
<stop offset="1" stop-color="#2094E2"/>
</radialGradient>
<radialGradient id="paint1_radial_405_51507" cx="0" cy="0" r="1" gradientUnits="userSpaceOnUse" gradientTransform="translate(8.00847 32.1264) scale(7.02877 6.98831)">
<stop offset="0.03" stop-color="#85BBDD"/>
<stop offset="1" stop-color="#2094E2"/>
</radialGradient>
<radialGradient id="paint2_radial_405_51507" cx="0" cy="0" r="1" gradientUnits="userSpaceOnUse" gradientTransform="translate(10.2651 3.67967) scale(5.97351 5.93913)">
<stop offset="0.03" stop-color="#85BBDD"/>
<stop offset="1" stop-color="#2094E2"/>
</radialGradient>
<radialGradient id="paint3_radial_405_51507" cx="0" cy="0" r="1" gradientUnits="userSpaceOnUse" gradientTransform="translate(35.8467 11.2731) scale(8.05804 8.01165)">
<stop stop-color="#85BBDD"/>
<stop offset="1" stop-color="#2094E2"/>
</radialGradient>
<linearGradient id="paint4_linear_405_51507" x1="14.3537" y1="28.0178" x2="11.5534" y2="24.3623" gradientUnits="userSpaceOnUse">
<stop stop-color="#2094E2"/>
<stop offset="1" stop-color="#85BBDD"/>
</linearGradient>
<linearGradient id="paint5_linear_405_51507" x1="16.6625" y1="13.4538" x2="11.3645" y2="6.53694" gradientUnits="userSpaceOnUse">
<stop stop-color="#2094E2"/>
<stop offset="1" stop-color="#85BBDD"/>
</linearGradient>
<linearGradient id="paint6_linear_405_51507" x1="29.9509" y1="16.8422" x2="26.5136" y2="12.3537" gradientUnits="userSpaceOnUse">
<stop stop-color="#2094E2"/>
<stop offset="1" stop-color="#85BBDD"/>
</linearGradient>
<linearGradient id="paint7_linear_405_51507" x1="31.7295" y1="32.5237" x2="28.0563" y2="27.7272" gradientUnits="userSpaceOnUse">
<stop stop-color="#2094E2"/>
<stop offset="1" stop-color="#85BBDD"/>
</linearGradient>
<linearGradient id="paint8_linear_405_51507" x1="6.88224" y1="21.013" x2="1.10329" y2="13.4661" gradientUnits="userSpaceOnUse">
<stop stop-color="#2094E2"/>
<stop offset="1" stop-color="#85BBDD"/>
</linearGradient>
<linearGradient id="paint9_linear_405_51507" x1="24.4676" y1="7.90931" x2="22.2152" y2="4.96654" gradientUnits="userSpaceOnUse">
<stop stop-color="#2094E2"/>
<stop offset="1" stop-color="#85BBDD"/>
</linearGradient>
<clipPath id="clip0_405_51507">
<rect width="288" height="37" fill="white"/>
</clipPath>
</defs>
</svg>
