<svg width="98" height="39" viewBox="0 0 98 39" fill="none" xmlns="http://www.w3.org/2000/svg">
<g clip-path="url(#clip0_13260_83021)">
<path d="M-105.984 31.384C-109.536 31.384 -113.12 30.328 -115.104 28.792L-113.344 24.888C-111.456 26.264 -108.64 27.224 -105.952 27.224C-102.88 27.224 -101.632 26.2 -101.632 24.824C-101.632 20.632 -114.656 23.512 -114.656 15.192C-114.656 11.384 -111.584 8.216 -105.216 8.216C-102.4 8.216 -99.52 8.888 -97.44 10.2L-99.04 14.136C-101.12 12.952 -103.264 12.376 -105.248 12.376C-108.32 12.376 -109.504 13.528 -109.504 14.936C-109.504 19.064 -96.48 16.216 -96.48 24.44C-96.48 28.184 -99.584 31.384 -105.984 31.384ZM-76.4257 22.456C-76.4257 22.84 -76.4897 23.384 -76.5217 23.8H-89.5457C-89.0657 25.944 -87.2417 27.256 -84.6177 27.256C-82.7937 27.256 -81.4817 26.712 -80.2977 25.592L-77.6417 28.472C-79.2417 30.296 -81.6417 31.256 -84.7457 31.256C-90.6977 31.256 -94.5697 27.512 -94.5697 22.392C-94.5697 17.24 -90.6337 13.528 -85.3857 13.528C-80.3297 13.528 -76.4257 16.92 -76.4257 22.456ZM-85.3537 17.304C-87.6257 17.304 -89.2577 18.68 -89.6097 20.888H-81.1297C-81.4817 18.712 -83.1137 17.304 -85.3537 17.304ZM-51.0542 13.528C-46.9582 13.528 -44.0142 15.896 -44.0142 21.144V31H-49.0062V21.912C-49.0062 19.128 -50.2542 17.848 -52.2702 17.848C-54.5102 17.848 -56.0782 19.288 -56.0782 22.36V31H-61.0702V21.912C-61.0702 19.128 -62.2542 17.848 -64.3342 17.848C-66.5422 17.848 -68.1102 19.288 -68.1102 22.36V31H-73.1022V13.784H-68.3342V15.768C-67.0542 14.296 -65.1342 13.528 -62.9262 13.528C-60.5262 13.528 -58.4782 14.456 -57.2622 16.344C-55.8862 14.584 -53.6462 13.528 -51.0542 13.528ZM-32.5957 13.528C-27.3477 13.528 -24.3077 15.96 -24.3077 21.176V31H-28.9797V28.856C-29.9077 30.424 -31.6997 31.256 -34.2277 31.256C-38.2597 31.256 -40.6597 29.016 -40.6597 26.04C-40.6597 23 -38.5157 20.888 -33.2677 20.888H-29.2997C-29.2997 18.744 -30.5797 17.496 -33.2677 17.496C-35.0917 17.496 -36.9797 18.104 -38.2277 19.096L-40.0197 15.608C-38.1317 14.264 -35.3477 13.528 -32.5957 13.528ZM-32.9797 27.896C-31.3157 27.896 -29.8757 27.128 -29.2997 25.56V23.8H-32.7237C-35.0597 23.8 -35.7957 24.664 -35.7957 25.816C-35.7957 27.064 -34.7397 27.896 -32.9797 27.896ZM-6.57825 13.784H-1.84225V28.12C-1.84225 34.52 -5.29825 37.464 -11.5062 37.464C-14.7702 37.464 -17.9382 36.664 -19.9542 35.096L-17.9702 31.512C-16.4982 32.696 -14.0982 33.464 -11.8902 33.464C-8.37025 33.464 -6.83425 31.864 -6.83425 28.76V28.024C-8.14625 29.464 -10.0342 30.168 -12.2742 30.168C-17.0422 30.168 -20.8822 26.872 -20.8822 21.848C-20.8822 16.824 -17.0422 13.528 -12.2742 13.528C-9.87425 13.528 -7.89025 14.328 -6.57825 15.992V13.784ZM-11.2822 26.072C-8.65825 26.072 -6.77025 24.376 -6.77025 21.848C-6.77025 19.32 -8.65825 17.624 -11.2822 17.624C-13.9062 17.624 -15.8262 19.32 -15.8262 21.848C-15.8262 24.376 -13.9062 26.072 -11.2822 26.072ZM2.804 31V7.256H7.796V31H2.804ZM24.781 13.784H29.773V31H25.037V28.952C23.725 30.456 21.805 31.256 19.693 31.256C15.373 31.256 12.333 28.824 12.333 23.512V13.784H17.325V22.776C17.325 25.656 18.605 26.936 20.813 26.936C23.117 26.936 24.781 25.464 24.781 22.296V13.784ZM44.1578 26.648L45.5018 30.168C44.4778 30.904 42.9738 31.256 41.4378 31.256C37.3738 31.256 35.0058 29.176 35.0058 25.08V18.008H32.3498V14.168H35.0058V9.976H39.9978V14.168H44.2858V18.008H39.9978V25.016C39.9978 26.488 40.7978 27.288 42.1418 27.288C42.8778 27.288 43.6138 27.064 44.1578 26.648ZM50.8 11.384C48.944 11.384 47.696 10.168 47.696 8.6C47.696 7.032 48.944 5.816 50.8 5.816C52.656 5.816 53.904 6.968 53.904 8.504C53.904 10.168 52.656 11.384 50.8 11.384ZM48.304 31V13.784H53.296V31H48.304ZM70.473 7.256H75.465V31H70.697V29.016C69.449 30.52 67.625 31.256 65.321 31.256C60.457 31.256 56.713 27.8 56.713 22.392C56.713 16.984 60.457 13.528 65.321 13.528C67.433 13.528 69.225 14.2 70.473 15.608V7.256ZM66.185 27.16C68.649 27.16 70.569 25.368 70.569 22.392C70.569 19.416 68.649 17.624 66.185 17.624C63.689 17.624 61.769 19.416 61.769 22.392C61.769 25.368 63.689 27.16 66.185 27.16ZM96.9493 22.456C96.9493 22.84 96.8853 23.384 96.8533 23.8H83.8293C84.3093 25.944 86.1333 27.256 88.7573 27.256C90.5813 27.256 91.8933 26.712 93.0773 25.592L95.7333 28.472C94.1333 30.296 91.7333 31.256 88.6293 31.256C82.6773 31.256 78.8053 27.512 78.8053 22.392C78.8053 17.24 82.7413 13.528 87.9893 13.528C93.0453 13.528 96.9493 16.92 96.9493 22.456ZM88.0213 17.304C85.7493 17.304 84.1173 18.68 83.7653 20.888H92.2453C91.8933 18.712 90.2613 17.304 88.0213 17.304Z" fill="#333333"/>
</g>
<defs>
<clipPath id="clip0_13260_83021">
<rect width="98" height="39" fill="white"/>
</clipPath>
</defs>
</svg>
