<svg width="91" height="39" viewBox="0 0 91 39" fill="none" xmlns="http://www.w3.org/2000/svg">
<g clip-path="url(#clip0_13260_83023)">
<path d="M-106.176 31.192C-109.536 31.192 -112.832 30.008 -114.496 28.28L-113.568 26.456C-111.968 28.024 -109.12 29.176 -106.176 29.176C-101.984 29.176 -100.16 27.416 -100.16 25.208C-100.16 19.064 -113.952 22.84 -113.952 14.552C-113.952 11.256 -111.392 8.408 -105.696 8.408C-103.168 8.408 -100.544 9.144 -98.752 10.392L-99.552 12.28C-101.472 11.032 -103.712 10.424 -105.696 10.424C-109.792 10.424 -111.616 12.248 -111.616 14.488C-111.616 20.632 -97.824 16.92 -97.824 25.08C-97.824 28.376 -100.448 31.192 -106.176 31.192ZM-78.4565 22.584C-78.4565 22.776 -78.4885 23.032 -78.4885 23.288H-92.5685C-92.3125 26.808 -89.6245 29.144 -85.9445 29.144C-83.8965 29.144 -82.0725 28.408 -80.7925 26.936L-79.5125 28.408C-81.0165 30.2 -83.3525 31.16 -86.0085 31.16C-91.2565 31.16 -94.8405 27.576 -94.8405 22.584C-94.8405 17.592 -91.3525 14.04 -86.6165 14.04C-81.8805 14.04 -78.4565 17.528 -78.4565 22.584ZM-86.6165 15.992C-89.8805 15.992 -92.2805 18.296 -92.5685 21.592H-80.6325C-80.9205 18.296 -83.3205 15.992 -86.6165 15.992ZM-52.84 14.04C-48.744 14.04 -46.056 16.408 -46.056 21.24V31H-48.328V21.464C-48.328 17.912 -50.12 16.088 -53.16 16.088C-56.616 16.088 -58.792 18.328 -58.792 22.168V31H-61.064V21.464C-61.064 17.912 -62.856 16.088 -65.928 16.088C-69.352 16.088 -71.56 18.328 -71.56 22.168V31H-73.832V14.168H-71.656V17.24C-70.472 15.224 -68.296 14.04 -65.48 14.04C-62.696 14.04 -60.52 15.224 -59.496 17.592C-58.28 15.416 -55.88 14.04 -52.84 14.04ZM-34.0065 14.04C-29.6545 14.04 -27.1905 16.216 -27.1905 20.568V31H-29.3665V28.376C-30.3905 30.104 -32.3745 31.16 -35.1585 31.16C-38.9665 31.16 -41.3025 29.176 -41.3025 26.264C-41.3025 23.672 -39.6385 21.496 -34.8065 21.496H-29.4625V20.472C-29.4625 17.592 -31.0945 16.024 -34.2305 16.024C-36.4065 16.024 -38.4545 16.792 -39.8305 18.008L-40.8545 16.312C-39.1585 14.872 -36.6625 14.04 -34.0065 14.04ZM-34.8065 29.368C-32.2465 29.368 -30.3585 28.152 -29.4625 25.944V23.192H-34.7425C-38.0065 23.192 -39.0625 24.472 -39.0625 26.2C-39.0625 28.152 -37.4945 29.368 -34.8065 29.368ZM-7.549 14.168H-5.373V28.952C-5.373 34.744 -8.221 37.368 -13.789 37.368C-16.861 37.368 -19.869 36.44 -21.629 34.776L-20.477 33.048C-18.877 34.488 -16.445 35.352 -13.853 35.352C-9.597 35.352 -7.645 33.4 -7.645 29.24V27.096C-9.053 29.24 -11.453 30.36 -14.205 30.36C-19.005 30.36 -22.653 27 -22.653 22.168C-22.653 17.336 -19.005 14.04 -14.205 14.04C-11.389 14.04 -8.957 15.192 -7.549 17.4V14.168ZM-13.981 28.344C-10.269 28.344 -7.581 25.816 -7.581 22.168C-7.581 18.52 -10.269 16.024 -13.981 16.024C-17.693 16.024 -20.349 18.52 -20.349 22.168C-20.349 25.816 -17.693 28.344 -13.981 28.344ZM0.9805 31V7.256H3.2525V31H0.9805ZM22.4703 14.168H24.7423V31H22.5662V27.928C21.3823 29.976 19.2063 31.16 16.5183 31.16C12.2303 31.16 9.41425 28.76 9.41425 23.928V14.168H11.6863V23.704C11.6863 27.288 13.5423 29.112 16.7423 29.112C20.2623 29.112 22.4703 26.84 22.4703 23V14.168ZM39.1695 28.344L39.9695 29.976C39.0735 30.776 37.7295 31.16 36.4175 31.16C33.2495 31.16 31.4895 29.368 31.4895 26.264V16.088H28.4815V14.168H31.4895V10.488H33.7615V14.168H38.8815V16.088H33.7615V26.136C33.7615 28.12 34.7855 29.208 36.6735 29.208C37.6015 29.208 38.5295 28.92 39.1695 28.344ZM45.2575 10.488C44.3295 10.488 43.5935 9.752 43.5935 8.856C43.5935 7.992 44.3295 7.256 45.2575 7.256C46.1855 7.256 46.9215 7.96 46.9215 8.824C46.9215 9.752 46.2175 10.488 45.2575 10.488ZM44.1055 31V14.168H46.3775V31H44.1055ZM65.7873 7.256H68.0593V31H65.8833V27.672C64.5073 29.944 62.1713 31.16 59.3873 31.16C54.5873 31.16 51.0033 27.672 51.0033 22.584C51.0033 17.496 54.5873 14.04 59.3873 14.04C62.0753 14.04 64.3793 15.192 65.7873 17.368V7.256ZM59.5793 29.144C63.1313 29.144 65.8193 26.52 65.8193 22.584C65.8193 18.648 63.1313 16.024 59.5793 16.024C55.9953 16.024 53.3073 18.648 53.3073 22.584C53.3073 26.52 55.9953 29.144 59.5793 29.144ZM89.0748 22.584C89.0748 22.776 89.0428 23.032 89.0428 23.288H74.9628C75.2188 26.808 77.9068 29.144 81.5868 29.144C83.6348 29.144 85.4588 28.408 86.7388 26.936L88.0188 28.408C86.5148 30.2 84.1788 31.16 81.5228 31.16C76.2748 31.16 72.6908 27.576 72.6908 22.584C72.6908 17.592 76.1788 14.04 80.9148 14.04C85.6508 14.04 89.0748 17.528 89.0748 22.584ZM80.9148 15.992C77.6508 15.992 75.2508 18.296 74.9628 21.592H86.8988C86.6108 18.296 84.2108 15.992 80.9148 15.992Z" fill="#333333"/>
</g>
<defs>
<clipPath id="clip0_13260_83023">
<rect width="91" height="39" fill="white"/>
</clipPath>
</defs>
</svg>
