<svg width="326" height="313" viewBox="0 0 326 313" fill="none" xmlns="http://www.w3.org/2000/svg">
<path d="M321.293 144.25H220.422C218.286 144.25 216.554 145.981 216.554 148.118V248.988C216.554 251.125 218.286 252.857 220.422 252.857H321.293C323.429 252.857 325.161 251.125 325.161 248.988V148.118C325.161 145.981 323.429 144.25 321.293 144.25Z" fill="#3D9BE9"/>
<path d="M321.293 253.695H220.422C217.827 253.695 215.715 251.583 215.715 248.988V148.117C215.715 145.522 217.827 143.41 220.422 143.41H321.293C323.888 143.41 326 145.522 326 148.117V248.988C326 251.583 323.888 253.695 321.293 253.695ZM220.422 145.088C218.752 145.088 217.393 146.447 217.393 148.117V248.988C217.393 250.658 218.752 252.017 220.422 252.017H321.293C322.963 252.017 324.322 250.658 324.322 248.988V148.117C324.322 146.447 322.963 145.088 321.293 145.088H220.422Z" fill="#333333"/>
<path d="M325.161 148.118V248.988C325.161 251.124 323.428 252.857 321.293 252.857H220.422C218.287 252.857 216.554 251.124 216.554 248.988V244.486C216.554 248.891 217.02 249.827 231.277 249.827H254.377V249.034H287.338V249.827H318.638C322.11 249.827 322.415 248.891 322.415 246.755V150.229C322.415 145.775 320.997 144.265 317.741 144.265C317.659 144.265 317.583 144.259 317.513 144.25H321.293C323.428 144.25 325.161 145.982 325.161 148.118Z" fill="#333333"/>
<path d="M285.881 142.811H255.831C255.027 142.811 254.375 143.463 254.375 144.267V161.058C254.375 161.862 255.027 162.514 255.831 162.514H285.881C286.686 162.514 287.338 161.862 287.338 161.058V144.267C287.338 143.463 286.686 142.811 285.881 142.811Z" fill="white"/>
<path d="M285.882 163.353H255.831C254.566 163.353 253.536 162.323 253.536 161.058V144.267C253.536 143.001 254.566 141.972 255.831 141.972H285.882C287.147 141.972 288.177 143.001 288.177 144.267V161.058C288.177 162.323 287.147 163.353 285.882 163.353ZM255.831 143.65C255.491 143.65 255.214 143.927 255.214 144.267V161.058C255.214 161.398 255.491 161.675 255.831 161.675H285.882C286.222 161.675 286.499 161.398 286.499 161.058V144.267C286.499 143.927 286.222 143.65 285.882 143.65H255.831Z" fill="#333333"/>
<path d="M287.336 235.181V251.972C287.336 252.308 287.227 252.613 287.034 252.857C286.769 253.205 286.351 253.427 285.881 253.427H255.831C255.361 253.427 254.943 253.205 254.678 252.857C254.486 252.613 254.376 252.308 254.376 251.972V235.181C254.376 234.375 255.026 233.726 255.831 233.726H285.881C286.687 233.726 287.336 234.375 287.336 235.181Z" fill="white"/>
<path d="M287.336 249.034V251.972C287.336 252.307 287.227 252.612 287.034 252.856H254.678C254.486 252.612 254.376 252.307 254.376 251.972V249.034H287.336Z" fill="#3D9BE9"/>
<path d="M285.882 254.266H255.832C255.112 254.266 254.449 253.938 254.012 253.366C253.705 252.975 253.538 252.49 253.538 251.972V235.18C253.538 233.915 254.567 232.886 255.832 232.886H285.882C287.147 232.886 288.177 233.915 288.177 235.18V251.972C288.177 252.49 288.01 252.975 287.695 253.376C287.266 253.938 286.602 254.266 285.882 254.266ZM255.832 234.564C255.492 234.564 255.216 234.84 255.216 235.18V251.972C255.216 252.111 255.257 252.235 255.338 252.338C255.463 252.5 255.64 252.588 255.832 252.588H285.882C286.075 252.588 286.252 252.501 286.368 252.348C286.457 252.235 286.499 252.111 286.499 251.972V235.18C286.499 234.84 286.222 234.564 285.882 234.564H255.832Z" fill="#333333"/>
<path d="M319.316 145.985H289.638V147.663H319.316V145.985Z" fill="white"/>
<path d="M219.914 243.914H218.236V150.434C218.236 148.611 218.325 147.266 219.479 146.557C220.416 145.982 221.783 145.986 224.512 145.985L252.248 145.986V147.664L224.51 147.663C222.33 147.663 220.889 147.66 220.358 147.987C220.022 148.193 219.914 148.788 219.914 150.434V243.914Z" fill="white"/>
<path d="M242.246 74.1392V139.951C242.246 142.414 240.249 144.41 237.786 144.41H192.692C190.229 144.41 188.232 142.414 188.232 139.951V74.1392C188.232 70.0985 189.973 66.2536 193.009 63.587L200.973 56.5915C201.666 55.9828 202.063 55.1051 202.063 54.1827V36.5703H228.416V54.1827C228.416 55.1051 228.813 55.9828 229.506 56.5915L237.47 63.587C240.506 66.2536 242.246 70.0985 242.246 74.1392Z" fill="white"/>
<path d="M224.013 42.1773C226.316 42.1773 225.942 41.0558 225.942 39.7475C225.942 38.4392 225.755 38.6262 217.158 38.6262H202.063V36.8799H228.416V42.1773H224.013Z" fill="#3D9BE9"/>
<path d="M188.389 72.0493C188.389 72.0493 188.077 70.9613 190.749 70.3997C193.421 69.8382 200.469 68.7835 207.131 69.6846C213.793 70.5858 216.683 70.5143 218.322 70.1762C219.96 69.8382 223.845 69.6399 232.649 69.3653C241.454 69.0906 241.372 69.2599 241.787 70.577C242.201 71.8941 242.246 74.0892 242.246 80.6545V137.682C242.246 144.037 239.764 144.41 236.777 144.41H192.995C190.617 144.41 188.232 142.927 188.232 139.277C188.232 135.626 188.389 72.0493 188.389 72.0493Z" fill="white"/>
<path d="M188.271 138.74C188.271 142.541 191.178 141.607 207.625 141.607H235.262C239.959 141.607 239.585 139.177 239.585 130.767V76.7532C239.585 69.4642 237.529 66.4739 231.361 61.8015C225.194 57.129 225.941 57.129 225.941 52.0827C225.941 47.0365 224.072 47.7841 213.606 47.7841H202.063V45.915H228.415V53.7648C228.415 55.4468 228.694 55.9553 231.897 58.6915C235.099 61.4276 239.088 64.2939 240.644 67.6266C242.201 70.9594 242.246 71.8024 242.246 77.3616V139.177C242.246 142.167 240.661 144.41 237.786 144.41H192.673C191.178 144.41 189.05 143.557 188.432 141.274C187.814 138.99 188.271 138.74 188.271 138.74Z" fill="#3D9BE9"/>
<path d="M237.787 145.25H192.692C189.77 145.25 187.394 142.873 187.394 139.951V74.1395C187.394 69.8584 189.238 65.7824 192.455 62.9571L200.419 55.9614C200.931 55.5121 201.224 54.8638 201.224 54.1828V35.7314H229.255V54.1828C229.255 54.8638 229.548 55.5121 230.06 55.9611L238.024 62.9571C241.24 65.7824 243.085 69.8584 243.085 74.1395V139.951C243.085 142.873 240.708 145.25 237.787 145.25ZM202.902 37.4094V54.1828C202.902 55.3466 202.401 56.4543 201.526 57.2222L193.562 64.2175C190.708 66.7246 189.072 70.3411 189.072 74.1395V139.951C189.072 141.948 190.696 143.572 192.692 143.572H237.787C239.783 143.572 241.407 141.948 241.407 139.951V74.1395C241.407 70.3408 239.77 66.7246 236.916 64.2175L228.952 57.2218C228.078 56.4543 227.577 55.3466 227.577 54.1828V37.4094H202.902Z" fill="#333333"/>
<path d="M242.246 80.4917H188.232V133.571H242.246V80.4917Z" fill="white"/>
<path d="M242.246 80.4917V133.571H239.592C239.591 132.72 239.585 131.788 239.585 130.767V80.4917H242.246Z" fill="#3D9BE9"/>
<path d="M243.085 134.409H187.394V79.6519H243.085V134.409ZM189.072 132.731H241.407V81.3298H189.072V132.731Z" fill="#333333"/>
<path d="M232.341 42.1768H198.139V45.9147H232.341V42.1768Z" fill="white"/>
<path d="M198.123 43.8274C198.123 44.7618 212.693 44.5097 221.665 44.5097C230.636 44.5097 230.614 44.7933 230.614 43.485C230.614 42.1768 229.596 42.1768 229.596 42.1768H232.34V45.9147H198.138L198.123 43.8274Z" fill="#3D9BE9"/>
<path d="M233.18 46.7544H197.3V41.3384H233.18V46.7544ZM198.978 45.0764H231.502V43.0163H198.978V45.0764Z" fill="#333333"/>
<path d="M230.938 30.9634H199.539V36.5705H230.938V30.9634Z" fill="white"/>
<path d="M231.218 30.8633V35.1275C231.218 35.9758 230.289 36.6634 229.143 36.6634H201.335C200.19 36.6634 199.261 35.9758 199.261 35.1275V30.8633H231.218Z" fill="#3D9BE9"/>
<path d="M231.218 30.8633V35.1799C231.218 35.9988 230.262 36.6634 229.084 36.6634H201.395C200.217 36.6634 199.261 35.9988 199.261 35.1799V34.7808C199.261 35.5043 200.604 35.5327 202.442 35.5327H221.39C227.612 35.5327 228.743 35.7295 228.743 35.0413V33.8617C228.743 32.9769 228.602 32.387 227.462 32.387C226.322 32.387 227.046 32.2887 213.189 32.2887C199.331 32.2887 199.261 31.7972 199.261 33.902V30.8633H231.218Z" fill="#333333"/>
<path d="M202.077 33.0508H200.399V34.9428H202.077V33.0508Z" fill="white"/>
<path d="M231.777 37.4097H198.7V30.125H231.777V37.4097ZM200.378 35.7318H230.099V31.803H200.378V35.7318Z" fill="#333333"/>
<path d="M234.538 25.4918V29.909C234.538 30.5268 234.04 31.0287 233.426 31.0287H197.051C196.438 31.0287 195.939 30.5268 195.939 29.909V25.4918C195.939 24.874 196.438 24.3721 197.051 24.3721H233.426C234.04 24.3721 234.538 24.874 234.538 25.4918Z" fill="white"/>
<path d="M234.538 25.4918V29.909C234.538 30.5274 234.04 31.0287 233.426 31.0287H197.051C196.437 31.0287 195.939 30.5274 195.939 29.909V28.6191C195.99 29.8706 196.833 29.764 208.563 29.764H230.016C232.753 29.764 232.691 30.0302 232.691 26.9682C232.691 24.7049 231.828 24.3721 231.828 24.3721H233.426C234.04 24.3721 234.538 24.8734 234.538 25.4918Z" fill="#3D9BE9"/>
<path d="M233.427 31.868H197.051C195.976 31.868 195.101 30.9893 195.101 29.9091V25.4917C195.101 24.4118 195.976 23.5332 197.051 23.5332H233.427C234.502 23.5332 235.377 24.4118 235.377 25.4917V29.9091C235.377 30.9893 234.502 31.868 233.427 31.868ZM197.051 25.2112C196.901 25.2112 196.779 25.337 196.779 25.4917V29.9091C196.779 30.0642 196.901 30.19 197.051 30.19H233.427C233.577 30.19 233.699 30.0642 233.699 29.9091V25.4917C233.699 25.337 233.577 25.2112 233.427 25.2112H197.051Z" fill="#333333"/>
<path d="M240.378 93.9482H190.103V120.114H240.378V93.9482Z" fill="#3D9BE9"/>
<path d="M240.377 93.9482H239.585V120.114H240.377V93.9482Z" fill="#333333"/>
<path d="M232.953 72.5302C228.589 72.5302 222.519 72.2326 214.438 71.232C195.426 68.877 189 71.7957 188.938 71.8252L188.205 70.3157C188.473 70.1843 194.999 67.1345 214.644 69.5665C233.829 71.9419 241.645 70.2685 241.722 70.2511L242.093 71.8875C241.904 71.9304 239.145 72.5302 232.953 72.5302Z" fill="#333333"/>
<path d="M215.328 71.3178L215.149 69.6496C230.784 67.971 241.394 68.6245 241.5 68.6314L241.392 70.3061C241.287 70.2992 230.808 69.6559 215.328 71.3178Z" fill="#333333"/>
<path d="M191.365 73.3888C189.912 77.2625 190.9 79.6796 192.347 77.4687C193.794 75.2577 192.486 70.3984 191.365 73.3888Z" fill="white"/>
<path d="M190.804 136C189.355 140.346 191.552 141.794 192.299 138.616C193.047 135.439 191.552 133.757 190.804 136Z" fill="white"/>
<path d="M79.3696 77.8193C79.3696 77.8193 78.1611 78.9609 78.1611 84.7504V125.946C78.1611 127.136 79.1254 128.1 80.3149 128.1H129.167C130.356 128.1 131.32 127.136 131.32 125.946V84.7504C131.32 81.5178 131.114 79.3702 130.057 77.8193" fill="white"/>
<path d="M80.5098 83.9022H78.8318C78.8318 83.7491 78.8292 83.5915 78.8264 83.4296C78.8094 82.4195 78.7882 81.1627 79.365 79.8643L80.8985 80.5459C80.4721 81.5052 80.4883 82.469 80.504 83.4014C80.507 83.5731 80.5098 83.7403 80.5098 83.9022Z" fill="white"/>
<path d="M131.32 125.947C131.32 127.136 130.356 128.101 129.167 128.101H80.3149C79.1254 128.101 78.1611 127.136 78.1611 125.947V118.508H131.315L131.32 125.947Z" fill="#3D9BE9"/>
<path d="M78.1611 123.16C78.1611 125.891 79.0629 126.402 83.247 126.402H127.457C129.425 126.402 129.742 125.186 129.742 123.16V84.0604C129.742 81.5998 129.425 79.6313 126.144 79.6313H78.6891L79.0459 78.3524L79.2541 77.9689L80.2857 77.8193H130.117C130.117 77.8193 131.3 79.2366 131.3 83.2068V125.811C131.3 128.023 129.493 128.1 128.557 128.1H80.5414C78.901 128.1 78.1611 127.164 78.1611 125.707V123.16Z" fill="#333333"/>
<path d="M131.316 85.1265H78.167V122.035H131.316V85.1265Z" fill="white"/>
<path d="M131.301 85.1265H129.742V122.035H131.301V85.1265Z" fill="#3D9BE9"/>
<path d="M131.316 94.4766H78.167V113.013H131.316V94.4766Z" fill="#3D9BE9"/>
<path d="M81.0118 111.968H79.3339V99.4244C79.3339 98.0168 79.3311 96.114 79.3271 94.9266L81.0051 94.9214C81.009 96.1101 81.0118 98.0148 81.0118 99.4244V111.968Z" fill="white"/>
<path d="M131.301 94.4766H129.742V113.013H131.301V94.4766Z" fill="#333333"/>
<path d="M129.167 128.939H80.3151C78.6648 128.939 77.3223 127.596 77.3223 125.946V84.75C77.3223 78.8958 78.5478 77.441 78.7936 77.209L79.9459 78.4288C79.9459 78.4288 79.9601 78.4183 79.9828 78.3908C79.9729 78.4026 79.0002 79.6352 79.0002 84.75V125.946C79.0002 126.671 79.5901 127.261 80.3151 127.261H129.167C129.892 127.261 130.482 126.671 130.482 125.946V84.75C130.482 81.6985 130.299 79.6633 129.364 78.2911L130.751 77.3466C131.929 79.0764 132.16 81.3711 132.16 84.75V125.946C132.16 127.596 130.817 128.939 129.167 128.939Z" fill="#333333"/>
<path d="M132.155 122.874H77.3281V84.2871H132.155V122.874ZM79.0061 121.196H130.477V85.9651H79.0061V121.196Z" fill="#333333"/>
<path d="M132.155 113.852H77.3281V93.6372H132.155V113.852ZM79.0061 112.174H130.477V95.3152H79.0061V112.174Z" fill="#333333"/>
<path d="M80.4787 122.973H78.8008V125.316H80.4787V122.973Z" fill="white"/>
<path d="M131.623 75.2832H78.0138C77.688 75.2832 77.4238 75.5474 77.4238 75.8733V77.3179C77.4238 77.6437 77.688 77.9078 78.0138 77.9078H131.623C131.949 77.9078 132.213 77.6437 132.213 77.3179V75.8733C132.213 75.5474 131.949 75.2832 131.623 75.2832Z" fill="#333333"/>
<path d="M79.403 51.3335H130.236C131.143 51.3335 131.879 52.0698 131.879 52.9767V75.2833H77.7598V52.9767C77.7598 52.0698 78.4961 51.3335 79.403 51.3335Z" fill="#333333"/>
<path d="M80.5461 72.2544H78.8682V53.8659C78.8682 52.9971 79.5956 52.2905 80.4896 52.2905H128.037V53.9685H80.5461V72.2544Z" fill="white"/>
<path d="M79.1848 77.3334H77.5068V76.9116C77.5068 76.1257 78.2388 75.5103 79.1732 75.5103H129.868V77.1882H79.1848V77.3334Z" fill="white"/>
<path d="M131.623 78.7471H78.014C77.226 78.7471 76.585 78.106 76.585 77.3178V75.8732C76.585 75.0854 77.226 74.4443 78.014 74.4443H131.623C132.411 74.4443 133.052 75.0854 133.052 75.8732V77.3178C133.052 78.106 132.411 78.7471 131.623 78.7471ZM78.2629 77.0691H131.374V76.1223H78.2629V77.0691Z" fill="#333333"/>
<path d="M132.717 76.1223H76.9199V52.9768C76.9199 51.6082 78.0334 50.4946 79.4021 50.4946H130.235C131.604 50.4946 132.717 51.6082 132.717 52.9768V76.1223ZM78.5979 74.4443H131.039V52.9768C131.039 52.5334 130.678 52.1726 130.235 52.1726H79.4021C78.9587 52.1726 78.5979 52.5334 78.5979 52.9768V74.4443Z" fill="#333333"/>
<path d="M138.806 30.1758V37.9888C138.806 42.856 137.782 43.6246 132.325 48.3637C125.63 54.1776 123.901 56.1768 123.901 66.5416L123.764 160.355C123.759 163.743 126.688 166.49 130.306 166.49H195.767C199.384 166.49 202.321 163.743 202.325 160.355C202.325 156.082 202.592 73.9704 202.592 66.1673C202.592 55.8025 200.596 54.1776 193.901 48.3637C188.444 43.6246 187.42 42.856 187.42 37.9888C187.42 34.4025 187.42 30.1758 187.42 30.1758H138.806Z" fill="white"/>
<path d="M126.837 65.3613H125.159C125.159 59.7096 126.377 55.7939 133.033 50.078L133.072 50.0443C139.687 44.3631 140.537 43.6333 140.537 37.4238H142.215C142.215 44.4041 140.986 45.4597 134.165 51.3175L134.126 51.3509C127.36 57.1615 126.837 60.8229 126.837 65.3613Z" fill="white"/>
<path d="M202.464 62.7097L202.325 160.356C202.321 163.744 199.384 166.491 195.767 166.491H130.306C126.688 166.491 123.759 163.744 123.764 160.356L123.773 153.456C123.764 160.401 124.424 162.638 141.41 162.638H189.888C199.005 162.638 197.257 161.644 197.276 147.475L197.395 62.7097C197.395 57.074 196.15 54.0837 188.932 48.7905C181.714 43.4973 182.483 40.6794 182.483 37.0931C182.483 33.5067 182.483 32.9943 173.004 32.9943H138.806V29.9204H187.576V39.9358C187.576 44.5219 195.339 48.5337 199.415 53.6017C202.208 57.074 202.464 59.6357 202.464 62.7097Z" fill="#3D9BE9"/>
<path d="M128.55 23.913L128.561 15.3179H197.597L197.586 23.9289C197.582 27.3801 194.686 30.1756 191.116 30.1756H135.02C131.443 30.1756 128.545 27.3704 128.55 23.913Z" fill="#3D9BE9"/>
<path d="M131.32 18.1367H129.642V25.0531H131.32V18.1367Z" fill="white"/>
<path d="M198.195 0.838867H128.774C127.603 0.838867 126.651 1.90296 126.649 3.2126L126.639 12.5776C126.637 13.8872 127.587 14.9513 128.758 14.9513H198.179C199.35 14.9513 200.302 13.8872 200.303 12.5776L200.314 3.2126C200.316 1.90296 199.366 0.838867 198.195 0.838867Z" fill="white"/>
<path d="M200.314 3.2126L200.303 12.5776C200.302 13.8872 199.35 14.9513 198.179 14.9513H128.758C127.587 14.9513 126.637 13.8872 126.639 12.5776L126.642 9.84252C126.735 12.4956 128.344 12.2698 150.731 12.2698H191.674C196.898 12.2698 196.779 12.8345 196.786 6.34272C196.792 1.54449 195.145 0.838867 195.145 0.838867H198.195C199.366 0.838867 200.316 1.90296 200.314 3.2126Z" fill="#3D9BE9"/>
<path d="M202.129 68.3452H124L123.998 147.264H202.127L202.129 68.3452Z" fill="white"/>
<path d="M202.128 68.3452H197.34L197.202 147.136H202.126L202.128 68.3452Z" fill="#3D9BE9"/>
<path d="M202.207 68.3452H124.076V96.2674H202.207V68.3452Z" fill="#3D9BE9"/>
<path d="M127.771 93.3287H126.093V70.5024H195.049V72.1804H127.771V93.3287Z" fill="white"/>
<path d="M202.128 68.3452V96.2674H197.292L197.341 68.3452H202.128Z" fill="#333333"/>
<path d="M195.767 167.329H130.306C128.28 167.329 126.322 166.532 124.933 165.141C123.636 163.842 122.922 162.142 122.925 160.354L123.062 66.5405C123.062 55.776 125.011 53.6035 131.775 47.7303L132.163 47.3931C137.194 43.0267 137.967 42.3559 137.967 37.9892V29.3369H188.259V37.9892C188.259 42.3559 189.032 43.0267 194.063 47.3931L194.656 47.9082C201.22 53.6071 203.431 55.5269 203.431 66.1676C203.431 70.6535 203.344 99.193 203.268 124.373C203.212 142.706 203.164 158.539 203.164 160.355C203.159 164.201 199.84 167.329 195.767 167.329ZM139.645 31.0149V37.9892C139.645 43.1211 138.42 44.1846 133.263 48.66L132.875 48.9973C126.293 54.7128 124.74 56.4462 124.74 66.5418L124.603 160.357C124.601 161.696 125.14 162.974 126.12 163.956C127.197 165.033 128.722 165.652 130.306 165.652H195.767C198.917 165.652 201.482 163.275 201.486 160.354C201.486 158.537 201.534 142.702 201.59 124.368C201.666 99.189 201.753 70.6509 201.753 66.1676C201.753 56.2922 200.017 54.7846 193.556 49.1752L192.963 48.66C187.806 44.1846 186.581 43.1211 186.581 37.9892V31.0149H139.645Z" fill="#333333"/>
<path d="M202.966 148.103H123.159L123.161 67.3779H202.968L202.966 148.103ZM124.837 146.425H201.288L201.29 69.0559H124.839L124.837 146.425Z" fill="#333333"/>
<path d="M191.116 31.0143H135.02C133.024 31.0143 131.16 30.248 129.771 28.8572C128.44 27.5246 127.708 25.768 127.711 23.9118L127.723 14.5103H198.438L198.425 23.9298C198.42 27.8363 195.141 31.0143 191.116 31.0143ZM129.399 16.1882L129.389 23.9137C129.387 25.3216 129.944 26.6562 130.958 27.6715C132.03 28.7451 133.473 29.3363 135.02 29.3363H191.116C194.217 29.3363 196.743 26.9101 196.747 23.9278L196.758 16.1882H129.399Z" fill="#333333"/>
<path d="M198.179 15.7902H128.758C128.012 15.7902 127.299 15.4884 126.752 14.9404C126.146 14.3338 125.799 13.4719 125.8 12.5765L125.81 3.21173C125.812 1.44069 127.142 0 128.774 0H198.195C198.941 0 199.654 0.301834 200.201 0.849797C200.807 1.45675 201.154 2.31834 201.153 3.21369L201.143 12.5785C201.141 14.3495 199.811 15.7902 198.179 15.7902ZM128.774 1.67796C128.066 1.67796 127.489 2.36685 127.488 3.21369L127.478 12.5785C127.477 13.0318 127.645 13.4607 127.939 13.7547C128.102 13.9179 128.376 14.1123 128.758 14.1123H198.179C198.887 14.1123 199.464 13.4234 199.465 12.5765L199.475 3.21173C199.476 2.75848 199.308 2.32981 199.014 2.03551C198.851 1.87231 198.577 1.67796 198.195 1.67796H128.774Z" fill="#333333"/>
<path d="M203.255 97.031H123.16L123.161 67.3779H203.255V97.031ZM124.838 95.3531H201.577V69.0559H124.839L124.838 95.3531Z" fill="#333333"/>
<path d="M156.227 128.16H127.023V144.042H156.227V128.16Z" fill="#3D9BE9"/>
<path d="M157.065 144.881H126.185V127.321H157.065V144.881ZM127.863 143.203H155.388V128.999H127.863V143.203Z" fill="#333333"/>
<path d="M128.55 23.2742C128.55 26.0772 130.737 27.6142 138.678 27.6142H189.656C193.498 27.6142 195.065 25.0524 195.065 22.7469V17.1113H128.558V15.3496H197.597V22.7469C197.597 26.8456 195.649 30.1758 191.115 30.1758H136.117C130.737 30.1758 129.456 27.3579 128.944 26.3332C128.432 25.3086 128.55 23.2742 128.55 23.2742Z" fill="#333333"/>
<path d="M126.837 149.192H125.159V157.793H126.837V149.192Z" fill="white"/>
<path d="M135.073 161.83V140.29L137.984 143.098H130.621V137.859H141.854V161.83H135.073ZM142.162 204.309C140.107 204.309 138.281 203.818 136.683 202.837C135.107 201.855 133.863 200.439 132.95 198.59C132.037 196.741 131.58 194.492 131.58 191.844C131.58 189.196 132.037 186.947 132.95 185.098C133.863 183.249 135.107 181.833 136.683 180.852C138.281 179.87 140.107 179.379 142.162 179.379C144.194 179.379 145.997 179.87 147.572 180.852C149.171 181.833 150.426 183.249 151.339 185.098C152.253 186.947 152.709 189.196 152.709 191.844C152.709 194.492 152.253 196.741 151.339 198.59C150.426 200.439 149.171 201.855 147.572 202.837C145.997 203.818 144.194 204.309 142.162 204.309ZM142.162 198.761C142.892 198.761 143.532 198.533 144.08 198.077C144.65 197.62 145.095 196.889 145.415 195.885C145.735 194.858 145.894 193.511 145.894 191.844C145.894 190.155 145.735 188.808 145.415 187.803C145.095 186.799 144.65 186.068 144.08 185.612C143.532 185.155 142.892 184.927 142.162 184.927C141.431 184.927 140.781 185.155 140.21 185.612C139.662 186.068 139.217 186.799 138.874 187.803C138.555 188.808 138.395 190.155 138.395 191.844C138.395 193.511 138.555 194.858 138.874 195.885C139.217 196.889 139.662 197.62 140.21 198.077C140.781 198.533 141.431 198.761 142.162 198.761ZM142.749 214.97C143.424 214.97 144.025 215.109 144.55 215.388C145.086 215.656 145.504 216.074 145.804 216.642C146.115 217.21 146.27 217.944 146.27 218.845V223.83H143.215V219.343C143.215 218.722 143.097 218.271 142.862 217.993C142.626 217.703 142.304 217.559 141.897 217.559C141.607 217.559 141.345 217.628 141.109 217.768C140.873 217.907 140.691 218.121 140.562 218.411C140.434 218.69 140.369 219.054 140.369 219.504V223.83H137.314V219.343C137.314 218.722 137.196 218.271 136.96 217.993C136.735 217.703 136.414 217.559 135.996 217.559C135.695 217.559 135.427 217.628 135.192 217.768C134.967 217.907 134.784 218.121 134.645 218.411C134.516 218.69 134.452 219.054 134.452 219.504V223.83H131.397V215.115H134.307V217.543L133.728 216.851C134.05 216.229 134.489 215.763 135.047 215.452C135.604 215.131 136.226 214.97 136.912 214.97C137.695 214.97 138.381 215.173 138.97 215.581C139.571 215.977 139.973 216.599 140.176 217.446L139.179 217.237C139.49 216.53 139.957 215.977 140.578 215.581C141.211 215.173 141.934 214.97 142.749 214.97ZM135.658 247.094C134.822 247.094 134.023 246.997 133.262 246.804C132.512 246.611 131.869 246.327 131.333 245.952L132.442 243.814C132.807 244.103 133.257 244.328 133.793 244.489C134.339 244.66 134.87 244.746 135.385 244.746C136.21 244.746 136.805 244.564 137.169 244.199C137.534 243.846 137.716 243.326 137.716 242.64V241.611L137.877 239.167L137.861 236.706V235.115H140.771V242.238C140.771 243.889 140.326 245.111 139.437 245.904C138.547 246.697 137.287 247.094 135.658 247.094ZM135.127 243.379C134.355 243.379 133.643 243.208 132.989 242.865C132.346 242.511 131.826 242.023 131.429 241.402C131.043 240.769 130.85 240.024 130.85 239.167C130.85 238.309 131.043 237.569 131.429 236.948C131.826 236.315 132.346 235.827 132.989 235.484C133.643 235.141 134.355 234.97 135.127 234.97C135.867 234.97 136.499 235.12 137.025 235.42C137.55 235.709 137.947 236.165 138.215 236.787C138.493 237.409 138.633 238.202 138.633 239.167C138.633 240.131 138.493 240.925 138.215 241.546C137.947 242.168 137.55 242.629 137.025 242.929C136.499 243.229 135.867 243.379 135.127 243.379ZM135.851 240.951C136.215 240.951 136.537 240.876 136.816 240.726C137.105 240.576 137.33 240.367 137.491 240.099C137.663 239.831 137.748 239.52 137.748 239.167C137.748 238.813 137.663 238.502 137.491 238.234C137.33 237.966 137.105 237.762 136.816 237.623C136.537 237.473 136.215 237.398 135.851 237.398C135.486 237.398 135.159 237.473 134.87 237.623C134.581 237.762 134.35 237.966 134.179 238.234C134.018 238.502 133.937 238.813 133.937 239.167C133.937 239.52 134.018 239.831 134.179 240.099C134.35 240.367 134.581 240.576 134.87 240.726C135.159 240.876 135.486 240.951 135.851 240.951Z" fill="white"/>
<path d="M63.1767 108.24L5.0222 43.4277L1.12012 47.8873L59.2746 112.7L63.1767 108.24Z" fill="#3D9BE9"/>
<path d="M5.12677 44.1188L3.87988 45.2417L56.4218 103.584L57.6687 102.461L5.12677 44.1188Z" fill="white"/>
<path d="M2.82535 45.9385L59.0763 108.805L61.6164 106.502L62.5471 107.539L58.9169 112.301L1.12012 47.8873L2.82535 45.9385Z" fill="#333333"/>
<path d="M59.2832 113.965L0 47.8939L5.01513 42.1626L64.2984 108.233L59.2832 113.965ZM2.24182 47.8801L59.2674 111.435L62.0564 108.247L5.03087 44.6927L2.24182 47.8801Z" fill="#333333"/>
<path d="M253.082 108.24L311.236 43.4277L315.139 47.8873L256.984 112.7L253.082 108.24Z" fill="#3D9BE9"/>
<path d="M311.297 43.8923L269.894 90.0293L271.143 91.1502L312.546 45.0132L311.297 43.8923Z" fill="white"/>
<path d="M313.435 45.9385L257.184 108.805L254.644 106.502L253.713 107.539L257.343 112.301L315.14 47.8873L313.435 45.9385Z" fill="#333333"/>
<path d="M256.977 113.965L251.962 108.233L311.245 42.1626L316.26 47.8939L256.977 113.965ZM254.204 108.247L256.993 111.435L314.018 47.8801L311.229 44.6927L254.204 108.247Z" fill="#333333"/>
<path d="M250.457 108.165H66.1455C62.2418 108.165 59.0771 111.33 59.0771 115.233V299.545C59.0771 303.449 62.2418 306.614 66.1455 306.614H250.457C254.361 306.614 257.526 303.449 257.526 299.545V115.233C257.526 111.33 254.361 108.165 250.457 108.165Z" fill="#3D9BE9"/>
<path d="M250.458 307.453H66.1457C61.7856 307.453 58.2383 303.906 58.2383 299.546V115.234C58.2383 110.874 61.7856 107.327 66.1457 107.327H250.458C254.818 107.327 258.365 110.874 258.365 115.234V299.546C258.365 303.906 254.818 307.453 250.458 307.453ZM66.1457 109.005C62.7108 109.005 59.9162 111.799 59.9162 115.234V299.546C59.9162 302.981 62.7108 305.775 66.1457 305.775H250.458C253.893 305.775 256.687 302.981 256.687 299.546V115.234C256.687 111.799 253.893 109.005 250.458 109.005H66.1457Z" fill="#333333"/>
<path d="M257.526 115.234V299.546C257.526 303.448 254.36 306.615 250.457 306.615H66.1455C62.2434 306.615 59.0771 303.448 59.0771 299.546V291.319C59.0771 299.368 59.93 301.079 85.9792 301.079H128.189V299.63H188.414V301.079H245.608C251.951 301.079 252.509 299.368 252.509 295.466V119.092C252.509 110.953 249.917 108.194 243.969 108.194C243.818 108.194 243.679 108.183 243.551 108.166H250.457C254.36 108.166 257.526 111.332 257.526 115.234Z" fill="#333333"/>
<path d="M188.414 274.316V304.997C188.414 305.61 188.214 306.168 187.862 306.614C187.377 307.249 186.614 307.656 185.755 307.656H130.847C129.989 307.656 129.225 307.249 128.74 306.614C128.389 306.168 128.188 305.61 128.188 304.997V274.316C128.188 272.844 129.376 271.657 130.847 271.657H185.755C187.227 271.657 188.414 272.844 188.414 274.316Z" fill="white"/>
<path d="M188.414 299.629V304.997C188.414 305.61 188.214 306.168 187.862 306.614H128.74C128.389 306.168 128.188 305.61 128.188 304.997V299.629H188.414Z" fill="#3D9BE9"/>
<path d="M185.755 308.495H130.848C129.75 308.495 128.739 307.995 128.073 307.123C127.603 306.525 127.35 305.787 127.35 304.998V274.316C127.35 272.387 128.919 270.818 130.848 270.818H185.755C187.684 270.818 189.253 272.387 189.253 274.316V304.998C189.253 305.787 189 306.525 188.522 307.133C187.864 307.995 186.853 308.495 185.755 308.495ZM130.848 272.496C129.844 272.496 129.028 273.313 129.028 274.316V304.998C129.028 305.407 129.156 305.786 129.4 306.095C129.753 306.558 130.278 306.817 130.848 306.817H185.755C186.325 306.817 186.85 306.558 187.195 306.105C187.447 305.786 187.575 305.407 187.575 304.998V274.316C187.575 273.313 186.759 272.496 185.755 272.496H130.848Z" fill="#333333"/>
<path d="M246.844 110.203H192.057V111.881H246.844V110.203Z" fill="white"/>
<path d="M62.635 290.274H60.957V117.704C60.957 114.473 61.0932 112.271 62.9131 111.153C64.4704 110.195 66.9286 110.195 71.8304 110.202L72.8545 110.202H204.134V111.88L71.8289 111.88C67.5352 111.873 64.9443 111.874 63.7917 112.582C62.8944 113.134 62.635 114.282 62.635 117.704V290.274Z" fill="white"/>
<path d="M309.722 307.853C309.626 313.889 306.341 309.486 302.777 306.036C297.757 301.177 297.002 312.684 291.99 307.247C286.953 301.785 283.108 309.667 278.052 306.036C272.981 302.393 272.348 313.287 265.379 307.853C258.377 302.393 254.624 309.667 247.622 306.036C240.598 302.393 238.897 316.295 236.766 309.933C236.048 307.786 235.946 305.708 236.133 303.894C236.502 300.288 237.988 297.714 237.988 297.714C236.833 296.621 236.446 293.862 236.468 289.936C236.466 289.794 236.47 289.653 236.468 289.505C236.467 289.481 236.473 289.45 236.473 289.425C236.604 279.69 239.048 263.159 238.816 246.899C238.478 223.182 235.989 213.222 238.271 208.711C238.271 208.711 235.407 203.715 236.612 200.64C237.821 197.563 243.227 205.695 248.135 200.64C253.064 195.57 254.379 204.375 259.36 200.64C264.357 196.899 266.804 206.987 273.858 201.626C280.95 196.235 276.1 204.375 284.149 200.64C292.23 196.899 297.774 204.375 302.63 200.64C307.494 196.899 309.289 201.996 304.634 208.04C304.634 208.04 304.798 208.619 305.011 210.02C305.654 214.211 306.757 225.727 305.431 250.812C303.707 283.391 306.75 285.027 304.792 297.714C304.792 297.714 304.855 297.769 304.974 297.873C305.873 298.666 309.807 302.478 309.722 307.853Z" fill="white"/>
<path d="M236.493 204.018C237.944 206.163 241.826 202.53 245.834 204.018C249.838 205.503 251.163 205.755 254.784 203.649C258.412 201.54 260.783 200.468 264.906 203.649C269.018 206.822 270.341 207.992 274.637 205.43C278.942 202.862 279.005 208.733 283.272 205.801C287.548 202.862 292.184 202.715 296.792 205.43C301.389 208.139 306.067 204.183 306.775 200.878C307.322 198.322 307.92 201.256 307.39 204.183C306.811 207.387 304.692 208.139 304.692 208.139C304.692 208.139 303.088 212.051 295.978 209.111C288.851 206.163 290.058 205.938 284.818 207.697C279.586 209.454 280.631 209.597 276.149 208.21C271.662 206.822 271.673 210.358 266.712 207.933C261.742 205.503 261.544 204.966 255.98 207.421C249.882 210.111 251.016 206.552 244.814 206.552C238.611 206.552 238.492 210.545 237.218 207.697C235.941 204.843 236.493 204.018 236.493 204.018Z" fill="#3D9BE9"/>
<path d="M309.722 307.852C309.626 313.889 306.341 309.485 302.777 306.035C297.757 301.176 297.002 312.684 291.99 307.247C286.953 301.785 283.108 309.667 278.052 306.035C272.981 302.393 272.348 313.286 265.379 307.852C258.377 302.393 254.624 309.667 247.622 306.035C240.598 302.393 238.897 316.294 236.766 309.932C236.048 307.786 235.946 305.708 236.133 303.894C236.548 304.088 236.817 304.216 236.817 304.216C236.873 307.852 239.955 301.785 245.685 303.001C251.409 304.216 254.562 301.785 260.282 302.393C265.998 303.001 267.91 306.641 270.442 303.608C272.981 300.567 276.492 302.259 279.491 303.845C282.492 305.429 287.674 300.281 291.744 303.159C295.803 306.035 295.198 303.001 300.277 303.001C305.355 303.001 305.961 304.998 304.719 303.092C303.823 301.712 302.557 301.389 301.916 301.31C302.577 301.292 303.864 300.981 304.259 299.007C304.348 298.574 304.601 298.19 304.974 297.873C305.873 298.666 309.807 302.478 309.722 307.852Z" fill="#3D9BE9"/>
<path d="M305.25 294.106C304.106 297.207 305.447 300.969 297.889 301.31C288.167 301.754 289.841 297.823 284.746 300.031C279.662 302.234 281.568 298.434 276.026 300.019C270.498 301.602 270.119 298.434 264.566 299.988C259.02 301.541 256.763 298.434 253.504 297.42C250.243 296.406 252.332 300.872 247.544 298.739C242.746 296.602 243.421 299.653 240.226 298.434C238.915 297.933 238.253 297.946 237.692 298.287C237.871 297.915 237.989 297.714 237.989 297.714C236.833 296.62 236.447 293.861 236.469 289.935C236.664 295.116 246.359 295.783 250.035 293.328C253.838 290.783 260.253 296.908 264.062 294.461C267.879 292.01 277.699 296.168 281.397 294.706C285.093 293.236 292.783 297.475 299.453 295.049C306.137 292.623 301.162 282.154 301.349 266.586C301.538 250.811 303.723 232.247 303.175 223.831C302.622 215.356 303.99 211.424 300.039 210.768C297.674 210.374 301.446 210.689 305.011 210.019C305.654 214.211 306.758 225.726 305.432 250.811C303.886 280.067 306.171 284.366 305.25 294.106Z" fill="#3D9BE9"/>
<path d="M237.992 312.465C237.925 312.465 237.857 312.46 237.787 312.45C236.802 312.311 236.315 311.235 235.968 310.2C234.084 304.581 236.184 299.459 236.984 297.827C234.9 294.87 235.578 286.824 236.573 275.004C237.297 266.414 238.117 256.678 237.978 246.909C237.839 237.162 237.326 229.594 236.951 224.068C236.414 216.148 236.107 211.622 237.334 208.74C236.659 207.445 234.688 203.246 235.831 200.335C236.055 199.763 236.417 199.38 236.905 199.197C237.88 198.831 238.998 199.415 240.292 200.089C242.536 201.258 245.079 202.583 247.534 200.057C250.599 196.902 252.8 198.456 254.407 199.591C255.889 200.637 256.959 201.393 258.858 199.97C261.611 197.907 263.81 199.378 265.749 200.675C268.025 202.197 269.989 203.511 273.353 200.955C275.177 199.569 276.351 198.949 277.28 198.883C278.401 198.808 278.957 199.536 279.326 200.021C279.859 200.724 280.411 201.45 283.798 199.88C288.311 197.789 292.157 198.994 295.247 199.961C297.983 200.817 300.143 201.493 302.115 199.977C305.147 197.645 306.762 198.684 307.315 199.238C308.955 200.88 308.203 204.619 305.543 208.227C306.013 210.357 307.852 220.943 306.269 250.856C305.353 268.162 305.781 276.642 306.094 282.834C306.36 288.111 306.539 291.643 305.69 297.387C306.907 298.504 310.647 302.387 310.56 307.866C310.537 309.333 310.354 311.079 309.131 311.568C307.641 312.164 305.997 310.488 303.72 308.168C303.223 307.661 302.709 307.137 302.193 306.638C301.496 305.964 300.878 305.622 300.366 305.648C299.588 305.673 298.845 306.492 298.059 307.358C297.117 308.397 296.049 309.576 294.561 309.582H294.55C293.507 309.582 292.468 309.004 291.373 307.816C289.062 305.31 287.206 306.019 284.856 306.918C282.711 307.738 280.279 308.668 277.563 306.717C275.897 305.521 275.053 306.222 273.449 307.793C271.67 309.535 269.233 311.922 264.863 308.514C261.435 305.842 258.976 306.481 256.129 307.221C253.617 307.873 250.77 308.612 247.236 306.78C244.282 305.248 242.562 307.283 240.619 310.1C239.715 311.411 238.988 312.464 237.992 312.465ZM237.493 200.769C237.494 200.769 237.448 200.806 237.393 200.948C236.524 203.16 238.258 207.001 239 208.294L239.225 208.686L239.021 209.09C237.783 211.537 238.1 216.211 238.625 223.954C239.001 229.499 239.516 237.093 239.656 246.885C239.796 256.736 238.972 266.516 238.245 275.145C237.339 285.909 236.556 295.206 238.565 297.107L239.047 297.562L238.714 298.136C238.683 298.191 235.566 303.723 237.559 309.667C237.766 310.284 237.932 310.58 238.028 310.716C238.333 310.459 238.848 309.712 239.238 309.147C240.834 306.832 243.506 302.957 248.008 305.291C250.97 306.827 253.271 306.229 255.707 305.597C258.71 304.817 261.815 304.01 265.895 307.191C269.108 309.696 270.505 308.327 272.275 306.594C273.782 305.119 275.657 303.282 278.542 305.354C280.524 306.778 282.254 306.117 284.256 305.35C286.726 304.407 289.525 303.336 292.606 306.679C293.356 307.492 294.009 307.904 294.55 307.904H294.554C295.302 307.901 296.038 307.09 296.817 306.231C297.757 305.194 298.822 304.019 300.312 303.971C301.315 303.945 302.31 304.416 303.36 305.433C303.891 305.947 304.413 306.479 304.918 306.993C306.05 308.146 307.939 310.06 308.522 310.006C308.513 310 308.854 309.679 308.883 307.84C308.971 302.268 304.31 298.406 304.263 298.367L303.89 298.064L303.963 297.588C304.864 291.741 304.686 288.231 304.418 282.919C304.104 276.69 303.673 268.16 304.593 250.767C306.336 217.851 303.852 208.354 303.826 208.262L303.716 207.859L303.97 207.526C306.6 204.115 306.913 201.21 306.128 200.424C305.642 199.937 304.469 200.284 303.138 201.307C300.474 203.356 297.692 202.484 294.746 201.562C291.64 200.59 288.429 199.584 284.504 201.403C280.247 203.375 278.952 202.303 277.989 201.036C277.628 200.56 277.572 200.544 277.399 200.557C277.022 200.584 276.19 200.906 274.368 202.29C270.052 205.571 267.149 203.63 264.817 202.07C262.746 200.685 261.586 200.023 259.864 201.313C256.989 203.468 254.937 202.019 253.439 200.961C251.796 199.801 250.803 199.1 248.737 201.226C245.411 204.649 241.864 202.8 239.517 201.577C238.86 201.235 237.76 200.663 237.493 200.769Z" fill="#333333"/>
<path d="M297.782 302.782C295.188 302.782 292.305 302.066 289.747 300.699C287.155 299.312 285.943 300.186 284.661 301.111C283.549 301.912 282.027 303.01 280.096 301.006C278.989 299.858 278.231 300.079 276.62 300.691C274.982 301.314 272.942 302.088 270.076 300.715C268.14 299.788 266.907 300.16 265.344 300.63C263.256 301.26 260.657 302.043 256.056 299.474C253.944 298.295 252.975 298.086 252.527 298.123C252.24 298.145 252.15 298.248 251.857 298.719C251.169 299.825 250.244 300.796 247.216 299.512C244.634 298.417 243.585 298.801 242.57 299.173C241.14 299.697 239.941 299.95 237.539 298.424L238.439 297.008C240.328 298.208 240.99 297.964 241.993 297.597C243.19 297.158 244.679 296.612 247.871 297.967C249.831 298.799 250.057 298.435 250.433 297.832C251.457 296.187 252.787 295.728 256.874 298.01C260.854 300.231 262.89 299.617 264.86 299.024C266.541 298.517 268.279 297.994 270.801 299.202C273.018 300.264 274.547 299.684 276.024 299.122C277.598 298.525 279.382 297.847 281.305 299.842C282.226 300.798 282.534 300.576 283.679 299.75C285.01 298.79 287.022 297.339 290.538 299.219C294.2 301.176 298.536 301.674 301.328 300.458C302.732 299.847 303.625 298.852 303.981 297.502L305.604 297.931C305.117 299.775 303.87 301.182 301.998 301.997C300.785 302.525 299.335 302.782 297.782 302.782Z" fill="#333333"/>
<path d="M300.399 210.819C297.613 210.82 294.305 209.603 291.497 207.886C289.392 206.598 287.543 207.464 285.402 208.465C283.245 209.474 280.801 210.617 277.87 209.495C275.815 208.709 274.368 209.027 272.836 209.364C270.59 209.859 268.268 210.37 264.539 207.486C261.691 205.284 259.516 206.46 256.997 207.824C254.913 208.952 252.55 210.23 250.007 208.765C245.571 206.212 241.421 207.712 238.72 209.421L237.823 208.003C240.914 206.047 245.682 204.34 250.844 207.312C252.492 208.261 253.952 207.564 256.198 206.348C258.717 204.984 261.852 203.288 265.565 206.159C268.674 208.563 270.435 208.175 272.475 207.726C274.102 207.367 275.945 206.961 278.47 207.928C280.736 208.797 282.657 207.897 284.691 206.945C286.944 205.891 289.498 204.696 292.372 206.454C296.632 209.06 302.132 210.339 303.932 207.58L305.337 208.497C304.262 210.144 302.475 210.819 300.399 210.819Z" fill="#333333"/>
<path d="M296.619 223.057L296.371 248.223H246.326C246.326 248.223 246.876 237.234 246.048 223.182L296.619 223.057Z" fill="#3D9BE9"/>
<path d="M297.201 249.062H245.444L245.488 248.181C245.493 248.072 246.025 237.071 245.209 223.231L245.157 222.345L297.465 222.216L297.201 249.062ZM247.2 247.384H295.54L295.77 223.898L246.935 224.018C247.56 235.301 247.305 244.566 247.2 247.384Z" fill="#333333"/>
<path d="M250.726 244.503L250.707 242.825C255.961 242.766 260.73 242.556 264.938 242.37C273.638 241.985 281.153 241.653 288.827 242.835L288.572 244.493C281.061 243.337 273.978 243.65 265.012 244.046C260.792 244.233 256.008 244.444 250.726 244.503Z" fill="white"/>
<path d="M288.602 238.13C283.573 237.275 278.742 237.398 272.628 237.555C266.621 237.707 259.813 237.881 250.591 237.229L250.709 235.555C259.85 236.202 266.616 236.029 272.585 235.877C278.791 235.719 283.693 235.594 288.883 236.475L288.602 238.13Z" fill="white"/>
<path d="M275.962 231.282C273.583 231.282 270.925 231.163 267.977 230.821L268.17 229.154C274.834 229.928 280.012 229.527 283.793 229.235C286.395 229.033 288.275 228.888 289.718 229.163L289.404 230.812C288.181 230.578 286.302 230.723 283.922 230.908C281.736 231.077 279.09 231.282 275.962 231.282Z" fill="white"/>
<path d="M250.286 227.486L250.629 234.371H263.064L263.036 227.4L250.286 227.486Z" fill="white"/>
<path d="M263.907 235.21H249.832L249.405 226.652L263.872 226.555L263.907 235.21ZM251.428 233.532H262.223L262.201 228.244L251.168 228.318L251.428 233.532Z" fill="#333333"/>
<path d="M250.667 283.802L249.205 282.979C257.063 269.029 266.406 259.707 274.65 251.484C283.583 242.572 290.638 235.534 291.527 226.318L293.197 226.479C292.251 236.296 285.007 243.522 275.835 252.672C267.668 260.819 258.411 270.053 250.667 283.802Z" fill="#333333"/>
<path d="M301.516 301.293C301.516 301.293 301.662 301.287 301.903 301.311C301.668 301.323 301.516 301.293 301.516 301.293Z" fill="white"/>
<path d="M301.792 302.153C301.559 302.153 301.4 302.125 301.35 302.115L294.475 300.737L301.482 300.454C301.515 300.453 301.701 300.448 301.987 300.476L301.946 302.149C301.892 302.152 301.84 302.153 301.792 302.153Z" fill="#333333"/>
<path d="M153.088 126.734C153.773 126.734 154.469 127.013 154.995 127.638L240.251 228.847C241.634 230.489 240.467 232.998 238.321 232.998H218.57C217.176 232.998 216.046 234.128 216.046 235.523V253.764C216.046 255.158 214.916 256.288 213.522 256.288H193.737C192.343 256.288 191.213 257.418 191.213 258.812V274.731C191.213 276.125 190.083 277.255 188.688 277.255H166.403C164.996 277.255 163.861 278.405 163.879 279.812L164.047 293.011C164.067 294.564 162.803 295.573 161.5 295.573C160.814 295.573 160.119 295.295 159.592 294.67L74.3292 193.46C72.9462 191.818 74.1132 189.309 76.2598 189.309H96.017C97.4112 189.309 98.5414 188.179 98.5414 186.784V168.544C98.5414 167.149 99.6716 166.019 101.066 166.019H120.85C122.244 166.019 123.375 164.889 123.375 163.495V147.576C123.375 146.182 124.505 145.052 125.899 145.052H148.185C149.591 145.052 150.727 143.902 150.709 142.495L150.54 129.296C150.52 127.743 151.784 126.735 153.088 126.734ZM153.088 123.378C151.508 123.379 149.967 124.022 148.86 125.143C147.759 126.258 147.164 127.748 147.185 129.339L147.342 141.696H125.899C122.657 141.696 120.019 144.334 120.019 147.576V162.663H101.066C97.8234 162.663 95.1855 165.301 95.1855 168.544V185.953H76.2598C73.9465 185.953 71.9036 187.256 70.928 189.353C69.9524 191.451 70.2722 193.853 71.7626 195.622L157.026 296.832C158.149 298.165 159.779 298.929 161.5 298.929C163.079 298.929 164.62 298.286 165.728 297.164C166.828 296.05 167.423 294.559 167.403 292.968L167.245 280.611H188.688C191.931 280.611 194.569 277.973 194.569 274.731V259.644H213.522C216.764 259.644 219.402 257.006 219.402 253.764V236.354H238.321C240.634 236.354 242.677 235.051 243.652 232.954C244.628 230.857 244.308 228.455 242.818 226.685L157.562 125.476C156.439 124.143 154.808 123.378 153.088 123.378Z" fill="white"/>
<path d="M238.32 232.998H218.57C217.176 232.998 216.046 234.128 216.046 235.523V253.764C216.046 255.158 214.916 256.288 213.522 256.288H193.737C192.343 256.288 191.213 257.418 191.213 258.812V274.731C191.213 276.125 190.083 277.255 188.688 277.255H166.403C164.996 277.255 163.861 278.405 163.879 279.812L164.047 293.011C164.077 295.381 161.119 296.483 159.592 294.67L74.3291 193.46C72.9461 191.818 74.1131 189.309 76.2597 189.309H96.0169C97.4111 189.309 98.5413 188.179 98.5413 186.784V168.543C98.5413 167.149 99.6715 166.019 101.066 166.019H120.85C122.244 166.019 123.374 164.889 123.374 163.495V147.576C123.374 146.182 124.505 145.052 125.899 145.052H148.184C149.591 145.052 150.727 143.902 150.709 142.495L150.54 129.296C150.51 126.926 153.468 125.825 154.995 127.638L240.251 228.847C241.634 230.489 240.467 232.998 238.32 232.998Z" fill="white"/>
<path d="M78.1798 190.194L155.698 281.017C157.221 282.802 160.142 281.725 160.142 279.378V273.606C160.142 272.212 161.273 271.081 162.667 271.081H184.876C186.27 271.081 187.4 269.951 187.4 268.557V251.903C187.4 250.509 188.53 249.379 189.924 249.379H209.736C211.13 249.379 212.26 248.249 212.26 246.854V228.911C212.26 227.517 213.39 226.387 214.785 226.387H237.564C238.363 226.387 239.114 226.765 239.59 227.405L240.752 228.968C241.99 230.633 240.801 232.998 238.726 232.998H218.57C217.176 232.998 216.046 234.128 216.046 235.522V253.763C216.046 255.158 214.916 256.288 213.522 256.288H193.737C192.343 256.288 191.213 257.418 191.213 258.812V274.731C191.213 276.125 190.083 277.255 188.688 277.255H166.403C164.996 277.255 163.861 278.405 163.879 279.812L164.047 293.011C164.077 295.381 161.119 296.482 159.592 294.669L74.3291 193.459C72.9461 191.818 74.1131 189.309 76.2597 189.309C76.9985 189.309 77.7002 189.632 78.1798 190.194Z" fill="#3D9BE9"/>
<path d="M161.505 296.412C160.538 296.412 159.608 295.991 158.95 295.21L73.687 194C72.8346 192.989 72.6518 191.615 73.2097 190.415C73.7677 189.215 74.9362 188.47 76.2594 188.47H96.0166C96.9459 188.47 97.7019 187.714 97.7019 186.785V168.544C97.7019 166.689 99.2108 165.18 101.065 165.18H120.85C121.779 165.18 122.535 164.424 122.535 163.495V147.576C122.535 145.722 124.044 144.213 125.898 144.213H148.184C148.638 144.213 149.064 144.035 149.383 143.712C149.703 143.388 149.875 142.96 149.869 142.506L149.701 129.307C149.683 127.868 150.542 126.614 151.89 126.112C153.239 125.61 154.709 125.997 155.636 127.098L240.893 228.307C241.745 229.319 241.928 230.693 241.37 231.893C240.812 233.092 239.643 233.837 238.32 233.837H218.57C217.641 233.837 216.885 234.593 216.885 235.523V253.764C216.885 255.618 215.376 257.127 213.521 257.127H193.737C192.808 257.127 192.052 257.883 192.052 258.813V274.731C192.052 276.586 190.543 278.094 188.688 278.094H166.402C165.948 278.094 165.522 278.272 165.203 278.596C164.884 278.919 164.711 279.347 164.717 279.801L164.886 293C164.904 294.439 164.045 295.693 162.696 296.195C162.304 296.342 161.902 296.412 161.505 296.412ZM76.2594 190.148C75.5862 190.148 75.015 190.513 74.7312 191.123C74.4474 191.733 74.5368 192.404 74.9704 192.919L160.234 294.129C160.797 294.799 161.573 294.824 162.111 294.623C162.648 294.423 163.219 293.897 163.208 293.022L163.039 279.823C163.028 278.916 163.372 278.062 164.009 277.417C164.646 276.772 165.496 276.416 166.402 276.416H188.688C189.617 276.416 190.374 275.66 190.374 274.731V258.813C190.374 256.958 191.882 255.449 193.737 255.449H213.521C214.451 255.449 215.207 254.693 215.207 253.764V235.523C215.207 233.668 216.715 232.159 218.57 232.159H238.32C238.993 232.159 239.564 231.795 239.848 231.185C240.132 230.575 240.043 229.903 239.609 229.388L154.353 128.178C153.789 127.509 153.014 127.484 152.476 127.685C151.938 127.885 151.368 128.411 151.379 129.286L151.547 142.484C151.559 143.391 151.214 144.246 150.577 144.891C149.941 145.536 149.091 145.891 148.184 145.891H125.898C124.969 145.891 124.213 146.647 124.213 147.576V163.495C124.213 165.349 122.704 166.858 120.85 166.858H101.065C100.136 166.858 99.3799 167.614 99.3799 168.544V186.785C99.3799 188.639 97.871 190.148 96.0166 190.148H76.2594Z" fill="#333333"/>
<path d="M127.398 210.35C124.553 207.393 123.133 203.354 123.133 198.236C123.133 194.881 123.785 191.953 125.094 189.449C126.403 186.947 128.208 185.028 130.512 183.691C132.815 182.356 135.445 181.687 138.402 181.687C142.952 181.687 146.648 183.179 149.493 186.165C152.336 189.151 153.758 193.175 153.758 198.236C153.758 203.354 152.336 207.393 149.493 210.35C146.648 213.307 142.952 214.785 138.402 214.785C133.909 214.785 130.241 213.307 127.398 210.35ZM174.92 182.454H181.7C183.527 182.454 184.607 184.5 183.577 186.008L145.904 241.178C145.48 241.798 144.778 242.169 144.027 242.169H137.247C135.42 242.169 134.34 240.123 135.37 238.615L173.043 183.445C173.467 182.825 174.169 182.454 174.92 182.454ZM142.071 204.634C142.98 203.269 143.436 201.137 143.436 198.236C143.436 195.336 142.98 193.203 142.071 191.838C141.16 190.473 139.938 189.791 138.402 189.791C136.923 189.791 135.716 190.488 134.777 191.881C133.839 193.275 133.369 195.393 133.369 198.236C133.369 201.08 133.839 203.198 134.777 204.592C135.716 205.986 136.923 206.681 138.402 206.681C139.938 206.681 141.16 205.999 142.071 204.634ZM169.497 238.501C166.682 235.545 165.274 231.506 165.274 226.387C165.274 221.326 166.695 217.302 169.54 214.317C172.382 211.331 176.051 209.838 180.544 209.838C185.093 209.838 188.79 211.331 191.634 214.317C194.477 217.302 195.899 221.326 195.899 226.387C195.899 231.506 194.477 235.545 191.634 238.501C188.79 241.458 185.093 242.937 180.544 242.937C175.993 242.937 172.312 241.458 169.497 238.501ZM184.212 232.785C185.122 231.42 185.577 229.288 185.577 226.387C185.577 223.487 185.122 221.354 184.212 219.989C183.302 218.624 182.08 217.942 180.544 217.942C179.009 217.942 177.785 218.624 176.876 219.989C175.966 221.354 175.511 223.487 175.511 226.387C175.511 229.288 175.966 231.42 176.876 232.785C177.785 234.15 179.009 234.833 180.544 234.833C182.08 234.833 183.302 234.15 184.212 232.785Z" fill="#3D9BE9"/>
<path d="M138.403 181.686C142.952 181.686 146.648 183.179 149.493 186.165C152.336 189.15 153.758 193.175 153.758 198.236C153.758 203.354 152.336 207.393 149.493 210.349C146.648 213.307 142.952 214.785 138.403 214.785C133.909 214.785 130.241 213.307 127.398 210.349C124.554 207.393 123.133 203.354 123.133 198.236C123.133 194.881 123.786 191.952 125.095 189.449C126.403 186.947 128.209 185.028 130.512 183.691C132.815 182.355 135.445 181.686 138.403 181.686ZM138.403 206.681C139.938 206.681 141.16 205.999 142.071 204.634C142.98 203.269 143.436 201.136 143.436 198.236C143.436 195.335 142.98 193.203 142.071 191.838C141.16 190.473 139.938 189.79 138.403 189.79C136.923 189.79 135.716 190.487 134.777 191.881C133.839 193.275 133.37 195.393 133.37 198.236C133.37 201.08 133.839 203.198 134.777 204.591C135.716 205.986 136.923 206.681 138.403 206.681ZM181.7 182.454C183.527 182.454 184.607 184.5 183.577 186.008L145.904 241.178C145.481 241.798 144.778 242.169 144.027 242.169H137.247C135.42 242.169 134.34 240.123 135.37 238.614L173.043 183.445C173.467 182.825 174.169 182.454 174.92 182.454H181.7ZM180.545 209.838C185.093 209.838 188.79 211.331 191.634 214.316C194.478 217.302 195.899 221.326 195.899 226.387C195.899 231.505 194.478 235.544 191.634 238.501C188.79 241.458 185.093 242.937 180.545 242.937C175.994 242.937 172.312 241.458 169.498 238.501C166.682 235.544 165.274 231.505 165.274 226.387C165.274 221.326 166.696 217.302 169.54 214.316C172.383 211.331 176.051 209.838 180.545 209.838ZM180.545 234.832C182.08 234.832 183.303 234.15 184.213 232.785C185.122 231.42 185.578 229.288 185.578 226.387C185.578 223.487 185.122 221.354 184.213 219.989C183.303 218.624 182.08 217.942 180.545 217.942C179.009 217.942 177.785 218.624 176.876 219.989C175.966 221.354 175.512 223.487 175.512 226.387C175.512 229.288 175.966 231.42 176.876 232.785C177.785 234.15 179.009 234.832 180.545 234.832ZM138.403 180.008C135.161 180.008 132.223 180.759 129.67 182.239C127.099 183.732 125.059 185.896 123.608 188.671C122.179 191.403 121.455 194.621 121.455 198.236C121.455 203.781 123.048 208.248 126.189 211.513C129.347 214.797 133.456 216.463 138.403 216.463C143.405 216.463 147.543 214.798 150.702 211.513C153.844 208.246 155.436 203.779 155.436 198.236C155.436 192.753 153.845 188.302 150.708 185.008C147.548 181.69 143.408 180.008 138.403 180.008ZM138.403 205.003C137.786 205.003 136.974 204.85 136.169 203.654C135.425 202.549 135.048 200.726 135.048 198.236C135.048 195.746 135.425 193.923 136.169 192.818C136.975 191.622 137.786 191.468 138.403 191.468C139.374 191.468 140.075 191.869 140.675 192.769C141.169 193.511 141.758 195.062 141.758 198.236C141.758 201.41 141.169 202.961 140.674 203.704C140.075 204.602 139.374 205.003 138.403 205.003ZM181.7 180.776H174.92C173.614 180.776 172.394 181.42 171.658 182.499L133.985 237.668C133.156 238.881 133.068 240.442 133.754 241.741C134.439 243.04 135.778 243.847 137.247 243.847H144.027C145.333 243.847 146.553 243.203 147.29 242.124L184.963 186.954C185.791 185.741 185.88 184.181 185.194 182.882C184.508 181.583 183.169 180.776 181.7 180.776ZM180.545 208.16C175.595 208.16 171.483 209.842 168.325 213.159C165.187 216.452 163.596 220.903 163.596 226.387C163.596 231.928 165.173 236.393 168.283 239.658C171.413 242.947 175.538 244.615 180.545 244.615C185.546 244.615 189.684 242.949 192.844 239.664C195.985 236.398 197.577 231.931 197.577 226.387C197.577 220.904 195.987 216.454 192.85 213.159C189.689 209.842 185.549 208.16 180.545 208.16ZM180.545 233.155C179.572 233.155 178.871 232.754 178.272 231.855C177.778 231.114 177.19 229.564 177.19 226.387C177.19 223.21 177.778 221.66 178.272 220.92C178.871 220.021 179.572 219.62 180.545 219.62C181.516 219.62 182.217 220.021 182.816 220.92C183.31 221.661 183.9 223.212 183.9 226.387C183.9 229.562 183.31 231.113 182.816 231.855C182.217 232.753 181.516 233.155 180.545 233.155Z" fill="#333333"/>
<path d="M174.459 183.639L137.348 238.186L138.735 239.129L175.847 184.583L174.459 183.639Z" fill="white"/>
<path d="M168.702 235.227C165.342 228.918 165.703 220.908 169.58 215.749C172.82 211.438 177.999 209.778 184.165 211.078L183.819 212.719C178.327 211.563 173.747 212.997 170.921 216.757C167.478 221.34 167.167 228.776 170.183 234.439L168.702 235.227Z" fill="white"/>
<path d="M126.346 207.095C123.076 201.333 123.484 193.013 127.295 187.742C130.481 183.337 135.634 181.589 141.805 182.824L141.476 184.469C134.44 183.063 130.62 186.007 128.654 188.726C125.26 193.42 124.887 201.125 127.805 206.268L126.346 207.095Z" fill="white"/>
</svg>
