<?xml version="1.0" encoding="utf-8"?>
<!-- Generator: Adobe Illustrator 27.2.0, SVG Export Plug-In . SVG Version: 6.00 Build 0)  -->
<svg version="1.1" id="Layer_1" xmlns="http://www.w3.org/2000/svg" xmlns:xlink="http://www.w3.org/1999/xlink" x="0px" y="0px"
	 viewBox="0 0 101 39" style="enable-background:new 0 0 101 39;" xml:space="preserve">
<style type="text/css">
	.st0{clip-path:url(#SVGID_00000072256462019243831510000002772855393603525529_);}
	.st1{fill:#333333;}
</style>
<g>
	<defs>
		<rect id="SVGID_1_" x="-0.4" width="101.4" height="39"/>
	</defs>
	<clipPath id="SVGID_00000116223207515781533410000014088895494537386907_">
		<use xlink:href="#SVGID_1_"  style="overflow:visible;"/>
	</clipPath>
	<g style="clip-path:url(#SVGID_00000116223207515781533410000014088895494537386907_);">
		<path class="st1" d="M-67.4,31V10.6h-7.9v-2h18.1v2h-7.9V31H-67.4z M-53.2,10.5c-0.9,0-1.7-0.7-1.7-1.6c0-0.9,0.7-1.6,1.7-1.6
			c0.9,0,1.7,0.7,1.7,1.6C-51.5,9.8-52.2,10.5-53.2,10.5z M-54.3,31V14.2h2.3V31H-54.3z M-43.6,17.5c1.1-2.2,3.2-3.4,6.3-3.4v2.2
			c-0.2,0-0.4,0-0.5,0c-3.5,0-5.7,2.2-5.7,6.2V31h-2.3V14.2h2.2V17.5z M-31.8,29.1H-21V31h-13.7v-1.5l10.6-13.4h-10.4v-1.9h13.3v1.5
			L-31.8,29.1z M-2.1,22.6c0,0.2,0,0.4,0,0.7h-14.1c0.3,3.5,2.9,5.9,6.6,5.9c2,0,3.9-0.7,5.2-2.2l1.3,1.5c-1.5,1.8-3.8,2.8-6.5,2.8
			c-5.2,0-8.8-3.6-8.8-8.6S-15,14-10.3,14S-2.1,17.5-2.1,22.6z M-10.3,16c-3.3,0-5.7,2.3-6,5.6h11.9C-4.6,18.3-7,16-10.3,16z
			 M11.2,14c4.8,0,8.4,3.5,8.4,8.5c0,5.1-3.6,8.6-8.4,8.6c-2.7,0-5-1.2-6.4-3.3v9.4H2.5v-23h2.2v3.3C6,15.3,8.4,14,11.2,14z
			 M11,29.1c3.6,0,6.3-2.6,6.3-6.6c0-3.9-2.7-6.6-6.3-6.6c-3.6,0-6.3,2.7-6.3,6.6C4.7,26.5,7.4,29.1,11,29.1z M30,14
			c4.4,0,6.8,2.2,6.8,6.5V31h-2.2v-2.6c-1,1.7-3,2.8-5.8,2.8c-3.8,0-6.1-2-6.1-4.9c0-2.6,1.7-4.8,6.5-4.8h5.3v-1
			c0-2.9-1.6-4.4-4.8-4.4c-2.2,0-4.2,0.8-5.6,2l-1-1.7C24.8,14.9,27.3,14,30,14z M29.2,29.4c2.6,0,4.4-1.2,5.3-3.4v-2.8h-5.3
			c-3.3,0-4.3,1.3-4.3,3C24.9,28.2,26.5,29.4,29.2,29.4z M51,28.3l0.8,1.6c-0.9,0.8-2.2,1.2-3.6,1.2c-3.2,0-4.9-1.8-4.9-4.9V16.1h-3
			v-1.9h3v-3.7h2.3v3.7h5.1v1.9h-5.1v10c0,2,1,3.1,2.9,3.1C49.4,29.2,50.4,28.9,51,28.3z M57.1,10.5c-0.9,0-1.7-0.7-1.7-1.6
			c0-0.9,0.7-1.6,1.7-1.6c0.9,0,1.7,0.7,1.7,1.6C58.8,9.8,58.1,10.5,57.1,10.5z M56,31V14.2h2.3V31H56z M77.6,7.3h2.3V31h-2.2v-3.3
			c-1.4,2.3-3.7,3.5-6.5,3.5c-4.8,0-8.4-3.5-8.4-8.6s3.6-8.5,8.4-8.5c2.7,0,5,1.2,6.4,3.3V7.3z M71.4,29.1c3.6,0,6.2-2.6,6.2-6.6
			S75,16,71.4,16c-3.6,0-6.3,2.6-6.3,6.6S67.8,29.1,71.4,29.1z M100.9,22.6c0,0.2,0,0.4,0,0.7H86.8c0.3,3.5,2.9,5.9,6.6,5.9
			c2,0,3.9-0.7,5.2-2.2l1.3,1.5c-1.5,1.8-3.8,2.8-6.5,2.8c-5.2,0-8.8-3.6-8.8-8.6S88,14,92.8,14C97.5,14,100.9,17.5,100.9,22.6z
			 M92.8,16c-3.3,0-5.7,2.3-6,5.6h11.9C98.5,18.3,96.1,16,92.8,16z"/>
	</g>
</g>
</svg>
