<svg width="108" height="39" viewBox="0 0 108 39" fill="none" xmlns="http://www.w3.org/2000/svg">
<g clip-path="url(#clip0_13260_83017)">
<path d="M-72.704 31V12.824H-79.872V8.6H-60.352V12.824H-67.52V31H-72.704ZM-55.7937 11.384C-57.6497 11.384 -58.8977 10.168 -58.8977 8.6C-58.8977 7.032 -57.6497 5.816 -55.7937 5.816C-53.9377 5.816 -52.6897 6.968 -52.6897 8.504C-52.6897 10.168 -53.9377 11.384 -55.7937 11.384ZM-58.2897 31V13.784H-53.2977V31H-58.2897ZM-43.8967 16.056C-42.6807 14.392 -40.6327 13.528 -37.9767 13.528V18.136C-38.3927 18.104 -38.7127 18.072 -39.0967 18.072C-41.8487 18.072 -43.6727 19.576 -43.6727 22.872V31H-48.6647V13.784H-43.8967V16.056ZM-29.7635 27.16H-20.7075V31H-36.0675V27.992L-27.2995 17.624H-35.8435V13.784H-20.9955V16.792L-29.7635 27.16ZM-0.863249 22.456C-0.863249 22.84 -0.92725 23.384 -0.959249 23.8H-13.9832C-13.5032 25.944 -11.6792 27.256 -9.05525 27.256C-7.23125 27.256 -5.91925 26.712 -4.73525 25.592L-2.07925 28.472C-3.67925 30.296 -6.07925 31.256 -9.18325 31.256C-15.1352 31.256 -19.0072 27.512 -19.0072 22.392C-19.0072 17.24 -15.0712 13.528 -9.82325 13.528C-4.76725 13.528 -0.863249 16.92 -0.863249 22.456ZM-9.79125 17.304C-12.0632 17.304 -13.6952 18.68 -14.0472 20.888H-5.56725C-5.91925 18.712 -7.55125 17.304 -9.79125 17.304ZM12.6363 13.528C17.4683 13.528 21.2123 16.984 21.2123 22.392C21.2123 27.8 17.4683 31.256 12.6363 31.256C10.4923 31.256 8.73225 30.584 7.45225 29.176V37.208H2.46025V13.784H7.22825V15.768C8.47625 14.264 10.3323 13.528 12.6363 13.528ZM11.7723 27.16C14.2683 27.16 16.1562 25.368 16.1562 22.392C16.1562 19.416 14.2683 17.624 11.7723 17.624C9.27625 17.624 7.38825 19.416 7.38825 22.392C7.38825 25.368 9.27625 27.16 11.7723 27.16ZM31.2168 13.528C36.4648 13.528 39.5048 15.96 39.5048 21.176V31H34.8328V28.856C33.9048 30.424 32.1128 31.256 29.5848 31.256C25.5528 31.256 23.1528 29.016 23.1528 26.04C23.1528 23 25.2968 20.888 30.5448 20.888H34.5128C34.5128 18.744 33.2328 17.496 30.5448 17.496C28.7208 17.496 26.8328 18.104 25.5848 19.096L23.7928 15.608C25.6808 14.264 28.4648 13.528 31.2168 13.528ZM30.8328 27.896C32.4968 27.896 33.9368 27.128 34.5128 25.56V23.8H31.0888C28.7528 23.8 28.0168 24.664 28.0168 25.816C28.0168 27.064 29.0728 27.896 30.8328 27.896ZM53.7828 26.648L55.1268 30.168C54.1028 30.904 52.5988 31.256 51.0628 31.256C46.9988 31.256 44.6308 29.176 44.6308 25.08V18.008H41.9748V14.168H44.6308V9.976H49.6228V14.168H53.9108V18.008H49.6228V25.016C49.6228 26.488 50.4228 27.288 51.7668 27.288C52.5028 27.288 53.2388 27.064 53.7828 26.648ZM60.425 11.384C58.569 11.384 57.321 10.168 57.321 8.6C57.321 7.032 58.569 5.816 60.425 5.816C62.281 5.816 63.529 6.968 63.529 8.504C63.529 10.168 62.281 11.384 60.425 11.384ZM57.929 31V13.784H62.921V31H57.929ZM80.098 7.256H85.09V31H80.322V29.016C79.074 30.52 77.25 31.256 74.946 31.256C70.082 31.256 66.338 27.8 66.338 22.392C66.338 16.984 70.082 13.528 74.946 13.528C77.058 13.528 78.85 14.2 80.098 15.608V7.256ZM75.81 27.16C78.274 27.16 80.194 25.368 80.194 22.392C80.194 19.416 78.274 17.624 75.81 17.624C73.314 17.624 71.394 19.416 71.394 22.392C71.394 25.368 73.314 27.16 75.81 27.16ZM106.574 22.456C106.574 22.84 106.51 23.384 106.478 23.8H93.4543C93.9343 25.944 95.7583 27.256 98.3823 27.256C100.206 27.256 101.518 26.712 102.702 25.592L105.358 28.472C103.758 30.296 101.358 31.256 98.2543 31.256C92.3023 31.256 88.4303 27.512 88.4303 22.392C88.4303 17.24 92.3663 13.528 97.6143 13.528C102.67 13.528 106.574 16.92 106.574 22.456ZM97.6463 17.304C95.3743 17.304 93.7423 18.68 93.3903 20.888H101.87C101.518 18.712 99.8863 17.304 97.6463 17.304Z" fill="#333333"/>
</g>
<defs>
<clipPath id="clip0_13260_83017">
<rect width="108" height="39" fill="white"/>
</clipPath>
</defs>
</svg>
