<svg width="320" height="320" viewBox="0 0 320 320" fill="none" xmlns="http://www.w3.org/2000/svg">
<path d="M309.88 119.209L144.787 6.31365C138.016 1.68644 128.682 3.32954 123.992 9.98301L7.11632 175.907C1.18244 184.329 3.35392 195.86 11.9645 201.666L175.7 312.145C187.071 319.822 202.708 316.58 209.924 305.056L314.042 138.712C318.144 132.155 316.319 123.615 309.88 119.209Z" stroke="#5CB531" stroke-width="6.61453" stroke-miterlimit="10"/>
<path d="M297.066 103.861L259.292 226.939L250.794 254.651L238.956 293.216C237.411 298.256 231.914 301.063 226.795 299.427L223.439 298.359L216.073 296.001L89.3577 255.543L64.1594 247.497L39.7755 239.708C32.2431 237.299 27.5307 230.343 27.8021 222.961C27.8549 221.443 28.1264 219.917 28.6165 218.4L29.6419 215.253L61.8145 116.733L73.1696 81.963L87.322 38.6234C88.9279 33.6941 94.3265 30.9752 99.3707 32.5447L223.108 71.1318L285.214 90.4954L290.801 92.2416C295.785 93.7963 298.574 98.9614 297.066 103.861Z" fill="white" stroke="#333333" stroke-width="3.30727" stroke-miterlimit="10"/>
<path d="M293.443 93.1561C272.331 116.734 274.593 116.734 262.53 116.734H61.2148L72.5247 82.1038C84.7091 78.6997 111.099 76.2092 138.122 76.2092C171.878 76.2092 204.028 73.4167 230.651 71.1326L293.443 93.1561Z" fill="#333333"/>
<path d="M29.6425 215.253L89.3583 255.542L64.16 247.496L27.8027 222.96C27.8555 221.443 28.1269 219.917 28.617 218.4L29.6425 215.253Z" fill="#333333"/>
<path d="M259.295 226.939L250.797 254.651L223.443 298.359L216.076 296.001L259.295 226.939Z" fill="#333333"/>
<path d="M30.8896 142.153L7.11632 175.907C1.18244 184.329 3.35392 195.86 11.9645 201.666L175.7 312.145C187.071 319.822 202.708 316.58 209.924 305.056L278.107 196.133" stroke="#5CB531" stroke-width="6.61453" stroke-miterlimit="10"/>
<path d="M58.2012 129.26C58.2012 129.26 51.5058 122.923 44.8104 117.316C38.115 111.709 40.9877 99.5659 40.9877 66.8659C40.9877 57.523 41.9452 58.4588 101.216 58.4588H297.313C323.002 58.4588 314.497 62.7102 291.5 85.8095C268.511 108.909 267.591 111.569 258.016 111.569C248.44 111.569 87.094 111.569 63.4791 111.569L58.2012 129.252V129.26Z" fill="#5CB531"/>
<path d="M54.4339 116.734C54.4339 116.734 49.156 111.576 52.926 111.576H71.3006" stroke="#333333" stroke-width="1.98436" stroke-miterlimit="10"/>
<path d="M57.8242 129.628C57.8242 129.628 51.5058 122.923 44.8104 117.316C38.115 111.709 40.9877 99.5659 40.9877 66.8659C40.9877 57.523 41.9452 58.4588 101.216 58.4588H297.313C323.002 58.4588 314.497 62.7102 291.5 85.8095C268.511 108.909 267.591 111.569 258.016 111.569H63.1021L57.8242 129.621V129.628Z" stroke="#333333" stroke-width="2.64581" stroke-miterlimit="10"/>
<path d="M48.3984 68.1048C51.4144 65.1576 49.9064 65.8944 125.305 65.8944" stroke="white" stroke-width="1.98436" stroke-miterlimit="10"/>
<path d="M147.191 65.8124H180.54" stroke="white" stroke-width="1.98436" stroke-miterlimit="10"/>
<path d="M201.482 65.8125H218.085" stroke="white" stroke-width="1.98436" stroke-miterlimit="10"/>
<path d="M234.969 65.8125H292.31" stroke="white" stroke-width="1.98436" stroke-miterlimit="10"/>
<path d="M40.7148 108.003C42.3661 115.997 49.906 118.944 52.9219 120.418C55.9379 121.892 59.7907 120.418 58.6145 116.734C57.4383 113.05 53.6759 112.313 52.9219 115.26C52.9219 115.26 49.7099 111.569 53.2009 111.576C56.6918 111.584 63.4777 111.576 63.4777 111.576L57.8228 129.628C57.8228 129.628 47.9984 120.904 44.432 116.977C40.8656 113.05 40.7148 108.003 40.7148 108.003Z" fill="#333333"/>
<path d="M73.375 97.2592V76.6283H82.9657C85.2578 76.6283 87.2785 77.0606 89.0278 77.9251C90.777 78.77 92.1443 79.9587 93.1295 81.4913C94.1147 83.0239 94.6073 84.8414 94.6073 86.9438C94.6073 89.0265 94.1147 90.844 93.1295 92.3962C92.1443 93.9288 90.777 95.1274 89.0278 95.9919C87.2785 96.8368 85.2578 97.2592 82.9657 97.2592H73.375ZM78.2608 93.3394H82.7244C84.1319 93.3394 85.3483 93.0839 86.3738 92.5731C87.4193 92.0426 88.2235 91.2959 88.7865 90.3331C89.3696 89.3704 89.6611 88.2406 89.6611 86.9438C89.6611 85.6273 89.3696 84.4975 88.7865 83.5544C88.2235 82.5916 87.4193 81.8548 86.3738 81.344C85.3483 80.8135 84.1319 80.5482 82.7244 80.5482H78.2608V93.3394Z" fill="#333333"/>
<path d="M98.2919 97.2592V76.6283H103.178V97.2592H98.2919Z" fill="#333333"/>
<path d="M115.125 97.6129C113.436 97.6129 111.817 97.3968 110.269 96.9645C108.721 96.5126 107.474 95.933 106.529 95.2256L108.188 91.6299C109.093 92.2587 110.158 92.7794 111.385 93.192C112.632 93.585 113.888 93.7815 115.155 93.7815C116.12 93.7815 116.894 93.693 117.477 93.5162C118.08 93.3197 118.523 93.0545 118.804 92.7204C119.086 92.3864 119.226 92.0033 119.226 91.571C119.226 91.0208 119.005 90.5886 118.563 90.2742C118.121 89.9402 117.537 89.6749 116.814 89.4784C116.09 89.2623 115.286 89.0658 114.401 88.889C113.536 88.6925 112.662 88.4567 111.777 88.1816C110.912 87.9066 110.118 87.5529 109.394 87.1206C108.671 86.6884 108.077 86.1185 107.615 85.4112C107.173 84.7039 106.951 83.8 106.951 82.6997C106.951 81.5208 107.273 80.45 107.917 79.4872C108.58 78.5048 109.565 77.7286 110.872 77.1588C112.199 76.5694 113.858 76.2747 115.849 76.2747C117.176 76.2747 118.482 76.4318 119.769 76.7462C121.056 77.0409 122.192 77.4929 123.177 78.102L121.669 81.7271C120.684 81.177 119.699 80.7742 118.714 80.5187C117.728 80.2437 116.763 80.1061 115.818 80.1061C114.873 80.1061 114.099 80.2142 113.496 80.4303C112.893 80.6464 112.461 80.9313 112.199 81.285C111.938 81.619 111.807 82.012 111.807 82.4639C111.807 82.9944 112.028 83.4267 112.471 83.7607C112.913 84.0751 113.496 84.3305 114.22 84.527C114.944 84.7235 115.738 84.92 116.603 85.1165C117.487 85.313 118.362 85.5389 119.226 85.7943C120.111 86.0498 120.915 86.3936 121.639 86.8259C122.363 87.2582 122.946 87.828 123.388 88.5353C123.851 89.2427 124.082 90.1367 124.082 91.2173C124.082 92.3766 123.75 93.4376 123.087 94.4004C122.423 95.3632 121.428 96.1393 120.101 96.7287C118.794 97.3182 117.135 97.6129 115.125 97.6129Z" fill="#333333"/>
<path d="M137.524 97.6129C135.895 97.6129 134.377 97.3575 132.97 96.8466C131.583 96.3161 130.376 95.5695 129.351 94.6067C128.325 93.6439 127.521 92.5141 126.938 91.2173C126.375 89.9205 126.094 88.496 126.094 86.9438C126.094 85.3916 126.375 83.967 126.938 82.6702C127.521 81.3734 128.325 80.2436 129.351 79.2809C130.396 78.3181 131.613 77.5813 133 77.0704C134.387 76.5399 135.905 76.2747 137.554 76.2747C139.384 76.2747 141.033 76.589 142.5 77.2178C143.988 77.8269 145.235 78.7307 146.24 79.9293L143.104 82.7587C142.38 81.9531 141.575 81.3538 140.691 80.9608C139.806 80.5482 138.841 80.3419 137.795 80.3419C136.81 80.3419 135.905 80.4991 135.081 80.8135C134.257 81.1278 133.543 81.5797 132.94 82.1692C132.337 82.7587 131.864 83.4562 131.522 84.2618C131.201 85.0674 131.04 85.9614 131.04 86.9438C131.04 87.9262 131.201 88.8202 131.522 89.6258C131.864 90.4314 132.337 91.1289 132.94 91.7184C133.543 92.3078 134.257 92.7597 135.081 93.0741C135.905 93.3885 136.81 93.5457 137.795 93.5457C138.841 93.5457 139.806 93.3492 140.691 92.9562C141.575 92.5436 142.38 91.9247 143.104 91.0994L146.24 93.9288C145.235 95.1274 143.988 96.041 142.5 96.6698C141.033 97.2985 139.374 97.6129 137.524 97.6129Z" fill="#333333"/>
<path d="M159.352 97.6129C157.683 97.6129 156.135 97.3477 154.707 96.8171C153.3 96.2866 152.074 95.54 151.028 94.5772C150.003 93.6144 149.198 92.4847 148.615 91.1879C148.052 89.8911 147.771 88.4764 147.771 86.9438C147.771 85.4112 148.052 83.9965 148.615 82.6997C149.198 81.4029 150.013 80.2731 151.058 79.3103C152.104 78.3476 153.33 77.6009 154.738 77.0704C156.145 76.5399 157.673 76.2747 159.322 76.2747C160.991 76.2747 162.519 76.5399 163.906 77.0704C165.314 77.6009 166.53 78.3476 167.555 79.3103C168.601 80.2731 169.415 81.4029 169.998 82.6997C170.581 83.9769 170.873 85.3916 170.873 86.9438C170.873 88.4764 170.581 89.9009 169.998 91.2173C169.415 92.5141 168.601 93.6439 167.555 94.6067C166.53 95.5498 165.314 96.2866 163.906 96.8171C162.519 97.3477 161.001 97.6129 159.352 97.6129ZM159.322 93.5457C160.267 93.5457 161.131 93.3885 161.916 93.0741C162.72 92.7597 163.424 92.3078 164.027 91.7184C164.63 91.1289 165.092 90.4314 165.414 89.6258C165.756 88.8202 165.927 87.9262 165.927 86.9438C165.927 85.9614 165.756 85.0674 165.414 84.2618C165.092 83.4562 164.63 82.7587 164.027 82.1692C163.444 81.5797 162.75 81.1278 161.946 80.8135C161.141 80.4991 160.267 80.3419 159.322 80.3419C158.377 80.3419 157.502 80.4991 156.698 80.8135C155.914 81.1278 155.22 81.5797 154.617 82.1692C154.014 82.7587 153.541 83.4562 153.199 84.2618C152.878 85.0674 152.717 85.9614 152.717 86.9438C152.717 87.9066 152.878 88.8006 153.199 89.6258C153.541 90.4314 154.004 91.1289 154.587 91.7184C155.19 92.3078 155.894 92.7597 156.698 93.0741C157.502 93.3885 158.377 93.5457 159.322 93.5457Z" fill="#333333"/>
<path d="M183.924 97.6129C180.929 97.6129 178.586 96.7975 176.897 95.1667C175.208 93.5358 174.364 91.2075 174.364 88.1816V76.6283H179.25V88.0048C179.25 89.9696 179.662 91.3843 180.486 92.2489C181.311 93.1134 182.467 93.5457 183.955 93.5457C185.442 93.5457 186.599 93.1134 187.423 92.2489C188.247 91.3843 188.66 89.9696 188.66 88.0048V76.6283H193.485V88.1816C193.485 91.2075 192.641 93.5358 190.952 95.1667C189.263 96.7975 186.92 97.6129 183.924 97.6129Z" fill="#333333"/>
<path d="M198.313 97.2592V76.6283H202.355L214.81 91.4826H212.85V76.6283H217.676V97.2592H213.664L201.178 82.405H203.139V97.2592H198.313Z" fill="#333333"/>
<path d="M227.044 97.2592V80.5187H220.288V76.6283H238.685V80.5187H231.929V97.2592H227.044Z" fill="#333333"/>
<path d="M130.715 217.471C126.437 217.471 122.246 216.878 118.142 215.692C114.095 214.449 110.685 212.755 107.91 210.608L112.766 202.05C114.962 203.801 117.622 205.213 120.743 206.287C123.865 207.36 127.131 207.897 130.541 207.897C134.588 207.897 137.738 207.106 139.992 205.524C142.247 203.886 143.374 201.683 143.374 198.915C143.374 196.203 142.333 194.057 140.252 192.475C138.171 190.893 134.819 190.102 130.194 190.102H124.645V182.561L141.987 162.394L143.461 166.546H110.858V157.31H152.218V164.682L134.877 184.849L128.98 181.46H132.362C139.819 181.46 145.397 183.098 149.097 186.374C152.854 189.594 154.733 193.746 154.733 198.83C154.733 202.163 153.866 205.242 152.132 208.066C150.397 210.89 147.738 213.178 144.154 214.929C140.628 216.624 136.148 217.471 130.715 217.471Z" fill="#333333"/>
<path d="M169.756 216.624L211.203 157.31H219.701L178.254 216.624H169.756ZM174.786 189.255C171.953 189.255 169.438 188.577 167.242 187.221C165.045 185.866 163.34 183.973 162.126 181.544C160.912 179.115 160.305 176.262 160.305 172.986C160.305 169.71 160.912 166.857 162.126 164.428C163.34 161.999 165.045 160.107 167.242 158.751C169.438 157.395 171.953 156.717 174.786 156.717C177.734 156.717 180.277 157.395 182.416 158.751C184.613 160.107 186.318 161.999 187.532 164.428C188.746 166.857 189.353 169.71 189.353 172.986C189.353 176.262 188.746 179.115 187.532 181.544C186.318 183.973 184.613 185.866 182.416 187.221C180.277 188.577 177.734 189.255 174.786 189.255ZM174.872 183.324C177.184 183.324 178.976 182.448 180.248 180.697C181.578 178.889 182.242 176.319 182.242 172.986C182.242 169.653 181.578 167.111 180.248 165.36C178.976 163.552 177.184 162.649 174.872 162.649C172.56 162.649 170.71 163.552 169.323 165.36C167.993 167.168 167.329 169.71 167.329 172.986C167.329 176.262 167.993 178.805 169.323 180.612C170.71 182.42 172.56 183.324 174.872 183.324ZM214.585 217.217C211.752 217.217 209.238 216.539 207.041 215.184C204.845 213.828 203.139 211.936 201.925 209.506C200.711 207.077 200.104 204.225 200.104 200.948C200.104 197.672 200.711 194.819 201.925 192.39C203.139 189.961 204.845 188.069 207.041 186.713C209.238 185.357 211.752 184.679 214.585 184.679C217.533 184.679 220.076 185.357 222.215 186.713C224.412 188.069 226.117 189.961 227.331 192.39C228.545 194.819 229.152 197.672 229.152 200.948C229.152 204.225 228.545 207.077 227.331 209.506C226.117 211.936 224.412 213.828 222.215 215.184C220.076 216.539 217.533 217.217 214.585 217.217ZM214.585 211.286C216.897 211.286 218.718 210.382 220.047 208.574C221.377 206.767 222.042 204.225 222.042 200.948C222.042 197.672 221.377 195.13 220.047 193.322C218.718 191.515 216.897 190.611 214.585 190.611C212.33 190.611 210.509 191.515 209.122 193.322C207.793 195.073 207.128 197.615 207.128 200.948C207.128 204.281 207.793 206.851 209.122 208.659C210.509 210.41 212.33 211.286 214.585 211.286Z" fill="#333333"/>
</svg>
