<svg width="325" height="325" viewBox="0 0 325 325" fill="none" xmlns="http://www.w3.org/2000/svg">
<path d="M314.242 120.855L146.798 6.35195C139.93 1.65882 130.463 3.32533 125.706 10.0736L7.16592 178.361C1.14751 186.903 3.34993 198.598 12.0831 204.487L178.151 316.539C189.684 324.326 205.544 321.038 212.862 309.35L318.464 140.637C322.624 133.986 320.773 125.324 314.242 120.855Z" stroke="#5CB531" stroke-width="6.6945" stroke-miterlimit="10"/>
<path d="M301.246 105.289L262.933 230.12L254.314 258.226L242.308 297.341C240.74 302.452 235.166 305.3 229.973 303.641L226.57 302.557L219.099 300.166L90.5785 259.131L65.0212 250.97L40.2899 243.071C32.6503 240.627 27.8708 233.572 28.1461 226.084C28.1996 224.545 28.4749 222.998 28.972 221.459L30.012 218.268L62.6429 118.344L74.1597 83.0785L88.5137 39.1215C90.1426 34.122 95.618 31.3644 100.734 32.9561L226.234 72.093L289.224 91.7324L294.891 93.5035C299.946 95.0803 302.775 100.319 301.246 105.289Z" fill="white" stroke="#333333" stroke-width="3.34725" stroke-miterlimit="10"/>
<path d="M297.573 94.4303C276.161 118.344 278.455 118.344 266.22 118.344H62.0371L73.508 83.2206C85.866 79.7681 112.632 77.2421 140.039 77.2421C174.276 77.2421 206.884 74.4098 233.887 72.0931L297.573 94.4303Z" fill="#333333"/>
<path d="M30.0144 218.268L90.5808 259.131L65.0236 250.971L28.1484 226.085C28.202 224.546 28.4773 222.999 28.9743 221.459L30.0144 218.268Z" fill="#333333"/>
<path d="M262.936 230.12L254.317 258.227L226.573 302.557L219.102 300.166L262.936 230.12Z" fill="#333333"/>
<path d="M31.2778 144.128L7.16592 178.362C1.14751 186.904 3.34993 198.599 12.0831 204.488L178.151 316.54C189.684 324.327 205.544 321.039 212.863 309.351L282.017 198.876" stroke="#5CB531" stroke-width="6.6945" stroke-miterlimit="10"/>
<path d="M58.9747 131.049C58.9747 131.049 52.1839 124.622 45.3931 118.935C38.6023 113.248 41.5159 100.932 41.5159 67.7662C41.5159 58.2902 42.4871 59.2393 102.602 59.2393H301.493C327.547 59.2393 318.921 63.5513 295.597 86.9796C272.28 110.408 271.347 113.106 261.635 113.106C251.923 113.106 88.2791 113.106 64.3278 113.106L58.9747 131.041V131.049Z" fill="#5CB531"/>
<path d="M55.1525 118.345C55.1525 118.345 49.7994 113.114 53.623 113.114H72.2595" stroke="#333333" stroke-width="2.00835" stroke-miterlimit="10"/>
<path d="M58.5923 131.422C58.5923 131.422 52.1839 124.622 45.3931 118.935C38.6023 113.248 41.5159 100.932 41.5159 67.7662C41.5159 58.2902 42.4871 59.2393 102.602 59.2393H301.493C327.547 59.2393 318.921 63.5513 295.597 86.9796C272.28 110.408 271.347 113.106 261.635 113.106H63.9454L58.5923 131.415V131.422Z" stroke="#333333" stroke-width="2.6778" stroke-miterlimit="10"/>
<path d="M49.0332 69.0213C52.0921 66.032 50.5627 66.7793 127.035 66.7793" stroke="white" stroke-width="2.00835" stroke-miterlimit="10"/>
<path d="M149.234 66.6971H183.058" stroke="white" stroke-width="2.00835" stroke-miterlimit="10"/>
<path d="M204.297 66.697H221.136" stroke="white" stroke-width="2.00835" stroke-miterlimit="10"/>
<path d="M238.27 66.6973H296.427" stroke="white" stroke-width="2.00835" stroke-miterlimit="10"/>
<path d="M41.2422 109.488C42.9169 117.597 50.5642 120.586 53.6231 122.081C56.682 123.575 60.5898 122.081 59.3968 118.344C58.2039 114.607 54.3879 113.86 53.6231 116.849C53.6231 116.849 50.3654 113.105 53.9061 113.113C57.4468 113.12 64.3293 113.113 64.3293 113.113L58.5939 131.422C58.5939 131.422 48.6295 122.574 45.0123 118.591C41.3951 114.607 41.2422 109.488 41.2422 109.488Z" fill="#333333"/>
<path d="M74.373 98.5937V77.6689H84.1004C86.4252 77.6689 88.4746 78.1073 90.2488 78.9842C92.023 79.8411 93.4097 81.0467 94.4089 82.6012C95.4082 84.1556 95.9078 85.9989 95.9078 88.1313C95.9078 90.2437 95.4082 92.0871 94.4089 93.6614C93.4097 95.2158 92.023 96.4314 90.2488 97.3083C88.4746 98.1652 86.4252 98.5937 84.1004 98.5937H74.373ZM79.3285 94.618H83.8557C85.2832 94.618 86.5169 94.3589 87.557 93.8408C88.6174 93.3027 89.4331 92.5454 90.0041 91.5689C90.5955 90.5924 90.8912 89.4466 90.8912 88.1313C90.8912 86.7961 90.5955 85.6502 90.0041 84.6936C89.4331 83.7171 88.6174 82.9698 87.557 82.4517C86.5169 81.9136 85.2832 81.6446 83.8557 81.6446H79.3285V94.618Z" fill="#333333"/>
<path d="M99.6449 98.5937V77.6689H104.6V98.5937H99.6449Z" fill="#333333"/>
<path d="M116.717 98.9524C115.004 98.9524 113.363 98.7332 111.793 98.2947C110.222 97.8364 108.958 97.2485 108 96.5311L109.682 92.8842C110.6 93.5219 111.68 94.05 112.924 94.4685C114.189 94.8671 115.463 95.0664 116.748 95.0664C117.727 95.0664 118.512 94.9767 119.103 94.7973C119.715 94.598 120.164 94.329 120.449 93.9902C120.735 93.6514 120.878 93.2628 120.878 92.8244C120.878 92.2664 120.653 91.828 120.205 91.5091C119.756 91.1704 119.165 90.9013 118.43 90.702C117.696 90.4828 116.881 90.2835 115.983 90.1042C115.106 89.9049 114.219 89.6658 113.322 89.3868C112.445 89.1078 111.64 88.7491 110.906 88.3106C110.171 87.8722 109.57 87.2943 109.101 86.5769C108.652 85.8594 108.428 84.9427 108.428 83.8268C108.428 82.6311 108.754 81.545 109.407 80.5685C110.08 79.572 111.079 78.7849 112.404 78.207C113.75 77.6091 115.433 77.3102 117.452 77.3102C118.798 77.3102 120.123 77.4696 121.428 77.7885C122.733 78.0874 123.886 78.5457 124.885 79.1635L123.355 82.8403C122.356 82.2823 121.357 81.8738 120.358 81.6147C119.358 81.3357 118.379 81.1962 117.421 81.1962C116.463 81.1962 115.677 81.3058 115.066 81.525C114.454 81.7442 114.015 82.0332 113.75 82.3919C113.485 82.7307 113.353 83.1293 113.353 83.5876C113.353 84.1257 113.577 84.5641 114.026 84.9029C114.474 85.2217 115.066 85.4808 115.8 85.6801C116.534 85.8794 117.339 86.0787 118.216 86.2779C119.114 86.4772 120.001 86.7064 120.878 86.9655C121.775 87.2245 122.591 87.5733 123.325 88.0117C124.059 88.4501 124.65 89.0281 125.099 89.7455C125.568 90.4629 125.802 91.3696 125.802 92.4657C125.802 93.6415 125.466 94.7176 124.793 95.6941C124.12 96.6706 123.111 97.4578 121.765 98.0556C120.439 98.6535 118.757 98.9524 116.717 98.9524Z" fill="#333333"/>
<path d="M139.436 98.9524C137.784 98.9524 136.244 98.6933 134.817 98.1752C133.41 97.6371 132.186 96.8798 131.146 95.9033C130.106 94.9269 129.29 93.781 128.699 92.4657C128.128 91.1504 127.843 89.7056 127.843 88.1313C127.843 86.5569 128.128 85.1121 128.699 83.7969C129.29 82.4816 130.106 81.3357 131.146 80.3592C132.207 79.3827 133.44 78.6354 134.848 78.1173C136.255 77.5792 137.794 77.3102 139.466 77.3102C141.322 77.3102 142.994 77.629 144.483 78.2667C145.992 78.8845 147.256 79.8012 148.276 81.0169L145.095 83.8865C144.361 83.0695 143.545 82.4617 142.648 82.0631C141.75 81.6446 140.772 81.4354 139.711 81.4354C138.712 81.4354 137.794 81.5948 136.958 81.9136C136.122 82.2325 135.398 82.6908 134.786 83.2887C134.175 83.8865 133.695 84.594 133.349 85.4111C133.022 86.2281 132.859 87.1349 132.859 88.1313C132.859 89.1277 133.022 90.0344 133.349 90.8515C133.695 91.6686 134.175 92.376 134.786 92.9739C135.398 93.5717 136.122 94.0301 136.958 94.3489C137.794 94.6678 138.712 94.8272 139.711 94.8272C140.772 94.8272 141.75 94.6279 142.648 94.2294C143.545 93.8109 144.361 93.1831 145.095 92.3461L148.276 95.2158C147.256 96.4314 145.992 97.3581 144.483 97.9958C142.994 98.6335 141.312 98.9524 139.436 98.9524Z" fill="#333333"/>
<path d="M161.575 98.9524C159.882 98.9524 158.312 98.6834 156.864 98.1453C155.437 97.6072 154.193 96.8499 153.132 95.8735C152.092 94.897 151.276 93.7511 150.685 92.4358C150.114 91.1205 149.829 89.6857 149.829 88.1313C149.829 86.5769 150.114 85.142 150.685 83.8268C151.276 82.5115 152.102 81.3656 153.163 80.3891C154.223 79.4126 155.467 78.6553 156.895 78.1173C158.322 77.5792 159.872 77.3102 161.544 77.3102C163.237 77.3102 164.787 77.5792 166.194 78.1173C167.621 78.6553 168.855 79.4126 169.895 80.3891C170.955 81.3656 171.781 82.5115 172.373 83.8268C172.964 85.1221 173.26 86.5569 173.26 88.1313C173.26 89.6857 172.964 91.1305 172.373 92.4657C171.781 93.781 170.955 94.9269 169.895 95.9033C168.855 96.8599 167.621 97.6072 166.194 98.1453C164.787 98.6834 163.247 98.9524 161.575 98.9524ZM161.544 94.8272C162.503 94.8272 163.38 94.6678 164.175 94.3489C164.991 94.0301 165.704 93.5717 166.316 92.9739C166.928 92.376 167.397 91.6686 167.723 90.8515C168.07 90.0344 168.243 89.1277 168.243 88.1313C168.243 87.1349 168.07 86.2281 167.723 85.4111C167.397 84.594 166.928 83.8865 166.316 83.2887C165.725 82.6908 165.021 82.2325 164.205 81.9136C163.39 81.5948 162.503 81.4354 161.544 81.4354C160.586 81.4354 159.699 81.5948 158.883 81.9136C158.088 82.2325 157.384 82.6908 156.772 83.2887C156.16 83.8865 155.681 84.594 155.335 85.4111C155.008 86.2281 154.845 87.1349 154.845 88.1313C154.845 89.1078 155.008 90.0145 155.335 90.8515C155.681 91.6686 156.15 92.376 156.742 92.9739C157.353 93.5717 158.067 94.0301 158.883 94.3489C159.699 94.6678 160.586 94.8272 161.544 94.8272Z" fill="#333333"/>
<path d="M186.497 98.9524C183.459 98.9524 181.083 98.1254 179.37 96.4713C177.657 94.8172 176.8 92.4557 176.8 89.3868V77.6689H181.756V89.2074C181.756 91.2003 182.174 92.6351 183.01 93.5119C183.846 94.3888 185.019 94.8272 186.528 94.8272C188.037 94.8272 189.209 94.3888 190.046 93.5119C190.882 92.6351 191.3 91.2003 191.3 89.2074V77.6689H196.194V89.3868C196.194 92.4557 195.338 94.8172 193.625 96.4713C191.912 98.1254 189.536 98.9524 186.497 98.9524Z" fill="#333333"/>
<path d="M201.091 98.5937V77.6689H205.19L217.823 92.7347H215.835V77.6689H220.729V98.5937H216.661L203.997 83.5278H205.985V98.5937H201.091Z" fill="#333333"/>
<path d="M230.231 98.5937V81.6147H223.379V77.6689H242.038V81.6147H235.186V98.5937H230.231Z" fill="#333333"/>
<path d="M130.514 220.517C126.175 220.517 121.925 219.916 117.762 218.713C113.658 217.452 110.199 215.733 107.385 213.556L112.222 204.876C114.45 206.652 117.147 208.085 120.312 209.173C123.537 210.262 126.879 210.806 130.338 210.806C134.383 210.806 137.549 209.975 139.836 208.314C142.181 206.652 143.354 204.418 143.354 201.61C143.354 199.72 142.855 198.058 141.859 196.626C140.921 195.193 139.22 194.105 136.758 193.36C134.354 192.615 131.042 192.243 126.82 192.243H111.958L115.124 159.499H151.269V168.867H119.345L125.325 163.539L122.951 188.032L116.971 182.789H129.371C135.468 182.789 140.364 183.591 144.057 185.196C147.81 186.743 150.536 188.92 152.236 191.727C153.995 194.477 154.874 197.628 154.874 201.181C154.874 204.676 153.995 207.884 152.236 210.806C150.477 213.728 147.78 216.077 144.145 217.853C140.569 219.629 136.025 220.517 130.514 220.517Z" fill="#333333"/>
<path d="M169.228 219.658L211.266 159.499H219.884L177.847 219.658H169.228ZM174.329 191.899C171.456 191.899 168.906 191.212 166.678 189.836C164.45 188.461 162.721 186.542 161.489 184.078C160.258 181.615 159.643 178.721 159.643 175.398C159.643 172.075 160.258 169.182 161.489 166.718C162.721 164.255 164.45 162.335 166.678 160.96C168.906 159.585 171.456 158.898 174.329 158.898C177.319 158.898 179.899 159.585 182.068 160.96C184.296 162.335 186.026 164.255 187.257 166.718C188.488 169.182 189.104 172.075 189.104 175.398C189.104 178.721 188.488 181.615 187.257 184.078C186.026 186.542 184.296 188.461 182.068 189.836C179.899 191.212 177.319 191.899 174.329 191.899ZM174.417 185.883C176.762 185.883 178.58 184.995 179.87 183.219C181.218 181.386 181.892 178.779 181.892 175.398C181.892 172.018 181.218 169.44 179.87 167.664C178.58 165.83 176.762 164.914 174.417 164.914C172.072 164.914 170.196 165.83 168.789 167.664C167.44 169.497 166.766 172.075 166.766 175.398C166.766 178.721 167.44 181.3 168.789 183.133C170.196 184.966 172.072 185.883 174.417 185.883ZM214.695 220.26C211.823 220.26 209.272 219.572 207.044 218.197C204.816 216.822 203.087 214.903 201.856 212.439C200.624 209.975 200.009 207.082 200.009 203.759C200.009 200.436 200.624 197.543 201.856 195.079C203.087 192.615 204.816 190.696 207.044 189.321C209.272 187.946 211.823 187.258 214.695 187.258C217.685 187.258 220.265 187.946 222.434 189.321C224.662 190.696 226.392 192.615 227.623 195.079C228.854 197.543 229.47 200.436 229.47 203.759C229.47 207.082 228.854 209.975 227.623 212.439C226.392 214.903 224.662 216.822 222.434 218.197C220.265 219.572 217.685 220.26 214.695 220.26ZM214.695 214.244C217.041 214.244 218.887 213.327 220.236 211.494C221.584 209.66 222.259 207.082 222.259 203.759C222.259 200.436 221.584 197.858 220.236 196.024C218.887 194.191 217.041 193.274 214.695 193.274C212.409 193.274 210.562 194.191 209.155 196.024C207.806 197.8 207.132 200.379 207.132 203.759C207.132 207.139 207.806 209.746 209.155 211.58C210.562 213.356 212.409 214.244 214.695 214.244Z" fill="#333333"/>
</svg>
