<svg width="52" height="52" viewBox="0 0 52 52" fill="none" xmlns="http://www.w3.org/2000/svg">
<rect width="52" height="52" rx="12" fill="#9DCCFA"/>
<path d="M23.4164 16.3984C23.1968 16.3984 22.9843 16.4768 22.8174 16.6195C22.6504 16.7621 22.5398 16.9597 22.5055 17.1767L20.9915 26.7767L19.6005 35.5979L19.5996 35.6053L19.6013 35.5979L20.9923 26.7767C21.063 26.3283 21.4491 25.9984 21.9028 25.9984H26.3381C30.8018 25.9984 34.5904 22.7418 35.2823 18.3289C35.335 17.9936 35.3633 17.6615 35.3696 17.3337V17.3332H35.3691C34.2348 16.7381 32.9027 16.3984 31.4431 16.3984H23.4164Z" fill="#001C64"/>
<path d="M35.3702 17.3359C35.3639 17.6637 35.3354 17.9961 35.2828 18.3314C34.5909 22.7444 30.8023 26.001 26.3386 26.001H21.9033C21.4496 26.001 21.0636 26.3309 20.9928 26.7792L19.6018 35.6005L18.7288 41.1349C18.712 41.2418 18.7186 41.351 18.748 41.4552C18.7775 41.5593 18.8291 41.6558 18.8994 41.7381C18.9698 41.8203 19.0571 41.8864 19.1553 41.9317C19.2536 41.977 19.3606 42.0004 19.4688 42.0005H24.2831C24.5027 42.0005 24.7151 41.9221 24.8821 41.7794C25.0491 41.6367 25.1597 41.4392 25.194 41.2222L26.4622 33.1792C26.5333 32.7309 26.9195 32.4005 27.3732 32.4005H30.208C34.6717 32.4005 38.4598 29.144 39.1517 24.7314C39.6429 21.5987 38.0664 18.749 35.3702 17.3359Z" fill="#0070E0"/>
<path d="M17.9468 10C17.7271 10 17.5146 10.0785 17.3476 10.2212C17.1806 10.364 17.0701 10.5617 17.0359 10.7788L13.2582 34.7339C13.2413 34.8408 13.2478 34.9502 13.2772 35.0544C13.3066 35.1586 13.3583 35.2551 13.4286 35.3374C13.4989 35.4198 13.5863 35.4859 13.6846 35.5312C13.7829 35.5765 13.8899 35.6 13.9982 35.6H19.6004L20.9915 26.7787L22.5054 17.1787C22.5397 16.9618 22.6503 16.7642 22.8173 16.6215C22.9843 16.4789 23.1968 16.4005 23.4164 16.4005H31.4428C32.9027 16.4005 34.2347 16.7407 35.3693 17.335C35.4465 13.3174 32.1315 10 27.573 10H17.9468Z" fill="#003087"/>
</svg>
