<svg width="423" height="412" viewBox="0 0 423 412" fill="none" xmlns="http://www.w3.org/2000/svg">
<path d="M307.351 96.2101V110.275C307.351 119.038 305.511 120.419 295.706 128.951C283.679 139.42 280.573 143.016 280.573 161.675L280.325 330.564C280.317 336.662 285.578 341.61 292.08 341.61H409.686C416.188 341.61 421.462 336.666 421.47 330.564C421.47 322.87 421.949 175.045 421.949 161.001C421.949 142.342 418.364 139.416 406.337 128.951C396.532 120.419 394.692 119.034 394.692 110.275C394.692 103.819 394.692 96.2101 394.692 96.2101H307.351Z" fill="#DCF0FF"/>
<path d="M421.718 154.777L421.47 330.568C421.462 336.67 416.188 341.614 409.686 341.614H292.08C285.578 341.614 280.317 336.67 280.325 330.568L280.342 318.145C280.325 330.648 281.51 334.678 312.029 334.678H399.125C415.507 334.678 412.363 332.888 412.401 307.382L412.615 154.782C412.615 144.637 410.38 139.251 397.411 129.722C384.442 120.192 385.825 115.118 385.825 108.662C385.825 102.207 385.825 101.284 368.796 101.284H307.356V95.751H394.978V113.783C394.978 122.041 408.926 129.263 416.246 138.384C421.264 144.633 421.722 149.248 421.722 154.782" fill="#3D9BE9"/>
<path d="M288.923 84.9371L288.944 69.4614H412.976L412.955 84.9623C412.947 91.1736 407.744 96.2101 401.331 96.2101H300.547C294.121 96.2101 288.914 91.161 288.923 84.9371Z" fill="#3D9BE9"/>
<path d="M414.049 43.3949H289.323C287.222 43.3949 285.507 45.3109 285.507 47.6691L285.486 64.5302C285.486 66.8884 287.188 68.8044 289.294 68.8044H414.015C416.117 68.8044 417.831 66.8884 417.831 64.5302L417.852 47.6691C417.852 45.3109 416.15 43.3949 414.045 43.3949H414.049Z" fill="white"/>
<path d="M417.855 47.6692L417.834 64.5303C417.834 66.8885 416.119 68.8045 414.018 68.8045H289.297C287.195 68.8045 285.485 66.8885 285.489 64.5303V59.6075C285.662 64.3829 288.553 63.9786 328.775 63.9786H402.331C411.719 63.9786 411.505 64.9935 411.518 53.3078C411.526 44.6709 408.568 43.3992 408.568 43.3992H414.048C416.149 43.3992 417.859 45.3152 417.855 47.6734V47.6692Z" fill="#3D9BE9"/>
<path d="M421.116 164.926H280.749V307.003H421.112V164.926H421.116Z" fill="white"/>
<path d="M421.118 164.926H412.516L412.268 306.771H421.114V164.926H421.118Z" fill="#3D9BE9"/>
<path d="M421.26 164.926H280.889V215.194H421.26V164.926Z" fill="#3D9BE9"/>
<path d="M421.118 164.926V215.194H412.428L412.516 164.926H421.118Z" fill="#333333"/>
<path d="M409.686 342.666H292.079C288.562 342.666 285.158 341.281 282.75 338.86C280.506 336.607 279.27 333.663 279.274 330.568L279.522 161.679C279.522 142.498 282.989 138.628 295.017 128.159L295.715 127.553C304.889 119.573 306.301 118.347 306.301 110.279V95.1614H395.742V110.279C395.742 118.347 397.154 119.577 406.328 127.553L407.396 128.483C419.07 138.641 423 142.06 423 161.01C423 169.087 422.844 220.461 422.705 265.793C422.605 298.8 422.521 327.304 422.521 330.572C422.512 337.243 416.755 342.671 409.686 342.671V342.666ZM308.402 97.2627V110.275C308.402 119.303 306.229 121.194 297.093 129.14L296.395 129.747C284.687 139.938 281.624 143.357 281.624 161.675L281.376 330.568C281.376 333.099 282.388 335.516 284.238 337.369C286.255 339.394 289.117 340.557 292.079 340.557H409.686C415.595 340.557 420.411 336.072 420.419 330.564C420.419 327.292 420.507 298.787 420.604 265.777C420.743 220.449 420.898 169.07 420.898 160.997C420.898 143.012 417.746 140.266 406.017 130.063L404.95 129.136C395.814 121.19 393.641 119.299 393.641 110.271V97.2585H308.402V97.2627Z" fill="#333333"/>
<path d="M422.163 308.056H279.694V163.642H422.167V308.056H422.163ZM281.796 305.95H420.062V165.747H281.8V305.95H281.796Z" fill="#333333"/>
<path d="M401.327 97.2627H300.547C297.084 97.2627 293.848 95.9321 291.44 93.5149C289.137 91.203 287.868 88.1542 287.872 84.937L287.893 68.4675H414.027L414.006 84.9665C413.997 91.7463 408.311 97.2627 401.331 97.2627H401.327ZM289.99 70.5731L289.973 84.937C289.973 87.5942 291.02 90.1124 292.928 92.0242C294.941 94.0413 297.647 95.1572 300.547 95.1572H401.327C407.151 95.1572 411.892 90.584 411.9 84.9622L411.917 70.5731H289.986H289.99Z" fill="#333333"/>
<path d="M414.018 69.853H289.297C288.078 69.853 286.914 69.356 286.014 68.4591C285.01 67.4526 284.434 66.0167 284.438 64.526L284.46 47.6649C284.46 44.7298 286.645 42.3379 289.326 42.3379H414.052C415.27 42.3379 416.435 42.8348 417.334 43.7318C418.338 44.7382 418.914 46.1742 418.91 47.6649L418.889 64.526C418.889 67.4611 416.703 69.853 414.022 69.853H414.018ZM289.322 44.4476C287.8 44.4476 286.557 45.892 286.557 47.6691L286.536 64.5302C286.536 65.465 286.884 66.3578 287.498 66.9726C287.998 67.4737 288.637 67.7516 289.292 67.7516H414.014C415.535 67.7516 416.779 66.3072 416.779 64.5302L416.8 47.6691C416.8 46.7342 416.451 45.8415 415.838 45.2267C415.338 44.7256 414.699 44.4476 414.043 44.4476H289.318H289.322Z" fill="#333333"/>
<path d="M422.684 216.112H279.698V163.642H422.684V216.112ZM281.799 214.006H420.583V165.747H281.799V214.006Z" fill="#333333"/>
<path d="M346.992 179.252C346.992 182.385 344.987 184.335 341.793 184.335H339.381V188.213H336.607V174.148H341.793C344.991 174.148 346.992 176.102 346.992 179.252ZM344.184 179.252C344.184 177.702 343.331 176.801 341.634 176.801H339.377V181.682H341.634C343.331 181.69 344.184 180.785 344.184 179.252Z" fill="white"/>
<path d="M358.23 185.607V188.222H348.959V174.152H358.007V176.768H351.712V179.825H357.271V182.356H351.712V185.611H358.23V185.607Z" fill="white"/>
<path d="M370.818 179.252C370.818 182.385 368.813 184.335 365.619 184.335H363.207V188.213H360.434V174.148H365.619C368.818 174.148 370.818 176.102 370.818 179.252ZM368.011 179.252C368.011 177.702 367.158 176.801 365.46 176.801H363.203V181.682H365.46C367.158 181.69 368.011 180.785 368.011 179.252Z" fill="white"/>
<path d="M374.948 176.801H371.119V174.148H381.558V176.801H377.73V188.222H374.956V176.801H374.948Z" fill="white"/>
<path d="M383.033 174.148H385.807V188.217H383.033V174.148Z" fill="white"/>
<path d="M388.643 174.148H394.085C398.006 174.148 400.687 176.923 400.687 181.185C400.687 185.447 397.997 188.222 394.085 188.222H388.643V174.153V174.148ZM393.946 185.543C396.329 185.543 397.88 183.872 397.88 181.181C397.88 178.49 396.321 176.818 393.946 176.818H391.416V185.539H393.946V185.543Z" fill="white"/>
<path d="M412.05 185.607V188.222H402.779V174.152H411.827V176.768H405.532V179.825H411.092V182.356H405.532V185.611H412.05V185.607Z" fill="white"/>
<path d="M336.604 205.419L337.091 204.245C337.932 205.251 339.436 206.001 340.983 206.001C343.193 206.001 344.151 204.868 344.151 203.44C344.151 199.473 336.893 201.912 336.893 196.568C336.893 194.441 338.242 192.609 341.243 192.609C342.571 192.609 343.954 193.081 344.899 193.894L344.475 195.115C343.466 194.311 342.285 193.919 341.243 193.919C339.083 193.919 338.129 195.094 338.129 196.538C338.129 200.505 345.387 198.105 345.387 203.373C345.387 205.499 344.004 207.319 340.995 207.319C339.222 207.302 337.482 206.54 336.608 205.424L336.604 205.419Z" fill="white"/>
<path d="M357.949 192.719V207.171H356.718V200.505H349.338V207.171H348.09V192.719H349.338V199.158H356.718V192.719H357.949Z" fill="white"/>
<path d="M360.742 199.945C360.742 195.734 363.369 192.593 366.941 192.593C370.513 192.593 373.119 195.709 373.119 199.945C373.119 204.181 370.471 207.298 366.941 207.298C363.411 207.298 360.742 204.156 360.742 199.945ZM371.875 199.945C371.875 196.496 369.769 193.961 366.941 193.961C364.113 193.961 361.969 196.505 361.969 199.945C361.969 203.386 364.087 205.929 366.941 205.929C369.794 205.929 371.875 203.394 371.875 199.945Z" fill="white"/>
<path d="M385.151 197.68C385.151 200.758 383.331 202.615 380.335 202.615H377.166V207.18H375.918V192.719H380.331C383.323 192.719 385.147 194.576 385.147 197.68H385.151ZM383.898 197.68C383.898 195.364 382.65 194.041 380.297 194.041H377.162V201.268H380.297C382.655 201.268 383.898 199.945 383.898 197.68Z" fill="white"/>
<path d="M313.171 189.338C313.171 193.027 310.183 196.016 306.501 196.016C305.384 196.016 304.283 195.734 303.303 195.195C302.694 194.863 302.143 194.433 301.664 193.928C299.139 191.245 299.261 187.022 301.933 184.491C302.022 184.406 302.11 184.326 302.202 184.246C302.711 183.809 303.287 183.446 303.904 183.181C306.804 181.956 310.162 182.924 311.965 185.51C312.477 186.247 312.839 187.08 313.024 187.961C313.12 188.415 313.167 188.874 313.167 189.338H313.171Z" fill="white"/>
<path d="M299.652 199.709C299.19 199.17 298.61 198.741 297.958 198.459L297.933 198.45C295.554 197.431 292.802 198.53 291.785 200.914C290.768 203.297 291.865 206.055 294.243 207.075C296.622 208.094 299.374 206.995 300.391 204.611C301.093 202.969 300.807 201.074 299.648 199.718L299.652 199.709Z" fill="white"/>
<path d="M300.745 172.86C299.362 171.478 297.122 171.478 295.744 172.86C294.365 174.245 294.365 176.49 295.744 177.871C297.126 179.252 299.362 179.252 300.745 177.871L300.753 177.862C302.127 176.477 302.123 174.237 300.745 172.855V172.86Z" fill="white"/>
<path d="M326.414 178.949C324.354 176.89 321.022 176.89 318.963 178.949C317.807 180.107 317.256 181.732 317.462 183.354C317.462 183.354 317.462 183.391 317.467 183.413C317.584 184.255 317.904 185.055 318.395 185.741C318.408 185.758 318.421 185.775 318.433 185.796C318.593 186.011 318.765 186.217 318.954 186.407C321.013 188.47 324.35 188.47 326.405 186.407C328.464 184.343 328.464 181 326.405 178.94V178.949H326.414Z" fill="white"/>
<path d="M303.3 195.195C302.69 194.862 302.14 194.433 301.661 193.927C301.715 193.999 302.052 194.589 300.417 196.66C298.849 198.648 298.097 198.505 297.954 198.454C298.605 198.737 299.185 199.166 299.648 199.705C299.627 199.655 299.37 198.985 300.892 197.069C302.472 195.077 303.304 195.195 303.304 195.195H303.3Z" fill="white"/>
<path d="M301.883 180.958C300.479 178.616 300.774 177.85 300.774 177.85L300.757 177.862L300.748 177.871C300.341 178.279 299.841 178.583 299.29 178.751C299.311 178.751 299.933 178.772 301.307 181.189C302.673 183.585 302.228 184.204 302.202 184.238C302.715 183.804 303.287 183.446 303.904 183.185C303.904 183.185 303.287 183.303 301.883 180.962V180.958Z" fill="white"/>
<path d="M317.471 183.413C317.483 183.648 317.378 184.554 315.214 185.409C312.802 186.365 312.029 185.577 311.97 185.51C312.482 186.247 312.844 187.08 313.029 187.961C313.02 187.897 312.97 187.013 315.449 185.994C317.601 185.11 318.244 185.569 318.4 185.741C317.908 185.051 317.593 184.251 317.475 183.413H317.471Z" fill="white"/>
<path d="M316.765 202.754C317.977 202.754 318.959 201.77 318.959 200.556C318.959 199.342 317.977 198.357 316.765 198.357C315.553 198.357 314.571 199.342 314.571 200.556C314.571 201.77 315.553 202.754 316.765 202.754Z" fill="white"/>
<path d="M291.886 191.447C293.791 191.447 295.336 189.899 295.336 187.99C295.336 186.081 293.791 184.533 291.886 184.533C289.98 184.533 288.436 186.081 288.436 187.99C288.436 189.899 289.98 191.447 291.886 191.447Z" fill="white"/>
<path d="M310.6 179.201C311.342 179.201 311.944 178.598 311.944 177.854C311.944 177.11 311.342 176.506 310.6 176.506C309.857 176.506 309.255 177.11 309.255 177.854C309.255 178.598 309.857 179.201 310.6 179.201Z" fill="white"/>
<path d="M338.648 272.607H286.18V301.2H338.648V272.607Z" fill="#3D9BE9"/>
<path d="M339.698 302.253H285.129V271.554H339.698V302.253ZM287.23 300.148H337.597V273.66H287.23V300.148Z" fill="#333333"/>
<path d="M288.924 83.7832C288.924 88.828 292.853 91.5947 307.12 91.5947H398.705C405.61 91.5947 408.426 86.9836 408.426 82.8315V72.687H288.936V69.5161H412.973V82.8315C412.973 90.2093 409.472 96.2058 401.328 96.2058H302.519C292.853 96.2058 290.554 91.1315 289.634 89.287C288.714 87.4426 288.928 83.779 288.928 83.779L288.924 83.7832Z" fill="#333333"/>
<path d="M293.445 74.5356H291.344V86.9878H293.445V74.5356Z" fill="white"/>
<path d="M285.389 169.769H283.288V209.904H285.389V169.769Z" fill="white"/>
<path d="M285.389 310.473H283.288V325.957H285.389V310.473Z" fill="white"/>
<path d="M285.389 159.553H283.288C283.288 149.518 285.452 142.561 297.274 132.387L297.345 132.328C309.373 121.978 310.915 120.651 310.915 109.26H313.016C313.016 121.615 310.831 123.494 298.711 133.924L298.64 133.983C286.335 144.57 285.385 151.261 285.385 159.553H285.389Z" fill="white"/>
<path d="M309.001 287.61V321.896H299.303V295.103H292.935V287.61H309.001ZM309.442 382.581C306.503 382.581 303.891 381.879 301.605 380.475C299.319 379.071 297.523 377.03 296.217 374.353C294.944 371.642 294.307 368.442 294.307 364.753C294.307 361.063 294.944 357.879 296.217 355.201C297.523 352.491 299.319 350.434 301.605 349.03C303.891 347.626 306.503 346.924 309.442 346.924C312.348 346.924 314.944 347.626 317.23 349.03C319.515 350.434 321.295 352.491 322.568 355.201C323.875 357.879 324.528 361.063 324.528 364.753C324.528 368.442 323.875 371.642 322.568 374.353C321.295 377.03 319.515 379.071 317.23 380.475C314.944 381.879 312.348 382.581 309.442 382.581ZM309.442 374.646C311.074 374.646 312.364 373.863 313.311 372.295C314.291 370.695 314.781 368.181 314.781 364.753C314.781 361.324 314.291 358.826 313.311 357.259C312.364 355.659 311.074 354.859 309.442 354.859C307.776 354.859 306.454 355.659 305.474 357.259C304.527 358.826 304.054 361.324 304.054 364.753C304.054 368.181 304.527 370.695 305.474 372.295C306.454 373.863 307.776 374.646 309.442 374.646ZM310.283 397.223C311.816 397.223 313.035 397.683 313.94 398.603C314.86 399.523 315.32 400.91 315.32 402.766V409.896H310.95V403.479C310.95 402.605 310.781 401.961 310.444 401.547C310.122 401.133 309.662 400.926 309.064 400.926C308.404 400.926 307.875 401.156 307.477 401.616C307.078 402.076 306.879 402.773 306.879 403.709V409.896H302.509V403.479C302.509 401.777 301.88 400.926 300.623 400.926C299.948 400.926 299.411 401.156 299.013 401.616C298.614 402.076 298.415 402.773 298.415 403.709V409.896H294.045V397.43H298.208V398.741C298.668 398.235 299.212 397.859 299.841 397.614C300.485 397.353 301.182 397.223 301.934 397.223C302.808 397.223 303.59 397.384 304.28 397.706C304.97 398.028 305.529 398.518 305.959 399.178C306.449 398.549 307.07 398.066 307.822 397.729C308.573 397.391 309.393 397.223 310.283 397.223ZM307.454 425.43V435.619C307.454 437.934 306.825 439.667 305.568 440.817C304.31 441.982 302.501 442.565 300.14 442.565C298.913 442.565 297.763 442.427 296.69 442.151C295.616 441.875 294.704 441.468 293.953 440.932L295.54 437.873C296.046 438.287 296.682 438.609 297.449 438.839C298.231 439.084 298.997 439.207 299.749 439.207C300.899 439.207 301.742 438.954 302.279 438.448C302.815 437.942 303.084 437.19 303.084 436.194V435.78C302.24 436.761 301.006 437.252 299.381 437.252C298.277 437.252 297.257 437.006 296.322 436.516C295.386 436.01 294.643 435.304 294.091 434.4C293.539 433.48 293.263 432.422 293.263 431.226C293.263 430.045 293.539 429.002 294.091 428.098C294.643 427.178 295.386 426.472 296.322 425.982C297.257 425.476 298.277 425.223 299.381 425.223C301.159 425.223 302.463 425.798 303.291 426.948V425.43H307.454ZM300.416 433.779C301.198 433.779 301.842 433.541 302.348 433.066C302.869 432.59 303.13 431.977 303.13 431.226C303.13 430.474 302.877 429.869 302.371 429.409C301.865 428.933 301.213 428.696 300.416 428.696C299.618 428.696 298.959 428.933 298.438 429.409C297.932 429.869 297.679 430.474 297.679 431.226C297.679 431.977 297.939 432.59 298.461 433.066C298.982 433.541 299.634 433.779 300.416 433.779Z" fill="white"/>
<path d="M294.504 238.47C293.544 238.47 292.613 238.351 291.709 238.113C290.806 237.876 290.072 237.559 289.507 237.163L290.608 234.684C291.139 235.035 291.754 235.318 292.454 235.533C293.155 235.748 293.844 235.856 294.521 235.856C295.809 235.856 296.452 235.533 296.452 234.888C296.452 234.549 296.266 234.3 295.893 234.141C295.532 233.971 294.945 233.796 294.132 233.615C293.239 233.423 292.494 233.219 291.895 233.004C291.297 232.778 290.783 232.421 290.354 231.934C289.925 231.448 289.71 230.791 289.71 229.965C289.71 229.241 289.908 228.59 290.303 228.013C290.698 227.425 291.286 226.961 292.065 226.621C292.855 226.282 293.821 226.112 294.962 226.112C295.741 226.112 296.509 226.203 297.266 226.384C298.022 226.553 298.689 226.808 299.265 227.148L298.231 229.643C297.102 229.032 296.006 228.726 294.945 228.726C294.278 228.726 293.793 228.828 293.488 229.032C293.183 229.224 293.03 229.479 293.03 229.796C293.03 230.112 293.211 230.35 293.573 230.509C293.934 230.667 294.516 230.831 295.317 231.001C296.221 231.193 296.966 231.403 297.554 231.629C298.152 231.844 298.666 232.195 299.095 232.681C299.536 233.157 299.756 233.807 299.756 234.633C299.756 235.346 299.558 235.991 299.163 236.569C298.768 237.146 298.175 237.61 297.384 237.961C296.594 238.3 295.634 238.47 294.504 238.47Z" fill="#333333"/>
<path d="M310.826 235.635V238.232H301.305V226.35H310.605V228.947H304.626V230.95H309.894V233.462H304.626V235.635H310.826Z" fill="#333333"/>
<path d="M317.871 235.075H316.041V238.232H312.687V226.35H318.108C319.181 226.35 320.113 226.531 320.903 226.893C321.694 227.244 322.304 227.753 322.733 228.421C323.162 229.077 323.376 229.852 323.376 230.746C323.376 231.606 323.173 232.359 322.767 233.004C322.371 233.638 321.801 234.136 321.056 234.498L323.614 238.232H320.022L317.871 235.075ZM319.988 230.746C319.988 230.192 319.813 229.762 319.463 229.456C319.113 229.151 318.594 228.998 317.905 228.998H316.041V232.478H317.905C318.594 232.478 319.113 232.331 319.463 232.036C319.813 231.731 319.988 231.301 319.988 230.746Z" fill="#333333"/>
<path d="M335.933 238.232L335.899 231.934L332.85 237.061H331.359L328.327 232.104V238.232H325.227V226.35H327.988L332.156 233.208L336.221 226.35H338.983L339.016 238.232H335.933Z" fill="#333333"/>
<path d="M347.37 238.47C346.116 238.47 344.987 238.204 343.982 237.672C342.988 237.14 342.203 236.405 341.627 235.465C341.062 234.526 340.78 233.468 340.78 232.291C340.78 231.114 341.062 230.056 341.627 229.117C342.203 228.177 342.988 227.442 343.982 226.91C344.987 226.378 346.116 226.112 347.37 226.112C348.623 226.112 349.747 226.378 350.741 226.91C351.746 227.442 352.531 228.177 353.096 229.117C353.672 230.056 353.96 231.114 353.96 232.291C353.96 233.468 353.672 234.526 353.096 235.465C352.531 236.405 351.746 237.14 350.741 237.672C349.747 238.204 348.623 238.47 347.37 238.47ZM347.37 235.686C347.968 235.686 348.51 235.544 348.996 235.262C349.482 234.979 349.866 234.583 350.148 234.073C350.43 233.553 350.572 232.959 350.572 232.291C350.572 231.623 350.43 231.035 350.148 230.526C349.866 230.005 349.482 229.603 348.996 229.32C348.51 229.037 347.968 228.896 347.37 228.896C346.771 228.896 346.229 229.037 345.744 229.32C345.258 229.603 344.874 230.005 344.592 230.526C344.309 231.035 344.168 231.623 344.168 232.291C344.168 232.959 344.309 233.553 344.592 234.073C344.874 234.583 345.258 234.979 345.744 235.262C346.229 235.544 346.771 235.686 347.37 235.686Z" fill="#333333"/>
<path d="M360.9 235.075H359.071V238.232H355.716V226.35H361.137C362.21 226.35 363.142 226.531 363.933 226.893C364.723 227.244 365.333 227.753 365.762 228.421C366.191 229.077 366.406 229.852 366.406 230.746C366.406 231.606 366.203 232.359 365.796 233.004C365.401 233.638 364.83 234.136 364.085 234.498L366.643 238.232H363.052L360.9 235.075ZM363.018 230.746C363.018 230.192 362.843 229.762 362.493 229.456C362.142 229.151 361.623 228.998 360.934 228.998H359.071V232.478H360.934C361.623 232.478 362.142 232.331 362.493 232.036C362.843 231.731 363.018 231.301 363.018 230.746Z" fill="#333333"/>
<path d="M377.777 235.635V238.232H368.256V226.35H377.557V228.947H371.577V230.95H376.845V233.462H371.577V235.635H377.777Z" fill="#333333"/>
<path d="M379.638 226.35H382.992V235.567H388.65V238.232H379.638V226.35Z" fill="#333333"/>
<path d="M389.978 226.35H393.332V238.232H389.978V226.35Z" fill="#333333"/>
<path d="M407.001 226.35V238.232H404.239L399.005 231.901V238.232H395.718V226.35H398.48L403.714 232.681V226.35H407.001Z" fill="#333333"/>
<path d="M290.336 246.142H293.69V258.024H290.336V246.142Z" fill="#333333"/>
<path d="M301.742 245.702C302.854 245.702 303.82 245.89 304.64 246.266C305.46 246.63 306.092 247.158 306.537 247.85C306.982 248.531 307.205 249.334 307.205 250.261C307.205 251.189 306.982 251.992 306.537 252.673C306.092 253.354 305.46 253.882 304.64 254.257C303.82 254.621 302.854 254.803 301.742 254.803H299.598V258.024H296.12V245.702H301.742ZM301.531 252.057C302.245 252.057 302.784 251.904 303.147 251.599C303.51 251.282 303.691 250.836 303.691 250.261C303.691 249.686 303.51 249.241 303.147 248.924C302.784 248.607 302.245 248.448 301.531 248.448H299.598V252.057H301.531Z" fill="#333333"/>
<path d="M316.522 255.63H311.322L310.356 258.024H306.807L312.235 245.702H315.661L321.106 258.024H317.488L316.522 255.63ZM315.503 253.06L313.922 249.117L312.341 253.06H315.503Z" fill="#333333"/>
<path d="M333.194 258.024L333.159 251.494L329.997 256.809H328.452L325.307 251.67V258.024H322.093V245.702H324.956L329.277 252.814L333.493 245.702H336.356L336.392 258.024H333.194Z" fill="#333333"/>
<path d="M345.054 258.27C343.754 258.27 342.583 257.995 341.54 257.443C340.51 256.892 339.696 256.129 339.099 255.155C338.513 254.181 338.22 253.084 338.22 251.863C338.22 250.643 338.513 249.546 339.099 248.572C339.696 247.598 340.51 246.835 341.54 246.283C342.583 245.732 343.754 245.456 345.054 245.456C346.354 245.456 347.519 245.732 348.549 246.283C349.592 246.835 350.405 247.598 350.991 248.572C351.588 249.546 351.887 250.643 351.887 251.863C351.887 253.084 351.588 254.181 350.991 255.155C350.405 256.129 349.592 256.892 348.549 257.443C347.519 257.995 346.354 258.27 345.054 258.27ZM345.054 255.384C345.674 255.384 346.236 255.237 346.74 254.944C347.244 254.65 347.642 254.24 347.934 253.712C348.227 253.172 348.374 252.556 348.374 251.863C348.374 251.171 348.227 250.561 347.934 250.033C347.642 249.493 347.244 249.076 346.74 248.783C346.236 248.49 345.674 248.343 345.054 248.343C344.433 248.343 343.871 248.49 343.367 248.783C342.864 249.076 342.465 249.493 342.173 250.033C341.88 250.561 341.734 251.171 341.734 251.863C341.734 252.556 341.88 253.172 342.173 253.712C342.465 254.24 342.864 254.65 343.367 254.944C343.871 255.237 344.433 255.384 345.054 255.384Z" fill="#333333"/>
<path d="M359.084 254.75H357.187V258.024H353.709V245.702H359.33C360.442 245.702 361.409 245.89 362.228 246.266C363.048 246.63 363.68 247.158 364.125 247.85C364.571 248.531 364.793 249.334 364.793 250.261C364.793 251.153 364.582 251.934 364.161 252.603C363.751 253.26 363.159 253.776 362.386 254.152L365.039 258.024H361.315L359.084 254.75ZM361.28 250.261C361.28 249.686 361.098 249.241 360.735 248.924C360.372 248.607 359.833 248.448 359.119 248.448H357.187V252.057H359.119C359.833 252.057 360.372 251.904 360.735 251.599C361.098 251.282 361.28 250.836 361.28 250.261Z" fill="#333333"/>
<path d="M376.584 255.331V258.024H366.712V245.702H376.356V248.396H370.155V250.473H375.618V253.078H370.155V255.331H376.584Z" fill="#333333"/>
<path d="M378.514 245.702H381.992V255.26H387.86V258.024H378.514V245.702Z" fill="#333333"/>
<path d="M389.236 245.702H392.714V258.024H389.236V245.702Z" fill="#333333"/>
<path d="M406.888 245.702V258.024H404.025L398.597 251.458V258.024H395.189V245.702H398.052L403.48 252.268V245.702H406.888Z" fill="#333333"/>
<path d="M31.2205 81.0039V96.7069C31.2205 106.489 29.1654 108.035 18.218 117.56C4.791 129.246 1.32395 133.263 1.32395 154.095L1.05079 342.641C1.04239 349.451 6.91747 354.971 14.171 354.971H145.465C152.723 354.971 158.611 349.451 158.619 342.641C158.619 334.055 159.153 169.023 159.153 153.341C159.153 132.509 155.148 129.246 141.721 117.56C130.777 108.035 128.718 106.489 128.718 96.7069C128.718 89.4976 128.718 81.0039 128.718 81.0039H31.2121H31.2205Z" fill="#DCF0FF"/>
<path d="M158.9 146.389L158.623 342.637C158.614 349.446 152.723 354.967 145.469 354.967H14.1749C6.91717 354.967 1.04629 349.446 1.0547 342.637L1.07151 328.77C1.0547 342.73 2.37848 347.223 36.4481 347.223H133.681C151.966 347.223 148.461 345.223 148.499 316.747L148.739 146.385C148.739 135.057 146.242 129.048 131.765 118.411C117.287 107.774 118.829 102.11 118.829 94.9004C118.829 87.6911 118.829 86.6636 99.8174 86.6636H31.2244V80.486H129.042V100.615C129.042 109.833 144.612 117.897 152.786 128.079C158.388 135.057 158.9 140.207 158.9 146.385" fill="#3D9BE9"/>
<path d="M10.6494 68.4171L10.6704 51.1433H149.138L149.117 68.4508C149.109 75.3864 143.301 81.0039 136.14 81.0039H23.6267C16.4531 81.0039 10.641 75.3653 10.6494 68.4171Z" fill="#3D9BE9"/>
<path d="M150.336 22.0406H11.0948C8.74565 22.0406 6.83771 24.1799 6.83351 26.8118L6.8125 45.6352C6.8125 48.2671 8.71622 50.4063 11.0612 50.4063H150.302C152.652 50.4063 154.559 48.2671 154.564 45.6352L154.585 26.8118C154.585 24.1799 152.681 22.0406 150.336 22.0406Z" fill="white"/>
<path d="M154.589 26.8118L154.568 45.6352C154.568 48.2671 152.655 50.4063 150.306 50.4063H11.0651C8.71593 50.4063 6.81221 48.2671 6.81641 45.6352V40.1398C7.00973 45.471 10.2372 45.0162 55.1408 45.0162H137.258C147.739 45.0162 147.499 46.149 147.512 33.1031C147.524 23.4598 144.221 22.0406 144.221 22.0406H150.34C152.689 22.0406 154.593 24.1799 154.589 26.8118Z" fill="#3D9BE9"/>
<path d="M158.229 157.713H1.52637V316.326H158.225V157.713H158.229Z" fill="white"/>
<path d="M158.228 157.713H148.625L148.348 316.065H158.224V157.713H158.228Z" fill="#3D9BE9"/>
<path d="M158.382 157.713H1.67578V213.829H158.382V157.713Z" fill="#3D9BE9"/>
<path d="M158.228 157.713V213.833H148.524L148.625 157.713H158.228Z" fill="#333333"/>
<path d="M145.465 356.02H14.1708C10.2751 356.02 6.50969 354.483 3.84111 351.809C1.35744 349.316 -0.00836642 346.061 3.85625e-05 342.637L0.273198 154.091C0.273198 132.733 4.13529 128.42 17.5328 116.764L18.3145 116.086C28.5938 107.146 30.1739 105.773 30.1739 96.707V79.9512H129.781V96.707C129.781 105.773 131.361 107.146 141.641 116.086L142.834 117.122C155.837 128.433 160.216 132.244 160.216 153.342C160.216 162.357 160.043 219.716 159.888 270.321C159.774 307.167 159.678 338.99 159.678 342.641C159.669 350.019 153.294 356.024 145.473 356.024L145.465 356.02ZM32.271 82.0567V96.707C32.271 106.734 30.1025 108.616 19.6887 117.674L18.9112 118.352C5.80368 129.755 2.37865 133.587 2.37865 154.091L2.10548 342.641C2.10548 345.501 3.24856 348.229 5.333 350.322C7.61075 352.605 10.834 353.918 14.175 353.918H145.469C152.134 353.918 157.564 348.861 157.572 342.641C157.572 338.99 157.669 307.163 157.783 270.316C157.934 219.712 158.11 162.353 158.11 153.342C158.11 133.204 154.58 130.134 141.456 118.714L140.262 117.678C129.849 108.62 127.68 106.734 127.68 96.7112V82.0609H32.2752L32.271 82.0567Z" fill="#333333"/>
<path d="M159.274 317.379H0.470703V156.403H159.279V317.379H159.274ZM2.57195 315.273H157.173V158.508H2.57614V315.273H2.57195Z" fill="#333333"/>
<path d="M136.135 82.0567H23.6217C19.789 82.0567 16.2085 80.5828 13.5399 77.9088C10.989 75.3485 9.58956 71.9796 9.59376 68.417L9.61897 50.1537H150.188L150.163 68.4507C150.154 75.9548 143.859 82.0567 136.135 82.0567ZM11.716 52.2592L11.695 68.417C11.695 71.4153 12.8759 74.2578 15.0276 76.4181C17.2969 78.6962 20.3479 79.9511 23.6217 79.9511H136.135C142.703 79.9511 148.053 74.7926 148.062 68.4465L148.083 52.2592H11.716Z" fill="#333333"/>
<path d="M150.306 51.4549H11.0653C9.73727 51.4549 8.46812 50.9159 7.48894 49.9347C6.39209 48.8314 5.76172 47.2649 5.76172 45.631L5.78273 26.8075C5.78273 23.5987 8.16975 20.9836 11.0947 20.9836H150.336C151.664 20.9836 152.933 21.5227 153.912 22.5038C155.009 23.6071 155.639 25.1736 155.639 26.8075L155.618 45.631C155.618 48.8398 153.231 51.4549 150.306 51.4549ZM11.0989 23.0934C9.32964 23.0934 7.89238 24.761 7.88818 26.8117L7.86717 45.6352C7.86717 46.7132 8.2706 47.7365 8.97662 48.4482C9.55656 49.0335 10.3004 49.3535 11.0653 49.3535H150.306C152.076 49.3535 153.513 47.686 153.517 45.6352L153.538 26.8117C153.538 25.7337 153.135 24.7104 152.429 23.9988C151.849 23.4176 151.105 23.0934 150.34 23.0934H11.0989Z" fill="#333333"/>
<path d="M159.854 214.734H0.470703V156.403H159.854V214.734ZM2.57195 212.629H157.753V158.508H2.57195V212.629Z" fill="#333333"/>
<path d="M75.4765 173.711C75.4765 177.21 73.2408 179.383 69.6729 179.383H66.9791V183.712H63.8818V168.013H69.6729C73.2408 168.013 75.4765 170.194 75.4765 173.711ZM72.3457 173.711C72.3457 171.984 71.3917 170.973 69.4964 170.973H66.9749V176.422H69.4964C71.3917 176.431 72.3457 175.42 72.3457 173.711Z" fill="white"/>
<path d="M88.0255 180.802V183.72H77.6748V168.013H87.7776V170.931H80.751V174.346H86.9581V177.168H80.751V180.802H88.0255Z" fill="white"/>
<path d="M102.082 173.711C102.082 177.21 99.8463 179.383 96.2783 179.383H93.5845V183.712H90.4873V168.013H96.2783C99.8463 168.013 102.082 170.194 102.082 173.711ZM98.9511 173.711C98.9511 171.984 97.9971 170.973 96.1018 170.973H93.5803V176.422H96.1018C97.9971 176.431 98.9511 175.42 98.9511 173.711Z" fill="white"/>
<path d="M106.684 170.973H102.41V168.013H114.064V170.973H109.79V183.72H106.692V170.973H106.684Z" fill="white"/>
<path d="M115.716 168.013H118.813V183.72H115.716V168.013Z" fill="white"/>
<path d="M121.978 168.013H128.05C132.429 168.013 135.421 171.108 135.421 175.867C135.421 180.625 132.421 183.72 128.05 183.72H121.978V168.013ZM127.899 180.735C130.559 180.735 132.29 178.869 132.29 175.867C132.29 172.864 130.551 170.999 127.899 170.999H125.075V180.735H127.899Z" fill="white"/>
<path d="M148.109 180.802V183.72H137.758V168.013H147.861V170.931H140.834V174.346H147.041V177.168H140.834V180.802H148.109Z" fill="white"/>
<path d="M63.8818 202.918L64.4282 201.609C65.3695 202.733 67.0463 203.567 68.7735 203.567C71.2404 203.567 72.3078 202.299 72.3078 200.712C72.3078 196.282 64.2054 199.006 64.2054 193.039C64.2054 190.668 65.7099 188.617 69.0593 188.617C70.5428 188.617 72.0851 189.144 73.1399 190.049L72.6651 191.409C71.5388 190.512 70.2192 190.074 69.0593 190.074C66.6513 190.074 65.5796 191.384 65.5796 193.001C65.5796 197.431 73.682 194.749 73.682 200.627C73.682 202.998 72.1397 205.032 68.7777 205.032C66.7984 205.015 64.8568 204.16 63.8818 202.914V202.918Z" fill="white"/>
<path d="M87.7097 188.744V204.877H86.3313V197.431H78.0902V204.877H76.6992V188.744H78.0902V195.932H86.3313V188.744H87.7097Z" fill="white"/>
<path d="M90.8291 196.812C90.8291 192.113 93.7625 188.605 97.7506 188.605C101.739 188.605 104.647 192.083 104.647 196.812C104.647 201.541 101.693 205.02 97.7506 205.02C93.8087 205.02 90.8291 201.512 90.8291 196.812ZM103.256 196.812C103.256 192.963 100.902 190.134 97.7506 190.134C94.5987 190.134 92.1991 192.972 92.1991 196.812C92.1991 200.653 94.5651 203.491 97.7506 203.491C100.936 203.491 103.256 200.661 103.256 196.812Z" fill="white"/>
<path d="M118.077 194.282C118.077 197.718 116.047 199.79 112.698 199.79H109.163V204.885H107.772V188.74H112.698C116.039 188.74 118.077 190.812 118.077 194.277V194.282ZM116.678 194.282C116.678 191.696 115.287 190.222 112.656 190.222H109.155V198.29H112.656C115.287 198.29 116.678 196.812 116.678 194.282Z" fill="white"/>
<path d="M37.7163 184.966C37.7163 189.085 34.3837 192.424 30.2737 192.424C29.0255 192.424 27.7984 192.108 26.7016 191.51C26.0208 191.136 25.4072 190.66 24.8735 190.095C22.0536 187.101 22.1881 182.385 25.1761 179.559C25.2727 179.467 25.3736 179.374 25.4786 179.29C26.0502 178.797 26.689 178.397 27.3782 178.098C30.6141 176.73 34.3627 177.812 36.3799 180.696C36.9556 181.518 37.3549 182.448 37.5608 183.429C37.6658 183.935 37.7205 184.448 37.7205 184.966H37.7163Z" fill="white"/>
<path d="M22.6255 196.547C22.1086 195.945 21.4614 195.465 20.7344 195.149L20.7092 195.136C18.0574 193.995 14.9812 195.229 13.8465 197.886C12.7076 200.543 13.939 203.626 16.5907 204.763C19.2425 205.904 22.3187 204.67 23.4534 202.013C24.2351 200.181 23.9157 198.063 22.6255 196.547Z" fill="white"/>
<path d="M23.8434 166.573C22.3011 165.027 19.8006 165.027 18.2583 166.573C16.716 168.118 16.716 170.624 18.2583 172.169C19.8006 173.714 22.2969 173.714 23.8392 172.169L23.8476 172.161C25.3815 170.615 25.3773 168.114 23.8392 166.573H23.8434Z" fill="white"/>
<path d="M52.5014 173.369C50.2026 171.07 46.4834 171.07 44.1846 173.369C42.8945 174.662 42.2767 176.477 42.5121 178.288C42.5121 178.309 42.5121 178.33 42.5163 178.351C42.6465 179.29 43.0038 180.183 43.5543 180.953C43.5669 180.974 43.5837 180.991 43.5963 181.012C43.7728 181.252 43.9661 181.48 44.1804 181.694C46.4792 183.998 50.2026 183.998 52.5014 181.694C54.8001 179.391 54.8001 175.66 52.5014 173.357V173.365V173.369Z" fill="white"/>
<path d="M26.6977 191.506C26.0169 191.132 25.4033 190.656 24.8696 190.091C24.9327 190.171 25.3067 190.833 23.4828 193.144C21.7346 195.364 20.8941 195.208 20.7344 195.145C21.4614 195.461 22.1086 195.941 22.6255 196.543C22.6003 196.488 22.3145 195.743 24.0123 193.599C25.7774 191.376 26.7019 191.506 26.7019 191.506H26.6977Z" fill="white"/>
<path d="M25.1185 175.614C23.5509 172.999 23.8787 172.148 23.8787 172.148L23.8577 172.161L23.8493 172.169C23.3954 172.624 22.8365 172.965 22.2188 173.15C22.244 173.15 22.9332 173.175 24.4713 175.871C25.9968 178.545 25.4967 179.239 25.4715 179.273C26.043 178.789 26.686 178.389 27.3752 178.098C27.3752 178.098 26.686 178.229 25.1185 175.614Z" fill="white"/>
<path d="M42.52 178.355C42.5368 178.616 42.415 179.627 39.9985 180.587C37.3047 181.652 36.439 180.772 36.376 180.701C36.9517 181.522 37.351 182.452 37.5569 183.434C37.5485 183.366 37.4896 182.372 40.2591 181.24C42.6587 180.254 43.3815 180.764 43.5496 180.958C43.0033 180.187 42.6461 179.294 42.52 178.355Z" fill="white"/>
<path d="M41.73 199.945C43.0808 199.945 44.1759 198.848 44.1759 197.494C44.1759 196.141 43.0808 195.043 41.73 195.043C40.3792 195.043 39.2842 196.141 39.2842 197.494C39.2842 198.848 40.3792 199.945 41.73 199.945Z" fill="white"/>
<path d="M13.9559 187.32C16.0819 187.32 17.8054 185.594 17.8054 183.463C17.8054 181.333 16.0819 179.606 13.9559 179.606C11.8299 179.606 10.1064 181.333 10.1064 183.463C10.1064 185.594 11.8299 187.32 13.9559 187.32Z" fill="white"/>
<path d="M34.846 173.651C35.6746 173.651 36.3463 172.978 36.3463 172.148C36.3463 171.318 35.6746 170.645 34.846 170.645C34.0174 170.645 33.3457 171.318 33.3457 172.148C33.3457 172.978 34.0174 173.651 34.846 173.651Z" fill="white"/>
<path d="M66.1602 277.93H7.58594V309.85H66.1602V277.93Z" fill="#3D9BE9"/>
<path d="M67.2107 310.903H6.53516V276.877H67.2107V310.903ZM8.6364 308.797H65.1095V278.983H8.6364V308.797Z" fill="#333333"/>
<path d="M10.6498 67.1326C10.6498 72.767 15.0372 75.8537 30.9647 75.8537H133.211C140.919 75.8537 144.062 70.7036 144.062 66.0714V54.7436H10.6666V51.2021H149.139V66.0672C149.139 74.304 145.23 80.9996 136.14 80.9996H25.8292C15.0414 80.9996 12.4695 75.3357 11.4441 73.2765C10.4145 71.2173 10.654 67.1284 10.654 67.1284L10.6498 67.1326Z" fill="#333333"/>
<path d="M15.5749 56.8029H13.4736V70.7036H15.5749V56.8029Z" fill="white"/>
<path d="M6.58171 163.12H4.48047V207.925H6.58171V163.12Z" fill="white"/>
<path d="M6.58171 320.201H4.48047V337.487H6.58171V320.201Z" fill="white"/>
<path d="M6.58171 151.716H4.48047C4.48047 140.548 6.88849 132.808 20.0507 121.481L20.1305 121.413C33.5953 109.829 35.3225 108.338 35.3225 95.5699H37.4238C37.4238 109.306 34.9905 111.399 21.5006 123.013L21.4207 123.081C7.64494 134.935 6.58171 142.426 6.58171 151.72V151.716Z" fill="white"/>
<path d="M22.4757 285.566V301.685H17.9258V289.089H14.9385V285.566H22.4757Z" fill="white"/>
<path d="M31.9953 302.007C30.6166 302.007 29.391 301.677 28.3187 301.017C27.2463 300.357 26.4037 299.397 25.791 298.138C25.1935 296.864 24.8948 295.36 24.8948 293.625C24.8948 291.891 25.1935 290.394 25.791 289.135C26.4037 287.861 27.2463 286.894 28.3187 286.234C29.391 285.574 30.6166 285.244 31.9953 285.244C33.3588 285.244 34.5767 285.574 35.649 286.234C36.7214 286.894 37.5563 287.861 38.1538 289.135C38.7666 290.394 39.0729 291.891 39.0729 293.625C39.0729 295.36 38.7666 296.864 38.1538 298.138C37.5563 299.397 36.7214 300.357 35.649 301.017C34.5767 301.677 33.3588 302.007 31.9953 302.007ZM31.9953 298.277C32.7613 298.277 33.3664 297.908 33.8107 297.171C34.2703 296.419 34.5001 295.237 34.5001 293.625C34.5001 292.014 34.2703 290.839 33.8107 290.102C33.3664 289.35 32.7613 288.974 31.9953 288.974C31.214 288.974 30.5936 289.35 30.134 290.102C29.6898 290.839 29.4676 292.014 29.4676 293.625C29.4676 295.237 29.6898 296.419 30.134 297.171C30.5936 297.908 31.214 298.277 31.9953 298.277Z" fill="white"/>
<path d="M48.1186 295.728C48.8378 295.728 49.4095 295.945 49.8339 296.377C50.2654 296.809 50.4811 297.461 50.4811 298.333V301.685H48.4314V298.669C48.4314 298.258 48.3523 297.955 48.1941 297.761C48.0431 297.566 47.8273 297.469 47.5468 297.469C47.2376 297.469 46.9895 297.577 46.8025 297.793C46.6155 298.009 46.522 298.337 46.522 298.777V301.685H44.4723V298.669C44.4723 297.869 44.1775 297.469 43.5877 297.469C43.2713 297.469 43.0196 297.577 42.8326 297.793C42.6456 298.009 42.5521 298.337 42.5521 298.777V301.685H40.5024V295.826H42.455V296.442C42.6708 296.204 42.9261 296.027 43.2209 295.912C43.523 295.79 43.8502 295.728 44.2026 295.728C44.6126 295.728 44.9793 295.804 45.303 295.955C45.6266 296.107 45.8891 296.337 46.0905 296.647C46.3206 296.352 46.6119 296.125 46.9643 295.966C47.3167 295.808 47.7015 295.728 48.1186 295.728Z" fill="white"/>
<path d="M58.1484 295.826V300.614C58.1484 301.703 57.8535 302.517 57.2638 303.057C56.674 303.605 55.8254 303.879 54.7179 303.879C54.1425 303.879 53.6031 303.814 53.0997 303.684C52.5963 303.555 52.1683 303.364 51.8159 303.111L52.5603 301.674C52.7976 301.868 53.0961 302.02 53.4557 302.128C53.8225 302.243 54.1821 302.301 54.5345 302.301C55.0739 302.301 55.4694 302.182 55.7211 301.944C55.9728 301.706 56.0987 301.353 56.0987 300.885V300.69C55.7031 301.151 55.1242 301.382 54.3619 301.382C53.844 301.382 53.3658 301.267 52.9271 301.036C52.4884 300.798 52.1396 300.467 51.8807 300.041C51.6218 299.609 51.4923 299.112 51.4923 298.55C51.4923 297.995 51.6218 297.505 51.8807 297.08C52.1396 296.647 52.4884 296.316 52.9271 296.085C53.3658 295.847 53.844 295.728 54.3619 295.728C55.1961 295.728 55.8074 295.999 56.1958 296.539V295.826H58.1484ZM54.8473 299.75C55.2141 299.75 55.5162 299.638 55.7535 299.414C55.998 299.191 56.1203 298.903 56.1203 298.55C56.1203 298.197 56.0016 297.912 55.7643 297.696C55.5269 297.472 55.2213 297.361 54.8473 297.361C54.4733 297.361 54.1641 297.472 53.9196 297.696C53.6822 297.912 53.5636 298.197 53.5636 298.55C53.5636 298.903 53.6858 299.191 53.9304 299.414C54.1749 299.638 54.4805 299.75 54.8473 299.75Z" fill="white"/>
<path d="M14.1319 230.559H10.0615V227.581H21.9319V230.559H17.8805V240.86H14.1319V230.559Z" fill="#333333"/>
<path d="M33.9683 237.957V240.86H23.3285V227.581H33.7222V230.483H27.0392V232.722H32.927V235.529H27.0392V237.957H33.9683Z" fill="#333333"/>
<path d="M40.7058 241.126C39.6329 241.126 38.5917 240.993 37.582 240.727C36.5723 240.462 35.7519 240.108 35.1208 239.665L36.3514 236.895C36.9446 237.287 37.6325 237.603 38.415 237.844C39.1975 238.084 39.9674 238.204 40.7247 238.204C42.1635 238.204 42.883 237.844 42.883 237.123C42.883 236.743 42.6747 236.465 42.2582 236.288C41.8543 236.098 41.198 235.902 40.2893 235.7C39.2922 235.485 38.4592 235.257 37.7902 235.017C37.1213 234.764 36.547 234.366 36.0674 233.822C35.5878 233.278 35.348 232.545 35.348 231.621C35.348 230.812 35.5689 230.085 36.0106 229.44C36.4524 228.782 37.1087 228.263 37.9795 227.884C38.863 227.505 39.9422 227.315 41.2169 227.315C42.0878 227.315 42.9461 227.416 43.7917 227.618C44.6373 227.808 45.382 228.093 46.0257 228.472L44.8708 231.261C43.6087 230.578 42.3844 230.236 41.198 230.236C40.4533 230.236 39.9106 230.35 39.5698 230.578C39.2291 230.793 39.0587 231.077 39.0587 231.432C39.0587 231.786 39.2606 232.051 39.6645 232.228C40.0684 232.405 40.7184 232.589 41.6145 232.778C42.6242 232.994 43.4572 233.227 44.1135 233.48C44.7825 233.721 45.3567 234.113 45.8364 234.657C46.3286 235.188 46.5747 235.915 46.5747 236.838C46.5747 237.635 46.3538 238.356 45.9121 239.001C45.4703 239.646 44.8077 240.164 43.9242 240.556C43.0407 240.936 41.9679 241.126 40.7058 241.126Z" fill="#333333"/>
<path d="M57.1854 238.28H51.5815L50.5402 240.86H46.716L52.566 227.581H56.2577L62.1267 240.86H58.2267L57.1854 238.28ZM56.0873 235.51L54.3835 231.261L52.6796 235.51H56.0873Z" fill="#333333"/>
<path d="M75.1545 240.86L75.1166 233.822L71.7088 239.551H70.0428L66.654 234.012V240.86H63.1894V227.581H66.2753L70.9326 235.245L75.4763 227.581H78.5622L78.6001 240.86H75.1545Z" fill="#333333"/>
<path d="M87.9355 241.126C86.5346 241.126 85.2724 240.828 84.1491 240.234C83.0384 239.64 82.1613 238.818 81.5176 237.768C80.8865 236.718 80.571 235.536 80.571 234.22C80.571 232.905 80.8865 231.722 81.5176 230.673C82.1613 229.623 83.0384 228.801 84.1491 228.207C85.2724 227.612 86.5346 227.315 87.9355 227.315C89.3365 227.315 90.5923 227.612 91.703 228.207C92.8263 228.801 93.7035 229.623 94.3346 230.673C94.9783 231.722 95.3001 232.905 95.3001 234.22C95.3001 235.536 94.9783 236.718 94.3346 237.768C93.7035 238.818 92.8263 239.64 91.703 240.234C90.5923 240.828 89.3365 241.126 87.9355 241.126ZM87.9355 238.014C88.6045 238.014 89.2103 237.856 89.753 237.54C90.2957 237.224 90.7249 236.781 91.0404 236.212C91.3559 235.63 91.5137 234.966 91.5137 234.22C91.5137 233.474 91.3559 232.816 91.0404 232.247C90.7249 231.666 90.2957 231.217 89.753 230.9C89.2103 230.584 88.6045 230.426 87.9355 230.426C87.2666 230.426 86.6608 230.584 86.1181 230.9C85.5753 231.217 85.1462 231.666 84.8307 232.247C84.5152 232.816 84.3574 233.474 84.3574 234.22C84.3574 234.966 84.5152 235.63 84.8307 236.212C85.1462 236.781 85.5753 237.224 86.1181 237.54C86.6608 237.856 87.2666 238.014 87.9355 238.014Z" fill="#333333"/>
<path d="M103.057 237.331H101.012V240.86H97.2634V227.581H103.322C104.521 227.581 105.562 227.783 106.445 228.188C107.329 228.58 108.011 229.149 108.49 229.895C108.97 230.628 109.21 231.495 109.21 232.494C109.21 233.455 108.982 234.296 108.528 235.017C108.086 235.725 107.449 236.282 106.616 236.686L109.475 240.86H105.461L103.057 237.331ZM105.423 232.494C105.423 231.874 105.228 231.394 104.836 231.052C104.445 230.711 103.864 230.54 103.095 230.54H101.012V234.429H103.095C103.864 234.429 104.445 234.265 104.836 233.936C105.228 233.594 105.423 233.114 105.423 232.494Z" fill="#333333"/>
<path d="M121.917 237.957V240.86H111.278V227.581H121.671V230.483H114.988V232.722H120.876V235.529H114.988V237.957H121.917Z" fill="#333333"/>
<path d="M123.998 227.581H127.746V237.882H134.069V240.86H123.998V227.581Z" fill="#333333"/>
<path d="M135.553 227.581H139.301V240.86H135.553V227.581Z" fill="#333333"/>
<path d="M154.577 227.581V240.86H151.491L145.641 233.784V240.86H141.968V227.581H145.054L150.904 234.657V227.581H154.577Z" fill="#333333"/>
<path d="M11.3096 249.899H15.0581V263.178H11.3096V249.899Z" fill="#333333"/>
<path d="M23.9751 249.554C25.2053 249.554 26.2736 249.762 27.1801 250.177C28.0865 250.579 28.7858 251.163 29.2778 251.929C29.7699 252.681 30.0159 253.57 30.0159 254.595C30.0159 255.62 29.7699 256.509 29.2778 257.262C28.7858 258.014 28.0865 258.598 27.1801 259.013C26.2736 259.415 25.2053 259.617 23.9751 259.617H21.6054V263.178H17.7595V249.554H23.9751ZM23.742 256.58C24.5319 256.58 25.1276 256.412 25.529 256.074C25.9305 255.724 26.1312 255.231 26.1312 254.595C26.1312 253.959 25.9305 253.466 25.529 253.116C25.1276 252.765 24.5319 252.59 23.742 252.59H21.6054V256.58H23.742Z" fill="#333333"/>
<path d="M40.3181 260.531H34.5686L33.5003 263.178H29.5766L35.5786 249.554H39.3663L45.3877 263.178H41.3864L40.3181 260.531ZM39.1915 257.69L37.4433 253.33L35.6952 257.69H39.1915Z" fill="#333333"/>
<path d="M58.7539 263.178L58.7151 255.957L55.2188 261.835H53.5095L50.0326 256.152V263.178H46.478V249.554H49.6441L54.4224 257.417L59.0841 249.554H62.2502L62.2891 263.178H58.7539Z" fill="#333333"/>
<path d="M71.867 263.451C70.4297 263.451 69.1347 263.146 67.9823 262.536C66.8427 261.926 65.9427 261.083 65.2823 260.006C64.6349 258.929 64.3111 257.716 64.3111 256.366C64.3111 255.017 64.6349 253.804 65.2823 252.727C65.9427 251.65 66.8427 250.806 67.9823 250.196C69.1347 249.586 70.4297 249.281 71.867 249.281C73.3044 249.281 74.5929 249.586 75.7324 250.196C76.8849 250.806 77.7849 251.65 78.4323 252.727C79.0927 253.804 79.4229 255.017 79.4229 256.366C79.4229 257.716 79.0927 258.929 78.4323 260.006C77.7849 261.083 76.8849 261.926 75.7324 262.536C74.5929 263.146 73.3044 263.451 71.867 263.451ZM71.867 260.259C72.5534 260.259 73.1749 260.097 73.7317 259.772C74.2886 259.448 74.7288 258.994 75.0526 258.41C75.3763 257.813 75.5382 257.132 75.5382 256.366C75.5382 255.601 75.3763 254.926 75.0526 254.342C74.7288 253.745 74.2886 253.284 73.7317 252.96C73.1749 252.636 72.5534 252.474 71.867 252.474C71.1807 252.474 70.5592 252.636 70.0023 252.96C69.4455 253.284 69.0052 253.745 68.6815 254.342C68.3578 254.926 68.1959 255.601 68.1959 256.366C68.1959 257.132 68.3578 257.813 68.6815 258.41C69.0052 258.994 69.4455 259.448 70.0023 259.772C70.5592 260.097 71.1807 260.259 71.867 260.259Z" fill="#333333"/>
<path d="M87.381 259.558H85.2832V263.178H81.4373V249.554H87.6529C88.8831 249.554 89.9514 249.762 90.8579 250.177C91.7643 250.579 92.4636 251.163 92.9556 251.929C93.4477 252.681 93.6937 253.57 93.6937 254.595C93.6937 255.581 93.4607 256.444 92.9945 257.184C92.5413 257.91 91.8873 258.481 91.0327 258.896L93.9657 263.178H89.8478L87.381 259.558ZM89.809 254.595C89.809 253.959 89.6083 253.466 89.2068 253.116C88.8054 252.765 88.2097 252.59 87.4198 252.59H85.2832V256.58H87.4198C88.2097 256.58 88.8054 256.412 89.2068 256.074C89.6083 255.724 89.809 255.231 89.809 254.595Z" fill="#333333"/>
<path d="M106.732 260.201V263.178H95.8155V249.554H106.479V252.532H99.6226V254.829H105.663V257.709H99.6226V260.201H106.732Z" fill="#333333"/>
<path d="M108.866 249.554H112.712V260.123H119.199V263.178H108.866V249.554Z" fill="#333333"/>
<path d="M120.721 249.554H124.567V263.178H120.721V249.554Z" fill="#333333"/>
<path d="M140.24 249.554V263.178H137.074L131.072 255.919V263.178H127.303V249.554H130.47L136.472 256.814V249.554H140.24Z" fill="#333333"/>
<path d="M154.758 65.4946V82.6589C154.758 93.3508 152.51 95.0394 140.55 105.449C125.874 118.221 122.08 122.613 122.08 145.383L121.781 351.472C121.773 358.913 128.194 364.947 136.124 364.947H279.635C287.565 364.947 294.004 358.913 294.012 351.472C294.012 342.085 294.596 161.705 294.596 144.561C294.596 121.792 290.221 118.221 275.542 105.449C263.577 95.0394 261.333 93.3508 261.333 82.6589C261.333 74.78 261.333 65.4946 261.333 65.4946H154.758Z" fill="#DCF0FF"/>
<path d="M294.315 136.965L294.012 351.472C294.004 358.917 287.565 364.947 279.635 364.947H136.124C128.194 364.947 121.773 358.913 121.781 351.472L121.802 336.312C121.781 351.569 123.231 356.483 160.469 356.483H266.746C286.733 356.483 282.901 354.298 282.943 323.174L283.203 136.965C283.203 124.584 280.471 118.015 264.649 106.388C248.827 94.7615 250.512 88.5712 250.512 80.6924C250.512 72.8135 250.512 71.6891 229.735 71.6891H154.762V64.9346H261.682V86.9374C261.682 97.0102 278.702 105.824 287.637 116.958C293.76 124.584 294.323 130.214 294.323 136.965" fill="#3D9BE9"/>
<path d="M132.271 51.7371L132.297 32.8547H283.645L283.62 51.7708C283.612 59.3507 277.262 65.4947 269.437 65.4947H146.459C138.617 65.4947 132.263 59.3339 132.276 51.7371H132.271Z" fill="#3D9BE9"/>
<path d="M284.956 1.04858H132.763C130.195 1.04858 128.11 3.38572 128.106 6.26188L128.081 26.8329C128.081 29.7091 130.161 32.0462 132.725 32.0462H284.918C287.486 32.0462 289.57 29.7091 289.574 26.8329L289.6 6.26188C289.6 3.38572 287.519 1.04858 284.956 1.04858Z" fill="white"/>
<path d="M289.6 6.26181L289.574 26.8328C289.574 29.709 287.486 32.0461 284.918 32.0461H132.725C130.157 32.0461 128.077 29.709 128.081 26.8328L128.089 20.8237C128.291 26.6518 131.821 26.1549 180.902 26.1549H270.659C282.111 26.1549 281.85 27.3929 281.867 13.1343C281.88 2.59398 278.27 1.04431 278.27 1.04431H284.956C287.524 1.04431 289.604 3.38145 289.6 6.2576V6.26181Z" fill="#3D9BE9"/>
<path d="M293.58 149.345H122.299V322.715H293.576V149.345H293.58Z" fill="white"/>
<path d="M293.58 149.345H283.082L282.779 322.428H293.571V149.345H293.58Z" fill="#3D9BE9"/>
<path d="M293.751 149.345H122.466V210.684H293.751V149.345Z" fill="#3D9BE9"/>
<path d="M293.579 149.345V210.684H282.977L283.082 149.345H293.579Z" fill="#333333"/>
<path d="M279.631 366H136.12C131.888 366 127.799 364.332 124.9 361.427C122.206 358.723 120.722 355.186 120.727 351.472L121.025 145.383C121.025 122.079 125.24 117.375 139.856 104.658L140.709 103.916C151.976 94.1214 153.708 92.6139 153.708 82.6589V64.4419H262.384V82.6589C262.384 92.6139 264.116 94.1172 275.378 103.912L276.681 105.045C291.247 117.72 295.643 121.544 295.643 144.557C295.643 154.411 295.454 217.105 295.285 272.418C295.164 312.692 295.058 347.476 295.058 351.468C295.046 359.481 288.124 365.996 279.631 365.996V366ZM155.809 66.5474V82.6589C155.809 93.574 153.447 95.629 142.088 105.504L141.235 106.245C126.883 118.735 123.13 122.929 123.13 145.383L122.832 351.472C122.828 354.626 124.093 357.633 126.392 359.936C128.896 362.45 132.447 363.895 136.125 363.895H279.635C286.977 363.895 292.953 358.319 292.961 351.468C292.961 347.476 293.066 312.692 293.188 272.413C293.356 217.101 293.546 154.407 293.546 144.557C293.546 122.504 289.684 119.144 275.307 106.632L274.004 105.5C262.649 95.6248 260.283 93.5698 260.283 82.6547V66.5432H155.809V66.5474Z" fill="#333333"/>
<path d="M294.626 323.763H121.244V148.01H294.63V323.763H294.626ZM123.345 321.658H292.525V150.116H123.35V321.658H123.345Z" fill="#333333"/>
<path d="M269.436 66.5474H146.459C142.294 66.5474 138.407 64.9472 135.507 62.0416C132.738 59.2623 131.217 55.6029 131.221 51.7371L131.246 31.8735H284.696L284.67 51.775C284.658 59.9234 277.825 66.5474 269.436 66.5474ZM133.347 33.9791L133.322 51.7413C133.318 55.047 134.621 58.1758 136.995 60.5551C139.495 63.0648 142.853 64.4461 146.459 64.4461H269.436C276.669 64.4461 282.561 58.7611 282.569 51.775L282.594 33.9833H133.347V33.9791Z" fill="#333333"/>
<path d="M284.922 33.1031H132.729C131.304 33.1031 129.943 32.522 128.888 31.4692C127.707 30.2817 127.03 28.5931 127.03 26.8371L127.056 6.26606C127.056 2.81299 129.619 0 132.762 0H284.956C286.38 0 287.742 0.581126 288.793 1.63389C289.973 2.82141 290.65 4.51004 290.65 6.26606L290.625 26.8371C290.625 30.2902 288.061 33.1031 284.918 33.1031H284.922ZM132.762 2.10132C130.775 2.10132 129.157 3.96682 129.157 6.26606L129.132 26.8371C129.132 28.0414 129.581 29.1869 130.375 29.9785C131.031 30.6355 131.863 30.9976 132.729 30.9976H284.922C286.91 30.9976 288.528 29.1321 288.528 26.8329L288.553 6.26185C288.553 5.05748 288.103 3.91207 287.309 3.12039C286.653 2.46347 285.821 2.10132 284.956 2.10132H132.762Z" fill="#333333"/>
<path d="M295.261 211.572H121.244V148.01H295.261V211.572ZM123.345 209.467H293.16V150.116H123.35V209.467H123.345Z" fill="#333333"/>
<path d="M203.134 166.825C203.134 170.649 200.688 173.024 196.788 173.024H193.842V177.757H190.459V160.597H196.788C200.688 160.597 203.134 162.981 203.134 166.825ZM199.709 166.825C199.709 164.935 198.666 163.831 196.595 163.831H193.842V169.79H196.595C198.666 169.798 199.709 168.695 199.709 166.825Z" fill="white"/>
<path d="M216.846 174.578V177.766H205.533V160.597H216.573V163.785H208.891V167.516H215.674V170.603H208.891V174.578H216.842H216.846Z" fill="white"/>
<path d="M232.21 166.825C232.21 170.649 229.764 173.024 225.864 173.024H222.918V177.757H219.535V160.597H225.864C229.764 160.597 232.21 162.981 232.21 166.825ZM228.785 166.825C228.785 164.935 227.743 163.831 225.671 163.831H222.918V169.79H225.671C227.738 169.798 228.785 168.695 228.785 166.825Z" fill="white"/>
<path d="M237.241 163.835H232.567V160.601H245.305V163.835H240.632V177.77H237.249V163.835H237.241Z" fill="white"/>
<path d="M247.113 160.597H250.496V177.766H247.113V160.597Z" fill="white"/>
<path d="M253.959 160.597H260.599C265.381 160.597 268.655 163.983 268.655 169.184C268.655 174.384 265.377 177.77 260.599 177.77H253.959V160.601V160.597ZM260.431 174.502C263.335 174.502 265.23 172.464 265.23 169.179C265.23 165.895 263.326 163.857 260.431 163.857H257.342V174.498H260.431V174.502Z" fill="white"/>
<path d="M282.522 174.578V177.766H271.209V160.597H282.249V163.785H274.567V167.516H281.35V170.603H274.567V174.578H282.518H282.522Z" fill="white"/>
<path d="M190.458 198.754L191.055 197.322C192.08 198.551 193.917 199.465 195.804 199.465C198.502 199.465 199.666 198.084 199.666 196.345C199.666 191.502 190.807 194.479 190.807 187.961C190.807 185.367 192.454 183.13 196.115 183.13C197.737 183.13 199.422 183.707 200.574 184.697L200.057 186.188C198.825 185.207 197.384 184.726 196.115 184.726C193.48 184.726 192.312 186.158 192.312 187.927C192.312 192.77 201.17 189.839 201.17 196.265C201.17 198.859 199.485 201.078 195.808 201.078C193.644 201.057 191.522 200.126 190.454 198.762L190.458 198.754Z" fill="white"/>
<path d="M216.501 183.261V200.897H214.997V192.761H205.991V200.897H204.47V183.261H205.991V191.119H214.997V183.261H216.501Z" fill="white"/>
<path d="M219.913 192.079C219.913 186.942 223.12 183.109 227.478 183.109C231.836 183.109 235.017 186.912 235.017 192.079C235.017 197.246 231.789 201.049 227.478 201.049C223.166 201.049 219.913 197.217 219.913 192.079ZM233.496 192.079C233.496 187.872 230.924 184.777 227.478 184.777C224.032 184.777 221.409 187.881 221.409 192.079C221.409 196.277 223.994 199.381 227.478 199.381C230.961 199.381 233.496 196.29 233.496 192.079Z" fill="white"/>
<path d="M249.696 189.312C249.696 193.069 247.477 195.334 243.817 195.334H239.955V200.905H238.434V183.261H243.817C247.469 183.261 249.696 185.527 249.696 189.312ZM248.167 189.312C248.167 186.487 246.645 184.874 243.771 184.874H239.946V193.692H243.771C246.645 193.692 248.167 192.079 248.167 189.312Z" fill="white"/>
<path d="M161.859 179.134C161.859 183.636 158.215 187.287 153.723 187.287C152.357 187.287 151.016 186.942 149.819 186.285C149.075 185.876 148.402 185.354 147.818 184.739C144.738 181.467 144.885 176.313 148.146 173.226C148.255 173.125 148.364 173.024 148.478 172.931C149.1 172.397 149.802 171.954 150.554 171.63C154.092 170.135 158.19 171.319 160.392 174.468C161.018 175.365 161.459 176.384 161.682 177.458C161.8 178.01 161.859 178.574 161.859 179.138V179.134Z" fill="white"/>
<path d="M145.365 191.788C144.802 191.127 144.096 190.605 143.297 190.26L143.268 190.247C140.368 189.001 137.01 190.348 135.767 193.254C134.523 196.16 135.867 199.524 138.767 200.771C141.667 202.017 145.025 200.67 146.269 197.764C147.126 195.764 146.773 193.448 145.361 191.793L145.365 191.788Z" fill="white"/>
<path d="M146.697 159.026C145.012 157.338 142.28 157.338 140.595 159.026C138.91 160.715 138.91 163.452 140.595 165.141C142.28 166.829 145.012 166.829 146.697 165.141L146.705 165.132C148.382 163.444 148.378 160.711 146.697 159.026Z" fill="white"/>
<path d="M178.018 166.455C175.509 163.941 171.437 163.941 168.928 166.455C167.52 167.865 166.844 169.853 167.1 171.832C167.1 171.857 167.1 171.878 167.109 171.904C167.252 172.931 167.638 173.904 168.239 174.746C168.256 174.767 168.273 174.788 168.285 174.809C168.479 175.075 168.693 175.323 168.924 175.555C171.437 178.073 175.505 178.073 178.018 175.555C180.531 173.036 180.531 168.96 178.018 166.442V166.455Z" fill="white"/>
<path d="M149.815 186.28C149.071 185.872 148.399 185.35 147.815 184.735C147.882 184.823 148.294 185.543 146.298 188.07C144.386 190.496 143.469 190.323 143.293 190.26C144.087 190.605 144.797 191.127 145.361 191.788C145.335 191.729 145.02 190.912 146.878 188.571C148.807 186.141 149.819 186.285 149.819 186.285H149.815V186.28Z" fill="white"/>
<path d="M148.087 168.91C146.376 166.05 146.729 165.12 146.729 165.12L146.708 165.132L146.7 165.141C146.204 165.638 145.59 166.008 144.918 166.215C144.947 166.215 145.7 166.244 147.381 169.188C149.045 172.11 148.503 172.868 148.473 172.906C149.099 172.375 149.797 171.942 150.554 171.622C150.554 171.622 149.801 171.765 148.087 168.905V168.91Z" fill="white"/>
<path d="M167.108 171.904C167.125 172.19 166.995 173.293 164.352 174.342C161.406 175.508 160.46 174.548 160.389 174.468C161.015 175.365 161.456 176.384 161.679 177.458C161.67 177.382 161.607 176.3 164.633 175.058C167.26 173.98 168.046 174.536 168.231 174.75C167.63 173.908 167.243 172.931 167.104 171.908L167.108 171.904Z" fill="white"/>
<path d="M166.247 195.507C167.726 195.507 168.924 194.306 168.924 192.824C168.924 191.343 167.726 190.142 166.247 190.142C164.769 190.142 163.57 191.343 163.57 192.824C163.57 194.306 164.769 195.507 166.247 195.507Z" fill="white"/>
<path d="M135.888 181.707C138.213 181.707 140.099 179.818 140.099 177.488C140.099 175.157 138.213 173.268 135.888 173.268C133.562 173.268 131.677 175.157 131.677 177.488C131.677 179.818 133.562 181.707 135.888 181.707Z" fill="white"/>
<path d="M158.72 166.762C159.625 166.762 160.359 166.027 160.359 165.12C160.359 164.213 159.625 163.477 158.72 163.477C157.815 163.477 157.081 164.213 157.081 165.12C157.081 166.027 157.815 166.762 158.72 166.762Z" fill="white"/>
<path d="M192.947 280.743H128.926V315.632H192.947V280.743Z" fill="#3D9BE9"/>
<path d="M193.997 316.688H127.875V279.694H193.997V316.688ZM129.976 314.583H191.896V281.8H129.976V314.583Z" fill="#333333"/>
<path d="M132.271 50.3348C132.271 56.4914 137.067 59.8686 154.477 59.8686H266.234C274.66 59.8686 278.094 54.2427 278.094 49.1768V36.7962H132.288V32.9263H283.641V49.1768C283.641 58.18 279.371 65.4946 269.432 65.4946H148.859C137.067 65.4946 134.259 59.3043 133.133 57.0514C132.007 54.7985 132.267 50.3306 132.267 50.3306L132.271 50.3348Z" fill="#333333"/>
<path d="M137.557 39.0449H135.456V54.2384H137.557V39.0449Z" fill="white"/>
<path d="M127.728 155.253H125.627V204.228H127.728V155.253Z" fill="white"/>
<path d="M127.728 326.947H125.627V345.842H127.728V326.947Z" fill="white"/>
<path d="M127.728 142.789H125.627C125.627 132.387 126.879 123.355 142.613 109.816L142.697 109.744C157.444 97.0566 159.339 95.4227 159.339 81.4209H161.441C161.441 96.3912 158.789 98.6736 144.067 111.34L143.983 111.412C128.896 124.395 127.728 132.606 127.728 142.789Z" fill="white"/>
<path d="M144.778 288.969V306.641H139.79V292.832H136.515V288.969H144.778Z" fill="white"/>
<path d="M155.215 306.994C153.704 306.994 152.36 306.632 151.184 305.909C150.009 305.185 149.085 304.133 148.413 302.753C147.758 301.356 147.431 299.707 147.431 297.805C147.431 295.903 147.758 294.262 148.413 292.882C149.085 291.485 150.009 290.425 151.184 289.701C152.36 288.978 153.704 288.616 155.215 288.616C156.71 288.616 158.046 288.978 159.221 289.701C160.397 290.425 161.312 291.485 161.967 292.882C162.639 294.262 162.975 295.903 162.975 297.805C162.975 299.707 162.639 301.356 161.967 302.753C161.312 304.133 160.397 305.185 159.221 305.909C158.046 306.632 156.71 306.994 155.215 306.994ZM155.215 302.905C156.055 302.905 156.719 302.501 157.206 301.693C157.71 300.868 157.962 299.572 157.962 297.805C157.962 296.038 157.71 294.75 157.206 293.942C156.719 293.118 156.055 292.705 155.215 292.705C154.359 292.705 153.679 293.118 153.175 293.942C152.688 294.75 152.444 296.038 152.444 297.805C152.444 299.572 152.688 300.868 153.175 301.693C153.679 302.501 154.359 302.905 155.215 302.905Z" fill="white"/>
<path d="M172.895 300.109C173.683 300.109 174.31 300.346 174.776 300.82C175.249 301.295 175.485 302.01 175.485 302.966V306.641H173.238V303.334C173.238 302.883 173.151 302.551 172.977 302.338C172.812 302.124 172.575 302.018 172.268 302.018C171.928 302.018 171.656 302.136 171.451 302.373C171.246 302.61 171.144 302.97 171.144 303.452V306.641H168.896V303.334C168.896 302.456 168.573 302.018 167.926 302.018C167.579 302.018 167.303 302.136 167.098 302.373C166.893 302.61 166.79 302.97 166.79 303.452V306.641H164.543V300.216H166.684V300.892C166.92 300.631 167.2 300.437 167.524 300.311C167.855 300.176 168.214 300.109 168.6 300.109C169.05 300.109 169.452 300.192 169.807 300.358C170.162 300.524 170.45 300.777 170.671 301.117C170.923 300.793 171.242 300.544 171.629 300.37C172.015 300.196 172.437 300.109 172.895 300.109Z" fill="white"/>
<path d="M183.893 300.216V305.467C183.893 306.661 183.57 307.554 182.923 308.146C182.277 308.747 181.346 309.047 180.131 309.047C179.5 309.047 178.909 308.976 178.357 308.834C177.805 308.692 177.336 308.482 176.949 308.206L177.765 306.629C178.026 306.842 178.353 307.008 178.747 307.127C179.149 307.253 179.544 307.317 179.93 307.317C180.522 307.317 180.956 307.186 181.232 306.925C181.508 306.665 181.646 306.277 181.646 305.764V305.55C181.212 306.056 180.577 306.309 179.741 306.309C179.173 306.309 178.649 306.183 178.168 305.93C177.687 305.669 177.304 305.305 177.02 304.839C176.736 304.365 176.594 303.82 176.594 303.203C176.594 302.595 176.736 302.057 177.02 301.591C177.304 301.117 177.687 300.753 178.168 300.5C178.649 300.24 179.173 300.109 179.741 300.109C180.656 300.109 181.326 300.406 181.752 300.998V300.216H183.893ZM180.273 304.519C180.676 304.519 181.007 304.396 181.267 304.152C181.535 303.907 181.669 303.59 181.669 303.203C181.669 302.816 181.539 302.504 181.279 302.267C181.019 302.022 180.683 301.899 180.273 301.899C179.863 301.899 179.524 302.022 179.256 302.267C178.996 302.504 178.866 302.816 178.866 303.203C178.866 303.59 179 303.907 179.268 304.152C179.536 304.396 179.871 304.519 180.273 304.519Z" fill="white"/>
<path d="M140.451 240.53C138.961 240.53 137.62 240.218 136.428 239.594C135.25 238.956 134.322 238.074 133.645 236.947C132.968 235.821 132.629 234.545 132.629 233.12C132.629 231.695 132.968 230.419 133.645 229.293C134.322 228.166 135.25 227.291 136.428 226.666C137.62 226.029 138.961 225.71 140.451 225.71C141.751 225.71 142.923 225.94 143.966 226.402C145.008 226.863 145.875 227.528 146.566 228.397L144.006 230.718C143.085 229.605 141.968 229.048 140.654 229.048C139.882 229.048 139.191 229.218 138.582 229.557C137.986 229.897 137.518 230.378 137.18 231.003C136.855 231.613 136.692 232.319 136.692 233.12C136.692 233.921 136.855 234.633 137.18 235.258C137.518 235.868 137.986 236.343 138.582 236.683C139.191 237.022 139.882 237.192 140.654 237.192C141.968 237.192 143.085 236.635 144.006 235.522L146.566 237.843C145.875 238.712 145.008 239.377 143.966 239.838C142.923 240.3 141.751 240.53 140.451 240.53Z" fill="#333333"/>
<path d="M151.468 240.53C150.425 240.53 149.477 240.354 148.624 240.001C147.77 239.635 147.073 239.112 146.531 238.433L148.725 235.828C149.484 236.818 150.303 237.314 151.184 237.314C151.766 237.314 152.206 237.137 152.504 236.784C152.816 236.432 152.971 235.916 152.971 235.237V229.109H148.055V225.995H156.954V234.993C156.954 236.839 156.486 238.223 155.552 239.146C154.631 240.069 153.269 240.53 151.468 240.53Z" fill="#333333"/>
<path d="M166.98 240.538C165.452 240.538 164.076 240.217 162.853 239.577C161.644 238.922 160.692 238.017 159.997 236.862C159.303 235.706 158.955 234.397 158.955 232.935C158.955 231.473 159.303 230.164 159.997 229.008C160.692 227.852 161.644 226.954 162.853 226.314C164.076 225.659 165.452 225.332 166.98 225.332C168.314 225.332 169.516 225.569 170.586 226.042C171.656 226.516 172.546 227.198 173.254 228.089L170.628 230.47C169.683 229.328 168.537 228.757 167.189 228.757C166.397 228.757 165.688 228.932 165.063 229.28C164.451 229.628 163.972 230.122 163.624 230.763C163.291 231.389 163.124 232.113 163.124 232.935C163.124 233.756 163.291 234.487 163.624 235.128C163.972 235.755 164.451 236.242 165.063 236.59C165.688 236.938 166.397 237.112 167.189 237.112C168.537 237.112 169.683 236.541 170.628 235.399L173.254 237.781C172.546 238.672 171.656 239.354 170.586 239.828C169.516 240.301 168.314 240.538 166.98 240.538Z" fill="#333333"/>
<path d="M174.473 232.768H180.56V235.817H174.473V232.768Z" fill="#333333"/>
<path d="M188.027 225.624V240.245H183.9V228.82H181.19V225.624H188.027Z" fill="#333333"/>
<path d="M201.499 236.966V240.245H190.138V237.655L195.6 232.538C196.128 232.037 196.482 231.612 196.663 231.264C196.843 230.902 196.934 230.54 196.934 230.178C196.934 229.704 196.774 229.335 196.454 229.071C196.135 228.806 195.669 228.674 195.058 228.674C194.516 228.674 194.015 228.799 193.557 229.05C193.112 229.287 192.744 229.635 192.452 230.094L189.388 228.382C189.958 227.435 190.757 226.69 191.785 226.147C192.813 225.604 194.029 225.332 195.433 225.332C196.545 225.332 197.524 225.513 198.372 225.875C199.233 226.237 199.9 226.759 200.373 227.442C200.859 228.11 201.102 228.89 201.102 229.781C201.102 230.575 200.929 231.327 200.581 232.037C200.248 232.733 199.595 233.527 198.622 234.418L195.871 236.966H201.499Z" fill="#333333"/>
<path d="M208.036 225.332C210.134 225.332 211.788 225.952 212.997 227.191C214.206 228.43 214.81 230.213 214.81 232.538C214.81 234.209 214.484 235.65 213.831 236.862C213.192 238.059 212.281 238.971 211.1 239.598C209.933 240.224 208.578 240.538 207.035 240.538C206.216 240.538 205.43 240.44 204.68 240.245C203.93 240.064 203.29 239.807 202.762 239.472L204.263 236.506C204.972 237.008 205.868 237.258 206.952 237.258C207.994 237.258 208.835 236.973 209.474 236.402C210.127 235.817 210.51 234.975 210.621 233.875C209.787 234.585 208.696 234.94 207.348 234.94C206.431 234.94 205.59 234.752 204.826 234.376C204.062 233.986 203.45 233.443 202.992 232.747C202.547 232.037 202.325 231.229 202.325 230.324C202.325 229.335 202.575 228.465 203.075 227.713C203.589 226.947 204.277 226.362 205.139 225.959C206.014 225.541 206.98 225.332 208.036 225.332ZM208.328 231.974C208.925 231.974 209.412 231.807 209.787 231.473C210.162 231.125 210.35 230.672 210.35 230.115C210.35 229.572 210.162 229.133 209.787 228.799C209.426 228.451 208.932 228.277 208.307 228.277C207.723 228.277 207.244 228.444 206.869 228.778C206.507 229.113 206.327 229.565 206.327 230.136C206.327 230.693 206.507 231.139 206.869 231.473C207.244 231.807 207.73 231.974 208.328 231.974Z" fill="#333333"/>
<path d="M221.698 230.951C223.74 230.951 225.248 231.368 226.221 232.204C227.208 233.039 227.701 234.153 227.701 235.546C227.701 236.451 227.465 237.286 226.992 238.052C226.534 238.804 225.825 239.41 224.866 239.869C223.921 240.315 222.747 240.538 221.343 240.538C220.315 240.538 219.294 240.412 218.279 240.162C217.279 239.911 216.417 239.556 215.695 239.096L217.174 235.984C217.758 236.374 218.397 236.674 219.092 236.882C219.801 237.091 220.51 237.196 221.218 237.196C221.927 237.196 222.49 237.063 222.907 236.799C223.337 236.52 223.553 236.137 223.553 235.65C223.553 235.163 223.344 234.794 222.927 234.543C222.511 234.292 221.774 234.167 220.718 234.167H216.758L217.487 225.624H226.784V228.82H220.906L220.718 230.951H221.698Z" fill="#333333"/>
<path d="M133.361 249.155H137.384V263.406H133.361V249.155Z" fill="#333333"/>
<path d="M146.953 248.785C148.273 248.785 149.42 249.008 150.392 249.453C151.365 249.885 152.116 250.512 152.644 251.333C153.172 252.141 153.436 253.095 153.436 254.195C153.436 255.295 153.172 256.249 152.644 257.056C152.116 257.864 151.365 258.491 150.392 258.936C149.42 259.368 148.273 259.584 146.953 259.584H144.41V263.406H140.283V248.785H146.953ZM146.703 256.325C147.551 256.325 148.19 256.144 148.621 255.782C149.051 255.406 149.267 254.877 149.267 254.195C149.267 253.512 149.051 252.983 148.621 252.607C148.19 252.231 147.551 252.043 146.703 252.043H144.41V256.325H146.703Z" fill="#333333"/>
<path d="M164.491 260.565H158.321L157.175 263.406H152.964L159.405 248.785H163.47L169.932 263.406H165.638L164.491 260.565ZM163.282 257.516L161.406 252.837L159.53 257.516H163.282Z" fill="#333333"/>
<path d="M184.275 263.406L184.234 255.657L180.482 261.965H178.647L174.916 255.866V263.406H171.102V248.785H174.499L179.627 257.223L184.63 248.785H188.027L188.069 263.406H184.275Z" fill="#333333"/>
<path d="M198.347 263.698C196.805 263.698 195.415 263.371 194.178 262.717C192.956 262.062 191.99 261.157 191.281 260.001C190.586 258.846 190.239 257.544 190.239 256.095C190.239 254.647 190.586 253.345 191.281 252.19C191.99 251.034 192.956 250.129 194.178 249.474C195.415 248.82 196.805 248.493 198.347 248.493C199.89 248.493 201.272 248.82 202.495 249.474C203.732 250.129 204.698 251.034 205.393 252.19C206.101 253.345 206.456 254.647 206.456 256.095C206.456 257.544 206.101 258.846 205.393 260.001C204.698 261.157 203.732 262.062 202.495 262.717C201.272 263.371 199.89 263.698 198.347 263.698ZM198.347 260.273C199.084 260.273 199.751 260.099 200.348 259.751C200.946 259.403 201.418 258.915 201.766 258.289C202.113 257.648 202.287 256.917 202.287 256.095C202.287 255.274 202.113 254.55 201.766 253.923C201.418 253.283 200.946 252.788 200.348 252.44C199.751 252.092 199.084 251.918 198.347 251.918C197.611 251.918 196.944 252.092 196.346 252.44C195.749 252.788 195.276 253.283 194.929 253.923C194.581 254.55 194.408 255.274 194.408 256.095C194.408 256.917 194.581 257.648 194.929 258.289C195.276 258.915 195.749 259.403 196.346 259.751C196.944 260.099 197.611 260.273 198.347 260.273Z" fill="#333333"/>
<path d="M214.996 259.521H212.745V263.406H208.617V248.785H215.288C216.608 248.785 217.754 249.008 218.727 249.453C219.7 249.885 220.45 250.512 220.978 251.333C221.506 252.141 221.77 253.095 221.77 254.195C221.77 255.253 221.52 256.179 221.02 256.973C220.533 257.753 219.832 258.365 218.914 258.811L222.062 263.406H217.643L214.996 259.521ZM217.601 254.195C217.601 253.512 217.386 252.983 216.955 252.607C216.524 252.231 215.885 252.043 215.037 252.043H212.745V256.325H215.037C215.885 256.325 216.524 256.144 216.955 255.782C217.386 255.406 217.601 254.877 217.601 254.195Z" fill="#333333"/>
<path d="M235.762 260.21V263.406H224.047V248.785H235.491V251.981H228.133V254.445H234.615V257.537H228.133V260.21H235.762Z" fill="#333333"/>
<path d="M238.052 248.785H242.179V260.127H249.141V263.406H238.052V248.785Z" fill="#333333"/>
<path d="M250.774 248.785H254.901V263.406H250.774V248.785Z" fill="#333333"/>
<path d="M271.72 248.785V263.406H268.322L261.882 255.615V263.406H257.838V248.785H261.235L267.676 256.576V248.785H271.72Z" fill="#333333"/>
</svg>
