<svg width="302" height="333" viewBox="0 0 302 333" fill="none" xmlns="http://www.w3.org/2000/svg">
<path d="M300.458 222.799L300.343 311.721C300.339 314.704 297.873 317.123 294.836 317.123H239.877C236.839 317.123 234.38 314.704 234.384 311.721L234.499 222.799C234.508 216.143 240.007 210.748 246.784 210.748H288.204C294.98 210.748 300.466 216.143 300.458 222.799Z" fill="#DCF0FF"/>
<path d="M286.908 199.989H248.994L248.982 210.495H286.895L286.908 199.989Z" fill="#DCF0FF"/>
<path d="M286.908 199.989L286.895 210.495H248.982L248.984 208.663C249.783 209.177 251.582 209.072 254.856 209.072H280.406C283.909 209.072 283.704 208.634 283.707 205.789C283.711 202.944 284.123 202.287 282.353 202.287H263.93C249.094 202.287 248.991 202.287 248.99 203.78L248.994 199.989H286.908Z" fill="#3D9BE9"/>
<path d="M287.411 211.041H248.467L248.48 199.441H287.425L287.411 211.041ZM249.498 209.947H286.382L286.393 200.535H249.509L249.498 209.947Z" fill="#242424"/>
<path d="M294.089 183.892L294.074 197.577C294.073 198.839 293.198 199.862 292.12 199.862H243.782C242.705 199.862 241.832 198.839 241.834 197.577L241.849 183.892H294.089Z" fill="#3D9BE9"/>
<path d="M294.089 183.892L294.076 195.777C294.073 198.032 292.509 199.862 290.583 199.862H245.319C243.394 199.862 241.833 198.032 241.836 195.777L241.837 194.678C241.835 196.67 244.031 196.749 247.036 196.749H278.01C288.18 196.749 290.029 197.29 290.031 195.396L290.035 192.147C290.037 189.711 289.806 189.711 287.943 189.711H264.611C241.958 189.711 241.842 190.253 241.84 192.258L241.849 183.892H294.089Z" fill="#242424"/>
<path d="M291.953 200.538H243.942C242.456 200.538 241.251 199.128 241.254 197.385L241.271 183.215H294.667L294.649 197.385C294.647 199.125 293.441 200.538 291.953 200.538ZM242.426 184.568L242.409 197.385C242.408 198.378 243.096 199.185 243.944 199.185H291.957C292.805 199.185 293.495 198.378 293.496 197.385L293.512 184.568H242.426Z" fill="#242424"/>
<path d="M296.281 171.262H239.685C238.73 171.262 237.954 172.199 237.953 173.352L237.944 181.598C237.943 182.751 238.717 183.688 239.672 183.688H296.268C297.223 183.688 297.999 182.751 298 181.598L298.009 173.352C298.01 172.199 297.236 171.262 296.281 171.262Z" fill="white"/>
<path d="M298.009 173.352L298 181.598C297.999 182.751 297.223 183.688 296.268 183.688H239.672C238.717 183.688 237.943 182.751 237.944 181.598L237.947 179.19C238.022 181.526 239.335 181.327 257.586 181.327H290.964C295.224 181.327 295.127 181.824 295.133 176.108C295.137 171.883 293.795 171.262 293.795 171.262H296.281C297.236 171.262 298.01 172.199 298.009 173.352Z" fill="#3D9BE9"/>
<path d="M296.267 184.309H239.67C238.432 184.309 237.427 183.091 237.429 181.598L237.438 173.352C237.439 171.858 238.448 170.64 239.684 170.64H296.281C297.519 170.64 298.523 171.858 298.522 173.352L298.513 181.598C298.512 183.094 297.503 184.309 296.267 184.309ZM239.683 171.883C239.013 171.883 238.467 172.541 238.466 173.352L238.457 181.598C238.456 182.408 239.001 183.067 239.671 183.067H296.268C296.938 183.067 297.484 182.408 297.485 181.598L297.494 173.352C297.494 172.541 296.95 171.883 296.28 171.883H239.683Z" fill="#242424"/>
<path d="M245.317 213.484C239.588 213.484 236.841 219.831 236.834 225.522C236.827 231.213 239.336 229.497 239.956 223.771C240.858 215.454 249.105 213.484 245.317 213.484Z" fill="white"/>
<path d="M294.843 317.669H239.87C236.53 317.669 233.823 315.01 233.828 311.727L233.943 222.856C233.952 215.865 239.728 210.2 246.843 210.2H288.145C295.262 210.2 301.022 215.867 301.013 222.856L300.898 311.727C300.894 315.008 298.183 317.669 294.841 317.669H294.843ZM246.842 211.295C240.342 211.295 235.065 216.471 235.057 222.856L234.942 311.63C234.938 314.362 237.188 316.575 239.969 316.575H294.746C297.527 316.575 299.783 314.362 299.786 311.63L299.901 222.856C299.909 216.471 294.646 211.295 288.146 211.295H246.842Z" fill="#242424"/>
<path d="M252.39 203.6C252.339 201.891 250.743 202.506 250.739 206.008C250.735 209.729 252.589 210.167 252.39 203.6Z" fill="white"/>
<path d="M245.655 192.147C245.656 190.688 244.039 189.711 244.035 193.23C244.032 196.749 245.649 197.561 245.655 192.147Z" fill="white"/>
<path d="M300.177 232.672H234.582L234.58 300.193H300.175L300.177 232.672Z" fill="white"/>
<path d="M300.459 221.841L300.343 311.721C300.339 314.704 297.873 317.123 294.836 317.123H239.877C236.84 317.123 234.38 314.704 234.384 311.721L234.392 305.645C234.384 311.76 234.939 313.73 249.2 313.73H289.9C297.555 313.73 296.087 312.855 296.104 300.379L296.204 222.896C296.215 214.524 290.803 211.729 288.329 210.857C288.329 210.857 292.563 210.857 295.234 213.046C298.555 215.767 300.463 218.857 300.459 221.841Z" fill="#3D9BE9"/>
<path d="M300.733 300.76H234.026L234.026 232.105H300.733L300.733 300.76ZM235.138 299.626H299.621L299.621 233.239H235.138L235.138 299.626Z" fill="#333333"/>
<path d="M213.957 226.139V319.699C213.957 322.129 211.99 324.1 209.564 324.1H73.0176C70.5917 324.1 68.625 322.129 68.625 319.699V226.139C68.625 223.708 70.5917 221.738 73.0176 221.738H209.566C211.885 221.738 213.784 223.538 213.947 225.821C213.954 225.926 213.959 226.031 213.959 226.139H213.957Z" fill="white"/>
<path d="M209.565 324.725H73.0161C70.2507 324.725 68.002 322.472 68.002 319.701V226.039C68.002 223.268 70.2507 221.015 73.0161 221.015H209.565C212.33 221.015 214.579 223.268 214.579 226.039V319.701C214.579 322.472 212.33 324.725 209.565 324.725ZM73.0161 222.265C70.9395 222.265 69.2499 223.958 69.2499 226.039V319.701C69.2499 321.782 70.9395 323.474 73.0161 323.474H209.565C211.641 323.474 213.331 321.782 213.331 319.701V226.039C213.331 223.958 211.641 222.265 209.565 222.265H73.0161Z" fill="black"/>
<path d="M213.957 231.062H68.625V314.18H213.957V231.062Z" fill="white"/>
<path d="M99.3361 291.766H74.9444C73.5329 291.766 72.3887 292.912 72.3887 294.326V307.655C72.3887 309.069 73.5329 310.215 74.9444 310.215H99.3361C100.748 310.215 101.892 309.069 101.892 307.655V294.326C101.892 292.912 100.748 291.766 99.3361 291.766Z" fill="#3D9BE9"/>
<path d="M213.956 255.462H68.624V271.929H213.956V255.462Z" fill="#3D9BE9"/>
<path d="M214.58 272.552H68V254.835H214.58V272.552ZM69.2479 271.302H213.332V256.085H69.2479V271.302Z" fill="black"/>
<path d="M214.58 314.805H68V230.437H214.58V314.805ZM69.2479 313.555H213.332V231.687H69.2479V313.555Z" fill="black"/>
<path d="M210.101 199.323H72.481C70.3514 199.323 68.625 201.053 68.625 203.186V217.878C68.625 220.011 70.3514 221.741 72.481 221.741H210.101C212.23 221.741 213.957 220.011 213.957 217.878V203.186C213.957 201.053 212.23 199.323 210.101 199.323Z" fill="white"/>
<path d="M210.102 222.364H72.48C70.0091 222.364 68 220.351 68 217.876V203.184C68 200.709 70.0091 198.696 72.48 198.696H210.102C212.573 198.696 214.582 200.709 214.582 203.184V217.876C214.582 220.351 212.573 222.364 210.102 222.364ZM72.48 199.946C70.698 199.946 69.2479 201.399 69.2479 203.184V217.876C69.2479 219.661 70.698 221.114 72.48 221.114H210.102C211.884 221.114 213.334 219.661 213.334 217.876V203.184C213.334 201.399 211.884 199.946 210.102 199.946H72.48Z" fill="black"/>
<path d="M142.231 308.799L141.385 307.574H140.452V308.799H139.436V304.403H141.335C141.725 304.403 142.062 304.468 142.349 304.598C142.636 304.728 142.855 304.913 143.01 305.151C143.165 305.388 143.242 305.671 143.242 305.998C143.242 306.326 143.165 306.606 143.008 306.843C142.85 307.081 142.628 307.261 142.341 307.386L143.325 308.799H142.234H142.231ZM141.974 305.428C141.814 305.296 141.582 305.231 141.278 305.231H140.449V306.763H141.278C141.582 306.763 141.814 306.696 141.974 306.563C142.134 306.428 142.211 306.241 142.211 305.998C142.211 305.756 142.131 305.561 141.974 305.431V305.428Z" fill="black"/>
<path d="M147.444 307.983V308.801H144.044V304.405H147.361V305.222H145.052V306.178H147.089V306.97H145.052V307.988H147.441L147.444 307.983Z" fill="black"/>
<path d="M148.685 308.733C148.36 308.638 148.101 308.516 147.903 308.366L148.248 307.6C148.435 307.738 148.66 307.851 148.919 307.933C149.179 308.016 149.439 308.058 149.698 308.058C149.988 308.058 150.2 308.016 150.337 307.931C150.474 307.846 150.544 307.731 150.544 307.588C150.544 307.483 150.504 307.395 150.422 307.328C150.34 307.258 150.235 307.203 150.108 307.16C149.98 307.118 149.808 307.073 149.591 307.023C149.256 306.943 148.982 306.863 148.77 306.783C148.557 306.703 148.373 306.575 148.22 306.4C148.068 306.225 147.991 305.99 147.991 305.697C147.991 305.442 148.061 305.21 148.198 305.002C148.335 304.795 148.545 304.63 148.822 304.51C149.099 304.387 149.439 304.327 149.84 304.327C150.12 304.327 150.395 304.36 150.662 304.427C150.929 304.495 151.163 304.59 151.363 304.717L151.049 305.49C150.644 305.26 150.237 305.145 149.833 305.145C149.548 305.145 149.339 305.19 149.201 305.282C149.067 305.375 148.997 305.495 148.997 305.647C148.997 305.8 149.074 305.91 149.231 305.983C149.389 306.055 149.628 306.128 149.95 306.2C150.285 306.28 150.559 306.36 150.772 306.44C150.984 306.52 151.168 306.645 151.321 306.818C151.473 306.99 151.55 307.223 151.55 307.515C151.55 307.766 151.48 307.996 151.341 308.203C151.201 308.411 150.991 308.576 150.712 308.696C150.432 308.818 150.09 308.878 149.691 308.878C149.344 308.878 149.009 308.831 148.685 308.736V308.733Z" fill="black"/>
<path d="M155.649 307.983V308.801H152.249V304.405H155.567V305.222H153.258V306.178H155.294V306.97H153.258V307.988H155.646L155.649 307.983Z" fill="black"/>
<path d="M159.349 307.858H157.312L156.923 308.801H155.882L157.839 304.405H158.842L160.804 308.801H159.738L159.349 307.858ZM159.029 307.085L158.333 305.403L157.636 307.085H159.029Z" fill="black"/>
<path d="M164.058 308.799L163.211 307.574H162.278V308.799H161.262V304.403H163.161C163.551 304.403 163.888 304.468 164.175 304.598C164.462 304.728 164.682 304.913 164.836 305.151C164.991 305.388 165.069 305.671 165.069 305.998C165.069 306.326 164.991 306.606 164.834 306.843C164.677 307.081 164.454 307.261 164.167 307.386L165.151 308.799H164.06H164.058ZM163.8 305.428C163.641 305.296 163.408 305.231 163.104 305.231H162.275V306.763H163.104C163.408 306.763 163.641 306.696 163.8 306.563C163.96 306.428 164.038 306.241 164.038 305.998C164.038 305.756 163.958 305.561 163.8 305.431V305.428Z" fill="black"/>
<path d="M166.755 308.583C166.393 308.388 166.109 308.118 165.901 307.773C165.694 307.428 165.592 307.038 165.592 306.6C165.592 306.163 165.697 305.775 165.901 305.43C166.106 305.085 166.393 304.815 166.755 304.62C167.117 304.425 167.524 304.327 167.976 304.327C168.355 304.327 168.7 304.395 169.007 304.527C169.314 304.662 169.573 304.855 169.781 305.105L169.129 305.708C168.832 305.365 168.465 305.192 168.026 305.192C167.754 305.192 167.511 305.252 167.299 305.372C167.087 305.492 166.92 305.658 166.8 305.873C166.68 306.085 166.62 306.33 166.62 306.6C166.62 306.87 166.68 307.115 166.8 307.328C166.92 307.54 167.085 307.708 167.299 307.828C167.511 307.948 167.756 308.008 168.026 308.008C168.465 308.008 168.832 307.833 169.129 307.488L169.781 308.091C169.571 308.346 169.311 308.541 169.004 308.676C168.695 308.811 168.35 308.876 167.968 308.876C167.521 308.876 167.117 308.778 166.755 308.583Z" fill="black"/>
<path d="M174.489 304.403V308.799H173.473V306.996H171.479V308.799H170.463V304.403H171.479V306.136H173.473V304.403H174.489Z" fill="black"/>
<path d="M177.792 308.354C177.442 308.006 177.268 307.509 177.268 306.866V304.403H178.284V306.828C178.284 307.616 178.611 308.009 179.262 308.009C179.579 308.009 179.821 307.914 179.988 307.724C180.156 307.534 180.238 307.234 180.238 306.828V304.403H181.242V306.866C181.242 307.511 181.067 308.006 180.717 308.354C180.368 308.701 179.881 308.874 179.252 308.874C178.623 308.874 178.136 308.699 177.787 308.354H177.792Z" fill="black"/>
<path d="M182.682 308.733C182.357 308.638 182.098 308.516 181.9 308.366L182.245 307.6C182.432 307.738 182.657 307.851 182.916 307.933C183.176 308.016 183.436 308.058 183.695 308.058C183.985 308.058 184.197 308.016 184.334 307.931C184.472 307.846 184.541 307.731 184.541 307.588C184.541 307.483 184.501 307.395 184.419 307.328C184.337 307.258 184.232 307.203 184.105 307.16C183.977 307.118 183.805 307.073 183.588 307.023C183.253 306.943 182.979 306.863 182.767 306.783C182.554 306.703 182.37 306.575 182.217 306.4C182.065 306.225 181.988 305.99 181.988 305.697C181.988 305.442 182.058 305.21 182.195 305.002C182.332 304.795 182.542 304.63 182.819 304.51C183.096 304.387 183.436 304.327 183.837 304.327C184.117 304.327 184.392 304.36 184.659 304.427C184.926 304.495 185.16 304.59 185.36 304.717L185.046 305.49C184.641 305.26 184.234 305.145 183.83 305.145C183.545 305.145 183.336 305.19 183.198 305.282C183.064 305.375 182.994 305.495 182.994 305.647C182.994 305.8 183.071 305.91 183.228 305.983C183.386 306.055 183.625 306.128 183.947 306.2C184.282 306.28 184.556 306.36 184.769 306.44C184.981 306.52 185.165 306.645 185.318 306.818C185.47 306.99 185.547 307.223 185.547 307.515C185.547 307.766 185.478 307.996 185.338 308.203C185.198 308.411 184.988 308.576 184.709 308.696C184.429 308.818 184.087 308.878 183.688 308.878C183.341 308.878 183.006 308.831 182.682 308.736V308.733Z" fill="black"/>
<path d="M189.645 307.983V308.801H186.245V304.405H189.563V305.222H187.254V306.178H189.291V306.97H187.254V307.988H189.643L189.645 307.983Z" fill="black"/>
<path d="M193.121 308.582C192.754 308.384 192.47 308.114 192.263 307.769C192.055 307.424 191.953 307.036 191.953 306.604C191.953 306.171 192.058 305.783 192.263 305.438C192.47 305.093 192.757 304.821 193.121 304.626C193.486 304.428 193.897 304.331 194.354 304.331C194.811 304.331 195.22 304.428 195.582 304.626C195.944 304.823 196.231 305.093 196.441 305.438C196.65 305.783 196.755 306.174 196.755 306.604C196.755 307.034 196.65 307.424 196.441 307.769C196.231 308.114 195.946 308.387 195.582 308.582C195.218 308.777 194.808 308.877 194.354 308.877C193.9 308.877 193.488 308.779 193.121 308.582ZM195.055 307.831C195.265 307.711 195.43 307.546 195.547 307.331C195.667 307.119 195.727 306.874 195.727 306.604C195.727 306.334 195.667 306.089 195.547 305.876C195.427 305.663 195.265 305.496 195.055 305.376C194.846 305.256 194.611 305.196 194.354 305.196C194.097 305.196 193.86 305.256 193.653 305.376C193.443 305.496 193.278 305.661 193.161 305.876C193.041 306.089 192.981 306.334 192.981 306.604C192.981 306.874 193.041 307.119 193.161 307.331C193.281 307.544 193.443 307.711 193.653 307.831C193.862 307.951 194.095 308.012 194.354 308.012C194.614 308.012 194.848 307.951 195.055 307.831Z" fill="black"/>
<path d="M201.546 304.403V308.799H200.712L198.523 306.128V308.799H197.52V304.403H198.361L200.543 307.074V304.403H201.546Z" fill="black"/>
<path d="M202.586 304.403H203.602V307.971H205.804V308.801H202.586V304.405V304.403Z" fill="black"/>
<path d="M208.03 307.241V308.799H207.014V307.229L205.314 304.403H206.393L207.566 306.356L208.739 304.403H209.735L208.03 307.241Z" fill="black"/>
<path d="M75.0482 267.821C74.4367 267.643 73.9475 267.413 73.5781 267.128L74.227 265.685C74.5814 265.945 75.0032 266.155 75.4924 266.313C75.9816 266.47 76.4683 266.55 76.9575 266.55C77.5015 266.55 77.9034 266.47 78.1629 266.308C78.4225 266.145 78.5523 265.93 78.5523 265.663C78.5523 265.465 78.4749 265.302 78.3227 265.172C78.1679 265.042 77.9708 264.937 77.7312 264.86C77.4916 264.78 77.1671 264.695 76.7553 264.6C76.1239 264.45 75.6097 264.3 75.2079 264.15C74.8061 264 74.4616 263.76 74.1746 263.427C73.8876 263.094 73.7429 262.654 73.7429 262.102C73.7429 261.622 73.8726 261.184 74.1322 260.794C74.3918 260.404 74.7836 260.094 75.3077 259.864C75.8318 259.634 76.4708 259.521 77.227 259.521C77.7536 259.521 78.2703 259.584 78.7744 259.711C79.2786 259.836 79.7203 260.019 80.0972 260.256L79.5057 261.712C78.742 261.276 77.9783 261.061 77.2145 261.061C76.6779 261.061 76.2836 261.149 76.0265 261.321C75.7695 261.494 75.6422 261.724 75.6422 262.009C75.6422 262.294 75.7894 262.504 76.0839 262.642C76.3784 262.779 76.8302 262.917 77.4367 263.049C78.0656 263.199 78.5822 263.349 78.9841 263.499C79.3859 263.65 79.7303 263.887 80.0173 264.21C80.3044 264.532 80.4491 264.972 80.4491 265.523C80.4491 265.995 80.3168 266.428 80.0523 266.818C79.7877 267.208 79.3934 267.518 78.8643 267.748C78.3352 267.978 77.6937 268.091 76.94 268.091C76.2861 268.091 75.6546 268.001 75.0432 267.823L75.0482 267.821Z" fill="white"/>
<path d="M88.168 266.406V267.944H81.7637V259.659H88.0132V261.197H83.6655V262.998H87.5041V264.488H83.6655V266.406H88.168Z" fill="white"/>
<path d="M94.9581 267.944L93.3633 265.636H91.6037V267.944H89.6895V259.659H93.2685C93.9997 259.659 94.6362 259.782 95.1753 260.027C95.7144 260.272 96.1312 260.619 96.4207 261.07C96.7127 261.52 96.8574 262.052 96.8574 262.667C96.8574 263.283 96.7102 263.813 96.4157 264.26C96.1212 264.705 95.7019 265.048 95.1578 265.283L97.0122 267.946H94.9556L94.9581 267.944ZM94.4739 261.592C94.1744 261.345 93.7377 261.22 93.1636 261.22H91.6037V264.108H93.1636C93.7377 264.108 94.1744 263.983 94.4739 263.73C94.7734 263.478 94.9232 263.123 94.9232 262.665C94.9232 262.207 94.7734 261.842 94.4739 261.595V261.592Z" fill="white"/>
<path d="M99.2886 267.103C98.6297 266.448 98.3027 265.513 98.3027 264.297V259.656H100.217V264.225C100.217 265.708 100.831 266.451 102.059 266.451C102.658 266.451 103.115 266.27 103.429 265.913C103.744 265.553 103.901 264.993 103.901 264.225V259.656H105.79V264.297C105.79 265.513 105.461 266.448 104.804 267.103C104.145 267.758 103.227 268.086 102.046 268.086C100.866 268.086 99.945 267.758 99.2886 267.103Z" fill="white"/>
<path d="M115.21 267.943L115.198 262.972L112.764 267.068H111.901L109.48 263.08V267.946H107.683V259.661H109.265L112.36 264.81L115.407 259.661H116.977L117 267.946H115.203L115.21 267.943Z" fill="white"/>
<path d="M129.492 264.388C129.759 264.738 129.893 265.171 129.893 265.683C129.893 266.408 129.611 266.969 129.05 267.359C128.486 267.749 127.665 267.944 126.586 267.944H122.309V259.659H126.349C127.358 259.659 128.131 259.852 128.67 260.239C129.21 260.627 129.479 261.152 129.479 261.815C129.479 262.217 129.382 262.575 129.19 262.893C128.997 263.208 128.728 263.458 128.381 263.638C128.853 263.788 129.225 264.038 129.492 264.39V264.388ZM124.21 261.105V263.058H126.112C126.584 263.058 126.943 262.975 127.188 262.81C127.433 262.645 127.555 262.4 127.555 262.075C127.555 261.75 127.433 261.51 127.188 261.347C126.943 261.185 126.586 261.105 126.112 261.105H124.21ZM127.582 266.253C127.837 266.088 127.967 265.831 127.967 265.483C127.967 264.796 127.457 264.453 126.442 264.453H124.208V266.501H126.442C126.946 266.501 127.325 266.418 127.582 266.253Z" fill="white"/>
<path d="M136.795 266.168H132.957L132.225 267.944H130.264L133.95 259.659H135.839L139.538 267.944H137.529L136.798 266.168H136.795ZM136.191 264.713L134.881 261.54L133.571 264.713H136.194H136.191Z" fill="white"/>
<path d="M141.216 267.821C140.605 267.643 140.115 267.413 139.746 267.128L140.395 265.685C140.749 265.945 141.171 266.155 141.66 266.313C142.15 266.47 142.636 266.55 143.125 266.55C143.67 266.55 144.071 266.47 144.331 266.308C144.59 266.145 144.72 265.93 144.72 265.663C144.72 265.465 144.643 265.302 144.491 265.172C144.336 265.042 144.139 264.937 143.899 264.86C143.66 264.78 143.335 264.695 142.923 264.6C142.292 264.45 141.778 264.3 141.376 264.15C140.974 264 140.63 263.76 140.343 263.427C140.056 263.094 139.911 262.654 139.911 262.102C139.911 261.622 140.041 261.184 140.3 260.794C140.56 260.404 140.952 260.094 141.476 259.864C142 259.634 142.639 259.521 143.395 259.521C143.922 259.521 144.438 259.584 144.942 259.711C145.447 259.836 145.888 260.019 146.265 260.256L145.674 261.712C144.91 261.276 144.146 261.061 143.383 261.061C142.846 261.061 142.452 261.149 142.194 261.321C141.937 261.494 141.81 261.724 141.81 262.009C141.81 262.294 141.957 262.504 142.252 262.642C142.546 262.779 142.998 262.917 143.605 263.049C144.234 263.199 144.75 263.349 145.152 263.499C145.554 263.65 145.898 263.887 146.185 264.21C146.472 264.532 146.617 264.972 146.617 265.523C146.617 265.995 146.485 266.428 146.22 266.818C145.956 267.208 145.561 267.518 145.032 267.748C144.503 267.978 143.862 268.091 143.108 268.091C142.454 268.091 141.823 268.001 141.211 267.823L141.216 267.821Z" fill="white"/>
<path d="M154.336 266.406V267.944H147.932V259.659H154.181V261.197H149.833V262.998H153.672V264.488H149.833V266.406H154.336Z" fill="white"/>
<path d="M83.2935 303.723V305.266H77.1263V304.038L80.2736 301.06C80.608 300.74 80.8326 300.467 80.9499 300.237C81.0672 300.007 81.1246 299.779 81.1246 299.554C81.1246 299.227 81.0148 298.977 80.7927 298.802C80.5706 298.627 80.2461 298.539 79.8193 298.539C79.4624 298.539 79.138 298.607 78.8509 298.744C78.5639 298.879 78.3218 299.084 78.1272 299.357L76.752 298.469C77.0714 297.994 77.5107 297.621 78.0698 297.354C78.6288 297.084 79.2702 296.951 79.994 296.951C80.6005 296.951 81.1296 297.051 81.5864 297.249C82.0406 297.446 82.395 297.729 82.6471 298.089C82.8992 298.452 83.0265 298.877 83.0265 299.369C83.0265 299.814 82.9341 300.23 82.7469 300.62C82.5597 301.01 82.1978 301.452 81.6637 301.952L79.7869 303.728H83.296L83.2935 303.723Z" fill="white"/>
<path d="M85.5501 304.943C85.026 304.665 84.6142 304.283 84.3197 303.792C84.0252 303.302 83.8779 302.745 83.8779 302.122C83.8779 301.499 84.0252 300.942 84.3197 300.452C84.6142 299.962 85.026 299.576 85.5501 299.301C86.0743 299.024 86.6683 298.886 87.3272 298.886C87.9861 298.886 88.5776 299.024 89.0992 299.301C89.6208 299.579 90.0276 299.962 90.3246 300.452C90.6191 300.942 90.7664 301.499 90.7664 302.122C90.7664 302.745 90.6191 303.302 90.3246 303.792C90.0301 304.283 89.6208 304.668 89.0992 304.943C88.5776 305.22 87.9885 305.358 87.3272 305.358C86.6658 305.358 86.0743 305.22 85.5501 304.943ZM88.4752 303.39C88.7747 303.075 88.9245 302.652 88.9245 302.122C88.9245 301.592 88.7747 301.169 88.4752 300.854C88.1757 300.539 87.7939 300.382 87.3272 300.382C86.8604 300.382 86.4761 300.539 86.1741 300.854C85.8721 301.169 85.7198 301.592 85.7198 302.122C85.7198 302.652 85.8721 303.075 86.1741 303.39C86.4761 303.705 86.8629 303.863 87.3272 303.863C87.7914 303.863 88.1757 303.705 88.4752 303.39Z" fill="white"/>
<path d="M97.0624 303.863V305.266H91.4668V304.168L94.6614 300.382H91.5492V298.979H96.9576V300.077L93.763 303.86H97.0624V303.863Z" fill="white"/>
<path d="M104.532 242.091C104.532 244.172 102.972 245.465 100.486 245.465H98.6071V248.038H96.4482V238.703H100.484C102.972 238.703 104.53 240.001 104.53 242.091H104.532ZM102.348 242.091C102.348 241.064 101.682 240.464 100.364 240.464H98.6071V243.704H100.364C101.684 243.709 102.348 243.109 102.348 242.091Z" fill="#3D9BE9"/>
<path d="M113.281 246.311V248.046H106.065V238.706H113.109V240.442H108.209V242.472H112.535V244.15H108.209V246.313H113.281V246.311Z" fill="#3D9BE9"/>
<path d="M123.079 242.091C123.079 244.172 121.519 245.465 119.033 245.465H117.154V248.038H114.995V238.703H119.031C121.519 238.703 123.077 240.001 123.077 242.091H123.079ZM120.895 242.091C120.895 241.064 120.229 240.464 118.911 240.464H117.154V243.704H118.911C120.231 243.709 120.895 243.109 120.895 242.091Z" fill="#3D9BE9"/>
<path d="M126.289 240.464H123.309V238.703H131.432V240.464H128.452V248.043H126.294V240.464H126.289Z" fill="#3D9BE9"/>
<path d="M132.587 238.703H134.746V248.043H132.587V238.703Z" fill="#3D9BE9"/>
<path d="M136.949 238.703H141.185C144.237 238.703 146.324 240.544 146.324 243.374C146.324 246.205 144.232 248.046 141.185 248.046H136.949V238.706V238.703ZM141.077 246.268C142.932 246.268 144.14 245.157 144.14 243.372C144.14 241.586 142.927 240.476 141.077 240.476H139.108V246.265H141.077V246.268Z" fill="#3D9BE9"/>
<path d="M155.17 246.311V248.046H147.955V238.706H154.998V240.442H150.099V242.472H154.424V244.15H150.099V246.313H155.17V246.311Z" fill="#3D9BE9"/>
<path d="M161.722 246.906L162.109 246.148C162.775 246.798 163.963 247.284 165.186 247.284C166.933 247.284 167.689 246.551 167.689 245.631C167.689 243.067 161.951 244.643 161.951 241.189C161.951 239.817 163.017 238.631 165.388 238.631C166.439 238.631 167.532 238.936 168.278 239.462L167.944 240.249C167.148 239.729 166.212 239.477 165.391 239.477C163.683 239.477 162.927 240.234 162.927 241.169C162.927 243.733 168.665 242.182 168.665 245.586C168.665 246.958 167.574 248.134 165.191 248.134C163.788 248.124 162.413 247.631 161.722 246.908V246.906Z" fill="black"/>
<path d="M178.593 238.699V248.039H177.617V243.73H171.782V248.039H170.796V238.699H171.782V242.86H177.617V238.699H178.593Z" fill="black"/>
<path d="M180.802 243.369C180.802 240.649 182.878 238.618 185.701 238.618C188.524 238.618 190.585 240.634 190.585 243.369C190.585 246.105 188.494 248.121 185.701 248.121C182.908 248.121 180.802 246.09 180.802 243.369ZM189.602 243.369C189.602 241.141 187.937 239.503 185.704 239.503C183.47 239.503 181.773 241.146 181.773 243.369C181.773 245.592 183.447 247.235 185.704 247.235C187.96 247.235 189.602 245.597 189.602 243.369Z" fill="black"/>
<path d="M200.098 241.904C200.098 243.892 198.66 245.094 196.289 245.094H193.786V248.045H192.8V238.7H196.289C198.655 238.7 200.098 239.901 200.098 241.906V241.904ZM199.107 241.904C199.107 240.408 198.121 239.553 196.259 239.553H193.781V244.224H196.259C198.123 244.224 199.107 243.369 199.107 241.904Z" fill="black"/>
<path d="M85.134 243.222C85.134 245.072 83.6365 246.575 81.7871 246.575C81.2256 246.575 80.674 246.432 80.1823 246.162C79.8778 245.995 79.5983 245.78 79.3612 245.527C78.0933 244.182 78.1532 242.061 79.496 240.791C79.5409 240.748 79.5858 240.708 79.6307 240.668C79.8878 240.448 80.1748 240.268 80.4843 240.133C81.9394 239.518 83.6241 240.006 84.53 241.301C84.7871 241.671 84.9693 242.089 85.0617 242.531C85.1091 242.759 85.134 242.989 85.134 243.222Z" fill="#3D9BE9"/>
<path d="M78.3494 248.428C78.1172 248.155 77.8277 247.94 77.4983 247.8L77.4858 247.795C76.2928 247.283 74.9101 247.835 74.401 249.031C73.8893 250.226 74.4409 251.611 75.6339 252.121C76.8269 252.634 78.2096 252.081 78.7187 250.886C79.0706 250.063 78.9259 249.111 78.3469 248.431L78.3494 248.428Z" fill="#3D9BE9"/>
<path d="M78.896 234.956C78.202 234.26 77.0787 234.263 76.3848 234.956C75.6908 235.651 75.6933 236.776 76.3848 237.471C77.0787 238.164 78.202 238.164 78.8935 237.471L78.8985 237.466C79.5875 236.771 79.5875 235.648 78.8935 234.956H78.896Z" fill="#3D9BE9"/>
<path d="M91.7793 238.011C90.7461 236.976 89.0739 236.976 88.0406 238.011C87.4616 238.591 87.1845 239.409 87.2894 240.222C87.2894 240.222 87.2894 240.242 87.2919 240.252C87.3518 240.674 87.5115 241.075 87.7586 241.422C87.7636 241.432 87.7711 241.44 87.7786 241.45C87.8584 241.557 87.9458 241.66 88.0406 241.755C89.0739 242.79 90.7486 242.79 91.7818 241.755C92.8151 240.72 92.8151 239.042 91.7818 238.006V238.011H91.7793Z" fill="#3D9BE9"/>
<path d="M80.179 246.163C79.8745 245.995 79.5949 245.78 79.3577 245.527C79.3852 245.565 79.5549 245.86 78.7337 246.9C77.9474 247.898 77.5704 247.828 77.498 247.8C77.8251 247.943 78.1171 248.158 78.3493 248.428C78.3393 248.403 78.2095 248.068 78.9733 247.105C79.7671 246.105 80.184 246.165 80.184 246.165L80.179 246.163Z" fill="#3D9BE9"/>
<path d="M79.4716 239.019C78.7676 237.844 78.9149 237.461 78.9149 237.461L78.9049 237.466L78.8999 237.471C78.6952 237.676 78.4431 237.829 78.166 237.914C78.166 237.914 78.488 237.926 79.1795 239.136C79.866 240.339 79.6413 240.649 79.6288 240.664C79.8859 240.447 80.173 240.267 80.485 240.137C80.485 240.137 80.1755 240.197 79.4716 239.021V239.019Z" fill="#3D9BE9"/>
<path d="M87.2927 240.251C87.3001 240.369 87.2452 240.824 86.1593 241.254C84.9487 241.734 84.5593 241.339 84.5293 241.306C84.7864 241.676 84.9686 242.094 85.061 242.537C85.0585 242.507 85.031 242.061 86.2767 241.549C87.3576 241.106 87.6796 241.334 87.757 241.421C87.5098 241.074 87.3526 240.674 87.2927 240.251Z" fill="#3D9BE9"/>
<path d="M86.9378 249.956C87.5457 249.956 88.0386 249.462 88.0386 248.853C88.0386 248.244 87.5457 247.75 86.9378 247.75C86.3298 247.75 85.8369 248.244 85.8369 248.853C85.8369 249.462 86.3298 249.956 86.9378 249.956Z" fill="#3D9BE9"/>
<path d="M74.4512 244.282C75.4079 244.282 76.1836 243.505 76.1836 242.546C76.1836 241.588 75.4079 240.811 74.4512 240.811C73.4944 240.811 72.7188 241.588 72.7188 242.546C72.7188 243.505 73.4944 244.282 74.4512 244.282Z" fill="#3D9BE9"/>
<path d="M83.8429 238.136C84.2152 238.136 84.5169 237.834 84.5169 237.461C84.5169 237.088 84.2152 236.786 83.8429 236.786C83.4707 236.786 83.1689 237.088 83.1689 237.461C83.1689 237.834 83.4707 238.136 83.8429 238.136Z" fill="#3D9BE9"/>
<path d="M213.957 314.362V319.699C213.957 322.129 211.99 324.1 209.564 324.1H73.0176C70.5917 324.1 68.625 322.129 68.625 319.699V317.391C69.9528 320.374 74.1607 321.137 86.9368 321.137H180.273C196.291 321.137 213.957 321.719 213.957 314.365V314.362Z" fill="black"/>
<path d="M213.944 225.821C213.105 224.541 211.42 224.564 209.005 224.564H81.785C73.9556 224.564 70.2618 225.201 68.6221 226.709V226.139C68.6221 223.708 70.5888 221.738 73.0147 221.738H209.564C211.882 221.738 213.782 223.538 213.944 225.821Z" fill="black"/>
<path d="M213.957 217.266V217.876C213.957 220.009 212.23 221.74 210.101 221.74H72.481C70.3521 221.74 68.625 220.009 68.625 217.876V216.826C68.625 219.557 72.4885 220.945 77.4976 220.945H204.453C210.505 220.945 213.957 219.754 213.957 217.266Z" fill="black"/>
<path d="M252.892 219.31V323.373C252.892 335.06 248.726 331.932 205.957 331.932C157.634 331.932 152.912 334.781 152.912 324.486V219.26C152.912 201.224 152.185 190.275 159.353 183.645C166.521 177.017 178.463 170.6 178.463 158.505V131.663C178.463 125.82 180.407 125.9 202.624 125.9C224.842 125.9 226.786 127.489 226.786 131.663V158.653C226.786 170.617 238.728 174.791 246.226 183.416C253.725 192.042 252.892 196.772 252.892 219.31Z" fill="#8EC5F2"/>
<path d="M238.029 333.007C235.191 333.007 231.827 332.946 227.839 332.87C222.029 332.762 214.8 332.628 205.958 332.628C195.704 332.628 187.392 332.756 180.713 332.859C163.239 333.129 156.698 333.229 153.916 330.486C152.505 329.095 152.216 327.08 152.216 324.484V219.258C152.216 217.686 152.21 216.166 152.205 214.7C152.149 199.458 152.113 189.388 158.879 183.13C160.398 181.725 162.1 180.353 163.9 178.904C170.398 173.664 177.766 167.727 177.766 158.503V131.661C177.766 128.497 178.408 126.744 181.921 125.94C185.14 125.203 191.027 125.208 201.714 125.203H202.622C224.384 125.203 227.478 126.58 227.478 131.661V158.65C227.478 166.508 232.955 170.952 238.751 175.654C241.5 177.883 244.341 180.189 246.746 182.958C253.684 190.938 253.667 195.654 253.598 213.2C253.59 215.081 253.584 217.11 253.584 219.308V323.371C253.584 326.652 253.267 328.994 251.69 330.547C249.668 332.536 245.811 333.007 238.026 333.007H238.029ZM205.958 331.237C214.814 331.237 222.049 331.371 227.864 331.479C241.947 331.741 248.374 331.86 250.718 329.554C251.951 328.343 252.198 326.29 252.198 323.371V219.308C252.198 217.107 252.206 215.076 252.212 213.195C252.279 196.063 252.298 191.458 245.702 183.87C243.375 181.194 240.581 178.929 237.879 176.736C231.816 171.817 226.09 167.173 226.09 158.65V131.661C226.09 129.93 225.865 128.734 222.846 127.885C219.635 126.981 213.587 126.597 202.622 126.597H201.714C191.122 126.597 185.298 126.597 182.229 127.298C179.577 127.904 179.152 128.873 179.152 131.661V158.503C179.152 168.395 171.509 174.555 164.769 179.989C162.989 181.425 161.306 182.78 159.82 184.154C153.502 189.997 153.535 199.294 153.594 214.697C153.599 216.166 153.605 217.686 153.605 219.26V324.487C153.605 327.18 153.966 328.585 154.89 329.498C157.259 331.835 164.119 331.727 180.691 331.471C187.373 331.368 195.69 331.24 205.955 331.24L205.958 331.237Z" fill="black"/>
<path d="M170.826 142.098C170.826 146.271 171.104 146.199 178.463 146.199H229.981C234.702 146.199 234.146 144.602 234.146 142.376C234.146 140.15 233.869 139.315 230.258 139.315H178.463C172.215 139.315 170.826 138.759 170.826 142.098Z" fill="#8EC5F2"/>
<path d="M177.738 146.893C174.313 146.893 172.564 146.873 171.503 146.297C170.131 145.551 170.131 144.026 170.131 142.098C170.131 141.105 170.225 140.092 170.906 139.421C171.797 138.542 173.25 138.562 176.144 138.6C176.829 138.609 177.599 138.62 178.462 138.62H230.257C234.204 138.62 234.84 139.727 234.84 142.376C234.84 142.591 234.845 142.797 234.851 142.997C234.876 144.01 234.904 145.059 234.151 145.83C233.434 146.567 232.149 146.895 229.98 146.895H177.738V146.893ZM174.663 139.975C173.214 139.975 172.247 140.047 171.883 140.409C171.633 140.657 171.522 141.177 171.522 142.095C171.522 144.099 171.611 144.769 172.167 145.073C172.953 145.501 174.891 145.498 178.088 145.501H229.982C231.674 145.501 232.743 145.284 233.16 144.856C233.484 144.519 233.487 143.971 233.465 143.03C233.459 142.819 233.454 142.599 233.454 142.374C233.454 140.509 233.454 140.008 230.26 140.008H178.465C177.596 140.008 176.818 139.997 176.127 139.989C175.596 139.981 175.108 139.975 174.663 139.975Z" fill="black"/>
<path d="M232.48 113.233V125.96C232.48 131.526 231.925 131.804 228.037 131.804H181.38C175.548 131.804 173.604 132.082 173.604 128.554V113.717L232.294 113.236H232.48V113.233Z" fill="#909493"/>
<path d="M181.11 131.803C179.591 130.829 179.852 123.038 179.852 115.525C179.852 115.525 175.408 112.186 175.686 116.36C175.964 120.534 174.575 131.386 177.283 131.775L181.11 131.803Z" fill="white"/>
<path d="M185.685 114.969C185.685 119.977 185.016 131.675 188.265 131.809C191.517 131.942 196.155 131.809 198.738 131.809C201.321 131.809 199.588 132.02 199.588 122.52C199.588 113.021 199.588 114.259 199.588 114.259L185.685 114.966V114.969Z" fill="white"/>
<path d="M210.957 116.082C210.957 120.812 210.746 131.803 212.934 131.803H222.54C224.565 131.803 222.343 131.386 222.343 125.542V114.206L210.957 116.082Z" fill="white"/>
<path d="M232.48 113.246V125.96C232.48 131.525 231.925 131.803 228.037 131.803H181.38C175.548 131.803 173.604 132.081 173.604 128.553V127.957C174.545 128.862 177.078 130.133 183.879 130.133H220.905C228.314 130.133 229.148 127.629 229.148 123.455C229.148 119.281 229.148 118.725 211.929 118.725C196.777 118.725 178.827 117.862 173.604 120.689V113.716L232.294 113.235C232.361 113.238 232.422 113.24 232.48 113.246Z" fill="black"/>
<path d="M179.209 132.226C178.426 132.226 177.895 132.218 177.431 132.201L177.465 131.366C177.917 131.383 178.439 131.391 179.212 131.391C179.523 131.391 179.85 131.391 180.192 131.391C180.57 131.391 180.967 131.391 181.383 131.391H183.011V132.226H181.383C180.967 132.226 180.572 132.226 180.195 132.226C179.85 132.226 179.523 132.226 179.212 132.226H179.209ZM227.546 132.221H221.972V131.386H227.546V132.221ZM219.189 132.221H210.841V131.386H219.189V132.221ZM205.278 132.221H199.713V131.386H205.278V132.221ZM196.93 132.221H188.582V131.386H196.93V132.221ZM174.546 131.633C173.596 131.108 173.193 130.186 173.193 128.553V123.333H174.027V128.553C174.027 130.17 174.471 130.637 174.951 130.902L174.549 131.633H174.546ZM232.609 130.025L231.801 129.819C231.992 129.073 232.07 127.955 232.07 125.96V121.594H232.903V125.96C232.903 127.71 232.853 129.071 232.609 130.028V130.025ZM232.903 118.806H232.07V113.23H232.903V118.806ZM174.027 117.776H173.193V113.299L175.104 113.282L175.112 114.117L174.029 114.125V117.773L174.027 117.776ZM177.887 114.095L177.878 113.26L186.21 113.191L186.218 114.025L177.887 114.095ZM191.773 113.981L191.765 113.146L197.319 113.101L197.327 113.936L191.773 113.981ZM200.104 113.911L200.096 113.076L208.428 113.007L208.436 113.842L200.104 113.911ZM213.99 113.797L213.982 112.962L219.537 112.918L219.545 113.753L213.99 113.797ZM222.322 113.728L222.314 112.893L230.645 112.823L230.654 113.658L222.322 113.728Z" fill="black"/>
<path d="M169.992 111.49C169.992 117.334 170.27 116.777 177.213 116.777H231.36C235.534 116.777 235.476 116.09 235.476 113.232V108.43C235.476 106.204 234.701 106.76 225.814 106.76H174.436C169.992 106.76 169.992 106.482 169.992 111.49Z" fill="#3D9BE9"/>
<path d="M174.377 117.487C172.214 117.487 171.022 117.381 170.239 116.605C169.342 115.712 169.298 114.159 169.298 111.49C169.298 108.822 169.298 107.514 170.059 106.752C170.761 106.051 171.831 106.056 173.772 106.062H174.436H225.814C227.555 106.062 228.999 106.039 230.16 106.023C233.721 105.97 234.92 105.95 235.642 106.663C236.131 107.144 236.173 107.826 236.173 108.427V113.344C236.173 114.866 236.173 115.87 235.454 116.588C234.712 117.325 233.393 117.47 231.363 117.47H177.216C176.616 117.47 176.066 117.473 175.56 117.479C175.136 117.481 174.744 117.484 174.377 117.484V117.487ZM173.239 107.453C172.07 107.453 171.297 107.484 171.039 107.74C170.686 108.093 170.686 109.445 170.686 111.49C170.686 113.73 170.723 115.124 171.217 115.617C171.722 116.121 173.161 116.107 175.549 116.09C176.058 116.087 176.61 116.082 177.213 116.082H231.36C232.663 116.082 234.051 116.026 234.473 115.603C234.782 115.294 234.782 114.521 234.782 113.346V108.427C234.782 108.263 234.782 107.767 234.668 107.653C234.359 107.35 232.696 107.375 230.182 107.414C229.016 107.431 227.566 107.453 225.814 107.453H173.769C173.583 107.453 173.408 107.453 173.239 107.453Z" fill="black"/>
<path d="M246.644 226.545H159.44C157.829 226.545 156.523 227.853 156.523 229.466V265.638C156.523 267.252 157.829 268.56 159.44 268.56H246.644C248.254 268.56 249.56 267.252 249.56 265.638V229.466C249.56 227.853 248.254 226.545 246.644 226.545Z" fill="#3D9BE9"/>
<path d="M252.475 217.779H153.329V303.2H252.475V217.779Z" fill="white"/>
<path d="M253.17 303.896H152.635V217.084H253.17V303.896ZM154.023 302.505H251.781V218.475H154.023V302.505Z" fill="black"/>
<path d="M248.588 226.684H156.663V263.968H248.588V226.684Z" fill="#3D9BE9"/>
<path d="M249.287 264.664H245.814V263.272H247.898V261.186H249.287V264.664Z" fill="black"/>
<path d="M242.936 263.272H234.299V264.663H242.936V263.272Z" fill="black"/>
<path d="M228.538 264.663H222.781V263.272H228.538V264.663ZM219.901 264.663H211.264V263.272H219.901V264.663ZM205.507 264.663H199.75V263.272H205.507V264.663ZM196.87 264.663H188.233V263.272H196.87V264.663ZM182.475 264.663H176.718V263.272H182.475V264.663ZM173.838 264.663H165.201V263.272H173.838V264.663Z" fill="black"/>
<path d="M159.444 264.664H155.972V261.186H157.361V263.272H159.444V264.664Z" fill="black"/>
<path d="M157.361 252.123H155.972V258.921H157.361V252.123Z" fill="black"/>
<path d="M157.361 247.591H155.972V243.058H157.361V247.591ZM157.361 240.793H155.972V233.995H157.361V240.793Z" fill="black"/>
<path d="M157.361 229.466H155.972V225.987H159.444V227.379H157.361V229.466Z" fill="black"/>
<path d="M170.959 225.987H162.322V227.378H170.959V225.987Z" fill="black"/>
<path d="M240.055 227.378H231.418V225.987H240.055V227.378ZM228.538 227.378H222.781V225.987H228.538V227.378ZM217.021 227.378H208.384V225.987H217.021V227.378ZM205.504 227.378H199.747V225.987H205.504V227.378ZM193.987 227.378H185.35V225.987H193.987V227.378ZM182.47 227.378H176.713V225.987H182.47V227.378Z" fill="black"/>
<path d="M249.287 229.466H247.898V227.379H245.814V225.987H249.287V229.466Z" fill="black"/>
<path d="M249.286 231.73H247.897V238.528H249.286V231.73Z" fill="black"/>
<path d="M249.286 256.653H247.897V249.855H249.286V256.653ZM249.286 247.59H247.897V243.057H249.286V247.59Z" fill="black"/>
<path d="M232.593 297.114L231.204 297.078C231.435 288.31 234.856 281.612 239.161 281.498C240.794 281.459 241.982 283.087 242.835 285.277C243.213 285.132 243.579 285.046 243.924 285.032C244.662 285.001 245.293 285.285 245.759 285.847C248.659 289.334 244.937 295.828 244.776 296.101C244.624 296.363 244.315 296.496 244.021 296.429C243.724 296.363 243.507 296.109 243.485 295.806C243.277 293.104 242.771 289.854 242.032 287.292C239.811 288.866 236.967 292.244 235.3 294.579L234.17 293.769C234.67 293.068 238.342 288.007 241.591 285.922C240.924 284.092 240.111 282.859 239.197 282.887C235.759 282.979 232.795 289.359 232.59 297.111L232.593 297.114ZM243.285 286.582C243.968 288.791 244.376 291.298 244.612 293.188C245.379 291.218 246.076 288.402 244.693 286.738C244.501 286.51 244.29 286.412 243.976 286.423C243.765 286.432 243.535 286.487 243.285 286.582Z" fill="black"/>
<path d="M252.893 317.669V323.373C252.893 335.06 248.728 331.932 205.959 331.932C157.635 331.932 152.914 334.782 152.914 324.486V321.729C153.381 325.521 155.161 329.495 173.465 329.495H238.158C249.419 329.495 252.046 325.577 252.893 317.669Z" fill="black"/>
<path d="M169.955 183.904C160.446 190.88 165.364 192.491 170.555 190.092C175.745 187.691 178.939 177.315 169.955 183.904Z" fill="white"/>
<path d="M166.649 240.238C166.857 240.514 166.963 240.842 166.963 241.232C166.963 241.799 166.735 242.236 166.279 242.542C165.824 242.851 165.166 243.004 164.308 243.004H160.822V236.538H164.122C164.944 236.538 165.571 236.691 166.002 236.994C166.432 237.3 166.646 237.709 166.646 238.227C166.646 238.535 166.571 238.811 166.421 239.053C166.271 239.295 166.057 239.49 165.78 239.629C166.149 239.757 166.438 239.96 166.646 240.233L166.649 240.238ZM162.63 237.859V239.106H163.883C164.497 239.106 164.805 238.897 164.805 238.477C164.805 238.057 164.497 237.859 163.883 237.859H162.63ZM165.119 241.029C165.119 240.592 164.799 240.372 164.16 240.372H162.63V241.683H164.16C164.799 241.683 165.119 241.463 165.119 241.026V241.029Z" fill="white"/>
<path d="M172.236 241.749H169.507L168.998 243.004H167.135L169.984 236.538H171.781L174.639 243.004H172.739L172.231 241.749H172.236ZM171.703 240.4L170.873 238.33L170.043 240.4H171.703Z" fill="white"/>
<path d="M176.462 242.706C175.923 242.42 175.501 242.022 175.192 241.51C174.884 240.998 174.731 240.419 174.731 239.773C174.731 239.128 174.884 238.549 175.192 238.037C175.501 237.525 175.923 237.127 176.462 236.841C177 236.554 177.606 236.412 178.283 236.412C178.872 236.412 179.405 236.518 179.878 236.727C180.35 236.935 180.744 237.239 181.058 237.631L179.897 238.683C179.48 238.179 178.972 237.926 178.375 237.926C178.025 237.926 177.714 238.004 177.439 238.157C177.164 238.31 176.953 238.527 176.803 238.808C176.653 239.089 176.578 239.409 176.578 239.773C176.578 240.138 176.653 240.458 176.803 240.739C176.953 241.02 177.167 241.237 177.439 241.39C177.711 241.543 178.025 241.621 178.375 241.621C178.972 241.621 179.478 241.368 179.897 240.864L181.058 241.916C180.744 242.311 180.353 242.612 179.878 242.82C179.403 243.029 178.872 243.135 178.283 243.135C177.609 243.135 177 242.993 176.462 242.706Z" fill="white"/>
<path d="M183.189 237.989H181.206V236.54H186.985V237.989H185.014V243.006H183.189V237.989Z" fill="white"/>
<path d="M192.85 241.593V243.006H187.668V236.54H192.728V237.953H189.473V239.044H192.339V240.41H189.473V241.593H192.847H192.85Z" fill="white"/>
<path d="M196.684 241.287H195.69V243.004H193.865V236.538H196.815C197.398 236.538 197.906 236.635 198.337 236.827C198.767 237.022 199.097 237.297 199.334 237.659C199.567 238.018 199.683 238.444 199.683 238.928C199.683 239.412 199.575 239.804 199.356 240.152C199.136 240.5 198.825 240.773 198.42 240.97L199.811 243.002H197.856L196.684 241.285V241.287ZM197.551 238.229C197.359 238.062 197.078 237.979 196.704 237.979H195.69V239.871H196.704C197.078 239.871 197.362 239.79 197.551 239.626C197.742 239.462 197.837 239.231 197.837 238.928C197.837 238.625 197.742 238.391 197.551 238.227V238.229Z" fill="white"/>
<path d="M200.687 236.54H202.511V243.006H200.687V236.54Z" fill="white"/>
<path d="M205.228 242.7C204.684 242.411 204.256 242.01 203.945 241.498C203.634 240.986 203.479 240.41 203.479 239.77C203.479 239.13 203.634 238.554 203.945 238.042C204.256 237.53 204.684 237.13 205.228 236.84C205.772 236.551 206.386 236.406 207.067 236.406C207.747 236.406 208.361 236.551 208.905 236.84C209.449 237.13 209.877 237.53 210.185 238.042C210.496 238.554 210.652 239.13 210.652 239.77C210.652 240.41 210.496 240.986 210.185 241.498C209.874 242.01 209.447 242.411 208.905 242.7C208.361 242.99 207.747 243.134 207.067 243.134C206.386 243.134 205.772 242.99 205.228 242.7ZM207.953 241.39C208.216 241.237 208.425 241.02 208.58 240.739C208.733 240.458 208.811 240.138 208.811 239.773C208.811 239.409 208.733 239.089 208.58 238.808C208.427 238.527 208.216 238.31 207.953 238.156C207.689 238.003 207.394 237.926 207.067 237.926C206.739 237.926 206.445 238.003 206.181 238.156C205.917 238.31 205.706 238.527 205.553 238.808C205.4 239.089 205.323 239.409 205.323 239.773C205.323 240.138 205.4 240.458 205.553 240.739C205.706 241.02 205.917 241.237 206.181 241.39C206.445 241.543 206.739 241.621 207.067 241.621C207.394 241.621 207.689 241.543 207.953 241.39Z" fill="white"/>
<path d="M212.359 242.94C211.867 242.812 211.467 242.639 211.159 242.422L211.759 241.073C212.048 241.265 212.384 241.418 212.764 241.535C213.145 241.651 213.52 241.71 213.889 241.71C214.589 241.71 214.939 241.535 214.939 241.184C214.939 241 214.839 240.861 214.639 240.772C214.439 240.683 214.117 240.588 213.675 240.491C213.189 240.385 212.784 240.274 212.459 240.154C212.134 240.035 211.853 239.843 211.62 239.576C211.387 239.311 211.27 238.955 211.27 238.504C211.27 238.109 211.379 237.756 211.592 237.439C211.806 237.121 212.128 236.871 212.556 236.685C212.984 236.501 213.506 236.406 214.128 236.406C214.553 236.406 214.97 236.454 215.381 236.548C215.792 236.643 216.155 236.785 216.469 236.968L215.905 238.326C215.292 237.995 214.695 237.828 214.117 237.828C213.753 237.828 213.489 237.881 213.323 237.99C213.156 238.098 213.073 238.237 213.073 238.41C213.073 238.582 213.17 238.71 213.367 238.796C213.564 238.883 213.881 238.972 214.317 239.064C214.808 239.169 215.217 239.281 215.539 239.4C215.861 239.52 216.141 239.712 216.378 239.974C216.614 240.235 216.733 240.591 216.733 241.039C216.733 241.426 216.625 241.779 216.411 242.094C216.197 242.408 215.872 242.659 215.442 242.848C215.011 243.034 214.489 243.129 213.875 243.129C213.353 243.129 212.845 243.065 212.353 242.934L212.359 242.94Z" fill="white"/>
<path d="M218.859 237.989H216.876V236.54H222.655V237.989H220.684V243.006H218.859V237.989Z" fill="white"/>
<path d="M227.341 241.749H224.611L224.103 243.004H222.239L225.089 236.538H226.886L229.743 243.004H227.844L227.335 241.749H227.341ZM226.808 240.4L225.977 238.33L225.147 240.4H226.808Z" fill="white"/>
<path d="M231.313 237.989H229.33V236.54H235.109V237.989H233.138V243.006H231.313V237.989Z" fill="white"/>
<path d="M235.793 236.54H237.618V243.006H235.793V236.54Z" fill="white"/>
<path d="M240.315 242.707C239.776 242.42 239.354 242.022 239.046 241.51C238.738 240.998 238.585 240.419 238.585 239.774C238.585 239.128 238.738 238.55 239.046 238.038C239.354 237.526 239.776 237.128 240.315 236.841C240.854 236.555 241.459 236.413 242.137 236.413C242.726 236.413 243.259 236.518 243.731 236.727C244.203 236.936 244.598 237.239 244.911 237.631L243.751 238.683C243.334 238.18 242.826 237.926 242.229 237.926C241.879 237.926 241.568 238.004 241.293 238.157C241.018 238.31 240.807 238.527 240.657 238.808C240.507 239.089 240.432 239.409 240.432 239.774C240.432 240.138 240.507 240.458 240.657 240.739C240.807 241.021 241.021 241.238 241.293 241.391C241.565 241.544 241.879 241.622 242.229 241.622C242.826 241.622 243.331 241.368 243.751 240.865L244.911 241.917C244.598 242.312 244.206 242.612 243.731 242.821C243.256 243.03 242.726 243.135 242.137 243.135C241.462 243.135 240.854 242.993 240.315 242.707Z" fill="white"/>
<path d="M161.568 254.025C161.076 253.897 160.676 253.725 160.368 253.508L160.968 252.158C161.257 252.35 161.593 252.503 161.973 252.62C162.354 252.737 162.729 252.795 163.098 252.795C163.798 252.795 164.148 252.62 164.148 252.269C164.148 252.086 164.048 251.947 163.848 251.858C163.648 251.769 163.326 251.674 162.884 251.577C162.398 251.471 161.993 251.359 161.668 251.24C161.343 251.12 161.062 250.928 160.829 250.661C160.596 250.397 160.479 250.041 160.479 249.59C160.479 249.195 160.588 248.841 160.801 248.524C161.018 248.207 161.337 247.956 161.765 247.77C162.193 247.586 162.715 247.492 163.337 247.492C163.762 247.492 164.178 247.539 164.592 247.634C165.006 247.728 165.367 247.87 165.681 248.054L165.12 249.412C164.506 249.081 163.909 248.914 163.331 248.914C162.97 248.914 162.704 248.966 162.54 249.075C162.373 249.184 162.29 249.323 162.29 249.495C162.29 249.668 162.387 249.796 162.584 249.882C162.782 249.968 163.098 250.057 163.534 250.149C164.026 250.255 164.434 250.366 164.756 250.486C165.078 250.605 165.359 250.797 165.595 251.059C165.831 251.321 165.95 251.677 165.95 252.125C165.95 252.511 165.842 252.865 165.628 253.179C165.414 253.494 165.089 253.744 164.659 253.933C164.228 254.12 163.706 254.214 163.093 254.214C162.57 254.214 162.062 254.15 161.571 254.02L161.568 254.025Z" fill="white"/>
<path d="M168.201 253.786C167.657 253.496 167.229 253.096 166.921 252.584C166.61 252.072 166.454 251.496 166.454 250.856C166.454 250.216 166.61 249.64 166.921 249.128C167.232 248.616 167.659 248.215 168.201 247.926C168.745 247.636 169.359 247.492 170.039 247.492C170.72 247.492 171.334 247.636 171.878 247.926C172.422 248.215 172.85 248.616 173.158 249.128C173.467 249.64 173.625 250.216 173.625 250.856C173.625 251.496 173.469 252.072 173.158 252.584C172.847 253.096 172.42 253.496 171.878 253.786C171.334 254.075 170.72 254.22 170.039 254.22C169.359 254.22 168.745 254.075 168.201 253.786ZM170.925 252.475C171.189 252.322 171.398 252.105 171.553 251.824C171.709 251.543 171.784 251.223 171.784 250.859C171.784 250.494 171.706 250.174 171.553 249.893C171.4 249.612 171.192 249.395 170.925 249.242C170.662 249.089 170.364 249.011 170.039 249.011C169.715 249.011 169.417 249.089 169.154 249.242C168.89 249.395 168.681 249.612 168.526 249.893C168.373 250.174 168.295 250.494 168.295 250.859C168.295 251.223 168.373 251.543 168.526 251.824C168.679 252.105 168.89 252.322 169.154 252.475C169.417 252.628 169.712 252.706 170.039 252.706C170.367 252.706 170.659 252.628 170.925 252.475Z" fill="white"/>
<path d="M174.587 247.625H176.412V252.642H179.492V254.092H174.587V247.625Z" fill="white"/>
<path d="M180.889 253.435C180.358 252.912 180.092 252.169 180.092 251.209V247.625H181.916V251.154C181.916 252.189 182.325 252.706 183.144 252.706C183.963 252.706 184.36 252.189 184.36 251.154V247.625H186.157V251.209C186.157 252.169 185.891 252.912 185.36 253.435C184.827 253.959 184.083 254.22 183.124 254.22C182.166 254.22 181.419 253.959 180.889 253.435Z" fill="white"/>
<path d="M188.667 249.075H186.684V247.625H192.463V249.075H190.491V254.092H188.667V249.075Z" fill="white"/>
<path d="M193.147 247.625H194.972V254.092H193.147V247.625Z" fill="white"/>
<path d="M197.686 253.786C197.142 253.496 196.714 253.096 196.403 252.584C196.092 252.072 195.937 251.496 195.937 250.856C195.937 250.216 196.092 249.64 196.403 249.128C196.714 248.616 197.142 248.215 197.686 247.926C198.23 247.636 198.844 247.492 199.525 247.492C200.205 247.492 200.819 247.636 201.363 247.926C201.908 248.215 202.335 248.616 202.643 249.128C202.955 249.64 203.11 250.216 203.11 250.856C203.11 251.496 202.955 252.072 202.643 252.584C202.332 253.096 201.905 253.496 201.363 253.786C200.819 254.075 200.205 254.22 199.525 254.22C198.844 254.22 198.23 254.075 197.686 253.786ZM200.411 252.475C200.674 252.322 200.883 252.105 201.038 251.824C201.191 251.543 201.269 251.223 201.269 250.859C201.269 250.494 201.191 250.174 201.038 249.893C200.885 249.612 200.674 249.395 200.411 249.242C200.147 249.089 199.852 249.011 199.525 249.011C199.197 249.011 198.903 249.089 198.639 249.242C198.375 249.395 198.164 249.612 198.011 249.893C197.858 250.174 197.781 250.494 197.781 250.859C197.781 251.223 197.858 251.543 198.011 251.824C198.164 252.105 198.375 252.322 198.639 252.475C198.903 252.628 199.197 252.706 199.525 252.706C199.852 252.706 200.147 252.628 200.411 252.475Z" fill="white"/>
<path d="M210.212 247.625V254.092H208.709L205.86 250.647V254.092H204.071V247.625H205.574L208.423 251.07V247.625H210.212Z" fill="white"/>
<path d="M161.175 295.593C160.664 295.27 160.267 294.803 159.978 294.191C159.689 293.578 159.545 292.849 159.545 291.998C159.545 291.146 159.689 290.42 159.978 289.808C160.267 289.196 160.667 288.728 161.175 288.406C161.683 288.083 162.267 287.921 162.919 287.921C163.572 287.921 164.152 288.083 164.663 288.406C165.172 288.728 165.571 289.196 165.86 289.808C166.149 290.42 166.294 291.149 166.294 291.998C166.294 292.847 166.149 293.578 165.86 294.191C165.571 294.803 165.172 295.27 164.663 295.593C164.152 295.916 163.572 296.077 162.919 296.077C162.267 296.077 161.686 295.916 161.175 295.593ZM164.047 293.915C164.319 293.503 164.458 292.863 164.458 292.001C164.458 291.138 164.322 290.498 164.047 290.086C163.772 289.674 163.397 289.466 162.916 289.466C162.436 289.466 162.072 289.672 161.797 290.086C161.522 290.501 161.386 291.138 161.386 292.001C161.386 292.863 161.522 293.503 161.797 293.915C162.072 294.33 162.444 294.536 162.916 294.536C163.389 294.536 163.772 294.33 164.047 293.915Z" fill="black"/>
<path d="M167.289 295.716C167.078 295.504 166.976 295.243 166.976 294.928C166.976 294.614 167.081 294.344 167.289 294.146C167.498 293.949 167.759 293.849 168.064 293.849C168.37 293.849 168.631 293.949 168.839 294.146C169.051 294.347 169.153 294.605 169.153 294.928C169.153 295.251 169.048 295.507 168.839 295.716C168.631 295.924 168.37 296.03 168.064 296.03C167.759 296.03 167.498 295.924 167.289 295.716Z" fill="black"/>
<path d="M175.331 288.93C175.953 289.603 176.264 290.568 176.264 291.832C176.264 292.725 176.098 293.49 175.765 294.13C175.431 294.767 174.962 295.254 174.354 295.583C173.746 295.914 173.046 296.078 172.251 296.078C171.832 296.078 171.429 296.031 171.049 295.936C170.666 295.841 170.341 295.708 170.071 295.535L170.746 294.194C171.129 294.458 171.618 294.589 172.218 294.589C172.885 294.589 173.412 294.392 173.804 293.997C174.193 293.601 174.404 293.034 174.434 292.291C173.962 292.764 173.309 293 172.479 293C171.976 293 171.518 292.9 171.107 292.697C170.693 292.494 170.368 292.207 170.13 291.834C169.891 291.462 169.769 291.033 169.769 290.543C169.769 290.017 169.899 289.556 170.163 289.158C170.424 288.76 170.782 288.454 171.238 288.239C171.69 288.025 172.196 287.919 172.751 287.919C173.854 287.919 174.715 288.256 175.337 288.927L175.331 288.93ZM173.854 291.306C174.104 291.083 174.232 290.799 174.232 290.454C174.232 290.109 174.109 289.828 173.865 289.608C173.621 289.391 173.287 289.283 172.86 289.283C172.471 289.283 172.154 289.389 171.91 289.597C171.665 289.806 171.543 290.093 171.543 290.454C171.543 290.816 171.665 291.103 171.91 291.317C172.154 291.531 172.476 291.637 172.882 291.637C173.287 291.637 173.604 291.526 173.854 291.306Z" fill="black"/>
<path d="M177.553 291.723C177.189 291.328 177.009 290.802 177.009 290.14C177.009 289.478 177.189 288.952 177.553 288.557C177.917 288.161 178.386 287.964 178.964 287.964C179.542 287.964 180.011 288.161 180.369 288.557C180.727 288.952 180.908 289.478 180.908 290.14C180.908 290.802 180.727 291.328 180.369 291.723C180.008 292.118 179.542 292.313 178.964 292.313C178.386 292.313 177.917 292.115 177.553 291.723ZM179.567 291.075C179.714 290.863 179.786 290.552 179.786 290.14C179.786 289.728 179.714 289.416 179.567 289.205C179.419 288.993 179.219 288.89 178.964 288.89C178.708 288.89 178.517 288.996 178.367 289.21C178.217 289.425 178.142 289.734 178.142 290.14C178.142 290.546 178.217 290.855 178.367 291.069C178.517 291.283 178.714 291.389 178.964 291.389C179.214 291.389 179.419 291.283 179.567 291.075ZM183.655 288.056H184.993L179.619 295.941H178.281L183.655 288.056ZM183.299 295.766C183.002 295.591 182.771 295.338 182.608 295.007C182.444 294.675 182.36 294.294 182.36 293.857C182.36 293.42 182.444 293.039 182.608 292.708C182.771 292.377 183.002 292.124 183.299 291.948C183.596 291.773 183.93 291.684 184.305 291.684C184.882 291.684 185.352 291.882 185.715 292.274C186.079 292.669 186.26 293.195 186.26 293.857C186.26 294.52 186.076 295.046 185.715 295.441C185.352 295.836 184.882 296.033 184.305 296.033C183.93 296.033 183.594 295.944 183.299 295.769V295.766ZM184.907 294.787C185.054 294.572 185.127 294.264 185.127 293.857C185.127 293.451 185.054 293.142 184.907 292.928C184.76 292.714 184.56 292.608 184.305 292.608C184.049 292.608 183.857 292.714 183.707 292.922C183.557 293.134 183.482 293.446 183.482 293.857C183.482 294.269 183.557 294.584 183.707 294.792C183.857 295.004 184.055 295.107 184.305 295.107C184.554 295.107 184.76 295.001 184.907 294.787Z" fill="black"/>
<path d="M170.833 142.738C171.247 145.296 175.135 144.739 199.574 144.739C224.014 144.739 232.867 145.465 232.867 142.738C232.867 140.012 233.476 139.333 231.107 139.333H218.951C213.463 139.333 212.908 138.617 219.295 138.617C225.683 138.617 224.572 136.391 224.572 134.722C224.572 133.052 198.466 133.052 188.191 133.052C177.915 133.052 178.47 133.511 178.47 135.785V131.004H227.071V138.893C227.071 138.893 229.849 138.893 231.515 139.171C233.181 139.449 234.014 139.728 234.014 142.232C234.014 144.736 234.259 146.194 231.915 146.194H226.794V157.717C226.794 162.823 226.516 153.641 225.683 151.136C224.85 148.632 214.852 148.075 197.911 148.075C180.97 148.075 178.47 148.206 178.47 153.986V146.423C178.47 146.423 174.929 146.142 172.81 145.994C170.691 145.847 170.836 142.733 170.836 142.733L170.833 142.738Z" fill="black"/>
<path d="M176.797 141.123C172.364 141.546 175.686 142.236 185.128 141.958C194.571 141.68 182.629 140.567 176.797 141.123Z" fill="white"/>
<path d="M180.027 109.011C173.712 108.343 170.401 110.372 174.239 110.911C178.077 111.451 189.778 110.043 180.027 109.011Z" fill="white"/>
<path d="M45.3974 220.237L16.7021 246.205L10.1106 239.047L13.5106 235.971L35.0095 216.514L38.8052 213.082L45.3974 220.237Z" fill="#CCEBFF"/>
<path d="M16.6648 247.02L9.28695 239.011L38.8403 212.268L46.2181 220.276L16.6648 247.02ZM10.9312 239.086L16.7372 245.391L44.571 220.203L38.765 213.898L10.9312 239.086Z" fill="black"/>
<path d="M45.3969 220.238L16.7044 246.204L10.1122 239.048L13.5123 235.972C16.5804 238.421 18.6066 241.956 26.0416 235.927C33.8799 229.573 40.2792 221.922 35.0105 216.518L38.8062 213.085L45.3984 220.241L45.3969 220.238Z" fill="black"/>
<path d="M50.419 227.352C50.419 227.352 43.0298 234.016 40.7386 236.081C38.4475 238.147 39.0309 237.621 37.0242 235.388L23.1757 219.977C21.0746 217.639 21.5932 217.348 22.8099 216.251L32.7977 207.242L50.4197 227.349L50.419 227.352Z" fill="#B0DDFF"/>
<path d="M38.6413 237.916C38.2263 237.792 37.9319 237.417 37.516 236.889C37.2812 236.589 36.9884 236.217 36.5944 235.778L22.746 220.367C21.5604 219.046 21.1344 218.3 21.1716 217.605C21.2088 216.909 21.7084 216.462 22.2841 215.946L22.4222 215.823L32.8454 206.421L51.2308 227.399L41.125 236.513C39.9516 237.57 39.4664 238.009 38.8537 237.957C38.7787 237.949 38.7073 237.938 38.6407 237.918L38.6413 237.916ZM32.7501 208.07L23.0562 216.812C22.6414 217.185 22.3395 217.453 22.329 217.668C22.3027 218.139 23.2852 219.232 23.6084 219.592L37.4569 235.003C37.876 235.472 38.1833 235.861 38.4287 236.173C38.6283 236.429 38.8531 236.713 38.9642 236.795C39.1756 236.717 39.7256 236.222 40.3553 235.655L49.6109 227.307L32.7545 208.071L32.7501 208.07Z" fill="black"/>
<path d="M30.8129 212.728C26.5974 215.671 24.4489 218.468 25.6458 218.773C26.8427 219.078 35.3451 209.565 30.8129 212.728Z" fill="white"/>
<path d="M50.4193 227.351C50.4193 227.351 43.0301 234.016 40.739 236.081C38.4478 238.146 39.0313 237.621 37.0245 235.388L23.176 219.977C21.0749 217.639 21.5935 217.348 22.8103 216.25C22.6053 217.17 22.9468 217.818 23.7711 218.736C24.9734 220.073 33.9953 230.625 36.999 233.454C40.0027 236.283 43.2848 233.784 46.1377 230.289C48.916 226.883 37.1337 215.556 31.0206 208.845L32.8009 207.24L50.4229 227.348L50.4193 227.351Z" fill="black"/>
<path d="M174.987 107.109C174.304 106.359 163.241 94.4886 163.372 94.3704L163.498 94.2554C163.723 94.0512 164.05 93.7614 164.432 93.4294C164.544 93.3347 164.66 93.2288 164.783 93.1227C164.839 93.0738 164.905 93.0136 164.969 92.9623C165.028 92.9075 165.09 92.8533 165.154 92.802C165.605 92.4061 166.091 91.9943 166.547 91.6143C166.896 91.326 167.228 91.0521 167.511 90.824C167.511 90.824 167.517 90.8186 167.521 90.8222C168.862 90.2358 169.443 92.226 174.258 97.5078C178.863 102.558 180.998 102.559 179.587 104.223L179.58 104.228C176.976 106.651 175.446 107.613 174.991 107.113L174.987 107.109Z" fill="#A1DCFF"/>
<path d="M183.718 90.0489L181.564 87.6833L219.301 53.4878L217.781 56.3824C217.666 56.5998 214.953 61.7462 213.249 63.2892L183.718 90.0489ZM183.203 87.7616L183.797 88.4126L212.473 62.4292C213.19 61.7786 214.154 60.3351 214.986 58.9635L183.205 87.7622L183.203 87.7616Z" fill="black"/>
<path d="M180.002 103.743C179.856 103.934 179.718 104.099 179.58 104.223C180.199 103.494 180.139 103.087 179.489 102.434C179.474 102.422 179.466 102.408 179.448 102.395C179.062 102.009 178.478 101.543 177.714 100.887C177.048 100.307 176.245 99.577 175.316 98.6303C174.972 98.2836 174.611 97.9052 174.23 97.4871C173.362 96.5369 172.64 95.6883 172.027 94.9616C170.825 93.5345 170.028 92.4843 169.426 91.7873C169.414 91.7694 169.4 91.753 169.384 91.741C168.595 90.8337 168.139 90.548 167.517 90.8205C167.884 90.5279 168.185 90.3028 168.356 90.2157C169.937 89.3306 171.462 89.0508 174.406 87.7798C178.726 85.9183 180.715 84.7988 181.397 85.546L185.838 90.4189C186.522 91.1645 185.601 92.5193 185.007 93.9109C184.711 94.5923 184.257 95.6599 183.707 96.8614C182.596 99.297 181.134 102.289 180 103.743L180.002 103.743Z" fill="#3D98E6"/>
<path d="M178.885 87.1268C175.738 87.5972 170.737 90.7879 173.449 90.7063C176.162 90.6246 180.442 86.8929 178.885 87.1268Z" fill="white"/>
<path d="M179.412 103.734L179.41 103.741C179.281 103.891 179.118 104.058 178.927 104.246C178.741 104.427 178.528 104.623 178.283 104.845L174.553 108.23L171.039 111.42L168.035 114.147L103.973 172.288C71.0593 202.153 49.3398 221.873 49.3398 221.873L37.7698 209.179C37.7698 209.179 38.7829 208.263 40.6457 206.584C49.6771 198.414 78.601 172.245 107.205 146.163C129.234 126.066 146.51 110.35 156.667 101.121C157.691 100.194 158.64 99.3314 159.513 98.536C160.668 97.4832 161.694 96.5515 162.586 95.7423C163.099 95.2804 163.566 94.8554 163.986 94.4722L166.638 92.0617C166.655 92.0472 166.67 92.0371 166.681 92.0235C167.24 91.5242 167.636 91.1969 167.986 91.0348C168.518 90.7983 168.916 90.9796 169.524 91.6227C169.543 91.6331 169.554 91.6533 169.568 91.6697C170.157 92.2923 170.928 93.3396 172.175 94.8378C172.786 95.5617 173.507 96.4125 174.377 97.3633C174.76 97.7821 175.117 98.1591 175.463 98.5065C176.382 99.4307 177.171 100.132 177.813 100.681C178.665 101.416 179.27 101.886 179.581 102.284C179.595 102.295 179.605 102.31 179.623 102.323C179.964 102.785 179.917 103.148 179.417 103.733L179.412 103.734Z" fill="#B0DDFF"/>
<path d="M178.924 104.243C178.737 104.425 178.525 104.621 178.28 104.843L174.549 108.228C173.087 107.565 171.823 106.5 171.327 106.014C170.319 105.024 168.046 106.873 170.012 109.454C170.616 110.245 170.928 110.878 171.034 111.417L168.819 113.689C166.081 111.666 159.916 104.821 156.659 101.118C157.683 100.19 158.632 99.328 159.506 98.5326C160.146 98.7667 160.709 99.0598 161.109 99.4135C163.073 101.164 164.267 99.0843 163.187 98.2381C162.695 97.8545 162.475 96.8505 162.579 95.7365C163.093 95.2746 163.559 94.8495 163.98 94.4663L166.632 92.0557C166.648 92.0412 166.663 92.0312 166.674 92.0176C168.264 92.725 170.173 94.9454 172.937 98.0687C175.225 100.649 177.646 102.591 178.923 104.241L178.924 104.243Z" fill="#0064A5"/>
<path d="M168.53 114.191C166.112 112.773 156.631 101.961 156.229 101.502L157.098 100.737C159.804 103.829 167.242 112.09 169.114 113.191L168.527 114.193L168.53 114.191Z" fill="black"/>
<path d="M178.524 104.663C171.978 98.3868 166.607 92.1848 166.553 92.1228L167.428 91.3641C167.482 91.4261 172.818 97.5888 179.323 103.826L178.521 104.664L178.524 104.663Z" fill="black"/>
<path d="M165.755 98.6706C154.908 103.869 136.68 123.858 144.309 118.52C151.937 113.183 171.75 95.7971 165.755 98.6706Z" fill="white"/>
<path d="M114.342 145.359C86.1779 166.923 42.4448 207.379 51.1735 202.371C59.9022 197.364 132.622 131.365 114.342 145.359Z" fill="white"/>
<path d="M49.2922 222.691L36.943 209.139L37.3756 208.747C37.7249 208.432 72.7112 176.824 106.808 145.732C136.059 119.054 156.782 100.228 163.592 94.042L166.246 91.6322C166.89 91.047 167.968 90.068 168.996 89.9163L169.166 91.063C168.486 91.1634 167.498 92.0602 167.023 92.4899L164.369 94.8998C157.558 101.086 136.836 119.911 107.587 146.588C75.5432 175.81 42.7124 205.484 38.5837 209.218L49.3718 221.054L178.955 103.448C179.204 103.221 179.418 102.516 179.548 102.094C179.633 101.807 179.699 101.6 179.781 101.447L180.801 101.998L180.291 101.722L180.802 101.995C180.772 102.054 180.705 102.272 180.658 102.432C180.473 103.037 180.221 103.865 179.735 104.306L178.673 105.271L49.2973 222.69L49.2922 222.691Z" fill="black"/>
<path d="M58.5735 190.783L57.6943 191.587L65.1347 199.753L66.0138 198.949L58.5735 190.783Z" fill="black"/>
<path d="M70.427 180.029L69.5479 180.833L77.6343 189.708L78.5135 188.904L70.427 180.029Z" fill="black"/>
<path d="M82.2874 169.263L81.4082 170.067L88.5255 177.878L89.4046 177.074L82.2874 169.263Z" fill="black"/>
<path d="M94.1419 158.509L93.2627 159.312L101.349 168.187L102.228 167.383L94.1419 158.509Z" fill="black"/>
<path d="M105.996 147.746L105.117 148.55L113.204 157.425L114.083 156.621L105.996 147.746Z" fill="black"/>
<path d="M117.854 136.988L116.975 137.792L125.556 147.21L126.435 146.406L117.854 136.988Z" fill="black"/>
<path d="M129.707 126.229L128.828 127.033L136.42 135.365L137.299 134.561L129.707 126.229Z" fill="black"/>
<path d="M141.564 115.471L140.685 116.275L147.802 124.086L148.681 123.282L141.564 115.471Z" fill="black"/>
<path d="M153.419 104.708L152.54 105.512L161.502 115.348L162.381 114.544L153.419 104.708Z" fill="black"/>
<path d="M165.275 93.9484L164.396 94.7524L172.159 103.273L173.038 102.469L165.275 93.9484Z" fill="black"/>
<path d="M159.2 99.4633L158.615 99.998L162.773 104.561L163.357 104.026L159.2 99.4633Z" fill="black"/>
<path d="M147.343 110.229L146.758 110.764L150.593 114.973L151.178 114.438L147.343 110.229Z" fill="black"/>
<path d="M135.488 120.986L134.903 121.521L138.414 125.373L138.998 124.838L135.488 120.986Z" fill="black"/>
<path d="M123.63 131.745L123.045 132.28L126.88 136.489L127.465 135.954L123.63 131.745Z" fill="black"/>
<path d="M111.775 142.503L111.19 143.038L116.366 148.718L116.951 148.183L111.775 142.503Z" fill="black"/>
<path d="M99.9198 153.265L99.335 153.8L101.277 155.931L101.861 155.396L99.9198 153.265Z" fill="black"/>
<path d="M88.0663 164.016L87.4814 164.551L90.4782 167.84L91.063 167.305L88.0663 164.016Z" fill="black"/>
<path d="M76.2118 174.777L75.627 175.312L78.1289 178.058L78.7138 177.523L76.2118 174.777Z" fill="black"/>
<path d="M64.3495 185.544L63.7646 186.079L66.4383 189.013L67.0231 188.478L64.3495 185.544Z" fill="black"/>
<path d="M180.139 103.621C179.998 103.807 179.867 103.969 179.731 104.088C180.326 103.382 180.26 102.977 179.614 102.323C179.955 102.785 179.91 103.149 179.408 103.733L179.406 103.74C179.152 104.037 178.779 104.39 178.28 104.842L103.969 172.287C71.0576 202.153 49.3343 221.869 49.3343 221.869L37.7658 209.179C37.7658 209.179 38.7789 208.263 40.6424 206.581C44.0245 211.025 51.2729 217.662 58.6197 211.198C66.8842 203.927 148.516 130.333 159.511 119.93C170.346 109.68 178.753 102.636 177.848 100.767C177.842 100.731 177.828 100.706 177.809 100.68C176.943 99.4139 180.41 102.838 182.852 98.7099C181.961 100.615 180.968 102.547 180.142 103.62L180.139 103.621Z" fill="black"/>
<path d="M21.9129 250.738C21.5629 251.055 21.166 251.416 20.2349 252.267C19.2981 253.121 18.9378 252.723 17.6483 251.297C16.3589 249.871 7.78705 240.415 5.98761 238.428C4.18973 236.444 3.82941 236.047 4.15665 235.749C4.20092 235.714 4.24914 235.666 4.30624 235.62C4.6817 235.274 5.35257 234.665 6.16612 233.917C7.10162 233.068 7.71309 234.687 14.1906 241.83C16.3488 244.212 16.8251 244.504 19.4486 247.401C20.5007 248.561 21.1608 249.275 21.5526 249.738C22.1414 250.423 22.1265 250.547 21.9152 250.739L21.9129 250.738Z" fill="#3D98E6"/>
<path d="M21.9128 250.737C21.5628 251.054 21.1658 251.415 20.2348 252.266C19.298 253.12 18.9376 252.723 17.6482 251.296C16.3588 249.87 7.78693 240.415 5.98749 238.428C4.18962 236.444 3.82929 236.046 4.15653 235.749C4.2008 235.714 4.24902 235.665 4.30612 235.619C5.24556 237.81 11.1167 243.179 14.4503 246.883C17.9678 250.789 20.4613 251.446 21.5525 249.737C22.1413 250.423 22.1263 250.547 21.915 250.738L21.9128 250.737Z" fill="black"/>
<path d="M8.56349 236.222C6.72857 234.198 6.40508 234.564 5.68955 235.218C4.9718 235.87 9.6426 237.414 8.56349 236.222Z" fill="white"/>
<path d="M58.8223 235.795C57.6572 236.857 56.9715 236.099 51.4494 229.985C45.9296 223.872 31.9278 208.367 27.5446 203.511C23.8251 199.39 23.762 199.318 24.8918 198.408C25.0916 198.247 25.3331 198.06 25.5962 197.816C27.9905 195.615 26.6474 195.453 34.9278 204.62C43.206 213.787 56.3138 228.308 59.0782 231.365C59.5838 231.925 59.9279 232.385 60.1593 232.786C61.1853 234.555 59.7737 234.917 58.8252 235.794L58.8223 235.795Z" fill="#3D98E6"/>
<path d="M58.8222 235.795C57.657 236.857 56.9713 236.099 51.4493 229.985C45.9294 223.872 31.9277 208.367 27.5445 203.512C23.825 199.391 23.7618 199.318 24.8916 198.408C25.979 200.776 30.2679 206.463 44.4167 221.269C55.8931 233.277 59.2453 233.937 60.157 232.785C61.1829 234.554 59.7713 234.916 58.8228 235.793L58.8222 235.795Z" fill="black"/>
<path d="M30.1533 200.288C27.8732 197.763 25.7418 198.182 27.2624 199.864C28.7822 201.547 28.8455 199.95 30.3653 201.633C31.8852 203.317 31.6732 201.971 30.1533 200.288Z" fill="white"/>
<path d="M184.738 95.9871L183.673 95.5301C183.973 94.8302 184.261 94.2092 184.512 93.6621C185.161 92.2555 185.674 91.1448 185.384 90.7728C184.763 89.9759 183.823 88.772 181.81 86.8523C181.66 86.7083 181.531 86.5732 181.414 86.4538C180.985 86.0093 180.905 85.9371 180.539 85.9758C179.93 86.0416 178.757 86.5108 176.939 87.2987L176.48 86.2329C180.531 84.478 181.069 84.4226 182.247 85.6465C182.354 85.7582 182.47 85.8798 182.61 86.0109C184.685 87.9902 185.655 89.232 186.297 90.0569C187.023 90.9868 186.472 92.1758 185.562 94.146C185.312 94.6865 185.029 95.2992 184.737 95.9842L184.738 95.9871Z" fill="black"/>
<path d="M185.113 61.7799L163.818 66.8208L163.997 67.5803L185.292 62.5394L185.113 61.7799Z" fill="black"/>
<path d="M176.404 47.7734L176.136 48.5059L183.782 51.3137L184.05 50.5812L176.404 47.7734Z" fill="black"/>
<path d="M176.6 23.7056L176.053 24.2617L196.172 44.1135L196.719 43.5574L176.6 23.7056Z" fill="black"/>
<path d="M202.756 29.9923L202.017 30.2397L204.598 37.9845L205.337 37.7371L202.756 29.9923Z" fill="black"/>
<path d="M219.371 10.7406L218.598 10.6421L215.174 37.5434L215.947 37.6419L219.371 10.7406Z" fill="black"/>
<path d="M236.873 31.6839L230.071 41.062L230.702 41.5207L237.504 32.1426L236.873 31.6839Z" fill="black"/>
<path d="M279.52 38.2927L238.429 49.0225L238.625 49.7777L279.717 39.0479L279.52 38.2927Z" fill="black"/>
<path d="M246.123 62.1098L239.515 60.7642L239.359 61.5287L245.967 62.8743L246.123 62.1098Z" fill="black"/>
<path d="M234.052 71.8776L233.551 72.4751L246.528 83.4057L247.029 82.8083L234.052 71.8776Z" fill="black"/>
<path d="M228.172 78.9093L227.484 79.2759L230.667 85.2725L231.355 84.9059L228.172 78.9093Z" fill="black"/>
<path d="M219.911 81.2106L219.138 81.3037L222.863 112.452L223.636 112.359L219.911 81.2106Z" fill="black"/>
<path d="M284.203 31.5104C275.532 34.3404 252.934 39.358 246.608 40.8473C246.502 40.8752 246.4 40.8983 246.3 40.9192C246.108 40.9656 245.939 41.0074 245.786 41.0422C245.707 41.0607 245.636 41.0793 245.568 41.0955C243.459 41.6175 242.447 40.33 241.753 38.0706C241.03 35.7253 240.667 32.3408 239.803 28.8357C239.38 27.1168 241.959 26.4742 245.969 25.4767C249.984 24.4862 270.285 19.4454 277.157 17.7427C284.022 16.04 293.23 12.7205 294.353 15.2467C295.969 18.8771 296.495 22.127 296.916 23.9318C296.933 24.0083 296.949 24.0779 296.96 24.1498C297.442 27.0797 293.455 28.4924 284.203 31.508V31.5104Z" fill="#3D98E6"/>
<path d="M273.493 23.5645C285.121 23.1701 294.674 16.9065 285.07 18.0804C275.466 19.2542 266.915 23.7872 273.493 23.5645Z" fill="white"/>
<path d="M284.202 31.5099C275.531 34.3401 252.933 39.3579 246.607 40.8473C246.501 40.8751 246.399 40.8983 246.299 40.9192C246.107 40.9656 245.938 41.0073 245.785 41.0421C245.707 41.0607 245.635 41.0793 245.568 41.0955C243.458 41.6175 242.447 40.33 241.752 38.0704C248.772 39.6456 266.418 34.2937 279.58 31.1759C289.178 28.9024 293.531 27.4015 294.32 24.5782C295.11 24.91 296.177 26.281 296.96 24.1514C297.441 27.0813 293.454 28.4941 284.202 31.5099Z" fill="black"/>
<path d="M242.509 46.0789C240.175 45.9792 238.624 41.5436 237.712 36.839C237.059 33.466 236.735 29.9583 236.684 27.8102C236.568 22.6671 241.426 22.6184 243.417 26.7825C243.417 26.7825 244.547 33.9299 246.172 38.2796C247.8 42.6293 246.512 46.2483 242.509 46.0766V46.0789Z" fill="#3D98E6"/>
<path d="M244.378 43.0097C242.796 41.9031 241.377 38.1844 240.578 35.0758C240.187 33.5563 238.997 28.4109 240.074 25.9658L241.134 26.4344C239.724 29.6428 242.806 40.495 245.042 42.0609L244.38 43.012L244.378 43.0097Z" fill="black"/>
<path d="M242.509 46.0778C240.175 45.9781 238.624 41.5425 237.712 36.8379C239.726 42.4287 242.424 44.1338 244.306 43.5121C247.094 42.5888 243.743 38.5383 246.172 38.2785C247.8 42.6282 246.513 46.2472 242.509 46.0755V46.0778Z" fill="black"/>
<path d="M293.867 25.2965C293.777 25.1155 291.681 20.8099 291.623 15.9753L292.781 15.9614C292.837 20.5246 294.884 24.7397 294.905 24.7815L293.867 25.2942V25.2965Z" fill="black"/>
<path d="M239.424 24.9079C237.548 24.8174 237.331 29.9559 238.011 29.6033C238.692 29.253 240.341 24.952 239.424 24.9079Z" fill="white"/>
<path d="M295.004 17.8473C294.432 15.7269 293.529 14.6389 293.494 17.5898C293.459 20.5406 294.309 20.5406 294.14 19.0281C293.971 17.5155 294.654 17.1652 294.8 18.1256C294.949 19.0837 295.324 19.042 295.002 17.8496L295.004 17.8473Z" fill="white"/>
</svg>
