<svg width="344" height="333" viewBox="0 0 344 333" fill="none" xmlns="http://www.w3.org/2000/svg">
<path d="M206.236 167.158H5.83017C3.76714 167.158 2.09473 168.842 2.09473 170.919V318.181C2.09473 320.258 3.76714 321.942 5.83017 321.942H206.236C208.299 321.942 209.971 320.258 209.971 318.181V170.919C209.971 168.842 208.299 167.158 206.236 167.158Z" fill="white"/>
<path d="M209.908 177.627V302.155L2.16113 301.689V177.627L2.25768 177.7C4.26191 179.272 209.911 177.627 209.911 177.627H209.908Z" fill="white"/>
<path d="M209.908 217.268H2.16113V240.977H209.908V217.268Z" fill="#3D9BE9"/>
<path d="M48.9107 271.417H6.02637V297.256H48.9107V271.417Z" fill="#3D9BE9"/>
<path d="M56.1127 196.373C56.1127 199.548 53.729 201.519 49.927 201.519H47.0571V205.444H43.7578V191.204H49.927C53.729 191.204 56.1127 193.182 56.1127 196.373ZM52.7768 196.373C52.7768 194.804 51.7614 193.889 49.7438 193.889H47.0571V198.834H49.7438C51.7614 198.84 52.7768 197.925 52.7768 196.373Z" fill="#3D9BE9"/>
<path d="M69.4836 202.806V205.451H58.457V191.204H69.2206V193.849H61.733V196.947H68.345V199.508H61.733V202.806H69.4869H69.4836Z" fill="#3D9BE9"/>
<path d="M84.4614 196.373C84.4614 199.548 82.0776 201.519 78.2756 201.519H75.4058V205.444H72.1064V191.204H78.2756C82.0776 191.204 84.4614 193.182 84.4614 196.373ZM81.1254 196.373C81.1254 194.804 80.11 193.889 78.0925 193.889H75.4058V198.834H78.0925C80.11 198.84 81.1254 197.925 81.1254 196.373Z" fill="#3D9BE9"/>
<path d="M89.366 193.889H84.8115V191.204H97.2297V193.889H92.6753V205.451H89.376V193.889H89.3693H89.366Z" fill="#3D9BE9"/>
<path d="M98.9912 191.204H102.291V205.451H98.9912V191.204Z" fill="#3D9BE9"/>
<path d="M105.663 191.204H112.135C116.799 191.204 119.989 194.013 119.989 198.328C119.989 202.642 116.793 205.451 112.135 205.451H105.663V191.204ZM111.972 202.742C114.805 202.742 116.653 201.05 116.653 198.328C116.653 195.606 114.799 193.913 111.972 193.913H108.962V202.742H111.972Z" fill="#3D9BE9"/>
<path d="M133.508 202.806V205.451H122.481V191.204H133.245V193.849H125.757V196.947H132.369V199.508H125.757V202.806H133.511H133.508Z" fill="#3D9BE9"/>
<path d="M143.52 203.715L144.109 202.559C145.124 203.551 146.942 204.288 148.813 204.288C151.483 204.288 152.638 203.172 152.638 201.767C152.638 197.856 143.869 200.262 143.869 194.993C143.869 192.898 145.5 191.091 149.123 191.091C150.731 191.091 152.399 191.557 153.537 192.355L153.025 193.558C151.806 192.767 150.378 192.378 149.123 192.378C146.516 192.378 145.357 193.535 145.357 194.963C145.357 198.875 154.127 196.508 154.127 201.697C154.127 203.792 152.459 205.586 148.82 205.586C146.679 205.569 144.575 204.818 143.52 203.715Z" fill="#333333"/>
<path d="M169.308 191.198V205.445H167.816V198.871H158.9V205.445H157.396V191.198H158.9V197.547H167.816V191.198H169.308Z" fill="#333333"/>
<path d="M172.684 198.321C172.684 194.171 175.856 191.074 180.171 191.074C184.486 191.074 187.635 194.148 187.635 198.321C187.635 202.495 184.439 205.569 180.171 205.569C175.903 205.569 172.684 202.471 172.684 198.321ZM186.134 198.321C186.134 194.922 183.587 192.425 180.174 192.425C176.762 192.425 174.168 194.932 174.168 198.321C174.168 201.71 176.729 204.218 180.174 204.218C183.62 204.218 186.134 201.72 186.134 198.321Z" fill="#333333"/>
<path d="M202.175 196.085C202.175 199.119 199.978 200.949 196.356 200.949H192.53V205.451H191.025V191.194H196.356C199.971 191.194 202.175 193.025 202.175 196.082V196.085ZM200.66 196.085C200.66 193.802 199.155 192.498 196.306 192.498H192.517V199.622H196.306C199.152 199.622 200.66 198.318 200.66 196.082V196.085Z" fill="#333333"/>
<path d="M27.7142 197.825C27.7142 200.413 25.6301 202.511 23.0566 202.511C22.2742 202.511 21.5085 202.313 20.8226 201.934C20.3965 201.7 20.0103 201.398 19.6774 201.046C17.9129 199.166 17.9994 196.202 19.8671 194.426C19.9271 194.369 19.9903 194.312 20.0569 194.255C20.4131 193.946 20.8127 193.695 21.2455 193.507C23.2697 192.649 25.6168 193.33 26.8753 195.14C27.2348 195.656 27.4845 196.243 27.6144 196.859C27.6809 197.178 27.7142 197.5 27.7142 197.825Z" fill="#3D9BE9"/>
<path d="M18.2757 205.102C17.9528 204.723 17.5499 204.422 17.0938 204.224L17.0772 204.217C15.4159 203.5 13.4949 204.274 12.7824 205.947C12.0699 207.619 12.839 209.554 14.5003 210.271C16.1616 210.988 18.0826 210.214 18.7951 208.541C19.2845 207.392 19.0847 206.061 18.2757 205.105V205.102Z" fill="#3D9BE9"/>
<path d="M19.0385 186.263C18.073 185.291 16.5116 185.294 15.5461 186.263C14.5806 187.235 14.584 188.807 15.5461 189.779C16.5116 190.748 18.073 190.748 19.0385 189.779L19.0452 189.773C20.004 188.801 20.004 187.228 19.0385 186.26V186.263Z" fill="#3D9BE9"/>
<path d="M36.9637 190.534C35.5288 189.089 33.1983 189.089 31.7634 190.534C30.9577 191.345 30.5715 192.488 30.718 193.625C30.718 193.625 30.718 193.651 30.7213 193.665C30.8046 194.255 31.0243 194.815 31.3705 195.301C31.3805 195.314 31.3872 195.324 31.3972 195.338C31.5071 195.488 31.6302 195.633 31.7634 195.767C33.2017 197.215 35.5288 197.215 36.9671 195.767C38.4053 194.318 38.4053 191.975 36.9671 190.527V190.534H36.9637Z" fill="#3D9BE9"/>
<path d="M20.8229 201.934C20.3968 201.699 20.0106 201.397 19.6777 201.045C19.7176 201.096 19.9507 201.511 18.8087 202.963C17.7134 204.357 17.1907 204.257 17.0908 204.22C17.5469 204.418 17.9498 204.719 18.2727 205.098C18.2594 205.064 18.0796 204.595 19.1416 203.248C20.247 201.85 20.8263 201.934 20.8263 201.934H20.8229Z" fill="#3D9BE9"/>
<path d="M19.833 191.945C18.8542 190.302 19.0573 189.766 19.0573 189.766L19.044 189.773L19.0373 189.779C18.7543 190.068 18.4014 190.279 18.0186 190.396C18.0186 190.396 18.468 190.413 19.4268 192.106C20.379 193.788 20.0694 194.221 20.0527 194.244C20.409 193.939 20.8118 193.691 21.2413 193.507C21.2413 193.507 20.8085 193.591 19.8297 191.945H19.833Z" fill="#3D9BE9"/>
<path d="M30.7164 193.668C30.7264 193.832 30.6531 194.469 29.1383 195.069C27.4537 195.74 26.911 195.186 26.8711 195.143C27.2307 195.659 27.4804 196.246 27.6102 196.863C27.6069 196.819 27.5669 196.195 29.3015 195.481C30.803 194.861 31.2524 195.183 31.3589 195.304C31.016 194.818 30.7963 194.258 30.7131 193.668H30.7164Z" fill="#3D9BE9"/>
<path d="M30.2248 207.238C31.0706 207.238 31.7563 206.547 31.7563 205.696C31.7563 204.844 31.0706 204.154 30.2248 204.154C29.379 204.154 28.6934 204.844 28.6934 205.696C28.6934 206.547 29.379 207.238 30.2248 207.238Z" fill="#3D9BE9"/>
<path d="M12.8524 199.302C14.1818 199.302 15.2594 198.217 15.2594 196.878C15.2594 195.54 14.1818 194.455 12.8524 194.455C11.523 194.455 10.4453 195.54 10.4453 196.878C10.4453 198.217 11.523 199.302 12.8524 199.302Z" fill="#3D9BE9"/>
<path d="M25.9203 190.711C26.4388 190.711 26.8592 190.288 26.8592 189.766C26.8592 189.244 26.4388 188.821 25.9203 188.821C25.4018 188.821 24.9814 189.244 24.9814 189.766C24.9814 190.288 25.4018 190.711 25.9203 190.711Z" fill="#3D9BE9"/>
<path d="M9.46588 232.956C10.3615 233.435 11.8064 233.934 13.2779 233.934C14.6229 233.934 15.2888 233.432 15.2888 232.634C15.2888 231.88 14.6296 231.434 12.9649 230.827C10.488 229.885 8.83665 228.417 8.83665 226.07C8.83665 223.278 11.0273 221.139 14.7428 221.139C16.4973 221.139 17.7524 221.491 18.7179 221.947L17.8956 225.323C17.263 225.025 16.171 224.575 14.6995 224.575C13.501 224.575 12.8418 225.048 12.8418 225.739C12.8418 226.54 13.6208 226.861 15.4752 227.606C18.1253 228.648 19.3072 230.167 19.3072 232.362C19.3072 235.088 17.333 237.404 13.0415 237.404C11.2703 237.404 9.55244 236.908 8.7168 236.445L9.46256 232.959L9.46588 232.956Z" fill="white"/>
<path d="M30.6553 230.797H25.3717V233.703H31.2778V237.156H21.4365V221.384H30.9715V224.837H25.3717V227.381H30.6553V230.797Z" fill="white"/>
<path d="M33.4731 221.602C34.585 221.415 36.253 221.264 38.2206 221.264C40.4712 221.264 42.0859 221.599 43.1945 222.494C44.1367 223.265 44.6461 224.388 44.6461 225.933C44.6461 227.898 43.2711 229.299 42.1258 229.748V229.828C43.1013 230.278 43.6307 231.287 44.0069 232.654C44.4497 234.257 44.9324 236.55 45.2187 237.16H41.1936C40.9706 236.704 40.5877 235.47 40.1616 233.526C39.7621 231.635 39.2227 231.243 38.0075 231.243H37.3683V237.156H33.4697V221.602H33.4731ZM37.3716 228.213H38.3971C39.8786 228.213 40.7375 227.435 40.7375 226.252C40.7375 225.068 40.0117 224.398 38.7033 224.385C37.9609 224.385 37.5681 224.425 37.3716 224.479V228.209V228.213Z" fill="white"/>
<path d="M50.6856 221.384V230.335C50.6856 232.715 51.4547 234.062 53.0128 234.062C54.5709 234.062 55.3399 232.839 55.3399 230.335V221.384H59.2751V230.083C59.2751 234.957 57.0179 237.414 52.8862 237.414C48.7546 237.414 46.7471 235.044 46.7471 229.983V221.384H50.6823H50.6856Z" fill="white"/>
<path d="M74.4066 231.511C74.3566 229.721 74.32 227.616 74.3233 225.145H74.2634C73.8106 227.247 73.188 229.597 72.7153 231.33L71.2604 236.831H68.1808L66.949 231.35C66.5728 229.654 66.12 227.321 65.7771 225.149H65.7338C65.6506 227.371 65.574 229.724 65.5107 231.515L65.2877 237.16H61.6621L62.5677 221.388H67.8679L68.84 225.635C69.2429 227.391 69.679 229.48 69.9853 231.414H70.0619C70.4714 229.49 70.9608 227.261 71.3936 225.598L72.4956 221.384H77.6759L78.4117 237.156H74.5897L74.4165 231.511H74.4066Z" fill="white"/>
<path d="M85.1561 221.602C86.045 221.428 87.986 221.264 89.8004 221.264C91.8779 221.264 93.1363 221.421 94.2816 222.035C95.4269 222.608 96.2592 223.744 96.2592 225.283C96.2592 226.61 95.5833 227.904 93.8754 228.595V228.652C95.6732 229.171 96.7552 230.606 96.7552 232.477C96.7552 233.962 96.0861 235.128 95.1073 235.916C94.0019 236.804 92.1742 237.331 89.0214 237.331C87.2435 237.331 85.9418 237.207 85.1494 237.072V221.599L85.1561 221.602ZM89.0547 227.459H89.8437C91.505 227.459 92.314 226.828 92.314 225.809C92.314 224.884 91.6581 224.301 90.3397 224.301C89.6806 224.301 89.3077 224.341 89.0547 224.395V227.459ZM89.0547 234.193C89.3443 234.24 89.6806 234.24 90.1899 234.24C91.4983 234.24 92.617 233.677 92.617 232.292C92.617 230.908 91.4784 230.442 90.0002 230.442H89.058V234.193H89.0547Z" fill="white"/>
<path d="M102.656 233.501L101.827 237.159H97.7549L102.02 221.387H107.263L111.648 237.159H107.396L106.458 233.501H102.659H102.656ZM105.915 230.384L105.232 227.548C105.009 226.66 104.73 225.373 104.503 224.441H104.46C104.244 225.373 104.024 226.67 103.811 227.565L103.178 230.384H105.915Z" fill="white"/>
<path d="M113.788 232.956C114.684 233.435 116.129 233.934 117.6 233.934C118.945 233.934 119.611 233.432 119.611 232.634C119.611 231.88 118.952 231.434 117.287 230.827C114.81 229.885 113.159 228.417 113.159 226.07C113.159 223.278 115.35 221.139 119.065 221.139C120.82 221.139 122.075 221.491 123.04 221.947L122.218 225.323C121.585 225.025 120.493 224.575 119.022 224.575C117.823 224.575 117.164 225.048 117.164 225.739C117.164 226.54 117.943 226.861 119.797 227.606C122.448 228.648 123.629 230.167 123.629 232.362C123.629 235.088 121.655 237.404 117.364 237.404C115.593 237.404 113.875 236.908 113.039 236.445L113.785 232.959L113.788 232.956Z" fill="white"/>
<path d="M134.979 230.797H129.696V233.703H135.602V237.156H125.761V221.384H135.296V224.837H129.696V227.381H134.979V230.797Z" fill="white"/>
<path d="M12.3555 290.901V288.645L14.0933 287.002C16.6436 284.629 17.9287 283.228 17.9586 281.847C17.9586 280.871 17.3594 280.171 16.0843 280.171C15.0322 280.171 14.0834 280.731 13.3875 281.264L12.442 278.589C13.4142 277.831 14.9923 277.187 16.7867 277.187C19.7032 277.187 21.4344 278.884 21.4344 281.548C21.4344 283.704 19.9995 285.437 18.5213 286.738L17.2861 287.783V287.824H21.6575V290.894H12.3588L12.3555 290.901Z" fill="white"/>
<path d="M32.7501 286.013C32.7501 289.493 30.433 291.115 27.9327 291.115C25.2626 291.115 23.1885 289.295 23.1885 286.181C23.1885 283.067 25.0629 281.109 28.0992 281.109C30.8957 281.109 32.7468 283.134 32.7468 286.013H32.7501ZM26.5644 286.107C26.5644 287.542 27.0038 288.638 28.0159 288.638C28.8948 288.638 29.3776 287.646 29.3776 286.107C29.3776 284.783 28.9781 283.586 28.0093 283.586C26.9339 283.586 26.5677 284.857 26.5677 286.107H26.5644Z" fill="white"/>
<path d="M33.5791 288.896L35.8696 285.916C36.4223 285.235 36.8418 284.742 37.3845 284.139V284.095H33.8687V281.32H41.3796V283.412L39.2422 286.211C38.7128 286.871 38.2068 287.521 37.6541 288.081V288.125H41.546V290.9H33.5791V288.896Z" fill="white"/>
<path d="M147.878 289.405C148.168 289.318 148.527 289.285 148.87 289.285C149.463 289.285 149.912 289.412 150.225 289.731C150.525 290.039 150.651 290.455 150.651 290.941C150.651 291.735 150.288 292.255 149.682 292.543V292.56C150.125 292.701 150.362 293.14 150.495 293.954C150.635 294.802 150.758 295.332 150.841 295.526H150.135C150.052 295.342 149.932 294.755 149.816 293.991C149.682 293.136 149.419 292.821 148.833 292.821H148.56V295.526H147.878V289.405ZM148.56 292.268H148.853C149.506 292.268 149.949 291.769 149.949 291.028C149.949 290.287 149.666 289.861 148.923 289.855C148.783 289.855 148.65 289.865 148.56 289.891V292.268Z" fill="#333333"/>
<path d="M153.737 292.573H152.226V294.909H153.947V295.526H151.54V289.315H153.837V289.932H152.226V291.976H153.737V292.576V292.573Z" fill="#333333"/>
<path d="M154.571 294.705C154.774 294.839 155.137 294.957 155.436 294.957C156.069 294.957 156.445 294.531 156.445 293.901C156.445 293.328 156.119 292.979 155.646 292.61C155.17 292.268 154.511 291.688 154.511 290.887C154.511 289.949 155.15 289.255 156.109 289.255C156.482 289.255 156.808 289.379 156.951 289.483L156.785 290.089C156.632 289.979 156.379 289.878 156.066 289.878C155.476 289.878 155.193 290.341 155.193 290.767C155.193 291.383 155.506 291.628 156.079 292.044C156.805 292.573 157.128 293.147 157.128 293.834C157.128 294.906 156.395 295.58 155.436 295.58C155.023 295.58 154.591 295.439 154.421 295.309L154.567 294.705H154.571Z" fill="#333333"/>
<path d="M160.14 292.573H158.632V294.91H160.353V295.526H157.946V289.315H160.243V289.932H158.632V291.976H160.14V292.576V292.573Z" fill="#333333"/>
<path d="M161.831 293.662L161.431 295.526H160.766L162.147 289.315H162.91L164.248 295.526H163.569L163.173 293.662H161.834H161.831ZM163.076 293.093L162.76 291.514C162.67 291.075 162.59 290.562 162.517 290.096H162.487C162.417 290.565 162.327 291.098 162.244 291.52L161.928 293.093H163.076Z" fill="#333333"/>
<path d="M165.008 289.406C165.297 289.318 165.657 289.285 166 289.285C166.593 289.285 167.042 289.412 167.355 289.731C167.655 290.039 167.781 290.455 167.781 290.941C167.781 291.735 167.418 292.255 166.812 292.543V292.56C167.255 292.701 167.491 293.14 167.625 293.954C167.764 294.802 167.888 295.332 167.971 295.527H167.265C167.182 295.342 167.062 294.756 166.945 293.991C166.812 293.137 166.549 292.821 165.963 292.821H165.69V295.527H165.008V289.406ZM165.69 292.268H165.983C166.636 292.268 167.079 291.769 167.079 291.028C167.079 290.287 166.796 289.861 166.053 289.855C165.913 289.855 165.78 289.865 165.69 289.892V292.268Z" fill="#333333"/>
<path d="M171.3 295.416C171.113 295.517 170.81 295.58 170.434 295.58C169.259 295.58 168.413 294.605 168.413 292.493C168.413 290.042 169.592 289.255 170.547 289.255C170.91 289.255 171.176 289.328 171.296 289.409L171.143 290.016C170.997 289.945 170.85 289.882 170.537 289.882C169.895 289.882 169.136 290.532 169.136 292.422C169.136 294.313 169.815 294.947 170.557 294.947C170.813 294.947 171.043 294.883 171.19 294.816L171.3 295.416Z" fill="#333333"/>
<path d="M172.695 289.312V291.977H174.386V289.312H175.072V295.524H174.386V292.621H172.695V295.524H172.009V289.312H172.695Z" fill="#333333"/>
<path d="M178.231 289.312V293.476C178.231 294.598 178.597 294.974 179.053 294.974C179.562 294.974 179.895 294.572 179.895 293.476V289.312H180.581V293.365C180.581 294.977 179.935 295.597 179.043 295.597C178.151 295.597 177.545 294.987 177.545 293.449V289.312H178.231Z" fill="#333333"/>
<path d="M181.509 294.705C181.712 294.839 182.075 294.957 182.375 294.957C183.007 294.957 183.384 294.531 183.384 293.901C183.384 293.328 183.057 292.979 182.585 292.61C182.108 292.268 181.449 291.688 181.449 290.887C181.449 289.949 182.088 289.255 183.047 289.255C183.42 289.255 183.746 289.379 183.89 289.483L183.723 290.089C183.57 289.979 183.317 289.878 183.004 289.878C182.415 289.878 182.132 290.341 182.132 290.767C182.132 291.383 182.445 291.628 183.017 292.044C183.743 292.573 184.066 293.147 184.066 293.834C184.066 294.906 183.334 295.58 182.375 295.58C181.962 295.58 181.529 295.439 181.359 295.309L181.506 294.705H181.509Z" fill="#333333"/>
<path d="M187.079 292.573H185.568V294.909H187.289V295.526H184.882V289.315H187.179V289.932H185.568V291.976H187.079V292.576V292.573Z" fill="#333333"/>
<path d="M192.619 292.379C192.619 294.702 191.846 295.601 190.871 295.601C189.895 295.601 189.196 294.501 189.196 292.416C189.196 290.331 189.915 289.242 190.967 289.242C192.02 289.242 192.615 290.395 192.615 292.379H192.619ZM189.915 292.42C189.915 293.697 190.155 294.977 190.924 294.977C191.693 294.977 191.906 293.62 191.906 292.4C191.906 291.179 191.7 289.862 190.918 289.862C190.135 289.862 189.919 291.159 189.919 292.42H189.915Z" fill="#333333"/>
<path d="M193.452 295.526V289.315H194.101L195.207 292.228C195.46 292.895 195.769 293.716 195.979 294.39H195.996C195.942 293.411 195.912 292.61 195.912 291.537V289.315H196.532V295.526H195.883L194.737 292.539C194.494 291.913 194.235 291.209 194.021 290.431H194.005C194.058 291.262 194.071 292.05 194.071 293.378V295.53H193.452V295.526Z" fill="#333333"/>
<path d="M197.614 289.312H198.3V294.924H199.994V295.524H197.61V289.312H197.614Z" fill="#333333"/>
<path d="M200.874 295.526V292.898L199.542 289.315H200.274L200.807 290.87C200.957 291.303 201.12 291.792 201.253 292.275H201.27C201.393 291.795 201.553 291.323 201.709 290.843L202.222 289.315H202.941L201.556 292.868V295.526H200.87H200.874Z" fill="#333333"/>
<path d="M210.108 170.866V318.916C210.108 321.242 209.448 321.453 205.746 321.453C205.59 321.453 163.072 321.755 132.559 322.056C125.118 322.13 117.038 322.164 108.275 322.164C98.4006 322.164 89.3815 322.12 81.1516 322.03H2.09473V313.331C2.09473 313.331 2.29449 317.565 5.9933 317.565C16.1642 317.565 198.805 317.058 198.811 317.058C206.209 317.058 206.039 316.592 206.039 304.488V172.267C206.039 169.941 205.746 170.403 198.811 170.403H2.29781L3.68612 167.162H206.289C208.346 167.162 210.034 168.801 210.108 170.869V170.866Z" fill="#3D9BE9"/>
<path d="M209.907 217.269H206.038V240.979H209.907V217.269Z" fill="#333333"/>
<path d="M206.236 322.777H5.83046C3.3102 322.777 1.2627 320.712 1.2627 318.178V170.919C1.2627 168.381 3.31353 166.32 5.83046 166.32H206.236C208.756 166.32 210.804 168.385 210.804 170.919V318.178C210.804 320.715 208.753 322.777 206.236 322.777ZM5.83046 167.992C4.22908 167.992 2.92733 169.303 2.92733 170.915V318.174C2.92733 319.787 4.22908 321.097 5.83046 321.097H206.236C207.837 321.097 209.139 319.787 209.139 318.174V170.915C209.139 169.303 207.837 167.992 206.236 167.992H5.83046Z" fill="#333333"/>
<path d="M210.281 302.527H1.46582V177.01H210.281V302.527ZM3.13046 300.851H208.616V178.686H3.13046V300.851Z" fill="#333333"/>
<path d="M210.614 144.48V162.227C210.614 164.935 208.427 167.137 205.73 167.137H6.60963C3.91292 167.137 1.72559 164.935 1.72559 162.227V144.48C1.72559 141.52 4.07605 139.12 6.97251 139.12H205.36C208.254 139.12 210.607 141.517 210.607 144.48H210.614Z" fill="white"/>
<path d="M210.614 144.481V162.227C210.614 164.936 208.427 167.138 205.73 167.138H6.60963C3.91292 167.138 1.72559 164.936 1.72559 162.227V160.511C1.72559 163.417 2.75766 163.883 12.003 163.883H201.119C207.132 163.883 206.669 162.485 206.669 149.915C206.669 142.932 206.669 139.124 202.86 139.124H205.36C208.254 139.124 210.607 141.521 210.607 144.484L210.614 144.481Z" fill="#3D9BE9"/>
<path d="M205.73 167.979H6.60952C3.46002 167.979 0.896484 165.398 0.896484 162.227V144.481C0.896484 141.065 3.62316 138.286 6.97574 138.286H205.36C208.713 138.286 211.44 141.065 211.44 144.481V162.227C211.44 165.398 208.876 167.979 205.727 167.979H205.73ZM6.97574 139.962C4.54204 139.962 2.56112 141.99 2.56112 144.481V162.227C2.56112 164.476 4.37557 166.303 6.60952 166.303H205.73C207.961 166.303 209.778 164.476 209.778 162.227V144.481C209.778 141.99 207.797 139.962 205.364 139.962H6.97574Z" fill="#333333"/>
<path d="M259.929 139.113V149.337C259.929 155.706 258.597 156.711 251.506 162.913C242.807 170.522 240.559 173.137 240.559 186.699L240.383 309.461C240.376 313.896 244.185 317.489 248.886 317.489H333.962C338.663 317.489 342.482 313.896 342.485 309.461C342.485 303.869 342.831 196.421 342.831 186.21C342.831 172.647 340.238 170.522 331.535 162.913C324.444 156.711 323.112 155.706 323.112 149.337V139.113H259.932H259.929Z" fill="#DCF0FF"/>
<path d="M342.661 181.685L342.481 309.462C342.474 313.896 338.659 317.49 333.958 317.49H248.882C244.181 317.49 240.372 313.896 240.379 309.462L240.392 300.431C240.379 309.519 241.238 312.445 263.314 312.445H326.317C338.166 312.445 335.896 311.144 335.919 292.604L336.075 181.682C336.075 174.307 334.457 170.395 325.076 163.467C315.694 156.538 316.692 152.854 316.692 148.161C316.692 143.468 316.692 142.797 304.374 142.797H259.928V138.775H323.311V151.882C323.311 157.882 333.399 163.131 338.699 169.765C342.328 174.311 342.661 177.663 342.661 181.685Z" fill="#3D9BE9"/>
<path d="M246.6 130.921L246.613 119.674H336.337L336.323 130.941C336.317 135.456 332.555 139.117 327.914 139.117H255.009C250.362 139.117 246.593 135.446 246.6 130.921Z" fill="#3D9BE9"/>
<path d="M337.114 100.724H246.89C245.369 100.724 244.131 102.115 244.131 103.832L244.117 116.087C244.117 117.8 245.349 119.194 246.871 119.194H337.094C338.615 119.194 339.854 117.803 339.854 116.087L339.867 103.832C339.867 102.119 338.635 100.724 337.114 100.724Z" fill="white"/>
<path d="M339.869 103.832L339.856 116.087C339.856 117.8 338.617 119.194 337.096 119.194H246.872C245.351 119.194 244.116 117.803 244.119 116.087V112.507C244.242 115.98 246.336 115.685 275.431 115.685H328.643C335.434 115.685 335.278 116.422 335.288 107.928C335.295 101.649 333.154 100.724 333.154 100.724H337.119C338.64 100.724 339.876 102.115 339.872 103.832H339.869Z" fill="#3D9BE9"/>
<path d="M342.227 189.059H240.688V292.331H342.224V189.059H342.227Z" fill="white"/>
<path d="M342.226 189.059H336.004L335.824 292.16H342.223V189.059H342.226Z" fill="#3D9BE9"/>
<path d="M333.956 318.327H248.88C246.317 318.327 243.836 317.311 242.079 315.538C240.441 313.889 239.542 311.727 239.545 309.457L239.721 186.696C239.721 172.724 242.235 169.902 250.958 162.279L251.464 161.837C258.079 156.054 259.094 155.166 259.094 149.337V138.275H323.939V149.337C323.939 155.169 324.954 156.058 331.569 161.837L332.342 162.51C340.805 169.908 343.655 172.402 343.655 186.207C343.655 192.076 343.541 229.422 343.441 262.37C343.368 286.361 343.308 307.081 343.308 309.457C343.302 314.345 339.103 318.324 333.953 318.324L333.956 318.327ZM260.759 139.951V149.337C260.759 155.934 259.184 157.311 252.552 163.104L252.046 163.546C243.597 170.934 241.386 173.418 241.386 186.699L241.21 309.461C241.21 311.281 241.935 313.021 243.257 314.355C244.705 315.813 246.753 316.651 248.88 316.651H333.956C338.191 316.651 341.644 313.426 341.647 309.461C341.647 307.081 341.71 286.361 341.78 262.37C341.88 229.422 341.993 192.076 341.993 186.21C341.993 173.17 339.719 171.179 331.253 163.777L330.481 163.104C323.852 157.311 322.274 155.934 322.274 149.337V139.951H260.759Z" fill="#333333"/>
<path d="M343.056 293.169H239.852V188.054H343.059V293.169H343.056ZM241.516 291.493H341.391V189.73H241.52V291.493H241.516Z" fill="#333333"/>
<path d="M327.916 139.951H255.012C252.488 139.951 250.128 138.976 248.373 137.206C246.692 135.509 245.77 133.277 245.77 130.917L245.786 118.873H337.175L337.158 130.941C337.151 135.908 333.006 139.951 327.916 139.951ZM247.447 120.549L247.434 130.917C247.434 132.828 248.183 134.641 249.548 136.019C250.99 137.474 252.931 138.275 255.008 138.275H327.913C332.084 138.275 335.483 134.983 335.49 130.937L335.503 120.549H247.444H247.447Z" fill="#333333"/>
<path d="M337.092 120.029H246.869C245.967 120.029 245.108 119.661 244.445 118.993C243.706 118.249 243.283 117.187 243.283 116.084L243.297 103.828C243.297 101.653 244.911 99.8864 246.889 99.8864H337.112C338.011 99.8864 338.873 100.255 339.536 100.922C340.275 101.666 340.698 102.729 340.698 103.832L340.684 116.087C340.684 118.263 339.07 120.029 337.092 120.029ZM246.889 101.562C245.827 101.562 244.961 102.581 244.961 103.832L244.948 116.087C244.948 116.747 245.194 117.378 245.624 117.81C245.973 118.162 246.416 118.353 246.869 118.353H337.092C338.154 118.353 339.02 117.334 339.02 116.084L339.033 103.828C339.033 103.168 338.787 102.538 338.357 102.105C338.008 101.753 337.565 101.562 337.112 101.562H246.889Z" fill="#333333"/>
<path d="M246.6 130.082C246.6 133.749 249.443 135.761 259.764 135.761H326.016C331.01 135.761 333.048 132.409 333.048 129.392V122.017H246.613V119.711H336.34V129.392C336.34 134.755 333.81 139.113 327.917 139.113H256.438C249.446 139.113 247.782 135.426 247.116 134.085C246.45 132.744 246.603 130.082 246.603 130.082H246.6Z" fill="#333333"/>
<path d="M249.942 123.358H248.277V132.408H249.942V123.358Z" fill="white"/>
<path d="M244.116 294.855H242.451V306.112H244.116V294.855Z" fill="white"/>
<path d="M244.116 185.157H242.451C242.451 177.839 244.019 172.768 252.595 165.356L252.645 165.312C261.321 157.81 262.437 156.845 262.437 148.602H264.101C264.101 157.616 262.517 158.987 253.731 166.586L253.681 166.63C244.805 174.306 244.119 179.153 244.119 185.16L244.116 185.157Z" fill="white"/>
<path d="M249.16 141.494V320.061C249.16 326.745 243.78 332.162 237.141 332.162H115.619C108.981 332.162 103.601 326.745 103.601 320.061V141.494C103.601 130.529 108.292 120.097 116.472 112.863L137.932 93.8835C139.8 92.2309 140.868 89.8509 140.868 87.3469V39.5591H211.885V87.3469C211.885 89.8509 212.957 92.2309 214.822 93.8835L236.282 112.863C244.462 120.097 249.153 130.532 249.153 141.494H249.16Z" fill="white"/>
<path d="M200.022 54.7703C206.228 54.7703 205.219 51.7266 205.219 48.1767C205.219 44.6268 204.717 45.1329 181.548 45.1329H140.871V40.3931H211.888V54.7669H200.022V54.7703Z" fill="#3D9BE9"/>
<path d="M104.023 135.821C104.023 135.821 103.184 132.868 110.382 131.346C117.583 129.821 136.576 126.961 154.528 129.405C172.479 131.849 180.27 131.658 184.684 130.739C189.099 129.821 199.57 129.284 223.294 128.54C247.022 127.796 246.799 128.255 247.917 131.829C249.036 135.402 249.156 141.359 249.156 159.172V313.906C249.156 331.149 242.467 332.161 234.417 332.161H116.431C110.022 332.161 103.597 328.135 103.597 318.233C103.597 308.331 104.019 135.824 104.019 135.824L104.023 135.821Z" fill="#DCF0FF"/>
<path d="M103.707 316.775C103.707 327.09 111.541 324.555 155.863 324.555H230.339C242.994 324.555 241.988 317.962 241.988 295.144V148.589C241.988 128.812 236.448 120.699 219.829 108.018C203.209 95.3407 205.223 95.3406 205.223 81.6472C205.223 67.9538 200.186 69.9853 171.98 69.9853H140.875V64.9135H211.892V86.2128C211.892 90.7784 212.641 92.1561 221.273 99.5811C229.903 107.006 240.653 114.783 244.848 123.824C249.043 132.868 249.163 135.154 249.163 150.238V317.965C249.163 326.081 244.891 332.165 237.144 332.165H115.572C111.544 332.165 105.808 329.848 104.143 323.654C102.478 317.459 103.71 316.778 103.71 316.778L103.707 316.775Z" fill="#3D9BE9"/>
<path d="M237.14 333H115.619C108.534 333 102.768 327.198 102.768 320.061V141.494C102.768 130.291 107.562 119.624 115.922 112.233L137.382 93.2534C139.07 91.7617 140.039 89.6096 140.039 87.3469V38.7211H212.72V87.3469C212.72 89.6096 213.689 91.7617 215.377 93.2534L236.837 112.233C245.197 119.624 249.991 130.291 249.991 141.494V320.061C249.991 327.195 244.228 333 237.14 333ZM141.703 40.3971V87.3469C141.703 90.0889 140.528 92.7036 138.481 94.5138L117.02 113.493C109.02 120.57 104.432 130.774 104.432 141.497V320.065C104.432 326.276 109.449 331.328 115.619 331.328H237.14C243.309 331.328 248.327 326.276 248.327 320.065V141.497C248.327 130.777 243.739 120.57 235.739 113.493L214.278 94.5138C212.231 92.7036 211.055 90.0923 211.055 87.3469V40.3971H141.703Z" fill="#333333"/>
<path d="M249.156 158.73H103.601V302.75H249.156V158.73Z" fill="white"/>
<path d="M249.16 158.73V302.75H242.008C242.002 300.444 241.988 297.913 241.988 295.144V158.73H249.16Z" fill="#3D9BE9"/>
<path d="M249.992 303.588H102.771V157.892H249.992V303.588ZM104.436 301.912H248.327V159.568H104.436V301.912Z" fill="#333333"/>
<path d="M222.466 54.7708H130.295V64.9143H222.466V54.7708Z" fill="white"/>
<path d="M130.295 60.3487C130.295 62.8829 170.972 60.3487 195.146 60.3487C219.32 60.3487 217.811 61.8706 217.811 58.3207C217.811 54.7708 215.068 54.7708 215.068 54.7708H222.466V64.9143H130.295V60.3487Z" fill="#3D9BE9"/>
<path d="M223.297 65.7521H129.462V53.9325H223.297V65.7521ZM131.127 64.076H221.633V55.6086H131.127V64.076Z" fill="#333333"/>
<path d="M218.687 24.3436H134.073V39.5556H218.687V24.3436Z" fill="white"/>
<path d="M219.519 40.3935H133.241V23.5055H219.519V40.3935ZM134.906 38.7175H217.855V25.1816H134.906V38.7175Z" fill="#333333"/>
<path d="M221.812 18.9203V38.138C221.812 39.9113 220.294 41.3459 218.419 41.3459H134.342C132.467 41.3459 130.949 39.9079 130.949 38.138V18.9203H221.812Z" fill="#3D9BE9"/>
<path d="M221.812 18.9203V35.6105C221.812 38.7783 219.095 41.3459 215.746 41.3459H137.015C133.666 41.3459 130.949 38.7749 130.949 35.6105V34.0685C130.949 36.8675 134.768 36.9781 139.995 36.9781H193.869C211.561 36.9781 214.777 37.7391 214.777 35.0775V30.5153C214.777 27.0928 214.374 24.8133 211.135 24.8133C207.895 24.8133 209.953 24.4345 170.551 24.4345C131.149 24.4345 130.949 22.5339 130.949 30.6728V18.9236H221.812V18.9203Z" fill="#333333"/>
<path d="M218.134 42.2981H134.626C132.039 42.2981 129.941 40.317 129.941 37.87V17.9684H222.815V37.87C222.815 40.3137 220.717 42.2981 218.13 42.2981H218.134ZM131.952 19.8691V37.87C131.952 39.2645 133.147 40.3975 134.626 40.3975H218.134C219.609 40.3975 220.807 39.2678 220.807 37.87V19.8691H131.952Z" fill="#333333"/>
<path d="M137.582 29.5002C137.582 27.4521 134.769 26.0777 134.769 31.0221C134.769 35.9665 137.582 37.1028 137.582 29.5002Z" fill="white"/>
<path d="M228.388 3.94183V15.929C228.388 17.6051 227.046 18.966 225.391 18.966H127.367C125.716 18.966 124.371 17.6051 124.371 15.929V3.94183C124.371 2.26577 125.713 0.904785 127.367 0.904785H225.391C227.042 0.904785 228.388 2.26577 228.388 3.94183Z" fill="white"/>
<path d="M228.388 3.94238V15.9296C228.388 17.609 227.046 18.9665 225.391 18.9665H127.367C125.713 18.9665 124.371 17.6056 124.371 15.9296V12.4299C124.508 15.8256 126.778 15.5373 158.39 15.5373H216.199C223.577 15.5373 223.41 16.2614 223.41 7.9515C223.41 1.81042 221.083 0.908691 221.083 0.908691H225.391C227.046 0.908691 228.388 2.26967 228.388 3.94573V3.94238Z" fill="#3D9BE9"/>
<path d="M225.391 19.868H127.367C125.223 19.868 123.479 18.0981 123.479 15.9259V3.9421C123.479 1.76992 125.223 0 127.367 0H225.391C227.535 0 229.279 1.76992 229.279 3.9421V15.9259C229.279 18.0981 227.535 19.868 225.391 19.868ZM127.367 1.80676C126.205 1.80676 125.26 2.7655 125.26 3.9421V15.9259C125.26 17.1025 126.205 18.0612 127.367 18.0612H225.391C226.553 18.0612 227.498 17.1025 227.498 15.9259V3.9421C227.498 2.7655 226.553 1.80676 225.391 1.80676H127.367Z" fill="#333333"/>
<path d="M244.121 195.241H108.637V266.236H244.121V195.241Z" fill="#3D9BE9"/>
<path d="M244.122 195.241H241.988V266.236H244.122V195.241Z" fill="#333333"/>
<path d="M114.687 210.058C115.579 209.827 116.761 209.727 118.006 209.727C119.411 209.727 120.769 209.931 121.818 210.957C122.62 211.724 122.953 212.881 122.953 214.084C122.953 215.623 122.261 217.111 120.792 217.855V217.959C122.53 218.523 123.446 220.165 123.446 222.089C123.446 223.5 123.046 224.627 122.331 225.475C121.438 226.604 119.923 227.218 117.407 227.218C116.291 227.218 115.356 227.141 114.687 227.013V210.065V210.058ZM117.606 216.903H118.229C119.278 216.903 120.08 215.878 120.08 214.467C120.08 213.209 119.567 212.234 118.385 212.234C118.052 212.234 117.783 212.261 117.606 212.338V216.903ZM117.606 224.57C117.786 224.62 118.006 224.62 118.252 224.62C119.457 224.62 120.413 223.772 120.413 222.029C120.413 220.286 119.387 219.387 118.229 219.387H117.606V224.566V224.57Z" fill="white"/>
<path d="M127.834 223.135L127.165 227.083H124.335L127.588 209.8H131.087L134.006 227.083H131.177L130.531 223.135H127.834ZM130.264 220.52L129.775 216.903C129.619 215.854 129.419 214.107 129.286 212.981H129.219C129.063 214.134 128.839 215.904 128.683 216.903L128.127 220.52H130.268H130.264Z" fill="white"/>
<path d="M142.499 226.829C142.076 227.06 141.251 227.238 140.248 227.238C136.393 227.238 134.565 223.621 134.565 218.7C134.565 212.187 137.708 209.649 140.628 209.649C141.653 209.649 142.366 209.881 142.656 210.112L142.166 212.931C141.833 212.75 141.454 212.599 140.808 212.599C139.16 212.599 137.665 214.238 137.665 218.522C137.665 222.806 139.023 224.265 140.808 224.265C141.297 224.265 141.857 224.137 142.213 224.01L142.502 226.829H142.499Z" fill="white"/>
<path d="M146.264 212.904H143.61V209.8H151.857V212.904H149.184V227.083H146.264V212.904Z" fill="white"/>
<path d="M159.725 219.494H156.316V224.16H160.172V227.083H153.396V209.8H159.925V212.723H156.316V216.699H159.725V219.494Z" fill="white"/>
<path d="M162.175 210.058C163.087 209.854 164.249 209.727 165.361 209.727C166.966 209.727 168.414 210.008 169.373 211.01C170.285 211.959 170.575 213.112 170.575 214.601C170.575 216.448 169.773 218.114 168.258 218.908V218.958C169.283 219.444 169.796 220.524 170.086 222.394C170.375 224.318 170.778 226.447 171.044 227.087H167.991C167.792 226.601 167.455 224.855 167.232 222.934C166.966 220.805 166.497 220.189 165.538 220.189H165.092V227.087H162.172V210.062L162.175 210.058ZM165.095 217.597H165.631C166.903 217.597 167.615 216.417 167.615 214.906C167.615 213.394 167.103 212.392 165.811 212.341C165.544 212.341 165.255 212.368 165.098 212.445V217.601L165.095 217.597Z" fill="white"/>
<path d="M175.569 209.8V227.083H172.649V209.8H175.569Z" fill="white"/>
<path d="M187.045 218.134C187.045 224.647 185.041 227.288 182.188 227.288C178.779 227.288 177.44 223.135 177.44 218.392C177.44 213.648 179.068 209.596 182.411 209.596C186.02 209.596 187.045 214.185 187.045 218.134ZM180.47 218.442C180.47 222.364 181.116 224.365 182.298 224.365C183.546 224.365 184.012 221.801 184.012 218.288C184.012 215.261 183.61 212.519 182.275 212.519C181.116 212.519 180.47 214.724 180.47 218.442Z" fill="white"/>
<path d="M188.56 223.648C189.162 224.033 190.208 224.315 191.033 224.315C192.392 224.315 193.084 223.494 193.084 222.367C193.084 221.11 192.415 220.497 191.146 219.548C189.096 218.113 188.317 216.293 188.317 214.728C188.317 211.959 189.921 209.649 193.041 209.649C194.043 209.649 194.978 209.958 195.405 210.266L194.935 213.162C194.512 212.854 193.866 212.572 193.041 212.572C191.792 212.572 191.19 213.444 191.19 214.366C191.19 215.391 191.636 215.931 193.24 217.058C195.245 218.442 195.961 220.185 195.961 222.005C195.961 225.16 193.933 227.235 191.013 227.235C189.811 227.235 188.649 226.876 188.137 226.541L188.56 223.644V223.648Z" fill="white"/>
<path d="M199.303 212.904H196.649V209.8H204.896V212.904H202.223V227.083H199.303V212.904Z" fill="white"/>
<path d="M208.06 223.135L207.39 227.083H204.561L207.813 209.8H211.312L214.232 227.083H211.402L210.756 223.135H208.06ZM210.49 220.52L210.001 216.903C209.844 215.854 209.644 214.107 209.511 212.981H209.445C209.288 214.134 209.065 215.904 208.909 216.903L208.353 220.52H210.493H210.49Z" fill="white"/>
<path d="M216.396 212.904H213.742V209.8H221.989V212.904H219.315V227.083H216.396V212.904Z" fill="white"/>
<path d="M226.447 209.8V227.083H223.527V209.8H226.447Z" fill="white"/>
<path d="M236.254 226.829C235.831 227.06 235.005 227.238 234.003 227.238C230.148 227.238 228.32 223.621 228.32 218.7C228.32 212.187 231.463 209.649 234.383 209.649C235.408 209.649 236.121 209.881 236.41 210.112L235.921 212.931C235.588 212.75 235.209 212.599 234.563 212.599C232.915 212.599 231.42 214.238 231.42 218.522C231.42 222.806 232.778 224.265 234.563 224.265C235.052 224.265 235.611 224.137 235.968 224.01L236.257 226.829H236.254Z" fill="white"/>
<path d="M116.248 252.727L113.685 235.444H116.714L117.45 242.342C117.65 244.317 117.783 246.291 117.963 248.393H118.029C118.229 246.264 118.565 244.394 118.875 242.315L119.944 235.444H122.307L123.31 242.265C123.576 244.213 123.846 246.137 124.022 248.393H124.065C124.265 246.137 124.445 244.29 124.645 242.289L125.38 235.444H128.233L125.58 252.727H122.57L121.678 247.059C121.432 245.47 121.209 243.495 121.009 241.394H120.966C120.699 243.472 120.453 245.393 120.14 247.086L119.138 252.727H116.241H116.248Z" fill="white"/>
<path d="M131.847 248.778L131.178 252.727H128.348L131.6 235.444H135.099L138.019 252.727H135.189L134.543 248.778H131.847ZM134.277 246.164L133.788 242.547C133.631 241.498 133.431 239.751 133.298 238.625H133.232C133.075 239.778 132.852 241.548 132.696 242.547L132.14 246.164H134.28H134.277Z" fill="white"/>
<path d="M140.182 238.548H137.528V235.444H145.775V238.548H143.102V252.727H140.182V238.548Z" fill="white"/>
<path d="M153.642 245.138H150.233V249.804H154.089V252.727H147.313V235.444H153.842V238.367H150.233V242.342H153.642V245.138Z" fill="white"/>
<path d="M156.093 235.702C157.005 235.498 158.167 235.37 159.279 235.37C160.884 235.37 162.332 235.652 163.291 236.654C164.203 237.603 164.493 238.756 164.493 240.244C164.493 242.091 163.691 243.757 162.176 244.552V244.602C163.201 245.088 163.714 246.168 164.004 248.038C164.293 249.962 164.696 252.091 164.962 252.731H161.909C161.71 252.245 161.373 250.498 161.15 248.578C160.884 246.449 160.415 245.832 159.456 245.832H159.01V252.731H156.09V235.706L156.093 235.702ZM159.013 243.241H159.549C160.821 243.241 161.533 242.061 161.533 240.549C161.533 239.038 161.02 238.035 159.729 237.985C159.462 237.985 159.173 238.012 159.016 238.089V243.244L159.013 243.241Z" fill="white"/>
<path d="M223.92 135.651C212.177 135.651 195.894 134.856 174.393 132.178C122.5 125.708 105.051 133.837 104.881 133.918L104.152 132.413C104.858 132.064 122.074 123.969 174.6 130.515C226.666 137.005 247.85 132.396 248.06 132.349L248.43 133.985C248.306 134.012 240.809 135.654 223.923 135.654L223.92 135.651Z" fill="#333333"/>
<path d="M176.468 132.409L176.292 130.743C218.304 126.201 246.773 127.967 247.056 127.984L246.949 129.657C246.669 129.637 218.327 127.884 176.468 132.409Z" fill="#333333"/>
<path d="M112.044 139.459C108.129 149.971 110.792 156.528 114.69 150.527C118.589 144.527 115.067 131.343 112.044 139.459Z" fill="white"/>
<path d="M110.531 309.34C106.626 321.133 112.546 325.062 114.56 316.44C116.574 307.819 112.546 303.256 110.531 309.34Z" fill="white"/>
</svg>
