<svg width="294" height="255" viewBox="0 0 294 255" fill="none" xmlns="http://www.w3.org/2000/svg">
<path d="M213.62 67.0317V76.8311C213.62 82.9366 212.341 83.8989 205.526 89.8431C197.167 97.1368 195.008 99.6424 195.008 112.643L194.836 230.311C194.83 234.559 198.487 238.007 203.006 238.007H284.747C289.265 238.007 292.931 234.562 292.937 230.311C292.937 224.951 293.27 121.958 293.27 112.173C293.27 99.173 290.778 97.1339 282.419 89.8431C275.604 83.8989 274.325 82.9337 274.325 76.8311C274.325 72.3334 274.325 67.0317 274.325 67.0317H213.62Z" fill="#DCF0FF"/>
<path d="M293.109 107.837L292.937 230.314C292.931 234.565 289.265 238.01 284.747 238.01H203.006C198.487 238.01 194.83 234.565 194.836 230.314L194.848 221.659C194.836 230.37 195.66 233.178 216.871 233.178H277.406C288.792 233.178 286.607 231.931 286.633 214.16L286.782 107.84C286.782 100.772 285.229 97.0195 276.215 90.38C267.201 83.7405 268.162 80.2051 268.162 75.7074C268.162 71.2096 268.162 70.5671 256.326 70.5671H213.623V66.7119H274.523V79.275C274.523 85.0285 284.218 90.0602 289.306 96.4151C292.794 100.769 293.112 103.985 293.112 107.84" fill="#3D9BE9"/>
<path d="M200.812 59.1772L200.826 48.395H287.033L287.018 59.1948C287.013 63.5224 283.397 67.0314 278.939 67.0314H208.891C204.425 67.0314 200.806 63.5136 200.812 59.1772Z" fill="#3D9BE9"/>
<path d="M287.779 30.2344H201.09C199.629 30.2344 198.437 31.5693 198.437 33.2123L198.423 44.9598C198.423 46.6028 199.606 47.9377 201.069 47.9377H287.755C289.216 47.9377 290.407 46.6028 290.407 44.9598L290.422 33.2123C290.422 31.5693 289.239 30.2344 287.776 30.2344H287.779Z" fill="white"/>
<path d="M290.424 33.2123L290.409 44.9598C290.409 46.6028 289.218 47.9377 287.757 47.9377H201.071C199.611 47.9377 198.422 46.6028 198.425 44.9598V41.53C198.545 44.8571 200.554 44.5754 228.51 44.5754H279.634C286.159 44.5754 286.01 45.2825 286.019 37.1409C286.025 31.1234 283.969 30.2373 283.969 30.2373H287.778C289.238 30.2373 290.427 31.5722 290.424 33.2152V33.2123Z" fill="#3D9BE9"/>
<path d="M292.691 114.908H195.131V213.896H292.688V114.908H292.691Z" fill="white"/>
<path d="M292.692 114.908H286.713L286.541 213.734H292.689V114.908H292.692Z" fill="#3D9BE9"/>
<path d="M292.791 114.908H195.228V149.93H292.791V114.908Z" fill="#3D9BE9"/>
<path d="M292.692 114.908V149.93H286.651L286.713 114.908H292.692Z" fill="#333333"/>
<path d="M284.746 238.743H203.005C200.561 238.743 198.195 237.778 196.521 236.091C194.961 234.521 194.103 232.471 194.105 230.314L194.278 112.646C194.278 99.2816 196.688 96.5853 205.047 89.2916L205.532 88.8691C211.908 83.3093 212.89 82.4555 212.89 76.8341V66.3013H275.055V76.8341C275.055 82.4555 276.036 83.3122 282.413 88.8691L283.154 89.5175C291.269 96.5941 294 98.9765 294 112.179C294 117.806 293.892 153.6 293.795 185.184C293.725 208.18 293.667 228.04 293.667 230.317C293.661 234.964 289.659 238.746 284.746 238.746V238.743ZM214.35 67.7653V76.8312C214.35 83.1215 212.84 84.4388 206.49 89.9752L206.005 90.3977C197.868 97.4978 195.738 99.8801 195.738 112.643L195.566 230.314C195.566 232.077 196.27 233.761 197.555 235.052C198.957 236.464 200.946 237.273 203.005 237.273H284.746C288.853 237.273 292.2 234.149 292.206 230.311C292.206 228.031 292.268 208.172 292.335 185.173C292.431 153.592 292.539 117.795 292.539 112.17C292.539 99.6396 290.349 97.7266 282.196 90.6177L281.454 89.9723C275.104 84.4359 273.594 83.1186 273.594 76.8282V67.7624H214.35V67.7653Z" fill="#333333"/>
<path d="M293.418 214.629H194.397V114.013H293.421V214.629H293.418ZM195.858 213.162H291.958V115.48H195.861V213.162H195.858Z" fill="#333333"/>
<path d="M278.936 67.7654H208.89C206.484 67.7654 204.235 66.8382 202.561 65.1542C200.96 63.5434 200.078 61.4193 200.081 59.1777L200.096 47.7031H287.763L287.748 59.1983C287.743 63.9219 283.791 67.7654 278.939 67.7654H278.936ZM201.553 49.1701L201.542 59.1777C201.542 61.0291 202.269 62.7835 203.595 64.1156C204.994 65.5209 206.875 66.2984 208.89 66.2984H278.936C282.984 66.2984 286.279 63.1121 286.285 59.1953L286.297 49.1701H201.55H201.553Z" fill="#333333"/>
<path d="M287.757 48.6679H201.071C200.224 48.6679 199.415 48.3217 198.79 47.6968C198.092 46.9955 197.691 45.9951 197.694 44.9565L197.709 33.209C197.709 31.164 199.228 29.4976 201.091 29.4976H287.78C288.627 29.4976 289.436 29.8438 290.061 30.4687C290.76 31.1699 291.16 32.1704 291.157 33.209L291.142 44.9565C291.142 47.0014 289.623 48.6679 287.76 48.6679H287.757ZM201.088 30.9675C200.031 30.9675 199.166 31.9738 199.166 33.2119L199.152 44.9594C199.152 45.6107 199.394 46.2327 199.821 46.6611C200.168 47.0102 200.612 47.2039 201.068 47.2039H287.754C288.811 47.2039 289.676 46.1975 289.676 44.9594L289.69 33.2119C289.69 32.5606 289.448 31.9386 289.022 31.5102C288.674 31.1611 288.23 30.9675 287.774 30.9675H201.085H201.088Z" fill="#333333"/>
<path d="M293.78 150.57H194.399V114.013H293.78V150.57ZM195.86 149.103H292.319V115.48H195.86V149.103Z" fill="#333333"/>
<path d="M241.173 124.889C241.173 127.072 239.779 128.43 237.559 128.43H235.883V131.132H233.955V121.333H237.559C239.782 121.333 241.173 122.694 241.173 124.889ZM239.221 124.889C239.221 123.809 238.628 123.181 237.448 123.181H235.88V126.582H237.448C238.628 126.588 239.221 125.957 239.221 124.889Z" fill="white"/>
<path d="M248.984 129.316V131.138H242.54V121.335H248.829V123.157H244.453V125.287H248.318V127.051H244.453V129.319H248.984V129.316Z" fill="white"/>
<path d="M257.733 124.889C257.733 127.072 256.34 128.43 254.12 128.43H252.443V131.132H250.516V121.333H254.12C256.343 121.333 257.733 122.694 257.733 124.889ZM255.782 124.889C255.782 123.809 255.189 123.181 254.009 123.181H252.44V126.582H254.009C255.189 126.588 255.782 125.957 255.782 124.889Z" fill="white"/>
<path d="M260.603 123.181H257.942V121.333H265.198V123.181H262.537V131.138H260.609V123.181H260.603Z" fill="white"/>
<path d="M266.223 121.333H268.15V131.135H266.223V121.333Z" fill="white"/>
<path d="M270.121 121.333H273.904C276.629 121.333 278.492 123.266 278.492 126.236C278.492 129.205 276.623 131.138 273.904 131.138H270.121V121.336V121.333ZM273.807 129.272C275.463 129.272 276.541 128.107 276.541 126.233C276.541 124.358 275.458 123.193 273.807 123.193H272.049V129.269H273.807V129.272Z" fill="white"/>
<path d="M286.391 129.316V131.138H279.947V121.335H286.236V123.157H281.86V125.287H285.725V127.051H281.86V129.319H286.391V129.316Z" fill="white"/>
<path d="M233.952 143.12L234.291 142.302C234.875 143.003 235.921 143.525 236.996 143.525C238.532 143.525 239.198 142.736 239.198 141.741C239.198 138.978 234.154 140.676 234.154 136.953C234.154 135.472 235.091 134.195 237.177 134.195C238.1 134.195 239.061 134.524 239.718 135.09L239.423 135.941C238.722 135.381 237.901 135.108 237.177 135.108C235.675 135.108 235.012 135.926 235.012 136.933C235.012 139.696 240.057 138.024 240.057 141.694C240.057 143.176 239.096 144.444 237.004 144.444C235.772 144.432 234.563 143.901 233.955 143.123L233.952 143.12Z" fill="white"/>
<path d="M248.788 134.271V144.341H247.932V139.696H242.803V144.341H241.936V134.271H242.803V138.757H247.932V134.271H248.788Z" fill="white"/>
<path d="M250.73 139.306C250.73 136.372 252.556 134.184 255.039 134.184C257.522 134.184 259.332 136.355 259.332 139.306C259.332 142.258 257.492 144.429 255.039 144.429C252.585 144.429 250.73 142.24 250.73 139.306ZM258.468 139.306C258.468 136.903 257.005 135.137 255.039 135.137C253.073 135.137 251.583 136.909 251.583 139.306C251.583 141.703 253.056 143.475 255.039 143.475C257.022 143.475 258.468 141.709 258.468 139.306Z" fill="white"/>
<path d="M267.695 137.728C267.695 139.872 266.43 141.166 264.347 141.166H262.145V144.347H261.277V134.271H264.344C266.424 134.271 267.692 135.565 267.692 137.728H267.695ZM266.824 137.728C266.824 136.114 265.957 135.193 264.321 135.193H262.142V140.227H264.321C265.959 140.227 266.824 139.306 266.824 137.728Z" fill="white"/>
<path d="M217.666 131.916C217.666 134.486 215.589 136.569 213.031 136.569C212.254 136.569 211.488 136.372 210.808 135.997C210.384 135.765 210.002 135.466 209.669 135.114C207.913 133.245 207.998 130.302 209.856 128.539C209.917 128.48 209.978 128.424 210.043 128.368C210.396 128.063 210.796 127.811 211.225 127.626C213.241 126.772 215.575 127.447 216.828 129.249C217.184 129.762 217.435 130.343 217.564 130.956C217.631 131.273 217.663 131.593 217.663 131.916H217.666Z" fill="white"/>
<path d="M208.27 139.142C207.948 138.767 207.545 138.467 207.093 138.271L207.075 138.265C205.422 137.555 203.509 138.321 202.802 139.981C202.095 141.642 202.857 143.564 204.511 144.274C206.164 144.984 208.077 144.218 208.784 142.557C209.272 141.413 209.073 140.093 208.267 139.148L208.27 139.142Z" fill="white"/>
<path d="M209.028 120.435C208.067 119.473 206.511 119.473 205.553 120.435C204.594 121.4 204.594 122.964 205.553 123.927C206.513 124.889 208.067 124.889 209.028 123.927L209.034 123.921C209.989 122.955 209.986 121.395 209.028 120.432V120.435Z" fill="white"/>
<path d="M226.87 124.678C225.439 123.243 223.123 123.243 221.691 124.678C220.888 125.484 220.506 126.617 220.649 127.746C220.649 127.746 220.649 127.773 220.652 127.788C220.733 128.374 220.955 128.932 221.297 129.41C221.306 129.422 221.315 129.433 221.323 129.448C221.434 129.598 221.554 129.742 221.686 129.874C223.117 131.311 225.436 131.311 226.864 129.874C228.295 128.436 228.295 126.106 226.864 124.672V124.678H226.87Z" fill="white"/>
<path d="M210.805 135.997C210.382 135.765 209.999 135.466 209.666 135.114C209.704 135.164 209.938 135.574 208.801 137.018C207.712 138.403 207.189 138.303 207.09 138.268C207.543 138.464 207.946 138.764 208.267 139.139C208.252 139.104 208.074 138.637 209.132 137.302C210.23 135.915 210.808 135.997 210.808 135.997H210.805Z" fill="white"/>
<path d="M209.821 126.077C208.845 124.446 209.05 123.912 209.05 123.912L209.038 123.92L209.032 123.926C208.749 124.211 208.401 124.422 208.019 124.539C208.033 124.539 208.465 124.554 209.421 126.238C210.37 127.908 210.06 128.339 210.043 128.362C210.399 128.06 210.796 127.811 211.226 127.629C211.226 127.629 210.796 127.711 209.821 126.08V126.077Z" fill="white"/>
<path d="M220.654 127.788C220.663 127.952 220.59 128.583 219.086 129.178C217.409 129.844 216.872 129.296 216.831 129.249C217.187 129.762 217.439 130.343 217.567 130.956C217.561 130.912 217.526 130.296 219.25 129.586C220.745 128.97 221.192 129.29 221.3 129.41C220.958 128.929 220.739 128.371 220.657 127.788H220.654Z" fill="white"/>
<path d="M220.163 141.263C221.005 141.263 221.688 140.577 221.688 139.731C221.688 138.885 221.005 138.2 220.163 138.2C219.321 138.2 218.639 138.885 218.639 139.731C218.639 140.577 219.321 141.263 220.163 141.263Z" fill="white"/>
<path d="M202.872 133.385C204.196 133.385 205.27 132.307 205.27 130.977C205.27 129.646 204.196 128.568 202.872 128.568C201.547 128.568 200.474 129.646 200.474 130.977C200.474 132.307 201.547 133.385 202.872 133.385Z" fill="white"/>
<path d="M215.878 124.853C216.394 124.853 216.813 124.433 216.813 123.914C216.813 123.396 216.394 122.976 215.878 122.976C215.362 122.976 214.943 123.396 214.943 123.914C214.943 124.433 215.362 124.853 215.878 124.853Z" fill="white"/>
<path d="M235.801 190.106H199.38V210.002H235.801V190.106Z" fill="#3D9BE9"/>
<path d="M236.398 210.605H198.781V189.508H236.398V210.605ZM199.977 209.404H235.203V190.709H199.977V209.404Z" fill="#333333"/>
<path d="M208.373 194.59V204.834H205.519V196.829H203.646V194.59H208.373Z" fill="white"/>
<path d="M214.345 205.039C213.48 205.039 212.711 204.829 212.038 204.41C211.366 203.99 210.837 203.38 210.453 202.58C210.078 201.77 209.891 200.814 209.891 199.712C209.891 198.609 210.078 197.658 210.453 196.858C210.837 196.048 211.366 195.434 212.038 195.014C212.711 194.595 213.48 194.385 214.345 194.385C215.2 194.385 215.964 194.595 216.636 195.014C217.309 195.434 217.833 196.048 218.208 196.858C218.592 197.658 218.784 198.609 218.784 199.712C218.784 200.814 218.592 201.77 218.208 202.58C217.833 203.38 217.309 203.99 216.636 204.41C215.964 204.829 215.2 205.039 214.345 205.039ZM214.345 202.668C214.825 202.668 215.205 202.434 215.483 201.966C215.772 201.488 215.916 200.736 215.916 199.712C215.916 198.687 215.772 197.941 215.483 197.473C215.205 196.995 214.825 196.756 214.345 196.756C213.855 196.756 213.465 196.995 213.177 197.473C212.898 197.941 212.759 198.687 212.759 199.712C212.759 200.736 212.898 201.488 213.177 201.966C213.465 202.434 213.855 202.668 214.345 202.668Z" fill="white"/>
<path d="M224.459 201.048C224.91 201.048 225.269 201.185 225.535 201.46C225.806 201.735 225.942 202.149 225.942 202.704V204.834H224.656V202.917C224.656 202.656 224.606 202.463 224.507 202.34C224.412 202.216 224.277 202.154 224.101 202.154C223.907 202.154 223.751 202.223 223.634 202.36C223.516 202.498 223.458 202.706 223.458 202.985V204.834H222.172V202.917C222.172 202.408 221.987 202.154 221.617 202.154C221.418 202.154 221.26 202.223 221.143 202.36C221.026 202.498 220.967 202.706 220.967 202.985V204.834H219.681V201.109H220.906V201.501C221.041 201.35 221.202 201.238 221.387 201.164C221.576 201.087 221.781 201.048 222.002 201.048C222.26 201.048 222.49 201.096 222.693 201.192C222.896 201.288 223.061 201.435 223.187 201.632C223.331 201.444 223.514 201.3 223.735 201.199C223.956 201.098 224.198 201.048 224.459 201.048Z" fill="white"/>
<path d="M230.752 201.109V204.154C230.752 204.845 230.567 205.363 230.197 205.707C229.827 206.055 229.294 206.229 228.6 206.229C228.239 206.229 227.9 206.188 227.584 206.105C227.269 206.023 227 205.901 226.779 205.741L227.246 204.827C227.395 204.951 227.582 205.047 227.808 205.116C228.038 205.189 228.263 205.226 228.485 205.226C228.823 205.226 229.071 205.15 229.229 204.999C229.387 204.848 229.466 204.623 229.466 204.326V204.202C229.218 204.495 228.855 204.642 228.376 204.642C228.051 204.642 227.751 204.568 227.476 204.422C227.201 204.271 226.982 204.06 226.82 203.79C226.657 203.515 226.576 203.199 226.576 202.841C226.576 202.488 226.657 202.177 226.82 201.907C226.982 201.632 227.201 201.421 227.476 201.274C227.751 201.123 228.051 201.048 228.376 201.048C228.9 201.048 229.283 201.219 229.527 201.563V201.109H230.752ZM228.681 203.604C228.911 203.604 229.1 203.533 229.249 203.391C229.403 203.249 229.479 203.066 229.479 202.841C229.479 202.617 229.405 202.436 229.256 202.298C229.107 202.156 228.915 202.085 228.681 202.085C228.446 202.085 228.252 202.156 228.099 202.298C227.95 202.436 227.875 202.617 227.875 202.841C227.875 203.066 227.952 203.249 228.106 203.391C228.259 203.533 228.451 203.604 228.681 203.604Z" fill="white"/>
<path d="M200.812 58.3738C200.812 61.8886 203.543 63.8162 213.459 63.8162H277.114C281.913 63.8162 283.87 60.6036 283.87 57.7107V50.6428H200.821V48.4336H287.031V57.7107C287.031 62.851 284.597 67.0289 278.937 67.0289H210.261C203.543 67.0289 201.945 63.4935 201.306 62.2084C200.666 60.9234 200.815 58.3708 200.815 58.3708L200.812 58.3738Z" fill="#333333"/>
<path d="M203.955 51.9307H202.494V60.6063H203.955V51.9307Z" fill="white"/>
<path d="M198.356 118.281H196.896V146.245H198.356V118.281Z" fill="white"/>
<path d="M198.356 216.313H196.896V227.101H198.356V216.313Z" fill="white"/>
<path d="M198.356 111.164H196.896C196.896 104.172 198.4 99.3256 206.616 92.2372L206.666 92.1961C215.025 84.9845 216.097 84.0603 216.097 76.124H217.558C217.558 84.7322 216.039 86.0407 207.615 93.3081L207.566 93.3492C199.013 100.725 198.353 105.387 198.353 111.164H198.356Z" fill="white"/>
<path d="M204.69 166.147C204.023 166.147 203.375 166.064 202.747 165.899C202.119 165.733 201.609 165.512 201.217 165.236L201.982 163.51C202.351 163.754 202.779 163.951 203.266 164.101C203.752 164.251 204.231 164.326 204.702 164.326C205.597 164.326 206.044 164.101 206.044 163.652C206.044 163.415 205.915 163.242 205.656 163.131C205.404 163.013 204.996 162.891 204.431 162.765C203.811 162.631 203.293 162.489 202.877 162.339C202.461 162.181 202.104 161.933 201.806 161.594C201.507 161.255 201.358 160.797 201.358 160.222C201.358 159.717 201.495 159.264 201.77 158.862C202.045 158.452 202.453 158.128 202.995 157.892C203.544 157.655 204.215 157.537 205.008 157.537C205.55 157.537 206.083 157.6 206.609 157.726C207.135 157.845 207.598 158.022 207.999 158.259L207.281 159.997C206.496 159.571 205.734 159.358 204.996 159.358C204.533 159.358 204.196 159.429 203.984 159.571C203.772 159.705 203.666 159.883 203.666 160.104C203.666 160.324 203.791 160.49 204.043 160.6C204.294 160.711 204.698 160.825 205.255 160.943C205.883 161.077 206.401 161.223 206.81 161.381C207.226 161.531 207.583 161.775 207.881 162.114C208.187 162.445 208.34 162.899 208.34 163.474C208.34 163.971 208.203 164.42 207.928 164.822C207.653 165.225 207.241 165.548 206.692 165.792C206.142 166.029 205.475 166.147 204.69 166.147Z" fill="#333333"/>
<path d="M216.034 164.172V165.981H209.417V157.703H215.881V159.512H211.725V160.908H215.387V162.658H211.725V164.172H216.034Z" fill="#333333"/>
<path d="M220.931 163.782H219.659V165.981H217.328V157.703H221.096C221.841 157.703 222.489 157.829 223.038 158.081C223.588 158.326 224.012 158.68 224.31 159.146C224.608 159.603 224.757 160.143 224.757 160.766C224.757 161.365 224.616 161.889 224.334 162.339C224.059 162.78 223.662 163.127 223.144 163.38L224.922 165.981H222.426L220.931 163.782ZM222.403 160.766C222.403 160.379 222.281 160.08 222.038 159.867C221.794 159.654 221.433 159.548 220.954 159.548H219.659V161.972H220.954C221.433 161.972 221.794 161.87 222.038 161.665C222.281 161.452 222.403 161.152 222.403 160.766Z" fill="#333333"/>
<path d="M233.485 165.981L233.461 161.594L231.342 165.165H230.306L228.198 161.712V165.981H226.044V157.703H227.963L230.859 162.481L233.685 157.703H235.604L235.628 165.981H233.485Z" fill="#333333"/>
<path d="M241.434 166.147C240.562 166.147 239.777 165.962 239.079 165.591C238.388 165.221 237.843 164.708 237.442 164.054C237.05 163.399 236.853 162.662 236.853 161.842C236.853 161.022 237.05 160.285 237.442 159.63C237.843 158.976 238.388 158.464 239.079 158.093C239.777 157.722 240.562 157.537 241.434 157.537C242.305 157.537 243.086 157.722 243.777 158.093C244.475 158.464 245.021 158.976 245.413 159.63C245.814 160.285 246.014 161.022 246.014 161.842C246.014 162.662 245.814 163.399 245.413 164.054C245.021 164.708 244.475 165.221 243.777 165.591C243.086 165.962 242.305 166.147 241.434 166.147ZM241.434 164.207C241.85 164.207 242.226 164.109 242.564 163.912C242.901 163.715 243.168 163.439 243.365 163.084C243.561 162.721 243.659 162.307 243.659 161.842C243.659 161.377 243.561 160.967 243.365 160.612C243.168 160.249 242.901 159.969 242.564 159.772C242.226 159.575 241.85 159.477 241.434 159.477C241.018 159.477 240.641 159.575 240.303 159.772C239.966 159.969 239.699 160.249 239.503 160.612C239.306 160.967 239.208 161.377 239.208 161.842C239.208 162.307 239.306 162.721 239.503 163.084C239.699 163.439 239.966 163.715 240.303 163.912C240.641 164.109 241.018 164.207 241.434 164.207Z" fill="#333333"/>
<path d="M250.838 163.782H249.566V165.981H247.235V157.703H251.003C251.748 157.703 252.396 157.829 252.945 158.081C253.495 158.326 253.919 158.68 254.217 159.146C254.515 159.603 254.664 160.143 254.664 160.766C254.664 161.365 254.523 161.889 254.24 162.339C253.966 162.78 253.569 163.127 253.051 163.38L254.829 165.981H252.333L250.838 163.782ZM252.31 160.766C252.31 160.379 252.188 160.08 251.945 159.867C251.701 159.654 251.34 159.548 250.861 159.548H249.566V161.972H250.861C251.34 161.972 251.701 161.87 251.945 161.665C252.188 161.452 252.31 161.152 252.31 160.766Z" fill="#333333"/>
<path d="M262.568 164.172V165.981H255.951V157.703H262.415V159.512H258.258V160.908H261.92V162.658H258.258V164.172H262.568Z" fill="#333333"/>
<path d="M263.861 157.703H266.193V164.125H270.125V165.981H263.861V157.703Z" fill="#333333"/>
<path d="M271.048 157.703H273.379V165.981H271.048V157.703Z" fill="#333333"/>
<path d="M282.879 157.703V165.981H280.96L277.322 161.57V165.981H275.038V157.703H276.957L280.595 162.114V157.703H282.879Z" fill="#333333"/>
<path d="M201.794 171.492H204.125V179.771H201.794V171.492Z" fill="#333333"/>
<path d="M209.721 171.186C210.495 171.186 211.166 171.317 211.736 171.579C212.306 171.832 212.745 172.2 213.054 172.683C213.364 173.157 213.518 173.717 213.518 174.363C213.518 175.009 213.364 175.569 213.054 176.043C212.745 176.517 212.306 176.885 211.736 177.147C211.166 177.4 210.495 177.527 209.721 177.527H208.232V179.771H205.814V171.186H209.721ZM209.575 175.614C210.071 175.614 210.446 175.507 210.698 175.295C210.95 175.074 211.076 174.763 211.076 174.363C211.076 173.962 210.95 173.651 210.698 173.431C210.446 173.21 210.071 173.1 209.575 173.1H208.232V175.614H209.575Z" fill="#333333"/>
<path d="M219.994 178.103H216.38L215.708 179.771H213.242L217.015 171.186H219.396L223.181 179.771H220.665L219.994 178.103ZM219.286 176.313L218.187 173.566L217.088 176.313H219.286Z" fill="#333333"/>
<path d="M231.582 179.771L231.558 175.221L229.36 178.925H228.286L226.1 175.344V179.771H223.866V171.186H225.856L228.86 176.141L231.79 171.186H233.78L233.804 179.771H231.582Z" fill="#333333"/>
<path d="M239.825 179.943C238.921 179.943 238.107 179.751 237.383 179.366C236.667 178.982 236.101 178.451 235.686 177.772C235.279 177.093 235.075 176.329 235.075 175.479C235.075 174.628 235.279 173.864 235.686 173.185C236.101 172.507 236.667 171.975 237.383 171.591C238.107 171.207 238.921 171.015 239.825 171.015C240.728 171.015 241.538 171.207 242.254 171.591C242.979 171.975 243.544 172.507 243.951 173.185C244.367 173.864 244.574 174.628 244.574 175.479C244.574 176.329 244.367 177.093 243.951 177.772C243.544 178.451 242.979 178.982 242.254 179.366C241.538 179.751 240.728 179.943 239.825 179.943ZM239.825 177.931C240.256 177.931 240.647 177.829 240.997 177.625C241.347 177.42 241.624 177.134 241.827 176.766C242.031 176.39 242.132 175.961 242.132 175.479C242.132 174.996 242.031 174.571 241.827 174.203C241.624 173.827 241.347 173.537 240.997 173.333C240.647 173.128 240.256 173.026 239.825 173.026C239.393 173.026 239.003 173.128 238.653 173.333C238.303 173.537 238.026 173.827 237.822 174.203C237.619 174.571 237.517 174.996 237.517 175.479C237.517 175.961 237.619 176.39 237.822 176.766C238.026 177.134 238.303 177.42 238.653 177.625C239.003 177.829 239.393 177.931 239.825 177.931Z" fill="#333333"/>
<path d="M249.576 177.49H248.258V179.771H245.84V171.186H249.747C250.52 171.186 251.192 171.317 251.762 171.579C252.332 171.832 252.771 172.2 253.08 172.683C253.39 173.157 253.544 173.717 253.544 174.363C253.544 174.984 253.398 175.528 253.105 175.994C252.82 176.452 252.409 176.811 251.872 177.073L253.715 179.771H251.127L249.576 177.49ZM251.102 174.363C251.102 173.962 250.976 173.651 250.724 173.431C250.472 173.21 250.097 173.1 249.601 173.1H248.258V175.614H249.601C250.097 175.614 250.472 175.507 250.724 175.295C250.976 175.074 251.102 174.763 251.102 174.363Z" fill="#333333"/>
<path d="M261.74 177.895V179.771H254.878V171.186H261.581V173.063H257.271V174.51H261.068V176.325H257.271V177.895H261.74Z" fill="#333333"/>
<path d="M263.081 171.186H265.499V177.846H269.576V179.771H263.081V171.186Z" fill="#333333"/>
<path d="M270.533 171.186H272.951V179.771H270.533V171.186Z" fill="#333333"/>
<path d="M282.802 171.186V179.771H280.812L277.039 175.197V179.771H274.67V171.186H276.661L280.433 175.761V171.186H282.802Z" fill="#333333"/>
<path d="M21.6995 56.437V67.3777C21.6995 74.1932 20.2712 75.2699 12.6623 81.9065C3.33005 90.0482 0.920331 92.8471 0.920331 107.361L0.730475 238.725C0.724633 243.469 4.80803 247.316 9.84947 247.316H101.104C106.148 247.316 110.24 243.469 110.246 238.725C110.246 232.743 110.617 117.762 110.617 106.836C110.617 92.322 107.833 90.0482 98.5012 81.9065C90.8952 75.2699 89.464 74.1932 89.464 67.3777C89.464 62.3548 89.464 56.437 89.464 56.437H21.6936H21.6995Z" fill="#DCF0FF"/>
<path d="M110.441 101.992L110.248 238.722C110.242 243.467 106.147 247.313 101.106 247.313H9.85142C4.80706 247.313 0.726586 243.467 0.732428 238.722L0.744114 229.061C0.732431 238.787 1.65251 241.917 25.3321 241.917H92.9126C105.621 241.917 103.185 240.524 103.212 220.685L103.378 101.989C103.378 94.097 101.643 89.9103 91.5807 82.4992C81.5182 75.0881 82.5902 71.1419 82.5902 66.119C82.5902 61.0961 82.5902 60.3803 69.3761 60.3803H21.7014V56.0762H89.6879V70.1004C89.6879 76.5228 100.51 82.1412 106.191 89.2355C110.084 94.097 110.441 97.6852 110.441 101.989" fill="#3D9BE9"/>
<path d="M7.40235 47.6673L7.41695 35.6323H103.657L103.643 47.6908C103.637 52.523 99.6 56.4369 94.6228 56.4369H16.422C11.4361 56.4369 7.39651 52.5083 7.40235 47.6673Z" fill="#3D9BE9"/>
<path d="M104.488 15.356H7.71076C6.07798 15.356 4.7519 16.8464 4.74898 18.6801L4.73438 31.7948C4.73438 33.6285 6.05753 35.1189 7.68738 35.1189H104.465C106.098 35.1189 107.424 33.6285 107.427 31.7948L107.441 18.6801C107.441 16.8464 106.118 15.356 104.488 15.356Z" fill="white"/>
<path d="M107.444 18.6801L107.43 31.7948C107.43 33.6285 106.101 35.1189 104.468 35.1189H7.69032C6.05754 35.1189 4.73439 33.6285 4.73731 31.7948V27.966C4.87167 31.6804 7.11491 31.3635 38.3245 31.3635H95.3986C102.683 31.3635 102.517 32.1527 102.526 23.0634C102.534 16.3447 100.238 15.356 100.238 15.356H104.491C106.124 15.356 107.447 16.8464 107.444 18.6801Z" fill="#3D9BE9"/>
<path d="M109.974 109.882H1.06055V220.391H109.971V109.882H109.974Z" fill="white"/>
<path d="M109.973 109.882H103.299L103.106 220.21H109.971V109.882H109.973Z" fill="#3D9BE9"/>
<path d="M110.081 109.882H1.16406V148.979H110.081V109.882Z" fill="#3D9BE9"/>
<path d="M109.974 109.882V148.982H103.229L103.3 109.882H109.974Z" fill="#333333"/>
<path d="M101.103 248.046H9.84924C7.14159 248.046 4.52447 246.975 2.66971 245.112C0.943467 243.375 -0.00581496 241.107 2.68023e-05 238.722L0.189882 107.358C0.189882 92.4771 2.87418 89.4727 12.1859 81.3516L12.7292 80.8792C19.8737 74.6505 20.972 73.694 20.972 67.3773V55.7031H90.2027V67.3773C90.2027 73.694 91.301 74.6505 98.4455 80.8792L99.275 81.601C108.312 89.4815 111.356 92.1367 111.356 106.836C111.356 113.117 111.236 153.08 111.128 188.337C111.049 214.009 110.982 236.181 110.982 238.725C110.976 243.865 106.545 248.049 101.109 248.049L101.103 248.046ZM22.4295 57.1701V67.3773C22.4295 74.3629 20.9223 75.6744 13.6844 81.9853L13.144 82.4577C4.03377 90.4028 1.65325 93.0726 1.65325 107.358L1.46338 238.725C1.46338 240.717 2.25787 242.618 3.70663 244.076C5.28975 245.667 7.53006 246.582 9.85216 246.582H101.106C105.739 246.582 109.513 243.058 109.519 238.725C109.519 236.181 109.586 214.006 109.665 188.335C109.77 153.077 109.892 113.114 109.892 106.836C109.892 92.8057 107.439 90.6668 98.3169 82.71L97.4874 81.9882C90.2495 75.6773 88.7423 74.3629 88.7423 67.3802V57.173H22.4324L22.4295 57.1701Z" fill="#333333"/>
<path d="M110.701 221.124H0.327148V108.969H110.704V221.124H110.701ZM1.78759 219.657H109.241V110.436H1.7905V219.657H1.78759Z" fill="#333333"/>
<path d="M94.6177 57.1704H16.4169C13.7531 57.1704 11.2645 56.1435 9.40971 54.2804C7.63674 52.4966 6.66408 50.1495 6.667 47.6673L6.68452 34.9429H104.385L104.368 47.6908C104.362 52.9191 99.9863 57.1704 94.6177 57.1704ZM8.14204 36.4098L8.12744 47.6673C8.12744 49.7563 8.94821 51.7367 10.4437 53.2418C12.021 54.8291 14.1415 55.7034 16.4169 55.7034H94.6177C99.183 55.7034 102.901 52.1093 102.907 47.6879L102.922 36.4098H8.14204Z" fill="#333333"/>
<path d="M104.469 35.8496H7.69104C6.76804 35.8496 5.88593 35.474 5.20536 34.7904C4.44301 34.0217 4.00488 32.9303 4.00488 31.7919L4.01948 18.6773C4.01948 16.4416 5.67855 14.6196 7.71148 14.6196H104.489C105.412 14.6196 106.294 14.9952 106.975 15.6788C107.737 16.4475 108.175 17.5389 108.175 18.6773L108.161 31.7919C108.161 34.0276 106.502 35.8496 104.469 35.8496ZM7.71441 16.0895C6.48472 16.0895 5.48577 17.2514 5.48285 18.6802L5.46825 31.7949C5.46825 32.546 5.74865 33.2589 6.23936 33.7548C6.64244 34.1626 7.15943 34.3855 7.69104 34.3855H104.469C105.698 34.3855 106.697 33.2237 106.7 31.7949L106.715 18.6802C106.715 17.9291 106.434 17.2162 105.944 16.7203C105.541 16.3154 105.024 16.0895 104.492 16.0895H7.71441Z" fill="#333333"/>
<path d="M111.105 149.61H0.327148V108.969H111.105V149.61ZM1.78759 148.143H109.644V110.436H1.78759V148.143Z" fill="#333333"/>
<path d="M52.4581 121.028C52.4581 123.466 50.9042 124.98 48.4244 124.98H46.5521V127.996H44.3994V117.058H48.4244C50.9042 117.058 52.4581 118.578 52.4581 121.028ZM50.2821 121.028C50.2821 119.825 49.619 119.121 48.3017 119.121H46.5492V122.917H48.3017C49.619 122.923 50.2821 122.219 50.2821 121.028Z" fill="white"/>
<path d="M61.1795 125.968V128.002H53.9854V117.058H61.0071V119.091H56.1234V121.471H60.4376V123.436H56.1234V125.968H61.1795Z" fill="white"/>
<path d="M70.9493 121.028C70.9493 123.466 69.3954 124.98 66.9156 124.98H65.0433V127.996H62.8906V117.058H66.9156C69.3954 117.058 70.9493 118.578 70.9493 121.028ZM68.7733 121.028C68.7733 119.825 68.1102 119.121 66.7929 119.121H65.0404V122.917H66.7929C68.1102 122.923 68.7733 122.219 68.7733 121.028Z" fill="white"/>
<path d="M74.1483 119.121H71.1777V117.058H79.2774V119.121H76.3068V128.002H74.1541V119.121H74.1483Z" fill="white"/>
<path d="M80.4248 117.058H82.5775V128.002H80.4248V117.058Z" fill="white"/>
<path d="M84.7783 117.058H88.999C92.0426 117.058 94.1222 119.215 94.1222 122.53C94.1222 125.845 92.0367 128.002 88.999 128.002H84.7783V117.058ZM88.8939 125.922C90.7428 125.922 91.9462 124.622 91.9462 122.53C91.9462 120.438 90.7369 119.138 88.8939 119.138H86.931V125.922H88.8939Z" fill="white"/>
<path d="M102.939 125.968V128.002H95.7451V117.058H102.767V119.091H97.8832V121.471H102.197V123.436H97.8832V125.968H102.939Z" fill="white"/>
<path d="M44.3994 141.377L44.7791 140.465C45.4334 141.248 46.5988 141.829 47.7993 141.829C49.5139 141.829 50.2558 140.946 50.2558 139.84C50.2558 136.753 44.6243 138.652 44.6243 134.494C44.6243 132.842 45.67 131.414 47.9979 131.414C49.029 131.414 50.101 131.78 50.8341 132.411L50.5041 133.359C49.7213 132.734 48.8041 132.429 47.9979 132.429C46.3243 132.429 45.5795 133.341 45.5795 134.468C45.5795 137.554 51.2109 135.685 51.2109 139.781C51.2109 141.433 50.139 142.85 47.8022 142.85C46.4265 142.838 45.0771 142.243 44.3994 141.374V141.377Z" fill="white"/>
<path d="M60.9603 131.502V142.742H60.0023V137.555H54.2744V142.742H53.3076V131.502H54.2744V136.51H60.0023V131.502H60.9603Z" fill="white"/>
<path d="M63.1279 137.123C63.1279 133.849 65.1667 131.405 67.9386 131.405C70.7106 131.405 72.7318 133.828 72.7318 137.123C72.7318 140.418 70.6784 142.841 67.9386 142.841C65.1988 142.841 63.1279 140.397 63.1279 137.123ZM71.765 137.123C71.765 134.441 70.1293 132.47 67.9386 132.47C65.748 132.47 64.0801 134.447 64.0801 137.123C64.0801 139.799 65.7246 141.776 67.9386 141.776C70.1527 141.776 71.765 139.805 71.765 137.123Z" fill="white"/>
<path d="M82.0663 135.36C82.0663 137.754 80.6555 139.197 78.3276 139.197H75.8711V142.747H74.9043V131.499H78.3276C80.6497 131.499 82.0663 132.942 82.0663 135.357V135.36ZM81.0936 135.36C81.0936 133.558 80.1268 132.531 78.2984 132.531H75.8653V138.153H78.2984C80.1268 138.153 81.0936 137.123 81.0936 135.36Z" fill="white"/>
<path d="M26.2129 128.87C26.2129 131.739 23.8967 134.066 21.04 134.066C20.1725 134.066 19.3196 133.846 18.5573 133.429C18.0841 133.168 17.6577 132.837 17.2867 132.443C15.3268 130.357 15.4203 127.071 17.497 125.103C17.5642 125.038 17.6343 124.974 17.7073 124.915C18.1046 124.572 18.5485 124.293 19.0276 124.085C21.2766 123.131 23.8821 123.885 25.2841 125.895C25.6842 126.467 25.9617 127.115 26.1048 127.799C26.1779 128.151 26.2158 128.509 26.2158 128.87H26.2129Z" fill="white"/>
<path d="M15.724 136.938C15.3648 136.518 14.9149 136.184 14.4096 135.964L14.3921 135.955C12.549 135.16 10.4109 136.02 9.62229 137.871C8.83073 139.722 9.68655 141.87 11.5296 142.662C13.3727 143.457 15.5108 142.598 16.2994 140.746C16.8427 139.47 16.6207 137.994 15.724 136.938Z" fill="white"/>
<path d="M16.5706 116.054C15.4986 114.977 13.7607 114.977 12.6887 116.054C11.6168 117.131 11.6168 118.877 12.6887 119.953C13.7607 121.03 15.4957 121.03 16.5677 119.953L16.5735 119.947C17.6396 118.871 17.6367 117.128 16.5677 116.054H16.5706Z" fill="white"/>
<path d="M36.4888 120.79C34.8911 119.188 32.3061 119.188 30.7084 120.79C29.8117 121.691 29.3823 122.955 29.5459 124.217C29.5459 124.231 29.5459 124.246 29.5488 124.261C29.6394 124.915 29.8876 125.537 30.2703 126.074C30.279 126.089 30.2907 126.1 30.2995 126.115C30.4222 126.282 30.5565 126.441 30.7055 126.59C32.3032 128.195 34.8911 128.195 36.4888 126.59C38.0866 124.985 38.0866 122.386 36.4888 120.781V120.787V120.79Z" fill="white"/>
<path d="M18.5549 133.426C18.0817 133.165 17.6553 132.834 17.2843 132.44C17.3281 132.496 17.5881 132.957 16.3204 134.568C15.1053 136.114 14.5211 136.005 14.4102 135.961C14.9155 136.181 15.3653 136.516 15.7246 136.935C15.707 136.897 15.5084 136.378 16.6884 134.884C17.9152 133.335 18.5578 133.426 18.5578 133.426H18.5549Z" fill="white"/>
<path d="M17.4568 122.354C16.3673 120.532 16.5951 119.939 16.5951 119.939L16.5805 119.948L16.5747 119.954C16.2593 120.27 15.8708 120.508 15.4414 120.637C15.4589 120.637 15.938 120.655 17.007 122.533C18.0673 124.396 17.7197 124.88 17.7022 124.903C18.0994 124.566 18.5463 124.287 19.0253 124.085C19.0253 124.085 18.5463 124.176 17.4568 122.354Z" fill="white"/>
<path d="M29.5516 124.263C29.5633 124.445 29.4786 125.149 27.799 125.818C25.9268 126.56 25.3251 125.947 25.2812 125.897C25.6814 126.47 25.9589 127.118 26.102 127.802C26.0962 127.755 26.0553 127.062 27.9801 126.273C29.648 125.586 30.1504 125.941 30.2672 126.076C29.8875 125.539 29.6392 124.917 29.5516 124.263Z" fill="white"/>
<path d="M29.0027 139.306C29.9415 139.306 30.7026 138.541 30.7026 137.598C30.7026 136.655 29.9415 135.891 29.0027 135.891C28.0638 135.891 27.3027 136.655 27.3027 137.598C27.3027 138.541 28.0638 139.306 29.0027 139.306Z" fill="white"/>
<path d="M9.69799 130.51C11.1756 130.51 12.3735 129.307 12.3735 127.822C12.3735 126.338 11.1756 125.135 9.69799 125.135C8.22034 125.135 7.02246 126.338 7.02246 127.822C7.02246 129.307 8.22034 130.51 9.69799 130.51Z" fill="white"/>
<path d="M24.2176 120.986C24.7935 120.986 25.2603 120.517 25.2603 119.939C25.2603 119.361 24.7935 118.892 24.2176 118.892C23.6417 118.892 23.1748 119.361 23.1748 119.939C23.1748 120.517 23.6417 120.986 24.2176 120.986Z" fill="white"/>
<path d="M45.9837 193.639H5.27246V215.878H45.9837V193.639Z" fill="#3D9BE9"/>
<path d="M46.7137 216.612H4.54199V192.906H46.7137V216.612ZM6.00243 215.145H45.2533V194.373H6.00243V215.145Z" fill="#333333"/>
<path d="M7.40255 46.7729C7.40255 50.6985 10.4519 52.8491 21.5221 52.8491H92.5872C97.9441 52.8491 100.129 49.2609 100.129 46.0336V38.1413H7.41422V35.6738H103.657V46.0306C103.657 51.7694 100.941 56.4343 94.623 56.4343H17.9528C10.4549 56.4343 8.66728 52.4882 7.95459 51.0535C7.23897 49.6188 7.40546 46.77 7.40546 46.77L7.40255 46.7729Z" fill="#333333"/>
<path d="M10.8257 39.5757H9.36523V49.2606H10.8257V39.5757Z" fill="white"/>
<path d="M4.57372 113.648H3.11328V144.865H4.57372V113.648Z" fill="white"/>
<path d="M4.57372 223.09H3.11328V235.134H4.57372V223.09Z" fill="white"/>
<path d="M4.57372 105.704H3.11328C3.11328 97.9228 4.78694 92.5302 13.9351 84.6379L13.9906 84.591C23.3492 76.5197 24.5496 75.4811 24.5496 66.5854H26.0101C26.0101 76.1559 24.3189 77.6141 14.9429 85.7059L14.8874 85.7528C5.31271 94.0119 4.57372 99.2313 4.57372 105.707V105.704Z" fill="white"/>
<path d="M15.6214 198.96V210.19H12.4591V201.414H10.3828V198.96H15.6214Z" fill="white"/>
<path d="M22.238 210.414C21.2797 210.414 20.4279 210.185 19.6825 209.725C18.9372 209.265 18.3516 208.596 17.9257 207.719C17.5104 206.832 17.3028 205.783 17.3028 204.575C17.3028 203.366 17.5104 202.324 17.9257 201.447C18.3516 200.559 18.9372 199.885 19.6825 199.425C20.4279 198.965 21.2797 198.735 22.238 198.735C23.1856 198.735 24.0321 198.965 24.7774 199.425C25.5227 199.885 26.103 200.559 26.5183 201.447C26.9442 202.324 27.1571 203.366 27.1571 204.575C27.1571 205.783 26.9442 206.832 26.5183 207.719C26.103 208.596 25.5227 209.265 24.7774 209.725C24.0321 210.185 23.1856 210.414 22.238 210.414ZM22.238 207.816C22.7703 207.816 23.1909 207.559 23.4997 207.045C23.8191 206.521 23.9788 205.698 23.9788 204.575C23.9788 203.452 23.8191 202.634 23.4997 202.12C23.1909 201.596 22.7703 201.334 22.238 201.334C21.6949 201.334 21.2637 201.596 20.9443 202.12C20.6355 202.634 20.4811 203.452 20.4811 204.575C20.4811 205.698 20.6355 206.521 20.9443 207.045C21.2637 207.559 21.6949 207.816 22.238 207.816Z" fill="white"/>
<path d="M33.4442 206.04C33.9441 206.04 34.3414 206.191 34.6364 206.492C34.9363 206.793 35.0862 207.248 35.0862 207.855V210.19H33.6616V208.089C33.6616 207.802 33.6067 207.592 33.4967 207.456C33.3917 207.32 33.2418 207.253 33.0468 207.253C32.8319 207.253 32.6594 207.328 32.5295 207.479C32.3995 207.629 32.3345 207.858 32.3345 208.164V210.19H30.9099V208.089C30.9099 207.531 30.705 207.253 30.2951 207.253C30.0751 207.253 29.9002 207.328 29.7702 207.479C29.6403 207.629 29.5753 207.858 29.5753 208.164V210.19H28.1507V206.108H29.5078V206.537C29.6578 206.371 29.8352 206.248 30.0401 206.168C30.2501 206.083 30.4775 206.04 30.7225 206.04C31.0074 206.04 31.2623 206.093 31.4872 206.198C31.7122 206.304 31.8946 206.464 32.0346 206.68C32.1945 206.474 32.397 206.316 32.6419 206.206C32.8869 206.095 33.1543 206.04 33.4442 206.04Z" fill="white"/>
<path d="M40.4153 206.108V209.444C40.4153 210.202 40.2103 210.77 39.8004 211.146C39.3905 211.528 38.8007 211.719 38.0309 211.719C37.631 211.719 37.2561 211.674 36.9062 211.583C36.5563 211.493 36.2589 211.36 36.014 211.184L36.5313 210.182C36.6963 210.318 36.9037 210.423 37.1537 210.499C37.4086 210.579 37.6585 210.619 37.9035 210.619C38.2784 210.619 38.5533 210.536 38.7282 210.371C38.9032 210.205 38.9907 209.959 38.9907 209.633V209.497C38.7157 209.818 38.3133 209.979 37.7835 209.979C37.4236 209.979 37.0912 209.899 36.7863 209.738C36.4814 209.572 36.2389 209.341 36.059 209.045C35.879 208.744 35.7891 208.397 35.7891 208.006C35.7891 207.619 35.879 207.278 36.059 206.981C36.2389 206.68 36.4814 206.449 36.7863 206.289C37.0912 206.123 37.4236 206.04 37.7835 206.04C38.3633 206.04 38.7882 206.228 39.0581 206.605V206.108H40.4153ZM38.1209 208.842C38.3758 208.842 38.5858 208.764 38.7507 208.608C38.9207 208.453 39.0057 208.252 39.0057 208.006C39.0057 207.76 38.9232 207.561 38.7582 207.411C38.5933 207.255 38.3808 207.177 38.1209 207.177C37.861 207.177 37.646 207.255 37.4761 207.411C37.3111 207.561 37.2286 207.76 37.2286 208.006C37.2286 208.252 37.3136 208.453 37.4836 208.608C37.6535 208.764 37.866 208.842 38.1209 208.842Z" fill="white"/>
<path d="M9.82224 160.635H6.99316V158.56H15.2435V160.635H12.4276V167.812H9.82224V160.635Z" fill="#333333"/>
<path d="M23.6092 165.79V167.812H16.2142V158.56H23.4382V160.582H18.7932V162.142H22.8855V164.098H18.7932V165.79H23.6092Z" fill="#333333"/>
<path d="M28.292 167.997C27.5464 167.997 26.8227 167.905 26.1209 167.72C25.4191 167.535 24.8489 167.288 24.4103 166.979L25.2656 165.05C25.6779 165.323 26.156 165.543 26.6998 165.711C27.2437 165.878 27.7788 165.962 28.3052 165.962C29.3052 165.962 29.8052 165.711 29.8052 165.208C29.8052 164.944 29.6605 164.75 29.371 164.627C29.0903 164.495 28.6341 164.358 28.0025 164.217C27.3095 164.067 26.7305 163.909 26.2656 163.741C25.8007 163.565 25.4015 163.287 25.0682 162.909C24.7348 162.53 24.5682 162.019 24.5682 161.375C24.5682 160.811 24.7217 160.305 25.0287 159.855C25.3357 159.397 25.7919 159.036 26.3972 158.772C27.0113 158.507 27.7613 158.375 28.6473 158.375C29.2526 158.375 29.8491 158.445 30.4369 158.586C31.0246 158.719 31.5422 158.917 31.9896 159.181L31.1869 161.124C30.3097 160.648 29.4587 160.41 28.6341 160.41C28.1166 160.41 27.7394 160.49 27.5025 160.648C27.2657 160.798 27.1472 160.996 27.1472 161.243C27.1472 161.49 27.2876 161.675 27.5683 161.798C27.849 161.922 28.3008 162.049 28.9236 162.182C29.6254 162.331 30.2044 162.494 30.6605 162.671C31.1255 162.838 31.5246 163.111 31.858 163.49C32.2001 163.86 32.3712 164.367 32.3712 165.01C32.3712 165.565 32.2176 166.067 31.9106 166.517C31.6036 166.966 31.143 167.328 30.529 167.601C29.9149 167.865 29.1693 167.997 28.292 167.997Z" fill="#333333"/>
<path d="M39.746 166.015H35.8511L35.1273 167.812H32.4693L36.5353 158.56H39.1012L43.1803 167.812H40.4697L39.746 166.015ZM38.9828 164.085L37.7985 161.124L36.6142 164.085H38.9828Z" fill="#333333"/>
<path d="M52.2351 167.812L52.2088 162.909L49.8403 166.9H48.6823L46.327 163.041V167.812H43.919V158.56H46.0638L49.3008 163.9L52.4588 158.56H54.6036L54.63 167.812H52.2351Z" fill="#333333"/>
<path d="M61.1184 167.997C60.1447 167.997 59.2675 167.79 58.4867 167.376C57.7148 166.962 57.1051 166.389 56.6577 165.658C56.2191 164.926 55.9998 164.102 55.9998 163.186C55.9998 162.27 56.2191 161.446 56.6577 160.714C57.1051 159.983 57.7148 159.41 58.4867 158.996C59.2675 158.582 60.1447 158.375 61.1184 158.375C62.0922 158.375 62.965 158.582 63.737 158.996C64.5177 159.41 65.1274 159.983 65.566 160.714C66.0134 161.446 66.2371 162.27 66.2371 163.186C66.2371 164.102 66.0134 164.926 65.566 165.658C65.1274 166.389 64.5177 166.962 63.737 167.376C62.965 167.79 62.0922 167.997 61.1184 167.997ZM61.1184 165.83C61.5834 165.83 62.0044 165.719 62.3816 165.499C62.7589 165.279 63.0571 164.97 63.2764 164.574C63.4957 164.169 63.6054 163.706 63.6054 163.186C63.6054 162.666 63.4957 162.208 63.2764 161.811C63.0571 161.406 62.7589 161.093 62.3816 160.873C62.0044 160.653 61.5834 160.543 61.1184 160.543C60.6535 160.543 60.2324 160.653 59.8552 160.873C59.478 161.093 59.1797 161.406 58.9604 161.811C58.7411 162.208 58.6315 162.666 58.6315 163.186C58.6315 163.706 58.7411 164.169 58.9604 164.574C59.1797 164.97 59.478 165.279 59.8552 165.499C60.2324 165.719 60.6535 165.83 61.1184 165.83Z" fill="#333333"/>
<path d="M71.6282 165.354H70.207V167.812H67.6017V158.56H71.8124C72.6457 158.56 73.3695 158.701 73.9835 158.983C74.5976 159.256 75.0713 159.653 75.4046 160.173C75.738 160.684 75.9047 161.287 75.9047 161.983C75.9047 162.653 75.7468 163.239 75.431 163.741C75.1239 164.235 74.6809 164.622 74.1019 164.904L76.0889 167.812H73.2993L71.6282 165.354ZM73.273 161.983C73.273 161.552 73.137 161.217 72.865 160.979C72.5931 160.741 72.1896 160.622 71.6545 160.622H70.207V163.331H71.6545C72.1896 163.331 72.5931 163.217 72.865 162.988C73.137 162.75 73.273 162.415 73.273 161.983Z" fill="#333333"/>
<path d="M84.7371 165.79V167.812H77.342V158.56H84.566V160.582H79.9211V162.142H84.0134V164.098H79.9211V165.79H84.7371Z" fill="#333333"/>
<path d="M86.1829 158.56H88.7883V165.737H93.1832V167.812H86.1829V158.56Z" fill="#333333"/>
<path d="M94.2142 158.56H96.8196V167.812H94.2142V158.56Z" fill="#333333"/>
<path d="M107.437 158.56V167.812H105.292L101.226 162.882V167.812H98.6731V158.56H100.818L104.884 163.49V158.56H107.437Z" fill="#333333"/>
<path d="M7.86035 174.11H10.4657V183.362H7.86035V174.11Z" fill="#333333"/>
<path d="M16.6634 173.87C17.5184 173.87 18.2609 174.014 18.8909 174.303C19.5209 174.584 20.0069 174.991 20.3489 175.524C20.691 176.048 20.862 176.668 20.862 177.382C20.862 178.096 20.691 178.715 20.3489 179.24C20.0069 179.764 19.5209 180.171 18.8909 180.46C18.2609 180.74 17.5184 180.88 16.6634 180.88H15.0163V183.362H12.3433V173.87H16.6634ZM16.5014 178.765C17.0504 178.765 17.4644 178.647 17.7434 178.412C18.0224 178.168 18.1619 177.825 18.1619 177.382C18.1619 176.939 18.0224 176.595 17.7434 176.351C17.4644 176.107 17.0504 175.985 16.5014 175.985H15.0163V178.765H16.5014Z" fill="#333333"/>
<path d="M28.0223 181.518H24.0262L23.2837 183.362H20.5566L24.7282 173.87H27.3608L31.5459 183.362H28.7648L28.0223 181.518ZM27.2393 179.538L26.0243 176.5L24.8092 179.538H27.2393Z" fill="#333333"/>
<path d="M40.8359 183.362L40.8089 178.331L38.3788 182.426H37.1908L34.7743 178.467V183.362H32.3037V173.87H34.5042L37.8253 179.348L41.0654 173.87H43.266L43.293 183.362H40.8359Z" fill="#333333"/>
<path d="M49.95 183.552C48.951 183.552 48.0509 183.339 47.2499 182.914C46.4579 182.49 45.8324 181.902 45.3734 181.152C44.9234 180.401 44.6984 179.556 44.6984 178.616C44.6984 177.676 44.9234 176.83 45.3734 176.08C45.8324 175.33 46.4579 174.742 47.2499 174.317C48.0509 173.892 48.951 173.68 49.95 173.68C50.949 173.68 51.8445 173.892 52.6365 174.317C53.4376 174.742 54.0631 175.33 54.5131 176.08C54.9721 176.83 55.2016 177.676 55.2016 178.616C55.2016 179.556 54.9721 180.401 54.5131 181.152C54.0631 181.902 53.4376 182.49 52.6365 182.914C51.8445 183.339 50.949 183.552 49.95 183.552ZM49.95 181.328C50.427 181.328 50.859 181.215 51.246 180.989C51.633 180.763 51.939 180.446 52.164 180.04C52.389 179.624 52.5015 179.149 52.5015 178.616C52.5015 178.082 52.389 177.612 52.164 177.205C51.939 176.79 51.633 176.469 51.246 176.243C50.859 176.017 50.427 175.904 49.95 175.904C49.473 175.904 49.041 176.017 48.654 176.243C48.2669 176.469 47.9609 176.79 47.7359 177.205C47.5109 177.612 47.3984 178.082 47.3984 178.616C47.3984 179.149 47.5109 179.624 47.7359 180.04C47.9609 180.446 48.2669 180.763 48.654 180.989C49.041 181.215 49.473 181.328 49.95 181.328Z" fill="#333333"/>
<path d="M60.7327 180.84H59.2747V183.362H56.6016V173.87H60.9217C61.7768 173.87 62.5193 174.014 63.1493 174.303C63.7793 174.584 64.2653 174.991 64.6073 175.524C64.9493 176.048 65.1203 176.668 65.1203 177.382C65.1203 178.069 64.9583 178.67 64.6343 179.185C64.3193 179.692 63.8648 180.089 63.2708 180.379L65.3093 183.362H62.4473L60.7327 180.84ZM62.4203 177.382C62.4203 176.939 62.2808 176.595 62.0018 176.351C61.7228 176.107 61.3087 175.985 60.7597 175.985H59.2747V178.765H60.7597C61.3087 178.765 61.7228 178.647 62.0018 178.412C62.2808 178.168 62.4203 177.825 62.4203 177.382Z" fill="#333333"/>
<path d="M74.1822 181.287V183.362H66.595V173.87H74.0067V175.944H69.2411V177.544H73.4397V179.551H69.2411V181.287H74.1822Z" fill="#333333"/>
<path d="M75.6656 173.87H78.3386V181.233H82.8477V183.362H75.6656V173.87Z" fill="#333333"/>
<path d="M83.9055 173.87H86.5786V183.362H83.9055V173.87Z" fill="#333333"/>
<path d="M97.4715 173.87V183.362H95.271L91.0994 178.304V183.362H88.4803V173.87H90.6809L94.8525 178.928V173.87H97.4715Z" fill="#333333"/>
<path d="M107.562 45.6313V57.5901C107.562 65.0393 105.999 66.2158 97.6863 73.4685C87.4866 82.3671 84.849 85.4272 84.849 101.291L84.6416 244.878C84.6358 250.062 89.0989 254.266 94.6106 254.266H194.356C199.868 254.266 204.342 250.062 204.348 244.878C204.348 238.338 204.754 112.663 204.754 100.719C204.754 84.8551 201.714 82.3671 191.511 73.4685C183.195 66.2158 181.635 65.0393 181.635 57.5901C181.635 52.1007 181.635 45.6313 181.635 45.6313H107.562Z" fill="#DCF0FF"/>
<path d="M204.558 95.4262L204.348 244.878C204.342 250.065 199.868 254.266 194.356 254.266H94.6106C89.0989 254.266 84.6358 250.062 84.6416 244.878L84.6562 234.316C84.6416 244.945 85.6493 248.369 111.531 248.369H185.397C199.289 248.369 196.625 246.847 196.655 225.162L196.836 95.4262C196.836 86.8004 194.937 82.2235 183.94 74.1229C172.943 66.0223 174.114 61.7094 174.114 56.22C174.114 50.7306 174.114 49.9472 159.673 49.9472H107.565V45.2412H181.878V60.571C181.878 67.589 193.707 73.7297 199.917 81.487C204.173 86.8004 204.564 90.7231 204.564 95.4262" fill="#3D9BE9"/>
<path d="M91.9336 36.0464L91.9511 22.8906H197.144L197.126 36.0699C197.12 41.3509 192.707 45.6315 187.268 45.6315H101.794C96.3441 45.6315 91.9278 41.3392 91.9365 36.0464H91.9336Z" fill="#3D9BE9"/>
<path d="M198.054 0.730957H92.2744C90.4897 0.730957 89.041 2.35929 89.0381 4.36317L89.0205 18.6954C89.0205 20.6993 90.4664 22.3277 92.2481 22.3277H198.028C199.813 22.3277 201.261 20.6993 201.264 18.6954L201.282 4.36317C201.282 2.35929 199.836 0.730957 198.054 0.730957Z" fill="white"/>
<path d="M201.282 4.36268L201.264 18.695C201.264 20.6988 199.813 22.3272 198.028 22.3272H92.2481C90.4634 22.3272 89.0176 20.6988 89.0205 18.695L89.0264 14.5082C89.1666 18.5688 91.6201 18.2226 125.733 18.2226H188.117C196.077 18.2226 195.896 19.0852 195.907 9.15087C195.916 1.80723 193.407 0.727539 193.407 0.727539H198.054C199.839 0.727539 201.285 2.35587 201.282 4.35975V4.36268Z" fill="#3D9BE9"/>
<path d="M204.048 104.052H85.002V224.842H204.045V104.052H204.048Z" fill="white"/>
<path d="M204.048 104.052H196.751L196.541 224.642H204.042V104.052H204.048Z" fill="#3D9BE9"/>
<path d="M204.168 104.052H85.1182V146.787H204.168V104.052Z" fill="#3D9BE9"/>
<path d="M204.048 104.052V146.787H196.679L196.752 104.052H204.048Z" fill="#333333"/>
<path d="M194.354 255H94.6084C91.6671 255 88.825 253.838 86.8096 251.814C84.9374 249.93 83.9063 247.466 83.9092 244.878L84.1166 101.291C84.1166 85.0547 87.0462 81.7775 97.2051 72.917L97.798 72.4007C105.629 65.5763 106.832 64.526 106.832 57.5902V44.8979H182.366V57.5902C182.366 64.526 183.57 65.5734 191.398 72.3977L192.303 73.187C202.427 82.0181 205.482 84.6821 205.482 100.716C205.482 107.581 205.351 151.262 205.234 189.799C205.149 217.859 205.076 242.094 205.076 244.875C205.067 250.458 200.257 254.997 194.354 254.997V255ZM108.293 46.3649V57.5902C108.293 65.1949 106.651 66.6267 98.756 73.5068L98.1631 74.0231C88.1883 82.7252 85.5799 85.6474 85.5799 101.291L85.3726 244.878C85.3696 247.075 86.2488 249.17 87.8465 250.775C89.5874 252.527 92.0555 253.533 94.6113 253.533H194.357C199.459 253.533 203.613 249.648 203.619 244.875C203.619 242.094 203.692 217.859 203.776 189.796C203.893 151.259 204.025 107.579 204.025 100.716C204.025 85.351 201.34 83.0098 191.348 74.293L190.443 73.5038C182.55 66.6237 180.906 65.192 180.906 57.5872V46.362H108.293V46.3649Z" fill="#333333"/>
<path d="M204.775 225.573H84.2686V103.122H204.778V225.573H204.775ZM85.729 224.106H203.315V104.589H85.7319V224.106H85.729Z" fill="#333333"/>
<path d="M187.268 46.365H101.794C98.8997 46.365 96.1978 45.2502 94.1824 43.2257C92.2576 41.2893 91.2002 38.7398 91.2031 36.0464L91.2207 22.207H197.874L197.856 36.0728C197.847 41.75 193.098 46.365 187.268 46.365ZM92.6811 23.674L92.6636 36.0493C92.6607 38.3525 93.5661 40.5324 95.2164 42.1901C96.9543 43.9387 99.2881 44.901 101.794 44.901H187.268C192.295 44.901 196.39 40.9402 196.396 36.0728L196.413 23.6769H92.6811V23.674Z" fill="#333333"/>
<path d="M198.031 23.0637H92.2508C91.2606 23.0637 90.3142 22.6588 89.5811 21.9253C88.7603 21.0979 88.29 19.9214 88.29 18.698L88.3076 4.36569C88.3076 1.95987 90.0893 0 92.2741 0H198.054C199.044 0 199.99 0.404883 200.721 1.13837C201.541 1.96574 202.012 3.14224 202.012 4.36569L201.994 18.698C201.994 21.1038 200.212 23.0637 198.028 23.0637H198.031ZM92.2741 1.46403C90.8925 1.46403 89.768 2.76377 89.768 4.36569L89.7505 18.698C89.7505 19.5371 90.063 20.3351 90.6151 20.8867C91.0707 21.3444 91.6491 21.5967 92.2508 21.5967H198.031C199.412 21.5967 200.537 20.297 200.537 18.695L200.554 4.36276C200.554 3.52366 200.242 2.72563 199.69 2.17405C199.234 1.71635 198.656 1.46403 198.054 1.46403H92.2741Z" fill="#333333"/>
<path d="M205.216 147.407H84.2686V103.122H205.216V147.407ZM85.729 145.94H203.756V104.589H85.7319V145.94H85.729Z" fill="#333333"/>
<path d="M141.185 116.23C141.185 118.894 139.485 120.549 136.775 120.549H134.727V123.847H132.376V111.891H136.775C139.485 111.891 141.185 113.552 141.185 116.23ZM138.805 116.23C138.805 114.913 138.08 114.144 136.64 114.144H134.727V118.296H136.64C138.08 118.302 138.805 117.533 138.805 116.23Z" fill="white"/>
<path d="M150.717 121.632V123.853H142.854V111.891H150.527V114.112H145.187V116.712H149.902V118.862H145.187V121.632H150.714H150.717Z" fill="white"/>
<path d="M161.394 116.23C161.394 118.894 159.694 120.549 156.984 120.549H154.936V123.847H152.585V111.891H156.984C159.694 111.891 161.394 113.552 161.394 116.23ZM159.014 116.23C159.014 114.913 158.289 114.144 156.849 114.144H154.936V118.296H156.849C158.287 118.302 159.014 117.533 159.014 116.23Z" fill="white"/>
<path d="M164.891 114.147H161.643V111.894H170.496V114.147H167.248V123.856H164.896V114.147H164.891Z" fill="white"/>
<path d="M171.753 111.891H174.104V123.853H171.753V111.891Z" fill="white"/>
<path d="M176.511 111.891H181.126C184.45 111.891 186.725 114.25 186.725 117.873C186.725 121.497 184.447 123.856 181.126 123.856H176.511V111.894V111.891ZM181.009 121.579C183.027 121.579 184.345 120.159 184.345 117.87C184.345 115.582 183.021 114.162 181.009 114.162H178.862V121.576H181.009V121.579Z" fill="white"/>
<path d="M196.363 121.632V123.853H188.5V111.891H196.173V114.112H190.834V116.712H195.548V118.862H190.834V121.632H196.36H196.363Z" fill="white"/>
<path d="M132.375 138.476L132.79 137.478C133.502 138.335 134.779 138.972 136.09 138.972C137.966 138.972 138.775 138.009 138.775 136.798C138.775 133.423 132.617 135.498 132.617 130.956C132.617 129.149 133.762 127.591 136.306 127.591C137.434 127.591 138.605 127.993 139.406 128.682L139.046 129.721C138.19 129.037 137.189 128.703 136.306 128.703C134.475 128.703 133.663 129.7 133.663 130.933C133.663 134.307 139.82 132.265 139.82 136.742C139.82 138.549 138.649 140.095 136.093 140.095C134.589 140.081 133.114 139.432 132.372 138.482L132.375 138.476Z" fill="white"/>
<path d="M150.476 127.682V139.969H149.43V134.301H143.171V139.969H142.113V127.682H143.171V133.156H149.43V127.682H150.476Z" fill="white"/>
<path d="M152.847 133.825C152.847 130.246 155.075 127.576 158.104 127.576C161.133 127.576 163.344 130.226 163.344 133.825C163.344 137.425 161.101 140.075 158.104 140.075C155.107 140.075 152.847 137.405 152.847 133.825ZM162.287 133.825C162.287 130.894 160.499 128.738 158.104 128.738C155.709 128.738 153.887 130.9 153.887 133.825C153.887 136.751 155.683 138.913 158.104 138.913C160.526 138.913 162.287 136.759 162.287 133.825Z" fill="white"/>
<path d="M173.548 131.898C173.548 134.515 172.005 136.093 169.461 136.093H166.777V139.975H165.72V127.682H169.461C172 127.682 173.548 129.26 173.548 131.898ZM172.484 131.898C172.484 129.929 171.427 128.805 169.429 128.805H166.771V134.949H169.429C171.427 134.949 172.484 133.825 172.484 131.898Z" fill="white"/>
<path d="M112.496 124.807C112.496 127.943 109.964 130.487 106.841 130.487C105.892 130.487 104.96 130.246 104.128 129.788C103.611 129.504 103.144 129.14 102.738 128.712C100.597 126.432 100.699 122.841 102.965 120.69C103.041 120.62 103.117 120.549 103.196 120.485C103.628 120.112 104.116 119.804 104.639 119.578C107.098 118.537 109.946 119.361 111.477 121.556C111.912 122.181 112.219 122.891 112.374 123.639C112.455 124.023 112.496 124.416 112.496 124.81V124.807Z" fill="white"/>
<path d="M101.033 133.623C100.641 133.162 100.151 132.798 99.5956 132.558L99.5752 132.549C97.5598 131.68 95.226 132.619 94.3614 134.644C93.4968 136.668 94.4315 139.012 96.4469 139.881C98.4623 140.749 100.796 139.81 101.661 137.786C102.257 136.392 102.011 134.779 101.03 133.626L101.033 133.623Z" fill="white"/>
<path d="M101.958 110.797C100.787 109.62 98.8886 109.62 97.7173 110.797C96.546 111.973 96.546 113.881 97.7173 115.057C98.8886 116.234 100.787 116.234 101.958 115.057L101.964 115.051C103.13 113.875 103.127 111.971 101.958 110.797Z" fill="white"/>
<path d="M123.728 115.972C121.984 114.221 119.154 114.221 117.41 115.972C116.432 116.955 115.961 118.34 116.14 119.719C116.14 119.737 116.14 119.751 116.145 119.769C116.245 120.485 116.514 121.162 116.931 121.749C116.943 121.764 116.955 121.779 116.963 121.793C117.098 121.978 117.247 122.151 117.407 122.313C119.154 124.067 121.981 124.067 123.728 122.313C125.475 120.558 125.475 117.718 123.728 115.964V115.972Z" fill="white"/>
<path d="M104.125 129.785C103.608 129.501 103.141 129.137 102.735 128.708C102.781 128.77 103.068 129.272 101.68 131.032C100.351 132.722 99.7145 132.602 99.5918 132.558C100.144 132.798 100.637 133.162 101.029 133.623C101.011 133.582 100.792 133.013 102.083 131.381C103.424 129.688 104.128 129.788 104.128 129.788H104.125V129.785Z" fill="white"/>
<path d="M102.924 117.683C101.735 115.691 101.981 115.042 101.981 115.042L101.966 115.051L101.96 115.057C101.615 115.403 101.189 115.662 100.722 115.805C100.742 115.805 101.265 115.826 102.433 117.877C103.59 119.913 103.213 120.441 103.193 120.467C103.628 120.098 104.113 119.795 104.639 119.572C104.639 119.572 104.116 119.672 102.924 117.68V117.683Z" fill="white"/>
<path d="M116.144 119.769C116.156 119.969 116.065 120.737 114.228 121.468C112.181 122.28 111.523 121.612 111.474 121.556C111.909 122.181 112.216 122.891 112.37 123.639C112.365 123.586 112.321 122.832 114.424 121.967C116.249 121.215 116.795 121.603 116.924 121.752C116.506 121.166 116.238 120.485 116.141 119.772L116.144 119.769Z" fill="white"/>
<path d="M115.546 136.213C116.574 136.213 117.407 135.377 117.407 134.345C117.407 133.312 116.574 132.476 115.546 132.476C114.519 132.476 113.686 133.312 113.686 134.345C113.686 135.377 114.519 136.213 115.546 136.213Z" fill="white"/>
<path d="M94.4453 126.599C96.0617 126.599 97.372 125.283 97.372 123.66C97.372 122.036 96.0617 120.72 94.4453 120.72C92.8289 120.72 91.5186 122.036 91.5186 123.66C91.5186 125.283 92.8289 126.599 94.4453 126.599Z" fill="white"/>
<path d="M110.315 116.187C110.944 116.187 111.454 115.675 111.454 115.043C111.454 114.411 110.944 113.898 110.315 113.898C109.686 113.898 109.176 114.411 109.176 115.043C109.176 115.675 109.686 116.187 110.315 116.187Z" fill="white"/>
<path d="M134.105 195.6H89.6084V219.908H134.105V195.6Z" fill="#3D9BE9"/>
<path d="M134.835 220.644H88.8779V194.869H134.835V220.644ZM90.3384 219.177H133.375V196.336H90.3384V219.177Z" fill="#333333"/>
<path d="M91.9332 35.0693C91.9332 39.3587 95.2659 41.7117 107.367 41.7117H185.042C190.899 41.7117 193.285 37.792 193.285 34.2625V25.6367H91.9448V22.9404H197.14V34.2625C197.14 40.5352 194.173 45.6315 187.265 45.6315H103.462C95.2659 45.6315 93.3147 41.3186 92.5319 39.7489C91.7491 38.1793 91.9302 35.0664 91.9302 35.0664L91.9332 35.0693Z" fill="#333333"/>
<path d="M95.6079 27.2036H94.1475V37.7892H95.6079V27.2036Z" fill="white"/>
<path d="M88.7759 108.168H87.3154V142.29H88.7759V108.168Z" fill="white"/>
<path d="M88.7759 227.791H87.3154V240.955H88.7759V227.791Z" fill="white"/>
<path d="M88.7759 99.4838H87.3154C87.3154 92.2369 88.1858 85.9437 99.1216 76.5111L99.1801 76.4612C109.429 67.6212 110.747 66.4829 110.747 56.7275H112.207C112.207 67.1577 110.364 68.7479 100.132 77.5731L100.074 77.623C89.5879 86.6683 88.7759 92.3895 88.7759 99.4838Z" fill="white"/>
<path d="M100.626 201.331V213.643H97.1592V204.022H94.8828V201.331H100.626Z" fill="white"/>
<path d="M107.881 213.89C106.83 213.89 105.896 213.638 105.079 213.133C104.262 212.629 103.62 211.896 103.153 210.935C102.697 209.962 102.47 208.812 102.47 207.487C102.47 206.162 102.697 205.019 103.153 204.057C103.62 203.084 104.262 202.346 105.079 201.841C105.896 201.337 106.83 201.085 107.881 201.085C108.92 201.085 109.848 201.337 110.665 201.841C111.482 202.346 112.118 203.084 112.573 204.057C113.04 205.019 113.274 206.162 113.274 207.487C113.274 208.812 113.04 209.962 112.573 210.935C112.118 211.896 111.482 212.629 110.665 213.133C109.848 213.638 108.92 213.89 107.881 213.89ZM107.881 211.04C108.464 211.04 108.925 210.759 109.264 210.196C109.614 209.621 109.789 208.719 109.789 207.487C109.789 206.256 109.614 205.359 109.264 204.796C108.925 204.222 108.464 203.934 107.881 203.934C107.285 203.934 106.812 204.222 106.462 204.796C106.124 205.359 105.954 206.256 105.954 207.487C105.954 208.719 106.124 209.621 106.462 210.196C106.812 210.759 107.285 211.04 107.881 211.04Z" fill="white"/>
<path d="M120.168 209.093C120.716 209.093 121.152 209.258 121.476 209.588C121.804 209.919 121.969 210.417 121.969 211.083V213.643H120.407V211.339C120.407 211.025 120.346 210.794 120.226 210.645C120.111 210.497 119.946 210.422 119.732 210.422C119.497 210.422 119.308 210.505 119.165 210.67C119.023 210.835 118.951 211.086 118.951 211.422V213.643H117.389V211.339C117.389 210.728 117.164 210.422 116.715 210.422C116.474 210.422 116.282 210.505 116.139 210.67C115.997 210.835 115.925 211.086 115.925 211.422V213.643H114.363V209.167H115.851V209.638C116.016 209.456 116.21 209.321 116.435 209.233C116.665 209.14 116.915 209.093 117.183 209.093C117.496 209.093 117.775 209.151 118.022 209.266C118.269 209.382 118.469 209.558 118.622 209.795C118.798 209.569 119.02 209.396 119.288 209.274C119.557 209.153 119.85 209.093 120.168 209.093Z" fill="white"/>
<path d="M127.813 209.167V212.826C127.813 213.657 127.588 214.279 127.138 214.692C126.689 215.111 126.042 215.32 125.198 215.32C124.759 215.32 124.348 215.27 123.965 215.171C123.581 215.072 123.255 214.926 122.986 214.734L123.554 213.635C123.734 213.784 123.962 213.899 124.236 213.982C124.516 214.07 124.79 214.114 125.058 214.114C125.469 214.114 125.771 214.023 125.963 213.842C126.155 213.66 126.25 213.39 126.25 213.032V212.884C125.949 213.236 125.508 213.412 124.927 213.412C124.532 213.412 124.167 213.324 123.833 213.148C123.499 212.966 123.233 212.713 123.036 212.388C122.838 212.058 122.74 211.678 122.74 211.248C122.74 210.824 122.838 210.45 123.036 210.125C123.233 209.795 123.499 209.541 123.833 209.365C124.167 209.184 124.532 209.093 124.927 209.093C125.563 209.093 126.028 209.299 126.324 209.712V209.167H127.813ZM125.297 212.165C125.576 212.165 125.806 212.08 125.987 211.909C126.174 211.738 126.267 211.518 126.267 211.248C126.267 210.979 126.176 210.761 125.996 210.596C125.815 210.425 125.582 210.34 125.297 210.34C125.012 210.34 124.776 210.425 124.59 210.596C124.409 210.761 124.318 210.979 124.318 211.248C124.318 211.518 124.411 211.738 124.598 211.909C124.784 212.08 125.017 212.165 125.297 212.165Z" fill="white"/>
<path d="M97.6181 167.583C96.5826 167.583 95.6506 167.365 94.8222 166.93C94.0032 166.486 93.3584 165.871 92.8877 165.086C92.417 164.301 92.1816 163.413 92.1816 162.42C92.1816 161.427 92.417 160.538 92.8877 159.753C93.3584 158.968 94.0032 158.358 94.8222 157.923C95.6506 157.479 96.5826 157.257 97.6181 157.257C98.5219 157.257 99.3362 157.417 100.061 157.739C100.786 158.06 101.388 158.524 101.868 159.129L100.089 160.746C99.4491 159.971 98.6725 159.583 97.7593 159.583C97.2227 159.583 96.7426 159.701 96.319 159.937C95.9048 160.174 95.58 160.51 95.3447 160.945C95.1188 161.37 95.0058 161.862 95.0058 162.42C95.0058 162.978 95.1188 163.474 95.3447 163.909C95.58 164.334 95.9048 164.665 96.319 164.902C96.7426 165.138 97.2227 165.256 97.7593 165.256C98.6725 165.256 99.4491 164.869 100.089 164.093L101.868 165.71C101.388 166.315 100.786 166.779 100.061 167.1C99.3362 167.422 98.5219 167.583 97.6181 167.583Z" fill="#333333"/>
<path d="M105.276 167.583C104.551 167.583 103.892 167.46 103.299 167.214C102.706 166.958 102.221 166.594 101.844 166.122L103.369 164.306C103.896 164.996 104.466 165.342 105.078 165.342C105.483 165.342 105.789 165.219 105.996 164.973C106.212 164.727 106.32 164.368 106.32 163.895V159.625H102.903V157.455H109.088V163.725C109.088 165.011 108.763 165.975 108.114 166.618C107.474 167.261 106.528 167.583 105.276 167.583Z" fill="#333333"/>
<path d="M116.057 167.588C114.995 167.588 114.038 167.365 113.189 166.918C112.348 166.462 111.687 165.832 111.204 165.027C110.721 164.221 110.479 163.309 110.479 162.291C110.479 161.272 110.721 160.36 111.204 159.555C111.687 158.75 112.348 158.124 113.189 157.678C114.038 157.222 114.995 156.994 116.057 156.994C116.984 156.994 117.82 157.159 118.563 157.488C119.307 157.818 119.925 158.294 120.418 158.915L118.592 160.574C117.936 159.778 117.139 159.38 116.202 159.38C115.651 159.38 115.159 159.502 114.724 159.744C114.299 159.987 113.966 160.331 113.725 160.777C113.493 161.214 113.377 161.718 113.377 162.291C113.377 162.863 113.493 163.372 113.725 163.819C113.966 164.255 114.299 164.595 114.724 164.837C115.159 165.08 115.651 165.201 116.202 165.201C117.139 165.201 117.936 164.803 118.592 164.008L120.418 165.667C119.925 166.288 119.307 166.763 118.563 167.093C117.82 167.423 116.984 167.588 116.057 167.588Z" fill="#333333"/>
<path d="M121.265 162.174H125.495V164.299H121.265V162.174Z" fill="#333333"/>
<path d="M130.686 157.197V167.384H127.817V159.424H125.934V157.197H130.686Z" fill="#333333"/>
<path d="M140.049 165.099V167.384H132.153V165.58L135.949 162.014C136.316 161.665 136.562 161.369 136.687 161.127C136.813 160.874 136.876 160.622 136.876 160.37C136.876 160.04 136.765 159.783 136.543 159.599C136.32 159.414 135.997 159.322 135.572 159.322C135.195 159.322 134.847 159.409 134.529 159.584C134.22 159.749 133.964 159.991 133.761 160.312L131.631 159.118C132.027 158.459 132.583 157.94 133.297 157.561C134.012 157.183 134.857 156.994 135.833 156.994C136.605 156.994 137.286 157.12 137.875 157.372C138.474 157.624 138.938 157.988 139.266 158.463C139.604 158.929 139.773 159.472 139.773 160.093C139.773 160.646 139.653 161.17 139.411 161.665C139.179 162.15 138.725 162.703 138.049 163.324L136.137 165.099H140.049Z" fill="#333333"/>
<path d="M144.592 156.994C146.051 156.994 147.2 157.425 148.04 158.289C148.881 159.152 149.301 160.394 149.301 162.014C149.301 163.178 149.074 164.182 148.62 165.027C148.176 165.861 147.543 166.496 146.722 166.933C145.911 167.369 144.969 167.588 143.897 167.588C143.327 167.588 142.781 167.52 142.26 167.384C141.738 167.258 141.294 167.078 140.927 166.846L141.97 164.779C142.463 165.128 143.086 165.303 143.839 165.303C144.563 165.303 145.148 165.104 145.592 164.706C146.046 164.299 146.311 163.712 146.389 162.946C145.809 163.44 145.051 163.688 144.114 163.688C143.477 163.688 142.892 163.557 142.361 163.295C141.83 163.023 141.405 162.645 141.086 162.16C140.777 161.665 140.623 161.102 140.623 160.472C140.623 159.783 140.797 159.177 141.144 158.653C141.502 158.119 141.98 157.712 142.579 157.43C143.187 157.139 143.858 156.994 144.592 156.994ZM144.795 161.621C145.21 161.621 145.548 161.505 145.809 161.272C146.07 161.029 146.2 160.714 146.2 160.326C146.2 159.948 146.07 159.642 145.809 159.409C145.558 159.167 145.215 159.046 144.781 159.046C144.375 159.046 144.042 159.162 143.781 159.395C143.53 159.628 143.404 159.943 143.404 160.341C143.404 160.729 143.53 161.039 143.781 161.272C144.042 161.505 144.38 161.621 144.795 161.621Z" fill="#333333"/>
<path d="M154.088 160.908C155.507 160.908 156.555 161.199 157.231 161.781C157.917 162.363 158.26 163.14 158.26 164.11C158.26 164.74 158.096 165.322 157.768 165.856C157.449 166.38 156.956 166.802 156.29 167.122C155.633 167.433 154.817 167.588 153.841 167.588C153.127 167.588 152.417 167.5 151.712 167.326C151.016 167.151 150.417 166.904 149.915 166.584L150.944 164.415C151.35 164.687 151.794 164.896 152.277 165.041C152.769 165.187 153.262 165.259 153.754 165.259C154.247 165.259 154.638 165.167 154.928 164.983C155.227 164.789 155.377 164.522 155.377 164.182C155.377 163.843 155.232 163.586 154.942 163.411C154.653 163.237 154.141 163.149 153.407 163.149H150.654L151.161 157.197H157.623V159.424H153.537L153.407 160.908H154.088Z" fill="#333333"/>
<path d="M92.6904 173.592H95.4863V183.521H92.6904V173.592Z" fill="#333333"/>
<path d="M102.137 173.334C103.055 173.334 103.852 173.489 104.528 173.8C105.204 174.101 105.725 174.537 106.092 175.109C106.459 175.672 106.643 176.337 106.643 177.103C106.643 177.87 106.459 178.534 106.092 179.097C105.725 179.66 105.204 180.096 104.528 180.407C103.852 180.707 103.055 180.858 102.137 180.858H100.37V183.521H97.5012V173.334H102.137ZM101.963 178.587C102.553 178.587 102.997 178.461 103.296 178.209C103.596 177.947 103.745 177.579 103.745 177.103C103.745 176.628 103.596 176.259 103.296 175.997C102.997 175.735 102.553 175.604 101.963 175.604H100.37V178.587H101.963Z" fill="#333333"/>
<path d="M114.327 181.542H110.038L109.242 183.521H106.315L110.792 173.334H113.617L118.108 183.521H115.124L114.327 181.542ZM113.487 179.417L112.183 176.157L110.879 179.417H113.487Z" fill="#333333"/>
<path d="M128.077 183.521L128.048 178.122L125.441 182.517H124.166L121.573 178.267V183.521H118.921V173.334H121.283L124.847 179.213L128.324 173.334H130.685L130.714 183.521H128.077Z" fill="#333333"/>
<path d="M137.858 183.724C136.786 183.724 135.82 183.496 134.96 183.04C134.111 182.585 133.439 181.954 132.947 181.149C132.464 180.343 132.222 179.436 132.222 178.427C132.222 177.418 132.464 176.511 132.947 175.706C133.439 174.901 134.111 174.27 134.96 173.814C135.82 173.358 136.786 173.13 137.858 173.13C138.93 173.13 139.891 173.358 140.741 173.814C141.601 174.27 142.272 174.901 142.755 175.706C143.247 176.511 143.494 177.418 143.494 178.427C143.494 179.436 143.247 180.343 142.755 181.149C142.272 181.954 141.601 182.585 140.741 183.04C139.891 183.496 138.93 183.724 137.858 183.724ZM137.858 181.338C138.37 181.338 138.834 181.217 139.249 180.974C139.664 180.732 139.993 180.392 140.234 179.955C140.475 179.509 140.596 179 140.596 178.427C140.596 177.855 140.475 177.351 140.234 176.914C139.993 176.468 139.664 176.123 139.249 175.881C138.834 175.638 138.37 175.517 137.858 175.517C137.346 175.517 136.883 175.638 136.467 175.881C136.052 176.123 135.724 176.468 135.482 176.914C135.241 177.351 135.12 177.855 135.12 178.427C135.12 179 135.241 179.509 135.482 179.955C135.724 180.392 136.052 180.732 136.467 180.974C136.883 181.217 137.346 181.338 137.858 181.338Z" fill="#333333"/>
<path d="M149.429 180.814H147.865V183.521H144.996V173.334H149.632C150.55 173.334 151.346 173.489 152.023 173.8C152.699 174.101 153.22 174.537 153.587 175.109C153.954 175.672 154.138 176.337 154.138 177.103C154.138 177.84 153.964 178.486 153.616 179.039C153.278 179.582 152.79 180.009 152.153 180.319L154.341 183.521H151.269L149.429 180.814ZM151.24 177.103C151.24 176.628 151.091 176.259 150.791 175.997C150.492 175.735 150.047 175.604 149.458 175.604H147.865V178.587H149.458C150.047 178.587 150.492 178.461 150.791 178.209C151.091 177.947 151.24 177.579 151.24 177.103Z" fill="#333333"/>
<path d="M163.862 181.294V183.521H155.72V173.334H163.674V175.561H158.56V177.278H163.065V179.432H158.56V181.294H163.862Z" fill="#333333"/>
<path d="M165.454 173.334H168.323V181.236H173.162V183.521H165.454V173.334Z" fill="#333333"/>
<path d="M174.297 173.334H177.165V183.521H174.297V173.334Z" fill="#333333"/>
<path d="M188.855 173.334V183.521H186.493L182.017 178.093V183.521H179.206V173.334H181.567L186.044 178.762V173.334H188.855Z" fill="#333333"/>
</svg>
