<svg width="296" height="260" viewBox="0 0 296 260" fill="none" xmlns="http://www.w3.org/2000/svg">
<path d="M184.268 120.868H39.5874C38.098 120.868 36.8906 122.086 36.8906 123.588V230.069C36.8906 231.571 38.098 232.789 39.5874 232.789H184.268C185.758 232.789 186.965 231.571 186.965 230.069V123.588C186.965 122.086 185.758 120.868 184.268 120.868Z" fill="white"/>
<path d="M186.92 128.438V218.481L36.9395 218.144V128.438L37.0092 128.491C38.4561 129.628 186.923 128.438 186.923 128.438H186.92Z" fill="white"/>
<path d="M186.92 157.101H36.9395V174.245H186.92V157.101Z" fill="#3D9BE9"/>
<path d="M70.6894 196.255H39.7295V214.938H70.6894V196.255Z" fill="#3D9BE9"/>
<path d="M75.8892 141.992C75.8892 144.288 74.1683 145.713 71.4235 145.713H69.3516V148.551H66.9697V138.255H71.4235C74.1683 138.255 75.8892 139.685 75.8892 141.992ZM73.4809 141.992C73.4809 140.858 72.7478 140.196 71.2913 140.196H69.3516V143.772H71.2913C72.7478 143.776 73.4809 143.115 73.4809 141.992Z" fill="#3D9BE9"/>
<path d="M85.5425 146.644V148.556H77.582V138.255H85.3527V140.167H79.9471V142.407H84.7205V144.259H79.9471V146.644H85.5449H85.5425Z" fill="#3D9BE9"/>
<path d="M96.3551 141.992C96.3551 144.288 94.6341 145.713 91.8893 145.713H89.8175V148.551H87.4355V138.255H91.8893C94.6341 138.255 96.3551 139.685 96.3551 141.992ZM93.9467 141.992C93.9467 140.858 93.2136 140.196 91.7571 140.196H89.8175V143.772H91.7571C93.2136 143.776 93.9467 143.115 93.9467 141.992Z" fill="#3D9BE9"/>
<path d="M99.8964 140.196H96.6084V138.255H105.574V140.196H102.286V148.556H99.9036V140.196H99.8988H99.8964Z" fill="#3D9BE9"/>
<path d="M106.845 138.255H109.227V148.556H106.845V138.255Z" fill="#3D9BE9"/>
<path d="M111.661 138.255H116.334C119.701 138.255 122.004 140.286 122.004 143.406C122.004 146.525 119.696 148.556 116.334 148.556H111.661V138.255ZM116.216 146.598C118.261 146.598 119.595 145.374 119.595 143.406C119.595 141.437 118.256 140.213 116.216 140.213H114.043V146.598H116.216Z" fill="#3D9BE9"/>
<path d="M131.764 146.644V148.556H123.804V138.255H131.574V140.167H126.169V142.407H130.942V144.259H126.169V146.644H131.767H131.764Z" fill="#3D9BE9"/>
<path d="M138.992 147.302L139.418 146.466C140.151 147.183 141.463 147.717 142.814 147.717C144.741 147.717 145.575 146.909 145.575 145.894C145.575 143.065 139.245 144.805 139.245 140.995C139.245 139.48 140.422 138.174 143.037 138.174C144.198 138.174 145.402 138.511 146.224 139.088L145.854 139.958C144.975 139.386 143.943 139.105 143.037 139.105C141.155 139.105 140.319 139.941 140.319 140.973C140.319 143.802 146.65 142.091 146.65 145.843C146.65 147.358 145.446 148.655 142.819 148.655C141.273 148.642 139.754 148.099 138.992 147.302Z" fill="#333333"/>
<path d="M157.61 138.251V148.552H156.533V143.799H150.096V148.552H149.01V138.251H150.096V142.842H156.533V138.251H157.61Z" fill="#333333"/>
<path d="M160.047 143.402C160.047 140.401 162.337 138.162 165.452 138.162C168.567 138.162 170.841 140.384 170.841 143.402C170.841 146.42 168.534 148.642 165.452 148.642C162.371 148.642 160.047 146.403 160.047 143.402ZM169.757 143.402C169.757 140.944 167.918 139.138 165.455 139.138C162.991 139.138 161.119 140.951 161.119 143.402C161.119 145.852 162.967 147.665 165.455 147.665C167.942 147.665 169.757 145.86 169.757 143.402Z" fill="#333333"/>
<path d="M181.339 141.785C181.339 143.979 179.753 145.302 177.138 145.302H174.376V148.558H173.29V138.249H177.138C179.748 138.249 181.339 139.572 181.339 141.783V141.785ZM180.246 141.785C180.246 140.135 179.159 139.192 177.102 139.192H174.367V144.343H177.102C179.157 144.343 180.246 143.4 180.246 141.783V141.785Z" fill="#333333"/>
<path d="M55.3883 143.043C55.3883 144.914 53.8837 146.431 52.0258 146.431C51.4609 146.431 50.9081 146.288 50.413 146.014C50.1054 145.844 49.8265 145.626 49.5862 145.372C48.3123 144.012 48.3748 141.869 49.7232 140.585C49.7665 140.544 49.8121 140.502 49.8602 140.461C50.1174 140.238 50.4058 140.056 50.7183 139.921C52.1796 139.3 53.8741 139.792 54.7826 141.101C55.0422 141.474 55.2225 141.899 55.3162 142.344C55.3643 142.575 55.3883 142.807 55.3883 143.043Z" fill="#3D9BE9"/>
<path d="M48.5747 148.305C48.3416 148.031 48.0508 147.813 47.7215 147.67L47.7095 147.665C46.5101 147.147 45.1232 147.706 44.6089 148.916C44.0945 150.125 44.6497 151.524 45.8491 152.043C47.0485 152.561 48.4353 152.001 48.9497 150.792C49.303 149.961 49.1588 148.998 48.5747 148.307V148.305Z" fill="#3D9BE9"/>
<path d="M49.1252 134.683C48.4282 133.98 47.3009 133.983 46.6039 134.683C45.9069 135.386 45.9093 136.523 46.6039 137.226C47.3009 137.926 48.4282 137.926 49.1252 137.226L49.13 137.221C49.8222 136.518 49.8222 135.381 49.1252 134.681V134.683Z" fill="#3D9BE9"/>
<path d="M62.0652 137.771C61.0293 136.726 59.3468 136.726 58.3109 137.771C57.7293 138.357 57.4505 139.184 57.5562 140.006C57.5562 140.006 57.5562 140.025 57.5586 140.035C57.6187 140.461 57.7773 140.866 58.0273 141.218C58.0345 141.227 58.0393 141.234 58.0465 141.244C58.1258 141.353 58.2148 141.457 58.3109 141.554C59.3493 142.602 61.0293 142.602 62.0676 141.554C63.106 140.507 63.106 138.813 62.0676 137.766V137.771H62.0652Z" fill="#3D9BE9"/>
<path d="M50.4131 146.014C50.1055 145.844 49.8266 145.626 49.5863 145.372C49.6151 145.408 49.7834 145.708 48.959 146.758C48.1682 147.766 47.7909 147.694 47.7188 147.667C48.048 147.81 48.3389 148.028 48.572 148.302C48.5624 148.278 48.4326 147.938 49.1993 146.964C49.9973 145.953 50.4155 146.014 50.4155 146.014H50.4131Z" fill="#3D9BE9"/>
<path d="M49.6986 138.791C48.992 137.604 49.1386 137.216 49.1386 137.216L49.129 137.221L49.1242 137.226C48.9199 137.434 48.6651 137.587 48.3887 137.672C48.3887 137.672 48.7131 137.684 49.4054 138.908C50.0928 140.124 49.8693 140.437 49.8572 140.454C50.1144 140.234 50.4052 140.054 50.7153 139.921C50.7153 139.921 50.4028 139.981 49.6962 138.791H49.6986Z" fill="#3D9BE9"/>
<path d="M57.5554 140.037C57.5626 140.156 57.5097 140.616 56.4161 141.05C55.1999 141.535 54.8081 141.135 54.7793 141.104C55.0389 141.477 55.2191 141.901 55.3129 142.347C55.3105 142.316 55.2816 141.865 56.5339 141.348C57.6179 140.9 57.9423 141.133 58.0193 141.22C57.7717 140.868 57.6131 140.464 57.553 140.037H57.5554Z" fill="#3D9BE9"/>
<path d="M57.2003 149.85C57.811 149.85 58.306 149.35 58.306 148.735C58.306 148.119 57.811 147.62 57.2003 147.62C56.5897 147.62 56.0947 148.119 56.0947 148.735C56.0947 149.35 56.5897 149.85 57.2003 149.85Z" fill="#3D9BE9"/>
<path d="M44.6587 144.111C45.6184 144.111 46.3964 143.327 46.3964 142.359C46.3964 141.391 45.6184 140.606 44.6587 140.606C43.6989 140.606 42.9209 141.391 42.9209 142.359C42.9209 143.327 43.6989 144.111 44.6587 144.111Z" fill="#3D9BE9"/>
<path d="M54.0928 137.899C54.4672 137.899 54.7706 137.593 54.7706 137.216C54.7706 136.838 54.4672 136.532 54.0928 136.532C53.7185 136.532 53.415 136.838 53.415 137.216C53.415 137.593 53.7185 137.899 54.0928 137.899Z" fill="#3D9BE9"/>
<path d="M42.2127 168.445C42.8592 168.792 43.9024 169.153 44.9647 169.153C45.9357 169.153 46.4165 168.789 46.4165 168.212C46.4165 167.667 45.9406 167.344 44.7388 166.906C42.9506 166.225 41.7584 165.163 41.7584 163.466C41.7584 161.447 43.3399 159.901 46.0223 159.901C47.2889 159.901 48.1951 160.155 48.8921 160.485L48.2984 162.926C47.8418 162.71 47.0534 162.385 45.991 162.385C45.1258 162.385 44.6499 162.727 44.6499 163.226C44.6499 163.806 45.2123 164.038 46.5511 164.576C48.4643 165.33 49.3175 166.428 49.3175 168.016C49.3175 169.986 47.8922 171.661 44.7941 171.661C43.5154 171.661 42.2752 171.303 41.6719 170.968L42.2103 168.447L42.2127 168.445Z" fill="white"/>
<path d="M57.5109 166.884H53.6965V168.986H57.9603V171.482H50.8555V160.078H57.7392V162.575H53.6965V164.414H57.5109V166.884Z" fill="white"/>
<path d="M59.5444 160.236C60.3472 160.1 61.5514 159.991 62.9718 159.991C64.5966 159.991 65.7623 160.233 66.5627 160.88C67.2429 161.438 67.6107 162.25 67.6107 163.367C67.6107 164.788 66.618 165.801 65.7912 166.125V166.184C66.4954 166.508 66.8776 167.238 67.1492 168.227C67.4689 169.386 67.8174 171.043 68.0241 171.485H65.1182C64.9572 171.155 64.6808 170.263 64.3731 168.857C64.0847 167.49 63.6953 167.206 62.818 167.206H62.3565V171.482H59.542V160.236H59.5444ZM62.3589 165.015H63.0992C64.1688 165.015 64.7889 164.453 64.7889 163.597C64.7889 162.742 64.2649 162.257 63.3204 162.247C62.7844 162.247 62.5007 162.276 62.3589 162.315V165.013V165.015Z" fill="white"/>
<path d="M71.9713 160.078V166.55C71.9713 168.271 72.5265 169.245 73.6514 169.245C74.7762 169.245 75.3315 168.36 75.3315 166.55V160.078H78.1724V166.368C78.1724 169.892 76.5428 171.669 73.5601 171.669C70.5773 171.669 69.1279 169.955 69.1279 166.295V160.078H71.9689H71.9713Z" fill="white"/>
<path d="M89.0953 167.401C89.0592 166.106 89.0328 164.584 89.0352 162.798H88.9919C88.665 164.317 88.2156 166.017 87.8743 167.27L86.8239 171.247H84.6007L83.7113 167.284C83.4397 166.058 83.1129 164.371 82.8653 162.8H82.8341C82.774 164.407 82.7187 166.109 82.673 167.403L82.512 171.485H79.8945L80.5483 160.081H84.3747L85.0766 163.152C85.3674 164.422 85.6822 165.932 85.9034 167.33H85.9586C86.2543 165.939 86.6076 164.327 86.9201 163.125L87.7156 160.078H91.4555L91.9867 171.482H89.2275L89.1025 167.401H89.0953Z" fill="white"/>
<path d="M96.8554 160.236C97.4971 160.109 98.8984 159.991 100.208 159.991C101.708 159.991 102.617 160.105 103.443 160.548C104.27 160.963 104.871 161.784 104.871 162.897C104.871 163.857 104.383 164.792 103.15 165.292V165.333C104.448 165.709 105.229 166.746 105.229 168.099C105.229 169.172 104.746 170.016 104.04 170.585C103.242 171.228 101.922 171.608 99.6459 171.608C98.3624 171.608 97.4226 171.519 96.8506 171.422V160.233L96.8554 160.236ZM99.6699 164.47H100.24C101.439 164.47 102.023 164.014 102.023 163.277C102.023 162.608 101.549 162.187 100.598 162.187C100.122 162.187 99.8526 162.216 99.6699 162.255V164.47ZM99.6699 169.339C99.879 169.373 100.122 169.373 100.49 169.373C101.434 169.373 102.242 168.966 102.242 167.965C102.242 166.964 101.42 166.627 100.353 166.627H99.6723V169.339H99.6699Z" fill="white"/>
<path d="M109.49 168.839L108.892 171.484H105.952L109.031 160.08H112.817L115.982 171.484H112.913L112.235 168.839H109.493H109.49ZM111.843 166.585L111.35 164.535C111.189 163.892 110.988 162.962 110.824 162.288H110.793C110.637 162.962 110.478 163.9 110.324 164.547L109.868 166.585H111.843Z" fill="white"/>
<path d="M117.527 168.445C118.174 168.792 119.217 169.153 120.279 169.153C121.25 169.153 121.731 168.789 121.731 168.212C121.731 167.667 121.255 167.344 120.053 166.906C118.265 166.225 117.073 165.163 117.073 163.466C117.073 161.447 118.654 159.901 121.337 159.901C122.603 159.901 123.51 160.155 124.207 160.485L123.613 162.926C123.156 162.71 122.368 162.385 121.305 162.385C120.44 162.385 119.964 162.727 119.964 163.226C119.964 163.806 120.527 164.038 121.866 164.576C123.779 165.33 124.632 166.428 124.632 168.016C124.632 169.986 123.207 171.661 120.109 171.661C118.83 171.661 117.59 171.303 116.986 170.968L117.525 168.447L117.527 168.445Z" fill="white"/>
<path d="M132.826 166.884H129.012V168.986H133.276V171.482H126.171V160.078H133.055V162.575H129.012V164.414H132.826V166.884Z" fill="white"/>
<path d="M44.2998 210.344V208.712L45.5545 207.525C47.3956 205.809 48.3233 204.795 48.345 203.797C48.345 203.092 47.9123 202.585 46.9918 202.585C46.2322 202.585 45.5472 202.99 45.0449 203.375L44.3623 201.441C45.0641 200.893 46.2034 200.428 47.4989 200.428C49.6044 200.428 50.8542 201.654 50.8542 203.581C50.8542 205.14 49.8183 206.393 48.7512 207.333L47.8594 208.09V208.119H51.0153V210.339H44.3022L44.2998 210.344Z" fill="white"/>
<path d="M59.024 206.81C59.024 209.326 57.3512 210.499 55.5461 210.499C53.6185 210.499 52.1211 209.183 52.1211 206.931C52.1211 204.679 53.4743 203.264 55.6663 203.264C57.6853 203.264 59.0216 204.728 59.0216 206.81H59.024ZM54.5583 206.878C54.5583 207.915 54.8755 208.708 55.6062 208.708C56.2408 208.708 56.5893 207.99 56.5893 206.878C56.5893 205.92 56.3008 205.055 55.6014 205.055C54.8251 205.055 54.5607 205.974 54.5607 206.878H54.5583Z" fill="white"/>
<path d="M59.6211 208.893L61.2747 206.739C61.6737 206.247 61.9766 205.89 62.3683 205.454V205.422H59.8302V203.416H65.2526V204.928L63.7095 206.952C63.3273 207.429 62.962 207.9 62.563 208.304V208.336H65.3728V210.343H59.6211V208.893Z" fill="white"/>
<path d="M142.139 209.263C142.348 209.199 142.607 209.175 142.855 209.175C143.283 209.175 143.607 209.267 143.833 209.498C144.049 209.721 144.141 210.021 144.141 210.373C144.141 210.947 143.879 211.323 143.441 211.531V211.543C143.761 211.645 143.932 211.963 144.028 212.552C144.129 213.165 144.218 213.548 144.278 213.688H143.768C143.708 213.555 143.622 213.131 143.538 212.578C143.441 211.96 143.252 211.732 142.829 211.732H142.631V213.688H142.139V209.263ZM142.631 211.332H142.843C143.314 211.332 143.634 210.971 143.634 210.436C143.634 209.9 143.429 209.592 142.893 209.587C142.792 209.587 142.696 209.595 142.631 209.614V211.332Z" fill="#333333"/>
<path d="M146.369 211.553H145.277V213.243H146.52V213.689H144.782V209.197H146.441V209.643H145.277V211.122H146.369V211.556V211.553Z" fill="#333333"/>
<path d="M146.97 213.095C147.117 213.192 147.379 213.277 147.595 213.277C148.052 213.277 148.324 212.969 148.324 212.513C148.324 212.099 148.088 211.847 147.747 211.58C147.403 211.333 146.927 210.914 146.927 210.334C146.927 209.656 147.389 209.154 148.081 209.154C148.35 209.154 148.586 209.243 148.689 209.319L148.569 209.757C148.458 209.677 148.276 209.605 148.05 209.605C147.624 209.605 147.42 209.939 147.42 210.247C147.42 210.693 147.646 210.87 148.059 211.17C148.583 211.553 148.816 211.968 148.816 212.465C148.816 213.24 148.288 213.728 147.595 213.728C147.297 213.728 146.985 213.626 146.862 213.531L146.968 213.095H146.97Z" fill="#333333"/>
<path d="M150.991 211.553H149.902V213.243H151.145V213.689H149.407V209.197H151.066V209.643H149.902V211.122H150.991V211.556V211.553Z" fill="#333333"/>
<path d="M152.212 212.341L151.923 213.689H151.442L152.44 209.197H152.99L153.956 213.689H153.466L153.18 212.341H152.214H152.212ZM153.11 211.929L152.882 210.787C152.817 210.47 152.76 210.099 152.707 209.762H152.685C152.635 210.101 152.57 210.487 152.51 210.792L152.281 211.929H153.11Z" fill="#333333"/>
<path d="M154.505 209.263C154.714 209.199 154.974 209.175 155.221 209.175C155.649 209.175 155.973 209.267 156.199 209.498C156.416 209.721 156.507 210.021 156.507 210.373C156.507 210.947 156.245 211.323 155.808 211.531V211.543C156.127 211.645 156.298 211.963 156.394 212.552C156.495 213.165 156.584 213.548 156.644 213.688H156.134C156.074 213.555 155.988 213.131 155.904 212.578C155.808 211.96 155.618 211.732 155.195 211.732H154.998V213.688H154.505V209.263ZM154.998 211.332H155.209C155.68 211.332 156 210.971 156 210.436C156 209.9 155.796 209.592 155.26 209.587C155.159 209.587 155.063 209.595 154.998 209.614V211.332Z" fill="#333333"/>
<path d="M159.048 213.609C158.913 213.682 158.694 213.728 158.423 213.728C157.574 213.728 156.964 213.022 156.964 211.495C156.964 209.723 157.815 209.154 158.505 209.154C158.767 209.154 158.959 209.207 159.045 209.265L158.935 209.704C158.829 209.653 158.723 209.607 158.497 209.607C158.033 209.607 157.485 210.077 157.485 211.444C157.485 212.811 157.976 213.269 158.512 213.269C158.697 213.269 158.863 213.223 158.968 213.175L159.048 213.609Z" fill="#333333"/>
<path d="M160.054 209.195V211.122H161.275V209.195H161.77V213.687H161.275V211.588H160.054V213.687H159.559V209.195H160.054Z" fill="#333333"/>
<path d="M164.052 209.195V212.206C164.052 213.018 164.316 213.289 164.645 213.289C165.013 213.289 165.254 212.998 165.254 212.206V209.195H165.749V212.126C165.749 213.292 165.282 213.74 164.638 213.74C163.994 213.74 163.557 213.299 163.557 212.186V209.195H164.052Z" fill="#333333"/>
<path d="M166.419 213.095C166.565 213.192 166.827 213.277 167.044 213.277C167.5 213.277 167.772 212.969 167.772 212.513C167.772 212.099 167.536 211.847 167.195 211.58C166.851 211.333 166.375 210.914 166.375 210.334C166.375 209.656 166.837 209.154 167.529 209.154C167.798 209.154 168.034 209.243 168.137 209.319L168.017 209.757C167.907 209.677 167.724 209.605 167.498 209.605C167.072 209.605 166.868 209.939 166.868 210.247C166.868 210.693 167.094 210.87 167.508 211.17C168.031 211.553 168.265 211.968 168.265 212.465C168.265 213.24 167.736 213.728 167.044 213.728C166.746 213.728 166.433 213.626 166.311 213.531L166.416 213.095H166.419Z" fill="#333333"/>
<path d="M170.439 211.553H169.348V213.243H170.59V213.689H168.853V209.197H170.511V209.643H169.348V211.122H170.439V211.556V211.553Z" fill="#333333"/>
<path d="M174.439 211.413C174.439 213.093 173.881 213.742 173.177 213.742C172.473 213.742 171.968 212.947 171.968 211.439C171.968 209.932 172.487 209.144 173.246 209.144C174.006 209.144 174.436 209.978 174.436 211.413H174.439ZM172.487 211.442C172.487 212.365 172.66 213.291 173.215 213.291C173.77 213.291 173.924 212.31 173.924 211.427C173.924 210.545 173.775 209.592 173.21 209.592C172.646 209.592 172.489 210.53 172.489 211.442H172.487Z" fill="#333333"/>
<path d="M175.04 213.689V209.197H175.509L176.307 211.304C176.489 211.786 176.713 212.38 176.864 212.867H176.876C176.838 212.159 176.816 211.58 176.816 210.804V209.197H177.263V213.689H176.795L175.968 211.529C175.792 211.076 175.605 210.567 175.451 210.004H175.439C175.477 210.606 175.487 211.175 175.487 212.135V213.691H175.04V213.689Z" fill="#333333"/>
<path d="M178.045 209.195H178.541V213.253H179.764V213.687H178.043V209.195H178.045Z" fill="#333333"/>
<path d="M180.398 213.689V211.788L179.437 209.197H179.965L180.35 210.322C180.458 210.635 180.576 210.989 180.672 211.338H180.684C180.773 210.991 180.888 210.649 181.001 210.303L181.371 209.197H181.891L180.891 211.767V213.689H180.396H180.398Z" fill="#333333"/>
<path d="M187.064 123.549V230.601C187.064 232.283 186.588 232.436 183.915 232.436C183.802 232.436 153.106 232.654 131.078 232.872C125.706 232.925 119.873 232.949 113.547 232.949C106.418 232.949 99.9065 232.918 93.965 232.852H36.8906V226.563C36.8906 226.563 37.0348 229.624 39.7052 229.624C47.048 229.624 178.904 229.258 178.908 229.258C184.249 229.258 184.126 228.921 184.126 220.168V124.563C184.126 122.88 183.915 123.215 178.908 123.215H37.0372L38.0395 120.871H184.307C185.792 120.871 187.011 122.056 187.064 123.552V123.549Z" fill="#3D9BE9"/>
<path d="M186.92 157.103H184.127V174.246H186.92V157.103Z" fill="#333333"/>
<path d="M184.269 233.391H39.5877C37.7682 233.391 36.29 231.898 36.29 230.066V123.587C36.29 121.752 37.7706 120.261 39.5877 120.261H184.269C186.088 120.261 187.566 121.754 187.566 123.587V230.066C187.566 231.901 186.086 233.391 184.269 233.391ZM39.5877 121.471C38.4316 121.471 37.4918 122.418 37.4918 123.584V230.064C37.4918 231.229 38.4316 232.177 39.5877 232.177H184.269C185.425 232.177 186.364 231.229 186.364 230.064V123.584C186.364 122.418 185.425 121.471 184.269 121.471H39.5877Z" fill="#333333"/>
<path d="M187.19 218.75H36.4375V127.992H187.19V218.75ZM37.6393 217.538H185.988V129.204H37.6393V217.538Z" fill="#333333"/>
<path d="M187.43 104.47V117.302C187.43 119.26 185.851 120.853 183.904 120.853H40.151C38.2041 120.853 36.625 119.26 36.625 117.302V104.47C36.625 102.33 38.3219 100.594 40.413 100.594H183.637C185.726 100.594 187.425 102.327 187.425 104.47H187.43Z" fill="white"/>
<path d="M187.43 104.47V117.302C187.43 119.261 185.851 120.853 183.904 120.853H40.151C38.2041 120.853 36.625 119.261 36.625 117.302V116.061C36.625 118.163 37.3701 118.5 44.0447 118.5H180.575C184.916 118.5 184.582 117.489 184.582 108.399C184.582 103.351 184.582 100.597 181.832 100.597H183.637C185.726 100.597 187.425 102.33 187.425 104.473L187.43 104.47Z" fill="#3D9BE9"/>
<path d="M183.904 121.462H40.1508C37.8771 121.462 36.0264 119.596 36.0264 117.303V104.471C36.0264 102.001 37.9949 99.9917 40.4152 99.9917H183.637C186.058 99.9917 188.026 102.001 188.026 104.471V117.303C188.026 119.596 186.175 121.462 183.902 121.462H183.904ZM40.4152 101.204C38.6582 101.204 37.2281 102.67 37.2281 104.471V117.303C37.2281 118.929 38.5381 120.25 40.1508 120.25H183.904C185.514 120.25 186.827 118.929 186.827 117.303V104.471C186.827 102.67 185.397 101.204 183.64 101.204H40.4152Z" fill="#333333"/>
<path d="M223.032 100.589V107.982C223.032 112.587 222.071 113.314 216.951 117.798C210.671 123.3 209.048 125.191 209.048 134.998L208.921 223.763C208.916 226.97 211.666 229.569 215.06 229.569H276.479C279.873 229.569 282.63 226.97 282.633 223.763C282.633 219.721 282.883 142.027 282.883 134.644C282.883 124.837 281.01 123.3 274.727 117.798C269.608 113.314 268.646 112.587 268.646 107.982V100.589H223.034H223.032Z" fill="#DCF0FF"/>
<path d="M282.76 131.372L282.631 223.764C282.626 226.971 279.871 229.569 276.478 229.569H215.058C211.664 229.569 208.914 226.971 208.919 223.764L208.929 217.234C208.919 223.805 209.539 225.921 225.477 225.921H270.961C279.516 225.921 277.876 224.981 277.893 211.575L278.006 131.37C278.006 126.037 276.838 123.209 270.065 118.199C263.292 113.189 264.013 110.525 264.013 107.131C264.013 103.738 264.013 103.253 255.12 103.253H223.033V100.345H268.791V109.822C268.791 114.161 276.074 117.956 279.9 122.753C282.52 126.04 282.76 128.464 282.76 131.372Z" fill="#3D9BE9"/>
<path d="M213.409 94.6656L213.419 86.5337H278.194L278.184 94.6802C278.18 97.9451 275.464 100.592 272.113 100.592H219.481C216.125 100.592 213.404 97.9378 213.409 94.6656Z" fill="#3D9BE9"/>
<path d="M278.755 72.8311H213.619C212.521 72.8311 211.627 73.837 211.627 75.078L211.617 83.9395C211.617 85.178 212.507 86.1864 213.605 86.1864H278.741C279.839 86.1864 280.733 85.1805 280.733 83.9395L280.743 75.078C280.743 73.8394 279.854 72.8311 278.755 72.8311Z" fill="white"/>
<path d="M280.745 75.078L280.735 83.9395C280.735 85.178 279.841 86.1864 278.743 86.1864H213.607C212.508 86.1864 211.617 85.1805 211.619 83.9395V81.3508C211.708 83.8619 213.22 83.6486 234.224 83.6486H272.64C277.543 83.6486 277.43 84.1819 277.438 78.0399C277.442 73.5 275.897 72.8311 275.897 72.8311H278.76C279.858 72.8311 280.75 73.837 280.747 75.078H280.745Z" fill="#3D9BE9"/>
<path d="M282.447 136.704H209.142V211.378H282.445V136.704H282.447Z" fill="white"/>
<path d="M282.447 136.704H277.955L277.825 211.254H282.445V136.704H282.447Z" fill="#3D9BE9"/>
<path d="M276.476 230.174H215.056C213.205 230.174 211.415 229.44 210.146 228.158C208.963 226.965 208.314 225.402 208.316 223.761L208.444 134.995C208.444 124.893 210.258 122.852 216.556 117.34L216.921 117.02C221.697 112.839 222.43 112.197 222.43 107.982V99.9829H269.244V107.982C269.244 112.199 269.977 112.841 274.753 117.02L275.31 117.507C281.42 122.857 283.477 124.66 283.477 134.641C283.477 138.886 283.396 165.889 283.324 189.713C283.271 207.061 283.227 222.043 283.227 223.761C283.223 227.295 280.192 230.172 276.473 230.172L276.476 230.174ZM223.632 101.195V107.982C223.632 112.752 222.495 113.748 217.707 117.936L217.342 118.256C211.242 123.598 209.646 125.394 209.646 134.998L209.518 223.763C209.518 225.08 210.042 226.338 210.996 227.302C212.042 228.357 213.52 228.963 215.056 228.963H276.476C279.533 228.963 282.026 226.631 282.028 223.763C282.028 222.043 282.074 207.061 282.124 189.713C282.196 165.889 282.278 138.886 282.278 134.644C282.278 125.215 280.636 123.775 274.524 118.423L273.967 117.936C269.181 113.748 268.042 112.752 268.042 107.982V101.195H223.632Z" fill="#333333"/>
<path d="M283.044 211.984H208.537V135.977H283.047V211.984H283.044ZM209.739 210.772H281.843V137.189H209.741V210.772H209.739Z" fill="#333333"/>
<path d="M272.115 101.195H219.483C217.661 101.195 215.957 100.49 214.69 99.2101C213.476 97.9836 212.811 96.3693 212.811 94.6629L212.823 85.9541H278.8L278.788 94.6799C278.783 98.272 275.79 101.195 272.115 101.195ZM214.022 87.166L214.012 94.6629C214.012 96.0445 214.553 97.3559 215.539 98.3521C216.579 99.404 217.981 99.9833 219.48 99.9833H272.113C275.125 99.9833 277.579 97.6031 277.583 94.6775L277.593 87.166H214.02H214.022Z" fill="#333333"/>
<path d="M278.739 86.7899H213.603C212.952 86.7899 212.332 86.5233 211.853 86.041C211.32 85.5029 211.015 84.7345 211.015 83.937L211.024 75.0755C211.024 73.5025 212.19 72.2251 213.618 72.2251H278.754C279.402 72.2251 280.025 72.4917 280.503 72.974C281.037 73.5121 281.342 74.2805 281.342 75.078L281.333 83.9395C281.333 85.5125 280.167 86.7899 278.739 86.7899ZM213.618 73.437C212.851 73.437 212.226 74.1739 212.226 75.078L212.216 83.9395C212.216 84.417 212.394 84.8727 212.704 85.1854C212.957 85.4399 213.276 85.578 213.603 85.578H278.739C279.506 85.578 280.131 84.8411 280.131 83.937L280.14 75.0755C280.14 74.598 279.963 74.1423 279.652 73.8296C279.4 73.5751 279.08 73.437 278.754 73.437H213.618Z" fill="#333333"/>
<path d="M213.409 94.0594C213.409 96.7111 215.462 98.1654 222.913 98.1654H270.743C274.348 98.1654 275.819 95.7416 275.819 93.5601V88.2277H213.419V86.5601H278.196V93.5601C278.196 97.4383 276.37 100.589 272.115 100.589H220.511C215.464 100.589 214.262 97.923 213.782 96.9535C213.301 95.984 213.411 94.0594 213.411 94.0594H213.409Z" fill="#333333"/>
<path d="M215.822 89.1968H214.62V95.7411H215.822V89.1968Z" fill="white"/>
<path d="M211.616 213.203H210.414V221.342H211.616V213.203Z" fill="white"/>
<path d="M211.616 133.882H210.414C210.414 128.591 211.546 124.924 217.738 119.565L217.774 119.533C224.037 114.109 224.842 113.41 224.842 107.45H226.044C226.044 113.968 224.9 114.959 218.557 120.454L218.521 120.486C212.113 126.036 211.618 129.541 211.618 133.885L211.616 133.882Z" fill="white"/>
<path d="M215.259 102.311V231.429C215.259 236.262 211.375 240.179 206.582 240.179H118.851C114.058 240.179 110.174 236.262 110.174 231.429V102.311C110.174 94.3826 113.56 86.8396 119.466 81.609L134.959 67.8852C136.307 66.6902 137.079 64.9693 137.079 63.1587V28.6045H188.349V63.1587C188.349 64.9693 189.123 66.6902 190.469 67.8852L205.962 81.609C211.867 86.8396 215.254 94.385 215.254 102.311H215.259Z" fill="white"/>
<path d="M179.785 39.6028C184.265 39.6028 183.537 37.402 183.537 34.8352C183.537 32.2683 183.174 32.6343 166.447 32.6343H137.081V29.207H188.351V39.6004H179.785V39.6028Z" fill="#3D9BE9"/>
<path d="M110.479 98.2092C110.479 98.2092 109.873 96.0737 115.069 94.9733C120.268 93.8705 133.98 91.803 146.94 93.57C159.9 95.3369 165.524 95.1988 168.711 94.5346C171.899 93.8705 179.458 93.4827 196.585 92.9446C213.715 92.4065 213.554 92.7386 214.362 95.3224C215.169 97.9062 215.256 102.213 215.256 115.094V226.978C215.256 239.446 210.427 240.178 204.615 240.178H119.437C114.81 240.178 110.171 237.267 110.171 230.107C110.171 222.947 110.476 98.2116 110.476 98.2116L110.479 98.2092Z" fill="#DCF0FF"/>
<path d="M110.251 229.053C110.251 236.511 115.906 234.678 147.905 234.678H201.672C210.808 234.678 210.082 229.911 210.082 213.412V107.441C210.082 93.1407 206.082 87.275 194.084 78.1057C182.085 68.9387 183.539 68.9387 183.539 59.0373C183.539 49.1359 179.903 50.6048 159.54 50.6048H137.084V46.9375H188.354V62.3386C188.354 65.6398 188.895 66.636 195.127 72.0048C201.357 77.3736 209.118 82.9969 212.146 89.534C215.175 96.0735 215.261 97.7266 215.261 108.634V229.913C215.261 235.781 212.178 240.18 206.585 240.18H118.817C115.909 240.18 111.767 238.506 110.566 234.026C109.364 229.547 110.253 229.055 110.253 229.055L110.251 229.053Z" fill="#3D9BE9"/>
<path d="M206.581 240.784H118.85C113.735 240.784 109.572 236.589 109.572 231.428V102.31C109.572 94.21 113.033 86.4973 119.069 81.1528L134.562 67.429C135.78 66.3504 136.48 64.7943 136.48 63.1582V27.998H188.951V63.1582C188.951 64.7943 189.651 66.3504 190.869 67.429L206.363 81.1528C212.398 86.4973 215.859 94.21 215.859 102.31V231.428C215.859 236.586 211.699 240.784 206.581 240.784ZM137.682 29.21V63.1582C137.682 65.1409 136.833 67.0315 135.355 68.3404L119.862 82.0641C114.086 87.1809 110.774 94.559 110.774 102.313V231.431C110.774 235.922 114.396 239.575 118.85 239.575H206.581C211.035 239.575 214.657 235.922 214.657 231.431V102.313C214.657 94.5615 211.345 87.1809 205.57 82.0641L190.076 68.3404C188.598 67.0315 187.75 65.1433 187.75 63.1582V29.21H137.682Z" fill="#333333"/>
<path d="M215.256 114.773H110.174V218.911H215.256V114.773Z" fill="white"/>
<path d="M215.259 114.773V218.911H210.096C210.092 217.244 210.082 215.414 210.082 213.412V114.773H215.259Z" fill="#3D9BE9"/>
<path d="M215.86 219.517H109.575V114.167H215.86V219.517ZM110.777 218.305H214.658V115.379H110.777V218.305Z" fill="#333333"/>
<path d="M195.988 39.603H129.446V46.9376H195.988V39.603Z" fill="white"/>
<path d="M129.446 43.6363C129.446 45.4687 158.813 43.6363 176.265 43.6363C193.717 43.6363 192.628 44.7367 192.628 42.1699C192.628 39.603 190.648 39.603 190.648 39.603H195.988V46.9376H129.446V43.6363Z" fill="#3D9BE9"/>
<path d="M196.588 47.544H128.845V38.9976H196.588V47.544ZM130.046 46.3321H195.387V40.2095H130.046V46.3321Z" fill="#333333"/>
<path d="M193.26 17.6025H132.174V28.6019H193.26V17.6025Z" fill="white"/>
<path d="M193.861 29.2074H131.573V16.9961H193.861V29.2074ZM132.775 27.9955H192.659V18.208H132.775V27.9955Z" fill="#333333"/>
<path d="M195.514 13.6802V27.5761C195.514 28.8583 194.418 29.8956 193.065 29.8956H132.366C131.013 29.8956 129.917 28.8558 129.917 27.5761V13.6802H195.514Z" fill="#3D9BE9"/>
<path d="M195.514 13.6802V25.7485C195.514 28.039 193.553 29.8956 191.135 29.8956H134.296C131.878 29.8956 129.917 28.0366 129.917 25.7485V24.6335C129.917 26.6574 132.674 26.7374 136.447 26.7374H175.341C188.114 26.7374 190.436 27.2876 190.436 25.3631V22.0643C190.436 19.5895 190.145 17.9413 187.806 17.9413C185.468 17.9413 186.953 17.6674 158.507 17.6674C130.061 17.6674 129.917 16.2931 129.917 22.1782V13.6826H195.514V13.6802Z" fill="#333333"/>
<path d="M192.859 30.5844H132.571C130.704 30.5844 129.189 29.1519 129.189 27.3825V12.9922H196.239V27.3825C196.239 29.1495 194.724 30.5844 192.857 30.5844H192.859ZM130.641 14.3665V27.3825C130.641 28.3909 131.504 29.2101 132.571 29.2101H192.859C193.924 29.2101 194.789 28.3933 194.789 27.3825V14.3665H130.641Z" fill="#333333"/>
<path d="M134.706 21.3309C134.706 19.8499 132.675 18.8562 132.675 22.4313C132.675 26.0065 134.706 26.8282 134.706 21.3309Z" fill="white"/>
<path d="M200.263 2.84982V11.5175C200.263 12.7294 199.294 13.7134 198.099 13.7134H127.332C126.14 13.7134 125.169 12.7294 125.169 11.5175V2.84982C125.169 1.6379 126.138 0.653809 127.332 0.653809H198.099C199.292 0.653809 200.263 1.6379 200.263 2.84982Z" fill="white"/>
<path d="M200.263 2.85081V11.5185C200.263 12.7328 199.294 13.7144 198.099 13.7144H127.332C126.138 13.7144 125.169 12.7304 125.169 11.5185V8.98793C125.267 11.4433 126.907 11.2348 149.728 11.2348H191.463C196.79 11.2348 196.669 11.7584 196.669 5.74971C196.669 1.30924 194.989 0.657227 194.989 0.657227H198.099C199.294 0.657227 200.263 1.64132 200.263 2.85324V2.85081Z" fill="#3D9BE9"/>
<path d="M198.099 14.3661H127.332C125.784 14.3661 124.524 13.0863 124.524 11.5157V2.85044C124.524 1.27979 125.784 0 127.332 0H198.099C199.647 0 200.906 1.27979 200.906 2.85044V11.5157C200.906 13.0863 199.647 14.3661 198.099 14.3661ZM127.332 1.30642C126.493 1.30642 125.81 1.99967 125.81 2.85044V11.5157C125.81 12.3664 126.493 13.0596 127.332 13.0596H198.099C198.938 13.0596 199.621 12.3664 199.621 11.5157V2.85044C199.621 1.99967 198.938 1.30642 198.099 1.30642H127.332Z" fill="#333333"/>
<path d="M211.621 141.174H113.809V192.508H211.621V141.174Z" fill="#3D9BE9"/>
<path d="M211.621 141.174H210.08V192.508H211.621V141.174Z" fill="#333333"/>
<path d="M118.177 151.887C118.821 151.72 119.674 151.647 120.573 151.647C121.587 151.647 122.568 151.795 123.325 152.537C123.904 153.092 124.145 153.928 124.145 154.798C124.145 155.911 123.645 156.987 122.585 157.525V157.6C123.839 158.008 124.5 159.195 124.5 160.587C124.5 161.607 124.212 162.421 123.695 163.035C123.051 163.851 121.958 164.295 120.14 164.295C119.335 164.295 118.66 164.239 118.177 164.147V151.892V151.887ZM120.285 156.837H120.734C121.491 156.837 122.07 156.095 122.07 155.075C122.07 154.166 121.7 153.46 120.847 153.46C120.607 153.46 120.412 153.48 120.285 153.536V156.837ZM120.285 162.38C120.414 162.417 120.573 162.417 120.751 162.417C121.621 162.417 122.311 161.803 122.311 160.543C122.311 159.283 121.571 158.633 120.734 158.633H120.285V162.378V162.38Z" fill="white"/>
<path d="M127.669 161.343L127.186 164.198H125.143L127.491 151.701H130.017L132.125 164.198H130.082L129.616 161.343H127.669ZM129.423 159.452L129.07 156.837C128.957 156.078 128.813 154.815 128.717 154.001H128.669C128.556 154.835 128.395 156.114 128.282 156.837L127.88 159.452H129.426H129.423Z" fill="white"/>
<path d="M138.255 164.014C137.95 164.181 137.354 164.31 136.63 164.31C133.847 164.31 132.527 161.694 132.527 158.136C132.527 153.427 134.796 151.592 136.904 151.592C137.644 151.592 138.159 151.759 138.368 151.926L138.015 153.965C137.774 153.834 137.5 153.725 137.034 153.725C135.844 153.725 134.765 154.91 134.765 158.008C134.765 161.105 135.746 162.16 137.034 162.16C137.387 162.16 137.791 162.068 138.048 161.976L138.257 164.014H138.255Z" fill="white"/>
<path d="M140.974 153.945H139.059V151.701H145.012V153.945H143.082V164.198H140.974V153.945Z" fill="white"/>
<path d="M150.691 158.71H148.23V162.084H151.013V164.198H146.122V151.701H150.835V153.814H148.23V156.689H150.691V158.71Z" fill="white"/>
<path d="M152.461 151.887C153.12 151.74 153.959 151.647 154.762 151.647C155.92 151.647 156.966 151.851 157.658 152.576C158.316 153.262 158.526 154.096 158.526 155.172C158.526 156.507 157.946 157.712 156.853 158.286V158.323C157.593 158.674 157.963 159.455 158.172 160.807C158.381 162.198 158.672 163.738 158.864 164.201H156.66C156.516 163.849 156.273 162.586 156.112 161.197C155.92 159.658 155.581 159.212 154.889 159.212H154.567V164.201H152.459V151.89L152.461 151.887ZM154.569 157.339H154.956C155.874 157.339 156.389 156.485 156.389 155.392C156.389 154.299 156.019 153.574 155.086 153.538C154.894 153.538 154.685 153.557 154.572 153.613V157.341L154.569 157.339Z" fill="white"/>
<path d="M162.13 151.701V164.198H160.022V151.701H162.13Z" fill="white"/>
<path d="M170.415 157.727C170.415 162.436 168.968 164.346 166.908 164.346C164.447 164.346 163.48 161.343 163.48 157.913C163.48 154.484 164.656 151.553 167.069 151.553C169.674 151.553 170.415 154.871 170.415 157.727ZM165.668 157.95C165.668 160.786 166.134 162.233 166.987 162.233C167.889 162.233 168.225 160.378 168.225 157.838C168.225 155.649 167.934 153.667 166.97 153.667C166.134 153.667 165.668 155.262 165.668 157.95Z" fill="white"/>
<path d="M171.509 161.714C171.944 161.992 172.699 162.196 173.295 162.196C174.276 162.196 174.776 161.602 174.776 160.788C174.776 159.879 174.293 159.435 173.377 158.749C171.896 157.712 171.334 156.396 171.334 155.264C171.334 153.262 172.492 151.592 174.745 151.592C175.468 151.592 176.143 151.815 176.451 152.038L176.112 154.132C175.807 153.909 175.341 153.705 174.745 153.705C173.843 153.705 173.408 154.336 173.408 155.002C173.408 155.744 173.73 156.134 174.889 156.949C176.336 157.95 176.852 159.21 176.852 160.526C176.852 162.807 175.389 164.307 173.281 164.307C172.413 164.307 171.574 164.048 171.204 163.805L171.509 161.711V161.714Z" fill="white"/>
<path d="M179.264 153.945H177.349V151.701H183.302V153.945H181.372V164.198H179.264V153.945Z" fill="white"/>
<path d="M185.586 161.343L185.103 164.198H183.06L185.408 151.701H187.934L190.042 164.198H187.999L187.533 161.343H185.586ZM187.34 159.452L186.987 156.837C186.874 156.078 186.73 154.815 186.634 154.001H186.586C186.473 154.835 186.312 156.114 186.199 156.837L185.797 159.452H187.343H187.34Z" fill="white"/>
<path d="M191.605 153.945H189.689V151.701H195.643V153.945H193.713V164.198H191.605V153.945Z" fill="white"/>
<path d="M198.861 151.701V164.198H196.753V151.701H198.861Z" fill="white"/>
<path d="M205.941 164.014C205.636 164.181 205.04 164.31 204.317 164.31C201.533 164.31 200.214 161.694 200.214 158.136C200.214 153.427 202.483 151.592 204.591 151.592C205.331 151.592 205.845 151.759 206.054 151.926L205.701 153.965C205.461 153.834 205.187 153.725 204.72 153.725C203.531 153.725 202.452 154.91 202.452 158.008C202.452 161.105 203.432 162.16 204.72 162.16C205.074 162.16 205.478 162.068 205.735 161.976L205.944 164.014H205.941Z" fill="white"/>
<path d="M119.304 182.74L117.453 170.243H119.64L120.172 175.231C120.316 176.659 120.412 178.086 120.542 179.606H120.59C120.734 178.067 120.977 176.714 121.2 175.212L121.972 170.243H123.678L124.402 175.175C124.594 176.583 124.789 177.975 124.916 179.606H124.947C125.092 177.975 125.221 176.639 125.366 175.192L125.897 170.243H127.957L126.041 182.74H123.868L123.224 178.641C123.046 177.492 122.885 176.065 122.741 174.545H122.71C122.517 176.048 122.34 177.437 122.114 178.661L121.39 182.74H119.299H119.304Z" fill="white"/>
<path d="M130.564 179.885L130.081 182.74H128.038L130.386 170.243H132.912L135.02 182.74H132.977L132.511 179.885H130.564ZM132.319 177.994L131.965 175.379C131.852 174.62 131.708 173.357 131.612 172.543H131.564C131.451 173.377 131.29 174.656 131.177 175.379L130.776 177.994H132.321H132.319Z" fill="white"/>
<path d="M136.583 172.487H134.667V170.243H140.621V172.487H138.691V182.74H136.583V172.487Z" fill="white"/>
<path d="M146.302 177.252H143.84V180.626H146.624V182.74H141.732V170.243H146.446V172.356H143.84V175.231H146.302V177.252Z" fill="white"/>
<path d="M148.07 170.43C148.728 170.282 149.567 170.19 150.37 170.19C151.528 170.19 152.574 170.394 153.266 171.118C153.925 171.804 154.134 172.638 154.134 173.714C154.134 175.05 153.555 176.254 152.461 176.829V176.865C153.201 177.217 153.571 177.997 153.781 179.35C153.99 180.741 154.281 182.28 154.473 182.743H152.269C152.125 182.392 151.882 181.129 151.721 179.74C151.528 178.201 151.19 177.755 150.497 177.755H150.175V182.743H148.067V170.432L148.07 170.43ZM150.178 175.881H150.565C151.483 175.881 151.997 175.028 151.997 173.935C151.997 172.842 151.627 172.117 150.694 172.081C150.502 172.081 150.293 172.1 150.18 172.156V175.884L150.178 175.881Z" fill="white"/>
<path d="M197.037 98.0854C188.56 98.0854 176.804 97.5109 161.282 95.5743C123.818 90.8963 111.221 96.7741 111.099 96.8323L110.572 95.744C111.082 95.4919 123.51 89.6383 161.431 94.3721C199.02 99.0646 214.314 95.7318 214.465 95.6979L214.732 96.8808C214.643 96.9001 209.23 98.0878 197.039 98.0878L197.037 98.0854Z" fill="#333333"/>
<path d="M162.78 95.7421L162.652 94.5374C192.983 91.2531 213.535 92.5304 213.74 92.5426L213.663 93.7521C213.461 93.7376 192.999 92.4699 162.78 95.7421Z" fill="#333333"/>
<path d="M116.269 100.839C113.442 108.441 115.365 113.182 118.18 108.843C120.994 104.504 118.451 94.9714 116.269 100.839Z" fill="white"/>
<path d="M115.178 223.676C112.358 232.203 116.632 235.044 118.086 228.81C119.54 222.576 116.632 219.277 115.178 223.676Z" fill="white"/>
<path d="M46.0383 243.385C46.0383 243.385 224.454 248.491 227.553 248.58C230.655 248.668 230.45 247.46 230.516 245.053C230.584 242.648 230.719 237.837 230.807 234.709C230.895 231.581 229.456 231.794 226.594 231.712C223.732 231.63 46.5091 226.557 46.5091 226.557L46.0361 243.382L46.0383 243.385Z" fill="white"/>
<path d="M48.1552 226.605C47.1697 236.184 46.2129 239.369 61.3776 240.093C76.5423 240.816 222.308 245.931 226.375 245.734C230.757 245.521 230.598 238.95 230.598 238.95C230.598 238.95 231.454 247.584 229.624 248.183C227.794 248.784 214.89 248.216 214.89 248.216L186.756 247.411L110.748 245.235L47.6185 243.427L46.2393 243.387L46.3316 235.516L46.666 226.483L48.1552 226.603V226.605Z" fill="#3D9BE9"/>
<path d="M210.31 233.642C210.086 241.579 210.013 244.226 209.971 245.67C209.93 247.114 210.653 246.892 214.947 247.016C217.81 247.097 219.252 246.737 219.274 245.936C219.307 244.734 219.54 244.98 222.402 245.062C224.071 245.111 224.309 245.117 224.269 246.559C224.236 247.761 226.509 247.586 227.582 247.617C228.656 247.648 229.052 246.404 229.219 240.417C229.388 234.43 229.186 232.979 227.994 232.946C226.801 232.912 224.661 232.608 224.628 233.813C224.595 235.015 224.355 235.009 222.448 234.953C219.586 234.871 219.347 234.864 219.382 233.662C219.408 232.699 219.177 232.453 215.838 232.358C211.067 232.22 210.359 231.961 210.312 233.644L210.31 233.642Z" fill="#3D9BE9"/>
<path d="M213.51 232.238C211.339 232.118 211.673 238.939 211.607 242.26C211.541 245.581 218.441 245.652 218.93 243.884C219.418 242.116 219.013 241.246 221.363 241.198C223.712 241.149 225.144 241.289 225.17 242.584C225.219 244.953 226.818 244.993 228.85 244.829C228.85 244.829 229 247.415 227.718 247.491C226.435 247.566 224.477 247.706 224.473 246.373C224.469 245.04 223.327 244.856 221.866 245.113C220.404 245.37 219.7 244.618 219.288 245.621C218.877 246.624 219.856 247.065 217.493 247.067C215.131 247.067 209.79 247.469 209.878 245.967C209.966 244.463 210.113 235.699 210.294 234.112C210.474 232.526 210.804 232.105 211.871 232.132C212.938 232.158 213.508 232.238 213.508 232.238H213.51Z" fill="#333333"/>
<path d="M227.626 248.175C227.606 248.175 227.587 248.175 227.565 248.175C227.428 248.17 227.27 248.17 227.1 248.17C226.04 248.168 224.72 248.164 224.076 247.492C223.832 247.237 223.709 246.91 223.717 246.547C223.735 245.914 223.68 245.775 223.656 245.744C223.552 245.653 222.93 245.635 222.382 245.619C221.907 245.606 221.507 245.588 221.163 245.573C220.587 245.546 220.037 245.522 219.85 245.568C219.839 245.622 219.824 245.73 219.819 245.954C219.802 246.576 219.782 247.279 218.836 247.514C218.222 247.667 217.191 247.638 214.927 247.574C214.329 247.556 213.801 247.547 213.335 247.536C211.19 247.494 210.301 247.476 209.787 246.93C209.441 246.564 209.406 246.081 209.419 245.657L209.758 233.63C209.773 233.111 209.842 232.576 210.242 232.197C210.84 231.631 211.846 231.666 214.274 231.753C214.743 231.771 215.266 231.788 215.849 231.804C218.968 231.893 219.973 232.059 219.927 233.678C219.916 234.051 219.945 234.153 219.96 234.18C220.119 234.333 221.203 234.364 222.459 234.399C223.189 234.419 223.878 234.439 224.014 234.346C224.023 234.328 224.063 234.224 224.076 233.796C224.087 233.426 224.23 233.102 224.489 232.86C225.154 232.243 226.397 232.308 227.494 232.367C227.677 232.376 227.851 232.387 228.009 232.392C229.83 232.445 229.934 234.519 229.769 240.433C229.606 246.212 229.272 248.175 227.626 248.175ZM220.27 244.433C220.532 244.433 220.842 244.446 221.216 244.464C221.553 244.479 221.949 244.497 222.417 244.51C223.37 244.537 223.895 244.552 224.294 244.839C224.813 245.209 224.839 245.846 224.817 246.58C224.817 246.655 224.833 246.689 224.866 246.722C225.187 247.057 226.434 247.061 227.103 247.064C227.283 247.064 227.45 247.064 227.595 247.068C227.598 247.068 227.602 247.068 227.604 247.068C228.233 247.068 228.532 245.196 228.667 240.404C228.814 235.136 228.653 233.523 227.976 233.503C227.811 233.499 227.628 233.49 227.435 233.479C226.733 233.441 225.556 233.379 225.233 233.681C225.204 233.707 225.176 233.741 225.174 233.831C225.125 235.588 224.278 235.564 222.428 235.511C219.551 235.429 218.777 235.406 218.827 233.65C218.838 233.275 218.821 233.268 218.66 233.202C218.187 233.006 216.958 232.946 215.818 232.915C215.231 232.898 214.705 232.88 214.234 232.862C212.442 232.798 211.258 232.756 210.994 233.006C210.913 233.084 210.867 233.299 210.858 233.661L210.519 245.688C210.51 246.034 210.554 246.134 210.583 246.165C210.783 246.376 211.918 246.398 213.357 246.427C213.825 246.436 214.358 246.447 214.958 246.465C217.037 246.524 218.42 246.564 218.682 246.4C218.709 246.325 218.715 246.103 218.72 245.923C218.733 245.475 218.77 245.049 219.087 244.752C219.353 244.501 219.694 244.435 220.266 244.435L220.27 244.433Z" fill="#333333"/>
<path d="M227.854 249.139C227.751 249.139 227.645 249.139 227.537 249.134C224.436 249.045 46.0225 243.939 46.0225 243.939L46.0533 242.83C46.0533 242.83 224.469 247.936 227.568 248.025C228.613 248.054 229.264 247.93 229.563 247.644C229.917 247.304 229.933 246.557 229.955 245.523C229.959 245.368 229.961 245.206 229.966 245.037L230.256 234.693C230.283 233.719 230.153 233.092 229.856 232.777C229.436 232.331 228.49 232.311 227.181 232.282C226.987 232.277 226.787 232.273 226.578 232.266C223.717 232.184 46.4932 227.111 46.4932 227.111L46.524 226.002C46.524 226.002 223.747 231.075 226.609 231.157C226.816 231.164 227.014 231.168 227.205 231.173C228.78 231.208 229.917 231.233 230.652 232.014C231.176 232.568 231.393 233.404 231.356 234.726L231.066 245.07C231.061 245.234 231.057 245.394 231.055 245.547C231.028 246.801 231.009 247.79 230.322 248.447C229.827 248.921 229.06 249.139 227.854 249.139Z" fill="#333333"/>
<path d="M79.8273 227.454L79.5762 236.341L80.6756 236.373L80.9267 227.486L79.8273 227.454Z" fill="#333333"/>
<path d="M95.3299 227.9L95.0791 236.787L96.1785 236.819L96.4293 227.931L95.3299 227.9Z" fill="#333333"/>
<path d="M82.9296 227.543L82.8281 231.138L83.9275 231.169L84.029 227.575L82.9296 227.543Z" fill="#333333"/>
<path d="M86.0301 227.632L85.9287 231.226L87.0281 231.258L87.1295 227.663L86.0301 227.632Z" fill="#333333"/>
<path d="M89.1307 227.723L89.0293 231.317L90.1287 231.348L90.2301 227.754L89.1307 227.723Z" fill="#333333"/>
<path d="M92.2313 227.811L92.1299 231.405L93.2293 231.437L93.3307 227.842L92.2313 227.811Z" fill="#333333"/>
<path d="M110.357 228.329L110.106 237.216L111.206 237.247L111.457 228.36L110.357 228.329Z" fill="#333333"/>
<path d="M97.9569 227.975L97.8555 231.569L98.9549 231.601L99.0563 228.007L97.9569 227.975Z" fill="#333333"/>
<path d="M101.057 228.063L100.955 231.657L102.054 231.689L102.156 228.094L101.057 228.063Z" fill="#333333"/>
<path d="M104.156 228.152L104.055 231.746L105.154 231.778L105.256 228.183L104.156 228.152Z" fill="#333333"/>
<path d="M107.258 228.242L107.156 231.836L108.256 231.867L108.357 228.273L107.258 228.242Z" fill="#333333"/>
<path d="M125.619 228.764L125.368 237.651L126.468 237.682L126.718 228.795L125.619 228.764Z" fill="#333333"/>
<path d="M113.221 228.411L113.119 232.005L114.219 232.037L114.32 228.443L113.221 228.411Z" fill="#333333"/>
<path d="M116.321 228.499L116.22 232.093L117.319 232.125L117.421 228.53L116.321 228.499Z" fill="#333333"/>
<path d="M119.42 228.589L119.318 232.184L120.418 232.215L120.519 228.621L119.42 228.589Z" fill="#333333"/>
<path d="M122.521 228.677L122.42 232.271L123.519 232.303L123.621 228.709L122.521 228.677Z" fill="#333333"/>
<path d="M140.647 229.195L140.396 238.083L141.496 238.114L141.747 229.227L140.647 229.195Z" fill="#333333"/>
<path d="M128.243 228.842L128.142 232.437L129.241 232.468L129.342 228.874L128.243 228.842Z" fill="#333333"/>
<path d="M131.346 228.93L131.244 232.524L132.344 232.555L132.445 228.961L131.346 228.93Z" fill="#333333"/>
<path d="M134.444 229.017L134.343 232.612L135.442 232.643L135.544 229.049L134.444 229.017Z" fill="#333333"/>
<path d="M137.546 229.108L137.444 232.702L138.544 232.734L138.645 229.139L137.546 229.108Z" fill="#333333"/>
<path d="M156.149 229.64L155.898 238.527L156.998 238.558L157.249 229.671L156.149 229.64Z" fill="#333333"/>
<path d="M143.748 229.285L143.646 232.879L144.746 232.91L144.847 229.316L143.748 229.285Z" fill="#333333"/>
<path d="M146.849 229.375L146.748 232.969L147.847 233.001L147.949 229.406L146.849 229.375Z" fill="#333333"/>
<path d="M149.949 229.463L149.848 233.058L150.947 233.089L151.048 229.495L149.949 229.463Z" fill="#333333"/>
<path d="M153.051 229.551L152.949 233.146L154.049 233.177L154.15 229.583L153.051 229.551Z" fill="#333333"/>
<path d="M171.176 230.07L170.925 238.958L172.024 238.989L172.275 230.102L171.176 230.07Z" fill="#333333"/>
<path d="M158.771 229.715L158.67 233.31L159.769 233.341L159.871 229.747L158.771 229.715Z" fill="#333333"/>
<path d="M161.874 229.804L161.772 233.398L162.872 233.429L162.973 229.835L161.874 229.804Z" fill="#333333"/>
<path d="M164.974 229.894L164.873 233.489L165.972 233.52L166.074 229.926L164.974 229.894Z" fill="#333333"/>
<path d="M168.076 229.982L167.975 233.577L169.074 233.608L169.175 230.014L168.076 229.982Z" fill="#333333"/>
<path d="M186.44 230.506L186.189 239.394L187.289 239.425L187.54 230.538L186.44 230.506Z" fill="#333333"/>
<path d="M174.036 230.151L173.935 233.746L175.034 233.777L175.135 230.183L174.036 230.151Z" fill="#333333"/>
<path d="M177.138 230.242L177.036 233.836L178.136 233.867L178.237 230.273L177.138 230.242Z" fill="#333333"/>
<path d="M180.239 230.33L180.138 233.924L181.237 233.956L181.339 230.361L180.239 230.33Z" fill="#333333"/>
<path d="M183.34 230.417L183.238 234.012L184.338 234.043L184.439 230.449L183.34 230.417Z" fill="#333333"/>
<path d="M201.467 230.935L201.216 239.822L202.315 239.854L202.566 230.967L201.467 230.935Z" fill="#333333"/>
<path d="M189.063 230.582L188.962 234.176L190.061 234.208L190.163 230.613L189.063 230.582Z" fill="#333333"/>
<path d="M192.162 230.67L192.061 234.265L193.16 234.296L193.261 230.702L192.162 230.67Z" fill="#333333"/>
<path d="M195.265 230.761L195.163 234.355L196.262 234.387L196.364 230.792L195.265 230.761Z" fill="#333333"/>
<path d="M198.364 230.848L198.263 234.442L199.362 234.474L199.464 230.88L198.364 230.848Z" fill="#333333"/>
<path d="M216.969 231.379L216.718 240.267L217.817 240.298L218.068 231.411L216.969 231.379Z" fill="#333333"/>
<path d="M204.564 231.027L204.463 234.622L205.562 234.653L205.664 231.059L204.564 231.027Z" fill="#333333"/>
<path d="M207.666 231.115L207.564 234.709L208.664 234.741L208.765 231.147L207.666 231.115Z" fill="#333333"/>
<path d="M210.767 231.203L210.666 234.797L211.765 234.829L211.867 231.235L210.767 231.203Z" fill="#333333"/>
<path d="M213.87 231.293L213.769 234.888L214.868 234.919L214.969 231.325L213.87 231.293Z" fill="#333333"/>
<path d="M3.43065 229.588L3.19238 238.007L23.6765 238.593L23.9148 230.174L3.43065 229.588Z" fill="white"/>
<path d="M3.78059 229.609C3.6618 231.158 2.87431 234.002 5.24779 235.029C7.88743 236.171 15.4918 235.818 17.7179 235.772C22.4165 235.674 22.5154 232.444 22.4582 230.075L24.0904 230.122L23.6769 238.536C23.6769 238.536 10.0827 238.163 8.26578 238.172C7.51348 238.176 4.21173 238.793 3.36484 237.779C2.16381 236.344 3.50343 232.939 3.42204 231.107C3.28566 227.981 3.77839 229.609 3.77839 229.609H3.78059Z" fill="#3D9BE9"/>
<path d="M3.1182 229.031L3.08691 230.14L24.0768 230.742L24.1081 229.633L3.1182 229.031Z" fill="#333333"/>
<path d="M2.88191 237.443L2.85059 238.552L23.8404 239.153L23.8718 238.045L2.88191 237.443Z" fill="#333333"/>
<path d="M2.69739 222.711C1.26539 222.671 1.05422 221.702 0.715463 233.727C0.376709 245.754 0.407504 244.661 2.31684 244.716C2.79418 244.73 2.84477 242.937 3.09554 234.035C3.3463 225.136 3.65206 222.738 2.69739 222.709V222.711Z" fill="white"/>
<path d="M2.76939 222.91C1.48697 222.986 1.9841 228.791 1.50897 235.033C1.03603 241.275 1.85432 242.757 2.83538 241.89C2.83538 241.89 3.10155 244.019 2.23927 244.427C1.37478 244.836 0.360722 245.14 0.554295 240.35C0.750069 235.561 0.998635 224.481 1.19221 223.624C1.38578 222.768 2.76939 222.91 2.76939 222.91Z" fill="#3D9BE9"/>
<path d="M1.66366 245.275C1.28532 245.275 0.906967 245.23 0.596809 244.915C-0.129092 244.179 -0.0850979 242.579 0.165668 233.711C0.418633 224.749 0.58801 223.058 1.30731 222.406C1.67466 222.076 2.1014 222.109 2.44456 222.138C2.52815 222.144 2.61613 222.151 2.71072 222.156C2.98128 222.164 3.22105 222.271 3.40363 222.466C4.00635 223.112 3.95355 224.629 3.78198 229.651C3.74018 230.902 3.68959 232.36 3.6412 234.052C3.51581 238.5 3.44102 241.186 3.33544 242.757C3.24525 244.119 3.15946 245.303 2.29718 245.272C2.1476 245.268 2.01122 245.272 1.88803 245.272C1.81324 245.272 1.73625 245.277 1.66146 245.277L1.66366 245.275ZM2.1146 223.229C2.07941 223.229 2.05081 223.229 2.03541 223.236C1.58667 223.611 1.4261 228.019 1.26552 233.742C1.07194 240.603 0.983957 243.735 1.3777 244.134C1.4173 244.174 1.68566 244.168 1.86384 244.163C1.93203 244.163 2.00242 244.161 2.07721 244.159C2.27958 243.367 2.36757 240.259 2.54354 234.019C2.59194 232.324 2.64033 230.865 2.68433 229.613C2.80531 226.093 2.8845 223.731 2.62713 223.263C2.53255 223.258 2.44236 223.251 2.35657 223.245C2.27958 223.238 2.18279 223.231 2.1146 223.231V223.229Z" fill="#333333"/>
<path d="M42.1475 245.926C42.1475 245.926 27.8363 245.516 25.9269 245.462C24.0198 245.407 23.681 244.675 23.9824 233.947C24.2837 223.217 25.1174 223.293 27.7131 223.366C30.3087 223.439 42.7678 223.796 42.7678 223.796L42.1453 245.926H42.1475Z" fill="white"/>
<path d="M26.9179 223.347C25.3782 223.906 24.9712 233.722 25.5541 238.443C26.1415 243.212 34.8479 241.963 37.2235 241.426C41.5174 240.457 40.7959 226.444 40.2371 223.722L43.0132 223.735L42.1575 245.661C42.1575 245.661 37.1949 245.905 31.9311 245.632C26.6672 245.359 24.6633 246.488 24.0737 243.354C23.4842 240.219 24.0935 228.502 24.3619 226.249C24.6303 223.995 26.9201 223.347 26.9201 223.347H26.9179Z" fill="#3D9BE9"/>
<path d="M42.1325 246.48L25.9119 246.016C24.6932 245.98 23.9211 245.608 23.5868 243.809C23.3118 242.327 23.27 239.743 23.435 233.929C23.589 228.465 23.8815 225.794 24.4777 224.401C25.1904 222.737 26.4068 222.771 27.6958 222.808H27.7332L42.788 223.241L42.7572 224.35L27.665 223.917C26.3276 223.88 25.8877 223.911 25.4873 224.842C24.9594 226.078 24.6822 228.72 24.5348 233.962C24.3963 238.871 24.3743 242.023 24.669 243.605C24.9066 244.878 25.2542 244.889 25.9449 244.907L42.1655 245.37L42.1347 246.48H42.1325Z" fill="#333333"/>
<path d="M43.2033 259.343C41.7713 259.303 42.0683 257.264 42.1783 253.292C42.2927 249.316 43.0098 223.828 43.1989 217.094C43.3771 210.687 44.0348 210.392 45.535 210.421C45.612 210.423 45.6912 210.428 45.7726 210.428C46.967 210.461 46.9186 212.145 46.8592 214.241C46.8087 216.053 45.9838 245.359 45.7176 254.811C45.678 256.288 45.6494 257.28 45.6406 257.606C45.5702 260.011 44.6353 259.383 43.2033 259.341V259.343Z" fill="white"/>
<path d="M43.2033 259.343C41.7713 259.303 42.0683 257.264 42.1783 253.292C42.2927 249.316 43.0098 223.828 43.1989 217.094C43.3771 210.687 44.0348 210.392 45.535 210.421L45.5592 210.632C44.1624 211.027 44.235 215.082 43.8523 233.553C43.4717 252.025 42.7832 255.525 45.7154 254.809C45.6758 256.288 45.6472 257.28 45.6384 257.606C45.568 260.011 44.6331 259.383 43.2011 259.341L43.2033 259.343Z" fill="#3D9BE9"/>
<path d="M44.5228 260C44.305 260 44.0829 259.976 43.8629 259.951C43.6451 259.927 43.4207 259.903 43.1876 259.896C42.7476 259.883 42.3891 259.73 42.1207 259.441C41.4366 258.702 41.4872 257.303 41.5796 254.758C41.5972 254.297 41.6148 253.802 41.6302 253.272L42.6487 217.076C42.7454 213.678 42.9742 211.908 43.4383 210.967C44.0059 209.82 44.9121 209.847 45.7876 209.871C47.5298 209.922 47.4704 212.025 47.4088 214.255C47.3494 216.351 46.2562 255.215 46.188 257.62C46.1572 258.685 45.968 259.295 45.5545 259.661C45.2531 259.927 44.8945 259.998 44.5228 259.998V260ZM45.3829 210.976C44.8242 210.976 44.6262 211.054 44.4216 211.466C44.0433 212.229 43.8343 213.971 43.7463 217.112L42.7278 253.308C42.7124 253.84 42.6948 254.339 42.6772 254.803C42.6069 256.748 42.5497 258.285 42.9214 258.685C42.9676 258.734 43.038 258.785 43.2162 258.789C43.4933 258.798 43.7529 258.824 43.9795 258.849C44.3578 258.891 44.7142 258.929 44.8286 258.827C44.8967 258.767 45.0595 258.525 45.0859 257.591C45.1541 255.186 46.2474 216.32 46.3068 214.226C46.3617 212.278 46.3529 211.001 45.7546 210.983C45.6138 210.978 45.4907 210.976 45.3807 210.976H45.3829Z" fill="#333333"/>
<path d="M251.308 241.943L274.933 242.619L281.37 240.596L251.249 239.733L251.308 241.943Z" fill="white"/>
<path d="M251.578 240.985L277.182 241.626L274.593 242.609L251.45 241.843L251.578 240.985Z" fill="#3D9BE9"/>
<path d="M275.008 243.176L251.293 242.497L251.324 241.388L274.856 242.062L278.057 241.055L251.233 240.288L251.264 239.179L284.68 240.135L275.008 243.176Z" fill="#333333"/>
<path d="M240.618 236.779C240.618 236.779 247.694 236.981 249.364 237.03C251.034 237.078 251.463 238.82 251.401 240.985C251.339 243.15 250.345 244.565 248.913 244.525C247.481 244.485 240.488 244.283 240.488 244.283" fill="white"/>
<path d="M241.168 239.001C241.203 241.909 241.1 242.493 245.303 242.628C249.507 242.763 251.515 242.175 251.401 240.984C251.401 240.984 251.533 243.38 250.119 244.192C248.704 245.004 241.601 244.38 241.601 244.38L240.948 244.296L241.122 241.958L240.924 240.179L241.166 239.001H241.168Z" fill="#3D9BE9"/>
<path d="M248.977 245.079C248.95 245.079 248.924 245.079 248.898 245.079L240.473 244.837L240.503 243.728L248.928 243.97C250.026 244.01 250.798 242.796 250.851 240.969C250.882 239.857 250.774 239.003 250.528 238.435C250.279 237.863 249.916 237.601 249.348 237.583L240.602 237.333L240.633 236.224L249.379 236.474C250.374 236.503 251.119 237.027 251.535 237.992C251.852 238.721 251.986 239.706 251.951 241.002C251.883 243.453 250.69 245.081 248.977 245.081V245.079Z" fill="#333333"/>
<path d="M230.794 235.197C233.655 235.279 237.041 235.377 238.926 235.43C240.811 235.483 240.989 237.655 240.888 241.264C240.787 244.873 240.05 245.574 238.38 245.526C236.711 245.477 230.51 245.299 230.51 245.299" fill="white"/>
<path d="M232.401 235.242C232.376 240.503 232.005 242.54 236.488 242.544C240.971 242.549 240.883 241.446 240.883 241.446C240.883 241.446 240.757 244.148 240.133 244.891C239.508 245.634 236.754 245.59 234.614 245.417C232.473 245.244 230.234 245.688 230.32 244.093C230.406 242.5 230.914 235.14 230.914 235.14L232.401 235.242Z" fill="#3D9BE9"/>
<path d="M238.512 246.08C238.463 246.08 238.415 246.08 238.367 246.08L230.496 245.854L230.527 244.745L238.397 244.971C239.422 245.002 240.232 245.025 240.34 241.249C240.384 239.71 240.386 238.148 240.122 237.159C239.851 236.149 239.381 235.998 238.912 235.985L230.78 235.752L230.811 234.643L238.943 234.876C240.085 234.909 240.839 235.579 241.184 236.87C241.468 237.933 241.492 239.401 241.44 241.28C241.352 244.384 240.854 246.083 238.512 246.083V246.08Z" fill="#333333"/>
<path d="M227.872 237.054C228.158 235.135 226.986 234.017 226.845 235.412C226.704 236.807 227.617 238.768 227.872 237.054Z" fill="white"/>
<path d="M217.721 237.337C218.025 234.338 215.634 233.959 214.875 235.172C214.116 236.386 217.44 240.13 217.721 237.337Z" fill="white"/>
<path d="M226.082 248.997C226.082 248.997 273.07 250.398 284.042 250.727C295.014 251.055 294.392 250.711 294.829 249.201C295.359 247.368 295.674 236.545 295.258 234.42C294.856 232.357 284.801 232.788 278.123 232.588C270.967 232.375 226.485 231.046 226.485 231.046C226.485 231.046 227.046 228.167 224.839 228.096C222.633 228.025 223.046 230.234 222.778 239.431C222.512 248.626 221.982 251.51 223.636 251.563C225.288 251.616 225.781 251.102 225.805 250.31C225.829 249.518 226.082 248.997 226.082 248.997Z" fill="#3D9BE9"/>
<path d="M289.881 251.33C288.402 251.33 286.498 251.286 284.027 251.213L226.067 249.483L226.1 248.373L284.06 250.104C289.375 250.263 291.814 250.255 293.066 250.075C294.054 249.933 294.087 249.802 294.229 249.252C294.251 249.163 294.276 249.072 294.304 248.975C294.812 247.218 295.12 236.499 294.722 234.456C294.709 234.385 294.487 233.762 290.963 233.427C288.589 233.2 285.501 233.172 282.516 233.143C280.954 233.127 279.478 233.114 278.112 233.072L226.474 231.53L226.507 230.421L278.145 231.963C279.5 232.003 280.97 232.018 282.527 232.031C290.505 232.109 295.415 232.258 295.802 234.241C296.229 236.428 295.908 247.393 295.36 249.285C295.336 249.372 295.314 249.454 295.294 249.531C294.944 250.882 294.595 251.328 289.883 251.328L289.881 251.33Z" fill="#333333"/>
<path d="M224.253 252.136C224.196 252.136 224.139 252.136 224.079 252.134L223.95 252.129C223.49 252.118 223.015 252.107 222.641 251.71C222.021 251.049 221.928 249.729 222.1 243.857L222.48 230.798C222.504 229.966 222.672 229.199 222.953 228.64C223.323 227.901 223.897 227.513 224.559 227.526C225.263 227.546 227.135 227.604 227.073 229.793L226.484 250.064C226.471 250.523 226.396 251.184 225.914 251.632C225.547 251.974 225.017 252.134 224.255 252.134L224.253 252.136ZM224.513 228.635C224.297 228.635 224.104 228.806 223.934 229.141C223.725 229.558 223.6 230.159 223.58 230.831L223.2 243.89C223.094 247.5 223.041 250.521 223.439 250.947C223.499 251.009 223.719 251.016 223.976 251.02L224.112 251.024C224.647 251.04 225.001 250.971 225.166 250.818C225.252 250.741 225.366 250.572 225.382 250.033L225.971 229.762C225.995 228.913 225.685 228.671 224.524 228.635C224.519 228.635 224.515 228.635 224.511 228.635H224.513Z" fill="#333333"/>
<path d="M291.876 235.936C278.951 234.525 222.412 233.436 229.88 235.579C237.348 237.722 301.456 236.981 291.876 235.936Z" fill="white"/>
<path d="M224.29 232.31C224.343 230.444 225.077 230.365 224.976 234.692C224.873 239.023 224.204 235.318 224.29 232.31Z" fill="white"/>
<path d="M292.7 233.329C294.665 234.328 294.106 240.658 293.145 245.033C292.181 249.407 242.019 245.69 234.105 244.924C226.192 244.159 227.404 231.062 227.404 231.062L226.485 231.044C226.485 231.044 226.261 242.471 225.649 245.579C225.038 248.689 222.581 247.198 222.581 247.198C222.581 247.198 222.18 250.43 223.084 251.455C223.988 252.48 226.005 251.497 226.074 249.807C226.142 248.116 228.425 248.879 228.425 248.879C228.425 248.879 288.882 250.951 292.078 250.721C295.274 250.49 294.904 249.853 295.157 246.688C295.41 243.52 295.853 235.068 295.241 234.221C294.629 233.374 292.703 233.327 292.703 233.327L292.7 233.329Z" fill="#333333"/>
</svg>
