<svg width="12" height="12" viewBox="0 0 12 12" fill="none" xmlns="http://www.w3.org/2000/svg">
<path fill-rule="evenodd" clip-rule="evenodd" d="M6.75 0.75C6.75 0.335786 6.41421 0 6 0C5.58579 0 5.25 0.335786 5.25 0.75V5.24886H0.75C0.335786 5.24886 0 5.58465 0 5.99886C0 6.41308 0.335786 6.74886 0.75 6.74886H5.25V11.2478C5.25 11.6621 5.58579 11.9978 6 11.9978C6.41421 11.9978 6.75 11.6621 6.75 11.2478V6.74886H11.2478C11.6621 6.74886 11.9978 6.41308 11.9978 5.99886C11.9978 5.58465 11.6621 5.24886 11.2478 5.24886H6.75V0.75Z" fill="#3D9BE9"/>
</svg>
