<svg width="40" height="40" viewBox="0 0 40 40" fill="none" xmlns="http://www.w3.org/2000/svg">
<path d="M25.1243 10.4847V8.91622C26.0432 8.91622 26.8 8.14841 26.8 7.20511V5.4611C26.8 5.4611 26.8 5.41723 26.8 5.39529H28.6486C29.0919 5.39529 29.4595 5.02236 29.4595 4.57265C29.4595 4.12293 29.0919 3.75 28.6486 3.75H11.3405C10.8973 3.75 10.5297 4.12293 10.5297 4.57265C10.5297 5.02236 10.8973 5.39529 11.3405 5.39529H13.1892C13.1892 5.39529 13.1892 5.43917 13.1892 5.4611V7.20511C13.1892 8.13744 13.9351 8.90525 14.8649 8.91622V10.4847C12.173 10.6273 10 12.9307 10 15.6839V31.0399C10 33.9137 12.3027 36.25 15.1351 36.25H24.8649C27.6973 36.25 30 33.9137 30 31.0399V15.6839C30 12.9307 27.827 10.6273 25.1351 10.4847H25.1243ZM24.8541 34.6047H15.1243C13.1892 34.6047 11.6108 33.0033 11.6108 31.0399V15.6839C11.6108 13.7205 13.1892 12.1191 15.1243 12.1191H24.8541C26.7892 12.1191 28.3676 13.7205 28.3676 15.6839V31.0399C28.3676 33.0033 26.7892 34.6047 24.8541 34.6047ZM16.4757 10.4738V8.91622H23.5027V10.4738H16.4757ZM25.1784 7.20511C25.1784 7.20511 25.1459 7.27092 25.1135 7.27092H14.8649C14.8649 7.27092 14.8 7.23802 14.8 7.20511V5.4611C14.8 5.4611 14.8324 5.39529 14.8649 5.39529H25.1135C25.1135 5.39529 25.1784 5.4282 25.1784 5.4611V7.20511Z" fill="white"/>
</svg>
