<svg width="46" height="48" viewBox="0 0 46 48" fill="none" xmlns="http://www.w3.org/2000/svg">
<path fill-rule="evenodd" clip-rule="evenodd" d="M33.5992 13.5875C33.5992 19.3243 28.9486 23.975 23.2117 23.975C17.4749 23.975 12.8242 19.3243 12.8242 13.5875C12.8242 7.85059 17.4749 3.19995 23.2117 3.19995C28.9486 3.19995 33.5992 7.85059 33.5992 13.5875ZM30.196 25.0109C34.0368 22.6577 36.5992 18.4218 36.5992 13.5875C36.5992 6.19374 30.6054 0.199951 23.2117 0.199951C15.818 0.199951 9.82422 6.19374 9.82422 13.5875C9.82422 18.4219 12.3868 22.6579 16.2277 25.0111C8.85387 26.9013 0.474609 31.3516 0.474609 37.5999L0.500289 38.2162C0.723467 43.5725 5.1307 47.7999 10.4916 47.7999H35.9326C41.2935 47.7999 45.7008 43.5725 45.9239 38.2162L45.9496 37.5999C45.9496 31.3514 37.5699 26.901 30.196 25.0109ZM3.87461 37.5999C3.87461 36.9692 4.33131 36.0019 5.57461 34.6249C6.79064 33.2802 8.05307 32.3333 10.2496 31.2249C14.6402 29.0098 19.7995 27.3999 23.2121 27.3999C26.6247 27.3999 31.914 28.6103 36.3046 30.8254C38.5011 31.9338 40.0598 33.2802 41.2746 34.6249C42.5192 36.0002 42.5496 36.9709 42.5496 37.5999C42.8174 41.2727 39.9099 44.3999 36.2274 44.3999H10.1968C6.51432 44.3999 3.6068 41.2727 3.87461 37.5999Z" fill="#C7C7C7"/>
</svg>
