<svg width="259" height="224" viewBox="0 0 259 224" fill="none" xmlns="http://www.w3.org/2000/svg">
<path d="M188.31 58.8828V67.4909C188.31 72.8541 187.185 73.6995 181.192 78.921C173.84 85.3281 171.942 87.5291 171.942 98.9489L171.79 202.313C171.785 206.044 175.001 209.073 178.975 209.073H250.862C254.835 209.073 258.059 206.047 258.064 202.313C258.064 197.604 258.357 107.132 258.357 98.5365C258.357 87.1167 256.166 85.3255 248.814 78.921C242.821 73.6995 241.696 72.8516 241.696 67.4909C241.696 63.5399 241.696 58.8828 241.696 58.8828H188.31Z" fill="#DCF0FF"/>
<path d="M258.216 94.7275L258.064 202.315C258.059 206.05 254.835 209.075 250.862 209.075H178.975C175.001 209.075 171.785 206.05 171.79 202.315L171.8 194.712C171.79 202.364 172.514 204.831 191.169 204.831H244.406C254.419 204.831 252.498 203.735 252.521 188.125L252.652 94.7301C252.652 88.5214 251.285 85.2252 243.358 79.3928C235.431 73.5605 236.276 70.4549 236.276 66.5039C236.276 62.553 236.276 61.9886 225.868 61.9886H188.312V58.6021H241.871V69.6379C241.871 74.6919 250.397 79.1119 254.871 84.6942C257.938 88.5189 258.218 91.3435 258.218 94.7301" fill="#3D9BE9"/>
<path d="M177.047 51.9836L177.06 42.5122H252.874L252.861 51.9991C252.856 55.8006 249.676 58.883 245.756 58.883H184.152C180.224 58.883 177.042 55.7928 177.047 51.9836Z" fill="#3D9BE9"/>
<path d="M253.529 26.5591H177.291C176.006 26.5591 174.958 27.7317 174.958 29.175L174.945 39.4943C174.945 40.9376 175.986 42.1103 177.273 42.1103H253.508C254.793 42.1103 255.841 40.9376 255.841 39.4943L255.853 29.175C255.853 27.7317 254.813 26.5591 253.526 26.5591H253.529Z" fill="white"/>
<path d="M255.855 29.1749L255.843 39.4942C255.843 40.9375 254.794 42.1102 253.51 42.1102H177.275C175.99 42.1102 174.945 40.9375 174.947 39.4942V36.4814C175.053 39.404 176.82 39.1566 201.405 39.1566H246.366C252.105 39.1566 251.974 39.7777 251.982 32.6258C251.987 27.3399 250.178 26.5615 250.178 26.5615H253.528C254.812 26.5615 255.858 27.7342 255.855 29.1774V29.1749Z" fill="#3D9BE9"/>
<path d="M257.85 100.938H172.051V187.893H257.847V100.938H257.85Z" fill="white"/>
<path d="M257.848 100.938H252.59L252.438 187.751H257.846V100.938H257.848Z" fill="#3D9BE9"/>
<path d="M257.936 100.938H172.135V131.703H257.936V100.938Z" fill="#3D9BE9"/>
<path d="M257.849 100.938V131.703H252.537L252.591 100.938H257.849Z" fill="#333333"/>
<path d="M250.862 209.72H178.975C176.825 209.72 174.745 208.872 173.273 207.39C171.901 206.011 171.146 204.21 171.148 202.315L171.3 98.9492C171.3 87.2097 173.419 84.8412 180.771 78.4342L181.197 78.0631C186.805 73.1792 187.668 72.4292 187.668 67.4911V58.2388H242.339V67.4911C242.339 72.4292 243.202 73.1817 248.81 78.0631L249.462 78.6326C256.598 84.849 259 86.9417 259 98.5394C259 103.483 258.905 134.925 258.82 162.669C258.758 182.87 258.707 200.315 258.707 202.318C258.702 206.4 255.183 209.722 250.862 209.722V209.72ZM188.952 59.5274V67.4911C188.952 73.0168 187.624 74.174 182.04 79.0373L181.614 79.4084C174.457 85.6454 172.584 87.7381 172.584 98.9492L172.433 202.315C172.433 203.864 173.052 205.344 174.182 206.478C175.415 207.717 177.164 208.429 178.975 208.429H250.862C254.474 208.429 257.418 205.684 257.423 202.313C257.423 200.31 257.477 182.862 257.536 162.662C257.621 134.92 257.716 103.477 257.716 98.5368C257.716 87.5293 255.789 85.849 248.62 79.6043L247.967 79.0373C242.383 74.174 241.055 73.0168 241.055 67.4911V59.5274H188.952Z" fill="#333333"/>
<path d="M258.489 188.537H171.405V100.153H258.491V188.537H258.489ZM172.69 187.249H257.204V101.441H172.692V187.249H172.69Z" fill="#333333"/>
<path d="M245.752 59.5271H184.151C182.034 59.5271 180.056 58.7127 178.584 57.2333C177.177 55.8184 176.401 53.9525 176.403 51.9835L176.416 41.9038H253.515L253.502 52.0015C253.497 56.1509 250.021 59.5271 245.755 59.5271H245.752ZM177.698 43.1924L177.688 51.9835C177.688 53.6097 178.327 55.1509 179.494 56.321C180.724 57.5555 182.378 58.2385 184.151 58.2385H245.752C249.312 58.2385 252.21 55.4396 252.215 51.9989L252.225 43.1924H177.695H177.698Z" fill="#333333"/>
<path d="M253.511 42.7519H177.275C176.53 42.7519 175.819 42.4478 175.269 41.8988C174.655 41.2829 174.303 40.404 174.306 39.4917L174.319 29.1723C174.319 27.376 175.654 25.9121 177.293 25.9121H253.531C254.276 25.9121 254.988 26.2162 255.537 26.7652C256.151 27.3811 256.503 28.26 256.501 29.1723L256.488 39.4917C256.488 41.288 255.152 42.7519 253.513 42.7519H253.511ZM177.291 27.2033C176.361 27.2033 175.6 28.0873 175.6 29.1749L175.587 39.4943C175.587 40.0664 175.801 40.6128 176.176 40.9891C176.481 41.2958 176.872 41.4659 177.273 41.4659H253.508C254.438 41.4659 255.198 40.5819 255.198 39.4943L255.211 29.1749C255.211 28.6027 254.998 28.0564 254.623 27.6801C254.317 27.3734 253.927 27.2033 253.526 27.2033H177.288H177.291Z" fill="#333333"/>
<path d="M258.807 132.265H171.407V100.153H258.807V132.265ZM172.692 130.977H257.522V101.441H172.692V130.977Z" fill="#333333"/>
<path d="M212.542 109.706C212.542 111.623 211.316 112.816 209.364 112.816H207.89V115.19H206.194V106.582H209.364C211.319 106.582 212.542 107.778 212.542 109.706ZM210.826 109.706C210.826 108.757 210.304 108.206 209.267 108.206H207.887V111.193H209.267C210.304 111.198 210.826 110.644 210.826 109.706Z" fill="white"/>
<path d="M219.41 113.595V115.195H213.743V106.584H219.274V108.185H215.426V110.056H218.824V111.605H215.426V113.597H219.41V113.595Z" fill="white"/>
<path d="M227.106 109.706C227.106 111.623 225.881 112.816 223.929 112.816H222.454V115.19H220.759V106.582H223.929C225.883 106.582 227.106 107.778 227.106 109.706ZM225.39 109.706C225.39 108.757 224.869 108.206 223.831 108.206H222.452V111.193H223.831C224.869 111.198 225.39 110.644 225.39 109.706Z" fill="white"/>
<path d="M229.628 108.206H227.288V106.582H233.669V108.206H231.329V115.195H229.633V108.206H229.628Z" fill="white"/>
<path d="M234.57 106.582H236.266V115.193H234.57V106.582Z" fill="white"/>
<path d="M238 106.582H241.327C243.723 106.582 245.362 108.28 245.362 110.889C245.362 113.497 243.718 115.195 241.327 115.195H238V106.585V106.582ZM241.242 113.556C242.698 113.556 243.646 112.533 243.646 110.886C243.646 109.239 242.693 108.216 241.242 108.216H239.695V113.554H241.242V113.556Z" fill="white"/>
<path d="M252.308 113.595V115.195H246.642V106.584H252.172V108.185H248.324V110.056H251.723V111.605H248.324V113.597H252.308V113.595Z" fill="white"/>
<path d="M206.192 125.721L206.49 125.002C207.004 125.618 207.924 126.077 208.869 126.077C210.22 126.077 210.806 125.384 210.806 124.51C210.806 122.082 206.37 123.575 206.37 120.304C206.37 119.002 207.194 117.881 209.028 117.881C209.84 117.881 210.685 118.17 211.263 118.667L211.004 119.415C210.387 118.923 209.665 118.683 209.028 118.683C207.708 118.683 207.125 119.402 207.125 120.286C207.125 122.714 211.561 121.245 211.561 124.469C211.561 125.77 210.716 126.884 208.877 126.884C207.793 126.873 206.729 126.407 206.195 125.724L206.192 125.721Z" fill="white"/>
<path d="M219.239 117.949V126.794H218.487V122.714H213.976V126.794H213.213V117.949H213.976V121.889H218.487V117.949H219.239Z" fill="white"/>
<path d="M220.946 122.371C220.946 119.794 222.552 117.871 224.735 117.871C226.919 117.871 228.511 119.778 228.511 122.371C228.511 124.964 226.893 126.871 224.735 126.871C222.577 126.871 220.946 124.948 220.946 122.371ZM227.751 122.371C227.751 120.26 226.464 118.709 224.735 118.709C223.006 118.709 221.696 120.265 221.696 122.371C221.696 124.477 222.991 126.033 224.735 126.033C226.479 126.033 227.751 124.482 227.751 122.371Z" fill="white"/>
<path d="M235.867 120.985C235.867 122.869 234.755 124.005 232.923 124.005H230.987V126.799H230.224V117.949H232.921C234.75 117.949 235.865 119.085 235.865 120.985H235.867ZM235.102 120.985C235.102 119.567 234.339 118.758 232.9 118.758H230.984V123.181H232.9C234.341 123.181 235.102 122.371 235.102 120.985Z" fill="white"/>
<path d="M191.869 115.879C191.869 118.137 190.043 119.966 187.792 119.966C187.109 119.966 186.436 119.794 185.837 119.464C185.465 119.26 185.129 118.997 184.836 118.688C183.292 117.046 183.366 114.461 185 112.912C185.054 112.861 185.108 112.812 185.164 112.763C185.475 112.495 185.827 112.273 186.205 112.111C187.977 111.361 190.03 111.954 191.132 113.536C191.445 113.987 191.666 114.497 191.779 115.036C191.838 115.314 191.866 115.595 191.866 115.879H191.869Z" fill="white"/>
<path d="M183.605 122.227C183.323 121.897 182.968 121.634 182.57 121.462L182.554 121.456C181.101 120.833 179.418 121.505 178.796 122.964C178.175 124.423 178.845 126.111 180.299 126.735C181.753 127.358 183.436 126.686 184.057 125.227C184.486 124.222 184.312 123.062 183.603 122.232L183.605 122.227Z" fill="white"/>
<path d="M184.272 105.794C183.427 104.948 182.057 104.948 181.215 105.794C180.372 106.642 180.372 108.015 181.215 108.861C182.06 109.706 183.427 109.706 184.272 108.861L184.277 108.855C185.117 108.008 185.114 106.636 184.272 105.791V105.794Z" fill="white"/>
<path d="M199.962 109.521C198.704 108.261 196.667 108.261 195.408 109.521C194.701 110.23 194.365 111.224 194.491 112.217C194.491 112.217 194.491 112.24 194.493 112.253C194.565 112.768 194.76 113.258 195.061 113.678C195.069 113.688 195.076 113.699 195.084 113.712C195.182 113.843 195.287 113.969 195.403 114.085C196.661 115.348 198.701 115.348 199.957 114.085C201.216 112.822 201.216 110.776 199.957 109.516V109.521H199.962Z" fill="white"/>
<path d="M185.834 119.464C185.461 119.26 185.125 118.997 184.832 118.688C184.865 118.732 185.071 119.093 184.072 120.361C183.114 121.577 182.654 121.489 182.566 121.459C182.965 121.631 183.319 121.894 183.602 122.224C183.589 122.193 183.432 121.783 184.362 120.611C185.328 119.392 185.836 119.464 185.836 119.464H185.834Z" fill="white"/>
<path d="M184.968 110.75C184.11 109.317 184.29 108.848 184.29 108.848L184.279 108.856L184.274 108.861C184.025 109.111 183.719 109.297 183.383 109.4C183.396 109.4 183.776 109.413 184.616 110.892C185.451 112.358 185.178 112.737 185.163 112.758C185.476 112.492 185.826 112.273 186.203 112.114C186.203 112.114 185.826 112.186 184.968 110.753V110.75Z" fill="white"/>
<path d="M194.496 112.252C194.504 112.397 194.44 112.951 193.117 113.474C191.642 114.059 191.17 113.577 191.134 113.536C191.447 113.987 191.668 114.497 191.781 115.036C191.776 114.997 191.745 114.456 193.261 113.832C194.576 113.291 194.969 113.572 195.064 113.678C194.763 113.255 194.571 112.765 194.499 112.252H194.496Z" fill="white"/>
<path d="M194.065 124.09C194.805 124.09 195.405 123.487 195.405 122.744C195.405 122.001 194.805 121.399 194.065 121.399C193.324 121.399 192.724 122.001 192.724 122.744C192.724 123.487 193.324 124.09 194.065 124.09Z" fill="white"/>
<path d="M178.858 117.17C180.023 117.17 180.967 116.223 180.967 115.054C180.967 113.885 180.023 112.938 178.858 112.938C177.693 112.938 176.749 113.885 176.749 115.054C176.749 116.223 177.693 117.17 178.858 117.17Z" fill="white"/>
<path d="M190.296 109.675C190.75 109.675 191.118 109.306 191.118 108.85C191.118 108.395 190.75 108.025 190.296 108.025C189.842 108.025 189.474 108.395 189.474 108.85C189.474 109.306 189.842 109.675 190.296 109.675Z" fill="white"/>
<path d="M207.439 166.841H175.368V184.341H207.439V166.841Z" fill="#3D9BE9"/>
<path d="M208.082 184.985H174.727V166.197H208.082V184.985ZM176.011 183.696H206.797V167.485H176.011V183.696Z" fill="#333333"/>
<path d="M177.047 51.2772C177.047 54.3647 179.449 56.058 188.17 56.058H244.15C248.371 56.058 250.092 53.2359 250.092 50.6947V44.4861H177.055V42.5454H252.871V50.6947C252.871 55.2101 250.732 58.8801 245.753 58.8801H185.357C179.449 58.8801 178.043 55.7745 177.481 54.6457C176.918 53.5168 177.049 51.2746 177.049 51.2746L177.047 51.2772Z" fill="#333333"/>
<path d="M179.811 45.6172H178.526V53.2381H179.811V45.6172Z" fill="white"/>
<path d="M174.886 103.902H173.602V128.466H174.886V103.902Z" fill="white"/>
<path d="M174.886 190.016H173.602V199.493H174.886V190.016Z" fill="white"/>
<path d="M174.886 97.6499H173.602C173.602 91.5083 174.924 87.2506 182.15 81.024L182.194 80.9879C189.546 74.653 190.489 73.8411 190.489 66.8696H191.773C191.773 74.4313 190.437 75.5808 183.029 81.9647L182.985 82.0007C175.464 88.48 174.883 92.5752 174.883 97.6499H174.886Z" fill="white"/>
<path d="M183.521 171.165V180.001H181.03V173.096H179.395V171.165H183.521Z" fill="white"/>
<path d="M188.734 180.178C187.979 180.178 187.308 179.997 186.721 179.635C186.133 179.273 185.672 178.747 185.337 178.057C185.009 177.358 184.846 176.534 184.846 175.583C184.846 174.632 185.009 173.811 185.337 173.121C185.672 172.423 186.133 171.892 186.721 171.531C187.308 171.169 187.979 170.988 188.734 170.988C189.48 170.988 190.147 171.169 190.734 171.531C191.321 171.892 191.778 172.423 192.106 173.121C192.441 173.811 192.609 174.632 192.609 175.583C192.609 176.534 192.441 177.358 192.106 178.057C191.778 178.747 191.321 179.273 190.734 179.635C190.147 179.997 189.48 180.178 188.734 180.178ZM188.734 178.133C189.153 178.133 189.484 177.931 189.728 177.527C189.979 177.114 190.105 176.466 190.105 175.583C190.105 174.699 189.979 174.055 189.728 173.651C189.484 173.239 189.153 173.033 188.734 173.033C188.306 173.033 187.966 173.239 187.715 173.651C187.471 174.055 187.35 174.699 187.35 175.583C187.35 176.466 187.471 177.114 187.715 177.527C187.966 177.931 188.306 178.133 188.734 178.133Z" fill="white"/>
<path d="M197.563 176.735C197.957 176.735 198.27 176.853 198.502 177.09C198.738 177.328 198.857 177.685 198.857 178.163V180.001H197.734V178.347C197.734 178.122 197.691 177.956 197.604 177.849C197.521 177.742 197.403 177.689 197.25 177.689C197.08 177.689 196.944 177.748 196.842 177.867C196.74 177.985 196.688 178.165 196.688 178.406V180.001H195.566V178.347C195.566 177.908 195.404 177.689 195.081 177.689C194.908 177.689 194.77 177.748 194.668 177.867C194.565 177.985 194.514 178.165 194.514 178.406V180.001H193.392V176.788H194.461V177.126C194.579 176.996 194.719 176.899 194.88 176.836C195.046 176.768 195.225 176.735 195.418 176.735C195.643 176.735 195.843 176.776 196.021 176.859C196.198 176.942 196.342 177.069 196.452 177.239C196.578 177.077 196.738 176.952 196.931 176.865C197.124 176.778 197.334 176.735 197.563 176.735Z" fill="white"/>
<path d="M203.056 176.788V179.414C203.056 180.011 202.894 180.457 202.571 180.754C202.248 181.054 201.784 181.204 201.177 181.204C200.862 181.204 200.566 181.169 200.291 181.098C200.015 181.026 199.781 180.922 199.588 180.783L199.995 179.995C200.125 180.102 200.289 180.185 200.486 180.244C200.687 180.307 200.884 180.339 201.077 180.339C201.372 180.339 201.589 180.274 201.726 180.143C201.864 180.013 201.933 179.819 201.933 179.562V179.456C201.717 179.708 201.4 179.835 200.982 179.835C200.698 179.835 200.436 179.772 200.196 179.645C199.956 179.515 199.765 179.333 199.623 179.1C199.481 178.863 199.41 178.59 199.41 178.282C199.41 177.978 199.481 177.709 199.623 177.476C199.765 177.239 199.956 177.057 200.196 176.93C200.436 176.8 200.698 176.735 200.982 176.735C201.439 176.735 201.774 176.883 201.986 177.179V176.788H203.056ZM201.248 178.94C201.449 178.94 201.614 178.879 201.744 178.756C201.878 178.634 201.945 178.476 201.945 178.282C201.945 178.088 201.88 177.932 201.75 177.814C201.62 177.691 201.453 177.63 201.248 177.63C201.043 177.63 200.874 177.691 200.74 177.814C200.61 177.932 200.545 178.088 200.545 178.282C200.545 178.476 200.612 178.634 200.746 178.756C200.88 178.879 201.047 178.94 201.248 178.94Z" fill="white"/>
<path d="M179.125 147.516C178.504 147.516 177.901 147.439 177.317 147.285C176.732 147.131 176.257 146.926 175.892 146.669L176.604 145.064C176.948 145.291 177.346 145.474 177.799 145.613C178.252 145.753 178.698 145.822 179.136 145.822C179.97 145.822 180.386 145.613 180.386 145.195C180.386 144.976 180.266 144.814 180.024 144.712C179.79 144.602 179.41 144.488 178.884 144.371C178.307 144.246 177.825 144.114 177.437 143.975C177.05 143.828 176.717 143.597 176.44 143.282C176.162 142.966 176.023 142.541 176.023 142.006C176.023 141.537 176.151 141.115 176.407 140.741C176.663 140.36 177.043 140.059 177.547 139.839C178.058 139.619 178.683 139.509 179.421 139.509C179.926 139.509 180.423 139.568 180.912 139.685C181.402 139.795 181.833 139.96 182.206 140.18L181.537 141.797C180.806 141.401 180.097 141.203 179.41 141.203C178.979 141.203 178.665 141.269 178.468 141.401C178.27 141.526 178.172 141.691 178.172 141.896C178.172 142.101 178.289 142.255 178.523 142.358C178.756 142.461 179.133 142.567 179.652 142.677C180.236 142.801 180.719 142.937 181.099 143.084C181.486 143.223 181.818 143.45 182.096 143.766C182.381 144.074 182.524 144.495 182.524 145.031C182.524 145.492 182.396 145.91 182.14 146.284C181.884 146.658 181.501 146.959 180.989 147.186C180.477 147.406 179.856 147.516 179.125 147.516Z" fill="#333333"/>
<path d="M189.687 145.679V147.362H183.526V139.663H189.545V141.346H185.675V142.644H189.084V144.272H185.675V145.679H189.687Z" fill="#333333"/>
<path d="M194.246 145.316H193.062V147.362H190.892V139.663H194.399C195.094 139.663 195.697 139.781 196.208 140.015C196.72 140.243 197.114 140.572 197.392 141.005C197.67 141.43 197.809 141.933 197.809 142.512C197.809 143.069 197.677 143.557 197.414 143.975C197.158 144.385 196.789 144.708 196.307 144.943L197.962 147.362H195.638L194.246 145.316ZM195.616 142.512C195.616 142.153 195.503 141.874 195.276 141.676C195.05 141.478 194.714 141.379 194.268 141.379H193.062V143.634H194.268C194.714 143.634 195.05 143.538 195.276 143.348C195.503 143.15 195.616 142.871 195.616 142.512Z" fill="#333333"/>
<path d="M205.934 147.362L205.912 143.282L203.939 146.603H202.974L201.012 143.392V147.362H199.006V139.663H200.793L203.49 144.107L206.121 139.663H207.907L207.929 147.362H205.934Z" fill="#333333"/>
<path d="M213.335 147.516C212.524 147.516 211.793 147.344 211.142 146.999C210.499 146.655 209.991 146.178 209.619 145.569C209.253 144.961 209.071 144.275 209.071 143.513C209.071 142.75 209.253 142.065 209.619 141.456C209.991 140.847 210.499 140.371 211.142 140.026C211.793 139.682 212.524 139.509 213.335 139.509C214.146 139.509 214.873 139.682 215.516 140.026C216.167 140.371 216.675 140.847 217.04 141.456C217.413 142.065 217.599 142.75 217.599 143.513C217.599 144.275 217.413 144.961 217.04 145.569C216.675 146.178 216.167 146.655 215.516 146.999C214.873 147.344 214.146 147.516 213.335 147.516ZM213.335 145.712C213.722 145.712 214.073 145.621 214.387 145.437C214.701 145.254 214.95 144.998 215.133 144.668C215.315 144.33 215.407 143.945 215.407 143.513C215.407 143.08 215.315 142.699 215.133 142.369C214.95 142.032 214.701 141.771 214.387 141.588C214.073 141.405 213.722 141.313 213.335 141.313C212.947 141.313 212.597 141.405 212.282 141.588C211.968 141.771 211.72 142.032 211.537 142.369C211.354 142.699 211.263 143.08 211.263 143.513C211.263 143.945 211.354 144.33 211.537 144.668C211.72 144.998 211.968 145.254 212.282 145.437C212.597 145.621 212.947 145.712 213.335 145.712Z" fill="#333333"/>
<path d="M222.09 145.316H220.906V147.362H218.736V139.663H222.244C222.938 139.663 223.541 139.781 224.053 140.015C224.564 140.243 224.959 140.572 225.236 141.005C225.514 141.43 225.653 141.933 225.653 142.512C225.653 143.069 225.521 143.557 225.258 143.975C225.003 144.385 224.634 144.708 224.151 144.943L225.806 147.362H223.483L222.09 145.316ZM223.461 142.512C223.461 142.153 223.347 141.874 223.121 141.676C222.894 141.478 222.558 141.379 222.112 141.379H220.906V143.634H222.112C222.558 143.634 222.894 143.538 223.121 143.348C223.347 143.15 223.461 142.871 223.461 142.512Z" fill="#333333"/>
<path d="M233.011 145.679V147.362H226.85V139.663H232.869V141.346H228.999V142.644H232.408V144.272H228.999V145.679H233.011Z" fill="#333333"/>
<path d="M234.216 139.663H236.386V145.635H240.048V147.362H234.216V139.663Z" fill="#333333"/>
<path d="M240.906 139.663H243.077V147.362H240.906V139.663Z" fill="#333333"/>
<path d="M251.922 139.663V147.362H250.135L246.748 143.26V147.362H244.621V139.663H246.408L249.795 143.766V139.663H251.922Z" fill="#333333"/>
<path d="M19.0837 49.5762V59.1868C19.0837 65.1738 17.8276 66.1196 11.1359 71.9494C2.92877 79.1013 0.809551 81.56 0.809551 94.3097L0.642584 209.704C0.637446 213.871 4.22857 217.25 8.66224 217.25H88.9153C93.3516 217.25 96.9504 213.871 96.9555 209.704C96.9555 204.449 97.2818 103.446 97.2818 93.8484C97.2818 81.0987 94.8338 79.1013 86.6266 71.9494C79.9375 66.1196 78.6788 65.1738 78.6788 59.1868C78.6788 54.7745 78.6788 49.5762 78.6788 49.5762H19.0785H19.0837Z" fill="#DCF0FF"/>
<path d="M97.1271 89.5929L96.9575 209.701C96.9524 213.868 93.351 217.247 88.9173 217.247H8.6642C4.22795 217.247 0.639399 213.868 0.644537 209.701L0.654814 201.214C0.644539 209.758 1.4537 212.508 22.2786 212.508H81.7119C92.8886 212.508 90.7463 211.283 90.7694 193.856L90.9158 89.5903C90.9158 82.6575 89.39 78.9797 80.5406 72.4696C71.6912 65.9594 72.6339 62.493 72.6339 58.0807C72.6339 53.6685 72.6339 53.0396 61.0129 53.0396H19.0856V49.2588H78.876V61.5781C78.876 67.2197 88.3933 72.1552 93.3895 78.387C96.8137 82.6575 97.1271 85.8095 97.1271 89.5903" fill="#3D9BE9"/>
<path d="M6.50977 41.8732L6.52261 31.3013H91.1606L91.1477 41.8938C91.1426 46.1386 87.5926 49.5766 83.2154 49.5766H14.4421C10.0572 49.5766 6.50463 46.1257 6.50977 41.8732Z" fill="#3D9BE9"/>
<path d="M91.8932 13.4893H6.7826C5.34667 13.4893 4.18045 14.7985 4.17788 16.4093L4.16504 27.9297C4.16504 29.5404 5.32868 30.8497 6.76205 30.8497H91.8727C93.3086 30.8497 94.4748 29.5404 94.4774 27.9297L94.4902 16.4093C94.4902 14.7985 93.3266 13.4893 91.8932 13.4893Z" fill="white"/>
<path d="M94.4922 16.4093L94.4793 27.9297C94.4793 29.5404 93.3106 30.8497 91.8746 30.8497H6.76401C5.32807 30.8497 4.16443 29.5404 4.167 27.9297V24.5663C4.28516 27.8291 6.25796 27.5508 33.7051 27.5508H83.8986C90.3051 27.5508 90.1587 28.2441 90.1664 20.2597C90.1741 14.3578 88.1551 13.4893 88.1551 13.4893H91.8952C93.3311 13.4893 94.4948 14.7985 94.4922 16.4093Z" fill="#3D9BE9"/>
<path d="M96.7164 96.5239H0.932617V193.599H96.7139V96.5239H96.7164Z" fill="white"/>
<path d="M96.7169 96.5239H90.8473L90.6777 193.439H96.7143V96.5239H96.7169Z" fill="#3D9BE9"/>
<path d="M96.8118 96.5239H1.02539V130.868H96.8118V96.5239Z" fill="#3D9BE9"/>
<path d="M96.7164 96.5239V130.871H90.7852L90.8468 96.5239H96.7164Z" fill="#333333"/>
<path d="M88.915 217.892H8.66187C6.28063 217.892 3.97902 216.951 2.34786 215.314C0.829728 213.789 -0.00511394 211.796 2.35712e-05 209.701L0.166991 94.3069C0.166991 81.235 2.52768 78.5959 10.7169 71.4621L11.1947 71.0471C17.4778 65.5756 18.4437 64.7354 18.4437 59.1866V48.9316H79.3284V59.1866C79.3284 64.7354 80.2942 65.5756 86.5774 71.0471L87.3069 71.6811C95.2547 78.6036 97.9313 80.9361 97.9313 93.8481C97.9313 99.3661 97.826 134.468 97.7309 165.442C97.6616 187.993 97.6025 207.469 97.6025 209.704C97.5974 214.219 93.7006 217.894 88.9201 217.894L88.915 217.892ZM19.7255 50.2203V59.1866C19.7255 65.323 18.4 66.475 12.0346 72.0187L11.5594 72.4337C3.54748 79.4129 1.45394 81.7582 1.45394 94.3069L1.28697 209.704C1.28697 211.454 1.98567 213.124 3.25978 214.405C4.65204 215.802 6.62227 216.606 8.66444 216.606H88.9175C92.9916 216.606 96.3104 213.51 96.3156 209.704C96.3156 207.469 96.3746 187.99 96.444 165.439C96.5365 134.468 96.6444 99.3661 96.6444 93.8507C96.6444 81.5263 94.4866 79.6474 86.4644 72.6579L85.7348 72.0239C79.3695 66.4802 78.044 65.3256 78.044 59.1917V50.2254H19.7281L19.7255 50.2203Z" fill="#333333"/>
<path d="M97.3563 194.244H0.288086V95.7227H97.3588V194.244H97.3563ZM1.57246 192.955H96.0719V97.0113H1.57503V192.955H1.57246Z" fill="#333333"/>
<path d="M83.2131 50.2206H14.4398C12.097 50.2206 9.90847 49.3186 8.27731 47.682C6.71807 46.1151 5.86267 44.0533 5.86524 41.8729L5.88065 30.6953H91.803L91.7876 41.8935C91.7824 46.4862 87.9344 50.2206 83.2131 50.2206ZM7.16246 31.9839L7.14962 41.8729C7.14962 43.7079 7.87144 45.4475 9.18664 46.7697C10.5738 48.164 12.4387 48.932 14.4398 48.932H83.2131C87.228 48.932 90.4981 45.7749 90.5032 41.8909L90.516 31.9839H7.16246Z" fill="#333333"/>
<path d="M91.8739 31.4918H6.76325C5.95153 31.4918 5.17576 31.1619 4.57724 30.5614C3.90679 29.8862 3.52148 28.9275 3.52148 27.9275L3.53433 16.4071C3.53433 14.4433 4.99338 12.8428 6.78124 12.8428H91.8919C92.7036 12.8428 93.4793 13.1727 94.0779 13.7732C94.7483 14.4484 95.1336 15.4072 95.1336 16.4071L95.1208 27.9275C95.1208 29.8914 93.6617 31.4918 91.8739 31.4918ZM6.78381 14.134C5.70236 14.134 4.82384 15.1546 4.82127 16.4097L4.80843 27.9301C4.80843 28.5898 5.05503 29.2161 5.48658 29.6517C5.84107 30.0099 6.29574 30.2058 6.76325 30.2058H91.8739C92.9553 30.2058 93.8338 29.1852 93.8364 27.9301L93.8493 16.4097C93.8493 15.7499 93.6027 15.1237 93.1711 14.6881C92.8166 14.3324 92.3619 14.134 91.8944 14.134H6.78381Z" fill="#333333"/>
<path d="M97.7108 131.423H0.288086V95.7227H97.7108V131.423ZM1.57246 130.134H96.4264V97.0113H1.57246V130.134Z" fill="#333333"/>
<path d="M46.1331 106.314C46.1331 108.456 44.7665 109.786 42.5856 109.786H40.9391V112.435H39.0459V102.827H42.5856C44.7665 102.827 46.1331 104.162 46.1331 106.314ZM44.2194 106.314C44.2194 105.258 43.6363 104.639 42.4778 104.639H40.9365V107.974H42.4778C43.6363 107.979 44.2194 107.361 44.2194 106.314Z" fill="white"/>
<path d="M53.8024 110.654V112.44H47.4756V102.827H53.6509V104.613H49.3559V106.703H53.15V108.43H49.3559V110.654H53.8024Z" fill="white"/>
<path d="M62.3958 106.314C62.3958 108.456 61.0292 109.786 58.8483 109.786H57.2018V112.435H55.3086V102.827H58.8483C61.0292 102.827 62.3958 104.162 62.3958 106.314ZM60.4821 106.314C60.4821 105.258 59.899 104.639 58.7404 104.639H57.1992V107.974H58.7404C59.899 107.979 60.4821 107.361 60.4821 106.314Z" fill="white"/>
<path d="M65.2081 104.639H62.5957V102.827H69.7189V104.639H67.1064V112.44H65.2133V104.639H65.2081Z" fill="white"/>
<path d="M70.7285 102.827H72.6217V112.44H70.7285V102.827Z" fill="white"/>
<path d="M74.5566 102.827H78.2685C80.9451 102.827 82.7741 104.721 82.7741 107.634C82.7741 110.546 80.94 112.44 78.2685 112.44H74.5566V102.827ZM78.176 110.613C79.802 110.613 80.8604 109.471 80.8604 107.634C80.8604 105.796 79.7969 104.654 78.176 104.654H76.4498V110.613H78.176Z" fill="white"/>
<path d="M90.529 110.654V112.44H84.2021V102.827H90.3774V104.613H86.0825V106.703H89.8765V108.43H86.0825V110.654H90.529Z" fill="white"/>
<path d="M39.0459 124.19L39.3798 123.388C39.9552 124.076 40.9802 124.587 42.0359 124.587C43.5438 124.587 44.1963 123.811 44.1963 122.839C44.1963 120.128 39.2437 121.796 39.2437 118.144C39.2437 116.693 40.1633 115.438 42.2106 115.438C43.1174 115.438 44.0601 115.76 44.7049 116.314L44.4146 117.146C43.7262 116.597 42.9196 116.329 42.2106 116.329C40.7387 116.329 40.0837 117.131 40.0837 118.12C40.0837 120.832 45.0362 119.19 45.0362 122.788C45.0362 124.239 44.0935 125.484 42.0385 125.484C40.8286 125.473 39.6418 124.95 39.0459 124.187V124.19Z" fill="white"/>
<path d="M53.611 115.515V125.389H52.7684V120.832H47.7311V125.389H46.8809V115.515H47.7311V119.915H52.7684V115.515H53.611Z" fill="white"/>
<path d="M55.5186 120.453C55.5186 117.577 57.3116 115.43 59.7493 115.43C62.1871 115.43 63.9646 117.559 63.9646 120.453C63.9646 123.347 62.1588 125.476 59.7493 125.476C57.3398 125.476 55.5186 123.329 55.5186 120.453ZM63.1144 120.453C63.1144 118.097 61.6759 116.365 59.7493 116.365C57.8227 116.365 56.356 118.102 56.356 120.453C56.356 122.803 57.8022 124.54 59.7493 124.54C61.6964 124.54 63.1144 122.808 63.1144 120.453Z" fill="white"/>
<path d="M72.1726 118.904C72.1726 121.007 70.9319 122.275 68.8846 122.275H66.7243V125.393H65.874V115.512H68.8846C70.9268 115.512 72.1726 116.78 72.1726 118.901V118.904ZM71.3172 118.904C71.3172 117.321 70.467 116.419 68.8589 116.419H66.7191V121.357H68.8589C70.467 121.357 71.3172 120.453 71.3172 118.904Z" fill="white"/>
<path d="M23.0547 113.204C23.0547 115.725 21.0176 117.768 18.5054 117.768C17.7425 117.768 16.9924 117.575 16.3219 117.209C15.9058 116.98 15.5308 116.689 15.2045 116.343C13.4809 114.511 13.5631 111.624 15.3895 109.895C15.4486 109.838 15.5102 109.782 15.5744 109.73C15.9238 109.428 16.3142 109.184 16.7355 109.001C18.7135 108.163 21.0048 108.825 22.2378 110.591C22.5897 111.093 22.8337 111.663 22.9596 112.263C23.0238 112.573 23.0572 112.887 23.0572 113.204H23.0547Z" fill="white"/>
<path d="M13.8298 120.291C13.5138 119.923 13.1183 119.629 12.6739 119.436L12.6584 119.428C11.0376 118.729 9.15723 119.485 8.46366 121.111C7.76753 122.737 8.52018 124.624 10.1411 125.32C11.7619 126.018 13.6423 125.263 14.3358 123.637C14.8136 122.515 14.6184 121.219 13.8298 120.291Z" fill="white"/>
<path d="M14.575 101.947C13.6323 101.001 12.1039 101.001 11.1612 101.947C10.2184 102.893 10.2184 104.426 11.1612 105.372C12.1039 106.318 13.6297 106.318 14.5725 105.372L14.5776 105.367C15.5152 104.421 15.5126 102.89 14.5725 101.947H14.575Z" fill="white"/>
<path d="M32.0911 106.106C30.686 104.699 28.4126 104.699 27.0075 106.106C26.2189 106.897 25.8413 108.008 25.9851 109.116C25.9851 109.129 25.9851 109.142 25.9877 109.155C26.0673 109.73 26.2857 110.276 26.6222 110.748C26.6299 110.761 26.6402 110.771 26.6479 110.784C26.7558 110.931 26.8739 111.07 27.0049 111.201C28.41 112.611 30.686 112.611 32.0911 111.201C33.4962 109.792 33.4962 107.508 32.0911 106.098V106.104V106.106Z" fill="white"/>
<path d="M16.3189 117.206C15.9028 116.977 15.5277 116.686 15.2015 116.34C15.24 116.389 15.4686 116.794 14.3538 118.209C13.2852 119.567 12.7714 119.472 12.6738 119.433C13.1182 119.626 13.5138 119.92 13.8298 120.289C13.8144 120.255 13.6397 119.799 14.6775 118.487C15.7563 117.126 16.3215 117.206 16.3215 117.206H16.3189Z" fill="white"/>
<path d="M15.3535 107.48C14.3953 105.88 14.5957 105.359 14.5957 105.359L14.5829 105.367L14.5777 105.372C14.3003 105.651 13.9587 105.859 13.5811 105.973C13.5965 105.973 14.0177 105.988 14.9579 107.638C15.8904 109.274 15.5847 109.699 15.5693 109.72C15.9186 109.424 16.3116 109.179 16.7329 109.001C16.7329 109.001 16.3116 109.081 15.3535 107.48Z" fill="white"/>
<path d="M25.9899 109.158C26.0002 109.318 25.9257 109.936 24.4486 110.524C22.8021 111.176 22.2729 110.637 22.2344 110.593C22.5863 111.096 22.8303 111.665 22.9562 112.266C22.9511 112.225 22.9151 111.616 24.6079 110.923C26.0747 110.32 26.5165 110.632 26.6192 110.75C26.2853 110.279 26.067 109.732 25.9899 109.158Z" fill="white"/>
<path d="M25.5087 122.371C26.3344 122.371 27.0037 121.7 27.0037 120.872C27.0037 120.043 26.3344 119.372 25.5087 119.372C24.683 119.372 24.0137 120.043 24.0137 120.872C24.0137 121.7 24.683 122.371 25.5087 122.371Z" fill="white"/>
<path d="M8.53072 114.645C9.83023 114.645 10.8837 113.588 10.8837 112.284C10.8837 110.98 9.83023 109.923 8.53072 109.923C7.2312 109.923 6.17773 110.98 6.17773 112.284C6.17773 113.588 7.2312 114.645 8.53072 114.645Z" fill="white"/>
<path d="M21.2999 106.279C21.8063 106.279 22.2169 105.867 22.2169 105.359C22.2169 104.85 21.8063 104.438 21.2999 104.438C20.7934 104.438 20.3828 104.85 20.3828 105.359C20.3828 105.867 20.7934 106.279 21.2999 106.279Z" fill="white"/>
<path d="M40.44 170.098H4.63672V189.634H40.44V170.098Z" fill="#3D9BE9"/>
<path d="M41.0828 190.279H3.99512V169.455H41.0828V190.279ZM5.2795 188.99H39.7984V170.743H5.2795V188.99Z" fill="#333333"/>
<path d="M6.50927 41.0867C6.50927 44.5351 9.19105 46.4242 18.9266 46.4242H81.4245C86.1356 46.4242 88.057 43.2722 88.057 40.4372V33.5044H6.51954V31.3369H91.1601V40.4347C91.1601 45.4758 88.7711 49.5736 83.2149 49.5736H15.7876C9.19362 49.5736 7.62154 46.1072 6.99476 44.8469C6.36542 43.5866 6.51183 41.0841 6.51183 41.0841L6.50927 41.0867Z" fill="#333333"/>
<path d="M9.52071 34.7646H8.23633V43.2722H9.52071V34.7646Z" fill="white"/>
<path d="M4.02364 99.833H2.73926V127.255H4.02364V99.833Z" fill="white"/>
<path d="M4.02364 195.97H2.73926V206.549H4.02364V195.97Z" fill="white"/>
<path d="M4.02364 92.8538H2.73926C2.73926 86.0189 4.21115 81.2819 12.2565 74.3491L12.3053 74.3079C20.5356 67.2178 21.5914 66.3055 21.5914 58.4912H22.8757C22.8757 66.8982 21.3884 68.1791 13.1427 75.2872L13.0939 75.3285C4.67353 82.5835 4.02364 87.1684 4.02364 92.8564V92.8538Z" fill="white"/>
<path d="M13.7389 174.773V184.638H10.9578V176.929H9.13184V174.773H13.7389Z" fill="white"/>
<path d="M19.5578 184.835C18.715 184.835 17.9659 184.633 17.3104 184.229C16.6549 183.825 16.1399 183.238 15.7654 182.467C15.4002 181.688 15.2176 180.767 15.2176 179.705C15.2176 178.644 15.4002 177.728 15.7654 176.957C16.1399 176.178 16.6549 175.586 17.3104 175.182C17.9659 174.778 18.715 174.576 19.5578 174.576C20.3912 174.576 21.1356 174.778 21.7911 175.182C22.4466 175.586 22.9569 176.178 23.3221 176.957C23.6967 177.728 23.8839 178.644 23.8839 179.705C23.8839 180.767 23.6967 181.688 23.3221 182.467C22.9569 183.238 22.4466 183.825 21.7911 184.229C21.1356 184.633 20.3912 184.835 19.5578 184.835ZM19.5578 182.552C20.026 182.552 20.3959 182.327 20.6674 181.876C20.9483 181.415 21.0888 180.692 21.0888 179.705C21.0888 178.719 20.9483 178 20.6674 177.549C20.3959 177.089 20.026 176.859 19.5578 176.859C19.0802 176.859 18.701 177.089 18.4201 177.549C18.1485 178 18.0127 178.719 18.0127 179.705C18.0127 180.692 18.1485 181.415 18.4201 181.876C18.701 182.327 19.0802 182.552 19.5578 182.552Z" fill="white"/>
<path d="M29.4131 180.992C29.8527 180.992 30.2021 181.125 30.4615 181.389C30.7253 181.654 30.8571 182.053 30.8571 182.587V184.638H29.6043V182.792C29.6043 182.54 29.5559 182.355 29.4592 182.236C29.3669 182.117 29.235 182.058 29.0636 182.058C28.8745 182.058 28.7229 182.124 28.6086 182.256C28.4943 182.388 28.4371 182.589 28.4371 182.858V184.638H27.1843V182.792C27.1843 182.302 27.0041 182.058 26.6436 182.058C26.4502 182.058 26.2963 182.124 26.182 182.256C26.0677 182.388 26.0106 182.589 26.0106 182.858V184.638H24.7577V181.052H25.9512V181.429C26.0831 181.283 26.2391 181.175 26.4194 181.105C26.604 181.03 26.804 180.992 27.0194 180.992C27.27 180.992 27.4942 181.039 27.692 181.131C27.8898 181.224 28.0503 181.365 28.1734 181.555C28.3141 181.374 28.4921 181.235 28.7075 181.138C28.9229 181.041 29.1581 180.992 29.4131 180.992Z" fill="white"/>
<path d="M35.5437 181.052V183.983C35.5437 184.649 35.3635 185.147 35.003 185.478C34.6425 185.813 34.1238 185.981 33.4468 185.981C33.0952 185.981 32.7655 185.941 32.4577 185.862C32.15 185.782 31.8885 185.665 31.673 185.511L32.128 184.631C32.2731 184.75 32.4555 184.843 32.6753 184.909C32.8995 184.98 33.1193 185.015 33.3347 185.015C33.6644 185.015 33.9062 184.942 34.0601 184.796C34.2139 184.651 34.2909 184.435 34.2909 184.148V184.029C34.0491 184.311 33.6952 184.452 33.2292 184.452C32.9127 184.452 32.6204 184.382 32.3522 184.241C32.0841 184.095 31.8709 183.892 31.7126 183.632C31.5544 183.367 31.4752 183.063 31.4752 182.719C31.4752 182.379 31.5544 182.08 31.7126 181.819C31.8709 181.555 32.0841 181.352 32.3522 181.211C32.6204 181.065 32.9127 180.992 33.2292 180.992C33.7392 180.992 34.1128 181.158 34.3502 181.489V181.052H35.5437ZM33.526 183.453C33.7502 183.453 33.9348 183.385 34.0799 183.248C34.2293 183.112 34.3041 182.935 34.3041 182.719C34.3041 182.503 34.2315 182.329 34.0865 182.196C33.9414 182.06 33.7546 181.991 33.526 181.991C33.2974 181.991 33.1083 182.06 32.9589 182.196C32.8138 182.329 32.7413 182.503 32.7413 182.719C32.7413 182.935 32.816 183.112 32.9655 183.248C33.1149 183.385 33.3018 183.453 33.526 183.453Z" fill="white"/>
<path d="M8.2358 141.048H5.62891V139.138H13.2313V141.048H10.6366V147.654H8.2358V141.048Z" fill="#333333"/>
<path d="M20.9401 145.792V147.654H14.1258V139.138H20.7824V140.999H16.5023V142.435H20.2732V144.235H16.5023V145.792H20.9401Z" fill="#333333"/>
<path d="M25.2551 147.824C24.568 147.824 23.9011 147.739 23.2544 147.569C22.6078 147.398 22.0823 147.171 21.6782 146.887L22.4663 145.111C22.8462 145.363 23.2868 145.565 23.7879 145.719C24.2891 145.874 24.7822 145.951 25.2672 145.951C26.1887 145.951 26.6495 145.719 26.6495 145.257C26.6495 145.014 26.5161 144.835 26.2493 144.722C25.9907 144.6 25.5703 144.475 24.9883 144.345C24.3497 144.207 23.8162 144.061 23.3878 143.907C22.9594 143.745 22.5916 143.489 22.2844 143.14C21.9773 142.792 21.8237 142.321 21.8237 141.729C21.8237 141.21 21.9651 140.744 22.2481 140.33C22.531 139.909 22.9513 139.576 23.5091 139.333C24.0749 139.089 24.766 138.968 25.5825 138.968C26.1402 138.968 26.6899 139.033 27.2315 139.162C27.7731 139.284 28.25 139.467 28.6622 139.71L27.9226 141.498C27.1143 141.06 26.3302 140.841 25.5703 140.841C25.0934 140.841 24.7458 140.914 24.5276 141.06C24.3093 141.198 24.2002 141.381 24.2002 141.608C24.2002 141.835 24.3295 142.005 24.5882 142.119C24.8469 142.232 25.2632 142.35 25.8371 142.471C26.4838 142.609 27.0173 142.759 27.4376 142.921C27.866 143.076 28.2338 143.327 28.541 143.676C28.8562 144.016 29.0139 144.483 29.0139 145.075C29.0139 145.586 28.8724 146.048 28.5895 146.462C28.3066 146.875 27.8822 147.208 27.3163 147.459C26.7505 147.702 26.0634 147.824 25.2551 147.824Z" fill="#333333"/>
<path d="M35.8095 145.999H32.2205L31.5536 147.654H29.1043L32.851 139.138H35.2154L38.9742 147.654H36.4764L35.8095 145.999ZM35.1062 144.223L34.015 141.498L32.9237 144.223H35.1062Z" fill="#333333"/>
<path d="M47.3178 147.654L47.2936 143.14L45.1111 146.814H44.0441L41.8737 143.262V147.654H39.6548V139.138H41.6312L44.6139 144.053L47.524 139.138H49.5003L49.5246 147.654H47.3178Z" fill="#333333"/>
<path d="M55.5035 147.824C54.6062 147.824 53.7979 147.633 53.0785 147.252C52.3671 146.871 51.8053 146.344 51.3931 145.671C50.9889 144.998 50.7868 144.239 50.7868 143.396C50.7868 142.552 50.9889 141.794 51.3931 141.121C51.8053 140.448 52.3671 139.921 53.0785 139.54C53.7979 139.158 54.6062 138.968 55.5035 138.968C56.4008 138.968 57.2051 139.158 57.9164 139.54C58.6358 139.921 59.1976 140.448 59.6018 141.121C60.014 141.794 60.2202 142.552 60.2202 143.396C60.2202 144.239 60.014 144.998 59.6018 145.671C59.1976 146.344 58.6358 146.871 57.9164 147.252C57.2051 147.633 56.4008 147.824 55.5035 147.824ZM55.5035 145.829C55.9319 145.829 56.3199 145.728 56.6675 145.525C57.0151 145.322 57.2899 145.038 57.492 144.673C57.6941 144.3 57.7952 143.874 57.7952 143.396C57.7952 142.917 57.6941 142.496 57.492 142.131C57.2899 141.758 57.0151 141.47 56.6675 141.267C56.3199 141.064 55.9319 140.963 55.5035 140.963C55.0751 140.963 54.6871 141.064 54.3395 141.267C53.9919 141.47 53.7171 141.758 53.515 142.131C53.3129 142.496 53.2119 142.917 53.2119 143.396C53.2119 143.874 53.3129 144.3 53.515 144.673C53.7171 145.038 53.9919 145.322 54.3395 145.525C54.6871 145.728 55.0751 145.829 55.5035 145.829Z" fill="#333333"/>
<path d="M65.1879 145.391H63.8783V147.654H61.4776V139.138H65.3576C66.1255 139.138 66.7924 139.268 67.3582 139.527C67.9241 139.779 68.3606 140.144 68.6678 140.622C68.9749 141.093 69.1285 141.648 69.1285 142.289C69.1285 142.905 68.983 143.445 68.692 143.907C68.4091 144.361 68.0009 144.718 67.4674 144.977L69.2983 147.654H66.7277L65.1879 145.391ZM66.7035 142.289C66.7035 141.891 66.5782 141.583 66.3276 141.364C66.077 141.145 65.7052 141.036 65.2121 141.036H63.8783V143.53H65.2121C65.7052 143.53 66.077 143.424 66.3276 143.213C66.5782 142.994 66.7035 142.686 66.7035 142.289Z" fill="#333333"/>
<path d="M77.2673 145.792V147.654H70.453V139.138H77.1097V140.999H72.8295V142.435H76.6004V144.235H72.8295V145.792H77.2673Z" fill="#333333"/>
<path d="M78.5995 139.138H81.0003V145.744H85.0501V147.654H78.5995V139.138Z" fill="#333333"/>
<path d="M86.0001 139.138H88.4009V147.654H86.0001V139.138Z" fill="#333333"/>
<path d="M98.1842 139.138V147.654H96.2078L92.4612 143.116V147.654H90.1089V139.138H92.0853L95.832 143.676V139.138H98.1842Z" fill="#333333"/>
<path d="M95.9852 40.0845V50.5894C95.9852 57.133 94.6109 58.1665 87.3002 64.5375C78.3301 72.3543 76.0105 75.0424 76.0105 88.9777L75.8281 215.109C75.823 219.663 79.7481 223.356 84.5953 223.356H172.316C177.163 223.356 181.098 219.663 181.104 215.109C181.104 209.364 181.461 98.9671 181.461 88.4751C181.461 74.5399 178.786 72.3543 169.814 64.5375C162.501 58.1665 161.129 57.133 161.129 50.5894C161.129 45.7673 161.129 40.0845 161.129 40.0845H95.9852Z" fill="#DCF0FF"/>
<path d="M181.288 83.8253L181.104 215.108C181.098 219.665 177.163 223.356 172.316 223.356H84.5953C79.7481 223.356 75.823 219.662 75.8281 215.108L75.841 205.83C75.8281 215.168 76.7144 218.175 99.4761 218.175H164.437C176.654 218.175 174.312 216.838 174.337 197.789L174.497 83.8253C174.497 76.2481 172.827 72.2276 163.156 65.1118C153.484 57.996 154.514 54.2074 154.514 49.3853C154.514 44.5633 154.514 43.8751 141.814 43.8751H95.9877V39.7412H161.342V53.2074C161.342 59.3722 171.746 64.7664 177.207 71.5807C180.949 76.2481 181.294 79.6939 181.294 83.8253" fill="#3D9BE9"/>
<path d="M82.2402 31.6643L82.2556 20.1079H174.767L174.751 31.6849C174.746 36.324 170.865 40.0843 166.082 40.0843H90.9124C86.1191 40.0843 82.2351 36.3137 82.2428 31.6643H82.2402Z" fill="#3D9BE9"/>
<path d="M175.568 0.641602H82.5403C80.9708 0.641602 79.6967 2.07198 79.6941 3.83225L79.6787 16.4222C79.6787 18.1824 80.9503 19.6128 82.5172 19.6128H175.545C177.114 19.6128 178.388 18.1824 178.391 16.4222L178.406 3.83225C178.406 2.07198 177.135 0.641602 175.568 0.641602Z" fill="white"/>
<path d="M178.406 3.83239L178.391 16.4223C178.391 18.1826 177.114 19.6129 175.545 19.6129H82.5172C80.9477 19.6129 79.6761 18.1826 79.6787 16.4223L79.6839 12.7445C79.8072 16.3115 81.9649 16.0074 111.965 16.0074H166.829C173.829 16.0074 173.67 16.7651 173.68 8.03847C173.688 1.58758 171.481 0.63916 171.481 0.63916H175.568C177.137 0.63916 178.409 2.06954 178.406 3.82981V3.83239Z" fill="#3D9BE9"/>
<path d="M180.84 91.4028H76.1455V197.509H180.838V91.4028H180.84Z" fill="white"/>
<path d="M180.839 91.4028H174.422L174.237 197.333H180.834V91.4028H180.839Z" fill="#3D9BE9"/>
<path d="M180.944 91.4028H76.2471V128.943H180.944V91.4028Z" fill="#3D9BE9"/>
<path d="M180.838 91.4028V128.943H174.357L174.422 91.4028H180.838Z" fill="#333333"/>
<path d="M172.313 224H84.593C82.0062 224 79.5068 222.979 77.7344 221.198C76.0878 219.544 75.181 217.379 75.1836 215.106L75.366 88.9745C75.366 74.712 77.9424 71.8332 86.8766 64.0498L87.3981 63.5962C94.2849 57.6015 95.3432 56.6789 95.3432 50.5862V39.437H161.771V50.5862C161.771 56.6789 162.83 57.599 169.714 63.5937L170.51 64.2869C179.413 72.0445 182.1 74.3847 182.1 88.4694C182.1 94.5002 181.985 132.87 181.882 166.723C181.808 191.372 181.743 212.66 181.743 215.103C181.736 220.008 177.505 223.995 172.313 223.995V224ZM96.6276 40.7282V50.5888C96.6276 57.2691 95.1839 58.5268 88.2406 64.5705L87.7191 65.0241C78.9468 72.6682 76.6529 75.2351 76.6529 88.9771L76.4705 215.108C76.468 217.039 77.2412 218.876 78.6463 220.288C80.1773 221.827 82.3479 222.711 84.5955 222.711H172.316C176.804 222.711 180.456 219.299 180.462 215.106C180.462 212.662 180.526 191.374 180.6 166.723C180.703 132.87 180.819 94.5002 180.819 88.472C180.819 74.9749 178.458 72.9182 169.67 65.2611L168.874 64.5679C161.933 58.5242 160.487 57.2665 160.487 50.5862V40.7256H96.6276V40.7282Z" fill="#333333"/>
<path d="M181.479 198.15H75.5V90.5854H181.482V198.15H181.479ZM76.7844 196.861H180.195V91.8741H76.7869V196.861H76.7844Z" fill="#333333"/>
<path d="M166.082 40.7285H90.912C88.3663 40.7285 85.9902 39.7491 84.2178 37.9708C82.525 36.2698 81.5951 34.0302 81.5977 31.6643L81.6131 19.5073H175.409L175.393 31.6875C175.386 36.6745 171.209 40.7285 166.082 40.7285ZM82.8975 20.796L82.882 31.6669C82.8795 33.69 83.6758 35.6049 85.1271 37.0611C86.6555 38.5971 88.708 39.4425 90.912 39.4425H166.082C170.502 39.4425 174.104 35.9631 174.109 31.6875L174.124 20.7985H82.8975V20.796Z" fill="#333333"/>
<path d="M175.547 20.2598H82.5194C81.6486 20.2598 80.8163 19.9042 80.1715 19.2599C79.4497 18.5331 79.0361 17.4996 79.0361 16.4249L79.0516 3.83496C79.0516 1.72161 80.6185 0 82.5399 0H175.567C176.438 0 177.271 0.355663 177.913 0.999978C178.635 1.72677 179.048 2.76025 179.048 3.83496L179.033 16.4249C179.033 18.5382 177.466 20.2598 175.544 20.2598H175.547ZM82.5399 1.28605C81.3249 1.28605 80.3359 2.42778 80.3359 3.83496L80.3205 16.4249C80.3205 17.162 80.5954 17.863 81.0809 18.3475C81.4816 18.7496 81.9902 18.9712 82.5194 18.9712H175.547C176.762 18.9712 177.751 17.8295 177.751 16.4223L177.766 3.83239C177.766 3.09529 177.491 2.39427 177.006 1.90974C176.605 1.50769 176.097 1.28605 175.567 1.28605H82.5399Z" fill="#333333"/>
<path d="M181.867 129.487H75.5V90.5854H181.867V129.487ZM76.7844 128.198H180.583V91.8741H76.7869V128.198H76.7844Z" fill="#333333"/>
<path d="M125.554 102.101C125.554 104.441 124.059 105.895 121.675 105.895H119.874V108.791H117.807V98.2891H121.675C124.059 98.2891 125.554 99.7478 125.554 102.101ZM123.46 102.101C123.46 100.944 122.823 100.268 121.557 100.268H119.874V103.915H121.557C122.823 103.92 123.46 103.245 123.46 102.101Z" fill="white"/>
<path d="M133.936 106.846V108.797H127.021V98.2891H133.769V100.24H129.073V102.524H133.219V104.413H129.073V106.846H133.933H133.936Z" fill="white"/>
<path d="M143.327 102.101C143.327 104.441 141.832 105.895 139.449 105.895H137.648V108.791H135.58V98.2891H139.449C141.832 98.2891 143.327 99.7478 143.327 102.101ZM141.234 102.101C141.234 100.944 140.597 100.268 139.33 100.268H137.648V103.915H139.33C140.594 103.92 141.234 103.245 141.234 102.101Z" fill="white"/>
<path d="M146.402 100.271H143.546V98.2915H151.332V100.271H148.475V108.799H146.407V100.271H146.402Z" fill="white"/>
<path d="M152.436 98.2891H154.503V108.797H152.436V98.2891Z" fill="white"/>
<path d="M156.62 98.2891H160.679C163.602 98.2891 165.603 100.361 165.603 103.544C165.603 106.727 163.599 108.799 160.679 108.799H156.62V98.2916V98.2891ZM160.576 106.799C162.351 106.799 163.51 105.552 163.51 103.542C163.51 101.531 162.346 100.284 160.576 100.284H158.688V106.797H160.576V106.799Z" fill="white"/>
<path d="M174.081 106.846V108.797H167.166V98.2891H173.914V100.24H169.218V102.524H173.364V104.413H169.218V106.846H174.079H174.081Z" fill="white"/>
<path d="M117.807 121.641L118.172 120.765C118.799 121.518 119.921 122.077 121.075 122.077C122.724 122.077 123.435 121.231 123.435 120.167C123.435 117.203 118.02 119.025 118.02 115.036C118.02 113.448 119.027 112.08 121.265 112.08C122.256 112.08 123.286 112.433 123.99 113.038L123.674 113.951C122.922 113.35 122.041 113.056 121.265 113.056C119.654 113.056 118.94 113.933 118.94 115.015C118.94 117.979 124.355 116.185 124.355 120.118C124.355 121.706 123.325 123.064 121.077 123.064C119.754 123.051 118.457 122.481 117.805 121.646L117.807 121.641Z" fill="white"/>
<path d="M133.725 112.16V122.953H132.806V117.974H127.301V122.953H126.371V112.16H127.301V116.969H132.806V112.16H133.725Z" fill="white"/>
<path d="M135.812 117.556C135.812 114.412 137.772 112.067 140.436 112.067C143.1 112.067 145.045 114.394 145.045 117.556C145.045 120.719 143.072 123.046 140.436 123.046C137.801 123.046 135.812 120.701 135.812 117.556ZM144.115 117.556C144.115 114.982 142.543 113.088 140.436 113.088C138.33 113.088 136.727 114.987 136.727 117.556C136.727 120.126 138.307 122.025 140.436 122.025C142.566 122.025 144.115 120.134 144.115 117.556Z" fill="white"/>
<path d="M154.016 115.863C154.016 118.162 152.66 119.549 150.422 119.549H148.062V122.958H147.132V112.16H150.422C152.655 112.16 154.016 113.546 154.016 115.863ZM153.081 115.863C153.081 114.134 152.151 113.147 150.394 113.147H148.057V118.544H150.394C152.151 118.544 153.081 117.556 153.081 115.863Z" fill="white"/>
<path d="M100.325 109.634C100.325 112.389 98.0983 114.623 95.3523 114.623C94.5174 114.623 93.698 114.412 92.9659 114.01C92.5112 113.76 92.1002 113.44 91.7432 113.064C89.8603 111.061 89.9501 107.907 91.9435 106.018C92.0103 105.956 92.0771 105.894 92.1464 105.837C92.5266 105.51 92.9556 105.239 93.4154 105.041C95.5783 104.126 98.0828 104.85 99.4289 106.778C99.8116 107.327 100.081 107.951 100.217 108.608C100.289 108.946 100.325 109.291 100.325 109.636V109.634Z" fill="white"/>
<path d="M90.2423 117.378C89.8981 116.973 89.4666 116.654 88.9785 116.443L88.9605 116.435C87.1881 115.672 85.1356 116.497 84.3753 118.275C83.6149 120.053 84.4369 122.113 86.2094 122.875C87.9818 123.638 90.0343 122.814 90.7946 121.035C91.3186 119.811 91.1029 118.394 90.2398 117.381L90.2423 117.378Z" fill="white"/>
<path d="M91.0571 97.3274C90.027 96.2939 88.3573 96.2939 87.3272 97.3274C86.2972 98.3608 86.2972 100.036 87.3272 101.07C88.3573 102.103 90.027 102.103 91.0571 101.07L91.0622 101.064C92.0871 100.031 92.0846 98.3583 91.0571 97.3274Z" fill="white"/>
<path d="M110.202 101.873C108.669 100.335 106.18 100.335 104.646 101.873C103.786 102.737 103.372 103.953 103.529 105.164C103.529 105.18 103.529 105.193 103.534 105.208C103.621 105.837 103.858 106.432 104.225 106.948C104.235 106.961 104.245 106.974 104.253 106.986C104.371 107.149 104.502 107.301 104.644 107.443C106.18 108.984 108.666 108.984 110.202 107.443C111.738 105.901 111.738 103.407 110.202 101.865V101.873Z" fill="white"/>
<path d="M92.9623 114.007C92.5076 113.757 92.0966 113.438 91.7396 113.062C91.7807 113.116 92.0324 113.556 90.8123 115.103C89.6435 116.587 89.0835 116.482 88.9756 116.443C89.4611 116.654 89.8952 116.974 90.2394 117.378C90.224 117.342 90.0314 116.842 91.1667 115.409C92.3458 113.922 92.9649 114.01 92.9649 114.01H92.9623V114.007Z" fill="white"/>
<path d="M91.9066 103.376C90.8611 101.626 91.0769 101.056 91.0769 101.056L91.064 101.064L91.0589 101.069C90.7558 101.373 90.3807 101.6 89.9697 101.726C89.9877 101.726 90.4475 101.744 91.475 103.546C92.4923 105.334 92.1609 105.798 92.1429 105.822C92.5256 105.497 92.9521 105.231 93.4144 105.035C93.4144 105.035 92.9546 105.123 91.9066 103.373V103.376Z" fill="white"/>
<path d="M103.533 105.208C103.544 105.384 103.464 106.059 101.848 106.701C100.047 107.415 99.4695 106.827 99.4258 106.778C99.8085 107.327 100.078 107.951 100.214 108.608C100.209 108.562 100.171 107.899 102.02 107.139C103.626 106.479 104.106 106.819 104.219 106.951C103.852 106.435 103.615 105.837 103.531 105.211L103.533 105.208Z" fill="white"/>
<path d="M103.006 119.654C103.91 119.654 104.643 118.919 104.643 118.012C104.643 117.105 103.91 116.37 103.006 116.37C102.103 116.37 101.37 117.105 101.37 118.012C101.37 118.919 102.103 119.654 103.006 119.654Z" fill="white"/>
<path d="M84.4499 111.209C85.8714 111.209 87.0238 110.053 87.0238 108.626C87.0238 107.2 85.8714 106.044 84.4499 106.044C83.0283 106.044 81.876 107.2 81.876 108.626C81.876 110.053 83.0283 111.209 84.4499 111.209Z" fill="white"/>
<path d="M98.4061 102.062C98.9594 102.062 99.4079 101.612 99.4079 101.057C99.4079 100.502 98.9594 100.052 98.4061 100.052C97.8528 100.052 97.4043 100.502 97.4043 101.057C97.4043 101.612 97.8528 102.062 98.4061 102.062Z" fill="white"/>
<path d="M119.328 171.821H80.1953V193.173H119.328V171.821Z" fill="#3D9BE9"/>
<path d="M119.97 193.82H79.5527V171.179H119.97V193.82ZM80.8371 192.532H118.685V172.468H80.8371V192.532Z" fill="#333333"/>
<path d="M82.2402 30.8058C82.2402 34.5737 85.1711 36.6407 95.8135 36.6407H164.124C169.275 36.6407 171.373 33.1975 171.373 30.097V22.5199H82.2505V20.1514H174.764V30.097C174.764 35.6072 172.154 40.0839 166.079 40.0839H92.3791C85.1711 40.0839 83.4552 36.2953 82.7668 34.9165C82.0784 33.5377 82.2376 30.8032 82.2376 30.8032L82.2402 30.8058Z" fill="#333333"/>
<path d="M85.4709 23.8965H84.1865V33.1953H85.4709V23.8965Z" fill="white"/>
<path d="M79.4631 95.0181H78.1787V124.992H79.4631V95.0181Z" fill="white"/>
<path d="M79.4631 200.099H78.1787V211.663H79.4631V200.099Z" fill="white"/>
<path d="M79.4631 87.3895H78.1787C78.1787 81.0236 78.9442 75.4954 88.5616 67.2095L88.613 67.1657C97.6268 59.4004 98.7853 58.4004 98.7853 49.8311H100.07C100.07 58.9932 98.4488 60.3901 89.4504 68.1425L89.399 68.1863C80.1772 76.132 79.4631 81.1576 79.4631 87.3895Z" fill="white"/>
<path d="M89.8851 176.855V187.671H86.8359V179.219H84.834V176.855H89.8851Z" fill="white"/>
<path d="M96.2648 187.887C95.3408 187.887 94.5195 187.666 93.8008 187.223C93.0822 186.78 92.5175 186.136 92.1069 185.292C91.7065 184.437 91.5063 183.427 91.5063 182.263C91.5063 181.099 91.7065 180.095 92.1069 179.25C92.5175 178.395 93.0822 177.746 93.8008 177.304C94.5195 176.861 95.3408 176.639 96.2648 176.639C97.1785 176.639 97.9947 176.861 98.7133 177.304C99.432 177.746 99.9915 178.395 100.392 179.25C100.803 180.095 101.008 181.099 101.008 182.263C101.008 183.427 100.803 184.437 100.392 185.292C99.9915 186.136 99.432 186.78 98.7133 187.223C97.9947 187.666 97.1785 187.887 96.2648 187.887ZM96.2648 185.384C96.7781 185.384 97.1836 185.137 97.4813 184.643C97.7893 184.138 97.9433 183.345 97.9433 182.263C97.9433 181.182 97.7893 180.394 97.4813 179.899C97.1836 179.395 96.7781 179.142 96.2648 179.142C95.7412 179.142 95.3254 179.395 95.0174 179.899C94.7197 180.394 94.5708 181.182 94.5708 182.263C94.5708 183.345 94.7197 184.138 95.0174 184.643C95.3254 185.137 95.7412 185.384 96.2648 185.384Z" fill="white"/>
<path d="M107.071 183.673C107.553 183.673 107.936 183.819 108.221 184.109C108.51 184.399 108.655 184.837 108.655 185.422V187.671H107.281V185.647C107.281 185.371 107.228 185.168 107.122 185.037C107.02 184.907 106.876 184.841 106.688 184.841C106.481 184.841 106.314 184.914 106.189 185.059C106.064 185.204 106.001 185.424 106.001 185.719V187.671H104.627V185.647C104.627 185.11 104.429 184.841 104.034 184.841C103.822 184.841 103.653 184.914 103.528 185.059C103.403 185.204 103.34 185.424 103.34 185.719V187.671H101.966V183.739H103.275V184.152C103.419 183.993 103.591 183.874 103.788 183.797C103.991 183.715 104.21 183.673 104.446 183.673C104.721 183.673 104.967 183.724 105.184 183.826C105.401 183.927 105.577 184.082 105.712 184.29C105.866 184.092 106.061 183.939 106.297 183.833C106.534 183.727 106.791 183.673 107.071 183.673Z" fill="white"/>
<path d="M113.794 183.739V186.953C113.794 187.683 113.596 188.23 113.201 188.592C112.806 188.96 112.237 189.144 111.495 189.144C111.109 189.144 110.747 189.1 110.41 189.013C110.072 188.926 109.786 188.798 109.549 188.629L110.048 187.664C110.207 187.794 110.407 187.896 110.649 187.968C110.894 188.046 111.135 188.084 111.372 188.084C111.733 188.084 111.998 188.005 112.167 187.845C112.336 187.685 112.42 187.448 112.42 187.134V187.003C112.155 187.313 111.767 187.468 111.256 187.468C110.909 187.468 110.588 187.39 110.294 187.236C110 187.076 109.766 186.854 109.593 186.568C109.419 186.278 109.332 185.944 109.332 185.567C109.332 185.195 109.419 184.866 109.593 184.58C109.766 184.29 110 184.068 110.294 183.913C110.588 183.753 110.909 183.673 111.256 183.673C111.815 183.673 112.225 183.855 112.485 184.218V183.739H113.794ZM111.581 186.372C111.827 186.372 112.03 186.297 112.189 186.147C112.353 185.997 112.435 185.804 112.435 185.567C112.435 185.33 112.355 185.139 112.196 184.994C112.037 184.844 111.832 184.769 111.581 184.769C111.331 184.769 111.123 184.844 110.959 184.994C110.8 185.139 110.721 185.33 110.721 185.567C110.721 185.804 110.803 185.997 110.967 186.147C111.131 186.297 111.335 186.372 111.581 186.372Z" fill="white"/>
<path d="M87.3307 147.17C86.3719 147.17 85.509 146.969 84.7419 146.566C83.9835 146.155 83.3865 145.587 82.9506 144.861C82.5148 144.135 82.2969 143.313 82.2969 142.395C82.2969 141.476 82.5148 140.654 82.9506 139.928C83.3865 139.203 83.9835 138.638 84.7419 138.236C85.509 137.825 86.3719 137.62 87.3307 137.62C88.1675 137.62 88.9215 137.768 89.5927 138.066C90.2639 138.363 90.8218 138.792 91.2663 139.351L89.6189 140.847C89.0261 140.13 88.307 139.771 87.4615 139.771C86.9646 139.771 86.5201 139.88 86.1278 140.099C85.7443 140.318 85.4436 140.628 85.2257 141.03C85.0165 141.424 84.9119 141.879 84.9119 142.395C84.9119 142.911 85.0165 143.37 85.2257 143.772C85.4436 144.166 85.7443 144.472 86.1278 144.69C86.5201 144.909 86.9646 145.018 87.4615 145.018C88.307 145.018 89.0261 144.66 89.6189 143.943L91.2663 145.438C90.8218 145.998 90.2639 146.426 89.5927 146.724C88.9215 147.021 88.1675 147.17 87.3307 147.17Z" fill="#333333"/>
<path d="M94.4211 147.17C93.7499 147.17 93.1397 147.056 92.5906 146.829C92.0414 146.593 91.5925 146.256 91.2438 145.819L92.6559 144.139C93.1441 144.778 93.6714 145.097 94.238 145.097C94.6128 145.097 94.8961 144.983 95.0879 144.756C95.2884 144.529 95.3886 144.196 95.3886 143.759V139.81H92.2245V137.803H97.9513V143.602C97.9513 144.791 97.6506 145.683 97.0491 146.278C96.4564 146.872 95.5804 147.17 94.4211 147.17Z" fill="#333333"/>
<path d="M104.262 147.17C103.303 147.17 102.44 146.969 101.673 146.566C100.915 146.155 100.318 145.587 99.8817 144.861C99.4459 144.135 99.2279 143.313 99.2279 142.395C99.2279 141.476 99.4459 140.654 99.8817 139.928C100.318 139.203 100.915 138.638 101.673 138.236C102.44 137.825 103.303 137.62 104.262 137.62C105.099 137.62 105.853 137.768 106.524 138.066C107.195 138.363 107.753 138.792 108.197 139.351L106.55 140.847C105.957 140.13 105.238 139.771 104.393 139.771C103.896 139.771 103.451 139.88 103.059 140.099C102.675 140.318 102.375 140.628 102.157 141.03C101.948 141.424 101.843 141.879 101.843 142.395C101.843 142.911 101.948 143.37 102.157 143.772C102.375 144.166 102.675 144.472 103.059 144.69C103.451 144.909 103.896 145.018 104.393 145.018C105.238 145.018 105.957 144.66 106.55 143.943L108.197 145.438C107.753 145.998 107.195 146.426 106.524 146.724C105.853 147.021 105.099 147.17 104.262 147.17Z" fill="#333333"/>
<path d="M108.962 142.29H112.78V144.205H108.962V142.29Z" fill="#333333"/>
<path d="M117.464 137.803V146.986H114.875V139.81H113.175V137.803H117.464Z" fill="#333333"/>
<path d="M125.914 144.926V146.986H118.788V145.359L122.214 142.145C122.545 141.831 122.767 141.564 122.881 141.345C122.994 141.118 123.051 140.89 123.051 140.663C123.051 140.366 122.95 140.134 122.75 139.968C122.549 139.802 122.257 139.719 121.874 139.719C121.534 139.719 121.22 139.797 120.932 139.955C120.653 140.103 120.422 140.322 120.239 140.611L118.317 139.535C118.675 138.94 119.176 138.472 119.821 138.131C120.466 137.79 121.229 137.62 122.109 137.62C122.806 137.62 123.421 137.733 123.953 137.961C124.493 138.188 124.912 138.516 125.208 138.945C125.513 139.364 125.666 139.854 125.666 140.414C125.666 140.912 125.557 141.385 125.339 141.831C125.129 142.268 124.72 142.766 124.11 143.326L122.384 144.926H125.914Z" fill="#333333"/>
<path d="M130.015 137.62C131.331 137.62 132.368 138.009 133.127 138.787C133.885 139.566 134.264 140.685 134.264 142.145C134.264 143.195 134.059 144.1 133.65 144.861C133.249 145.613 132.678 146.186 131.937 146.579C131.205 146.973 130.355 147.17 129.387 147.17C128.873 147.17 128.38 147.108 127.91 146.986C127.439 146.872 127.038 146.711 126.707 146.501L127.648 144.638C128.093 144.953 128.655 145.11 129.335 145.11C129.989 145.11 130.516 144.931 130.917 144.572C131.327 144.205 131.566 143.676 131.636 142.985C131.113 143.431 130.429 143.654 129.583 143.654C129.008 143.654 128.481 143.536 128.001 143.3C127.522 143.055 127.138 142.714 126.851 142.277C126.572 141.831 126.432 141.323 126.432 140.755C126.432 140.134 126.589 139.587 126.903 139.115C127.225 138.634 127.657 138.267 128.197 138.013C128.746 137.751 129.352 137.62 130.015 137.62ZM130.198 141.791C130.573 141.791 130.878 141.686 131.113 141.476C131.348 141.258 131.466 140.974 131.466 140.624C131.466 140.283 131.348 140.007 131.113 139.797C130.886 139.579 130.577 139.469 130.185 139.469C129.819 139.469 129.518 139.574 129.283 139.784C129.056 139.994 128.943 140.278 128.943 140.637C128.943 140.987 129.056 141.267 129.283 141.476C129.518 141.686 129.823 141.791 130.198 141.791Z" fill="#333333"/>
<path d="M138.584 141.148C139.866 141.148 140.811 141.411 141.421 141.936C142.04 142.46 142.35 143.16 142.35 144.034C142.35 144.603 142.202 145.128 141.905 145.609C141.618 146.081 141.173 146.461 140.572 146.75C139.979 147.03 139.242 147.17 138.362 147.17C137.717 147.17 137.076 147.091 136.44 146.934C135.812 146.776 135.272 146.553 134.819 146.265L135.747 144.31C136.113 144.555 136.514 144.743 136.95 144.874C137.394 145.005 137.839 145.071 138.283 145.071C138.728 145.071 139.081 144.988 139.343 144.822C139.613 144.647 139.748 144.406 139.748 144.1C139.748 143.794 139.617 143.562 139.356 143.405C139.094 143.247 138.632 143.169 137.97 143.169H135.485L135.943 137.803H141.775V139.81H138.087L137.97 141.148H138.584Z" fill="#333333"/>
</svg>
