<svg width="424" height="366" viewBox="0 0 424 366" fill="none" xmlns="http://www.w3.org/2000/svg">
<path d="M308.077 96.21V110.275C308.077 119.038 306.236 120.419 296.432 128.951C284.404 139.42 281.299 143.016 281.299 161.675L281.051 330.564C281.042 336.661 286.304 341.609 292.805 341.609H410.411C416.913 341.609 422.187 336.666 422.195 330.564C422.195 322.87 422.674 175.045 422.674 161.001C422.674 142.342 419.09 139.415 407.062 128.951C397.258 120.419 395.417 119.034 395.417 110.275C395.417 103.819 395.417 96.21 395.417 96.21H308.077Z" fill="#DCF0FF"/>
<path d="M422.443 154.778L422.195 330.568C422.187 336.67 416.913 341.614 410.411 341.614H292.805C286.304 341.614 281.042 336.67 281.051 330.568L281.068 318.146C281.051 330.648 282.236 334.678 312.754 334.678H399.851C416.232 334.678 413.088 332.888 413.126 307.382L413.341 154.782C413.341 144.637 411.105 139.251 398.136 129.722C385.167 120.192 386.55 115.118 386.55 108.662C386.55 102.207 386.55 101.284 369.521 101.284H308.081V95.7511H395.703V113.783C395.703 122.041 409.651 129.263 416.972 138.384C421.989 144.633 422.447 149.248 422.447 154.782" fill="#3D9BE9"/>
<path d="M289.649 84.9371L289.67 69.4614H413.702L413.681 84.9624C413.673 91.1737 408.47 96.2101 402.057 96.2101H301.273C294.848 96.2101 289.641 91.161 289.649 84.9371Z" fill="#3D9BE9"/>
<path d="M414.774 43.3949H290.049C287.948 43.3949 286.233 45.3109 286.233 47.6691L286.212 64.5302C286.212 66.8884 287.914 68.8044 290.019 68.8044H414.74C416.842 68.8044 418.556 66.8884 418.556 64.5302L418.577 47.6691C418.577 45.3109 416.875 43.3949 414.77 43.3949H414.774Z" fill="white"/>
<path d="M418.581 47.6691L418.56 64.5302C418.56 66.8884 416.846 68.8044 414.744 68.8044H290.023C287.922 68.8044 286.212 66.8884 286.216 64.5302V59.6075C286.388 64.3828 289.279 63.9785 329.501 63.9785H403.057C412.446 63.9785 412.231 64.9934 412.244 53.3077C412.252 44.6708 409.294 43.399 409.294 43.399H414.774C416.875 43.399 418.585 45.3151 418.581 47.6733V47.6691Z" fill="#3D9BE9"/>
<path d="M421.843 164.926H281.476V307.003H421.838V164.926H421.843Z" fill="white"/>
<path d="M421.841 164.926H413.238L412.99 306.771H421.836V164.926H421.841Z" fill="#3D9BE9"/>
<path d="M421.984 164.926H281.613V215.193H421.984V164.926Z" fill="#3D9BE9"/>
<path d="M421.841 164.926V215.193H413.15L413.239 164.926H421.841Z" fill="#333333"/>
<path d="M410.411 342.667H292.805C289.287 342.667 285.883 341.281 283.475 338.86C281.231 336.607 279.996 333.663 280 330.568L280.248 161.675C280.248 142.494 283.715 138.624 295.742 128.155L296.44 127.549C305.614 119.569 307.026 118.343 307.026 110.275V95.1573H396.467V110.275C396.467 118.343 397.88 119.573 407.054 127.549L408.121 128.479C419.795 138.637 423.725 142.056 423.725 161.006C423.725 169.082 423.569 220.457 423.431 265.79C423.33 298.796 423.246 327.3 423.246 330.572C423.237 337.243 417.48 342.671 410.411 342.671V342.667ZM309.127 97.2629V110.275C309.127 119.304 306.955 121.194 297.819 129.141L297.121 129.747C285.413 139.938 282.349 143.357 282.349 161.675L282.101 330.568C282.101 333.099 283.114 335.516 284.963 337.369C286.98 339.395 289.842 340.557 292.805 340.557H410.411C416.32 340.557 421.136 336.072 421.144 330.564C421.144 327.292 421.233 298.783 421.329 265.777C421.468 220.449 421.623 169.074 421.623 161.001C421.623 143.016 418.472 140.27 406.743 130.067L405.675 129.141C396.539 121.194 394.366 119.304 394.366 110.275V97.2629H309.127Z" fill="#333333"/>
<path d="M422.888 308.056H280.42V163.642H422.892V308.056H422.888ZM282.521 305.951H420.787V165.747H282.525V305.951H282.521Z" fill="#333333"/>
<path d="M402.052 97.2626H301.272C297.81 97.2626 294.574 95.9319 292.166 93.5148C289.863 91.2029 288.593 88.1541 288.598 84.9369L288.619 68.4674H414.752L414.731 84.9664C414.722 91.7462 409.036 97.2626 402.056 97.2626H402.052ZM290.716 70.5729L290.699 84.9369C290.699 87.594 291.745 90.1123 293.653 92.0241C295.666 94.0412 298.373 95.1571 301.272 95.1571H402.052C407.877 95.1571 412.617 90.5839 412.625 84.9621L412.642 70.5729H290.712H290.716Z" fill="#333333"/>
<path d="M414.744 69.8532H290.023C288.804 69.8532 287.64 69.3563 286.741 68.4593C285.737 67.4529 285.161 66.0169 285.165 64.5262L285.186 47.6651C285.186 44.73 287.371 42.3381 290.053 42.3381H414.778C415.997 42.3381 417.161 42.835 418.06 43.732C419.064 44.7384 419.64 46.1744 419.636 47.6651L419.615 64.5262C419.615 67.4613 417.43 69.8532 414.748 69.8532H414.744ZM290.048 44.4479C288.527 44.4479 287.283 45.8922 287.283 47.6693L287.262 64.5304C287.262 65.4653 287.611 66.358 288.224 66.9728C288.725 67.4739 289.363 67.7519 290.019 67.7519H414.74C416.261 67.7519 417.505 66.3075 417.505 64.5304L417.526 47.6693C417.526 46.7344 417.178 45.8417 416.564 45.2269C416.064 44.7258 415.425 44.4479 414.769 44.4479H290.044H290.048Z" fill="#333333"/>
<path d="M423.409 216.112H280.424V163.642H423.409V216.112ZM282.525 214.006H421.308V165.747H282.525V214.006Z" fill="#333333"/>
<path d="M347.72 179.252C347.72 182.385 345.716 184.335 342.522 184.335H340.11V188.213H337.336V174.148H342.522C345.72 174.148 347.72 176.102 347.72 179.252ZM344.913 179.252C344.913 177.702 344.06 176.801 342.362 176.801H340.105V181.682H342.362C344.06 181.69 344.913 180.785 344.913 179.252Z" fill="white"/>
<path d="M358.958 185.607V188.222H349.688V174.152H358.735V176.768H352.44V179.825H358V182.356H352.44V185.611H358.958V185.607Z" fill="white"/>
<path d="M371.548 179.252C371.548 182.385 369.544 184.335 366.35 184.335H363.938V188.213H361.164V174.148H366.35C369.548 174.148 371.548 176.102 371.548 179.252ZM368.741 179.252C368.741 177.702 367.888 176.801 366.19 176.801H363.934V181.682H366.19C367.888 181.69 368.741 180.785 368.741 179.252Z" fill="white"/>
<path d="M375.676 176.801H371.848V174.148H382.287V176.801H378.458V188.222H375.685V176.801H375.676Z" fill="white"/>
<path d="M383.762 174.148H386.535V188.217H383.762V174.148Z" fill="white"/>
<path d="M389.369 174.148H394.811C398.732 174.148 401.413 176.923 401.413 181.185C401.413 185.447 398.724 188.222 394.811 188.222H389.369V174.152V174.148ZM394.673 185.543C397.055 185.543 398.606 183.872 398.606 181.181C398.606 178.49 397.047 176.818 394.673 176.818H392.143V185.539H394.673V185.543Z" fill="white"/>
<path d="M412.779 185.607V188.222H403.508V174.152H412.556V176.768H406.26V179.825H411.82V182.356H406.26V185.611H412.779V185.607Z" fill="white"/>
<path d="M337.332 205.42L337.82 204.245C338.66 205.251 340.164 206.001 341.711 206.001C343.922 206.001 344.88 204.868 344.88 203.44C344.88 199.474 337.622 201.912 337.622 196.568C337.622 194.441 338.971 192.609 341.972 192.609C343.3 192.609 344.682 193.081 345.628 193.894L345.203 195.115C344.195 194.311 343.014 193.919 341.972 193.919C339.811 193.919 338.858 195.094 338.858 196.538C338.858 200.505 346.115 198.105 346.115 203.373C346.115 205.5 344.733 207.319 341.724 207.319C339.95 207.302 338.21 206.54 337.336 205.424L337.332 205.42Z" fill="white"/>
<path d="M358.675 192.719V207.172H357.444V200.505H350.065V207.172H348.816V192.719H350.065V199.158H357.444V192.719H358.675Z" fill="white"/>
<path d="M361.469 199.945C361.469 195.734 364.095 192.593 367.667 192.593C371.24 192.593 373.845 195.709 373.845 199.945C373.845 204.182 371.197 207.298 367.667 207.298C364.137 207.298 361.469 204.156 361.469 199.945ZM372.601 199.945C372.601 196.497 370.496 193.961 367.667 193.961C364.839 193.961 362.696 196.505 362.696 199.945C362.696 203.386 364.814 205.929 367.667 205.929C370.521 205.929 372.601 203.394 372.601 199.945Z" fill="white"/>
<path d="M385.879 197.68C385.879 200.758 384.06 202.615 381.063 202.615H377.895V207.18H376.646V192.719H381.059C384.051 192.719 385.875 194.576 385.875 197.68H385.879ZM384.627 197.68C384.627 195.364 383.379 194.042 381.025 194.042H377.89V201.268H381.025C383.383 201.268 384.627 199.945 384.627 197.68Z" fill="white"/>
<path d="M313.898 189.338C313.898 193.027 310.91 196.016 307.229 196.016C306.111 196.016 305.01 195.734 304.031 195.195C303.422 194.863 302.871 194.433 302.392 193.928C299.866 191.245 299.988 187.022 302.661 184.491C302.749 184.406 302.837 184.326 302.93 184.246C303.438 183.809 304.014 183.446 304.632 183.181C307.532 181.956 310.889 182.924 312.692 185.51C313.205 186.247 313.566 187.08 313.751 187.961C313.848 188.415 313.894 188.874 313.894 189.338H313.898Z" fill="white"/>
<path d="M300.378 199.71C299.916 199.171 299.336 198.741 298.685 198.459L298.66 198.451C296.281 197.431 293.528 198.531 292.511 200.914C291.494 203.297 292.591 206.056 294.97 207.075C297.348 208.094 300.101 206.995 301.118 204.611C301.82 202.969 301.534 201.074 300.374 199.718L300.378 199.71Z" fill="white"/>
<path d="M301.471 172.86C300.089 171.479 297.849 171.479 296.47 172.86C295.092 174.245 295.092 176.49 296.47 177.871C297.853 179.252 300.089 179.252 301.471 177.871L301.48 177.863C302.854 176.477 302.85 174.237 301.471 172.856V172.86Z" fill="white"/>
<path d="M327.14 178.949C325.081 176.89 321.748 176.89 319.689 178.949C318.534 180.107 317.983 181.733 318.189 183.354C318.189 183.354 318.189 183.392 318.193 183.413C318.311 184.255 318.63 185.055 319.122 185.742C319.134 185.758 319.147 185.775 319.16 185.796C319.319 186.011 319.492 186.217 319.681 186.407C321.74 188.47 325.077 188.47 327.132 186.407C329.191 184.343 329.191 181 327.132 178.941V178.949H327.14Z" fill="white"/>
<path d="M304.026 195.195C303.417 194.863 302.866 194.433 302.387 193.928C302.442 193.999 302.778 194.589 301.143 196.661C299.576 198.648 298.824 198.505 298.681 198.455C299.332 198.737 299.912 199.166 300.374 199.705C300.353 199.655 300.097 198.985 301.618 197.069C303.198 195.077 304.03 195.195 304.03 195.195H304.026Z" fill="white"/>
<path d="M302.61 180.958C301.206 178.616 301.5 177.85 301.5 177.85L301.483 177.862L301.475 177.871C301.067 178.279 300.567 178.583 300.017 178.751C300.038 178.751 300.66 178.772 302.034 181.189C303.4 183.585 302.954 184.204 302.929 184.238C303.442 183.804 304.013 183.446 304.631 183.185C304.631 183.185 304.013 183.303 302.61 180.962V180.958Z" fill="white"/>
<path d="M318.197 183.413C318.21 183.649 318.105 184.554 315.941 185.409C313.528 186.365 312.755 185.577 312.696 185.51C313.209 186.247 313.57 187.081 313.755 187.961C313.747 187.897 313.696 187.013 316.176 185.994C318.328 185.11 318.971 185.569 319.126 185.741C318.634 185.051 318.319 184.251 318.202 183.413H318.197Z" fill="white"/>
<path d="M317.492 202.754C318.703 202.754 319.685 201.77 319.685 200.556C319.685 199.342 318.703 198.358 317.492 198.358C316.28 198.358 315.298 199.342 315.298 200.556C315.298 201.77 316.28 202.754 317.492 202.754Z" fill="white"/>
<path d="M292.612 191.447C294.518 191.447 296.063 189.9 296.063 187.99C296.063 186.081 294.518 184.533 292.612 184.533C290.707 184.533 289.162 186.081 289.162 187.99C289.162 189.9 290.707 191.447 292.612 191.447Z" fill="white"/>
<path d="M311.326 179.202C312.069 179.202 312.671 178.598 312.671 177.854C312.671 177.11 312.069 176.507 311.326 176.507C310.584 176.507 309.981 177.11 309.981 177.854C309.981 178.598 310.584 179.202 311.326 179.202Z" fill="white"/>
<path d="M339.373 272.607H286.905V301.2H339.373V272.607Z" fill="#3D9BE9"/>
<path d="M340.424 302.253H285.854V271.554H340.424V302.253ZM287.956 300.147H338.322V273.66H287.956V300.147Z" fill="#333333"/>
<path d="M289.649 83.7832C289.649 88.828 293.579 91.5947 307.846 91.5947H399.431C406.335 91.5947 409.151 86.9836 409.151 82.8315V72.6871H289.662V69.5161H413.698V82.8315C413.698 90.2093 410.197 96.2058 402.053 96.2058H303.244C293.579 96.2058 291.28 91.1315 290.359 89.2871C289.439 87.4426 289.653 83.779 289.653 83.779L289.649 83.7832Z" fill="#333333"/>
<path d="M294.171 74.5356H292.069V86.9877H294.171V74.5356Z" fill="white"/>
<path d="M286.114 169.769H284.013V209.904H286.114V169.769Z" fill="white"/>
<path d="M286.114 310.473H284.013V325.957H286.114V310.473Z" fill="white"/>
<path d="M286.114 159.553H284.013C284.013 149.518 286.177 142.561 297.999 132.387L298.07 132.328C310.097 121.978 311.64 120.651 311.64 109.26H313.741C313.741 121.616 311.556 123.494 299.436 133.924L299.364 133.983C287.06 144.57 286.11 151.261 286.11 159.553H286.114Z" fill="white"/>
<path d="M300.243 279.671V294.109H296.167V282.827H293.491V279.671H300.243Z" fill="white"/>
<path d="M308.77 294.398C307.535 294.398 306.437 294.102 305.477 293.511C304.516 292.919 303.761 292.06 303.212 290.933C302.677 289.791 302.41 288.444 302.41 286.89C302.41 285.336 302.677 283.995 303.212 282.868C303.761 281.727 304.516 280.86 305.477 280.269C306.437 279.678 307.535 279.382 308.77 279.382C309.991 279.382 311.082 279.678 312.043 280.269C313.003 280.86 313.751 281.727 314.286 282.868C314.835 283.995 315.11 285.336 315.11 286.89C315.11 288.444 314.835 289.791 314.286 290.933C313.751 292.06 313.003 292.919 312.043 293.511C311.082 294.102 309.991 294.398 308.77 294.398ZM308.77 291.056C309.456 291.056 309.998 290.726 310.396 290.066C310.808 289.392 311.014 288.334 311.014 286.89C311.014 285.446 310.808 284.394 310.396 283.734C309.998 283.06 309.456 282.723 308.77 282.723C308.07 282.723 307.514 283.06 307.103 283.734C306.705 284.394 306.506 285.446 306.506 286.89C306.506 288.334 306.705 289.392 307.103 290.066C307.514 290.726 308.07 291.056 308.77 291.056Z" fill="white"/>
<path d="M323.214 288.772C323.859 288.772 324.371 288.966 324.751 289.353C325.138 289.741 325.331 290.325 325.331 291.106V294.109H323.495V291.407C323.495 291.039 323.424 290.767 323.282 290.593C323.147 290.419 322.953 290.332 322.702 290.332C322.425 290.332 322.203 290.428 322.035 290.622C321.868 290.816 321.784 291.11 321.784 291.503V294.109H319.947V291.407C319.947 290.69 319.683 290.332 319.155 290.332C318.871 290.332 318.646 290.428 318.478 290.622C318.311 290.816 318.227 291.11 318.227 291.503V294.109H316.39V288.859H318.14V289.411C318.333 289.198 318.562 289.04 318.826 288.937C319.097 288.827 319.39 288.772 319.706 288.772C320.073 288.772 320.402 288.84 320.692 288.976C320.982 289.111 321.217 289.318 321.397 289.595C321.603 289.331 321.864 289.127 322.18 288.985C322.496 288.843 322.841 288.772 323.214 288.772Z" fill="white"/>
<path d="M332.201 288.859V293.15C332.201 294.125 331.937 294.855 331.408 295.339C330.88 295.83 330.12 296.075 329.127 296.075C328.612 296.075 328.128 296.017 327.677 295.901C327.226 295.784 326.843 295.613 326.527 295.387L327.194 294.099C327.407 294.274 327.674 294.409 327.996 294.506C328.325 294.609 328.647 294.661 328.963 294.661C329.446 294.661 329.801 294.554 330.026 294.341C330.252 294.128 330.364 293.812 330.364 293.392V293.218C330.01 293.631 329.491 293.838 328.808 293.838C328.344 293.838 327.916 293.734 327.523 293.528C327.13 293.315 326.817 293.018 326.585 292.637C326.353 292.249 326.237 291.804 326.237 291.3C326.237 290.803 326.353 290.364 326.585 289.983C326.817 289.595 327.13 289.298 327.523 289.092C327.916 288.879 328.344 288.772 328.808 288.772C329.556 288.772 330.103 289.014 330.451 289.499V288.859H332.201ZM329.243 292.375C329.572 292.375 329.842 292.275 330.055 292.075C330.274 291.875 330.384 291.616 330.384 291.3C330.384 290.984 330.277 290.729 330.065 290.535C329.852 290.335 329.578 290.235 329.243 290.235C328.908 290.235 328.631 290.335 328.412 290.535C328.199 290.729 328.093 290.984 328.093 291.3C328.093 291.616 328.203 291.875 328.422 292.075C328.641 292.275 328.915 292.375 329.243 292.375Z" fill="white"/>
<path d="M293.05 241.031C292.034 241.031 291.048 240.906 290.091 240.654C289.135 240.402 288.358 240.067 287.76 239.648L288.925 237.024C289.487 237.395 290.139 237.695 290.88 237.922C291.622 238.15 292.351 238.264 293.068 238.264C294.431 238.264 295.113 237.922 295.113 237.24C295.113 236.88 294.915 236.617 294.521 236.449C294.138 236.269 293.517 236.083 292.656 235.892C291.711 235.688 290.922 235.472 290.288 235.245C289.655 235.005 289.111 234.628 288.656 234.113C288.202 233.598 287.975 232.903 287.975 232.028C287.975 231.261 288.184 230.572 288.603 229.961C289.021 229.338 289.643 228.847 290.468 228.488C291.305 228.128 292.327 227.949 293.535 227.949C294.36 227.949 295.173 228.045 295.974 228.236C296.775 228.416 297.48 228.686 298.09 229.045L296.996 231.687C295.8 231.04 294.64 230.716 293.517 230.716C292.811 230.716 292.297 230.824 291.974 231.04C291.651 231.243 291.49 231.513 291.49 231.848C291.49 232.184 291.681 232.435 292.064 232.603C292.447 232.771 293.062 232.945 293.911 233.124C294.868 233.328 295.657 233.55 296.278 233.789C296.912 234.017 297.456 234.388 297.91 234.903C298.377 235.407 298.61 236.095 298.61 236.97C298.61 237.725 298.401 238.408 297.982 239.019C297.564 239.63 296.936 240.121 296.099 240.492C295.262 240.852 294.246 241.031 293.05 241.031Z" fill="#333333"/>
<path d="M310.329 238.03V240.78H300.25V228.2H310.096V230.95H303.765V233.07H309.343V235.73H303.765V238.03H310.329Z" fill="#333333"/>
<path d="M317.787 237.437H315.851V240.78H312.3V228.2H318.039C319.174 228.2 320.161 228.392 320.998 228.775C321.835 229.147 322.48 229.686 322.935 230.393C323.389 231.088 323.616 231.908 323.616 232.855C323.616 233.765 323.401 234.562 322.97 235.245C322.552 235.916 321.948 236.443 321.159 236.826L323.867 240.78H320.065L317.787 237.437ZM320.029 232.855C320.029 232.268 319.844 231.812 319.473 231.489C319.103 231.165 318.553 231.004 317.823 231.004H315.851V234.688H317.823C318.553 234.688 319.103 234.532 319.473 234.221C319.844 233.897 320.029 233.442 320.029 232.855Z" fill="#333333"/>
<path d="M336.909 240.78L336.873 234.113L333.645 239.54H332.067L328.857 234.292V240.78H325.575V228.2H328.498L332.91 235.46L337.214 228.2H340.138L340.173 240.78H336.909Z" fill="#333333"/>
<path d="M349.017 241.031C347.69 241.031 346.494 240.75 345.43 240.187C344.378 239.624 343.547 238.845 342.937 237.851C342.339 236.856 342.04 235.736 342.04 234.49C342.04 233.244 342.339 232.124 342.937 231.13C343.547 230.135 344.378 229.356 345.43 228.793C346.494 228.23 347.69 227.949 349.017 227.949C350.344 227.949 351.533 228.23 352.586 228.793C353.65 229.356 354.481 230.135 355.078 231.13C355.688 232.124 355.993 233.244 355.993 234.49C355.993 235.736 355.688 236.856 355.078 237.851C354.481 238.845 353.65 239.624 352.586 240.187C351.533 240.75 350.344 241.031 349.017 241.031ZM349.017 238.084C349.65 238.084 350.224 237.934 350.738 237.635C351.252 237.335 351.659 236.916 351.958 236.377C352.257 235.826 352.406 235.197 352.406 234.49C352.406 233.783 352.257 233.16 351.958 232.621C351.659 232.07 351.252 231.645 350.738 231.345C350.224 231.046 349.65 230.896 349.017 230.896C348.383 230.896 347.809 231.046 347.295 231.345C346.781 231.645 346.374 232.07 346.075 232.621C345.777 233.16 345.627 233.783 345.627 234.49C345.627 235.197 345.777 235.826 346.075 236.377C346.374 236.916 346.781 237.335 347.295 237.635C347.809 237.934 348.383 238.084 349.017 238.084Z" fill="#333333"/>
<path d="M363.341 237.437H361.404V240.78H357.853V228.2H363.592C364.728 228.2 365.714 228.392 366.551 228.775C367.388 229.147 368.033 229.686 368.488 230.393C368.942 231.088 369.169 231.908 369.169 232.855C369.169 233.765 368.954 234.562 368.524 235.245C368.105 235.916 367.501 236.443 366.712 236.826L369.42 240.78H365.618L363.341 237.437ZM365.582 232.855C365.582 232.268 365.397 231.812 365.026 231.489C364.656 231.165 364.106 231.004 363.377 231.004H361.404V234.688H363.377C364.106 234.688 364.656 234.532 365.026 234.221C365.397 233.897 365.582 233.442 365.582 232.855Z" fill="#333333"/>
<path d="M381.207 238.03V240.78H371.128V228.2H380.974V230.95H374.643V233.07H380.221V235.73H374.643V238.03H381.207Z" fill="#333333"/>
<path d="M383.178 228.2H386.729V237.958H392.719V240.78H383.178V228.2Z" fill="#333333"/>
<path d="M394.124 228.2H397.675V240.78H394.124V228.2Z" fill="#333333"/>
<path d="M412.145 228.2V240.78H409.222L403.68 234.077V240.78H400.201V228.2H403.124L408.666 234.903V228.2H412.145Z" fill="#333333"/>
<path d="M31.2204 81.004V96.707C31.2204 106.489 29.1654 108.035 18.2179 117.56C4.79099 129.246 1.32395 133.263 1.32395 154.095L1.05079 342.641C1.04239 349.451 6.91745 354.971 14.1709 354.971H145.465C152.722 354.971 158.61 349.451 158.618 342.641C158.618 334.055 159.152 169.024 159.152 153.342C159.152 132.509 155.147 129.246 141.72 117.56C130.777 108.035 128.718 106.489 128.718 96.707C128.718 89.4977 128.718 81.004 128.718 81.004H31.212H31.2204Z" fill="#DCF0FF"/>
<path d="M158.901 146.389L158.623 342.637C158.615 349.446 152.723 354.967 145.47 354.967H14.1758C6.91813 354.967 1.04727 349.446 1.05567 342.637L1.07249 328.77C1.05568 342.73 2.37945 347.223 36.4489 347.223H133.682C151.967 347.223 148.462 345.223 148.5 316.747L148.739 146.385C148.739 135.057 146.243 129.048 131.765 118.411C117.288 107.774 118.83 102.11 118.83 94.9003C118.83 87.691 118.83 86.6635 99.8181 86.6635H31.2253V80.4859H129.042V100.615C129.042 109.833 144.612 117.897 152.786 128.079C158.388 135.057 158.901 140.207 158.901 146.385" fill="#3D9BE9"/>
<path d="M10.6484 68.4171L10.6695 51.1434H149.137L149.116 68.4509C149.107 75.3865 143.3 81.004 136.139 81.004H23.6257C16.4521 81.004 10.64 75.3654 10.6484 68.4171Z" fill="#3D9BE9"/>
<path d="M150.336 22.0406H11.0948C8.74564 22.0406 6.83771 24.1798 6.83351 26.8118L6.8125 45.6352C6.8125 48.2671 8.71622 50.4063 11.0612 50.4063H150.302C152.651 50.4063 154.559 48.2671 154.563 45.6352L154.584 26.8118C154.584 24.1798 152.68 22.0406 150.336 22.0406Z" fill="white"/>
<path d="M154.588 26.8118L154.567 45.6352C154.567 48.2671 152.655 50.4063 150.306 50.4063H11.0651C8.71593 50.4063 6.81221 48.2671 6.81641 45.6352V40.1397C7.00973 45.4709 10.2372 45.0162 55.1407 45.0162H137.257C147.738 45.0162 147.499 46.1489 147.511 33.103C147.524 23.4597 144.221 22.0406 144.221 22.0406H150.339C152.689 22.0406 154.592 24.1798 154.588 26.8118Z" fill="#3D9BE9"/>
<path d="M158.227 157.713H1.52539V316.326H158.223V157.713H158.227Z" fill="white"/>
<path d="M158.229 157.713H148.626L148.349 316.065H158.224V157.713H158.229Z" fill="#3D9BE9"/>
<path d="M158.383 157.713H1.67676V213.829H158.383V157.713Z" fill="#3D9BE9"/>
<path d="M158.227 157.713V213.833H148.523L148.624 157.713H158.227Z" fill="#333333"/>
<path d="M145.465 356.02H14.1708C10.2751 356.02 6.50967 354.483 3.8411 351.809C1.35743 349.316 -0.00836639 346.061 3.85624e-05 342.637L0.273197 154.091C0.273197 132.733 4.13528 128.421 17.5328 116.764L18.3144 116.086C28.5937 107.146 30.1738 105.774 30.1738 96.7071V79.9513H129.781V96.7071C129.781 105.774 131.361 107.146 141.64 116.086L142.834 117.122C155.836 128.433 160.215 132.244 160.215 153.342C160.215 162.358 160.043 219.712 159.888 270.321C159.774 307.167 159.677 338.99 159.677 342.641C159.669 350.019 153.294 356.024 145.473 356.024L145.465 356.02ZM32.2709 82.0568V96.7071C32.2709 106.734 30.1024 108.616 19.6886 117.674L18.9112 118.352C5.80366 129.756 2.37864 133.588 2.37864 154.091L2.10547 342.641C2.10547 345.501 3.24855 348.229 5.33298 350.322C7.61073 352.605 10.834 353.919 14.175 353.919H145.469C152.134 353.919 157.564 348.861 157.572 342.641C157.572 338.99 157.669 307.163 157.782 270.316C157.933 219.712 158.11 162.358 158.11 153.346C158.11 133.209 154.58 130.139 141.455 118.718L140.262 117.682C129.848 108.624 127.68 106.738 127.68 96.7155V82.0653H32.2751L32.2709 82.0568Z" fill="#333333"/>
<path d="M159.274 317.379H0.470703V156.403H159.278V317.379H159.274ZM2.57194 315.274H157.173V158.509H2.57614V315.274H2.57194Z" fill="#333333"/>
<path d="M136.136 82.0569H23.6226C19.7899 82.0569 16.2094 80.583 13.5409 77.909C10.99 75.3486 9.59053 71.9798 9.59474 68.4172L9.61995 50.1539H150.189L150.163 68.451C150.155 75.9551 143.86 82.0569 136.136 82.0569ZM11.717 52.2594L11.696 68.4172C11.696 71.4155 12.8769 74.258 15.0285 76.4182C17.2979 78.6964 20.3489 79.9513 23.6226 79.9513H136.136C142.704 79.9513 148.054 74.7928 148.062 68.4467L148.083 52.2594H11.717Z" fill="#333333"/>
<path d="M150.305 51.455H11.0643C9.73628 51.455 8.46713 50.916 7.48795 49.9349C6.39111 48.8316 5.76074 47.2651 5.76074 45.6312L5.78175 26.8078C5.78175 23.5989 8.16876 20.9838 11.0937 20.9838H150.334C151.662 20.9838 152.931 21.5228 153.911 22.504C155.008 23.6073 155.638 25.1739 155.638 26.8078L155.617 45.6312C155.617 48.84 153.23 51.455 150.305 51.455ZM11.0979 23.0936C9.32865 23.0936 7.8914 24.7612 7.88719 26.812L7.86619 45.6354C7.86619 46.7134 8.26962 47.7367 8.97564 48.4484C9.55558 49.0337 10.2994 49.3537 11.0643 49.3537H150.305C152.074 49.3537 153.511 47.6862 153.516 45.6354L153.537 26.812C153.537 25.7339 153.133 24.7106 152.427 23.999C151.847 23.4178 151.103 23.0936 150.339 23.0936H11.0979Z" fill="#333333"/>
<path d="M159.854 214.735H0.470703V156.403H159.854V214.735ZM2.57194 212.629H157.753V158.509H2.57194V212.629Z" fill="#333333"/>
<path d="M75.4736 173.71C75.4736 177.21 73.2378 179.383 69.6699 179.383H66.9761V183.712H63.8789V168.013H69.6699C73.2378 168.013 75.4736 170.194 75.4736 173.71ZM72.3427 173.71C72.3427 171.984 71.3887 170.973 69.4934 170.973H66.9719V176.422H69.4934C71.3887 176.431 72.3427 175.42 72.3427 173.71Z" fill="white"/>
<path d="M88.0216 180.802V183.72H77.6709V168.013H87.7736V170.931H80.7471V174.346H86.9542V177.168H80.7471V180.802H88.0216Z" fill="white"/>
<path d="M102.08 173.71C102.08 177.21 99.8443 179.383 96.2764 179.383H93.5826V183.712H90.4854V168.013H96.2764C99.8443 168.013 102.08 170.194 102.08 173.71ZM98.9491 173.71C98.9491 171.984 97.9952 170.973 96.0999 170.973H93.5784V176.422H96.0999C97.9952 176.431 98.9491 175.42 98.9491 173.71Z" fill="white"/>
<path d="M106.681 170.973H102.407V168.013H114.061V170.973H109.787V183.72H106.69V170.973H106.681Z" fill="white"/>
<path d="M115.712 168.013H118.809V183.72H115.712V168.013Z" fill="white"/>
<path d="M121.974 168.013H128.046C132.425 168.013 135.417 171.108 135.417 175.867C135.417 180.625 132.417 183.72 128.046 183.72H121.974V168.013ZM127.895 180.734C130.555 180.734 132.287 178.869 132.287 175.867C132.287 172.864 130.547 170.999 127.895 170.999H125.071V180.734H127.895Z" fill="white"/>
<path d="M148.106 180.802V183.72H137.755V168.013H147.858V170.931H140.831V174.346H147.038V177.168H140.831V180.802H148.106Z" fill="white"/>
<path d="M63.8789 202.918L64.4252 201.608C65.3666 202.733 67.0434 203.566 68.7706 203.566C71.2375 203.566 72.3049 202.299 72.3049 200.711C72.3049 196.281 64.2025 199.006 64.2025 193.039C64.2025 190.668 65.707 188.617 69.0564 188.617C70.5398 188.617 72.0822 189.143 73.137 190.049L72.6621 191.409C71.5358 190.512 70.2162 190.074 69.0564 190.074C66.6483 190.074 65.5767 191.384 65.5767 193.001C65.5767 197.431 73.6791 194.748 73.6791 200.627C73.6791 202.998 72.1368 205.032 68.7748 205.032C66.7954 205.015 64.8539 204.16 63.8789 202.914V202.918Z" fill="white"/>
<path d="M87.7068 188.744V204.876H86.3284V197.431H78.0873V204.876H76.6963V188.744H78.0873V195.932H86.3284V188.744H87.7068Z" fill="white"/>
<path d="M90.8262 196.812C90.8262 192.112 93.7595 188.605 97.7477 188.605C101.736 188.605 104.644 192.083 104.644 196.812C104.644 201.541 101.69 205.019 97.7477 205.019C93.8057 205.019 90.8262 201.512 90.8262 196.812ZM103.253 196.812C103.253 192.963 100.9 190.133 97.7477 190.133C94.5958 190.133 92.1962 192.972 92.1962 196.812C92.1962 200.653 94.5622 203.491 97.7477 203.491C100.933 203.491 103.253 200.661 103.253 196.812Z" fill="white"/>
<path d="M118.074 194.281C118.074 197.717 116.044 199.789 112.695 199.789H109.161V204.885H107.77V188.739H112.695C116.036 188.739 118.074 190.811 118.074 194.277V194.281ZM116.675 194.281C116.675 191.695 115.284 190.222 112.653 190.222H109.152V198.29H112.653C115.284 198.29 116.675 196.812 116.675 194.281Z" fill="white"/>
<path d="M37.7153 184.967C37.7153 189.085 34.3827 192.424 30.2727 192.424C29.0245 192.424 27.7974 192.109 26.7006 191.511C26.0198 191.136 25.4062 190.66 24.8725 190.096C22.0526 187.102 22.1871 182.385 25.1751 179.56C25.2717 179.467 25.3726 179.374 25.4776 179.29C26.0492 178.798 26.688 178.397 27.3772 178.098C30.6131 176.73 34.3617 177.812 36.3789 180.697C36.9546 181.518 37.3538 182.448 37.5598 183.43C37.6648 183.935 37.7195 184.449 37.7195 184.967H37.7153Z" fill="white"/>
<path d="M22.6235 196.547C22.1066 195.945 21.4595 195.465 20.7324 195.149L20.7072 195.136C18.0555 193.995 14.9792 195.229 13.8446 197.886C12.7057 200.543 13.937 203.626 16.5888 204.763C19.2405 205.904 22.3168 204.67 23.4514 202.013C24.2331 200.181 23.9137 198.063 22.6235 196.547Z" fill="white"/>
<path d="M23.8424 166.573C22.3001 165.027 19.7996 165.027 18.2573 166.573C16.715 168.118 16.715 170.624 18.2573 172.169C19.7996 173.715 22.2959 173.715 23.8382 172.169L23.8466 172.161C25.3805 170.615 25.3763 168.114 23.8382 166.573H23.8424Z" fill="white"/>
<path d="M52.4994 173.37C50.2006 171.07 46.4814 171.07 44.1827 173.37C42.8925 174.662 42.2748 176.477 42.5101 178.288C42.5101 178.309 42.5101 178.33 42.5143 178.351C42.6446 179.29 43.0018 180.183 43.5523 180.954C43.5649 180.975 43.5817 180.992 43.5943 181.013C43.7709 181.253 43.9642 181.48 44.1785 181.695C46.4772 183.998 50.2006 183.998 52.4994 181.695C54.7982 179.391 54.7982 175.66 52.4994 173.357V173.365V173.37Z" fill="white"/>
<path d="M26.6957 191.507C26.0149 191.132 25.4014 190.656 24.8677 190.092C24.9307 190.172 25.3047 190.833 23.4808 193.145C21.7326 195.364 20.8921 195.208 20.7324 195.145C21.4595 195.461 22.1066 195.941 22.6235 196.543C22.5983 196.488 22.3125 195.743 24.0103 193.6C25.7754 191.376 26.6999 191.507 26.6999 191.507H26.6957Z" fill="white"/>
<path d="M25.1165 175.614C23.549 172.999 23.8768 172.148 23.8768 172.148L23.8558 172.161L23.8474 172.169C23.3935 172.624 22.8346 172.965 22.2168 173.151C22.242 173.151 22.9312 173.176 24.4693 175.871C25.9948 178.545 25.4947 179.24 25.4695 179.273C26.041 178.789 26.684 178.389 27.3732 178.099C27.3732 178.099 26.684 178.229 25.1165 175.614Z" fill="white"/>
<path d="M42.5171 178.355C42.5339 178.616 42.412 179.627 39.9956 180.587C37.3018 181.653 36.4361 180.773 36.373 180.701C36.9488 181.522 37.348 182.453 37.5539 183.434C37.5455 183.367 37.4867 182.373 40.2561 181.24C42.6557 180.255 43.3786 180.764 43.5467 180.958C43.0003 180.187 42.6431 179.294 42.5171 178.355Z" fill="white"/>
<path d="M41.729 199.946C43.0798 199.946 44.1749 198.848 44.1749 197.495C44.1749 196.141 43.0798 195.044 41.729 195.044C40.3782 195.044 39.2832 196.141 39.2832 197.495C39.2832 198.848 40.3782 199.946 41.729 199.946Z" fill="white"/>
<path d="M13.954 187.321C16.08 187.321 17.8034 185.594 17.8034 183.463C17.8034 181.333 16.08 179.606 13.954 179.606C11.828 179.606 10.1045 181.333 10.1045 183.463C10.1045 185.594 11.828 187.321 13.954 187.321Z" fill="white"/>
<path d="M34.844 173.651C35.6726 173.651 36.3443 172.978 36.3443 172.148C36.3443 171.318 35.6726 170.645 34.844 170.645C34.0155 170.645 33.3438 171.318 33.3438 172.148C33.3438 172.978 34.0155 173.651 34.844 173.651Z" fill="white"/>
<path d="M66.1591 277.93H7.58496V309.849H66.1591V277.93Z" fill="#3D9BE9"/>
<path d="M67.2096 310.903H6.53418V276.877H67.2096V310.903ZM8.63542 308.797H65.1083V278.983H8.63542V308.797Z" fill="#333333"/>
<path d="M10.6489 67.1328C10.6489 72.7672 15.0363 75.8539 30.9636 75.8539H133.21C140.917 75.8539 144.061 70.7038 144.061 66.0716V54.7438H10.6657V51.2023H149.137V66.0674C149.137 74.3042 145.229 80.9998 136.139 80.9998H25.8282C15.0405 80.9998 12.4685 75.3359 11.4431 73.2767C10.4135 71.2175 10.6531 67.1286 10.6531 67.1286L10.6489 67.1328Z" fill="#333333"/>
<path d="M15.5749 56.8029H13.4736V70.7036H15.5749V56.8029Z" fill="white"/>
<path d="M6.58171 163.12H4.48047V207.925H6.58171V163.12Z" fill="white"/>
<path d="M6.58171 320.201H4.48047V337.487H6.58171V320.201Z" fill="white"/>
<path d="M6.58171 151.716H4.48047C4.48047 140.548 6.88848 132.808 20.0506 121.481L20.1305 121.413C33.5952 109.829 35.3224 108.338 35.3224 95.57H37.4237C37.4237 109.306 34.9905 111.399 21.5005 123.013L21.4207 123.081C7.64493 134.935 6.58171 142.427 6.58171 151.72V151.716Z" fill="white"/>
<path d="M22.4766 285.566V301.684H17.9267V289.089H14.9395V285.566H22.4766Z" fill="white"/>
<path d="M31.9963 302.007C30.6175 302.007 29.392 301.677 28.3196 301.017C27.2472 300.357 26.4047 299.397 25.7919 298.138C25.1944 296.864 24.8957 295.36 24.8957 293.625C24.8957 291.891 25.1944 290.394 25.7919 289.135C26.4047 287.861 27.2472 286.894 28.3196 286.234C29.392 285.574 30.6175 285.244 31.9963 285.244C33.3597 285.244 34.5776 285.574 35.6499 286.234C36.7223 286.894 37.5572 287.861 38.1547 289.135C38.7675 290.394 39.0738 291.891 39.0738 293.625C39.0738 295.36 38.7675 296.864 38.1547 298.138C37.5572 299.397 36.7223 300.357 35.6499 301.017C34.5776 301.677 33.3597 302.007 31.9963 302.007ZM31.9963 298.277C32.7622 298.277 33.3674 297.908 33.8116 297.171C34.2712 296.419 34.501 295.237 34.501 293.625C34.501 292.014 34.2712 290.839 33.8116 290.102C33.3674 289.35 32.7622 288.974 31.9963 288.974C31.215 288.974 30.5945 289.35 30.135 290.102C29.6907 290.839 29.4686 292.014 29.4686 293.625C29.4686 295.237 29.6907 296.419 30.135 297.171C30.5945 297.908 31.215 298.277 31.9963 298.277Z" fill="white"/>
<path d="M48.1195 295.728C48.8387 295.728 49.4104 295.944 49.8347 296.377C50.2662 296.809 50.482 297.461 50.482 298.333V301.684H48.4323V298.669C48.4323 298.258 48.3532 297.955 48.195 297.76C48.044 297.566 47.8282 297.469 47.5477 297.469C47.2385 297.469 46.9903 297.577 46.8034 297.793C46.6164 298.009 46.5229 298.337 46.5229 298.777V301.684H44.4732V298.669C44.4732 297.869 44.1783 297.469 43.5886 297.469C43.2722 297.469 43.0205 297.577 42.8335 297.793C42.6465 298.009 42.553 298.337 42.553 298.777V301.684H40.5033V295.826H42.4559V296.442C42.6716 296.204 42.927 296.027 43.2218 295.912C43.5239 295.79 43.8511 295.728 44.2035 295.728C44.6134 295.728 44.9802 295.804 45.3039 295.955C45.6275 296.107 45.89 296.337 46.0914 296.647C46.3215 296.352 46.6128 296.125 46.9652 295.966C47.3176 295.808 47.7023 295.728 48.1195 295.728Z" fill="white"/>
<path d="M58.1492 295.826V300.614C58.1492 301.702 57.8544 302.517 57.2646 303.057C56.6749 303.605 55.8263 303.879 54.7187 303.879C54.1434 303.879 53.604 303.814 53.1005 303.684C52.5971 303.555 52.1692 303.364 51.8168 303.111L52.5612 301.674C52.7985 301.868 53.097 302.02 53.4565 302.128C53.8233 302.243 54.1829 302.301 54.5353 302.301C55.0747 302.301 55.4703 302.182 55.722 301.944C55.9737 301.706 56.0995 301.353 56.0995 300.885V300.69C55.704 301.151 55.125 301.382 54.3627 301.382C53.8449 301.382 53.3666 301.266 52.9279 301.036C52.4892 300.798 52.1404 300.467 51.8815 300.041C51.6226 299.609 51.4932 299.112 51.4932 298.55C51.4932 297.995 51.6226 297.505 51.8815 297.079C52.1404 296.647 52.4892 296.316 52.9279 296.085C53.3666 295.847 53.8449 295.728 54.3627 295.728C55.197 295.728 55.8083 295.999 56.1966 296.539V295.826H58.1492ZM54.8482 299.749C55.215 299.749 55.517 299.638 55.7543 299.414C55.9989 299.191 56.1211 298.903 56.1211 298.55C56.1211 298.196 56.0025 297.912 55.7651 297.696C55.5278 297.472 55.2221 297.361 54.8482 297.361C54.4742 297.361 54.1649 297.472 53.9204 297.696C53.6831 297.912 53.5644 298.196 53.5644 298.55C53.5644 298.903 53.6867 299.191 53.9312 299.414C54.1757 299.638 54.4814 299.749 54.8482 299.749Z" fill="white"/>
<path d="M13.4719 230.463H9.20703V227.342H21.6446V230.463H17.3996V241.256H13.4719V230.463Z" fill="#333333"/>
<path d="M34.256 238.215V241.256H23.1079V227.342H33.9982V230.383H26.9958V232.729H33.165V235.67H26.9958V238.215H34.256Z" fill="#333333"/>
<path d="M41.3154 241.534C40.1913 241.534 39.1003 241.395 38.0423 241.117C36.9844 240.839 36.1248 240.467 35.4636 240.004L36.753 237.102C37.3745 237.512 38.0952 237.844 38.9152 238.095C39.7351 238.347 40.5418 238.473 41.3352 238.473C42.8428 238.473 43.5966 238.095 43.5966 237.34C43.5966 236.943 43.3784 236.651 42.942 236.466C42.5188 236.267 41.8311 236.061 40.879 235.849C39.8343 235.624 38.9614 235.386 38.2605 235.134C37.5597 234.869 36.9579 234.451 36.4554 233.882C35.9529 233.312 35.7016 232.543 35.7016 231.576C35.7016 230.728 35.9331 229.966 36.3959 229.29C36.8588 228.601 37.5464 228.058 38.4589 227.66C39.3846 227.262 40.5153 227.064 41.851 227.064C42.7635 227.064 43.6627 227.17 44.5488 227.382C45.4348 227.58 46.215 227.879 46.8895 228.276L45.6794 231.198C44.357 230.483 43.0742 230.125 41.8311 230.125C41.0509 230.125 40.4823 230.244 40.1252 230.483C39.7681 230.708 39.5896 231.006 39.5896 231.377C39.5896 231.748 39.8012 232.026 40.2244 232.212C40.6476 232.397 41.3286 232.59 42.2675 232.788C43.3255 233.014 44.1983 233.259 44.886 233.524C45.5869 233.776 46.1886 234.186 46.6911 234.756C47.2069 235.313 47.4647 236.075 47.4647 237.042C47.4647 237.877 47.2333 238.632 46.7705 239.308C46.3076 239.984 45.6133 240.527 44.6876 240.938C43.7619 241.335 42.6378 241.534 41.3154 241.534Z" fill="#333333"/>
<path d="M58.5824 238.553H52.7108L51.6197 241.256H47.6127L53.7423 227.342H57.6104L63.7598 241.256H59.6734L58.5824 238.553ZM57.4319 235.651L55.6466 231.198L53.8613 235.651H57.4319Z" fill="#333333"/>
<path d="M77.41 241.256L77.3703 233.882L73.7997 239.884H72.0541L68.5033 234.08V241.256H64.8732V227.342H68.1066L72.9864 235.372L77.7472 227.342H80.9806L81.0202 241.256H77.41Z" fill="#333333"/>
<path d="M90.8017 241.534C89.3338 241.534 88.0114 241.223 86.8344 240.6C85.6706 239.977 84.7515 239.116 84.0771 238.016C83.4159 236.916 83.0853 235.677 83.0853 234.299C83.0853 232.921 83.4159 231.682 84.0771 230.582C84.7515 229.482 85.6706 228.621 86.8344 227.998C88.0114 227.375 89.3338 227.064 90.8017 227.064C92.2696 227.064 93.5855 227.375 94.7492 227.998C95.9262 228.621 96.8453 229.482 97.5065 230.582C98.1809 231.682 98.5182 232.921 98.5182 234.299C98.5182 235.677 98.1809 236.916 97.5065 238.016C96.8453 239.116 95.9262 239.977 94.7492 240.6C93.5855 241.223 92.2696 241.534 90.8017 241.534ZM90.8017 238.274C91.5026 238.274 92.1374 238.109 92.706 237.777C93.2747 237.446 93.7243 236.982 94.0549 236.386C94.3855 235.776 94.5508 235.081 94.5508 234.299C94.5508 233.517 94.3855 232.828 94.0549 232.232C93.7243 231.622 93.2747 231.152 92.706 230.82C92.1374 230.489 91.5026 230.324 90.8017 230.324C90.1008 230.324 89.466 230.489 88.8974 230.82C88.3288 231.152 87.8791 231.622 87.5485 232.232C87.2179 232.828 87.0526 233.517 87.0526 234.299C87.0526 235.081 87.2179 235.776 87.5485 236.386C87.8791 236.982 88.3288 237.446 88.8974 237.777C89.466 238.109 90.1008 238.274 90.8017 238.274Z" fill="#333333"/>
<path d="M106.645 237.559H104.503V241.256H100.575V227.342H106.923C108.179 227.342 109.27 227.554 110.196 227.978C111.122 228.389 111.836 228.985 112.338 229.767C112.841 230.536 113.092 231.443 113.092 232.49C113.092 233.497 112.854 234.378 112.378 235.134C111.915 235.876 111.247 236.459 110.375 236.883L113.37 241.256H109.165L106.645 237.559ZM109.125 232.49C109.125 231.841 108.92 231.337 108.51 230.979C108.1 230.622 107.492 230.443 106.685 230.443H104.503V234.518H106.685C107.492 234.518 108.1 234.345 108.51 234.001C108.92 233.643 109.125 233.139 109.125 232.49Z" fill="#333333"/>
<path d="M126.407 238.215V241.256H115.259V227.342H126.149V230.383H119.147V232.729H125.316V235.67H119.147V238.215H126.407Z" fill="#333333"/>
<path d="M128.587 227.342H132.514V238.135H139.14V241.256H128.587V227.342Z" fill="#333333"/>
<path d="M140.694 227.342H144.622V241.256H140.694V227.342Z" fill="#333333"/>
<path d="M160.627 227.342V241.256H157.394L151.264 233.842V241.256H147.416V227.342H150.649L156.779 234.756V227.342H160.627Z" fill="#333333"/>
<path d="M157.033 65.4946V82.6589C157.033 93.3508 154.784 95.0394 142.824 105.449C128.149 118.221 124.354 122.613 124.354 145.383L124.056 351.472C124.047 358.913 130.469 364.947 138.399 364.947H281.909C289.839 364.947 296.277 358.913 296.286 351.472C296.286 342.085 296.87 161.705 296.87 144.561C296.87 121.792 292.495 118.221 277.816 105.449C265.851 95.0394 263.607 93.3508 263.607 82.6589C263.607 74.78 263.607 65.4946 263.607 65.4946H157.033Z" fill="#DCF0FF"/>
<path d="M296.588 136.965L296.286 351.472C296.277 358.917 289.839 364.947 281.909 364.947H138.399C130.469 364.947 124.047 358.913 124.056 351.472L124.077 336.312C124.056 351.569 125.506 356.483 162.744 356.483H269.02C289.007 356.483 285.174 354.297 285.216 323.173L285.477 136.965C285.477 124.584 282.745 118.015 266.923 106.388C251.101 94.7614 252.786 88.5711 252.786 80.6923C252.786 72.8134 252.786 71.689 232.009 71.689H157.037V64.9344H263.956V86.9372C263.956 97.0101 280.976 105.824 289.911 116.958C296.034 124.584 296.597 130.214 296.597 136.965" fill="#3D9BE9"/>
<path d="M134.545 51.737L134.57 32.8546H285.918L285.893 51.7707C285.885 59.3506 279.535 65.4945 271.71 65.4945H148.732C140.891 65.4945 134.537 59.3337 134.549 51.737H134.545Z" fill="#3D9BE9"/>
<path d="M287.229 1.04846H135.036C132.468 1.04846 130.384 3.3856 130.38 6.26175L130.354 26.8328C130.354 29.7089 132.435 32.0461 134.998 32.0461H287.191C289.759 32.0461 291.843 29.7089 291.847 26.8328L291.873 6.26175C291.873 3.3856 289.792 1.04846 287.229 1.04846Z" fill="white"/>
<path d="M291.873 6.26182L291.847 26.8328C291.847 29.709 289.759 32.0461 287.191 32.0461H134.998C132.431 32.0461 130.35 29.709 130.354 26.8328L130.363 20.8236C130.565 26.6518 134.095 26.1549 183.175 26.1549H272.932C284.384 26.1549 284.123 27.3929 284.14 13.1342C284.153 2.59396 280.543 1.04431 280.543 1.04431H287.229C289.797 1.04431 291.877 3.38145 291.873 6.25761V6.26182Z" fill="#3D9BE9"/>
<path d="M295.853 149.345H124.572V322.715H295.848V149.345H295.853Z" fill="white"/>
<path d="M295.853 149.345H285.355L285.053 322.428H295.845V149.345H295.853Z" fill="#3D9BE9"/>
<path d="M296.024 149.345H124.739V210.683H296.024V149.345Z" fill="#3D9BE9"/>
<path d="M295.852 149.345V210.683H285.249L285.354 149.345H295.852Z" fill="#333333"/>
<path d="M281.904 366H138.394C134.162 366 130.073 364.332 127.173 361.423C124.479 358.719 122.996 355.182 123 351.468L123.298 145.378C123.298 122.074 127.513 117.371 142.13 104.653L142.983 103.912C154.25 94.1172 155.981 92.6096 155.981 82.6547V64.4376H264.657V82.6547C264.657 92.6096 266.389 94.1129 277.651 103.908L278.954 105.041C293.52 117.716 297.916 121.54 297.916 144.553C297.916 154.407 297.726 217.101 297.558 272.413C297.436 312.688 297.331 347.471 297.331 351.463C297.319 359.477 290.397 365.992 281.904 365.992V366ZM158.082 66.5474V82.6589C158.082 93.5739 155.721 95.6289 144.361 105.504L143.508 106.245C129.157 118.735 125.404 122.929 125.404 145.383L125.105 351.472C125.101 354.626 126.366 357.628 128.665 359.936C131.17 362.45 134.721 363.894 138.398 363.894H281.908C289.25 363.894 295.226 358.319 295.234 351.468C295.234 347.476 295.339 312.692 295.461 272.413C295.629 217.101 295.819 154.407 295.819 144.557C295.819 122.504 291.956 119.143 277.58 106.632L276.277 105.5C264.922 95.6247 262.556 93.5697 262.556 82.6547V66.5432H158.082V66.5474Z" fill="#333333"/>
<path d="M296.899 323.763H123.518V148.01H296.903V323.763H296.899ZM125.619 321.658H294.798V150.116H125.623V321.658H125.619Z" fill="#333333"/>
<path d="M271.708 66.5473H148.731C144.567 66.5473 140.679 64.9471 137.78 62.0415C135.01 59.2621 133.489 55.6028 133.493 51.737L133.518 31.8734H286.968L286.942 51.7749C286.93 59.9233 280.097 66.5473 271.708 66.5473ZM135.62 33.9789L135.594 51.7412C135.59 55.0469 136.893 58.1757 139.267 60.555C141.768 63.0648 145.126 64.446 148.731 64.446H271.708C278.941 64.446 284.833 58.761 284.841 51.7749L284.866 33.9832H135.62V33.9789Z" fill="#333333"/>
<path d="M287.195 33.1031H135.002C133.578 33.1031 132.216 32.522 131.161 31.4692C129.98 30.2817 129.304 28.5931 129.304 26.8371L129.329 6.26606C129.329 2.81299 131.892 0 135.036 0H287.229C288.653 0 290.015 0.581128 291.066 1.63389C292.246 2.82141 292.923 4.51005 292.923 6.26606L292.898 26.8371C292.898 30.2901 290.334 33.1031 287.191 33.1031H287.195ZM135.036 2.10131C133.048 2.10131 131.43 3.96682 131.43 6.26606L131.405 26.8371C131.405 28.0414 131.855 29.1868 132.649 29.9785C133.304 30.6354 134.137 30.9976 135.002 30.9976H287.195C289.183 30.9976 290.801 29.1321 290.801 26.8329L290.826 6.26184C290.826 5.05748 290.376 3.91206 289.582 3.12038C288.926 2.46346 288.094 2.10131 287.229 2.10131H135.036Z" fill="#333333"/>
<path d="M297.534 211.572H123.518V148.01H297.534V211.572ZM125.619 209.467H295.433V150.116H125.623V209.467H125.619Z" fill="#333333"/>
<path d="M205.407 166.825C205.407 170.649 202.961 173.024 199.061 173.024H196.115V177.757H192.732V160.597H199.061C202.961 160.597 205.407 162.981 205.407 166.825ZM201.982 166.825C201.982 164.935 200.94 163.831 198.868 163.831H196.115V169.79H198.868C200.94 169.798 201.982 168.695 201.982 166.825Z" fill="white"/>
<path d="M219.12 174.578V177.766H207.807V160.597H218.847V163.785H211.164V167.516H217.947V170.603H211.164V174.578H219.115H219.12Z" fill="white"/>
<path d="M234.484 166.825C234.484 170.649 232.038 173.024 228.139 173.024H225.193V177.757H221.81V160.597H228.139C232.038 160.597 234.484 162.981 234.484 166.825ZM231.059 166.825C231.059 164.935 230.017 163.831 227.945 163.831H225.193V169.79H227.945C230.013 169.798 231.059 168.695 231.059 166.825Z" fill="white"/>
<path d="M239.515 163.835H234.842V160.601H247.58V163.835H242.906V177.77H239.523V163.835H239.515Z" fill="white"/>
<path d="M249.386 160.597H252.769V177.766H249.386V160.597Z" fill="white"/>
<path d="M256.231 160.597H262.871C267.654 160.597 270.927 163.983 270.927 169.184C270.927 174.384 267.65 177.77 262.871 177.77H256.231V160.601V160.597ZM262.703 174.502C265.607 174.502 267.502 172.464 267.502 169.179C267.502 165.895 265.599 163.857 262.703 163.857H259.614V174.498H262.703V174.502Z" fill="white"/>
<path d="M284.796 174.578V177.766H273.483V160.597H284.523V163.785H276.841V167.516H283.624V170.603H276.841V174.578H284.792H284.796Z" fill="white"/>
<path d="M192.733 198.753L193.329 197.322C194.355 198.551 196.191 199.465 198.078 199.465C200.776 199.465 201.94 198.084 201.94 196.345C201.94 191.502 193.082 194.479 193.082 187.96C193.082 185.366 194.729 183.13 198.389 183.13C200.011 183.13 201.697 183.707 202.848 184.697L202.331 186.188C201.1 185.206 199.658 184.726 198.389 184.726C195.754 184.726 194.586 186.158 194.586 187.927C194.586 192.769 203.445 189.839 203.445 196.265C203.445 198.859 201.76 201.078 198.082 201.078C195.918 201.057 193.796 200.126 192.729 198.762L192.733 198.753Z" fill="white"/>
<path d="M218.775 183.261V200.897H217.27V192.761H208.264V200.897H206.743V183.261H208.264V191.119H217.27V183.261H218.775Z" fill="white"/>
<path d="M222.188 192.079C222.188 186.941 225.395 183.109 229.753 183.109C234.111 183.109 237.292 186.912 237.292 192.079C237.292 197.246 234.065 201.048 229.753 201.048C225.441 201.048 222.188 197.216 222.188 192.079ZM235.771 192.079C235.771 187.872 233.199 184.777 229.753 184.777C226.307 184.777 223.685 187.881 223.685 192.079C223.685 196.277 226.269 199.381 229.753 199.381C233.237 199.381 235.771 196.29 235.771 192.079Z" fill="white"/>
<path d="M251.971 189.312C251.971 193.069 249.752 195.334 246.091 195.334H242.229V200.905H240.708V183.261H246.091C249.743 183.261 251.971 185.527 251.971 189.312ZM250.441 189.312C250.441 186.487 248.92 184.874 246.045 184.874H242.221V193.692H246.045C248.92 193.692 250.441 192.079 250.441 189.312Z" fill="white"/>
<path d="M164.134 179.134C164.134 183.636 160.49 187.287 155.998 187.287C154.632 187.287 153.292 186.941 152.094 186.284C151.35 185.876 150.678 185.354 150.093 184.739C147.013 181.467 147.16 176.313 150.421 173.226C150.531 173.125 150.64 173.024 150.753 172.931C151.375 172.396 152.077 171.954 152.829 171.63C156.368 170.135 160.465 171.318 162.667 174.468C163.293 175.365 163.735 176.384 163.957 177.458C164.075 178.01 164.134 178.574 164.134 179.138V179.134Z" fill="white"/>
<path d="M147.639 191.788C147.076 191.127 146.37 190.605 145.572 190.26L145.542 190.247C142.643 189 139.285 190.348 138.041 193.254C136.797 196.159 138.142 199.524 141.042 200.77C143.941 202.017 147.299 200.669 148.543 197.764C149.4 195.763 149.047 193.447 147.635 191.792L147.639 191.788Z" fill="white"/>
<path d="M148.972 159.026C147.287 157.338 144.556 157.338 142.87 159.026C141.185 160.715 141.185 163.452 142.87 165.141C144.556 166.829 147.287 166.829 148.972 165.141L148.981 165.132C150.658 163.444 150.653 160.711 148.972 159.026Z" fill="white"/>
<path d="M180.293 166.454C177.784 163.94 173.712 163.94 171.203 166.454C169.795 167.865 169.118 169.853 169.375 171.832C169.375 171.857 169.375 171.878 169.383 171.903C169.526 172.931 169.913 173.904 170.514 174.746C170.53 174.767 170.547 174.788 170.56 174.809C170.753 175.074 170.967 175.323 171.199 175.554C173.712 178.073 177.78 178.073 180.293 175.554C182.806 173.036 182.806 168.96 180.293 166.442V166.454Z" fill="white"/>
<path d="M152.09 186.28C151.346 185.872 150.673 185.35 150.089 184.735C150.156 184.823 150.568 185.543 148.572 188.07C146.66 190.495 145.744 190.323 145.567 190.26C146.362 190.605 147.072 191.127 147.635 191.788C147.61 191.729 147.295 190.912 149.152 188.571C151.081 186.141 152.094 186.284 152.094 186.284H152.09V186.28Z" fill="white"/>
<path d="M150.362 168.91C148.652 166.05 149.005 165.12 149.005 165.12L148.984 165.132L148.975 165.141C148.479 165.638 147.866 166.008 147.193 166.214C147.223 166.214 147.975 166.244 149.656 169.188C151.32 172.11 150.778 172.868 150.749 172.906C151.375 172.375 152.072 171.942 152.829 171.622C152.829 171.622 152.077 171.765 150.362 168.905V168.91Z" fill="white"/>
<path d="M169.384 171.904C169.401 172.19 169.27 173.293 166.627 174.342C163.681 175.508 162.736 174.548 162.664 174.468C163.29 175.365 163.731 176.384 163.954 177.458C163.946 177.382 163.883 176.3 166.909 175.058C169.535 173.98 170.321 174.536 170.506 174.75C169.905 173.908 169.518 172.931 169.38 171.908L169.384 171.904Z" fill="white"/>
<path d="M168.522 195.507C170 195.507 171.199 194.306 171.199 192.824C171.199 191.343 170 190.142 168.522 190.142C167.043 190.142 165.845 191.343 165.845 192.824C165.845 194.306 167.043 195.507 168.522 195.507Z" fill="white"/>
<path d="M138.163 181.707C140.489 181.707 142.374 179.818 142.374 177.488C142.374 175.157 140.489 173.268 138.163 173.268C135.837 173.268 133.952 175.157 133.952 177.488C133.952 179.818 135.837 181.707 138.163 181.707Z" fill="white"/>
<path d="M160.995 166.762C161.901 166.762 162.634 166.027 162.634 165.12C162.634 164.213 161.901 163.477 160.995 163.477C160.09 163.477 159.356 164.213 159.356 165.12C159.356 166.027 160.09 166.762 160.995 166.762Z" fill="white"/>
<path d="M195.221 280.743H131.2V315.632H195.221V280.743Z" fill="#3D9BE9"/>
<path d="M196.27 316.688H130.148V279.694H196.27V316.688ZM132.25 314.583H194.169V281.8H132.25V314.583Z" fill="#333333"/>
<path d="M134.544 50.3348C134.544 56.4914 139.339 59.8687 156.75 59.8687H268.506C276.932 59.8687 280.366 54.2427 280.366 49.1768V36.7963H134.561V32.9263H285.913V49.1768C285.913 58.18 281.643 65.4946 271.704 65.4946H151.131C139.339 65.4946 136.532 59.3044 135.405 57.0514C134.279 54.7985 134.54 50.3306 134.54 50.3306L134.544 50.3348Z" fill="#333333"/>
<path d="M139.831 39.0449H137.729V54.2385H139.831V39.0449Z" fill="white"/>
<path d="M130.002 155.253H127.9V204.228H130.002V155.253Z" fill="white"/>
<path d="M130.002 326.947H127.9V345.842H130.002V326.947Z" fill="white"/>
<path d="M130.002 142.789H127.9C127.9 132.387 129.153 123.355 144.887 109.816L144.971 109.744C159.717 97.0564 161.613 95.4225 161.613 81.4208H163.714C163.714 96.3911 161.062 98.6735 146.341 111.34L146.257 111.412C131.17 124.395 130.002 132.606 130.002 142.789Z" fill="white"/>
<path d="M147.053 288.969V306.641H142.064V292.832H138.789V288.969H147.053Z" fill="white"/>
<path d="M157.49 306.994C155.978 306.994 154.634 306.632 153.459 305.909C152.283 305.185 151.359 304.133 150.687 302.753C150.032 301.356 149.705 299.707 149.705 297.805C149.705 295.903 150.032 294.262 150.687 292.882C151.359 291.485 152.283 290.425 153.459 289.701C154.634 288.978 155.978 288.616 157.49 288.616C158.985 288.616 160.32 288.978 161.496 289.701C162.671 290.425 163.587 291.485 164.242 292.882C164.914 294.262 165.249 295.903 165.249 297.805C165.249 299.707 164.914 301.356 164.242 302.753C163.587 304.133 162.671 305.185 161.496 305.909C160.32 306.632 158.985 306.994 157.49 306.994ZM157.49 302.905C158.33 302.905 158.993 302.501 159.48 301.693C159.984 300.868 160.236 299.572 160.236 297.805C160.236 296.038 159.984 294.75 159.48 293.942C158.993 293.118 158.33 292.705 157.49 292.705C156.633 292.705 155.953 293.118 155.449 293.942C154.962 294.75 154.718 296.038 154.718 297.805C154.718 299.572 154.962 300.868 155.449 301.693C155.953 302.501 156.633 302.905 157.49 302.905Z" fill="white"/>
<path d="M175.169 300.109C175.958 300.109 176.585 300.346 177.05 300.82C177.523 301.295 177.76 302.01 177.76 302.966V306.641H175.512V303.334C175.512 302.883 175.425 302.551 175.252 302.338C175.086 302.124 174.849 302.018 174.542 302.018C174.203 302.018 173.931 302.136 173.726 302.373C173.521 302.61 173.418 302.97 173.418 303.452V306.641H171.17V303.334C171.17 302.456 170.847 302.018 170.2 302.018C169.853 302.018 169.577 302.136 169.372 302.373C169.167 302.61 169.065 302.97 169.065 303.452V306.641H166.817V300.216H168.958V300.892C169.195 300.631 169.475 300.437 169.798 300.311C170.129 300.176 170.488 300.109 170.875 300.109C171.324 300.109 171.726 300.192 172.081 300.358C172.436 300.524 172.724 300.777 172.945 301.117C173.197 300.793 173.517 300.544 173.903 300.37C174.289 300.196 174.711 300.109 175.169 300.109Z" fill="white"/>
<path d="M186.168 300.216V305.467C186.168 306.661 185.844 307.554 185.198 308.146C184.551 308.747 183.62 309.047 182.406 309.047C181.775 309.047 181.183 308.976 180.631 308.834C180.079 308.692 179.61 308.482 179.223 308.206L180.04 306.629C180.3 306.842 180.627 307.008 181.022 307.127C181.424 307.253 181.818 307.317 182.205 307.317C182.796 307.317 183.23 307.186 183.506 306.925C183.782 306.665 183.92 306.277 183.92 305.764V305.55C183.486 306.056 182.851 306.309 182.015 306.309C181.447 306.309 180.923 306.183 180.442 305.93C179.961 305.669 179.578 305.305 179.294 304.839C179.01 304.365 178.868 303.82 178.868 303.203C178.868 302.595 179.01 302.057 179.294 301.591C179.578 301.117 179.961 300.753 180.442 300.5C180.923 300.24 181.447 300.109 182.015 300.109C182.93 300.109 183.6 300.406 184.026 300.998V300.216H186.168ZM182.548 304.519C182.95 304.519 183.281 304.396 183.541 304.152C183.809 303.907 183.944 303.59 183.944 303.203C183.944 302.816 183.813 302.504 183.553 302.267C183.293 302.022 182.958 301.899 182.548 301.899C182.138 301.899 181.798 302.022 181.53 302.267C181.27 302.504 181.14 302.816 181.14 303.203C181.14 303.59 181.274 303.907 181.542 304.152C181.81 304.396 182.145 304.519 182.548 304.519Z" fill="white"/>
<path d="M142.872 240.465C141.303 240.465 139.892 240.136 138.637 239.479C137.396 238.807 136.419 237.879 135.706 236.693C134.993 235.507 134.637 234.163 134.637 232.663C134.637 231.163 134.993 229.819 135.706 228.633C136.419 227.447 137.396 226.526 138.637 225.868C139.892 225.197 141.303 224.861 142.872 224.861C144.241 224.861 145.475 225.104 146.573 225.59C147.671 226.075 148.583 226.776 149.311 227.69L146.615 230.134C145.646 228.962 144.469 228.376 143.086 228.376C142.273 228.376 141.546 228.555 140.904 228.912C140.277 229.269 139.785 229.776 139.428 230.434C139.086 231.077 138.915 231.82 138.915 232.663C138.915 233.506 139.086 234.256 139.428 234.914C139.785 235.557 140.277 236.057 140.904 236.414C141.546 236.771 142.273 236.95 143.086 236.95C144.469 236.95 145.646 236.364 146.615 235.192L149.311 237.636C148.583 238.55 147.671 239.25 146.573 239.736C145.475 240.222 144.241 240.465 142.872 240.465Z" fill="#333333"/>
<path d="M154.472 240.465C153.374 240.465 152.376 240.279 151.477 239.908C150.579 239.522 149.844 238.972 149.274 238.257L151.584 235.514C152.383 236.557 153.245 237.078 154.172 237.078C154.786 237.078 155.249 236.893 155.563 236.521C155.891 236.15 156.055 235.607 156.055 234.892V228.44H150.878V225.161H160.247V234.635C160.247 236.578 159.755 238.036 158.771 239.007C157.802 239.979 156.368 240.465 154.472 240.465Z" fill="#333333"/>
<path d="M170.571 240.465C169.003 240.465 167.591 240.136 166.336 239.479C165.095 238.807 164.118 237.879 163.405 236.693C162.692 235.507 162.336 234.163 162.336 232.663C162.336 231.163 162.692 229.819 163.405 228.633C164.118 227.447 165.095 226.526 166.336 225.868C167.591 225.197 169.003 224.861 170.571 224.861C171.94 224.861 173.174 225.104 174.272 225.59C175.37 226.075 176.283 226.776 177.01 227.69L174.315 230.134C173.345 228.962 172.168 228.376 170.785 228.376C169.972 228.376 169.245 228.555 168.603 228.912C167.976 229.269 167.484 229.776 167.127 230.434C166.785 231.077 166.614 231.82 166.614 232.663C166.614 233.506 166.785 234.256 167.127 234.914C167.484 235.557 167.976 236.057 168.603 236.414C169.245 236.771 169.972 236.95 170.785 236.95C172.168 236.95 173.345 236.364 174.315 235.192L177.01 237.636C176.283 238.55 175.37 239.25 174.272 239.736C173.174 240.222 171.94 240.465 170.571 240.465Z" fill="#333333"/>
<path d="M178.261 232.491H184.507V235.621H178.261V232.491Z" fill="#333333"/>
<path d="M192.17 225.161V240.165H187.935V228.44H185.154V225.161H192.17Z" fill="#333333"/>
<path d="M205.994 236.8V240.165H194.336V237.507L199.941 232.256C200.482 231.741 200.846 231.305 201.032 230.948C201.217 230.577 201.31 230.205 201.31 229.834C201.31 229.348 201.146 228.969 200.818 228.698C200.49 228.426 200.012 228.29 199.384 228.29C198.828 228.29 198.315 228.419 197.844 228.676C197.388 228.919 197.01 229.276 196.711 229.748L193.566 227.99C194.151 227.019 194.971 226.254 196.026 225.697C197.081 225.139 198.329 224.861 199.769 224.861C200.91 224.861 201.916 225.047 202.786 225.418C203.67 225.79 204.354 226.326 204.839 227.026C205.338 227.712 205.588 228.512 205.588 229.426C205.588 230.241 205.409 231.012 205.053 231.741C204.711 232.456 204.04 233.27 203.042 234.185L200.219 236.8H205.994Z" fill="#333333"/>
<path d="M212.703 224.861C214.856 224.861 216.553 225.497 217.794 226.768C219.035 228.04 219.655 229.869 219.655 232.256C219.655 233.97 219.32 235.449 218.65 236.693C217.994 237.921 217.059 238.857 215.847 239.5C214.649 240.143 213.259 240.465 211.676 240.465C210.835 240.465 210.029 240.365 209.259 240.165C208.489 239.979 207.833 239.715 207.291 239.372L208.831 236.328C209.559 236.843 210.478 237.1 211.591 237.1C212.66 237.1 213.523 236.807 214.179 236.221C214.849 235.621 215.241 234.756 215.355 233.627C214.5 234.356 213.38 234.721 211.997 234.721C211.056 234.721 210.193 234.528 209.409 234.142C208.624 233.742 207.997 233.184 207.526 232.47C207.07 231.741 206.842 230.912 206.842 229.984C206.842 228.969 207.099 228.076 207.612 227.304C208.14 226.518 208.845 225.918 209.73 225.504C210.628 225.075 211.619 224.861 212.703 224.861ZM213.002 231.677C213.616 231.677 214.115 231.505 214.5 231.163C214.885 230.805 215.077 230.341 215.077 229.769C215.077 229.212 214.885 228.762 214.5 228.419C214.129 228.062 213.623 227.883 212.981 227.883C212.382 227.883 211.89 228.055 211.505 228.397C211.134 228.74 210.949 229.205 210.949 229.791C210.949 230.362 211.134 230.82 211.505 231.163C211.89 231.505 212.389 231.677 213.002 231.677Z" fill="#333333"/>
<path d="M226.723 230.627C228.819 230.627 230.366 231.055 231.364 231.913C232.377 232.77 232.883 233.913 232.883 235.342C232.883 236.271 232.641 237.128 232.156 237.914C231.685 238.686 230.958 239.308 229.974 239.779C229.004 240.236 227.799 240.465 226.359 240.465C225.304 240.465 224.256 240.336 223.215 240.079C222.188 239.822 221.304 239.458 220.562 238.986L222.081 235.792C222.68 236.192 223.336 236.5 224.049 236.714C224.776 236.928 225.503 237.036 226.231 237.036C226.958 237.036 227.535 236.9 227.963 236.628C228.405 236.342 228.626 235.95 228.626 235.449C228.626 234.949 228.412 234.571 227.985 234.313C227.557 234.056 226.801 233.928 225.717 233.928H221.653L222.402 225.161H231.942V228.44H225.91L225.717 230.627H226.723Z" fill="#333333"/>
</svg>
