<svg width="282" height="288" viewBox="0 0 282 288" fill="none" xmlns="http://www.w3.org/2000/svg">
<path d="M280.968 118.663L280.777 266.531C280.771 271.492 276.677 275.514 271.633 275.514H180.367C175.323 275.514 171.24 271.492 171.246 266.531L171.437 118.663C171.451 107.595 180.584 98.6226 191.837 98.6226H260.62C271.873 98.6226 280.983 107.595 280.968 118.663Z" fill="#DCF0FF"/>
<path d="M280.971 117.069L280.778 266.531C280.771 271.492 276.677 275.514 271.634 275.514H180.367C175.324 275.514 171.24 271.492 171.246 266.531L171.259 256.427C171.246 266.597 172.167 269.872 195.85 269.872H263.437C276.148 269.872 273.711 268.416 273.738 247.67L273.904 118.823C273.922 104.901 264.936 100.253 260.827 98.8047C260.827 98.8047 267.858 98.8047 272.294 102.444C277.809 106.969 280.977 112.108 280.971 117.069Z" fill="#3D9BE9"/>
<path d="M271.642 276.423H180.354C174.807 276.423 170.313 272.001 170.32 266.541L170.511 118.757C170.526 107.132 180.118 97.7119 191.934 97.7119H260.52C272.339 97.7119 281.904 107.135 281.889 118.757L281.698 266.541C281.691 271.997 277.189 276.423 271.639 276.423H271.642ZM191.931 99.5318C181.137 99.5318 172.375 108.14 172.361 118.757L172.171 266.381C172.165 270.923 175.901 274.603 180.519 274.603H271.482C276.1 274.603 279.846 270.923 279.852 266.381L280.042 118.757C280.056 108.14 271.316 99.5318 260.522 99.5318H191.931Z" fill="#242424"/>
<path d="M258.47 80.7305H195.51L195.489 98.2012H258.449L258.47 80.7305Z" fill="#DCF0FF"/>
<path d="M258.47 80.7305L258.449 98.2012H195.489L195.493 95.1547C196.819 96.0101 199.807 95.8354 205.244 95.8354H247.673C253.49 95.8354 253.149 95.1074 253.155 90.3758C253.16 85.6441 253.846 84.5522 250.907 84.5522H220.313C195.676 84.5522 195.505 84.5522 195.502 87.0345L195.51 80.7305H258.47Z" fill="#3D9BE9"/>
<path d="M259.303 99.1114H194.632L194.655 79.8208H259.326L259.303 99.1114ZM196.345 97.2915H257.594L257.613 81.6407L196.364 81.6407L196.345 97.2915Z" fill="#242424"/>
<path d="M270.394 53.9619L270.369 76.7199C270.367 78.8174 268.914 80.5189 267.126 80.5189H186.855C185.066 80.5189 183.617 78.8174 183.619 76.7199L183.644 53.9619H270.394Z" fill="#3D9BE9"/>
<path d="M270.394 53.9619L270.373 73.7266C270.369 77.4761 267.77 80.5189 264.573 80.5189H189.407C186.21 80.5189 183.618 77.4761 183.622 73.7266L183.624 71.8991C183.621 75.212 187.267 75.3425 192.257 75.3425H243.693C260.583 75.3425 263.652 76.2428 263.656 73.0919L263.662 67.6905C263.666 63.6394 263.282 63.6394 260.188 63.6394H221.442C183.825 63.6394 183.632 64.5397 183.628 67.8751L183.644 53.9619H270.394Z" fill="#242424"/>
<path d="M266.845 81.6454H187.119C184.651 81.6454 182.65 79.3003 182.654 76.4016L182.684 52.8379H271.353L271.324 76.4016C271.32 79.2958 269.317 81.6454 266.845 81.6454ZM184.6 55.0885L184.573 76.4016C184.571 78.0535 185.713 79.3948 187.122 79.3948H266.852C268.26 79.3948 269.406 78.0535 269.408 76.4016L269.435 55.0885H184.6Z" fill="#242424"/>
<path d="M274.034 32.9595H180.049C178.464 32.9595 177.175 34.5175 177.173 36.4352L177.159 50.1478C177.157 52.0654 178.443 53.6235 180.027 53.6235H274.012C275.597 53.6235 276.886 52.0654 276.888 50.1478L276.903 36.4352C276.905 34.5175 275.619 32.9595 274.034 32.9595Z" fill="white"/>
<path d="M276.903 36.4352L276.888 50.1478C276.886 52.0654 275.597 53.6235 274.012 53.6235H180.027C178.443 53.6235 177.157 52.0654 177.159 50.1478L177.163 46.1431C177.289 50.0279 179.468 49.6973 209.776 49.6973H265.205C272.278 49.6973 272.117 50.5239 272.127 41.0184C272.134 33.9927 269.905 32.9595 269.905 32.9595H274.034C275.619 32.9595 276.905 34.5175 276.903 36.4352Z" fill="#3D9BE9"/>
<path d="M274.01 54.6572H180.026C177.97 54.6572 176.302 52.6321 176.304 50.1483L176.319 36.4356C176.321 33.9518 177.997 31.9268 180.049 31.9268L274.034 31.9268C276.09 31.9268 277.758 33.9518 277.756 36.4356L277.741 50.1483C277.739 52.6362 276.063 54.6572 274.01 54.6572ZM180.047 33.9932C178.934 33.9932 178.028 35.0883 178.026 36.4356L178.012 50.1483C178.01 51.4956 178.914 52.5908 180.028 52.5908H274.013C275.126 52.5908 276.032 51.4956 276.034 50.1483L276.048 36.4356C276.05 35.0883 275.146 33.9932 274.032 33.9932H180.047Z" fill="#242424"/>
<path d="M189.402 103.171C179.889 103.171 175.327 113.726 175.315 123.189C175.303 132.653 179.469 129.799 180.499 120.278C181.997 106.447 195.693 103.171 189.402 103.171Z" fill="white"/>
<path d="M201.151 86.7356C201.065 83.893 198.415 84.9158 198.408 90.7394C198.401 96.9269 201.48 97.6549 201.151 86.7356Z" fill="white"/>
<path d="M189.963 67.6901C189.966 65.2639 187.28 63.639 187.274 69.4906C187.268 75.3421 189.953 76.6924 189.963 67.6901Z" fill="white"/>
<path d="M280.503 135.08H171.575L171.573 247.361H280.5L280.503 135.08Z" fill="white"/>
<path d="M280.503 135.156H273.639L273.636 247.173H280.5L280.503 135.156Z" fill="#3D9BE9"/>
<path d="M280.503 135.156H171.944L171.943 174.192H280.502L280.503 135.156Z" fill="#3D9BE9"/>
<path d="M280.503 135.156H273.639L273.638 174.192H280.502L280.503 135.156Z" fill="#333333"/>
<path d="M281.425 248.304H170.651L170.651 134.137H281.425L281.425 248.304ZM172.498 246.418H279.579L279.579 136.023H172.498L172.498 246.418Z" fill="#333333"/>
<path d="M189.905 159.47C189.388 159.18 188.915 158.814 188.509 158.376C188.557 158.441 188.841 158.95 187.453 160.734C186.12 162.45 185.477 162.325 185.359 162.28C185.913 162.525 186.408 162.895 186.799 163.359C186.781 163.317 186.563 162.74 187.855 161.084C189.2 159.365 189.908 159.466 189.908 159.466H189.905L189.905 159.47Z" fill="white"/>
<path d="M188.706 147.186C187.513 145.165 187.761 144.508 187.761 144.508L187.746 144.52L187.738 144.527C187.391 144.878 186.963 145.142 186.494 145.285C186.513 145.285 187.041 145.304 188.211 147.386C189.374 149.453 188.994 149.988 188.975 150.015C189.411 149.638 189.898 149.332 190.427 149.106C190.427 149.106 189.902 149.208 188.706 147.186Z" fill="white"/>
<path d="M201.972 149.307C201.983 149.511 201.894 150.292 200.048 151.031C197.995 151.857 197.334 151.174 197.286 151.121C197.725 151.755 198.032 152.475 198.187 153.233C198.18 153.181 198.135 152.415 200.247 151.536C202.079 150.774 202.625 151.167 202.758 151.317C202.341 150.721 202.072 150.031 201.972 149.307Z" fill="white"/>
<path d="M198.311 154.417C198.311 157.6 195.771 160.18 192.636 160.18C191.683 160.18 190.749 159.939 189.911 159.471C189.394 159.18 188.921 158.815 188.515 158.377C186.366 156.065 186.47 152.422 188.744 150.238C188.818 150.166 188.896 150.095 188.973 150.027C189.409 149.646 189.896 149.336 190.421 149.106C192.887 148.05 195.749 148.884 197.281 151.113C197.721 151.747 198.027 152.467 198.182 153.225C198.263 153.617 198.304 154.013 198.304 154.413L198.311 154.417Z" fill="white"/>
<path d="M186.802 163.363C186.407 162.895 185.916 162.526 185.362 162.284L185.344 162.277C183.32 161.398 180.975 162.348 180.108 164.4C179.24 166.456 180.178 168.836 182.201 169.714C184.225 170.593 186.569 169.643 187.437 167.591C188.035 166.177 187.792 164.54 186.806 163.367L186.802 163.363Z" fill="white"/>
<path d="M187.733 140.198C186.555 139.002 184.65 139.006 183.475 140.198C182.301 141.393 182.301 143.328 183.475 144.52C184.649 145.712 186.555 145.712 187.733 144.52L187.74 144.512C188.911 143.317 188.907 141.386 187.733 140.194L187.733 140.198Z" fill="white"/>
<path d="M209.582 145.452C207.832 143.672 204.992 143.675 203.242 145.452C202.26 146.448 201.787 147.854 201.964 149.254C201.964 149.269 201.964 149.288 201.968 149.303C202.068 150.027 202.337 150.717 202.758 151.313C202.769 151.328 202.78 151.343 202.791 151.358C202.924 151.543 203.076 151.72 203.238 151.883C204.992 153.663 207.828 153.663 209.582 151.883C211.336 150.102 211.336 147.221 209.582 145.441L209.582 145.448L209.582 145.452Z" fill="white"/>
<path d="M203.214 164.401C203.38 163.367 202.689 162.394 201.67 162.224C200.651 162.059 199.695 162.76 199.529 163.793C199.362 164.827 200.053 165.8 201.072 165.97C202.091 166.136 203.047 165.434 203.214 164.401Z" fill="white"/>
<path d="M180.196 156.236C181.817 156.236 183.132 154.901 183.132 153.252C183.132 151.604 181.817 150.269 180.196 150.269C178.575 150.269 177.261 151.604 177.261 153.252C177.261 154.901 178.575 156.236 180.196 156.236Z" fill="white"/>
<path d="M196.123 145.67C196.755 145.67 197.268 145.15 197.268 144.508C197.268 143.867 196.755 143.347 196.123 143.347C195.492 143.347 194.979 143.867 194.978 144.508C194.978 145.15 195.492 145.67 196.123 145.67Z" fill="white"/>
<path d="M220.331 143.769C221.745 143.769 222.772 144.046 223.412 144.6C224.062 145.146 224.387 145.991 224.387 147.135C224.387 148.27 224.053 149.102 223.386 149.63C222.727 150.158 221.718 150.422 220.357 150.422H219.133L219.133 152.996H217.079L217.079 143.769H220.331ZM220.516 148.64C221.2 148.64 221.665 148.503 221.911 148.23C222.157 147.949 222.28 147.544 222.28 147.016C222.28 146.479 222.118 146.101 221.793 145.881C221.477 145.652 220.981 145.537 220.305 145.537H219.133L219.133 148.64H220.516Z" fill="white"/>
<path d="M232.626 143.769L232.626 145.603H228.044L228.044 147.504H232.165L232.165 149.26H228.044L228.044 151.174H232.77L232.77 152.996H225.99L225.99 143.769H232.626Z" fill="white"/>
<path d="M237.857 143.769C239.27 143.769 240.297 144.046 240.938 144.6C241.587 145.146 241.912 145.991 241.912 147.135C241.912 148.27 241.579 149.102 240.911 149.63C240.253 150.158 239.244 150.422 237.883 150.422H236.659L236.659 152.996H234.605L234.605 143.769H237.857ZM238.041 148.64C238.726 148.64 239.191 148.503 239.437 148.23C239.683 147.949 239.806 147.544 239.806 147.016C239.806 146.479 239.643 146.101 239.318 145.881C239.002 145.652 238.506 145.537 237.831 145.537H236.659L236.659 148.64H238.041Z" fill="white"/>
<path d="M247.413 145.551L247.413 152.996H245.359L245.359 145.551H242.752L242.752 143.769H250.02L250.02 145.551H247.413Z" fill="white"/>
<path d="M251.526 143.769H253.58L253.58 152.996H251.526L251.526 143.769Z" fill="white"/>
<path d="M259.099 143.769C260.74 143.769 262 144.173 262.877 144.983C263.755 145.784 264.194 146.902 264.194 148.336C264.194 149.77 263.764 150.906 262.904 151.742C262.052 152.578 260.749 152.996 258.993 152.996H255.846L255.846 143.769H259.099ZM259.204 151.174C260.143 151.174 260.863 150.937 261.363 150.461C261.872 149.986 262.127 149.295 262.127 148.389C262.127 147.482 261.872 146.787 261.363 146.303C260.863 145.81 260.09 145.564 259.046 145.564H257.9L257.9 151.174H259.204Z" fill="white"/>
<path d="M272.602 143.769L272.602 145.603H268.02L268.02 147.504H272.141L272.141 149.26H268.02L268.02 151.174H272.746L272.746 152.996H265.966L265.966 143.769H272.602Z" fill="white"/>
<path d="M220.015 166.679C219.313 166.679 218.641 166.574 218 166.362C217.36 166.142 216.855 165.861 216.486 165.518L216.974 164.488C217.325 164.796 217.772 165.051 218.317 165.254C218.861 165.456 219.427 165.557 220.015 165.557C220.55 165.557 220.985 165.496 221.319 165.372C221.652 165.249 221.898 165.082 222.056 164.871C222.214 164.651 222.293 164.404 222.293 164.132C222.293 163.815 222.188 163.559 221.977 163.366C221.775 163.172 221.507 163.018 221.174 162.904C220.849 162.781 220.489 162.675 220.094 162.587C219.699 162.499 219.3 162.398 218.896 162.283C218.501 162.16 218.137 162.006 217.803 161.821C217.478 161.637 217.215 161.39 217.013 161.082C216.811 160.765 216.71 160.361 216.71 159.868C216.71 159.392 216.833 158.957 217.079 158.561C217.334 158.156 217.72 157.835 218.238 157.597C218.764 157.351 219.431 157.228 220.239 157.228C220.774 157.228 221.306 157.298 221.832 157.439C222.359 157.58 222.815 157.782 223.202 158.046L222.767 159.102C222.372 158.838 221.955 158.649 221.516 158.534C221.077 158.411 220.652 158.35 220.239 158.35C219.721 158.35 219.295 158.416 218.962 158.548C218.628 158.68 218.382 158.856 218.224 159.076C218.075 159.296 218.001 159.542 218.001 159.815C218.001 160.141 218.102 160.4 218.303 160.594C218.514 160.787 218.782 160.941 219.107 161.056C219.44 161.17 219.804 161.276 220.199 161.373C220.594 161.461 220.989 161.562 221.384 161.676C221.788 161.791 222.152 161.94 222.477 162.125C222.811 162.31 223.079 162.556 223.28 162.864C223.482 163.172 223.583 163.568 223.583 164.052C223.583 164.519 223.456 164.954 223.201 165.359C222.947 165.755 222.552 166.076 222.016 166.323C221.49 166.56 220.823 166.679 220.015 166.679Z" fill="white"/>
<path d="M232.117 157.333H233.433L233.433 166.574H232.116L232.117 157.333ZM226.823 166.574H225.507L225.507 157.333H226.824L226.823 166.574ZM232.235 162.455H226.692L226.692 161.307H232.235L232.235 162.455Z" fill="white"/>
<path d="M240.353 166.679C239.65 166.679 238.996 166.56 238.391 166.323C237.794 166.085 237.276 165.755 236.837 165.333C236.398 164.902 236.056 164.4 235.81 163.828C235.564 163.256 235.441 162.631 235.441 161.953C235.441 161.276 235.564 160.651 235.81 160.079C236.056 159.507 236.398 159.01 236.837 158.587C237.276 158.156 237.794 157.822 238.391 157.584C238.988 157.346 239.642 157.228 240.353 157.228C241.055 157.228 241.7 157.346 242.288 157.584C242.885 157.813 243.403 158.143 243.842 158.574C244.29 158.996 244.632 159.494 244.869 160.066C245.115 160.638 245.238 161.267 245.238 161.953C245.237 162.64 245.115 163.269 244.869 163.841C244.632 164.413 244.289 164.915 243.842 165.346C243.403 165.768 242.885 166.098 242.288 166.336C241.7 166.565 241.055 166.679 240.353 166.679ZM240.353 165.504C240.862 165.504 241.331 165.416 241.761 165.24C242.2 165.064 242.578 164.818 242.894 164.501C243.219 164.176 243.469 163.797 243.644 163.366C243.829 162.935 243.921 162.464 243.921 161.953C243.921 161.443 243.829 160.972 243.644 160.541C243.469 160.11 243.219 159.736 242.894 159.419C242.578 159.093 242.2 158.842 241.762 158.666C241.331 158.49 240.862 158.402 240.353 158.402C239.835 158.402 239.356 158.49 238.918 158.666C238.487 158.842 238.11 159.093 237.785 159.419C237.46 159.736 237.206 160.11 237.022 160.541C236.846 160.972 236.758 161.443 236.758 161.953C236.758 162.464 236.846 162.935 237.021 163.366C237.206 163.797 237.46 164.176 237.785 164.501C238.11 164.818 238.487 165.064 238.917 165.24C239.356 165.416 239.835 165.504 240.353 165.504Z" fill="white"/>
<path d="M247.25 166.574L247.25 157.333H250.845C251.652 157.333 252.341 157.461 252.912 157.716C253.482 157.971 253.921 158.341 254.228 158.825C254.536 159.309 254.689 159.885 254.689 160.554C254.689 161.223 254.536 161.799 254.228 162.283C253.921 162.759 253.482 163.128 252.912 163.392C252.341 163.647 251.652 163.775 250.844 163.775H247.974L248.567 163.155L248.567 166.574H247.25ZM248.567 163.287L247.974 162.627H250.805C251.648 162.627 252.284 162.446 252.714 162.085C253.153 161.725 253.373 161.214 253.373 160.554C253.373 159.894 253.153 159.384 252.714 159.023C252.284 158.662 251.648 158.482 250.805 158.482H247.974L248.567 157.822L248.567 163.287Z" fill="white"/>
<path d="M213.487 222.407H177.42L177.419 239.799H213.486L213.487 222.407Z" fill="#3D9BE9"/>
<path fill-rule="evenodd" clip-rule="evenodd" d="M186.319 230.824C186.319 233.539 187.817 235.079 189.831 235.079C191.856 235.079 193.343 233.539 193.343 230.824C193.343 228.108 191.856 226.568 189.831 226.568C187.817 226.568 186.319 228.108 186.319 230.824ZM191.435 230.824C191.435 232.693 190.779 233.468 189.831 233.468C188.894 233.468 188.239 232.693 188.239 230.824C188.239 228.955 188.894 228.179 189.831 228.179C190.779 228.179 191.435 228.955 191.435 230.824ZM184.895 226.709H181.359L181.359 228.238H182.998L182.998 234.938H184.895L184.895 226.709ZM200.176 234.942L200.176 232.095C200.176 231.683 200.283 231.372 200.499 231.162C200.714 230.946 200.969 230.838 201.263 230.838C201.857 230.838 202.154 231.244 202.154 232.056L202.154 234.942H203.633L203.633 231.732C203.633 231.031 203.443 230.498 203.065 230.131C202.686 229.758 202.187 229.572 201.566 229.572C201.22 229.572 200.874 229.66 200.528 229.837C200.189 230.014 199.918 230.262 199.715 230.583C199.578 230.302 199.373 230.063 199.099 229.866C198.831 229.67 198.531 229.572 198.198 229.572C197.675 229.572 197.212 229.801 196.807 230.259L196.807 229.66H195.338L195.338 234.942H196.807L196.807 232.095C196.807 231.683 196.915 231.372 197.13 231.162C197.352 230.946 197.603 230.838 197.884 230.838C198.171 230.838 198.377 230.937 198.501 231.133C198.632 231.329 198.697 231.637 198.697 232.056L198.697 234.942H200.176ZM208.308 231.192C208.543 231.434 208.66 231.768 208.66 232.193C208.66 232.612 208.543 232.949 208.308 233.205C208.073 233.46 207.779 233.587 207.426 233.587C207.074 233.587 206.774 233.46 206.525 233.205C206.284 232.943 206.163 232.602 206.163 232.183C206.163 231.765 206.287 231.434 206.535 231.192C206.79 230.95 207.09 230.829 207.436 230.829C207.782 230.829 208.073 230.95 208.308 231.192ZM207.133 234.825C207.825 234.825 208.402 234.566 208.866 234.049C208.866 234.631 208.709 235.057 208.396 235.325C208.083 235.594 207.655 235.728 207.113 235.728C206.578 235.728 206.068 235.545 205.585 235.178L205.017 236.287C205.324 236.523 205.68 236.703 206.085 236.827C206.496 236.958 206.898 237.024 207.289 237.024C208.027 237.024 208.667 236.808 209.209 236.376C209.483 236.166 209.702 235.878 209.865 235.512C210.028 235.145 210.11 234.726 210.11 234.255L210.11 229.65H208.641L208.641 230.347C208.23 229.83 207.711 229.572 207.084 229.572C206.457 229.572 205.899 229.824 205.409 230.328C204.926 230.825 204.684 231.467 204.684 232.252C204.684 233.031 204.919 233.656 205.389 234.127C205.866 234.592 206.447 234.825 207.133 234.825Z" fill="white"/>
<path d="M222.304 235.839H221.926L221.179 234.776C221.095 234.785 221.011 234.79 220.918 234.79H220.041L220.041 235.839H219.695L219.695 232.531H220.918C221.749 232.531 222.252 232.956 222.252 233.665C222.252 234.185 221.982 234.549 221.506 234.705L222.304 235.839ZM220.909 234.492C221.562 234.492 221.907 234.185 221.907 233.665C221.907 233.136 221.562 232.833 220.909 232.833H220.041L220.041 234.492H220.909Z" fill="black"/>
<path d="M223.413 235.537H225.377L225.377 235.839H223.067L223.067 232.531H225.307L225.307 232.833H223.413L223.413 234.01H225.102L225.102 234.308H223.413L223.413 235.537Z" fill="black"/>
<path d="M227.09 235.868C226.6 235.868 226.119 235.693 225.876 235.438L226.012 235.168C226.245 235.4 226.66 235.57 227.09 235.57C227.701 235.57 227.967 235.31 227.967 234.984C227.967 234.076 225.956 234.634 225.956 233.41C225.956 232.923 226.329 232.502 227.16 232.502C227.528 232.502 227.911 232.611 228.172 232.795L228.056 233.074C227.776 232.89 227.449 232.8 227.16 232.8C226.562 232.8 226.296 233.07 226.296 233.401C226.296 234.308 228.308 233.76 228.308 234.965C228.308 235.452 227.925 235.868 227.09 235.868Z" fill="black"/>
<path d="M229.405 235.537H231.37L231.37 235.839H229.06L229.06 232.531H231.3L231.3 232.833H229.405L229.405 234.01H231.094L231.094 234.308H229.405L229.405 235.537Z" fill="black"/>
<path d="M234.622 235.839L234.23 234.956H232.41L232.018 235.839H231.659L233.152 232.531H233.493L234.986 235.839H234.622ZM232.536 234.672H234.104L233.32 232.895L232.536 234.672Z" fill="black"/>
<path d="M238.135 235.839H237.757L237.01 234.776C236.926 234.785 236.842 234.79 236.749 234.79H235.872L235.872 235.839H235.526L235.526 232.531H236.749C237.579 232.531 238.083 232.956 238.083 233.665C238.083 234.185 237.813 234.549 237.337 234.705L238.135 235.839ZM236.74 234.492C237.393 234.492 237.738 234.185 237.738 233.665C237.738 233.136 237.393 232.833 236.74 232.833H235.872L235.872 234.492H236.74Z" fill="black"/>
<path d="M240.317 235.868C239.337 235.868 238.609 235.154 238.609 234.185C238.609 233.216 239.337 232.502 240.322 232.502C240.798 232.502 241.227 232.663 241.516 232.985L241.297 233.207C241.031 232.933 240.704 232.814 240.331 232.814C239.542 232.814 238.95 233.401 238.95 234.185C238.95 234.97 239.542 235.556 240.331 235.556C240.704 235.556 241.031 235.438 241.297 235.159L241.516 235.381C241.227 235.702 240.798 235.868 240.317 235.868Z" fill="black"/>
<path d="M244.642 232.531H244.982L244.982 235.839H244.642L244.642 234.313H242.598L242.598 235.839H242.252L242.252 232.531H242.598L242.598 234.006H244.642L244.642 232.531Z" fill="black"/>
<path d="M248.564 235.868C247.728 235.868 247.22 235.376 247.22 234.426L247.22 232.531H247.565L247.565 234.412C247.565 235.197 247.929 235.556 248.564 235.556C249.203 235.556 249.567 235.197 249.567 234.412L249.567 232.531H249.903L249.903 234.426C249.903 235.376 249.399 235.868 248.564 235.868Z" fill="black"/>
<path d="M251.844 235.868C251.354 235.868 250.873 235.693 250.631 235.438L250.766 235.168C250.999 235.4 251.415 235.57 251.844 235.57C252.455 235.57 252.721 235.31 252.721 234.984C252.721 234.076 250.71 234.634 250.71 233.41C250.71 232.923 251.083 232.502 251.914 232.502C252.283 232.502 252.665 232.611 252.927 232.795L252.81 233.074C252.53 232.89 252.203 232.8 251.914 232.8C251.317 232.8 251.051 233.07 251.051 233.401C251.051 234.308 253.062 233.76 253.062 234.965C253.062 235.452 252.679 235.868 251.844 235.868Z" fill="black"/>
<path d="M254.16 235.537H256.124L256.124 235.839H253.814L253.814 232.531H256.054L256.054 232.833H254.16L254.16 234.01H255.849L255.849 234.308H254.16L254.16 235.537Z" fill="black"/>
<path d="M259.585 235.868C258.596 235.868 257.868 235.149 257.868 234.185C257.868 233.221 258.596 232.502 259.585 232.502C260.565 232.502 261.298 233.216 261.298 234.185C261.298 235.154 260.565 235.868 259.585 235.868ZM259.585 235.556C260.369 235.556 260.952 234.974 260.952 234.185C260.952 233.396 260.369 232.814 259.585 232.814C258.796 232.814 258.208 233.396 258.208 234.185C258.208 234.974 258.796 235.556 259.585 235.556Z" fill="black"/>
<path d="M264.461 232.531H264.801L264.801 235.839H264.517L262.417 233.155L262.417 235.839H262.072L262.072 232.531H262.356L264.461 235.216L264.461 232.531Z" fill="black"/>
<path d="M265.868 235.839L265.868 232.531H266.213L266.213 235.537H268.042L268.042 235.839H265.868Z" fill="black"/>
<path d="M270.696 232.531L269.389 234.696L269.389 235.839H269.048L269.048 234.696L267.742 232.531H268.11L269.23 234.388L270.35 232.531H270.696Z" fill="black"/>
<path d="M242.995 226.445C243.889 226.445 244.374 227.055 244.374 228.099C244.374 229.224 243.749 229.81 242.837 229.81C242.534 229.81 242.251 229.758 242.04 229.631L242.179 229.356C242.352 229.47 242.582 229.512 242.832 229.512C243.557 229.512 244.023 229.054 244.023 228.156C244.023 228.08 244.018 227.986 244.009 227.886C243.841 228.25 243.447 228.454 242.981 228.454C242.313 228.454 241.848 228.066 241.848 227.461C241.848 226.842 242.342 226.445 242.995 226.445ZM243.034 228.165C243.548 228.165 243.898 227.853 243.898 227.442C243.898 227.078 243.591 226.733 243.01 226.733C242.525 226.733 242.189 227.012 242.189 227.452C242.189 227.886 242.515 228.165 243.034 228.165Z" fill="black"/>
<path d="M245.922 226.445C246.815 226.445 247.3 227.055 247.3 228.099C247.3 229.224 246.676 229.81 245.763 229.81C245.461 229.81 245.177 229.758 244.966 229.631L245.105 229.356C245.278 229.47 245.509 229.512 245.759 229.512C246.484 229.512 246.95 229.054 246.95 228.156C246.95 228.08 246.945 227.986 246.935 227.886C246.767 228.25 246.373 228.454 245.907 228.454C245.24 228.454 244.774 228.066 244.774 227.461C244.774 226.842 245.269 226.445 245.922 226.445ZM245.96 228.165C246.474 228.165 246.825 227.853 246.825 227.442C246.825 227.078 246.517 226.733 245.936 226.733C245.451 226.733 245.115 227.012 245.115 227.452C245.115 227.886 245.442 228.165 245.96 228.165Z" fill="black"/>
<path d="M248.512 228.246C248.061 228.246 247.753 227.886 247.753 227.348C247.753 226.809 248.061 226.45 248.512 226.45C248.959 226.45 249.271 226.804 249.271 227.348C249.271 227.891 248.959 228.246 248.512 228.246ZM248.253 229.782L250.548 226.473H250.832L248.536 229.782H248.253ZM248.512 228.033C248.824 228.033 249.031 227.778 249.031 227.348C249.031 226.917 248.824 226.662 248.512 226.662C248.195 226.662 247.993 226.922 247.993 227.348C247.993 227.773 248.195 228.033 248.512 228.033ZM250.572 229.805C250.126 229.805 249.814 229.446 249.814 228.907C249.814 228.369 250.126 228.009 250.572 228.009C251.024 228.009 251.331 228.369 251.331 228.907C251.331 229.446 251.024 229.805 250.572 229.805ZM250.572 229.593C250.889 229.593 251.091 229.333 251.091 228.907C251.091 228.482 250.889 228.222 250.572 228.222C250.26 228.222 250.054 228.477 250.054 228.907C250.054 229.338 250.26 229.593 250.572 229.593Z" fill="black"/>
<path d="M254.596 226.473C255.451 226.473 255.969 226.899 255.969 227.608C255.969 228.312 255.451 228.737 254.596 228.737H253.693L253.693 229.782H253.338L253.338 226.473H254.596ZM254.586 228.43C255.259 228.43 255.614 228.128 255.614 227.608C255.614 227.078 255.259 226.776 254.586 226.776H253.693L253.693 228.43H254.586Z" fill="black"/>
<path d="M258.115 229.81C257.256 229.81 256.732 229.319 256.732 228.369L256.732 226.473H257.088L257.088 228.354C257.088 229.139 257.462 229.498 258.115 229.498C258.773 229.498 259.148 229.139 259.148 228.354L259.148 226.473H259.494L259.494 228.369C259.494 229.319 258.975 229.81 258.115 229.81Z" fill="black"/>
<path d="M263.249 229.782H262.86L262.092 228.718C262.005 228.728 261.919 228.733 261.823 228.733H260.92L260.92 229.782H260.565L260.565 226.473H261.823C262.678 226.473 263.196 226.899 263.196 227.608C263.196 228.128 262.918 228.491 262.428 228.647L263.249 229.782ZM261.813 228.435C262.485 228.435 262.841 228.128 262.841 227.608C262.841 227.078 262.485 226.776 261.813 226.776H260.92L260.92 228.435H261.813Z" fill="black"/>
<path d="M264.035 229.782L264.035 226.473H264.39L264.39 229.782H264.035Z" fill="black"/>
<path d="M266.137 229.782L266.137 226.776H264.956L264.956 226.473H267.674L267.674 226.776H266.493L266.493 229.782H266.137Z" fill="black"/>
<path d="M270.715 226.473L269.371 228.638L269.371 229.782H269.02L269.02 228.638L267.676 226.473H268.055L269.208 228.331L270.36 226.473H270.715Z" fill="black"/>
<path d="M187.743 189.933L187.743 187.304H189.863L189.863 190.946C188.76 191.69 187.242 192.087 185.81 192.087C182.66 192.087 180.34 190.151 180.34 187.445C180.34 184.739 182.66 182.803 185.853 182.803C187.614 182.803 189.075 183.341 190.049 184.354L188.559 185.586C187.829 184.893 186.984 184.572 185.968 184.572C184.02 184.572 182.688 185.739 182.688 187.445C182.688 189.125 184.02 190.318 185.939 190.318C186.569 190.318 187.156 190.215 187.743 189.933Z" fill="#333333"/>
<path d="M198.891 182.957H201.211L201.211 191.934H198.891L198.891 188.253H194.337L194.337 191.934H192.018L192.018 182.957H194.337L194.337 186.496H198.891L198.891 182.957Z" fill="#333333"/>
<path d="M212.461 191.934H209.969L208.036 189.433H205.902L205.902 191.934H203.583L203.583 182.957H207.922C210.599 182.957 212.275 184.201 212.275 186.214C212.275 187.56 211.516 188.548 210.213 189.048L212.461 191.934ZM209.926 186.214C209.926 185.226 209.21 184.649 207.793 184.649H205.902L205.902 187.778H207.793C209.21 187.778 209.926 187.189 209.926 186.214Z" fill="#333333"/>
<path d="M218.452 182.957C221.13 182.957 222.805 184.201 222.805 186.214C222.805 188.215 221.13 189.458 218.452 189.458H216.433L216.433 191.934H214.113L214.113 182.957H218.452ZM218.323 187.766C219.74 187.766 220.456 187.189 220.456 186.214C220.456 185.226 219.74 184.649 218.323 184.649H216.433L216.433 187.766H218.323Z" fill="#333333"/>
<path d="M224.073 189.125L224.073 187.522H228.126L228.126 189.125H224.073Z" fill="#333333"/>
<path d="M232.366 190.241H236.676L236.676 191.934H229.101L229.101 190.587L232.968 187.317C233.855 186.56 234.013 186.099 234.013 185.663C234.013 184.957 233.469 184.547 232.409 184.547C231.55 184.547 230.82 184.842 230.333 185.445L228.643 184.47C229.416 183.457 230.82 182.803 232.624 182.803C234.858 182.803 236.347 183.829 236.347 185.457C236.347 186.329 236.075 187.124 234.672 188.291L232.366 190.241Z" fill="#333333"/>
<path d="M109.26 117.565L109.071 263.561C109.065 268.459 105.023 272.43 100.043 272.43H9.93208C4.9523 272.43 0.920258 268.459 0.926582 263.561L1.11508 117.565C1.12919 106.637 10.1466 97.7783 21.257 97.7783H89.1691C100.28 97.7783 109.274 106.637 109.26 117.565Z" fill="#DCF0FF"/>
<path d="M109.262 115.991L109.072 263.561C109.065 268.459 105.023 272.43 100.043 272.43H9.93231C4.95253 272.43 0.92049 268.459 0.926814 263.561L0.939694 253.585C0.92673 263.625 1.83594 266.86 25.2186 266.86H91.9506C104.501 266.86 102.095 265.422 102.121 244.938L102.285 117.723C102.303 103.977 93.431 99.3878 89.3737 97.9575C89.3737 97.9575 96.3155 97.9575 100.695 101.551C106.14 106.018 109.269 111.092 109.262 115.991Z" fill="#3D9BE9"/>
<path d="M100.053 273.329H9.92007C4.44341 273.329 0.00633894 268.962 0.0132986 263.572L0.201688 117.658C0.216508 106.18 9.68754 96.8799 21.3533 96.8799H89.0717C100.741 96.8799 110.184 106.184 110.17 117.658L109.981 263.572C109.974 268.959 105.53 273.329 100.049 273.329H100.053ZM21.351 98.6767C10.6936 98.6767 2.04199 107.176 2.02846 117.658L1.84027 263.414C1.83448 267.899 5.52353 271.532 10.0831 271.532H99.8945C104.454 271.532 108.153 267.899 108.158 263.414L108.347 117.658C108.36 107.176 99.7304 98.6767 89.0731 98.6767H21.351Z" fill="#242424"/>
<path d="M87.0459 80.1133H24.8828L24.8622 97.3629H87.0253L87.0459 80.1133Z" fill="#DCF0FF"/>
<path d="M87.0459 80.1133L87.0253 97.3629H24.8622L24.8658 94.355C26.1756 95.1995 29.1252 95.027 34.4935 95.027H76.386C82.1294 95.027 81.7924 94.3083 81.798 89.6365C81.8035 84.9647 82.4805 83.8866 79.5784 83.8866H49.3719C25.0472 83.8866 24.8783 83.8866 24.8754 86.3375L24.8828 80.1133H87.0459Z" fill="#3D9BE9"/>
<path d="M87.8667 98.2603H24.0144L24.0371 79.2139H87.8894L87.8667 98.2603ZM25.7057 96.4635H86.1796L86.198 81.0107L25.7242 81.0107L25.7057 96.4635Z" fill="#242424"/>
<path d="M98.8193 53.6836L98.795 76.1535C98.7928 78.2245 97.3583 79.9044 95.5922 79.9044H16.3373C14.5712 79.9044 13.1404 78.2245 13.1427 76.1535L13.167 53.6836H98.8193Z" fill="#3D9BE9"/>
<path d="M98.8193 53.6836L98.7982 73.1981C98.7942 76.9001 96.229 79.9044 93.0719 79.9044H18.8576C15.7006 79.9044 13.1418 76.9001 13.1459 73.1981L13.1478 71.3937C13.1443 74.6647 16.7446 74.7936 21.6715 74.7936H72.4565C89.1322 74.7936 92.1631 75.6824 92.1665 72.5715L92.1723 67.2384C92.1766 63.2386 91.7976 63.2386 88.7429 63.2386H50.4874C13.3461 63.2386 13.1557 64.1275 13.1521 67.4206L13.167 53.6836H98.8193Z" fill="#242424"/>
<path d="M95.3158 81.0152H16.5991C14.1621 81.0152 12.1867 78.6997 12.1903 75.8377L12.2197 52.5723H99.767L99.7376 75.8377C99.734 78.6953 97.7566 81.0152 95.3158 81.0152ZM14.1119 54.7944L14.0853 75.8377C14.0832 77.4687 15.211 78.7931 16.6019 78.7931H95.3224C96.7133 78.7931 97.8444 77.4687 97.8465 75.8377L97.873 54.7944H14.1119Z" fill="#242424"/>
<path d="M102.412 32.9473H9.61724C8.05256 32.9473 6.77964 34.4856 6.77765 36.379L6.76344 49.918C6.76145 51.8114 8.03114 53.3497 9.59583 53.3497H102.391C103.956 53.3497 105.229 51.8114 105.231 49.918L105.245 36.379C105.247 34.4856 103.977 32.9473 102.412 32.9473Z" fill="white"/>
<path d="M105.245 36.379L105.231 49.918C105.229 51.8114 103.956 53.3497 102.391 53.3497H9.59583C8.03114 53.3497 6.76145 51.8114 6.76344 49.918L6.76759 45.964C6.89171 49.7997 9.04349 49.4732 38.9681 49.4732H93.6949C100.679 49.4732 100.519 50.2893 100.529 40.9042C100.536 33.9674 98.3355 32.9473 98.3355 32.9473H102.412C103.977 32.9473 105.247 34.4856 105.245 36.379Z" fill="#3D9BE9"/>
<path d="M102.39 54.3694H9.59493C7.56489 54.3694 5.918 52.37 5.92057 49.9176L5.93478 36.3786C5.93735 33.9262 7.59181 31.9268 9.61848 31.9268L102.414 31.9268C104.444 31.9268 106.091 33.9262 106.088 36.3786L106.074 49.9176C106.071 52.3741 104.417 54.3694 102.39 54.3694ZM9.61634 33.967C8.51702 33.967 7.62226 35.0483 7.62086 36.3786L7.60665 49.9176C7.60526 51.2479 8.49775 52.3292 9.59707 52.3292H102.392C103.492 52.3292 104.386 51.2479 104.388 49.9176L104.402 36.3786C104.403 35.0483 103.511 33.967 102.412 33.967H9.61634Z" fill="#242424"/>
<path d="M18.8522 102.271C9.45896 102.271 4.95529 112.692 4.94323 122.036C4.93117 131.379 9.04504 128.562 10.0619 119.161C11.541 105.505 25.0632 102.271 18.8522 102.271Z" fill="white"/>
<path d="M30.4509 86.0415C30.3665 83.2349 27.7503 84.2447 27.7435 89.9946C27.7362 96.1038 30.7759 96.8225 30.4509 86.0415Z" fill="white"/>
<path d="M19.4055 67.2388C19.4081 64.8434 16.7569 63.2391 16.7506 69.0165C16.7443 74.794 19.3958 76.1272 19.4055 67.2388Z" fill="white"/>
<path d="M108.799 133.775H1.25L1.24736 244.635H108.796L108.799 133.775Z" fill="white"/>
<path d="M108.799 133.849H102.021L102.019 244.448H108.796L108.799 133.849Z" fill="#3D9BE9"/>
<path d="M108.8 133.849H1.61621L1.61529 172.391H108.8L108.8 133.849Z" fill="#3D9BE9"/>
<path d="M108.799 133.849H102.021L102.021 172.391H108.798L108.799 133.849Z" fill="#333333"/>
<path d="M109.711 245.565H0.339065L0.338867 132.844H109.711L109.711 245.565ZM2.16192 243.703H107.888L107.888 134.706H2.16173L2.16192 243.703Z" fill="#333333"/>
<path d="M19.3482 157.856C18.8378 157.569 18.3712 157.208 17.9702 156.776C18.0175 156.839 18.2983 157.342 16.9274 159.103C15.6113 160.798 14.9769 160.675 14.8603 160.63C15.4071 160.872 15.8956 161.237 16.2821 161.695C16.2638 161.654 16.0488 161.084 17.3248 159.45C18.6519 157.752 19.3519 157.852 19.3519 157.852H19.3482L19.3482 157.856Z" fill="white"/>
<path d="M18.1603 145.727C16.9828 143.731 17.227 143.083 17.227 143.083L17.2125 143.094L17.2052 143.102C16.8625 143.448 16.4396 143.709 15.9765 143.85C15.9948 143.85 16.5161 143.869 17.6718 145.924C18.8201 147.965 18.4446 148.494 18.4264 148.52C18.8566 148.147 19.3378 147.846 19.8591 147.622C19.8591 147.622 19.3415 147.723 18.1603 145.727Z" fill="white"/>
<path d="M31.2583 147.819C31.2692 148.02 31.1817 148.791 29.3588 149.521C27.3318 150.337 26.6792 149.663 26.6318 149.611C27.0656 150.236 27.3682 150.947 27.5213 151.696C27.514 151.644 27.4703 150.888 29.5557 150.02C31.364 149.268 31.9035 149.655 32.0347 149.804C31.6228 149.216 31.3567 148.534 31.2583 147.819Z" fill="white"/>
<path d="M27.6464 152.865C27.6463 156.008 25.138 158.555 22.0428 158.555C21.1022 158.555 20.1798 158.317 19.3522 157.855C18.8418 157.569 18.3752 157.207 17.9742 156.775C15.8524 154.493 15.9546 150.895 18.2004 148.739C18.2733 148.669 18.3499 148.598 18.4264 148.531C18.8566 148.155 19.3379 147.849 19.8556 147.622C22.2909 146.579 25.1164 147.402 26.6293 149.603C27.0631 150.229 27.3657 150.94 27.5188 151.689C27.599 152.076 27.6391 152.467 27.6391 152.862L27.6464 152.865Z" fill="white"/>
<path d="M16.2836 161.698C15.8935 161.236 15.4086 160.871 14.8618 160.633L14.8436 160.626C12.8457 159.758 10.5307 160.696 9.67388 162.722C8.81709 164.752 9.74304 167.101 11.7409 167.969C13.7387 168.837 16.0538 167.898 16.9106 165.873C17.5012 164.476 17.2606 162.86 16.2872 161.702L16.2836 161.698Z" fill="white"/>
<path d="M17.2019 138.827C16.039 137.647 14.1578 137.651 12.9984 138.827C11.839 140.008 11.839 141.918 12.9983 143.095C14.1576 144.272 16.0388 144.272 17.2018 143.095L17.2091 143.087C18.3648 141.907 18.3612 140 17.2019 138.824L17.2019 138.827Z" fill="white"/>
<path d="M38.775 144.014C37.047 142.256 34.2434 142.26 32.5153 144.014C31.5455 144.997 31.0788 146.386 31.2538 147.767C31.2538 147.782 31.2538 147.801 31.2574 147.816C31.3559 148.531 31.622 149.212 32.0376 149.801C32.0485 149.815 32.0595 149.83 32.0704 149.845C32.2016 150.028 32.3511 150.203 32.5115 150.363C34.2432 152.121 37.0431 152.121 38.7749 150.363C40.5066 148.605 40.5067 145.76 38.775 144.002L38.775 144.01L38.775 144.014Z" fill="white"/>
<path d="M32.4889 162.722C32.653 161.702 31.9713 160.741 30.9651 160.573C29.9588 160.409 29.0146 161.102 28.8505 162.122C28.6864 163.143 29.3681 164.104 30.3744 164.271C31.3806 164.435 32.3248 163.742 32.4889 162.722Z" fill="white"/>
<path d="M9.76051 154.661C11.361 154.661 12.6589 153.343 12.6589 151.716C12.659 150.088 11.3611 148.77 9.76065 148.77C8.16018 148.77 6.86227 150.088 6.86223 151.716C6.8622 153.343 8.16004 154.661 9.76051 154.661Z" fill="white"/>
<path d="M25.4856 144.229C26.109 144.229 26.6158 143.716 26.6158 143.082C26.6158 142.449 26.1091 141.936 25.4856 141.936C24.8622 141.936 24.3555 142.449 24.3554 143.082C24.3554 143.716 24.8622 144.229 25.4856 144.229Z" fill="white"/>
<path d="M49.39 142.354C50.7854 142.354 51.7994 142.627 52.432 143.175C53.0734 143.713 53.394 144.547 53.394 145.677C53.394 146.798 53.0646 147.619 52.4059 148.14C51.7559 148.662 50.7592 148.922 49.4159 148.922H48.2069L48.2068 151.464H46.1788L46.179 142.354H49.39ZM49.5719 147.163C50.2479 147.163 50.7073 147.028 50.9499 146.759C51.1926 146.481 51.314 146.081 51.314 145.56C51.314 145.03 51.1537 144.656 50.833 144.439C50.521 144.213 50.0313 144.1 49.364 144.1H48.207L48.2069 147.163H49.5719Z" fill="white"/>
<path d="M61.5289 142.354L61.5289 144.165H57.0049L57.0048 146.042H61.0739L61.0738 147.775H57.0048L57.0048 149.665H61.6718L61.6717 151.464H54.9767L54.9769 142.354H61.5289Z" fill="white"/>
<path d="M66.6938 142.354C68.0892 142.354 69.1032 142.627 69.7358 143.175C70.3772 143.713 70.6978 144.547 70.6978 145.677C70.6977 146.798 70.3684 147.619 69.7097 148.14C69.0597 148.662 68.063 148.922 66.7197 148.922H65.5107L65.5106 151.464H63.4826L63.4828 142.354H66.6938ZM66.8757 147.163C67.5517 147.163 68.0111 147.028 68.2537 146.759C68.4964 146.481 68.6178 146.081 68.6178 145.56C68.6178 145.03 68.4575 144.656 68.1368 144.439C67.8248 144.213 67.3351 144.1 66.6678 144.1H65.5108L65.5107 147.163H66.8757Z" fill="white"/>
<path d="M76.1287 144.113L76.1285 151.464H74.1005L74.1007 144.113H71.5267L71.5267 142.354H78.7027L78.7027 144.113H76.1287Z" fill="white"/>
<path d="M80.1899 142.354H82.2179L82.2177 151.464H80.1897L80.1899 142.354Z" fill="white"/>
<path d="M87.6666 142.354C89.2873 142.354 90.5309 142.753 91.3976 143.553C92.2642 144.343 92.6975 145.447 92.6975 146.863C92.6975 148.279 92.2728 149.4 91.4234 150.226C90.5827 151.051 89.2957 151.464 87.5624 151.464H84.4554L84.4556 142.354H87.6666ZM87.7704 149.665C88.6978 149.665 89.4084 149.431 89.9024 148.962C90.4051 148.492 90.6565 147.81 90.6565 146.915C90.6565 146.02 90.4052 145.334 89.9025 144.856C89.4086 144.369 88.6459 144.126 87.6146 144.126H86.4835L86.4834 149.665H87.7704Z" fill="white"/>
<path d="M100.999 142.354L100.999 144.165H96.4748L96.4748 146.042H100.544L100.544 147.775H96.4747L96.4747 149.665H101.142L101.142 151.464H94.4466L94.4468 142.354H100.999Z" fill="white"/>
<path d="M49.0777 164.974C48.3844 164.974 47.7214 164.87 47.0887 164.661C46.4561 164.444 45.9577 164.166 45.5937 163.827L46.0748 162.811C46.4214 163.115 46.8634 163.367 47.4008 163.567C47.9381 163.766 48.4971 163.866 49.0778 163.866C49.6064 163.866 50.0354 163.806 50.3648 163.684C50.6941 163.562 50.9368 163.397 51.0928 163.189C51.2488 162.971 51.3268 162.728 51.3268 162.459C51.3268 162.146 51.2228 161.894 51.0148 161.703C50.8155 161.512 50.5512 161.36 50.2218 161.247C49.9012 161.125 49.5458 161.021 49.1558 160.934C48.7658 160.847 48.3715 160.747 47.9728 160.634C47.5828 160.512 47.2232 160.36 46.8938 160.178C46.5732 159.995 46.3132 159.752 46.1139 159.448C45.9145 159.135 45.8149 158.735 45.8149 158.249C45.8149 157.78 45.9362 157.35 46.1789 156.959C46.4303 156.559 46.8116 156.242 47.3229 156.007C47.843 155.764 48.5016 155.642 49.299 155.642C49.8276 155.642 50.352 155.712 50.872 155.851C51.392 155.99 51.8426 156.19 52.224 156.45L51.7949 157.493C51.4049 157.232 50.9933 157.045 50.5599 156.932C50.1266 156.811 49.7063 156.75 49.2989 156.75C48.7876 156.75 48.3673 156.815 48.0379 156.946C47.7086 157.076 47.4659 157.25 47.3099 157.467C47.1626 157.684 47.0889 157.927 47.0889 158.197C47.0889 158.518 47.1885 158.775 47.3879 158.966C47.5959 159.157 47.8602 159.309 48.1809 159.422C48.5102 159.535 48.8699 159.639 49.2599 159.735C49.6499 159.822 50.0399 159.922 50.4299 160.034C50.8285 160.147 51.1882 160.295 51.5089 160.478C51.8382 160.66 52.1025 160.903 52.3018 161.207C52.5012 161.512 52.6008 161.903 52.6008 162.381C52.6008 162.841 52.4751 163.271 52.2238 163.671C51.9724 164.062 51.5824 164.379 51.0538 164.622C50.5337 164.857 49.8751 164.974 49.0777 164.974Z" fill="white"/>
<path d="M61.0262 155.746H62.3262L62.326 164.87H61.026L61.0262 155.746ZM55.8 164.87H54.5L54.5002 155.746H55.8002L55.8 164.87ZM61.1431 160.803H55.6701L55.6701 159.67H61.1431L61.1431 160.803Z" fill="white"/>
<path d="M69.1579 164.974C68.4645 164.974 67.8189 164.857 67.2209 164.622C66.6315 164.388 66.1202 164.062 65.6869 163.645C65.2535 163.219 64.9156 162.724 64.6729 162.159C64.4303 161.594 64.3089 160.977 64.3089 160.308C64.309 159.639 64.4303 159.022 64.673 158.457C64.9157 157.893 65.2537 157.402 65.687 156.985C66.1204 156.559 66.6317 156.229 67.2211 155.994C67.8104 155.759 68.4561 155.642 69.1581 155.642C69.8514 155.642 70.4884 155.759 71.0691 155.994C71.6584 156.22 72.1697 156.546 72.6031 156.972C73.0451 157.389 73.3831 157.88 73.617 158.444C73.8597 159.009 73.981 159.63 73.981 160.308C73.981 160.986 73.8596 161.607 73.6169 162.172C73.3829 162.737 73.0449 163.232 72.6029 163.658C72.1696 164.075 71.6582 164.401 71.0689 164.635C70.4882 164.861 69.8512 164.974 69.1579 164.974ZM69.1579 163.814C69.6606 163.814 70.1242 163.727 70.5489 163.554C70.9822 163.38 71.3549 163.136 71.6669 162.824C71.9876 162.502 72.2346 162.129 72.408 161.703C72.59 161.277 72.681 160.812 72.681 160.308C72.681 159.804 72.59 159.339 72.408 158.914C72.2347 158.488 71.9877 158.119 71.667 157.806C71.3551 157.484 70.9824 157.237 70.5491 157.063C70.1244 156.889 69.6607 156.802 69.1581 156.802C68.6467 156.802 68.1744 156.889 67.741 157.063C67.3164 157.237 66.9437 157.484 66.623 157.806C66.3023 158.119 66.051 158.488 65.869 158.914C65.6956 159.339 65.609 159.804 65.609 160.308C65.6089 160.812 65.6956 161.277 65.8689 161.703C66.0509 162.129 66.3022 162.502 66.6229 162.824C66.9436 163.136 67.3162 163.38 67.7409 163.554C68.1742 163.727 68.6466 163.814 69.1579 163.814Z" fill="white"/>
<path d="M75.9679 164.87L75.9681 155.746H79.5171C80.3144 155.746 80.9948 155.872 81.5581 156.124C82.1214 156.376 82.5548 156.741 82.8581 157.219C83.1614 157.697 83.3131 158.266 83.313 158.927C83.313 159.587 83.1613 160.156 82.858 160.634C82.5547 161.103 82.1213 161.468 81.558 161.729C80.9946 161.981 80.3143 162.107 79.5169 162.107H76.6829L77.268 161.494L77.2679 164.87H75.9679ZM77.2679 161.625L76.683 160.973H79.478C80.31 160.973 80.9383 160.795 81.363 160.439C81.7963 160.082 82.013 159.578 82.013 158.927C82.0131 158.275 81.7964 157.771 81.3631 157.415C80.9384 157.058 80.3101 156.88 79.4781 156.88H76.6831L77.2681 156.229L77.2679 161.625Z" fill="white"/>
<path d="M47.0508 218.284H7.07715L7.07671 237.56H47.0503L47.0508 218.284Z" fill="#3D9BE9"/>
<path fill-rule="evenodd" clip-rule="evenodd" d="M16.9378 227.612C16.9378 230.622 18.5987 232.328 20.8305 232.328C23.0753 232.328 24.7232 230.622 24.7232 227.612C24.7232 224.603 23.0753 222.896 20.8305 222.896C18.5986 222.896 16.9378 224.603 16.9378 227.612ZM22.6082 227.612C22.6082 229.684 21.8815 230.543 20.8305 230.543C19.7924 230.543 19.0658 229.684 19.0658 227.612C19.0658 225.541 19.7924 224.681 20.8305 224.681C21.8815 224.681 22.6082 225.541 22.6082 227.612ZM15.3599 223.052H11.4412L11.4412 224.746H13.2578L13.2578 232.172H15.3599L15.3599 223.052ZM32.2972 232.177L32.2973 229.022C32.2973 228.565 32.4167 228.22 32.6555 227.988C32.8943 227.749 33.1765 227.629 33.5021 227.629C34.1606 227.629 34.4898 228.079 34.4898 228.978L34.4897 232.177H36.1286L36.1287 228.619C36.1287 227.843 35.9189 227.252 35.4992 226.845C35.0796 226.432 34.526 226.225 33.8386 226.225C33.4551 226.225 33.0716 226.323 32.6881 226.519C32.3118 226.715 32.0115 226.99 31.7872 227.346C31.6353 227.034 31.4073 226.769 31.1034 226.552C30.8068 226.334 30.4739 226.225 30.1049 226.225C29.526 226.225 29.0122 226.479 28.5636 226.987L28.5636 226.323H26.9355L26.9354 232.177H28.5635L28.5636 229.022C28.5636 228.565 28.683 228.22 28.9218 227.988C29.1678 227.749 29.4464 227.629 29.7575 227.629C30.0759 227.629 30.3038 227.738 30.4413 227.955C30.586 228.173 30.6584 228.514 30.6584 228.978L30.6583 232.177H32.2972ZM41.3104 228.021C41.5708 228.289 41.7011 228.659 41.7011 229.131C41.7011 229.595 41.5708 229.968 41.3103 230.251C41.0498 230.534 40.7242 230.676 40.3334 230.676C39.9427 230.676 39.6099 230.534 39.3349 230.251C39.0672 229.961 38.9333 229.584 38.9333 229.12C38.9333 228.655 39.0708 228.289 39.3458 228.021C39.628 227.752 39.9609 227.618 40.3444 227.618C40.7279 227.618 41.0499 227.752 41.3104 228.021ZM40.0078 232.047C40.7748 232.047 41.4152 231.76 41.929 231.187C41.9289 231.833 41.7553 232.304 41.4079 232.602C41.0606 232.899 40.5866 233.048 39.9861 233.048C39.3927 233.048 38.8283 232.845 38.2929 232.439L37.6633 233.668C38.0034 233.929 38.3978 234.129 38.8464 234.267C39.3022 234.412 39.7472 234.484 40.1814 234.484C40.9991 234.484 41.7082 234.245 42.3088 233.766C42.6127 233.534 42.8551 233.215 43.036 232.809C43.2169 232.402 43.3074 231.938 43.3074 231.416L43.3075 226.312H41.6794L41.6794 227.085C41.2236 226.512 40.6483 226.225 39.9537 226.225C39.259 226.225 38.6403 226.504 38.0976 227.063C37.5622 227.614 37.2944 228.325 37.2944 229.196C37.2944 230.059 37.5549 230.752 38.0758 231.274C38.604 231.789 39.248 232.047 40.0078 232.047Z" fill="white"/>
<path d="M6.94434 189.612L6.94434 180.635H9.13602L9.13602 189.612H6.94434Z" fill="#333333"/>
<path d="M15.4828 180.635C18.0127 180.635 19.5956 181.879 19.5956 183.893C19.5956 185.893 18.0127 187.137 15.4828 187.137H13.5752L13.5752 189.612H11.3835L11.3835 180.635H15.4828ZM15.361 185.444C16.7004 185.444 17.3768 184.867 17.3768 183.893C17.3768 182.905 16.7004 182.328 15.361 182.328H13.5752L13.5752 185.444H15.361Z" fill="#333333"/>
<path d="M27.7603 189.612L26.9215 187.689H22.5246L21.6858 189.612H19.44L23.661 180.635H25.8256L30.0602 189.612H27.7603ZM23.2281 186.111H26.2315L24.7298 182.674L23.2281 186.111Z" fill="#333333"/>
<path d="M41.7171 189.612H39.6607L39.6471 184.226L36.8602 188.663H35.8726L33.0991 184.342L33.0991 189.612H31.0427L31.0427 180.635H32.8556L36.4002 186.214L39.8907 180.635H41.69L41.7171 189.612Z" fill="#333333"/>
<path d="M48.5502 189.766C45.5603 189.766 43.3687 187.791 43.3687 185.124C43.3687 182.456 45.5603 180.481 48.5502 180.481C51.5266 180.481 53.7318 182.444 53.7318 185.124C53.7318 187.804 51.5266 189.766 48.5502 189.766ZM48.5502 187.996C50.2414 187.996 51.5131 186.829 51.5131 185.124C51.5131 183.418 50.2414 182.251 48.5502 182.251C46.8591 182.251 45.5874 183.418 45.5874 185.124C45.5874 186.829 46.8591 187.996 48.5502 187.996Z" fill="#333333"/>
<path d="M63.7669 189.612H61.4129L59.5865 187.112H57.5707L57.5707 189.612H55.379L55.379 180.635H59.4782C62.0081 180.635 63.591 181.879 63.591 183.893C63.591 185.239 62.874 186.227 61.6429 186.727L63.7669 189.612ZM61.3723 183.893C61.3723 182.905 60.6958 182.328 59.3565 182.328H57.5707L57.5707 185.457H59.3565C60.6958 185.457 61.3723 184.867 61.3723 183.893Z" fill="#333333"/>
<path d="M67.5056 187.945H72.6602L72.6602 189.612H65.3275L65.3275 180.635H72.4843L72.4843 182.302H67.5056L67.5056 184.252H71.9025L71.9025 185.868H67.5056L67.5056 187.945Z" fill="#333333"/>
<path d="M74.404 189.612L74.404 180.635H76.5957L76.5957 187.919H81.3444L81.3444 189.612H74.404Z" fill="#333333"/>
<path d="M82.5689 189.612L82.5689 180.635H84.7606L84.7606 189.612H82.5689Z" fill="#333333"/>
<path d="M93.5291 180.635H95.6937L95.6937 189.612H93.8944L89.1728 184.162L89.1728 189.612H87.0081L87.0081 180.635H88.821L93.5291 186.086L93.5291 180.635Z" fill="#333333"/>
<path d="M205.845 102.764L205.621 276.337C205.613 282.16 200.807 286.882 194.887 286.882H87.7548C81.8344 286.882 77.0407 282.16 77.0483 276.337L77.2724 102.764C77.2891 89.7709 88.0099 79.2393 101.219 79.2393H181.959C195.168 79.2393 205.862 89.7709 205.845 102.764Z" fill="#DCF0FF"/>
<path d="M205.848 100.892L205.621 276.337C205.614 282.161 200.808 286.882 194.887 286.882H87.7551C81.8347 286.882 77.041 282.161 77.0485 276.337L77.0638 264.477C77.0484 276.414 78.1294 280.259 105.929 280.259H185.266C200.186 280.259 197.326 278.55 197.358 254.197L197.553 102.952C197.574 86.6095 187.026 81.1536 182.202 79.4531C182.202 79.4531 190.455 79.4531 195.662 83.7256C202.136 89.0363 205.855 95.069 205.848 100.892Z" fill="#3D9BE9"/>
<path d="M194.9 287.949H87.7419C81.2308 287.949 75.9556 282.758 75.9639 276.35L76.1878 102.874C76.2055 89.2281 87.4655 78.1709 101.335 78.1709H181.845C195.718 78.1709 206.945 89.2323 206.928 102.874L206.704 276.35C206.696 282.754 201.411 287.949 194.896 287.949H194.9ZM101.332 80.3071C88.6616 80.3071 78.3758 90.4115 78.3597 102.874L78.1359 276.162C78.129 281.494 82.5149 285.813 87.9358 285.813H194.712C200.133 285.813 204.53 281.494 204.537 276.162L204.76 102.874C204.776 90.4115 194.517 80.3071 181.846 80.3071H101.332Z" fill="#242424"/>
<path d="M179.436 58.2373H105.531L105.507 78.7452H179.412L179.436 58.2373Z" fill="#DCF0FF"/>
<path d="M179.436 58.2373L179.412 78.7452H105.507L105.511 75.1691C107.068 76.1732 110.575 75.9681 116.957 75.9681H166.763C173.591 75.9681 173.191 75.1136 173.197 69.5594C173.204 64.0051 174.009 62.7234 170.558 62.7234H134.646C105.727 62.7234 105.526 62.7234 105.522 65.6372L105.531 58.2373H179.436Z" fill="#3D9BE9"/>
<path d="M180.414 79.8126H104.5L104.527 57.1685H180.441L180.414 79.8126ZM106.511 77.6763H178.408L178.43 59.3047H106.533L106.511 77.6763Z" fill="#242424"/>
<path d="M193.433 26.8159L193.404 53.5302C193.401 55.9924 191.696 57.9896 189.596 57.9896H95.3707C93.271 57.9896 91.57 55.9924 91.5726 53.5302L91.6016 26.8159L193.433 26.8159Z" fill="#3D9BE9"/>
<path d="M193.433 26.8159L193.408 50.0165C193.403 54.4178 190.353 57.9896 186.6 57.9896H98.3671C94.6137 57.9896 91.5717 54.4178 91.5764 50.0165L91.5788 47.8713C91.5745 51.7601 95.8549 51.9134 101.712 51.9134H162.09C181.916 51.9134 185.519 52.9701 185.523 49.2715L185.53 42.9311C185.535 38.1758 185.085 38.1758 181.453 38.1758H135.971C91.8146 38.1758 91.5881 39.2325 91.5839 43.1477L91.6016 26.8159L193.433 26.8159Z" fill="#242424"/>
<path d="M189.268 59.3106H95.6821C92.7849 59.3106 90.4364 56.5578 90.4407 53.1551L90.4756 25.4951L194.56 25.4951L194.525 53.1551C194.521 56.5525 192.17 59.3106 189.268 59.3106ZM92.7252 28.137L92.6936 53.1551C92.6911 55.0942 94.0319 56.6688 95.6855 56.6688H189.276C190.929 56.6688 192.274 55.0942 192.276 53.1551L192.308 28.137L92.7252 28.137Z" fill="#242424"/>
<path d="M197.704 2.16309L87.3805 2.16309C85.5202 2.16309 84.0069 3.99201 84.0045 6.24299L83.9876 22.3394C83.9853 24.5904 85.4948 26.4193 87.355 26.4193L197.678 26.4193C199.539 26.4193 201.052 24.5904 201.054 22.3394L201.071 6.24299C201.074 3.99201 199.564 2.16309 197.704 2.16309Z" fill="white"/>
<path d="M201.071 6.24299L201.054 22.3394C201.052 24.5904 199.539 26.4193 197.678 26.4193L87.355 26.4193C85.4948 26.4193 83.9853 24.5904 83.9876 22.3394L83.9925 17.6386C84.1401 22.1988 86.6983 21.8107 122.275 21.8107L187.34 21.8107C195.643 21.8107 195.453 22.7809 195.465 11.623C195.473 3.3759 192.857 2.16309 192.857 2.16309L197.704 2.16309C199.564 2.16309 201.074 3.99201 201.071 6.24299Z" fill="#3D9BE9"/>
<path d="M197.676 27.6311L87.3528 27.6311C84.9393 27.6311 82.9813 25.254 82.9844 22.3384L83.0013 6.24193C83.0043 3.32633 84.9713 0.949219 87.3808 0.949219L197.704 0.949219C200.118 0.949219 202.076 3.32633 202.073 6.24193L202.056 22.3384C202.053 25.2588 200.086 27.6311 197.676 27.6311ZM87.3783 3.37484C86.0713 3.37484 85.0075 4.66043 85.0058 6.24193L84.989 22.3384C84.9873 23.9199 86.0484 25.2055 87.3553 25.2055L197.679 25.2055C198.986 25.2055 200.049 23.9199 200.051 22.3384L200.068 6.24193C200.07 4.66043 199.009 3.37484 197.702 3.37484L87.3783 3.37484Z" fill="#242424"/>
<path d="M98.3624 84.5796C87.1948 84.5796 81.8404 96.9698 81.8261 108.078C81.8118 119.187 86.7027 115.837 87.9117 104.66C89.6701 88.4248 105.747 84.5796 98.3624 84.5796Z" fill="white"/>
<path d="M112.149 65.2863C112.048 61.9495 108.938 63.15 108.93 69.986C108.921 77.2492 112.535 78.1037 112.149 65.2863Z" fill="white"/>
<path d="M99.0185 42.9307C99.0215 40.0828 95.8695 38.1754 95.8621 45.0442C95.8547 51.9129 99.007 53.498 99.0185 42.9307Z" fill="white"/>
<path d="M205.297 122.035H77.4336L77.4305 253.835H205.294L205.297 122.035Z" fill="white"/>
<path d="M205.3 122.125H197.242L197.239 253.615H205.297L205.3 122.125Z" fill="#3D9BE9"/>
<path d="M205.297 122.125H77.8662L77.8651 167.947H205.296L205.297 122.125Z" fill="#3D9BE9"/>
<path d="M205.3 122.125H197.242L197.241 167.947H205.299L205.3 122.125Z" fill="#333333"/>
<path d="M206.382 254.942H76.3507L76.3506 120.928H206.382L206.382 254.942ZM78.5179 252.728H204.215L204.214 123.142H78.5178L78.5179 252.728Z" fill="#333333"/>
<path d="M98.9547 150.666C98.3479 150.325 97.7931 149.896 97.3164 149.382C97.3727 149.458 97.7064 150.055 96.0767 152.149C94.5119 154.164 93.7577 154.018 93.619 153.965C94.2692 154.252 94.85 154.686 95.3094 155.231C95.2877 155.182 95.032 154.505 96.5491 152.561C98.1269 150.542 98.9591 150.662 98.9591 150.662H98.9547L98.9547 150.666Z" fill="white"/>
<path d="M97.5415 136.247C96.1416 133.874 96.432 133.104 96.432 133.104L96.4147 133.117L96.406 133.126C95.9986 133.537 95.4958 133.847 94.9453 134.016C94.967 134.016 95.5868 134.038 96.9607 136.482C98.326 138.908 97.8795 139.536 97.8579 139.567C98.3693 139.125 98.9415 138.766 99.5613 138.5C99.5613 138.5 98.9458 138.62 97.5415 136.247Z" fill="white"/>
<path d="M113.116 138.734C113.129 138.973 113.024 139.89 110.857 140.758C108.447 141.727 107.672 140.926 107.615 140.864C108.131 141.608 108.491 142.453 108.673 143.343C108.664 143.281 108.612 142.382 111.091 141.351C113.241 140.457 113.883 140.917 114.039 141.094C113.549 140.395 113.233 139.584 113.116 138.734Z" fill="white"/>
<path d="M108.819 144.734C108.819 148.471 105.837 151.499 102.157 151.499C101.039 151.499 99.9425 151.216 98.9586 150.667C98.3518 150.326 97.797 149.897 97.3202 149.383C94.7977 146.669 94.9191 142.392 97.5892 139.829C97.6759 139.745 97.7669 139.661 97.8579 139.581C98.3694 139.134 98.9415 138.771 99.557 138.501C102.452 137.261 105.811 138.24 107.61 140.856C108.126 141.6 108.486 142.446 108.668 143.335C108.763 143.796 108.811 144.261 108.811 144.73L108.819 144.734Z" fill="white"/>
<path d="M95.3083 155.235C94.8445 154.686 94.268 154.252 93.6179 153.969L93.5962 153.96C91.221 152.928 88.4687 154.044 87.45 156.452C86.4314 158.865 87.5323 161.659 89.9075 162.69C92.2827 163.722 95.035 162.606 96.0537 160.198C96.7559 158.537 96.4698 156.616 95.3126 155.239L95.3083 155.235Z" fill="white"/>
<path d="M96.4014 128.043C95.0187 126.639 92.7822 126.644 91.4038 128.043C90.0255 129.446 90.0254 131.717 91.4037 133.116C92.782 134.515 95.0185 134.515 96.4012 133.116L96.4099 133.107C97.7839 131.704 97.7797 129.437 96.4014 128.038L96.4014 128.043Z" fill="white"/>
<path d="M122.048 134.211C119.994 132.121 116.661 132.125 114.606 134.211C113.453 135.379 112.898 137.031 113.106 138.673C113.106 138.691 113.106 138.713 113.111 138.731C113.228 139.581 113.544 140.391 114.038 141.091C114.051 141.108 114.064 141.126 114.077 141.144C114.233 141.361 114.411 141.569 114.602 141.759C116.66 143.849 119.989 143.849 122.048 141.759C124.107 139.669 124.107 136.287 122.048 134.197L122.048 134.206L122.048 134.211Z" fill="white"/>
<path d="M114.576 156.453C114.771 155.24 113.961 154.097 112.765 153.898C111.568 153.703 110.446 154.527 110.251 155.74C110.056 156.953 110.866 158.095 112.062 158.294C113.259 158.489 114.381 157.666 114.576 156.453Z" fill="white"/>
<path d="M87.5531 146.868C89.4559 146.868 90.9989 145.301 90.999 143.366C90.999 141.432 89.456 139.864 87.5532 139.864C85.6505 139.864 84.1074 141.432 84.1073 143.366C84.1073 145.301 85.6503 146.868 87.5531 146.868Z" fill="white"/>
<path d="M106.25 134.467C106.991 134.467 107.594 133.856 107.594 133.103C107.594 132.351 106.991 131.74 106.25 131.74C105.509 131.74 104.906 132.351 104.906 133.103C104.906 133.856 105.509 134.467 106.25 134.467Z" fill="white"/>
<path d="M134.666 132.234C136.325 132.234 137.53 132.559 138.282 133.21C139.045 133.851 139.426 134.842 139.426 136.185C139.426 137.518 139.034 138.494 138.251 139.114C137.478 139.734 136.294 140.044 134.696 140.044H133.259L133.259 143.065H130.848L130.848 132.234H134.666ZM134.882 137.952C135.686 137.952 136.232 137.792 136.52 137.471C136.809 137.141 136.953 136.666 136.953 136.046C136.953 135.416 136.762 134.971 136.381 134.713C136.01 134.445 135.428 134.31 134.635 134.31H133.259L133.259 137.952H134.882Z" fill="white"/>
<path d="M149.098 132.234L149.098 134.388H143.719L143.719 136.619H148.557L148.556 138.68H143.719L143.719 140.927H149.267L149.267 143.065H141.308L141.308 132.234H149.098Z" fill="white"/>
<path d="M155.238 132.234C156.897 132.234 158.102 132.559 158.855 133.21C159.617 133.851 159.998 134.842 159.998 136.185C159.998 137.518 159.607 138.494 158.824 139.114C158.051 139.734 156.866 140.044 155.269 140.044H153.831L153.831 143.065H151.42L151.42 132.234H155.238ZM155.454 137.952C156.258 137.952 156.804 137.792 157.093 137.471C157.381 137.141 157.525 136.666 157.525 136.046C157.525 135.416 157.335 134.971 156.954 134.713C156.583 134.445 156 134.31 155.207 134.31H153.832L153.831 137.952H155.454Z" fill="white"/>
<path d="M166.455 134.326L166.455 143.065H164.044L164.044 134.326H160.984L160.984 132.234H169.515L169.515 134.326H166.455Z" fill="white"/>
<path d="M171.283 132.234H173.695L173.694 143.065H171.283L171.283 132.234Z" fill="white"/>
<path d="M180.172 132.234C182.099 132.234 183.578 132.709 184.608 133.659C185.638 134.6 186.154 135.911 186.154 137.595C186.154 139.279 185.649 140.612 184.639 141.593C183.639 142.575 182.109 143.065 180.048 143.065H176.355L176.355 132.234H180.172ZM180.296 140.927C181.398 140.927 182.243 140.648 182.831 140.09C183.428 139.532 183.727 138.721 183.727 137.657C183.727 136.593 183.428 135.777 182.831 135.209C182.243 134.631 181.337 134.341 180.111 134.341H178.766L178.766 140.927H180.296Z" fill="white"/>
<path d="M196.023 132.234L196.023 134.388H190.644L190.644 136.619H195.482L195.482 138.68H190.644L190.644 140.927H196.193L196.193 143.065H188.233L188.233 132.234H196.023Z" fill="white"/>
<path d="M134.294 159.127C133.47 159.127 132.682 159.003 131.93 158.756C131.178 158.497 130.585 158.167 130.152 157.764L130.724 156.555C131.136 156.917 131.662 157.216 132.301 157.454C132.94 157.691 133.604 157.81 134.294 157.81C134.923 157.81 135.433 157.738 135.825 157.593C136.216 157.449 136.505 157.252 136.69 157.005C136.876 156.746 136.968 156.457 136.968 156.137C136.968 155.765 136.845 155.465 136.597 155.238C136.36 155.011 136.046 154.83 135.655 154.696C135.273 154.551 134.851 154.427 134.387 154.324C133.924 154.22 133.455 154.102 132.981 153.967C132.517 153.823 132.09 153.642 131.698 153.425C131.317 153.208 131.008 152.919 130.771 152.557C130.534 152.185 130.415 151.71 130.415 151.132C130.415 150.574 130.56 150.063 130.848 149.598C131.147 149.122 131.6 148.745 132.208 148.467C132.826 148.177 133.609 148.033 134.557 148.033C135.186 148.033 135.809 148.115 136.428 148.281C137.046 148.446 137.582 148.683 138.035 148.993L137.525 150.233C137.061 149.923 136.572 149.701 136.057 149.567C135.541 149.422 135.042 149.35 134.557 149.35C133.949 149.35 133.45 149.427 133.058 149.582C132.667 149.737 132.378 149.944 132.193 150.202C132.018 150.46 131.93 150.75 131.93 151.07C131.93 151.452 132.048 151.757 132.285 151.984C132.533 152.211 132.847 152.392 133.228 152.526C133.62 152.661 134.047 152.785 134.511 152.898C134.975 153.002 135.438 153.12 135.902 153.255C136.376 153.389 136.804 153.565 137.185 153.781C137.576 153.998 137.891 154.288 138.128 154.649C138.365 155.011 138.483 155.476 138.483 156.044C138.483 156.591 138.334 157.103 138.035 157.578C137.736 158.043 137.272 158.42 136.644 158.709C136.025 158.988 135.242 159.127 134.294 159.127Z" fill="white"/>
<path d="M148.5 148.157H150.045L150.045 159.003H148.5L148.5 148.157ZM142.286 159.003H140.741L140.741 148.157H142.287L142.286 159.003ZM148.639 154.169H142.132L142.132 152.821H148.639L148.639 154.169Z" fill="white"/>
<path d="M158.168 159.127C157.343 159.127 156.576 158.988 155.865 158.709C155.164 158.43 154.556 158.043 154.041 157.547C153.526 157.041 153.124 156.452 152.835 155.78C152.547 155.109 152.403 154.375 152.403 153.58C152.403 152.785 152.547 152.051 152.835 151.38C153.124 150.708 153.526 150.125 154.041 149.629C154.556 149.122 155.164 148.73 155.865 148.451C156.566 148.172 157.333 148.033 158.168 148.033C158.992 148.033 159.749 148.172 160.44 148.451C161.14 148.72 161.748 149.107 162.263 149.613C162.789 150.109 163.191 150.693 163.469 151.364C163.757 152.036 163.902 152.774 163.902 153.58C163.902 154.386 163.757 155.124 163.469 155.796C163.191 156.467 162.789 157.056 162.263 157.562C161.748 158.058 161.14 158.446 160.439 158.725C159.749 158.993 158.992 159.127 158.168 159.127ZM158.168 157.748C158.765 157.748 159.316 157.645 159.821 157.438C160.336 157.232 160.78 156.943 161.151 156.571C161.532 156.188 161.825 155.744 162.032 155.238C162.248 154.732 162.356 154.179 162.356 153.58C162.356 152.981 162.248 152.428 162.032 151.922C161.826 151.416 161.532 150.977 161.151 150.605C160.78 150.223 160.337 149.928 159.821 149.722C159.317 149.515 158.765 149.412 158.168 149.412C157.56 149.412 156.998 149.515 156.483 149.722C155.978 149.928 155.535 150.223 155.154 150.605C154.773 150.977 154.474 151.416 154.257 151.922C154.051 152.428 153.948 152.981 153.948 153.58C153.948 154.179 154.051 154.732 154.257 155.238C154.474 155.744 154.772 156.188 155.154 156.571C155.535 156.943 155.978 157.232 156.483 157.438C156.998 157.645 157.56 157.748 158.168 157.748Z" fill="white"/>
<path d="M166.264 159.003L166.264 148.157H170.484C171.431 148.157 172.24 148.306 172.91 148.606C173.58 148.906 174.095 149.339 174.456 149.908C174.816 150.476 174.996 151.152 174.996 151.937C174.996 152.723 174.816 153.399 174.455 153.967C174.095 154.525 173.58 154.959 172.91 155.269C172.24 155.569 171.431 155.718 170.483 155.718H167.114L167.81 154.99L167.809 159.003H166.264ZM167.81 155.145L167.114 154.37H170.437C171.426 154.37 172.173 154.159 172.678 153.735C173.193 153.311 173.451 152.712 173.451 151.937C173.451 151.163 173.193 150.564 172.678 150.14C172.173 149.716 171.426 149.505 170.437 149.505H167.114L167.81 148.73L167.81 155.145Z" fill="white"/>
<path d="M126.636 224.542H84.2998L84.2993 244.958H126.636L126.636 224.542Z" fill="#3D9BE9"/>
<path fill-rule="evenodd" clip-rule="evenodd" d="M94.7412 234.422C94.7412 237.609 96.5003 239.417 98.864 239.417C101.242 239.417 102.987 237.609 102.987 234.422C102.987 231.234 101.241 229.427 98.864 229.427C96.5002 229.427 94.7412 231.234 94.7412 234.422ZM100.747 234.422C100.747 236.616 99.9772 237.526 98.864 237.526C97.7646 237.526 96.995 236.616 96.995 234.422C96.995 232.228 97.7646 231.317 98.864 231.317C99.9772 231.317 100.747 232.228 100.747 234.422ZM93.07 229.592H88.9197L88.9197 231.386H90.8437L90.8437 239.251H93.07L93.07 229.592ZM111.01 239.258L111.01 235.916C111.01 235.432 111.136 235.067 111.389 234.821C111.642 234.568 111.941 234.441 112.286 234.441C112.983 234.441 113.332 234.917 113.332 235.87L113.332 239.258H115.068L115.068 235.49C115.068 234.667 114.846 234.041 114.401 233.611C113.957 233.173 113.37 232.954 112.642 232.954C112.236 232.954 111.83 233.058 111.424 233.265C111.025 233.473 110.707 233.765 110.47 234.141C110.309 233.811 110.067 233.53 109.745 233.3C109.431 233.069 109.079 232.954 108.688 232.954C108.075 232.954 107.531 233.223 107.056 233.761L107.056 233.058H105.331L105.331 239.258H107.055L107.055 235.916C107.055 235.432 107.182 235.067 107.435 234.821C107.695 234.568 107.99 234.441 108.32 234.441C108.657 234.441 108.899 234.556 109.044 234.787C109.197 235.017 109.274 235.378 109.274 235.87L109.274 239.258H111.01ZM120.556 234.856C120.832 235.14 120.97 235.532 120.97 236.031C120.97 236.523 120.832 236.919 120.556 237.218C120.28 237.518 119.935 237.668 119.521 237.668C119.107 237.668 118.755 237.518 118.464 237.218C118.18 236.911 118.038 236.512 118.038 236.02C118.038 235.528 118.184 235.14 118.475 234.856C118.774 234.571 119.126 234.429 119.533 234.429C119.939 234.429 120.28 234.571 120.556 234.856ZM119.176 239.12C119.989 239.12 120.667 238.817 121.211 238.21C121.211 238.893 121.027 239.393 120.659 239.708C120.291 240.023 119.789 240.18 119.153 240.18C118.525 240.18 117.927 239.965 117.36 239.535L116.693 240.837C117.053 241.114 117.471 241.325 117.946 241.471C118.429 241.625 118.9 241.702 119.36 241.702C120.226 241.702 120.977 241.448 121.613 240.941C121.935 240.695 122.192 240.357 122.383 239.927C122.575 239.497 122.671 239.005 122.671 238.452L122.671 233.046H120.947L120.947 233.865C120.464 233.258 119.855 232.954 119.119 232.954C118.383 232.954 117.728 233.25 117.153 233.842C116.586 234.425 116.302 235.178 116.302 236.1C116.302 237.015 116.578 237.749 117.13 238.302C117.689 238.847 118.372 239.12 119.176 239.12Z" fill="white"/>
<path d="M136.981 240.311H136.537L135.661 239.062C135.562 239.073 135.464 239.079 135.354 239.079H134.324L134.324 240.311H133.919L133.919 236.427H135.354C136.329 236.427 136.921 236.926 136.921 237.758C136.921 238.369 136.603 238.796 136.044 238.979L136.981 240.311ZM135.343 238.729C136.11 238.729 136.515 238.369 136.515 237.758C136.515 237.137 136.11 236.782 135.343 236.782H134.324L134.324 238.729H135.343Z" fill="black"/>
<path d="M138.283 239.956H140.589L140.589 240.311H137.877L137.877 236.427H140.507L140.507 236.782H138.283L138.283 238.163H140.266L140.266 238.513H138.283L138.283 239.956Z" fill="black"/>
<path d="M142.599 240.344C142.024 240.344 141.459 240.139 141.175 239.839L141.333 239.523C141.607 239.795 142.095 239.994 142.599 239.994C143.316 239.994 143.628 239.689 143.628 239.306C143.628 238.241 141.268 238.896 141.268 237.459C141.268 236.887 141.706 236.394 142.681 236.394C143.114 236.394 143.563 236.521 143.869 236.738L143.733 237.065C143.404 236.849 143.02 236.743 142.681 236.743C141.98 236.743 141.668 237.059 141.668 237.448C141.668 238.513 144.028 237.869 144.028 239.284C144.028 239.856 143.579 240.344 142.599 240.344Z" fill="black"/>
<path d="M145.317 239.956H147.623L147.623 240.311H144.911L144.911 236.427H147.541L147.541 236.782H145.317L145.317 238.163H147.3L147.3 238.513H145.317L145.317 239.956Z" fill="black"/>
<path d="M151.44 240.311L150.98 239.273H148.844L148.384 240.311H147.962L149.715 236.427H150.115L151.868 240.311H151.44ZM148.992 238.94H150.832L149.912 236.854L148.992 238.94Z" fill="black"/>
<path d="M155.564 240.311H155.12L154.244 239.062C154.145 239.073 154.047 239.079 153.937 239.079H152.907L152.907 240.311H152.502L152.502 236.427H153.937C154.912 236.427 155.504 236.926 155.504 237.758C155.504 238.369 155.186 238.796 154.627 238.979L155.564 240.311ZM153.926 238.729C154.693 238.729 155.098 238.369 155.098 237.758C155.098 237.137 154.693 236.782 153.926 236.782H152.907L152.907 238.729H153.926Z" fill="black"/>
<path d="M158.126 240.344C156.975 240.344 156.121 239.506 156.121 238.369C156.121 237.231 156.975 236.394 158.131 236.394C158.69 236.394 159.194 236.582 159.533 236.959L159.276 237.22C158.964 236.898 158.58 236.76 158.142 236.76C157.216 236.76 156.521 237.448 156.521 238.369C156.521 239.29 157.216 239.978 158.142 239.978C158.58 239.978 158.964 239.839 159.276 239.512L159.533 239.772C159.194 240.15 158.69 240.344 158.126 240.344Z" fill="black"/>
<path d="M163.202 236.427H163.602L163.602 240.311H163.202L163.202 238.519H160.803L160.803 240.311H160.397L160.397 236.427H160.803L160.803 238.158H163.202L163.202 236.427Z" fill="black"/>
<path d="M167.807 240.344C166.827 240.344 166.229 239.767 166.229 238.652L166.229 236.427H166.635L166.635 238.635C166.635 239.556 167.062 239.978 167.807 239.978C168.557 239.978 168.985 239.556 168.985 238.635L168.985 236.427H169.379L169.379 238.652C169.379 239.767 168.788 240.344 167.807 240.344Z" fill="black"/>
<path d="M171.658 240.344C171.083 240.344 170.518 240.139 170.234 239.839L170.392 239.523C170.666 239.795 171.154 239.994 171.658 239.994C172.375 239.994 172.687 239.689 172.687 239.306C172.687 238.241 170.327 238.896 170.327 237.459C170.327 236.887 170.765 236.394 171.74 236.394C172.173 236.394 172.622 236.521 172.928 236.738L172.792 237.065C172.463 236.849 172.079 236.743 171.74 236.743C171.039 236.743 170.727 237.059 170.727 237.448C170.727 238.513 173.087 237.869 173.087 239.284C173.087 239.856 172.638 240.344 171.658 240.344Z" fill="black"/>
<path d="M174.376 239.956H176.682L176.682 240.311H173.971L173.971 236.427H176.6L176.6 236.782H174.376L174.376 238.163H176.359L176.359 238.513H174.376L174.376 239.956Z" fill="black"/>
<path d="M180.744 240.344C179.583 240.344 178.729 239.501 178.729 238.369C178.729 237.237 179.583 236.394 180.744 236.394C181.895 236.394 182.755 237.231 182.755 238.369C182.755 239.506 181.895 240.344 180.744 240.344ZM180.744 239.978C181.665 239.978 182.349 239.295 182.349 238.369C182.349 237.442 181.665 236.76 180.744 236.76C179.819 236.76 179.129 237.442 179.129 238.369C179.129 239.295 179.819 239.978 180.744 239.978Z" fill="black"/>
<path d="M186.468 236.427H186.868L186.868 240.311H186.533L184.069 237.159L184.069 240.311H183.663L183.663 236.427H183.997L186.468 239.578L186.468 236.427Z" fill="black"/>
<path d="M188.119 240.311L188.119 236.427H188.524L188.524 239.956H190.672L190.672 240.311H188.119Z" fill="black"/>
<path d="M193.786 236.427L192.253 238.968L192.253 240.311H191.853L191.853 238.968L190.319 236.427H190.752L192.066 238.607L193.381 236.427H193.786Z" fill="black"/>
<path d="M161.274 229.283C162.323 229.283 162.892 229.998 162.892 231.225C162.892 232.545 162.159 233.233 161.088 233.233C160.733 233.233 160.4 233.172 160.152 233.022L160.316 232.7C160.519 232.834 160.789 232.884 161.082 232.884C161.934 232.884 162.48 232.345 162.48 231.291C162.48 231.202 162.475 231.091 162.463 230.975C162.266 231.402 161.804 231.641 161.257 231.641C160.474 231.641 159.927 231.186 159.927 230.476C159.927 229.749 160.507 229.283 161.274 229.283ZM161.319 231.302C161.922 231.302 162.334 230.936 162.334 230.453C162.334 230.026 161.973 229.621 161.291 229.621C160.722 229.621 160.327 229.949 160.327 230.465C160.327 230.975 160.71 231.302 161.319 231.302Z" fill="black"/>
<path d="M164.709 229.283C165.758 229.283 166.327 229.998 166.327 231.225C166.327 232.545 165.594 233.233 164.523 233.233C164.168 233.233 163.835 233.172 163.587 233.022L163.751 232.7C163.954 232.834 164.224 232.884 164.518 232.884C165.369 232.884 165.916 232.345 165.916 231.291C165.916 231.202 165.91 231.091 165.899 230.975C165.701 231.402 165.239 231.641 164.692 231.641C163.909 231.641 163.362 231.186 163.362 230.476C163.362 229.749 163.943 229.283 164.709 229.283ZM164.754 231.302C165.357 231.302 165.769 230.936 165.769 230.453C165.769 230.026 165.408 229.621 164.726 229.621C164.157 229.621 163.762 229.949 163.762 230.465C163.762 230.975 164.145 231.302 164.754 231.302Z" fill="black"/>
<path d="M167.75 231.397C167.22 231.397 166.859 230.975 166.859 230.342C166.859 229.71 167.22 229.288 167.75 229.288C168.274 229.288 168.64 229.704 168.64 230.342C168.64 230.981 168.274 231.397 167.75 231.397ZM167.445 233.2L170.14 229.316H170.473L167.778 233.2H167.445ZM167.75 231.147C168.116 231.147 168.359 230.847 168.359 230.342C168.359 229.838 168.116 229.538 167.75 229.538C167.378 229.538 167.141 229.843 167.141 230.342C167.141 230.842 167.378 231.147 167.75 231.147ZM170.168 233.228C169.644 233.228 169.277 232.806 169.277 232.173C169.277 231.541 169.644 231.119 170.168 231.119C170.698 231.119 171.059 231.541 171.059 232.173C171.059 232.806 170.698 233.228 170.168 233.228ZM170.168 232.978C170.54 232.978 170.777 232.673 170.777 232.173C170.777 231.674 170.54 231.369 170.168 231.369C169.802 231.369 169.559 231.668 169.559 232.173C169.559 232.678 169.802 232.978 170.168 232.978Z" fill="black"/>
<path d="M174.891 229.316C175.894 229.316 176.503 229.815 176.503 230.648C176.503 231.474 175.894 231.974 174.891 231.974H173.831L173.831 233.2H173.414L173.414 229.316H174.891ZM174.88 231.613C175.669 231.613 176.086 231.258 176.086 230.648C176.086 230.026 175.669 229.671 174.88 229.671H173.831L173.831 231.613H174.88Z" fill="black"/>
<path d="M179.022 233.233C178.013 233.233 177.399 232.656 177.399 231.541L177.399 229.316H177.816L177.816 231.524C177.816 232.445 178.256 232.867 179.022 232.867C179.795 232.867 180.234 232.445 180.234 231.524L180.234 229.316H180.64L180.64 231.541C180.64 232.656 180.032 233.233 179.022 233.233Z" fill="black"/>
<path d="M185.049 233.2H184.592L183.69 231.951C183.589 231.963 183.487 231.968 183.374 231.968H182.315L182.315 233.2H181.897L181.897 229.316H183.374C184.378 229.316 184.987 229.815 184.987 230.648C184.987 231.258 184.66 231.685 184.085 231.868L185.049 233.2ZM183.363 231.619C184.152 231.619 184.569 231.258 184.569 230.648C184.569 230.026 184.152 229.671 183.363 229.671H182.315L182.315 231.619H183.363Z" fill="black"/>
<path d="M185.971 233.2L185.971 229.316H186.388L186.388 233.2H185.971Z" fill="black"/>
<path d="M188.439 233.2L188.439 229.671H187.052L187.052 229.316H190.243L190.243 229.671H188.856L188.856 233.2H188.439Z" fill="black"/>
<path d="M193.813 229.316L192.235 231.857L192.235 233.2H191.823L191.823 231.857L190.245 229.316H190.69L192.043 231.496L193.396 229.316H193.813Z" fill="black"/>
<path d="M90.0958 188.989C86.7616 188.989 84.2725 186.682 84.2725 183.458C84.2725 180.235 86.7616 177.928 90.1112 177.928C91.9704 177.928 93.5223 178.6 94.5364 179.822L92.9384 181.289C92.2162 180.464 91.3097 180.036 90.2341 180.036C88.2213 180.036 86.7923 181.442 86.7923 183.458C86.7923 185.475 88.2213 186.881 90.2341 186.881C91.3097 186.881 92.2162 186.453 92.9384 185.612L94.5364 187.079C93.5223 188.317 91.9704 188.989 90.0958 188.989Z" fill="#333333"/>
<path d="M98.1994 188.989C96.7551 188.989 95.4798 188.439 94.6961 187.431L96.079 185.781C96.6629 186.56 97.3082 186.957 98.0765 186.957C99.0752 186.957 99.5976 186.361 99.5976 185.185L99.5976 180.097H95.8178L95.8178 178.111H102.071L102.071 185.047C102.071 187.69 100.735 188.989 98.1994 188.989Z" fill="#333333"/>
<path d="M109.677 188.989C106.343 188.989 103.854 186.682 103.854 183.458C103.854 180.235 106.343 177.928 109.693 177.928C111.552 177.928 113.104 178.6 114.118 179.822L112.52 181.289C111.798 180.464 110.891 180.036 109.816 180.036C107.803 180.036 106.374 181.442 106.374 183.458C106.374 185.475 107.803 186.881 109.816 186.881C110.891 186.881 111.798 186.453 112.52 185.612L114.118 187.079C113.104 188.317 111.552 188.989 109.677 188.989Z" fill="#333333"/>
<path d="M115.232 185.46L115.232 183.55H119.581L119.581 185.46H115.232Z" fill="#333333"/>
<path d="M120.138 178.111H124.778L124.778 188.806H122.289L122.289 180.097H120.138L120.138 178.111Z" fill="#333333"/>
<path d="M130.058 186.789H134.683L134.683 188.806H126.554L126.554 187.201L130.703 183.306C131.656 182.404 131.825 181.854 131.825 181.335C131.825 180.494 131.241 180.006 130.104 180.006C129.182 180.006 128.398 180.357 127.876 181.075L126.063 179.914C126.892 178.707 128.398 177.928 130.334 177.928C132.731 177.928 134.329 179.15 134.329 181.09C134.329 182.129 134.037 183.076 132.531 184.467L130.058 186.789Z" fill="#333333"/>
<path d="M139.489 177.928C142.47 177.928 144.299 179.776 144.299 183.229C144.299 186.926 142.071 188.989 138.813 188.989C137.676 188.989 136.585 188.729 135.833 188.256L136.754 186.437C137.338 186.835 138.03 186.972 138.767 186.972C140.55 186.972 141.717 185.918 141.794 183.856C141.164 184.482 140.242 184.818 139.121 184.818C137.046 184.818 135.418 183.504 135.418 181.487C135.418 179.303 137.215 177.928 139.489 177.928ZM139.674 182.969C140.765 182.969 141.518 182.297 141.518 181.365C141.518 180.449 140.826 179.776 139.643 179.776C138.583 179.776 137.845 180.387 137.845 181.365C137.845 182.343 138.568 182.969 139.674 182.969Z" fill="#333333"/>
<path d="M149.18 182.129C152.361 182.129 153.621 183.55 153.621 185.444C153.621 187.339 152.223 188.989 149.15 188.989C147.659 188.989 146.092 188.576 145.047 187.843L146.031 185.949C146.845 186.56 147.967 186.911 149.088 186.911C150.333 186.911 151.101 186.392 151.101 185.521C151.101 184.681 150.548 184.131 148.597 184.131H145.846L146.399 178.111H152.96L152.96 180.097H148.474L148.305 182.129H149.18Z" fill="#333333"/>
</svg>
