<svg width="52" height="52" viewBox="0 0 52 52" fill="none" xmlns="http://www.w3.org/2000/svg">
<rect x="0.5" y="0.5" width="51" height="51" rx="11.5" fill="white" stroke="#E3E3E3"/>
<path fill-rule="evenodd" clip-rule="evenodd" d="M25.5006 16.7687C25.1055 19.5498 24.7897 21.8912 24.2207 25.5376C25.758 25.5042 29.2472 26.1163 30.0151 21.133C30.6509 16.9871 27.817 16.6032 25.5006 16.7687Z" fill="url(#paint0_linear_22847_151256)"/>
<path fill-rule="evenodd" clip-rule="evenodd" d="M38.8147 36.8173C39.4129 38.1487 38.8105 39.832 37.5626 40.5096C36.8461 40.8991 36.0281 41.2608 35.2115 41.4639C33.8632 41.786 32.4848 41.9651 31.099 41.9982C28.8828 41.9982 26.661 40.7294 25.7038 39.1851C25.4562 39.718 24.563 40.7892 22.9979 41.2928C22.0087 41.6128 20.8165 41.9982 18.3276 41.9954C16.0974 41.994 14.8259 40.9826 14.1539 40.1339C13.0827 38.7844 12.9255 37.0705 13.1341 35.9157L13.1453 35.8601C13.987 31.6377 15.1375 23.961 15.6676 20.1142L15.6731 20.0767C15.8178 19.0096 15.9653 17.9425 16.0529 16.8685C16.0961 16.3273 16.1253 15.7834 16.1308 15.2408C16.1364 14.7274 16.0891 14.2154 16.0933 13.7021C16.0988 13.2179 16.1767 12.7282 16.4035 12.2997C16.7722 11.6083 17.4469 11.0629 18.1606 10.825C18.9439 10.5635 19.7619 10.4591 20.5758 10.3645C21.4079 10.2648 22.2419 10.1813 23.0772 10.1141C24.0957 10.0393 25.1166 10.0012 26.1379 10C27.8853 9.99865 29.6438 10.0279 31.3661 10.3826C33.1204 10.7443 34.8929 11.4358 36.2771 12.6475C37.2259 13.4781 37.9786 14.5257 38.5448 15.6721C39.0401 16.6821 39.2418 17.745 39.3615 18.5575C39.5744 20.0156 39.5183 21.5005 39.1959 22.9384C38.9414 23.9868 38.5119 24.9849 37.9257 25.8906C37.2663 26.9145 36.4204 27.8439 35.3422 28.7287C35.9989 30.6347 37.7101 34.3576 38.8147 36.8173ZM19.1901 13.8955C19.2319 14.6022 19.2374 15.3145 19.2068 16.024C19.1762 16.7489 19.1136 17.4709 19.0329 18.1916C18.9536 18.9094 18.8576 19.6245 18.7602 20.3396L18.7282 20.5733C18.4222 22.809 18.0994 25.0419 17.7613 27.2707C17.4052 29.6135 17.0059 31.9438 16.6066 34.2769C16.4216 35.3648 16.0056 36.7588 16.5746 37.7967C17.081 38.7232 18.3804 38.8359 19.2861 38.7427C22.5847 38.406 23.1092 37.6729 23.1092 37.6729C22.4512 36.9439 23.023 33.6216 23.6852 29.1558H26.0294L28.4835 36.578C28.4835 36.578 29.2069 38.8777 31.2173 38.7664C33.7924 38.6245 35.6873 38.036 35.9599 37.709C35.1669 37.2666 32.8992 31.596 31.6638 27.4321C32.2621 27.0676 32.8422 26.6711 33.389 26.2273C34.136 25.6179 34.8289 24.9153 35.3589 24.0903C35.7401 23.4977 36.0309 22.8452 36.1978 22.1524C36.2855 21.7865 36.3342 21.4039 36.3648 21.0297C36.4204 20.3702 36.3996 19.7024 36.3036 19.0486C36.2117 18.4197 36.074 17.7199 35.793 17.1523C35.2713 16.0908 34.5325 15.1643 33.5253 14.5716C31.8252 13.5727 29.8664 13.3821 27.9562 13.2778C25.8846 13.1626 23.8069 13.2305 21.7472 13.4809C21.5163 13.5087 19.1804 13.7146 19.1901 13.8955Z" fill="url(#paint1_linear_22847_151256)"/>
<defs>
<linearGradient id="paint0_linear_22847_151256" x1="12.3927" y1="44.9754" x2="42.4756" y2="16.5541" gradientUnits="userSpaceOnUse">
<stop offset="0.113" stop-color="#0D59EC"/>
<stop offset="0.742" stop-color="#008FE1"/>
<stop offset="1" stop-color="#20AFFF"/>
</linearGradient>
<linearGradient id="paint1_linear_22847_151256" x1="12.3928" y1="44.975" x2="42.4757" y2="16.5537" gradientUnits="userSpaceOnUse">
<stop offset="0.113" stop-color="#0D59EC"/>
<stop offset="0.742" stop-color="#008FE1"/>
<stop offset="1" stop-color="#20AFFF"/>
</linearGradient>
</defs>
</svg>
