<svg width="46" height="48" viewBox="0 0 46 48" fill="none" xmlns="http://www.w3.org/2000/svg">
<path d="M23.0351 19.4115C24.7415 19.4115 26.1248 18.0281 26.1248 16.3217C26.1248 14.6153 24.7415 13.2319 23.0351 13.2319C21.3286 13.2319 19.9453 14.6153 19.9453 16.3217C19.9453 18.0281 21.3286 19.4115 23.0351 19.4115Z" fill="#3D9BE9"/>
<path d="M27.2383 44.2402H18.8361C18.1686 44.2402 17.625 44.7839 17.625 45.4514C17.625 46.1189 18.1686 46.6625 18.8361 46.6625H27.2383C27.9058 46.6625 28.4495 46.1189 28.4495 45.4514C28.4495 44.7839 27.9058 44.2402 27.2383 44.2402Z" fill="#3D9BE9"/>
<path d="M44.1712 30.766C43.139 29.6099 41.453 27.7382 40.0286 26.1555C38.5972 24.5727 37.7852 23.6713 37.276 23.2308C37.276 23.1689 37.276 23.107 37.276 23.0519C37.276 22.9418 37.2829 22.8248 37.276 22.7079C37.2003 13.6519 30.1675 5.72451 25.9836 1.80898C24.3252 0.253778 21.724 0.253778 20.0656 1.80898C15.8816 5.72451 8.84883 13.6519 8.77314 22.7079C8.77314 22.8248 8.77314 22.9418 8.77314 23.0588C8.77314 23.1207 8.77314 23.1758 8.77314 23.2377C8.26391 23.6781 7.45191 24.5727 6.02057 26.1555C4.58924 27.7382 2.91017 29.6099 1.87796 30.766C0.997133 31.75 0.673706 33.0988 1.01778 34.3787L3.75658 44.4738C4.10065 45.74 5.05029 46.7447 6.29583 47.1507C7.5276 47.5567 8.91765 47.3021 9.92922 46.4969L15.2967 42.2305H30.7318L36.0993 46.4969C36.7874 47.0406 37.6407 47.3434 38.5146 47.3434C38.9275 47.3434 39.3335 47.2745 39.7327 47.1507C40.9782 46.7378 41.9278 45.74 42.2719 44.4738L45.0107 34.3787C45.3548 33.0988 45.0382 31.75 44.1505 30.766H44.1712ZM42.7054 33.7457L39.9666 43.8407C39.8359 44.3293 39.478 44.7009 38.9963 44.8592C38.5146 45.0174 38.0123 44.928 37.6132 44.6114L32.4865 40.5376L33.0233 39.4641C33.0852 39.3403 33.1471 39.2095 33.2091 39.0788L33.3123 38.8517C34.4752 36.8148 36.0236 33.4291 36.7943 28.908C36.9663 28.1579 37.0971 27.5249 37.2072 26.9262L37.2553 26.6784C38.4252 27.9721 40.1937 29.9334 42.3751 32.3694C42.7123 32.741 42.8362 33.2571 42.6985 33.7457H42.7054ZM34.8813 22.7216C34.895 24.731 34.7299 26.7404 34.372 28.7016C33.6564 31.7088 32.631 34.654 31.3236 37.441C30.6767 38.6108 30.1124 39.4091 29.8028 39.8151H16.2601C15.9573 39.4091 15.3931 38.6108 14.7462 37.4479C13.4319 34.6471 12.4065 31.7019 11.6909 28.7016C11.333 26.7335 11.1679 24.7172 11.1816 22.7147C11.2505 14.2506 18.5723 6.49523 21.7102 3.54998C22.4465 2.86184 23.6026 2.86184 24.3389 3.54998C27.4837 6.49523 34.7987 14.2506 34.8675 22.7147L34.8813 22.7216ZM13.5764 40.5376L8.44971 44.6114C8.05059 44.928 7.54825 45.0174 7.06655 44.8592C6.58485 44.7009 6.23389 44.3293 6.09627 43.8407L3.35746 33.7457C3.22671 33.2571 3.35058 32.7479 3.68089 32.3694C6.24078 29.5136 7.8235 27.7588 8.80066 26.6784L8.84883 26.9262C8.95894 27.5249 9.08968 28.1511 9.26172 28.9011C10.0324 33.436 11.5808 36.8217 12.7437 38.8517L12.8538 39.0856C12.9158 39.2164 12.9777 39.3403 13.0396 39.471L13.5764 40.5445V40.5376Z" fill="#3D9BE9"/>
</svg>
