<svg width="335" height="379" viewBox="0 0 335 379" fill="none" xmlns="http://www.w3.org/2000/svg">
<path d="M213.413 168.76C211.514 158.886 208.179 138.021 203.625 124.591C199.073 111.155 200.748 104.128 198.194 93.1056C195.635 82.0836 188.925 84.1057 185.541 92.7682C182.524 100.477 183.731 106.581 185.012 113.47C185.169 114.317 185.327 115.179 185.482 116.056C186.869 124.054 187.728 138.007 188.083 142.058C188.438 146.108 188.307 147.211 187.206 145.551C186.258 144.122 184.95 141.846 182.76 138.59C182.398 138.058 182.014 137.494 181.603 136.903C178.694 132.733 176.778 128.504 164.82 116.261C152.864 104.014 149.625 98.2534 141.347 85.788C133.069 73.3201 128.894 74.2807 126.805 76.3029C124.712 78.3226 120.709 80.5614 124.342 89.5269C126.818 95.6401 131.428 103.283 134.118 107.532C135.14 109.15 135.884 110.273 136.123 110.637C136.18 110.719 136.209 110.761 136.209 110.761C120.099 99.3617 108.875 89.0219 104.537 84.3545C100.202 79.6846 94.2737 78.059 93.387 90.8298C92.5028 103.598 114.404 119.852 127.298 130.42C131.426 133.807 134.628 136.654 137.054 138.965C142.197 143.871 143.84 146.374 143.411 146.509C143.258 146.558 143.061 146.603 142.827 146.662C142.098 146.849 141.01 147.152 139.756 147.974C136.276 150.263 131.882 154.492 124.315 158.711C111.746 165.713 101.953 174.617 94.7934 180.75C90.1506 184.725 86.7344 187.169 87.2221 189.624C87.3428 190.262 87.727 190.898 88.4117 191.558C87.4289 191.885 86.5841 192.331 85.8822 192.848C85.8181 192.893 85.759 192.935 85.7073 192.972C85.6827 192.989 85.6605 193.006 85.6383 193.023C85.4684 193.151 85.3797 193.23 85.3797 193.23C84.2689 194.193 83.6482 195.361 83.6778 196.518C83.8206 201.925 94.185 213.178 94.1801 226.326C94.1703 239.471 98.8475 236.407 111.256 246.641C111.434 246.786 111.611 246.932 111.788 247.077C124.195 257.126 142.465 265.88 149.82 271.806C178.147 294.626 183.605 298.325 199.524 305.342C214.945 312.145 220.504 309.48 237.169 326.064C237.703 326.593 238.25 327.147 238.804 327.716C256.762 346.132 264.794 347.6 264.794 347.6L310.547 298.837C310.547 298.837 291.68 285.668 280.789 277.015C277.323 274.261 274.668 271.966 273.681 270.695C269.592 265.434 267.255 265.141 255.181 258.19C251.947 256.328 249.247 254.296 246.853 251.892C240.292 245.331 235.986 236.015 229.139 219.932C219.787 197.969 215.304 178.632 213.405 168.755L213.413 168.76ZM156.97 223.252C156.97 223.252 156.958 223.259 156.958 223.264C156.278 223.794 155.559 224.343 154.805 224.905C142.825 233.809 139.758 228.405 127.345 221.821C118.145 216.942 119.052 216.245 115.384 209.961C114.104 207.767 112.264 204.89 109.244 200.92C107.17 198.193 105.02 196.127 102.889 194.602C102.53 194.343 102.168 194.1 101.811 193.873C109.692 191.368 118.436 184.898 122.111 182.816C127.517 179.752 138.332 175.085 140.721 176.629C143.111 178.174 162.273 195.989 165.63 202.71C166.16 203.772 166.561 204.794 166.832 205.794C168.381 211.508 165.588 216.461 156.97 223.254V223.252Z" fill="white"/>
<path d="M280.796 277.02L279.66 286.342L237.175 326.066C220.513 309.483 214.954 312.148 199.53 305.345C183.612 298.328 178.154 294.628 149.827 271.808C142.474 265.882 124.201 257.129 111.795 247.079C118.159 250.225 124.667 252.643 131.063 256.653C142.573 263.87 154.873 269.86 171.336 284.771C187.801 299.685 215.799 303.941 226.178 285.611C235.264 269.567 249.564 262.261 246.86 251.895C249.254 254.298 251.951 256.33 255.187 258.193C267.261 265.143 269.599 265.439 273.687 270.697C274.675 271.968 277.33 274.261 280.796 277.017V277.02Z" fill="#3D9BE9"/>
<path d="M154.807 224.905C155.56 224.343 156.279 223.794 156.959 223.265C148.309 232.114 138.555 231.863 130.129 225.676C120.691 218.747 110.334 217.304 113.474 216.196C115.09 215.627 116.073 213.324 115.388 209.962C119.056 216.245 118.147 216.944 127.349 221.821C139.762 228.402 142.826 233.809 154.809 224.905H154.807Z" fill="#3D9BE9"/>
<path d="M85.7109 192.976C85.7624 192.939 85.8212 192.898 85.8849 192.854C85.8286 192.895 85.7648 192.934 85.7109 192.976Z" fill="#3D9BE9"/>
<path d="M165.631 202.708C162.274 195.987 143.112 178.171 140.723 176.627C138.331 175.085 127.516 179.75 122.112 182.814C118.437 184.896 109.693 191.366 101.812 193.871C102.171 194.097 102.533 194.344 102.89 194.6C93.7576 188.41 87.6148 191.657 85.8857 192.851C86.5877 192.334 87.4325 191.888 88.4153 191.56C87.7305 190.9 87.3463 190.265 87.2256 189.627C94.7354 186.152 98.4078 192.27 105.425 189.617C113.304 186.637 115.24 182.085 119.109 180.925C122.979 179.765 127.858 178.383 134.186 173.534C140.516 168.681 140.555 169.699 141.661 172.839C142.769 175.979 145.341 177.112 157.503 190.642C163.685 197.519 166.646 201.708 166.836 205.792C166.565 204.792 166.161 203.77 165.634 202.708H165.631Z" fill="#3D9BE9"/>
<path d="M175.924 167.671C175.525 167.395 154.582 151.26 149.38 148.667C146.69 147.327 144.537 146.78 142.833 146.664C143.067 146.605 143.264 146.561 143.417 146.511C143.845 146.376 142.202 143.874 137.06 138.967C142.178 142.704 146.825 143.864 148.498 145.026C164.017 155.836 195.468 181.267 175.924 167.671Z" fill="#3D9BE9"/>
<path d="M177.107 147.499C163.351 129.738 160.609 127.768 139.607 113.174C138.366 112.312 137.208 111.465 136.127 110.638C135.888 110.273 135.144 109.15 134.122 107.532C142.376 114.724 148.501 116.825 154.701 121.578C161.681 126.928 168.467 132.603 173.767 140.556C179.07 148.511 190.865 165.253 177.107 147.497V147.499Z" fill="#3D9BE9"/>
<path d="M185.014 113.472C186.056 115.921 187.061 118.642 187.58 122.556C188.883 132.42 189.479 135.408 191.25 142.795C193.563 152.44 198.753 157.334 198.016 159.292C197.28 161.25 191.181 153.107 183.162 139.295C183.019 139.048 182.886 138.817 182.763 138.593C184.952 141.846 186.26 144.125 187.208 145.553C188.309 147.213 188.44 146.11 188.085 142.061C187.728 138.009 186.871 124.056 185.484 116.059C185.332 115.182 185.174 114.32 185.014 113.472Z" fill="#3D9BE9"/>
<path d="M88.6399 191.772C84.8961 188.434 88.832 185.861 94.7975 180.755C101.96 174.624 111.751 165.718 124.319 158.716C136.886 151.711 140.565 144.455 146.395 146.992C152.225 149.528 178.124 169.807 183.427 172.826" stroke="black" stroke-width="2" stroke-miterlimit="10"/>
<path d="M269.25 359.804C269.25 359.804 256.769 346.139 238.812 327.721C220.854 309.302 215.45 312.369 199.531 305.347C183.613 298.325 178.157 294.63 149.827 271.81C142.364 265.798 123.672 256.877 111.261 246.643C98.85 236.409 94.1752 239.476 94.1826 226.328C94.19 213.18 83.8256 201.927 83.6827 196.523C83.5399 191.119 97.5668 185.575 109.244 200.922C120.921 216.266 114.931 215.242 127.345 221.823C139.758 228.404 142.822 233.811 154.805 224.907C166.788 216.003 169.421 210.308 165.628 202.71C162.273 195.988 143.111 178.173 140.719 176.629C138.327 175.085 127.515 179.752 122.108 182.816C118.382 184.927 109.453 191.545 101.488 193.971" stroke="black" stroke-width="2" stroke-miterlimit="10"/>
<path d="M309.458 297.746C291.498 285.172 289.887 282.815 273.318 269.303C256.749 255.791 246.666 261.919 231.641 225.976C216.617 190.033 216.183 182.582 210.213 152.341C204.242 122.1 200.447 118.883 199.435 102.231C198.422 85.5781 193.311 83.3836 189.218 86.886C185.127 90.3884 182.198 101.344 184.238 109.088C186.277 116.831 188.307 145.026 188.307 145.026" stroke="black" stroke-width="2" stroke-miterlimit="10"/>
<path d="M196.553 180.252C207.853 188.565 206.092 201.858 206.092 201.858" stroke="black" stroke-width="2" stroke-miterlimit="10"/>
<path d="M143.744 146.481C141.126 141.925 135.139 137.248 120.979 124.967C106.816 112.689 90.4618 101.869 93.8312 87.4082C97.2006 72.9478 104.496 85.3688 115.299 94.5781C126.104 103.787 141.434 114.753 151.072 120.893C160.71 127.033 172.232 141.844 186.761 158.991" stroke="black" stroke-width="2" stroke-miterlimit="10"/>
<path d="M202.802 174.055C210.048 184.183 210.92 193.24 210.92 193.24" stroke="black" stroke-width="2" stroke-miterlimit="10"/>
<path d="M136.463 110.94C121.584 88.1546 120.712 82.0192 125.389 77.4946C130.067 72.9701 134.303 74.14 144.079 90.0684C153.857 105.997 159.653 110.568 170.478 122.24C181.303 133.913 187.138 147.794 198.231 160.511" stroke="black" stroke-width="2" stroke-miterlimit="10"/>
<path d="M92.8771 212.013C95.3598 211.868 98.7243 205.444 89.9658 193.752" stroke="black" stroke-width="2" stroke-miterlimit="10"/>
<path d="M95.481 82.8246C94.2692 89.0166 102.737 96.4722 109.454 97.4968C116.173 98.5239 114.151 93.5781 114.151 93.5781" stroke="black" stroke-width="2" stroke-miterlimit="10"/>
<path d="M126.539 78.9477C131.078 89.6224 139.11 95.4696 142.618 92.2579" stroke="black" stroke-width="2" stroke-miterlimit="10"/>
<path d="M198.414 99.4525C195.198 103.98 190.964 99.1569 190.092 93.0191C189.22 86.8837 191.41 86.1546 191.41 86.1546" stroke="black" stroke-width="2" stroke-miterlimit="10"/>
<path d="M140.317 176.447C136.288 172.452 138.485 164.42 138.485 164.42" stroke="black" stroke-width="2" stroke-miterlimit="10"/>
<path d="M124.785 181.393C119.044 183.25 116.271 179.888 116.271 179.888" stroke="black" stroke-width="2" stroke-miterlimit="10"/>
<path d="M120.655 217.722C116.98 214.22 110.987 218.306 110.987 218.306" stroke="black" stroke-width="2" stroke-miterlimit="10"/>
<path d="M206.696 170.888C211.366 178.048 213.108 183.73 213.108 183.73" stroke="black" stroke-width="2" stroke-miterlimit="10"/>
<path d="M289.416 273.103C289.416 273.103 253.911 352.728 246.569 345.617C244.788 343.895 242.168 341.708 239.217 339.381C235.323 336.309 230.857 332.999 226.99 330.194C221.683 326.346 217.508 323.45 217.508 323.45C223.493 284.936 261.086 252.291 261.086 252.291C261.086 252.291 265.956 256.076 271.773 260.475C276.818 264.286 282.576 268.559 286.5 271.221C287.652 272.005 288.647 272.65 289.418 273.103H289.416Z" fill="white" stroke="black" stroke-width="2" stroke-miterlimit="10"/>
<path d="M286.196 271.593C284.27 279.44 265.11 308.038 265.11 308.038C265.11 308.038 240.927 338.384 240.379 338.422C240.268 338.432 239.769 338.362 239.035 338.244C235.151 335.24 230.697 332.003 226.84 329.26C231.412 328.66 229.562 320.293 237.079 311.766C246.223 301.392 243.74 298.348 250.884 288.865C258.03 279.382 256.603 278.176 262.054 274.336C266.476 271.224 272.294 265.518 271.51 261.084C276.541 264.81 282.285 268.989 286.199 271.593H286.196Z" fill="#3D9BE9"/>
<path d="M245.118 285.394C247.576 286.637 251.581 286.803 253.915 280.583C256.25 274.364 251.507 272.448 251.327 272.487C251.147 272.527 255.576 274.192 253.526 279.421C251.477 284.65 244.965 286.086 242.448 281.923C242.448 281.923 242.359 284 245.118 285.394Z" fill="black"/>
<path d="M256.687 267.101C258.332 271.118 261.723 273.11 265.105 269.812C268.487 266.514 266.77 261.827 265.573 260.951C264.376 260.074 267.361 263.172 265.406 266.628C263.448 270.083 258.871 271.618 256.512 266.165L256.689 267.101H256.687Z" fill="black"/>
<path d="M331.305 289.239C311.731 277.276 281.567 259.901 281.567 259.901C249.328 279.82 230.422 341.987 230.422 341.987C230.422 341.987 261.86 364.083 275.877 376.905C281.291 381.856 293.623 378.311 286.966 363.277C280.308 348.243 283.443 334.979 311.65 328.093C339.857 321.206 321.532 308.918 317.359 301.899C313.187 294.879 345.329 297.812 331.305 289.239Z" fill="#3D9BE9"/>
<path d="M331.308 289.239C330.621 288.817 329.919 288.391 329.207 287.958" stroke="black" stroke-width="2" stroke-miterlimit="10"/>
<path d="M327.157 286.717C324.502 285.111 321.721 283.443 318.898 281.761" stroke="black" stroke-width="2" stroke-miterlimit="10"/>
<path d="M316.833 280.532C304.664 273.298 292.095 265.993 285.76 262.325" stroke="black" stroke-width="2" stroke-miterlimit="10"/>
<path d="M283.703 261.133C282.336 260.342 281.57 259.901 281.57 259.901C280.875 260.33 280.188 260.778 279.506 261.246" stroke="black" stroke-width="2" stroke-miterlimit="10"/>
<path d="M277.508 262.682C274.949 264.603 272.483 266.78 270.111 269.155" stroke="black" stroke-width="2" stroke-miterlimit="10"/>
<path d="M268.399 270.918C248.941 291.566 236.19 325.066 231.969 337.312" stroke="black" stroke-width="2" stroke-miterlimit="10"/>
<path d="M231.181 339.642C230.681 341.149 230.428 341.987 230.428 341.987C230.428 341.987 231.154 342.496 232.438 343.41" stroke="black" stroke-width="2" stroke-miterlimit="10"/>
<path d="M234.375 344.792C236.387 346.231 239.052 348.149 242.102 350.374" stroke="black" stroke-width="2" stroke-miterlimit="10"/>
<path d="M244.025 351.782C252.855 358.257 264.178 366.794 272.249 373.7" stroke="black" stroke-width="2" stroke-miterlimit="10"/>
<path d="M274.047 375.259C274.685 375.821 275.298 376.37 275.882 376.905" stroke="black" stroke-width="2" stroke-miterlimit="10"/>
<path d="M246.165 274.493C235.961 283.882 249.236 290.527 253.305 282.03C257.374 273.532 250.832 270.2 246.165 274.493Z" stroke="black" stroke-width="2" stroke-miterlimit="10"/>
<path d="M258.094 261.322C253.22 266.962 260.424 275.13 265.36 269.539C270.296 263.948 263.498 255.071 258.094 261.322Z" stroke="black" stroke-width="2" stroke-miterlimit="10"/>
<path d="M264.743 291.628C256.33 299.29 270.036 313.334 276.928 301.509C283.822 289.687 272.172 284.859 264.743 291.628Z" stroke="white" stroke-width="2" stroke-miterlimit="10"/>
<path d="M281.887 272.276C274.311 278.047 282.451 293.305 289.495 285.793C296.539 278.283 290.394 265.793 281.887 272.276Z" stroke="white" stroke-width="2" stroke-miterlimit="10"/>
<path d="M246.771 279.352C245.958 283.736 249.047 281.901 249.047 281.901" stroke="black" stroke-width="2" stroke-miterlimit="10"/>
<path d="M259.027 266.088C260.355 270.238 262.214 267.613 262.214 267.613" stroke="black" stroke-width="2" stroke-miterlimit="10"/>
<path d="M266.748 295.697C263.932 299.271 268.28 304.667 271.095 301.093" stroke="white" stroke-width="2" stroke-miterlimit="10"/>
<path d="M282.221 278.898C282.312 284.164 286.681 283.846 288.435 279.765" stroke="white" stroke-width="2" stroke-miterlimit="10"/>
<path d="M47.7745 164.065L9.00391 186.326" stroke="#3D9BE9" stroke-width="2" stroke-miterlimit="10"/>
<path d="M65.1688 186.767L47.0225 211.965" stroke="#3D9BE9" stroke-width="2" stroke-miterlimit="10"/>
<path d="M39.5062 135.407L17.5117 135.025" stroke="#3D9BE9" stroke-width="2" stroke-miterlimit="10"/>
<path d="M47.1444 105.536L1 88.675" stroke="#3D9BE9" stroke-width="2" stroke-miterlimit="10"/>
<path d="M59.0853 79.3664L43.0801 62.377" stroke="#3D9BE9" stroke-width="2" stroke-miterlimit="10"/>
<path d="M86.6432 60.2708L74.4658 28.1979" stroke="#3D9BE9" stroke-width="2" stroke-miterlimit="10"/>
<path d="M128.335 48.4912L133.212 1" stroke="#3D9BE9" stroke-width="2" stroke-miterlimit="10"/>
<path d="M161.167 56.9032L170.543 35.0117" stroke="#3D9BE9" stroke-width="2" stroke-miterlimit="10"/>
<path d="M175.133 79.5958L218.431 41.5732" stroke="#3D9BE9" stroke-width="2" stroke-miterlimit="10"/>
</svg>
