<svg width="249" height="265" viewBox="0 0 249 265" fill="none" xmlns="http://www.w3.org/2000/svg">
<path d="M168.457 125.648C167.199 119.103 164.987 105.274 161.969 96.3717C158.951 87.4652 160.061 82.8076 158.37 75.5045C156.673 68.199 152.227 69.5388 149.983 75.2819C147.983 80.3914 148.784 84.4381 149.631 89.0026C149.736 89.5658 149.84 90.1358 149.942 90.7172C150.862 96.0197 151.43 105.267 151.666 107.953C151.902 110.637 151.813 111.369 151.085 110.267C150.456 109.32 149.59 107.81 148.139 105.655C147.898 105.301 147.644 104.928 147.372 104.538C145.444 101.774 144.174 98.9718 136.249 90.8557C128.323 82.7395 126.177 78.9199 120.691 70.6584C115.205 62.3946 112.436 63.0327 111.053 64.3703C109.666 65.7101 107.013 67.193 109.421 73.1359C111.06 77.1872 114.119 82.2535 115.899 85.0695C116.578 86.1413 117.071 86.8862 117.228 87.1269C117.264 87.1814 117.285 87.2086 117.285 87.2086C106.605 79.6534 99.1652 72.7998 96.2925 69.7046C93.4199 66.6094 89.4912 65.533 88.9031 73.9966C88.3172 82.4602 102.833 93.2333 111.38 100.239C114.117 102.483 116.24 104.37 117.848 105.903C121.256 109.154 122.346 110.812 122.063 110.903C121.96 110.935 121.831 110.967 121.674 111.005C121.191 111.128 120.471 111.33 119.637 111.875C117.33 113.392 114.417 116.194 109.402 118.992C101.073 123.634 94.5803 129.536 89.8341 133.601C86.7571 136.237 84.4907 137.854 84.8155 139.482C84.895 139.905 85.1516 140.325 85.6057 140.763C84.954 140.981 84.3931 141.276 83.9276 141.619C83.8844 141.649 83.8458 141.676 83.8118 141.701C83.7959 141.712 83.78 141.724 83.7663 141.735C83.6528 141.819 83.596 141.871 83.596 141.871C82.8602 142.509 82.4492 143.284 82.4674 144.051C82.5628 147.635 89.4322 155.095 89.4277 163.808C89.4208 172.521 92.5206 170.489 100.746 177.274C100.864 177.37 100.982 177.467 101.098 177.563C109.321 184.223 121.431 190.025 126.305 193.954C145.08 209.08 148.698 211.531 159.248 216.184C169.47 220.694 173.155 218.927 184.199 229.918C184.553 230.27 184.914 230.636 185.284 231.015C197.188 243.221 202.511 244.193 202.511 244.193L232.839 211.871C232.839 211.871 220.333 203.142 213.114 197.408C210.818 195.582 209.058 194.063 208.402 193.218C205.693 189.732 204.144 189.537 196.139 184.93C193.995 183.696 192.206 182.348 190.621 180.756C186.272 176.407 183.417 170.232 178.88 159.57C172.683 145.012 169.71 132.195 168.452 125.65L168.457 125.648ZM131.046 161.766C131.046 161.766 131.039 161.771 131.037 161.773C130.585 162.125 130.111 162.489 129.611 162.861C121.67 168.763 119.637 165.18 111.41 160.817C105.313 157.583 105.912 157.12 103.482 152.955C102.633 151.5 101.413 149.594 99.4127 146.963C98.0389 145.155 96.6127 143.786 95.2002 142.775C94.9618 142.605 94.7234 142.441 94.4849 142.291C99.7102 140.631 105.503 136.344 107.94 134.963C111.523 132.931 118.69 129.84 120.275 130.862C121.858 131.886 134.559 143.695 136.785 148.148C137.134 148.852 137.402 149.529 137.582 150.192C138.608 153.98 136.758 157.263 131.044 161.764L131.046 161.766Z" fill="white"/>
<path d="M213.118 197.404L212.367 203.583L184.205 229.914C173.16 218.923 169.476 220.69 159.255 216.18C148.705 211.529 145.087 209.076 126.311 193.95C121.438 190.021 109.327 184.219 101.104 177.559C105.324 179.643 109.636 181.247 113.876 183.906C121.506 188.69 129.659 192.66 140.57 202.543C151.484 212.428 170.04 215.249 176.92 203.099C182.943 192.465 192.421 187.623 190.627 180.751C192.215 182.346 194.002 183.692 196.146 184.925C204.148 189.533 205.697 189.728 208.409 193.214C209.063 194.057 210.822 195.576 213.121 197.404H213.118Z" fill="#3D9BE9"/>
<path d="M129.611 162.861C130.111 162.489 130.588 162.125 131.037 161.773C125.303 167.639 118.84 167.473 113.254 163.37C106.998 158.778 100.133 157.82 102.215 157.086C103.285 156.709 103.939 155.183 103.485 152.956C105.914 157.12 105.313 157.584 111.412 160.817C119.64 165.18 121.672 168.763 129.613 162.861H129.611Z" fill="#3D9BE9"/>
<path d="M83.8145 141.7C83.8488 141.674 83.8877 141.647 83.9311 141.617C83.8922 141.645 83.8511 141.672 83.8145 141.7Z" fill="#3D9BE9"/>
<path d="M136.788 148.149C134.562 143.693 121.861 131.885 120.278 130.863C118.693 129.841 111.524 132.934 107.943 134.964C105.506 136.345 99.7107 140.632 94.4877 142.292C94.7261 142.442 94.9669 142.605 95.203 142.776C89.1488 138.672 85.0794 140.825 83.9326 141.618C84.3981 141.275 84.9591 140.979 85.6108 140.761C85.1566 140.323 84.9023 139.903 84.8205 139.481C89.7983 137.176 92.2327 141.234 96.8835 139.474C102.107 137.498 103.387 134.48 105.953 133.713C108.52 132.943 111.753 132.028 115.945 128.812C120.142 125.594 120.167 126.271 120.9 128.353C121.634 130.436 123.339 131.185 131.401 140.153C135.498 144.711 137.462 147.488 137.587 150.195C137.408 149.532 137.14 148.853 136.79 148.151L136.788 148.149Z" fill="#3D9BE9"/>
<path d="M143.607 124.926C143.344 124.742 129.462 114.049 126.015 112.33C124.232 111.442 122.806 111.079 121.675 111.004C121.83 110.965 121.961 110.933 122.063 110.901C122.347 110.811 121.26 109.153 117.849 105.901C121.241 108.378 124.323 109.146 125.429 109.918C135.716 117.083 156.563 133.94 143.607 124.926Z" fill="#3D9BE9"/>
<path d="M144.393 111.556C135.275 99.7832 133.459 98.4775 119.538 88.8058C118.716 88.2358 117.948 87.6726 117.231 87.1253C117.072 86.8846 116.579 86.1397 115.902 85.0679C121.373 89.8345 125.433 91.2288 129.541 94.3785C134.167 97.9256 138.666 101.686 142.179 106.957C145.694 112.23 153.511 123.328 144.393 111.558V111.556Z" fill="#3D9BE9"/>
<path d="M149.634 89.001C150.324 90.6224 150.992 92.4278 151.334 95.0234C152.2 101.561 152.593 103.541 153.767 108.438C155.299 114.83 158.74 118.075 158.252 119.372C157.763 120.669 153.721 115.273 148.405 106.119C148.31 105.955 148.221 105.803 148.142 105.653C149.593 107.811 150.46 109.321 151.087 110.266C151.816 111.365 151.902 110.633 151.668 107.952C151.432 105.265 150.864 96.018 149.945 90.7155C149.842 90.1341 149.738 89.5642 149.634 89.001Z" fill="#3D9BE9"/>
<path d="M85.3765 141.324C84.5839 140.618 84.2047 139.905 84.2161 139.141C84.2388 137.575 85.8556 136.212 88.3014 134.152C88.6715 133.839 89.0621 133.512 89.4664 133.167C89.9637 132.742 90.4792 132.297 91.0128 131.836C95.4888 127.971 101.618 122.68 109.128 118.495C112.289 116.732 114.603 114.938 116.46 113.496C119.54 111.107 121.574 109.529 124.261 110.701C126.582 111.711 133.401 116.726 139.421 121.149C143.541 124.179 147.433 127.038 148.861 127.853L148.301 128.838C146.815 127.991 143.077 125.246 138.749 122.064C132.779 117.675 126.012 112.702 123.809 111.743C121.738 110.842 120.11 112.104 117.158 114.396C115.268 115.86 112.918 117.686 109.682 119.489C102.274 123.618 96.4425 128.652 91.7577 132.699C91.2218 133.162 90.7063 133.607 90.2067 134.034C89.8002 134.382 89.4096 134.711 89.0349 135.027C86.9866 136.753 85.3674 138.113 85.3538 139.162C85.347 139.578 85.6036 140.009 86.135 140.481L85.3788 141.328L85.3765 141.324Z" fill="black"/>
<path d="M205.048 252.659C204.966 252.568 196.643 243.466 184.887 231.408C176.38 222.683 172.265 221.345 166.572 219.494C164.419 218.795 161.978 218 159.028 216.701C148.469 212.044 144.76 209.541 125.957 194.394C123.879 192.721 120.478 190.706 116.54 188.374C111.199 185.211 105.144 181.627 100.392 177.708C97.8708 175.628 95.8452 174.395 94.2193 173.402C90.5404 171.159 88.86 170.132 88.8645 163.805C88.8668 158.585 86.3416 153.834 84.3091 150.019C82.9875 147.537 81.9451 145.575 81.9042 144.065C81.8634 142.498 83.2009 141.006 85.3151 140.261C87.7654 139.398 91.1172 139.539 94.5781 141.664C98.3636 140.402 102.49 137.747 105.258 135.969C106.216 135.354 107.043 134.822 107.663 134.47C109.698 133.317 118.391 128.968 120.587 130.385C122.251 131.459 135.036 143.365 137.296 147.896C139.975 153.264 138.054 157.299 129.952 163.317C123.155 168.365 120.289 166.66 115.084 163.565C113.937 162.881 112.636 162.109 111.144 161.319C105.898 158.537 105.415 157.649 103.982 155.01C103.096 153.38 101.881 151.145 98.9609 147.307C94.2442 141.11 88.8645 140.215 85.6921 141.333C84.0775 141.9 83.0102 142.986 83.0397 144.035C83.0715 145.28 84.1093 147.228 85.3106 149.485C87.3998 153.412 90.0022 158.301 89.9977 163.805C89.9931 169.496 91.2081 170.237 94.8074 172.433C96.4652 173.443 98.5271 174.701 101.109 176.831C105.794 180.694 111.807 184.255 117.114 187.395C121.091 189.75 124.527 191.783 126.666 193.509C145.364 208.571 149.045 211.056 159.482 215.661C162.38 216.94 164.792 217.723 166.919 218.414C172.549 220.244 176.995 221.688 185.697 230.613C197.47 242.687 205.802 251.8 205.886 251.891L205.048 252.656V252.659ZM95.743 142.455C97.1305 143.488 98.5226 144.855 99.867 146.619C102.84 150.525 104.129 152.898 104.981 154.468C106.362 157.011 106.734 157.695 111.678 160.315C113.193 161.119 114.507 161.9 115.666 162.588C120.761 165.62 123.087 167.003 129.275 162.404C136.907 156.734 138.676 153.2 136.281 148.4C134.155 144.14 121.574 132.372 119.971 131.336C118.863 130.621 112.479 133.044 108.224 135.456C107.633 135.792 106.818 136.314 105.873 136.923C103.251 138.61 99.4264 141.067 95.7453 142.455H95.743Z" fill="black"/>
<path d="M231.793 211.608C223.271 205.642 220.259 203.112 215.27 198.923C213.24 197.217 210.94 195.287 207.806 192.73C204.652 190.159 201.888 188.69 199.215 187.271C192.745 183.835 187.157 180.867 180.017 163.79C171.14 142.552 169.921 136.248 166.978 121.024C166.612 119.128 166.217 117.093 165.779 114.873C164.007 105.903 162.545 100.598 161.371 96.3353C159.942 91.1531 158.998 87.7309 158.625 81.5836C158.117 73.2335 156.093 71.4986 155.246 71.1375C154.322 70.7446 153.4 71.2851 152.789 71.8097C150.275 73.9625 148.34 80.9091 149.669 85.9482C151.02 91.0736 152.328 109.107 152.383 109.872L151.249 109.954C151.236 109.768 149.894 91.2599 148.57 86.2367C147.103 80.673 149.276 73.3221 152.051 70.9445C153.259 69.9112 154.551 69.6069 155.689 70.0906C157.955 71.0512 159.361 75.0003 159.758 81.5132C160.124 87.5424 161.055 90.9192 162.465 96.0333C163.646 100.314 165.115 105.644 166.894 114.655C167.332 116.875 167.727 118.912 168.093 120.811C171.02 135.955 172.232 142.223 181.064 163.354C188.045 180.056 193.209 182.797 199.746 186.269C202.469 187.714 205.283 189.21 208.523 191.851C211.666 194.413 213.969 196.348 216.001 198.055C220.966 202.225 223.963 204.741 232.445 210.679L231.793 211.61V211.608Z" fill="black"/>
<path d="M164.168 147.659L163.042 147.509C163.053 147.425 164.064 138.957 156.944 133.72L157.617 132.805C165.29 138.448 164.179 147.566 164.166 147.657L164.168 147.659Z" fill="black"/>
<path d="M150.359 119.541C148.789 117.688 147.272 115.878 145.805 114.125C138.452 105.344 132.105 97.7611 126.83 94.4002C120.419 90.3148 110.196 82.9957 103.056 76.9098C101.425 75.52 99.8903 73.9985 98.5369 72.6564C95.7641 69.9063 93.3661 67.531 91.8809 67.9579C91.0089 68.21 90.289 69.5203 89.7463 71.8548C87.9068 79.7506 95.503 86.0887 103.544 92.7992C104.866 93.9028 106.235 95.0428 107.559 96.1919C109.153 97.5748 110.591 98.8102 111.887 99.9275C118.337 105.475 121.28 108.007 122.77 110.598L121.786 111.164C120.394 108.741 117.497 106.25 111.149 100.788C109.85 99.6709 108.413 98.4332 106.817 97.0503C105.502 95.9103 104.137 94.7726 102.82 93.6712C94.5015 86.7314 86.6442 80.1753 88.6426 71.5982C89.3057 68.755 90.2345 67.2517 91.5698 66.8679C93.6999 66.2548 96.1888 68.7255 99.3385 71.8502C100.678 73.1787 102.195 74.6843 103.794 76.0468C110.893 82.0987 121.064 89.3792 127.441 93.4418C132.861 96.8959 138.959 104.179 146.675 113.396C148.14 115.147 149.655 116.957 151.224 118.805L150.359 119.539V119.541Z" fill="black"/>
<path d="M166.24 141.927C166.234 141.868 165.611 135.982 160.963 129.487L161.887 128.827C166.724 135.585 167.346 141.566 167.371 141.818L166.24 141.927Z" fill="black"/>
<path d="M157.969 120.554C154.383 116.446 151.608 112.134 148.924 107.967C146.008 103.436 143.253 99.16 139.584 95.2019C138.117 93.6191 136.811 92.2565 135.548 90.9394C130.704 85.8867 127.205 82.2351 122.021 73.7874C118.119 67.4312 115.462 64.479 113.405 64.2202C112.485 64.1043 111.593 64.5176 110.509 65.5645C107.719 68.2646 108.127 72.0025 117.931 87.0153L116.979 87.6353C112.042 80.0732 109.39 75.2113 108.379 71.8662C107.426 68.7074 107.828 66.5796 109.719 64.7493C110.557 63.9363 111.867 62.8826 113.546 63.0938C116.041 63.4095 118.778 66.3344 122.986 73.1947C128.107 81.5357 131.572 85.1509 136.366 90.1537C137.633 91.4754 138.941 92.8402 140.415 94.4298C144.153 98.4606 146.932 102.78 149.878 107.351C152.539 111.486 155.291 115.76 158.823 119.807L157.967 120.554H157.969Z" fill="black"/>
<path d="M88.5969 154.883L88.531 153.75C88.799 153.734 89.1941 153.448 89.4757 152.842C90.291 151.084 89.855 147.46 86.1807 142.552L87.089 141.871C92.0918 148.55 90.9677 152.322 90.5044 153.319C90.0707 154.252 89.3576 154.838 88.5946 154.881L88.5969 154.883Z" fill="black"/>
<path d="M100.65 79.0719C100.289 79.0719 99.8942 79.0401 99.465 78.9743C96.4697 78.5155 93.0316 76.2855 91.1082 73.5491C89.9046 71.8391 89.43 70.1201 89.732 68.5781L90.847 68.7961C90.5427 70.3517 91.3262 71.8845 92.037 72.8951C93.7696 75.359 96.9648 77.4437 99.6376 77.8502C100.882 78.0409 101.752 77.9115 102.09 77.4868C102.499 76.9736 102.142 76.0357 102.138 76.0266L103.189 75.5997C103.214 75.6633 103.807 77.1439 102.983 78.1885C102.519 78.7767 101.736 79.0719 100.65 79.0719Z" fill="black"/>
<path d="M119.966 76.0928C119.696 76.0928 119.417 76.061 119.126 75.9974C116.099 75.3411 112.491 71.3693 110.352 66.3416L111.396 65.8965C113.631 71.149 117.096 74.3964 119.365 74.8869C120.107 75.0482 120.707 74.9255 121.147 74.5213L121.915 75.3593C121.386 75.843 120.723 76.0905 119.966 76.0905V76.0928Z" fill="black"/>
<path d="M156.66 81.4543C156.456 81.4543 156.274 81.427 156.126 81.3907C154.387 80.9683 152.87 78.5566 152.439 75.525C151.823 71.208 153.379 70.4609 153.697 70.3564L154.055 71.4329C154.055 71.4329 154.069 71.4306 154.089 71.4192C154.08 71.4238 153.081 71.9665 153.563 75.3638C153.912 77.8231 155.157 79.985 156.394 80.2848C156.967 80.4233 157.528 80.119 158.054 79.3764L158.981 80.035C158.166 81.1818 157.296 81.452 156.662 81.452L156.66 81.4543Z" fill="black"/>
<path d="M119.608 131.146C116.735 128.298 118.182 122.852 118.245 122.621L119.34 122.92C119.326 122.97 118.005 127.959 120.407 130.339L119.608 131.146Z" fill="black"/>
<path d="M107.504 134.963C104.969 134.963 103.698 133.467 103.632 133.385L104.508 132.663C104.572 132.738 106.175 134.568 109.541 133.481L109.89 134.562C108.998 134.85 108.205 134.963 107.506 134.963H107.504Z" fill="black"/>
<path d="M100.885 158.957L100.247 158.019C100.424 157.899 104.63 155.083 107.366 157.69L106.583 158.512C104.51 156.536 100.922 158.932 100.885 158.957Z" fill="black"/>
<path d="M167.715 135.738C167.704 135.701 166.541 131.984 163.532 127.369L164.484 126.75C167.588 131.507 168.753 135.249 168.801 135.406L167.715 135.74V135.738Z" fill="black"/>
<path d="M218.837 194.807C218.837 194.807 195.303 247.585 190.437 242.871C189.258 241.731 187.521 240.28 185.563 238.738C182.984 236.701 180.022 234.507 177.459 232.649C173.941 230.099 171.173 228.178 171.173 228.178C175.14 202.649 200.056 181.012 200.056 181.012C200.056 181.012 203.283 183.521 207.141 186.437C210.484 188.962 214.302 191.794 216.902 193.561C217.667 194.081 218.326 194.508 218.837 194.807Z" fill="white"/>
<path d="M216.9 193.561C215.619 198.88 202.889 218.264 202.889 218.264C202.889 218.264 186.818 238.834 186.454 238.859C186.379 238.865 186.048 238.818 185.562 238.738C182.982 236.701 180.021 234.508 177.457 232.65C180.495 232.244 179.267 226.573 184.261 220.792C190.338 213.761 188.687 211.697 193.433 205.27C198.181 198.843 197.234 198.026 200.856 195.421C203.795 193.311 207.66 189.444 207.14 186.438C210.483 188.963 214.3 191.795 216.9 193.561Z" fill="#3D9BE9"/>
<path d="M189.473 202.956C191.102 203.78 193.759 203.889 195.305 199.767C196.851 195.646 193.709 194.374 193.588 194.401C193.468 194.429 196.404 195.532 195.046 198.998C193.688 202.463 189.371 203.414 187.704 200.655C187.704 200.655 187.645 202.031 189.473 202.956Z" fill="#3D9BE9"/>
<path d="M197.143 190.832C198.234 193.493 200.482 194.815 202.723 192.628C204.964 190.441 203.827 187.334 203.032 186.755C202.239 186.176 204.217 188.227 202.921 190.518C201.624 192.81 198.59 193.827 197.025 190.212L197.143 190.834V190.832Z" fill="#3D9BE9"/>
<path d="M191.159 243.736C190.734 243.736 190.355 243.582 190.042 243.278C188.979 242.249 187.355 240.873 185.212 239.181L185.137 239.12C182.945 237.394 180.25 235.371 177.125 233.104C173.653 230.586 170.878 228.66 170.851 228.64L170.558 228.438L170.612 228.086C172.681 214.778 180.479 202.568 186.656 194.667C193.337 186.122 199.623 180.633 199.686 180.579L200.038 180.272L200.406 180.558C200.438 180.583 203.674 183.099 207.485 185.979C211.79 189.231 215.067 191.622 217.222 193.084C218.01 193.62 218.65 194.031 219.125 194.313L219.563 194.569L219.357 195.033C219.305 195.151 214.032 206.955 208.041 218.761C204.519 225.701 201.439 231.287 198.889 235.364C194.481 242.408 192.572 243.494 191.518 243.696C191.395 243.718 191.275 243.732 191.159 243.732V243.736ZM185.991 238.35C188.125 240.037 189.753 241.42 190.832 242.463C190.964 242.59 191.1 242.626 191.302 242.585C192.701 242.315 196.602 238.795 207.026 218.255C212.34 207.786 217.086 197.315 218.115 195.03C217.688 194.765 217.174 194.429 216.584 194.027C214.413 192.553 211.123 190.15 206.801 186.887C203.738 184.571 201.044 182.491 200.084 181.746C198.685 183.011 193.26 188.063 187.537 195.385C181.503 203.106 173.903 214.987 171.791 227.911C172.595 228.472 174.963 230.132 177.793 232.184C180.965 234.485 183.697 236.538 185.916 238.286L185.991 238.348V238.35Z" fill="black"/>
<path d="M246.603 205.503C233.629 197.573 213.636 186.058 213.636 186.058C192.267 199.261 179.736 240.466 179.736 240.466C179.736 240.466 200.574 255.111 209.866 263.611C213.454 266.892 221.627 264.542 217.215 254.577C212.803 244.612 214.881 235.82 233.577 231.255C252.273 226.691 240.126 218.547 237.36 213.894C234.594 209.241 255.9 211.185 246.603 205.503Z" fill="#3D9BE9"/>
<path d="M209.482 264.029C200.324 255.652 179.618 241.077 179.411 240.93L179.075 240.694L179.196 240.301C179.227 240.196 182.409 229.821 188.166 217.964C193.493 206.991 202.186 192.467 213.341 185.575L213.629 185.397L213.922 185.566C214.122 185.681 234.069 197.174 246.902 205.018L246.309 205.988C234.344 198.675 216.182 188.179 213.649 186.721C202.867 193.539 194.408 207.711 189.192 218.448C184.098 228.933 181.035 238.252 180.404 240.242C183.142 242.179 201.689 255.359 210.25 263.191L209.482 264.029Z" fill="black"/>
<path d="M191.114 203.887C191.036 203.887 190.959 203.887 190.882 203.88C189.229 203.798 187.828 202.826 187.314 201.405C186.928 200.335 186.735 198.119 189.787 195.312C191.423 193.807 193.559 193.489 194.979 194.54C196.235 195.469 197.007 197.644 195.415 200.971C194.534 202.811 192.939 203.887 191.116 203.887H191.114ZM193.033 195.058C192.229 195.058 191.329 195.435 190.553 196.148C188.677 197.874 187.885 199.649 188.38 201.019C188.738 202.009 189.742 202.686 190.937 202.745C192.379 202.815 193.673 201.968 194.388 200.478C195.683 197.776 195.192 196.109 194.3 195.451C193.939 195.185 193.5 195.055 193.03 195.055L193.033 195.058Z" fill="black"/>
<path d="M200.459 194.254C199.553 194.254 198.697 193.879 198.029 193.298C196.308 191.794 195.694 188.887 197.647 186.628C198.733 185.372 200.041 184.82 201.333 185.072C202.671 185.334 203.817 186.428 204.326 187.929C204.903 189.626 204.526 191.454 203.318 192.823C202.419 193.843 201.41 194.256 200.459 194.256V194.254ZM200.718 186.146C199.961 186.146 199.203 186.564 198.506 187.371C197.016 189.094 197.473 191.304 198.776 192.441C199.694 193.243 201.145 193.565 202.466 192.069C203.416 190.995 203.702 189.619 203.252 188.292C202.877 187.193 202.039 186.365 201.115 186.185C200.983 186.16 200.849 186.146 200.718 186.146Z" fill="black"/>
<path d="M206.135 217.223C205.956 217.223 205.788 217.214 205.638 217.196C203.374 216.955 201.246 215.118 200.463 212.727C199.729 210.49 200.327 208.28 202.1 206.663C204.802 204.202 208.568 203.743 210.859 205.594C213.007 207.331 213.078 210.442 211.05 213.921C209.435 216.689 207.432 217.223 206.135 217.223ZM207.428 205.617C205.974 205.617 204.314 206.187 202.865 207.504C200.91 209.284 201.196 211.319 201.541 212.372C202.18 214.321 203.953 215.874 205.758 216.065C207.441 216.242 208.929 215.304 210.069 213.347C211.788 210.397 211.817 207.828 210.144 206.475C209.462 205.925 208.499 205.614 207.425 205.614L207.428 205.617Z" fill="white"/>
<path d="M216.207 205.138C215.885 205.138 215.562 205.092 215.24 204.997C213.398 204.457 211.854 202.424 211.393 199.94C210.934 197.455 211.722 195.164 213.5 193.808C216.291 191.683 218.676 192.466 219.979 193.908C221.966 196.109 222.273 200.444 219.302 203.61C218.36 204.613 217.288 205.138 216.205 205.138H216.207ZM216.918 193.629C216.066 193.629 215.138 193.99 214.188 194.712C212.126 196.284 212.326 198.748 212.51 199.733C212.887 201.775 214.141 203.491 215.56 203.907C216.555 204.198 217.533 203.837 218.476 202.833C220.924 200.224 220.794 196.506 219.137 194.669C218.51 193.974 217.751 193.629 216.918 193.629Z" fill="white"/>
<path d="M191.238 201.46C190.993 201.46 190.736 201.403 190.505 201.242C189.676 200.665 189.93 199.298 190.014 198.848L191.132 199.055C190.936 200.102 191.154 200.308 191.157 200.311C191.229 200.361 191.549 200.292 191.795 200.152L192.372 201.128C192.294 201.174 191.79 201.46 191.241 201.46H191.238Z" fill="black"/>
<path d="M199.933 192.281C199.872 192.281 199.808 192.276 199.743 192.265C199.057 192.158 198.537 191.527 198.155 190.33L199.236 189.985C199.516 190.859 199.804 191.125 199.915 191.143C200.022 191.161 200.247 190.975 200.347 190.839L201.271 191.497C201.21 191.584 200.694 192.281 199.933 192.281Z" fill="black"/>
<path d="M205.302 214.705C204.811 214.705 204.328 214.528 203.894 214.185C202.62 213.181 202.104 211.033 203.365 209.432L204.257 210.134C203.351 211.283 203.883 212.729 204.596 213.293C204.775 213.436 205.059 213.597 205.388 213.565C205.688 213.536 205.976 213.347 206.247 213.007L207.139 213.708C206.558 214.446 205.926 214.651 205.499 214.694C205.434 214.701 205.368 214.703 205.302 214.703V214.705Z" fill="white"/>
<path d="M215.794 201.832C215.662 201.832 215.53 201.82 215.401 201.793C214.24 201.564 213.53 200.394 213.5 198.659L214.635 198.639C214.656 199.797 215.024 200.56 215.621 200.678C216.227 200.798 217.124 200.258 217.665 199L218.707 199.447C218.08 200.905 216.924 201.829 215.791 201.829L215.794 201.832Z" fill="white"/>
<path d="M48.1039 159.223L7.85742 182.328L8.90098 184.146L49.1474 161.04L48.1039 159.223Z" fill="#3D9BE9"/>
<path d="M65.8306 183.086L46.9932 209.244L48.694 210.469L67.5314 184.311L65.8306 183.086Z" fill="#3D9BE9"/>
<path d="M17.2227 128.928L17.1865 131.024L40.0168 131.418L40.053 129.323L17.2227 128.928Z" fill="#3D9BE9"/>
<path d="M0.698197 83.8384L0.0498047 85.8315L47.6452 100.387L48.2936 98.3938L0.698197 83.8384Z" fill="#3D9BE9"/>
<path d="M44.512 53.8636L42.9863 55.3008L59.6004 72.9373L61.126 71.5001L44.512 53.8636Z" fill="#3D9BE9"/>
<path d="M77.3121 18.7267L75.3525 19.4707L87.9931 52.7648L89.9527 52.0209L77.3121 18.7267Z" fill="#3D9BE9"/>
<path d="M133.286 -5.45352e-05L131.196 40.0797L133.286 40.2402L135.376 0.160383L133.286 -5.45352e-05Z" fill="#3D9BE9"/>
<path d="M175.09 25.754L165.359 48.4785L167.286 49.3035L177.017 26.579L175.09 25.754Z" fill="#3D9BE9"/>
<path d="M222.984 41.0169L180.183 71.644L181.477 73.2923L224.279 42.6652L222.984 41.0169Z" fill="#3D9BE9"/>
<path d="M215.149 87.5756L192.059 94.3584L192.649 96.3694L215.74 89.5866L215.149 87.5756Z" fill="#3D9BE9"/>
<path d="M88.4416 195.38L75.1113 242.177L77.1454 242.682L90.4757 195.886L88.4416 195.38Z" fill="#3D9BE9"/>
</svg>
