<svg width="116" height="39" viewBox="0 0 116 39" fill="none" xmlns="http://www.w3.org/2000/svg">
<g clip-path="url(#clip0_13260_83025)">
<path d="M10.016 31.384C6.464 31.384 2.88 30.328 0.896 28.792L2.656 24.888C4.544 26.264 7.36 27.224 10.048 27.224C13.12 27.224 14.368 26.2 14.368 24.824C14.368 20.632 1.344 23.512 1.344 15.192C1.344 11.384 4.416 8.216 10.784 8.216C13.6 8.216 16.48 8.888 18.56 10.2L16.96 14.136C14.88 12.952 12.736 12.376 10.752 12.376C7.68 12.376 6.496 13.528 6.496 14.936C6.496 19.064 19.52 16.216 19.52 24.44C19.52 28.184 16.416 31.384 10.016 31.384ZM39.5743 22.456C39.5743 22.84 39.5103 23.384 39.4783 23.8H26.4543C26.9343 25.944 28.7583 27.256 31.3823 27.256C33.2063 27.256 34.5183 26.712 35.7023 25.592L38.3583 28.472C36.7583 30.296 34.3583 31.256 31.2543 31.256C25.3023 31.256 21.4303 27.512 21.4303 22.392C21.4303 17.24 25.3663 13.528 30.6143 13.528C35.6703 13.528 39.5743 16.92 39.5743 22.456ZM30.6463 17.304C28.3743 17.304 26.7423 18.68 26.3903 20.888H34.8703C34.5183 18.712 32.8863 17.304 30.6463 17.304ZM64.9458 13.528C69.0418 13.528 71.9858 15.896 71.9858 21.144V31H66.9938V21.912C66.9938 19.128 65.7458 17.848 63.7298 17.848C61.4898 17.848 59.9218 19.288 59.9218 22.36V31H54.9298V21.912C54.9298 19.128 53.7458 17.848 51.6658 17.848C49.4578 17.848 47.8898 19.288 47.8898 22.36V31H42.8978V13.784H47.6658V15.768C48.9458 14.296 50.8658 13.528 53.0738 13.528C55.4738 13.528 57.5218 14.456 58.7378 16.344C60.1138 14.584 62.3538 13.528 64.9458 13.528ZM83.4043 13.528C88.6523 13.528 91.6923 15.96 91.6923 21.176V31H87.0203V28.856C86.0923 30.424 84.3003 31.256 81.7723 31.256C77.7403 31.256 75.3403 29.016 75.3403 26.04C75.3403 23 77.4843 20.888 82.7323 20.888H86.7003C86.7003 18.744 85.4203 17.496 82.7323 17.496C80.9083 17.496 79.0203 18.104 77.7723 19.096L75.9803 15.608C77.8683 14.264 80.6523 13.528 83.4043 13.528ZM83.0203 27.896C84.6843 27.896 86.1243 27.128 86.7003 25.56V23.8H83.2763C80.9403 23.8 80.2043 24.664 80.2043 25.816C80.2043 27.064 81.2603 27.896 83.0203 27.896ZM109.422 13.784H114.158V28.12C114.158 34.52 110.702 37.464 104.494 37.464C101.23 37.464 98.0618 36.664 96.0458 35.096L98.0298 31.512C99.5018 32.696 101.902 33.464 104.11 33.464C107.63 33.464 109.166 31.864 109.166 28.76V28.024C107.854 29.464 105.966 30.168 103.726 30.168C98.9578 30.168 95.1178 26.872 95.1178 21.848C95.1178 16.824 98.9578 13.528 103.726 13.528C106.126 13.528 108.11 14.328 109.422 15.992V13.784ZM104.718 26.072C107.342 26.072 109.23 24.376 109.23 21.848C109.23 19.32 107.342 17.624 104.718 17.624C102.094 17.624 100.174 19.32 100.174 21.848C100.174 24.376 102.094 26.072 104.718 26.072ZM118.804 31V7.256H123.796V31H118.804ZM140.781 13.784H145.773V31H141.037V28.952C139.725 30.456 137.805 31.256 135.693 31.256C131.373 31.256 128.333 28.824 128.333 23.512V13.784H133.325V22.776C133.325 25.656 134.605 26.936 136.813 26.936C139.117 26.936 140.781 25.464 140.781 22.296V13.784ZM160.158 26.648L161.502 30.168C160.478 30.904 158.974 31.256 157.438 31.256C153.374 31.256 151.006 29.176 151.006 25.08V18.008H148.35V14.168H151.006V9.976H155.998V14.168H160.286V18.008H155.998V25.016C155.998 26.488 156.798 27.288 158.142 27.288C158.878 27.288 159.614 27.064 160.158 26.648ZM166.8 11.384C164.944 11.384 163.696 10.168 163.696 8.6C163.696 7.032 164.944 5.816 166.8 5.816C168.656 5.816 169.904 6.968 169.904 8.504C169.904 10.168 168.656 11.384 166.8 11.384ZM164.304 31V13.784H169.296V31H164.304ZM186.473 7.256H191.465V31H186.697V29.016C185.449 30.52 183.625 31.256 181.321 31.256C176.457 31.256 172.713 27.8 172.713 22.392C172.713 16.984 176.457 13.528 181.321 13.528C183.433 13.528 185.225 14.2 186.473 15.608V7.256ZM182.185 27.16C184.649 27.16 186.569 25.368 186.569 22.392C186.569 19.416 184.649 17.624 182.185 17.624C179.689 17.624 177.769 19.416 177.769 22.392C177.769 25.368 179.689 27.16 182.185 27.16ZM212.949 22.456C212.949 22.84 212.885 23.384 212.853 23.8H199.829C200.309 25.944 202.133 27.256 204.757 27.256C206.581 27.256 207.893 26.712 209.077 25.592L211.733 28.472C210.133 30.296 207.733 31.256 204.629 31.256C198.677 31.256 194.805 27.512 194.805 22.392C194.805 17.24 198.741 13.528 203.989 13.528C209.045 13.528 212.949 16.92 212.949 22.456ZM204.021 17.304C201.749 17.304 200.117 18.68 199.765 20.888H208.245C207.893 18.712 206.261 17.304 204.021 17.304Z" fill="#333333"/>
</g>
<defs>
<clipPath id="clip0_13260_83025">
<rect width="116" height="39" fill="white"/>
</clipPath>
</defs>
</svg>
