<svg width="114" height="39" viewBox="0 0 114 39" fill="none" xmlns="http://www.w3.org/2000/svg">
<g clip-path="url(#clip0_13260_83027)">
<path d="M9.824 31.192C6.464 31.192 3.168 30.008 1.504 28.28L2.432 26.456C4.032 28.024 6.88 29.176 9.824 29.176C14.016 29.176 15.84 27.416 15.84 25.208C15.84 19.064 2.048 22.84 2.048 14.552C2.048 11.256 4.608 8.408 10.304 8.408C12.832 8.408 15.456 9.144 17.248 10.392L16.448 12.28C14.528 11.032 12.288 10.424 10.304 10.424C6.208 10.424 4.384 12.248 4.384 14.488C4.384 20.632 18.176 16.92 18.176 25.08C18.176 28.376 15.552 31.192 9.824 31.192ZM37.5435 22.584C37.5435 22.776 37.5115 23.032 37.5115 23.288H23.4315C23.6875 26.808 26.3755 29.144 30.0555 29.144C32.1035 29.144 33.9275 28.408 35.2075 26.936L36.4875 28.408C34.9835 30.2 32.6475 31.16 29.9915 31.16C24.7435 31.16 21.1595 27.576 21.1595 22.584C21.1595 17.592 24.6475 14.04 29.3835 14.04C34.1195 14.04 37.5435 17.528 37.5435 22.584ZM29.3835 15.992C26.1195 15.992 23.7195 18.296 23.4315 21.592H35.3675C35.0795 18.296 32.6795 15.992 29.3835 15.992ZM63.16 14.04C67.256 14.04 69.944 16.408 69.944 21.24V31H67.672V21.464C67.672 17.912 65.88 16.088 62.84 16.088C59.384 16.088 57.208 18.328 57.208 22.168V31H54.936V21.464C54.936 17.912 53.144 16.088 50.072 16.088C46.648 16.088 44.44 18.328 44.44 22.168V31H42.168V14.168H44.344V17.24C45.528 15.224 47.704 14.04 50.52 14.04C53.304 14.04 55.48 15.224 56.504 17.592C57.72 15.416 60.12 14.04 63.16 14.04ZM81.9935 14.04C86.3455 14.04 88.8095 16.216 88.8095 20.568V31H86.6335V28.376C85.6095 30.104 83.6255 31.16 80.8415 31.16C77.0335 31.16 74.6975 29.176 74.6975 26.264C74.6975 23.672 76.3615 21.496 81.1935 21.496H86.5375V20.472C86.5375 17.592 84.9055 16.024 81.7695 16.024C79.5935 16.024 77.5455 16.792 76.1695 18.008L75.1455 16.312C76.8415 14.872 79.3375 14.04 81.9935 14.04ZM81.1935 29.368C83.7535 29.368 85.6415 28.152 86.5375 25.944V23.192H81.2575C77.9935 23.192 76.9375 24.472 76.9375 26.2C76.9375 28.152 78.5055 29.368 81.1935 29.368ZM108.451 14.168H110.627V28.952C110.627 34.744 107.779 37.368 102.211 37.368C99.139 37.368 96.131 36.44 94.371 34.776L95.523 33.048C97.123 34.488 99.555 35.352 102.147 35.352C106.403 35.352 108.355 33.4 108.355 29.24V27.096C106.947 29.24 104.547 30.36 101.795 30.36C96.995 30.36 93.347 27 93.347 22.168C93.347 17.336 96.995 14.04 101.795 14.04C104.611 14.04 107.043 15.192 108.451 17.4V14.168ZM102.019 28.344C105.731 28.344 108.419 25.816 108.419 22.168C108.419 18.52 105.731 16.024 102.019 16.024C98.307 16.024 95.651 18.52 95.651 22.168C95.651 25.816 98.307 28.344 102.019 28.344ZM116.981 31V7.256H119.253V31H116.981ZM138.47 14.168H140.742V31H138.566V27.928C137.382 29.976 135.206 31.16 132.518 31.16C128.23 31.16 125.414 28.76 125.414 23.928V14.168H127.686V23.704C127.686 27.288 129.542 29.112 132.742 29.112C136.262 29.112 138.47 26.84 138.47 23V14.168ZM155.17 28.344L155.97 29.976C155.074 30.776 153.73 31.16 152.418 31.16C149.25 31.16 147.49 29.368 147.49 26.264V16.088H144.482V14.168H147.49V10.488H149.762V14.168H154.882V16.088H149.762V26.136C149.762 28.12 150.786 29.208 152.674 29.208C153.602 29.208 154.53 28.92 155.17 28.344ZM161.258 10.488C160.33 10.488 159.594 9.752 159.594 8.856C159.594 7.992 160.33 7.256 161.258 7.256C162.186 7.256 162.922 7.96 162.922 8.824C162.922 9.752 162.218 10.488 161.258 10.488ZM160.106 31V14.168H162.378V31H160.106ZM181.787 7.256H184.059V31H181.883V27.672C180.507 29.944 178.171 31.16 175.387 31.16C170.587 31.16 167.003 27.672 167.003 22.584C167.003 17.496 170.587 14.04 175.387 14.04C178.075 14.04 180.379 15.192 181.787 17.368V7.256ZM175.579 29.144C179.131 29.144 181.819 26.52 181.819 22.584C181.819 18.648 179.131 16.024 175.579 16.024C171.995 16.024 169.307 18.648 169.307 22.584C169.307 26.52 171.995 29.144 175.579 29.144ZM205.075 22.584C205.075 22.776 205.043 23.032 205.043 23.288H190.963C191.219 26.808 193.907 29.144 197.587 29.144C199.635 29.144 201.459 28.408 202.739 26.936L204.019 28.408C202.515 30.2 200.179 31.16 197.523 31.16C192.275 31.16 188.691 27.576 188.691 22.584C188.691 17.592 192.179 14.04 196.915 14.04C201.651 14.04 205.075 17.528 205.075 22.584ZM196.915 15.992C193.651 15.992 191.251 18.296 190.963 21.592H202.899C202.611 18.296 200.211 15.992 196.915 15.992Z" fill="#333333"/>
</g>
<defs>
<clipPath id="clip0_13260_83027">
<rect width="114" height="39" fill="white"/>
</clipPath>
</defs>
</svg>
