<svg width="24" height="24" viewBox="0 0 24 24" fill="none" xmlns="http://www.w3.org/2000/svg">
<path d="M17.2498 14.9999C16.6884 15.0027 16.1348 15.1316 15.6298 15.3769C15.1249 15.6222 14.6815 15.9778 14.3323 16.4174L8.84977 12.9899C9.04958 12.345 9.04958 11.6548 8.84977 11.0099L14.3323 7.58241C14.8887 8.27145 15.6711 8.74129 16.5408 8.90871C17.4105 9.07614 18.3114 8.93033 19.0839 8.49713C19.8564 8.06392 20.4506 7.37128 20.7614 6.54189C21.0721 5.71251 21.0792 4.79992 20.7815 3.96578C20.4838 3.13165 19.9004 2.4298 19.1348 1.98458C18.3692 1.53936 17.4707 1.3795 16.5984 1.53331C15.7262 1.68713 14.9366 2.14469 14.3694 2.82495C13.8023 3.50521 13.4942 4.36425 13.4998 5.24991C13.5033 5.58529 13.5538 5.91853 13.6498 6.23991L8.16727 9.66741C7.68326 9.05809 7.02168 8.61445 6.27424 8.39795C5.52679 8.18146 4.73052 8.20286 3.99578 8.45917C3.26104 8.71548 2.62424 9.19401 2.17364 9.82844C1.72304 10.4629 1.48096 11.2217 1.48096 11.9999C1.48096 12.7781 1.72304 13.537 2.17364 14.1714C2.62424 14.8058 3.26104 15.2843 3.99578 15.5406C4.73052 15.797 5.52679 15.8184 6.27424 15.6019C7.02168 15.3854 7.68326 14.9417 8.16727 14.3324L13.6498 17.7599C13.5538 18.0813 13.5033 18.4145 13.4998 18.7499C13.4998 19.4916 13.7197 20.2166 14.1318 20.8333C14.5438 21.45 15.1295 21.9306 15.8147 22.2145C16.4999 22.4983 17.2539 22.5725 17.9814 22.4279C18.7088 22.2832 19.377 21.926 19.9014 21.4016C20.4259 20.8771 20.783 20.2089 20.9277 19.4815C21.0724 18.7541 20.9981 18.0001 20.7143 17.3148C20.4305 16.6296 19.9498 16.044 19.3332 15.6319C18.7165 15.2198 17.9914 14.9999 17.2498 14.9999ZM17.2498 2.99991C17.6948 2.99991 18.1298 3.13187 18.4998 3.3791C18.8698 3.62634 19.1582 3.97774 19.3285 4.38887C19.4988 4.8 19.5434 5.2524 19.4565 5.68886C19.3697 6.12532 19.1554 6.52623 18.8408 6.8409C18.5261 7.15557 18.1252 7.36986 17.6887 7.45668C17.2523 7.54349 16.7999 7.49893 16.3887 7.32864C15.9776 7.15834 15.6262 6.86995 15.379 6.49994C15.1317 6.12993 14.9998 5.69492 14.9998 5.24991C14.9998 4.65317 15.2368 4.08088 15.6588 3.65892C16.0807 3.23696 16.653 2.99991 17.2498 2.99991ZM5.24977 14.2499C4.80476 14.2499 4.36975 14.1179 3.99974 13.8707C3.62973 13.6235 3.34134 13.2721 3.17104 12.8609C3.00075 12.4498 2.95619 11.9974 3.043 11.561C3.12982 11.1245 3.34411 10.7236 3.65878 10.4089C3.97345 10.0942 4.37436 9.87996 4.81082 9.79314C5.24728 9.70632 5.69968 9.75088 6.11081 9.92118C6.52194 10.0915 6.87334 10.3799 7.12058 10.7499C7.36781 11.1199 7.49977 11.5549 7.49977 11.9999C7.49977 12.5966 7.26272 13.1689 6.84076 13.5909C6.41881 14.0129 5.84651 14.2499 5.24977 14.2499ZM17.2498 20.9999C16.8048 20.9999 16.3697 20.8679 15.9997 20.6207C15.6297 20.3735 15.3413 20.0221 15.171 19.6109C15.0007 19.1998 14.9562 18.7474 15.043 18.311C15.1298 17.8745 15.3441 17.4736 15.6588 17.1589C15.9734 16.8442 16.3744 16.63 16.8108 16.5431C17.2473 16.4563 17.6997 16.5009 18.1108 16.6712C18.5219 16.8415 18.8733 17.1299 19.1206 17.4999C19.3678 17.8699 19.4998 18.3049 19.4998 18.7499C19.4998 19.3466 19.2627 19.9189 18.8408 20.3409C18.4188 20.7629 17.8465 20.9999 17.2498 20.9999Z" fill="#333333"/>
</svg>
