<svg width="223" height="57" viewBox="0 0 223 57" fill="none" xmlns="http://www.w3.org/2000/svg">
<path d="M48.2554 0L41.8745 9.78133H23.1307L18.7439 16.1691H77.9663L59.8207 41.5206H31.1069L21.1367 56.6917H9.17252L25.723 32.1386H55.2345L59.4221 25.1521H0L18.1456 0H48.2554Z" fill="#0F0F11"/>
<path d="M111.044 16.1887C111.044 19.2908 109.183 21.7429 103.038 21.7429C95.77 21.7429 93.6133 18.5227 93.6133 13.648H96.0359C96.0359 18.5817 98.6652 19.6749 103.038 19.6749C106.583 19.6749 108.621 18.8181 108.621 16.3069C108.621 13.1457 104.958 12.4958 101.649 11.5208C97.5426 10.28 94.5587 9.15736 94.5587 5.46442C94.5587 2.27372 96.804 0.323853 101.945 0.323853C108.09 0.323853 110.187 4.07588 110.187 7.47338H107.765C107.765 3.92816 105.135 2.3919 101.945 2.3919C99.0788 2.3919 96.9812 3.10094 96.9812 5.40534C96.9812 7.59156 98.8129 8.38923 102.24 9.4528C106.317 10.7232 111.044 11.8458 111.044 16.1887ZM132.459 6.4689C135.531 6.4689 137.008 8.92101 137.008 12.2003V21.4475H134.586V12.7617C134.586 9.92549 133.965 8.53695 131.572 8.53695C128.647 8.53695 126.904 11.1368 126.904 14.9774V21.4475H124.482V12.7617C124.482 9.92549 123.861 8.53695 121.468 8.53695C118.544 8.53695 116.801 11.1368 116.801 14.9774V21.4475H114.378V6.76434H116.801V9.27554L116.416 10.93H117.096C117.687 8.27106 119.223 6.4689 122.355 6.4689C125.014 6.4689 126.432 8.3006 126.757 10.93H127.2C127.791 8.27106 129.327 6.4689 132.459 6.4689ZM140.359 17.3705C140.359 15.0365 141.748 13.4412 145.175 13.0866L151.024 12.5253C150.876 9.83686 149.429 8.5074 146.888 8.5074C144.761 8.5074 142.782 9.4528 142.782 12.2299H140.418C140.418 9.18691 142.722 6.4689 146.888 6.4689C150.995 6.4689 153.447 9.18691 153.447 13.1162V19.3794H155.603V21.4475H153.004C151.881 21.4475 151.261 20.827 151.261 19.7339V18.9363L151.645 17.4H150.936C150.374 19.6453 148.808 21.7429 145.263 21.7429C141.009 21.7429 140.359 18.9067 140.359 17.3705ZM142.782 17.075C142.782 18.759 143.845 19.6749 145.559 19.6749C148.897 19.6749 151.024 17.3705 151.024 14.3275L145.588 14.8888C143.727 15.0661 142.782 15.6274 142.782 17.075ZM158.376 21.4475V8.5074C158.376 7.11886 159.026 6.43936 160.414 6.49845L168.568 6.76434V8.83238L160.798 8.56649V21.4475H158.376ZM175.871 19.7044L181.041 19.3794V21.4475L175.487 21.7429C174.098 21.8315 173.478 21.0929 173.478 19.7339V8.83238H170.228V6.76434H173.478V2.98277L175.871 2.24418V6.76434H180.45V8.83238H175.871V19.7044Z" fill="#0F0F11"/>
<path d="M103.018 30.1628C108.277 30.1628 111.615 31.5218 111.615 36.9578C111.615 42.4234 108.277 43.8119 103.018 43.8119H99.591V50.991H97.1685V30.1628H103.018ZM103.048 41.7439C106.593 41.7439 109.193 41.0939 109.193 36.9578C109.193 32.8808 106.593 32.2308 103.048 32.2308H99.591V41.7439H103.048ZM113.773 43.4574C113.773 38.7304 116.727 36.0124 120.893 36.0124C125.029 36.0124 127.747 38.6418 127.747 43.1619V44.1073H116.136C116.284 46.8844 117.614 49.2774 121.247 49.2774C123.67 49.2774 125.295 48.0957 125.827 45.8504H128.249C127.688 48.1252 125.915 51.2864 121.247 51.2864C115.989 51.2864 113.773 47.6821 113.773 43.4574ZM116.136 42.2756H125.383C125.383 39.9122 123.818 38.0509 120.893 38.0509C117.998 38.0509 116.136 39.9122 116.136 42.2756ZM131.761 36.3078H134.184V38.4645L133.799 40.1485H134.479C135.099 37.8441 137.049 36.0124 140.417 36.0124C144.671 36.0124 147.419 39.2917 147.419 43.6642C147.419 48.0071 144.671 51.2864 140.417 51.2864C137.049 51.2864 135.099 49.4547 134.479 47.1799H133.799L134.184 48.8343V56.3679H131.761V36.3078ZM134.184 43.6642C134.184 47.5639 136.695 49.2184 139.708 49.2184C142.751 49.2184 144.996 47.5048 144.996 43.6642C144.996 39.794 142.751 38.0805 139.708 38.0805C136.695 38.0805 134.184 39.7349 134.184 43.6642ZM154.42 49.2479L159.59 48.9229V50.991L154.036 51.2864C152.647 51.375 152.027 50.6364 152.027 49.2774V38.3759H148.777V36.3078H152.027V32.5263L154.42 31.7877V36.3078H158.999V38.3759H154.42V49.2479ZM167.06 33.9739C165.849 33.9739 164.933 33.0876 164.933 31.9059C164.933 30.7832 165.849 29.8674 167.06 29.8674C168.242 29.8674 169.187 30.7832 169.187 31.9059C169.187 33.0876 168.242 33.9739 167.06 33.9739ZM162.156 50.991V48.9229H166.292V38.11L163.249 38.3759V36.3078L166.647 36.0124C168.035 35.8942 168.567 36.6624 168.567 37.785V48.9229H172.703V50.991H162.156ZM190.018 50.991H187.595V48.8343L188.009 47.1799H187.3C186.68 49.4547 184.7 51.2864 181.362 51.2864C177.108 51.2864 174.36 48.0071 174.36 43.6346C174.36 39.2917 177.108 36.0124 181.362 36.0124C184.7 36.0124 186.68 37.8441 187.3 40.1485H188.009L187.595 38.4645V29.2765H190.018V50.991ZM187.595 43.6346C187.595 39.7349 185.114 38.0805 182.071 38.0805C179.028 38.0805 176.783 39.7349 176.783 43.6346C176.783 47.5639 179.028 49.2184 182.071 49.2184C185.114 49.2184 187.595 47.5639 187.595 43.6346ZM193.575 43.4574C193.575 38.7304 196.529 36.0124 200.695 36.0124C204.831 36.0124 207.549 38.6418 207.549 43.1619V44.1073H195.938C196.086 46.8844 197.415 49.2774 201.049 49.2774C203.472 49.2774 205.097 48.0957 205.629 45.8504H208.051C207.49 48.1252 205.717 51.2864 201.049 51.2864C195.791 51.2864 193.575 47.6821 193.575 43.4574ZM195.938 42.2756H205.185C205.185 39.9122 203.62 38.0509 200.695 38.0509C197.8 38.0509 195.938 39.9122 195.938 42.2756ZM223 47.1799C223 49.3956 221.612 51.2864 217.21 51.2864C212.453 51.2864 210.503 49.0706 210.503 45.5845H212.926C212.926 48.1253 214.403 49.307 217.239 49.307C219.514 49.307 220.578 48.7752 220.578 47.2685C220.578 45.3482 218.598 45.0232 216.205 44.2846C213.428 43.3983 211.183 42.5415 211.183 39.8826C211.183 37.5487 213.162 36.0124 216.53 36.0124C221.109 36.0124 222.498 38.5236 222.498 40.9462H220.075C220.075 38.9668 218.864 37.9918 216.53 37.9918C214.905 37.9918 213.605 38.4645 213.605 39.794C213.605 41.2121 214.61 41.6552 216.973 42.4234C219.869 43.3687 223 44.0187 223 47.1799Z" fill="#0F0F11"/>
</svg>
