<svg width="67" height="28" viewBox="0 0 67 28" fill="none" xmlns="http://www.w3.org/2000/svg">
<path d="M2.45735 27.5019C1.37806 27.5019 0.5 26.6272 0.5 25.5521V2.44924C0.5 1.37431 1.37806 0.5 2.45735 0.5H64.5401C65.6196 0.5 66.4979 1.37451 66.4979 2.44924V25.5521C66.4979 26.6272 65.6196 27.5019 64.5401 27.5019H2.45735Z" fill="#EBECF6"/>
<path d="M64.5412 0.998075C64.9274 0.998022 65.2979 1.15077 65.5711 1.42273C65.8442 1.69469 65.9978 2.06359 65.9979 2.44828V25.5511C65.9979 25.9359 65.8444 26.3049 65.5712 26.577C65.298 26.8491 64.9275 27.0019 64.5412 27.0019H2.45842C2.26715 27.0019 2.07776 26.9643 1.90106 26.8914C1.72436 26.8185 1.56381 26.7116 1.42858 26.5769C1.29335 26.4422 1.18609 26.2823 1.11292 26.1063C1.03975 25.9303 1.0021 25.7416 1.00213 25.5511V2.44828C1.00213 2.25782 1.0398 2.06922 1.11298 1.89326C1.18617 1.7173 1.29345 1.55743 1.42868 1.42276C1.56391 1.28809 1.72445 1.18128 1.90113 1.10841C2.07782 1.03554 2.26718 0.998049 2.45842 0.998075H64.5412ZM64.5412 0H2.45842C1.10274 0 0 1.09828 0 2.44828V25.5511C0 26.9015 1.10274 28 2.45842 28H64.5412C65.8971 28 67 26.9015 67 25.5511V2.44828C67 1.09828 65.8971 0 64.5412 0Z" fill="#C3C9D9"/>
<path d="M64.541 1.38668C64.8239 1.38694 65.0952 1.49896 65.2952 1.69816C65.4953 1.89736 65.6079 2.16747 65.6083 2.44923V25.5521C65.608 25.8339 65.4955 26.1041 65.2954 26.3034C65.0953 26.5027 64.824 26.6148 64.541 26.615H2.45824C2.1753 26.6147 1.90405 26.5026 1.704 26.3033C1.50395 26.104 1.39144 25.8339 1.39118 25.5521V2.44923C1.39155 2.16752 1.50411 1.89746 1.70415 1.6983C1.90419 1.49914 2.17539 1.38714 2.45824 1.38688L64.541 1.38668ZM64.541 0.999023H2.45824C2.26701 0.998997 2.07764 1.03649 1.90096 1.10936C1.72428 1.18222 1.56373 1.28904 1.4285 1.42371C1.29327 1.55837 1.186 1.71825 1.11281 1.89421C1.03962 2.07017 1.00195 2.25877 1.00195 2.44923V25.5521C1.00193 25.7426 1.03957 25.9312 1.11275 26.1072C1.18592 26.2832 1.29318 26.4431 1.42841 26.5779C1.56364 26.7126 1.72418 26.8195 1.90088 26.8924C2.07758 26.9653 2.26697 27.0028 2.45824 27.0029H64.541C64.9273 27.0029 65.2979 26.85 65.571 26.5779C65.8442 26.3059 65.9977 25.9368 65.9977 25.5521V2.44923C65.9976 2.06454 65.8441 1.69564 65.5709 1.42368C65.2977 1.15172 64.9273 0.998971 64.541 0.999023Z" fill="white"/>
<mask id="mask0_10019_86080" style="mask-type:luminance" maskUnits="userSpaceOnUse" x="7" y="5" width="19" height="17">
<path d="M7.08398 5.26367H25.8386V21.7834H7.08398V5.26367Z" fill="white"/>
</mask>
<g mask="url(#mask0_10019_86080)">
<mask id="mask1_10019_86080" style="mask-type:luminance" maskUnits="userSpaceOnUse" x="7" y="5" width="19" height="17">
<path d="M7.08398 5.26453H25.8386V21.7843H7.08398V5.26453Z" fill="white"/>
</mask>
<g mask="url(#mask1_10019_86080)">
<mask id="mask2_10019_86080" style="mask-type:luminance" maskUnits="userSpaceOnUse" x="7" y="5" width="19" height="17">
<path d="M7.08398 5.26636H25.8386V21.7863H7.08398V5.26636Z" fill="white"/>
</mask>
<g mask="url(#mask2_10019_86080)">
<path d="M25.3 14.3106C26.2503 13.3684 25.9566 11.4627 24.3111 11.4627L19.9818 11.4659C20.1455 10.552 20.3838 9.03874 20.3742 8.89561C20.2838 7.54222 19.4162 5.8948 19.3795 5.82713C19.2219 5.5343 18.4239 5.13666 17.6209 5.30753C16.5819 5.52891 16.4761 6.18784 16.4805 6.36969C16.4805 6.36969 16.526 8.17381 16.5304 8.65448C16.0346 9.74019 14.3233 12.5929 13.8038 12.8129C13.6801 12.7378 13.5379 12.6981 13.393 12.6981H7.92196C7.69972 12.6981 7.48657 12.786 7.32942 12.9425C7.17227 13.099 7.08398 13.3113 7.08398 13.5327L7.08459 21.0616C7.10126 21.2585 7.19136 21.4421 7.33714 21.5761C7.48293 21.7102 7.67383 21.7851 7.87226 21.786H12.7837C12.9931 21.7858 13.1938 21.7029 13.342 21.5555C13.4901 21.4081 13.5734 21.2082 13.5738 20.9997V20.7498C13.5738 20.7498 13.7563 20.7374 13.8389 20.7893C14.1548 20.9891 14.5454 21.2406 15.0545 21.2406H22.3873C25.1267 21.2406 24.8331 18.8179 24.5833 18.4865C25.0461 17.9839 25.3325 17.099 24.9417 16.3987C25.2441 16.0824 25.773 15.2118 25.3 14.3106Z" fill="#36383D"/>
</g>
<mask id="mask3_10019_86080" style="mask-type:luminance" maskUnits="userSpaceOnUse" x="7" y="5" width="19" height="17">
<path d="M7.08398 5.26636H25.8386V21.7863H7.08398V5.26636Z" fill="white"/>
</mask>
<g mask="url(#mask3_10019_86080)">
<path d="M24.1873 12.2512H19.0179C19.2175 11.4624 19.5857 8.94802 19.5857 8.94802C19.5021 7.72737 18.6826 6.19573 18.6826 6.19573C17.7085 5.78732 17.2706 6.34744 17.2706 6.34744C17.2706 6.34744 17.3213 8.2873 17.3213 8.73523C17.3213 9.18337 15.095 12.7669 14.5512 13.2284C14.263 13.4731 13.7455 13.8094 13.3242 14.0705V19.8538L13.6619 19.8542C14.0506 19.8542 14.528 20.4522 15.0551 20.4522L22.5123 20.4488C24.0113 20.4488 24.2498 18.7675 23.2607 18.6062L23.3052 18.4206C24.2534 18.3187 24.8302 16.8252 23.6195 16.519L23.664 16.3328C24.5693 16.2376 25.2413 14.7882 23.978 14.431L24.0227 14.245C25.2112 14.0584 25.4536 12.2514 24.1873 12.2512Z" fill="white"/>
</g>
<mask id="mask4_10019_86080" style="mask-type:luminance" maskUnits="userSpaceOnUse" x="7" y="5" width="19" height="17">
<path d="M7.08398 5.26636H25.8386V21.7863H7.08398V5.26636Z" fill="white"/>
</mask>
<g mask="url(#mask4_10019_86080)">
<path d="M23.9768 14.4327L24.0215 14.2466C25.2105 14.0598 25.453 12.2531 24.1867 12.2527H21.6896C22.9559 12.2531 22.7136 14.0598 21.5244 14.2466L21.5054 14.3572C22.7687 14.7147 22.0708 16.2398 21.1657 16.3344L21.1464 16.4454C22.3572 16.7516 21.7549 18.3208 20.8065 18.4224L20.7877 18.5326C21.777 18.6939 21.5128 20.4509 20.014 20.4509L15.0391 20.4529C15.0441 20.4529 15.0491 20.4541 15.0541 20.4541L22.5113 20.4509C24.0101 20.4509 24.2488 18.7695 23.2597 18.608L23.3042 18.4224C24.2524 18.3206 24.8292 16.8273 23.6185 16.5209L23.6632 16.3344C24.5679 16.2398 25.2401 14.79 23.9768 14.4327Z" fill="#ECEEF7"/>
</g>
<mask id="mask5_10019_86080" style="mask-type:luminance" maskUnits="userSpaceOnUse" x="7" y="5" width="19" height="17">
<path d="M7.08398 5.26636H25.8386V21.7863H7.08398V5.26636Z" fill="white"/>
</mask>
<g mask="url(#mask5_10019_86080)">
<path d="M7.87305 13.4832H12.7959V20.9975H7.87305V13.4832Z" fill="#7082AC"/>
</g>
<mask id="mask6_10019_86080" style="mask-type:luminance" maskUnits="userSpaceOnUse" x="7" y="5" width="19" height="17">
<path d="M7.08398 5.26636H25.8386V21.7863H7.08398V5.26636Z" fill="white"/>
</mask>
<g mask="url(#mask6_10019_86080)">
<path d="M7.87305 20.9975H12.7959V13.4832H7.87305V20.9975ZM12.479 20.6821H8.18992V14.4543L12.479 14.4473V20.6821Z" fill="#7C8DB1"/>
</g>
<mask id="mask7_10019_86080" style="mask-type:luminance" maskUnits="userSpaceOnUse" x="7" y="5" width="19" height="17">
<path d="M7.08398 5.26636H25.8386V21.7863H7.08398V5.26636Z" fill="white"/>
</mask>
<g mask="url(#mask7_10019_86080)">
<g opacity="0.5">
<mask id="mask8_10019_86080" style="mask-type:luminance" maskUnits="userSpaceOnUse" x="13" y="13" width="2" height="8">
<path d="M13.3242 13.5876H14.0678V20.0021H13.3242V13.5876Z" fill="white"/>
</mask>
<g mask="url(#mask8_10019_86080)">
<path d="M14.068 20.0019V13.5876C14.0572 13.5952 13.3785 14.0362 13.3242 14.0695V19.8528L13.6619 19.8532C13.7884 19.853 13.9241 19.9168 14.068 20.0019Z" fill="#D2D2D1"/>
</g>
</g>
</g>
<mask id="mask9_10019_86080" style="mask-type:luminance" maskUnits="userSpaceOnUse" x="7" y="5" width="19" height="17">
<path d="M7.08398 5.26636H25.8386V21.7863H7.08398V5.26636Z" fill="white"/>
</mask>
<g mask="url(#mask9_10019_86080)">
<path d="M17.9887 6.04663H17.9883C17.9919 6.0608 18.5968 8.2937 18.5968 8.61448C18.5968 8.93566 16.7613 11.6612 17.007 12.0061C17.3417 12.4758 19.0173 12.2511 19.0173 12.2511C19.2169 11.462 19.5851 8.94764 19.5851 8.94764C19.5017 7.72719 18.6822 6.19554 18.6822 6.19554C18.6491 6.18177 18.3689 6.04643 17.9887 6.04663Z" fill="#ECEEF7"/>
</g>
</g>
</g>
<path d="M29.6621 20.8116V8.99343H31.2759V19.2988H37.0095V20.8114L29.6621 20.8116ZM39.21 10.2414C38.5075 10.2414 38.1848 9.71204 38.1848 9.12577C38.1848 8.5395 38.5075 8.01013 39.21 8.01013C39.9125 8.01013 40.2352 8.5395 40.2352 9.12577C40.2352 9.71204 39.9125 10.2414 39.21 10.2414ZM38.4315 20.8116V12.1134L39.9884 11.8677V20.8116H38.4315ZM43.744 16.5383V20.8116H42.1871V8.06702L43.744 7.82129V16.1223H43.7819L47.3699 12.1513H49.3445L45.3576 16.2544L49.3637 20.8116H47.3701L43.7821 16.5383H43.744ZM50.9906 16.7461C51.0477 18.4478 52.1869 19.6581 53.8577 19.6581C54.769 19.6581 55.7563 19.4125 56.4586 18.9394L56.7436 20.3765C55.9649 20.8494 54.9209 21.0951 53.8198 21.0951C51.1998 21.0951 49.415 19.2233 49.415 16.576C49.415 13.7774 51.2756 11.8677 53.7057 11.8677C55.813 11.8677 57.028 13.1913 57.028 15.2526C57.028 15.725 56.952 16.2546 56.8382 16.6327L50.9906 16.6704V16.7461ZM55.5284 15.4981V15.3659C55.5284 14.08 54.9209 13.2291 53.5538 13.2291C52.0729 13.2291 51.1996 14.4014 51.0665 15.5358L55.5284 15.4981Z" fill="#465B94"/>
</svg>
