<svg width="10" height="16" viewBox="0 0 10 16" fill="none" xmlns="http://www.w3.org/2000/svg">
<path d="M9.68971 9.575C9.43854 9.16321 9.09859 8.80343 8.69089 8.5179C8.28319 8.23237 7.81642 8.02717 7.31945 7.915C6.85315 7.78574 6.3799 7.67893 5.90162 7.595V3.06C6.85249 3.15424 7.75966 3.47847 8.53164 4C8.58494 4.04366 8.64702 4.0772 8.71435 4.0987C8.78167 4.12019 8.85293 4.12922 8.92403 4.12528C8.99514 4.12133 9.0647 4.10448 9.12876 4.0757C9.19282 4.04691 9.25011 4.00675 9.29737 3.9575C9.34463 3.90825 9.38093 3.85089 9.40419 3.78868C9.42746 3.72648 9.43723 3.66065 9.43296 3.59495C9.42869 3.52925 9.41045 3.46497 9.3793 3.40579C9.34814 3.3466 9.30467 3.29366 9.25137 3.25C8.28285 2.5608 7.11984 2.14417 5.90162 2.05V0.5C5.90162 0.367392 5.84461 0.240215 5.74312 0.146447C5.64163 0.0526784 5.50399 0 5.36047 0C5.21694 0 5.0793 0.0526784 4.97781 0.146447C4.87632 0.240215 4.81931 0.367392 4.81931 0.5V2C2.43823 2.05 1.12322 3.145 0.722765 4.09C0.455616 4.69852 0.430235 5.37478 0.651121 5.99894C0.872006 6.62309 1.3249 7.15486 1.92954 7.5C2.80967 7.99572 3.7955 8.30957 4.81931 8.42V13C3.40652 12.9343 2.05313 12.4544 0.955461 11.63C0.906476 11.5761 0.845739 11.5324 0.777221 11.5017C0.708703 11.4711 0.633946 11.4541 0.557837 11.4519C0.481729 11.4497 0.405981 11.4624 0.335547 11.4892C0.265112 11.5159 0.201575 11.5561 0.14909 11.607C0.0966054 11.658 0.056353 11.7186 0.0309651 11.785C0.00557713 11.8513 -0.00437514 11.9218 0.00175874 11.9919C0.00789262 12.0621 0.0299749 12.1302 0.0665616 12.1919C0.103148 12.2536 0.153416 12.3075 0.214079 12.35C1.50849 13.3569 3.12861 13.9374 4.81931 14V15.5C4.81931 15.6326 4.87632 15.7598 4.97781 15.8536C5.0793 15.9473 5.21694 16 5.36047 16C5.50399 16 5.64163 15.9473 5.74312 15.8536C5.84461 15.7598 5.90162 15.6326 5.90162 15.5V14C7.42768 13.905 9.18643 13.455 9.85205 11.62C9.97248 11.2861 10.0201 10.9335 9.99227 10.5825C9.96441 10.2315 9.86157 9.88908 9.68971 9.575ZM2.54105 6.66C2.14589 6.44267 1.84761 6.10223 1.69981 5.69988C1.55201 5.29753 1.56439 4.85967 1.73473 4.465C1.79425 4.315 2.40035 3.06 4.81931 3V7.4C4.01204 7.30402 3.23574 7.05187 2.54105 6.66ZM8.82386 11.28C8.43423 12.35 7.56838 12.865 5.90162 12.98V8.615C6.24796 8.685 6.60512 8.765 6.98393 8.87C7.34177 8.94509 7.67934 9.08665 7.97611 9.28607C8.27288 9.48549 8.52264 9.7386 8.71022 10.03C8.92246 10.4172 8.96322 10.8655 8.82386 11.28Z" fill="#333333"/>
</svg>
