<svg width="72" height="60" viewBox="0 0 72 60" fill="none" xmlns="http://www.w3.org/2000/svg">
<path d="M62.7343 0.614258H8.2657C4.80923 0.614258 2 3.38761 2 6.79993V40.4077C2 43.8173 4.80923 46.5933 8.2657 46.5933H12.7936C14.1887 53.8663 20.6693 59.3862 28.4361 59.3862C36.203 59.3862 42.6835 53.8663 44.0786 46.5933H62.7343C66.188 46.5933 69 43.82 69 40.4077V6.79993C69 3.39029 66.1908 0.614258 62.7343 0.614258ZM62.7561 4.02121L38.3922 20.6747C37.5437 21.2546 36.5429 21.5607 35.4986 21.5607C34.4544 21.5607 33.4536 21.2546 32.6051 20.6747L8.24122 4.02121H62.7561ZM28.4361 55.896C21.6048 55.896 16.0489 50.4084 16.0489 43.667C16.0489 36.9255 21.6075 31.4379 28.4361 31.4379C35.2648 31.4379 40.8234 36.9255 40.8234 43.667C40.8234 50.4084 35.2648 55.896 28.4361 55.896ZM65.5462 40.4077C65.5462 41.938 64.2844 43.1864 62.7316 43.1864H44.3451C44.0868 34.7402 37.0515 27.945 28.4334 27.945C19.8154 27.945 12.78 34.7375 12.5217 43.1864H8.26026C6.70743 43.1864 5.44559 41.9407 5.44559 40.4077V6.26029L30.6335 23.4776C32.0612 24.4522 33.7391 24.9677 35.4932 24.9677C37.2473 24.9677 38.9252 24.4522 40.3529 23.4776L65.5462 6.26029V40.4077Z" fill="#3D9BE9"/>
<path d="M32.9154 39.002L26.1909 46.0467L23.9878 43.7387C23.5304 43.2595 22.7876 43.2595 22.3282 43.7387C21.8688 44.2179 21.8708 44.9961 22.3282 45.4774L25.3601 48.6537C25.581 48.8851 25.8781 49.0141 26.1889 49.0141C26.4997 49.0141 26.7988 48.8851 27.0178 48.6537L34.5711 40.7406C35.0286 40.2614 35.0286 39.4832 34.5711 39.002C34.1137 38.5228 33.3709 38.5228 32.9135 39.002H32.9154Z" fill="#3D9BE9" stroke="#3D9BE9"/>
</svg>
