<svg width="40" height="40" viewBox="0 0 40 40" fill="none" xmlns="http://www.w3.org/2000/svg">
<path d="M30.3125 24.036V17.1875C30.3125 11.4921 25.6954 6.875 20 6.875V6.875C14.3046 6.875 9.6875 11.4921 9.6875 17.1875V24.036V24.036C9.6875 28.538 13.337 32.1875 17.839 32.1875H19.5312" stroke="#3D9BE9" stroke-width="1.5" stroke-linecap="round"/>
<path d="M5.9375 19.1875C5.9375 18.0829 6.83293 17.1875 7.9375 17.1875H9.6875V24.6875H7.9375C6.83293 24.6875 5.9375 23.7921 5.9375 22.6875V19.1875Z" fill="#3D9BE9"/>
<path d="M34.0625 19.1875C34.0625 18.0829 33.1671 17.1875 32.0625 17.1875H30.3125V24.6875H32.0625C33.1671 24.6875 34.0625 23.7921 34.0625 22.6875V19.1875Z" fill="#3D9BE9"/>
<rect x="16.25" y="30.3125" width="6.5625" height="3.75" rx="1.875" fill="#3D9BE9"/>
</svg>
