<svg width="1123" height="97" viewBox="0 0 1123 97" fill="none" xmlns="http://www.w3.org/2000/svg">
<line x1="9.5" y1="1.5" x2="9.5" y2="58.5" stroke="#E6E6E6" stroke-width="3" stroke-linecap="round"/>
<line x1="31.5" y1="1.5" x2="31.5" y2="25.5" stroke="#E6E6E6" stroke-width="3" stroke-linecap="round"/>
<line x1="53.5" y1="1.5" x2="53.5" y2="25.5" stroke="#E6E6E6" stroke-width="3" stroke-linecap="round"/>
<line x1="75.5" y1="1.5" x2="75.5" y2="25.5" stroke="#E6E6E6" stroke-width="3" stroke-linecap="round"/>
<line x1="97.5" y1="1.5" x2="97.5" y2="25.5" stroke="#E6E6E6" stroke-width="3" stroke-linecap="round"/>
<line x1="119.5" y1="1.5" x2="119.5" y2="58.5" stroke="#E6E6E6" stroke-width="3" stroke-linecap="round"/>
<line x1="141.5" y1="1.5" x2="141.5" y2="25.5" stroke="#E6E6E6" stroke-width="3" stroke-linecap="round"/>
<line x1="163.5" y1="1.5" x2="163.5" y2="25.5" stroke="#E6E6E6" stroke-width="3" stroke-linecap="round"/>
<line x1="185.5" y1="1.5" x2="185.5" y2="25.5" stroke="#E6E6E6" stroke-width="3" stroke-linecap="round"/>
<line x1="207.5" y1="1.5" x2="207.5" y2="25.5" stroke="#E6E6E6" stroke-width="3" stroke-linecap="round"/>
<line x1="229.5" y1="1.5" x2="229.5" y2="58.5" stroke="#E6E6E6" stroke-width="3" stroke-linecap="round"/>
<line x1="251.5" y1="1.5" x2="251.5" y2="25.5" stroke="#E6E6E6" stroke-width="3" stroke-linecap="round"/>
<line x1="273.5" y1="1.5" x2="273.5" y2="25.5" stroke="#E6E6E6" stroke-width="3" stroke-linecap="round"/>
<line x1="295.5" y1="1.5" x2="295.5" y2="25.5" stroke="#E6E6E6" stroke-width="3" stroke-linecap="round"/>
<line x1="317.5" y1="1.5" x2="317.5" y2="25.5" stroke="#E6E6E6" stroke-width="3" stroke-linecap="round"/>
<line x1="339.5" y1="1.5" x2="339.5" y2="58.5" stroke="#E6E6E6" stroke-width="3" stroke-linecap="round"/>
<line x1="361.5" y1="1.5" x2="361.5" y2="25.5" stroke="#E6E6E6" stroke-width="3" stroke-linecap="round"/>
<line x1="383.5" y1="1.5" x2="383.5" y2="25.5" stroke="#E6E6E6" stroke-width="3" stroke-linecap="round"/>
<line x1="405.5" y1="1.5" x2="405.5" y2="25.5" stroke="#E6E6E6" stroke-width="3" stroke-linecap="round"/>
<line x1="427.5" y1="1.5" x2="427.5" y2="25.5" stroke="#E6E6E6" stroke-width="3" stroke-linecap="round"/>
<line x1="449.5" y1="1.5" x2="449.5" y2="58.5" stroke="#E6E6E6" stroke-width="3" stroke-linecap="round"/>
<line x1="471.5" y1="1.5" x2="471.5" y2="25.5" stroke="#E6E6E6" stroke-width="3" stroke-linecap="round"/>
<line x1="493.5" y1="1.5" x2="493.5" y2="25.5" stroke="#E6E6E6" stroke-width="3" stroke-linecap="round"/>
<line x1="515.5" y1="1.5" x2="515.5" y2="25.5" stroke="#E6E6E6" stroke-width="3" stroke-linecap="round"/>
<line x1="537.5" y1="1.5" x2="537.5" y2="25.5" stroke="#E6E6E6" stroke-width="3" stroke-linecap="round"/>
<line x1="559.5" y1="1.5" x2="559.5" y2="58.5" stroke="#E6E6E6" stroke-width="3" stroke-linecap="round"/>
<line x1="581.5" y1="1.5" x2="581.5" y2="25.5" stroke="#E6E6E6" stroke-width="3" stroke-linecap="round"/>
<line x1="603.5" y1="1.5" x2="603.5" y2="25.5" stroke="#E6E6E6" stroke-width="3" stroke-linecap="round"/>
<line x1="625.5" y1="1.5" x2="625.5" y2="25.5" stroke="#E6E6E6" stroke-width="3" stroke-linecap="round"/>
<line x1="647.5" y1="1.5" x2="647.5" y2="25.5" stroke="#E6E6E6" stroke-width="3" stroke-linecap="round"/>
<line x1="669.5" y1="1.5" x2="669.5" y2="58.5" stroke="#E6E6E6" stroke-width="3" stroke-linecap="round"/>
<line x1="691.5" y1="1.5" x2="691.5" y2="25.5" stroke="#E6E6E6" stroke-width="3" stroke-linecap="round"/>
<line x1="713.5" y1="1.5" x2="713.5" y2="25.5" stroke="#E6E6E6" stroke-width="3" stroke-linecap="round"/>
<line x1="735.5" y1="1.5" x2="735.5" y2="25.5" stroke="#E6E6E6" stroke-width="3" stroke-linecap="round"/>
<line x1="757.5" y1="1.5" x2="757.5" y2="25.5" stroke="#E6E6E6" stroke-width="3" stroke-linecap="round"/>
<line x1="779.5" y1="1.5" x2="779.5" y2="58.5" stroke="#E6E6E6" stroke-width="3" stroke-linecap="round"/>
<line x1="801.5" y1="1.5" x2="801.5" y2="25.5" stroke="#E6E6E6" stroke-width="3" stroke-linecap="round"/>
<line x1="823.5" y1="1.5" x2="823.5" y2="25.5" stroke="#E6E6E6" stroke-width="3" stroke-linecap="round"/>
<line x1="845.5" y1="1.5" x2="845.5" y2="25.5" stroke="#E6E6E6" stroke-width="3" stroke-linecap="round"/>
<line x1="867.5" y1="1.5" x2="867.5" y2="25.5" stroke="#E6E6E6" stroke-width="3" stroke-linecap="round"/>
<line x1="889.5" y1="1.5" x2="889.5" y2="58.5" stroke="#E6E6E6" stroke-width="3" stroke-linecap="round"/>
<line x1="911.5" y1="1.5" x2="911.5" y2="25.5" stroke="#E6E6E6" stroke-width="3" stroke-linecap="round"/>
<line x1="933.5" y1="1.5" x2="933.5" y2="25.5" stroke="#E6E6E6" stroke-width="3" stroke-linecap="round"/>
<line x1="955.5" y1="1.5" x2="955.5" y2="25.5" stroke="#E6E6E6" stroke-width="3" stroke-linecap="round"/>
<line x1="977.5" y1="1.5" x2="977.5" y2="25.5" stroke="#E6E6E6" stroke-width="3" stroke-linecap="round"/>
<line x1="999.5" y1="1.5" x2="999.5" y2="58.5" stroke="#E6E6E6" stroke-width="3" stroke-linecap="round"/>
<line x1="1021.5" y1="1.5" x2="1021.5" y2="25.5" stroke="#E6E6E6" stroke-width="3" stroke-linecap="round"/>
<line x1="1043.5" y1="1.5" x2="1043.5" y2="25.5" stroke="#E6E6E6" stroke-width="3" stroke-linecap="round"/>
<line x1="1065.5" y1="1.5" x2="1065.5" y2="25.5" stroke="#E6E6E6" stroke-width="3" stroke-linecap="round"/>
<line x1="1087.5" y1="1.5" x2="1087.5" y2="25.5" stroke="#E6E6E6" stroke-width="3" stroke-linecap="round"/>
<line x1="1109.5" y1="1.5" x2="1109.5" y2="58.5" stroke="#E6E6E6" stroke-width="3" stroke-linecap="round"/>
<path d="M7.99869 91.144C4.11069 91.144 1.30269 87.952 1.30269 82.6C1.30269 77.248 4.11069 74.056 7.99869 74.056C11.8867 74.056 14.7187 77.248 14.7187 82.6C14.7187 87.952 11.8867 91.144 7.99869 91.144ZM7.99869 89.56C10.9267 89.56 12.9427 87.088 12.9427 82.6C12.9427 78.112 10.9267 75.64 7.99869 75.64C5.07069 75.64 3.05469 78.112 3.05469 82.6C3.05469 87.088 5.07069 89.56 7.99869 89.56Z" fill="#E6E6E6"/>
<path d="M116.867 81.088C121.931 81.088 123.851 83.08 123.851 86.056C123.851 88.912 121.859 91.144 117.755 91.144C115.331 91.144 113.027 90.304 111.731 88.984L112.571 87.616C113.651 88.744 115.571 89.56 117.731 89.56C120.587 89.56 122.099 88.168 122.099 86.128C122.099 83.968 120.755 82.624 116.483 82.624H112.907L113.771 74.2H122.963V75.736H115.283L114.707 81.088H116.867Z" fill="#E6E6E6"/>
<path d="M217.435 74.2H223.123V91H221.395V75.736H217.435V74.2ZM233.835 91.144C229.947 91.144 227.139 87.952 227.139 82.6C227.139 77.248 229.947 74.056 233.835 74.056C237.723 74.056 240.555 77.248 240.555 82.6C240.555 87.952 237.723 91.144 233.835 91.144ZM233.835 89.56C236.763 89.56 238.779 87.088 238.779 82.6C238.779 78.112 236.763 75.64 233.835 75.64C230.907 75.64 228.891 78.112 228.891 82.6C228.891 87.088 230.907 89.56 233.835 89.56Z" fill="#E6E6E6"/>
<path d="M330.583 74.2H336.271V91H334.543V75.736H330.583V74.2ZM344.703 81.088C349.767 81.088 351.687 83.08 351.687 86.056C351.687 88.912 349.695 91.144 345.591 91.144C343.167 91.144 340.863 90.304 339.567 88.984L340.407 87.616C341.487 88.744 343.407 89.56 345.567 89.56C348.423 89.56 349.935 88.168 349.935 86.128C349.935 83.968 348.591 82.624 344.319 82.624H340.743L341.607 74.2H350.799V75.736H343.119L342.543 81.088H344.703Z" fill="#E6E6E6"/>
<path d="M439.761 89.464H449.001V91H437.217V89.776L444.201 82.936C446.097 81.064 446.457 79.936 446.457 78.784C446.457 76.84 445.089 75.64 442.521 75.64C440.553 75.64 439.041 76.24 437.937 77.512L436.713 76.456C438.009 74.92 440.097 74.056 442.665 74.056C446.073 74.056 448.233 75.784 448.233 78.592C448.233 80.2 447.729 81.64 445.473 83.848L439.761 89.464ZM457.772 91.144C453.884 91.144 451.076 87.952 451.076 82.6C451.076 77.248 453.884 74.056 457.772 74.056C461.66 74.056 464.492 77.248 464.492 82.6C464.492 87.952 461.66 91.144 457.772 91.144ZM457.772 89.56C460.7 89.56 462.716 87.088 462.716 82.6C462.716 78.112 460.7 75.64 457.772 75.64C454.844 75.64 452.828 78.112 452.828 82.6C452.828 87.088 454.844 89.56 457.772 89.56Z" fill="#E6E6E6"/>
<path d="M549.863 89.464H559.103V91H547.319V89.776L554.303 82.936C556.199 81.064 556.559 79.936 556.559 78.784C556.559 76.84 555.191 75.64 552.623 75.64C550.655 75.64 549.143 76.24 548.039 77.512L546.815 76.456C548.111 74.92 550.199 74.056 552.767 74.056C556.175 74.056 558.335 75.784 558.335 78.592C558.335 80.2 557.831 81.64 555.575 83.848L549.863 89.464ZM565.687 81.088C570.751 81.088 572.671 83.08 572.671 86.056C572.671 88.912 570.679 91.144 566.575 91.144C564.151 91.144 561.847 90.304 560.551 88.984L561.391 87.616C562.471 88.744 564.391 89.56 566.551 89.56C569.407 89.56 570.919 88.168 570.919 86.128C570.919 83.968 569.575 82.624 565.303 82.624H561.727L562.591 74.2H571.783V75.736H564.103L563.527 81.088H565.687Z" fill="#E6E6E6"/>
<path d="M661.241 81.4C664.841 81.592 666.641 83.488 666.641 86.176C666.641 88.984 664.601 91.144 660.545 91.144C658.121 91.144 655.793 90.304 654.497 88.984L655.337 87.616C656.417 88.744 658.361 89.56 660.545 89.56C663.329 89.56 664.865 88.264 664.865 86.176C664.865 84.16 663.449 82.84 660.329 82.84H659.129V81.568L663.785 75.736H655.193V74.2H665.993V75.424L661.241 81.4ZM675.772 91.144C671.884 91.144 669.076 87.952 669.076 82.6C669.076 77.248 671.884 74.056 675.772 74.056C679.66 74.056 682.492 77.248 682.492 82.6C682.492 87.952 679.66 91.144 675.772 91.144ZM675.772 89.56C678.7 89.56 680.716 87.088 680.716 82.6C680.716 78.112 678.7 75.64 675.772 75.64C672.844 75.64 670.828 78.112 670.828 82.6C670.828 87.088 672.844 89.56 675.772 89.56Z" fill="#E6E6E6"/>
<path d="M771.007 81.4C774.607 81.592 776.407 83.488 776.407 86.176C776.407 88.984 774.367 91.144 770.311 91.144C767.887 91.144 765.559 90.304 764.263 88.984L765.103 87.616C766.183 88.744 768.127 89.56 770.311 89.56C773.095 89.56 774.631 88.264 774.631 86.176C774.631 84.16 773.215 82.84 770.095 82.84H768.895V81.568L773.551 75.736H764.959V74.2H775.759V75.424L771.007 81.4ZM783.023 81.088C788.087 81.088 790.007 83.08 790.007 86.056C790.007 88.912 788.015 91.144 783.911 91.144C781.487 91.144 779.183 90.304 777.887 88.984L778.727 87.616C779.807 88.744 781.727 89.56 783.887 89.56C786.743 89.56 788.255 88.168 788.255 86.128C788.255 83.968 786.911 82.624 782.639 82.624H779.063L779.927 74.2H789.119V75.736H781.439L780.863 81.088H783.023Z" fill="#E6E6E6"/>
<path d="M886.649 85.048V86.584H883.289V91H881.561V86.584H872.081V85.336L880.985 74.2H882.905L874.313 85.048H881.609V81.16H883.289V85.048H886.649ZM894.932 91.144C891.044 91.144 888.236 87.952 888.236 82.6C888.236 77.248 891.044 74.056 894.932 74.056C898.82 74.056 901.652 77.248 901.652 82.6C901.652 87.952 898.82 91.144 894.932 91.144ZM894.932 89.56C897.86 89.56 899.876 87.088 899.876 82.6C899.876 78.112 897.86 75.64 894.932 75.64C892.004 75.64 889.988 78.112 889.988 82.6C889.988 87.088 892.004 89.56 894.932 89.56Z" fill="#E6E6E6"/>
<path d="M998.844 85.048V86.584H995.484V91H993.756V86.584H984.276V85.336L993.18 74.2H995.1L986.508 85.048H993.804V81.16H995.484V85.048H998.844ZM1004.75 81.088C1009.82 81.088 1011.74 83.08 1011.74 86.056C1011.74 88.912 1009.75 91.144 1005.64 91.144C1003.22 91.144 1000.91 90.304 999.618 88.984L1000.46 87.616C1001.54 88.744 1003.46 89.56 1005.62 89.56C1008.47 89.56 1009.99 88.168 1009.99 86.128C1009.99 83.968 1008.64 82.624 1004.37 82.624H1000.79L1001.66 74.2H1010.85V75.736H1003.17L1002.59 81.088H1004.75Z" fill="#E6E6E6"/>
<path d="M1098.92 81.088C1103.99 81.088 1105.91 83.08 1105.91 86.056C1105.91 88.912 1103.91 91.144 1099.81 91.144C1097.39 91.144 1095.08 90.304 1093.79 88.984L1094.63 87.616C1095.71 88.744 1097.63 89.56 1099.79 89.56C1102.64 89.56 1104.15 88.168 1104.15 86.128C1104.15 83.968 1102.81 82.624 1098.54 82.624H1094.96L1095.83 74.2H1105.02V75.736H1097.34L1096.76 81.088H1098.92ZM1114.8 91.144C1110.91 91.144 1108.1 87.952 1108.1 82.6C1108.1 77.248 1110.91 74.056 1114.8 74.056C1118.68 74.056 1121.52 77.248 1121.52 82.6C1121.52 87.952 1118.68 91.144 1114.8 91.144ZM1114.8 89.56C1117.72 89.56 1119.74 87.088 1119.74 82.6C1119.74 78.112 1117.72 75.64 1114.8 75.64C1111.87 75.64 1109.85 78.112 1109.85 82.6C1109.85 87.088 1111.87 89.56 1114.8 89.56Z" fill="#E6E6E6"/>
</svg>
