<svg width="1126" height="97" viewBox="0 0 1126 97" fill="none" xmlns="http://www.w3.org/2000/svg">
<line x1="7.5" y1="1.5" x2="7.5" y2="58.5" stroke="#E6E6E6" stroke-width="3" stroke-linecap="round"/>
<line x1="29.5" y1="1.5" x2="29.5" y2="25.5" stroke="#E6E6E6" stroke-width="3" stroke-linecap="round"/>
<line x1="51.5" y1="1.5" x2="51.5" y2="25.5" stroke="#E6E6E6" stroke-width="3" stroke-linecap="round"/>
<line x1="73.5" y1="1.5" x2="73.5" y2="25.5" stroke="#E6E6E6" stroke-width="3" stroke-linecap="round"/>
<line x1="95.5" y1="1.5" x2="95.5" y2="25.5" stroke="#E6E6E6" stroke-width="3" stroke-linecap="round"/>
<line x1="117.5" y1="1.5" x2="117.5" y2="58.5" stroke="#E6E6E6" stroke-width="3" stroke-linecap="round"/>
<line x1="139.5" y1="1.5" x2="139.5" y2="25.5" stroke="#E6E6E6" stroke-width="3" stroke-linecap="round"/>
<line x1="161.5" y1="1.5" x2="161.5" y2="25.5" stroke="#E6E6E6" stroke-width="3" stroke-linecap="round"/>
<line x1="183.5" y1="1.5" x2="183.5" y2="25.5" stroke="#E6E6E6" stroke-width="3" stroke-linecap="round"/>
<line x1="205.5" y1="1.5" x2="205.5" y2="25.5" stroke="#E6E6E6" stroke-width="3" stroke-linecap="round"/>
<line x1="227.5" y1="1.5" x2="227.5" y2="58.5" stroke="#E6E6E6" stroke-width="3" stroke-linecap="round"/>
<line x1="249.5" y1="1.5" x2="249.5" y2="25.5" stroke="#E6E6E6" stroke-width="3" stroke-linecap="round"/>
<line x1="271.5" y1="1.5" x2="271.5" y2="25.5" stroke="#E6E6E6" stroke-width="3" stroke-linecap="round"/>
<line x1="293.5" y1="1.5" x2="293.5" y2="25.5" stroke="#E6E6E6" stroke-width="3" stroke-linecap="round"/>
<line x1="315.5" y1="1.5" x2="315.5" y2="25.5" stroke="#E6E6E6" stroke-width="3" stroke-linecap="round"/>
<line x1="337.5" y1="1.5" x2="337.5" y2="58.5" stroke="#E6E6E6" stroke-width="3" stroke-linecap="round"/>
<line x1="359.5" y1="1.5" x2="359.5" y2="25.5" stroke="#E6E6E6" stroke-width="3" stroke-linecap="round"/>
<line x1="381.5" y1="1.5" x2="381.5" y2="25.5" stroke="#E6E6E6" stroke-width="3" stroke-linecap="round"/>
<line x1="403.5" y1="1.5" x2="403.5" y2="25.5" stroke="#E6E6E6" stroke-width="3" stroke-linecap="round"/>
<line x1="425.5" y1="1.5" x2="425.5" y2="25.5" stroke="#E6E6E6" stroke-width="3" stroke-linecap="round"/>
<line x1="447.5" y1="1.5" x2="447.5" y2="58.5" stroke="#E6E6E6" stroke-width="3" stroke-linecap="round"/>
<line x1="469.5" y1="1.5" x2="469.5" y2="25.5" stroke="#E6E6E6" stroke-width="3" stroke-linecap="round"/>
<line x1="491.5" y1="1.5" x2="491.5" y2="25.5" stroke="#E6E6E6" stroke-width="3" stroke-linecap="round"/>
<line x1="513.5" y1="1.5" x2="513.5" y2="25.5" stroke="#E6E6E6" stroke-width="3" stroke-linecap="round"/>
<line x1="535.5" y1="1.5" x2="535.5" y2="25.5" stroke="#E6E6E6" stroke-width="3" stroke-linecap="round"/>
<line x1="557.5" y1="1.5" x2="557.5" y2="58.5" stroke="#E6E6E6" stroke-width="3" stroke-linecap="round"/>
<line x1="579.5" y1="1.5" x2="579.5" y2="25.5" stroke="#E6E6E6" stroke-width="3" stroke-linecap="round"/>
<line x1="601.5" y1="1.5" x2="601.5" y2="25.5" stroke="#E6E6E6" stroke-width="3" stroke-linecap="round"/>
<line x1="623.5" y1="1.5" x2="623.5" y2="25.5" stroke="#E6E6E6" stroke-width="3" stroke-linecap="round"/>
<line x1="645.5" y1="1.5" x2="645.5" y2="25.5" stroke="#E6E6E6" stroke-width="3" stroke-linecap="round"/>
<line x1="667.5" y1="1.5" x2="667.5" y2="58.5" stroke="#E6E6E6" stroke-width="3" stroke-linecap="round"/>
<line x1="689.5" y1="1.5" x2="689.5" y2="25.5" stroke="#E6E6E6" stroke-width="3" stroke-linecap="round"/>
<line x1="711.5" y1="1.5" x2="711.5" y2="25.5" stroke="#E6E6E6" stroke-width="3" stroke-linecap="round"/>
<line x1="733.5" y1="1.5" x2="733.5" y2="25.5" stroke="#E6E6E6" stroke-width="3" stroke-linecap="round"/>
<line x1="755.5" y1="1.5" x2="755.5" y2="25.5" stroke="#E6E6E6" stroke-width="3" stroke-linecap="round"/>
<line x1="777.5" y1="1.5" x2="777.5" y2="58.5" stroke="#E6E6E6" stroke-width="3" stroke-linecap="round"/>
<line x1="799.5" y1="1.5" x2="799.5" y2="25.5" stroke="#E6E6E6" stroke-width="3" stroke-linecap="round"/>
<line x1="821.5" y1="1.5" x2="821.5" y2="25.5" stroke="#E6E6E6" stroke-width="3" stroke-linecap="round"/>
<line x1="843.5" y1="1.5" x2="843.5" y2="25.5" stroke="#E6E6E6" stroke-width="3" stroke-linecap="round"/>
<line x1="865.5" y1="1.5" x2="865.5" y2="25.5" stroke="#E6E6E6" stroke-width="3" stroke-linecap="round"/>
<line x1="887.5" y1="1.5" x2="887.5" y2="58.5" stroke="#E6E6E6" stroke-width="3" stroke-linecap="round"/>
<line x1="909.5" y1="1.5" x2="909.5" y2="25.5" stroke="#E6E6E6" stroke-width="3" stroke-linecap="round"/>
<line x1="931.5" y1="1.5" x2="931.5" y2="25.5" stroke="#E6E6E6" stroke-width="3" stroke-linecap="round"/>
<line x1="953.5" y1="1.5" x2="953.5" y2="25.5" stroke="#E6E6E6" stroke-width="3" stroke-linecap="round"/>
<line x1="975.5" y1="1.5" x2="975.5" y2="25.5" stroke="#E6E6E6" stroke-width="3" stroke-linecap="round"/>
<line x1="997.5" y1="1.5" x2="997.5" y2="58.5" stroke="#E6E6E6" stroke-width="3" stroke-linecap="round"/>
<line x1="1019.5" y1="1.5" x2="1019.5" y2="25.5" stroke="#E6E6E6" stroke-width="3" stroke-linecap="round"/>
<line x1="1041.5" y1="1.5" x2="1041.5" y2="25.5" stroke="#E6E6E6" stroke-width="3" stroke-linecap="round"/>
<line x1="1063.5" y1="1.5" x2="1063.5" y2="25.5" stroke="#E6E6E6" stroke-width="3" stroke-linecap="round"/>
<line x1="1085.5" y1="1.5" x2="1085.5" y2="25.5" stroke="#E6E6E6" stroke-width="3" stroke-linecap="round"/>
<line x1="1107.5" y1="1.5" x2="1107.5" y2="58.5" stroke="#E6E6E6" stroke-width="3" stroke-linecap="round"/>
<path d="M7.99869 91.144C4.11069 91.144 1.30269 87.952 1.30269 82.6C1.30269 77.248 4.11069 74.056 7.99869 74.056C11.8867 74.056 14.7187 77.248 14.7187 82.6C14.7187 87.952 11.8867 91.144 7.99869 91.144ZM7.99869 89.56C10.9267 89.56 12.9427 87.088 12.9427 82.6C12.9427 78.112 10.9267 75.64 7.99869 75.64C5.07069 75.64 3.05469 78.112 3.05469 82.6C3.05469 87.088 5.07069 89.56 7.99869 89.56Z" fill="#E6E6E6"/>
<path d="M106.435 74.2H112.123V91H110.395V75.736H106.435V74.2ZM122.835 91.144C118.947 91.144 116.139 87.952 116.139 82.6C116.139 77.248 118.947 74.056 122.835 74.056C126.723 74.056 129.555 77.248 129.555 82.6C129.555 87.952 126.723 91.144 122.835 91.144ZM122.835 89.56C125.763 89.56 127.779 87.088 127.779 82.6C127.779 78.112 125.763 75.64 122.835 75.64C119.907 75.64 117.891 78.112 117.891 82.6C117.891 87.088 119.907 89.56 122.835 89.56Z" fill="#E6E6E6"/>
<path d="M214.761 89.464H224.001V91H212.217V89.776L219.201 82.936C221.097 81.064 221.457 79.936 221.457 78.784C221.457 76.84 220.089 75.64 217.521 75.64C215.553 75.64 214.041 76.24 212.937 77.512L211.713 76.456C213.009 74.92 215.097 74.056 217.665 74.056C221.073 74.056 223.233 75.784 223.233 78.592C223.233 80.2 222.729 81.64 220.473 83.848L214.761 89.464ZM232.772 91.144C228.884 91.144 226.076 87.952 226.076 82.6C226.076 77.248 228.884 74.056 232.772 74.056C236.66 74.056 239.492 77.248 239.492 82.6C239.492 87.952 236.66 91.144 232.772 91.144ZM232.772 89.56C235.7 89.56 237.716 87.088 237.716 82.6C237.716 78.112 235.7 75.64 232.772 75.64C229.844 75.64 227.828 78.112 227.828 82.6C227.828 87.088 229.844 89.56 232.772 89.56Z" fill="#E6E6E6"/>
<path d="M328.241 81.4C331.841 81.592 333.641 83.488 333.641 86.176C333.641 88.984 331.601 91.144 327.545 91.144C325.121 91.144 322.793 90.304 321.497 88.984L322.337 87.616C323.417 88.744 325.361 89.56 327.545 89.56C330.329 89.56 331.865 88.264 331.865 86.176C331.865 84.16 330.449 82.84 327.329 82.84H326.129V81.568L330.785 75.736H322.193V74.2H332.993V75.424L328.241 81.4ZM342.772 91.144C338.884 91.144 336.076 87.952 336.076 82.6C336.076 77.248 338.884 74.056 342.772 74.056C346.66 74.056 349.492 77.248 349.492 82.6C349.492 87.952 346.66 91.144 342.772 91.144ZM342.772 89.56C345.7 89.56 347.716 87.088 347.716 82.6C347.716 78.112 345.7 75.64 342.772 75.64C339.844 75.64 337.828 78.112 337.828 82.6C337.828 87.088 339.844 89.56 342.772 89.56Z" fill="#E6E6E6"/>
<path d="M446.649 85.048V86.584H443.289V91H441.561V86.584H432.081V85.336L440.985 74.2H442.905L434.313 85.048H441.609V81.16H443.289V85.048H446.649ZM454.932 91.144C451.044 91.144 448.236 87.952 448.236 82.6C448.236 77.248 451.044 74.056 454.932 74.056C458.82 74.056 461.652 77.248 461.652 82.6C461.652 87.952 458.82 91.144 454.932 91.144ZM454.932 89.56C457.86 89.56 459.876 87.088 459.876 82.6C459.876 78.112 457.86 75.64 454.932 75.64C452.004 75.64 449.988 78.112 449.988 82.6C449.988 87.088 452.004 89.56 454.932 89.56Z" fill="#E6E6E6"/>
<path d="M548.922 81.088C553.986 81.088 555.906 83.08 555.906 86.056C555.906 88.912 553.914 91.144 549.81 91.144C547.386 91.144 545.082 90.304 543.786 88.984L544.626 87.616C545.706 88.744 547.626 89.56 549.786 89.56C552.642 89.56 554.154 88.168 554.154 86.128C554.154 83.968 552.81 82.624 548.538 82.624H544.962L545.826 74.2H555.018V75.736H547.338L546.762 81.088H548.922ZM564.796 91.144C560.908 91.144 558.1 87.952 558.1 82.6C558.1 77.248 560.908 74.056 564.796 74.056C568.684 74.056 571.516 77.248 571.516 82.6C571.516 87.952 568.684 91.144 564.796 91.144ZM564.796 89.56C567.724 89.56 569.74 87.088 569.74 82.6C569.74 78.112 567.724 75.64 564.796 75.64C561.868 75.64 559.852 78.112 559.852 82.6C559.852 87.088 561.868 89.56 564.796 89.56Z" fill="#E6E6E6"/>
<path d="M661.45 80.944C664.786 80.944 667.114 82.912 667.114 85.984C667.114 89.128 664.642 91.144 661.378 91.144C656.914 91.144 654.49 88.048 654.49 82.744C654.49 77.032 657.61 74.056 662.17 74.056C663.682 74.056 665.098 74.32 666.154 74.968L665.458 76.36C664.594 75.784 663.442 75.568 662.194 75.568C658.57 75.568 656.242 77.896 656.242 82.456C656.242 82.84 656.266 83.32 656.314 83.824C657.154 81.976 659.122 80.944 661.45 80.944ZM661.306 89.68C663.73 89.68 665.41 88.264 665.41 86.032C665.41 83.824 663.778 82.408 661.186 82.408C658.618 82.408 656.866 83.992 656.866 86.08C656.866 87.928 658.402 89.68 661.306 89.68ZM675.811 91.144C671.923 91.144 669.115 87.952 669.115 82.6C669.115 77.248 671.923 74.056 675.811 74.056C679.699 74.056 682.531 77.248 682.531 82.6C682.531 87.952 679.699 91.144 675.811 91.144ZM675.811 89.56C678.739 89.56 680.755 87.088 680.755 82.6C680.755 78.112 678.739 75.64 675.811 75.64C672.883 75.64 670.867 78.112 670.867 82.6C670.867 87.088 672.883 89.56 675.811 89.56Z" fill="#E6E6E6"/>
<path d="M764.991 74.2H777.327V75.424L770.295 91H768.423L775.335 75.736H766.695V78.88H764.991V74.2ZM785.831 91.144C781.943 91.144 779.135 87.952 779.135 82.6C779.135 77.248 781.943 74.056 785.831 74.056C789.719 74.056 792.551 77.248 792.551 82.6C792.551 87.952 789.719 91.144 785.831 91.144ZM785.831 89.56C788.759 89.56 790.775 87.088 790.775 82.6C790.775 78.112 788.759 75.64 785.831 75.64C782.903 75.64 780.887 78.112 780.887 82.6C780.887 87.088 782.903 89.56 785.831 89.56Z" fill="#E6E6E6"/>
<path d="M885.274 82.192C887.386 82.888 888.562 84.328 888.562 86.32C888.562 89.296 886.042 91.144 882.034 91.144C878.002 91.144 875.554 89.296 875.554 86.32C875.554 84.304 876.706 82.888 878.794 82.192C877.09 81.52 876.154 80.248 876.154 78.496C876.154 75.76 878.482 74.056 882.034 74.056C885.586 74.056 887.962 75.76 887.962 78.496C887.962 80.248 887.002 81.52 885.274 82.192ZM877.882 78.544C877.882 80.392 879.418 81.568 882.034 81.568C884.65 81.568 886.21 80.392 886.21 78.568C886.21 76.672 884.554 75.52 882.034 75.52C879.49 75.52 877.882 76.672 877.882 78.544ZM882.034 89.68C885.01 89.68 886.786 88.384 886.786 86.296C886.786 84.232 885.01 82.936 882.034 82.936C879.058 82.936 877.306 84.232 877.306 86.296C877.306 88.384 879.058 89.68 882.034 89.68ZM897.651 91.144C893.763 91.144 890.955 87.952 890.955 82.6C890.955 77.248 893.763 74.056 897.651 74.056C901.539 74.056 904.371 77.248 904.371 82.6C904.371 87.952 901.539 91.144 897.651 91.144ZM897.651 89.56C900.579 89.56 902.595 87.088 902.595 82.6C902.595 78.112 900.579 75.64 897.651 75.64C894.723 75.64 892.707 78.112 892.707 82.6C892.707 87.088 894.723 89.56 897.651 89.56Z" fill="#E6E6E6"/>
<path d="M992.722 74.056C997.186 74.056 999.61 77.152 999.61 82.456C999.61 88.168 996.49 91.144 991.93 91.144C990.418 91.144 989.002 90.88 987.946 90.232L988.642 88.84C989.506 89.416 990.658 89.632 991.906 89.632C995.53 89.632 997.858 87.304 997.858 82.744C997.858 82.36 997.834 81.88 997.786 81.376C996.946 83.224 994.978 84.256 992.65 84.256C989.314 84.256 986.986 82.288 986.986 79.216C986.986 76.072 989.458 74.056 992.722 74.056ZM992.914 82.792C995.482 82.792 997.234 81.208 997.234 79.12C997.234 77.272 995.698 75.52 992.794 75.52C990.37 75.52 988.69 76.936 988.69 79.168C988.69 81.376 990.322 82.792 992.914 82.792ZM1008.81 91.144C1004.92 91.144 1002.12 87.952 1002.12 82.6C1002.12 77.248 1004.92 74.056 1008.81 74.056C1012.7 74.056 1015.53 77.248 1015.53 82.6C1015.53 87.952 1012.7 91.144 1008.81 91.144ZM1008.81 89.56C1011.74 89.56 1013.76 87.088 1013.76 82.6C1013.76 78.112 1011.74 75.64 1008.81 75.64C1005.88 75.64 1003.87 78.112 1003.87 82.6C1003.87 87.088 1005.88 89.56 1008.81 89.56Z" fill="#E6E6E6"/>
<path d="M1085.49 74.2H1091.18V91H1089.45V75.736H1085.49V74.2ZM1101.89 91.144C1098 91.144 1095.19 87.952 1095.19 82.6C1095.19 77.248 1098 74.056 1101.89 74.056C1105.78 74.056 1108.61 77.248 1108.61 82.6C1108.61 87.952 1105.78 91.144 1101.89 91.144ZM1101.89 89.56C1104.82 89.56 1106.83 87.088 1106.83 82.6C1106.83 78.112 1104.82 75.64 1101.89 75.64C1098.96 75.64 1096.95 78.112 1096.95 82.6C1096.95 87.088 1098.96 89.56 1101.89 89.56ZM1117.78 91.144C1113.89 91.144 1111.08 87.952 1111.08 82.6C1111.08 77.248 1113.89 74.056 1117.78 74.056C1121.67 74.056 1124.5 77.248 1124.5 82.6C1124.5 87.952 1121.67 91.144 1117.78 91.144ZM1117.78 89.56C1120.71 89.56 1122.72 87.088 1122.72 82.6C1122.72 78.112 1120.71 75.64 1117.78 75.64C1114.85 75.64 1112.84 78.112 1112.84 82.6C1112.84 87.088 1114.85 89.56 1117.78 89.56Z" fill="#E6E6E6"/>
</svg>
