<svg width="32" height="32" viewBox="0 0 32 32" fill="none" xmlns="http://www.w3.org/2000/svg">
<path d="M20.8041 7.21667V5.76882C21.6655 5.76882 22.375 5.06007 22.375 4.18934V2.57948C22.375 2.57948 22.375 2.53898 22.375 2.51873H24.1081C24.5236 2.51873 24.8682 2.17449 24.8682 1.75937C24.8682 1.34425 24.5236 1 24.1081 1H7.88176C7.46622 1 7.12162 1.34425 7.12162 1.75937C7.12162 2.17449 7.46622 2.51873 7.88176 2.51873H9.61487C9.61487 2.51873 9.61487 2.55923 9.61487 2.57948V4.18934C9.61487 5.04995 10.3142 5.75869 11.1858 5.76882V7.21667C8.66216 7.3483 6.625 9.47452 6.625 12.0159V26.1907C6.625 28.8434 8.78378 31 11.4392 31H20.5608C23.2162 31 25.375 28.8434 25.375 26.1907V12.0159C25.375 9.47452 23.3378 7.3483 20.8142 7.21667H20.8041ZM20.5507 29.4813H11.4291C9.61486 29.4813 8.13514 28.003 8.13514 26.1907V12.0159C8.13514 10.2035 9.61486 8.72528 11.4291 8.72528H20.5507C22.3649 8.72528 23.8446 10.2035 23.8446 12.0159V26.1907C23.8446 28.003 22.3649 29.4813 20.5507 29.4813ZM12.6959 7.20655V5.76882H19.2838V7.20655H12.6959ZM20.8547 4.18934C20.8547 4.18934 20.8243 4.25008 20.7939 4.25008H11.1858C11.1858 4.25008 11.125 4.21971 11.125 4.18934V2.57948C11.125 2.57948 11.1554 2.51873 11.1858 2.51873H20.7939C20.7939 2.51873 20.8547 2.54911 20.8547 2.57948V4.18934Z" fill="#3D9BE9"/>
</svg>
