<svg width="37" height="32" viewBox="0 0 37 32" fill="none" xmlns="http://www.w3.org/2000/svg">
<path fill-rule="evenodd" clip-rule="evenodd" d="M22.3727 30.2938C22.5581 30.2994 22.7337 30.3046 22.9114 30.3046L22.909 30.3069C24.366 30.3069 25.3578 29.8583 26.7023 28.5912C27.7261 27.6271 28.2587 26.5748 28.2859 25.4639C28.2895 25.3136 28.2836 25.1692 28.2694 25.0318C28.7653 24.5186 29.2482 23.7094 29.3393 22.4752C29.3985 21.6684 29.2943 21.0108 29.0967 20.48C29.4056 19.9797 29.6269 19.3608 29.6494 18.6175C29.6778 17.6545 29.4518 16.789 29.0316 16.1231C29.2399 15.2753 29.2955 14.1432 28.6446 13.0745C27.5509 11.2778 24.7743 10.6377 22.5397 10.6377C21.955 10.6377 21.3715 10.6788 20.8046 10.7611C20.5265 10.801 20.2602 10.8468 20.0069 10.8949C20.2389 10.1844 20.446 9.47514 20.575 8.87857C20.7064 8.27026 21.0058 6.68136 20.9502 5.05723C20.8839 3.15831 20.3383 1.8172 19.3263 1.07031C18.5049 0.463176 17.596 0.142578 16.7 0.142578C15.8691 0.142578 15.0927 0.41855 14.4571 0.941136C13.7245 1.5424 13.2665 2.44665 13.2014 3.42136C13.1339 4.42543 12.7563 6.95029 12.5066 7.88624C12.3445 8.49456 11.9456 9.12283 11.5598 9.72997L11.5482 9.74818C11.2417 10.2322 10.9249 10.7325 10.6969 11.2672L10.6164 11.4551C9.61042 13.8085 9.21747 14.8689 9.1216 15.5054C9.0494 15.6182 8.78665 15.8941 8.22091 16.1255L8.09249 16.1779C7.60198 15.7763 6.9817 15.5251 6.29927 15.4888C5.95722 15.4712 5.62227 15.4618 5.30152 15.4618C3.07523 15.4618 1.63719 15.8764 0.776738 16.7689C0.244132 17.3208 -0.0304554 18.0466 0.00268451 18.8111C0.0938193 20.8803 1.10932 27.6657 1.2549 28.6286C1.27976 29.0408 1.42297 29.7607 2.05026 30.423C2.78289 31.1969 3.88834 31.5892 5.33821 31.5892H5.3394C5.57611 31.5892 5.82821 31.5786 6.08623 31.5575C7.60326 31.434 8.72137 31.0048 9.41835 30.2788H21.652C21.9006 30.2788 22.1243 30.2858 22.3397 30.2928L22.3727 30.2938Z" fill="url(#paint0_linear_5411_30442)"/>
<path d="M1.77506 18.7367C1.86738 20.8493 3.02491 28.472 3.02491 28.472C3.02491 28.472 2.92667 30.048 5.94004 29.8037C8.9534 29.5595 8.39239 28.196 8.39239 28.196L7.4195 18.4055C7.35677 17.7749 6.84073 17.2828 6.20279 17.2499C4.5671 17.163 1.70878 17.2276 1.77506 18.7378V18.7367Z" fill="white"/>
<path d="M8.89767 17.7541L9.95578 28.5159H21.653C23.3999 28.5159 23.8745 28.8259 25.483 27.311C27.34 25.5612 26.1221 24.2976 26.1221 24.2976C26.1221 24.2976 27.4406 24.1085 27.5708 22.3435C27.701 20.5784 26.7542 20.3259 26.7542 20.3259C26.7542 20.3259 27.8395 19.8398 27.8774 18.5633C27.9058 17.6109 27.5649 16.7841 26.9755 16.5774C26.9755 16.5774 27.8182 15.1154 27.1294 13.9833C26.392 12.7725 23.6319 12.1313 21.0636 12.5024C18.3059 12.9005 17.0536 13.8024 17.0548 13.8024C17.0548 13.8024 18.4254 10.4356 18.842 8.50729C19.2586 6.57901 19.5131 3.39887 18.2692 2.48053C17.3637 1.81115 16.334 1.68549 15.5919 2.29498C15.2203 2.60031 15.0072 3.05713 14.9753 3.53509C14.9043 4.59084 14.522 7.22373 14.2249 8.33466C13.8426 9.76385 12.7786 10.9065 12.3336 11.9505C11.9418 12.8677 10.9452 15.1706 10.8754 15.7906C10.8056 16.4107 10.1641 17.2374 8.89648 17.7541H8.89767Z" fill="white"/>
<path d="M30.3419 7.33032L30.0898 10.7571L31.9386 8.10539L30.3419 7.33032Z" fill="#8EC5F2"/>
<path d="M35.264 6.22119L31.9844 10.8599L37.0003 8.44893L35.264 6.22119Z" fill="#3D9BE9"/>
<path d="M32.8838 12.9438L35.2202 13.5063V12.1511L32.8838 12.9438Z" fill="#2B6DA3"/>
<path d="M5.16064 11.1965L5.78557 10.7573L6.61407 12.1513L5.16064 11.1965Z" fill="#8EC5F2"/>
<path d="M6.26416 6.44581L8.28333 6.21094L7.69983 9.92423L6.26416 6.44581Z" fill="#2B6DA3"/>
<path d="M2.28853 12.9004L2.0459 14.6748L5.36936 14.1487L2.28853 12.9004Z" fill="#3D9BE9"/>
<defs>
<linearGradient id="paint0_linear_5411_30442" x1="14.8259" y1="0.142578" x2="14.8259" y2="31.5893" gradientUnits="userSpaceOnUse">
<stop stop-color="#2094E2"/>
<stop offset="1" stop-color="#2B6DA3"/>
</linearGradient>
</defs>
</svg>
