<svg width="24" height="24" viewBox="0 0 24 24" fill="none" xmlns="http://www.w3.org/2000/svg">
<path d="M19.5094 6.27729C19.3536 6.20752 19.202 6.13104 19.0551 6.04813C18.6279 5.80333 18.2361 5.51489 17.8884 5.18901C17.0183 4.32613 16.6933 3.45076 16.5736 2.83787H16.5784C16.4784 2.32915 16.5198 2 16.526 2H12.563V15.2818C12.563 15.4602 12.563 15.6364 12.5543 15.8106C12.5543 15.8322 12.5519 15.8522 12.5505 15.8756C12.5505 15.8851 12.5505 15.8951 12.5481 15.9051C12.5481 15.9076 12.5481 15.9101 12.5481 15.9126C12.5063 16.3892 12.33 16.8495 12.0348 17.2532C11.7396 17.6568 11.3344 17.9914 10.8549 18.2275C10.3553 18.4739 9.7901 18.6032 9.21521 18.6025C7.36875 18.6025 5.87227 17.2976 5.87227 15.686C5.87227 14.0744 7.36875 12.7695 9.21521 12.7695C9.56473 12.7692 9.91211 12.8169 10.2444 12.9107L10.2492 9.41338C9.24038 9.30043 8.21546 9.36992 7.23914 9.61747C6.26282 9.86502 5.35628 10.2852 4.57672 10.8516C3.89365 11.366 3.31938 11.9798 2.87977 12.6653C2.71248 12.9153 2.0813 13.9198 2.00486 15.5502C1.95679 16.4755 2.27743 17.4342 2.4303 17.8305V17.8388C2.52644 18.0721 2.899 18.8683 3.50616 19.5395C3.99574 20.078 4.57417 20.5509 5.22281 20.9432V20.9349L5.23243 20.9432C7.15099 22.0732 9.27818 21.999 9.27818 21.999C9.64641 21.9861 10.8799 21.999 12.2808 21.4236C13.8345 20.7857 14.719 19.8354 14.719 19.8354C15.2841 19.2675 15.7334 18.6204 16.0477 17.9217C16.4063 17.1047 16.526 16.1247 16.526 15.7331V8.68675C16.5741 8.71175 17.2144 9.07881 17.2144 9.07881C17.2144 9.07881 18.1369 9.59129 19.5762 9.92502C20.6088 10.1625 22 10.2125 22 10.2125V6.80268C21.5125 6.84851 20.5227 6.71518 19.5094 6.27729Z" fill="#333333"/>
</svg>
