<svg width="75" height="39" viewBox="0 0 75 39" fill="none" xmlns="http://www.w3.org/2000/svg">
<g clip-path="url(#clip0_13260_83015)">
<path d="M8 31V10.648H0.128V8.6H18.24V10.648H10.368V31H8ZM22.2575 10.488C21.3295 10.488 20.5935 9.752 20.5935 8.856C20.5935 7.992 21.3295 7.256 22.2575 7.256C23.1855 7.256 23.9215 7.96 23.9215 8.824C23.9215 9.752 23.2175 10.488 22.2575 10.488ZM21.1055 31V14.168H23.3775V31H21.1055ZM31.8753 17.464C32.9313 15.224 35.0753 14.04 38.1793 14.04V16.248C37.9873 16.248 37.7953 16.216 37.6353 16.216C34.1153 16.216 31.9713 18.456 31.9713 22.424V31H29.6993V14.168H31.8753V17.464ZM43.631 29.112H54.415V31H40.719V29.496L51.311 16.088H40.911V14.168H54.223V15.672L43.631 29.112ZM73.2935 22.584C73.2935 22.776 73.2615 23.032 73.2615 23.288H59.1815C59.4375 26.808 62.1255 29.144 65.8055 29.144C67.8535 29.144 69.6775 28.408 70.9575 26.936L72.2375 28.408C70.7335 30.2 68.3975 31.16 65.7415 31.16C60.4935 31.16 56.9095 27.576 56.9095 22.584C56.9095 17.592 60.3975 14.04 65.1335 14.04C69.8695 14.04 73.2935 17.528 73.2935 22.584ZM65.1335 15.992C61.8695 15.992 59.4695 18.296 59.1815 21.592H71.1175C70.8295 18.296 68.4295 15.992 65.1335 15.992ZM86.59 14.04C91.39 14.04 94.974 17.496 94.974 22.584C94.974 27.704 91.39 31.16 86.59 31.16C83.902 31.16 81.598 30.008 80.19 27.832V37.208H77.918V14.168H80.094V17.496C81.47 15.256 83.806 14.04 86.59 14.04ZM86.43 29.144C89.982 29.144 92.702 26.52 92.702 22.584C92.702 18.68 89.982 16.024 86.43 16.024C82.846 16.024 80.158 18.68 80.158 22.584C80.158 26.52 82.846 29.144 86.43 29.144ZM105.4 14.04C109.752 14.04 112.216 16.216 112.216 20.568V31H110.04V28.376C109.016 30.104 107.032 31.16 104.248 31.16C100.44 31.16 98.1038 29.176 98.1038 26.264C98.1038 23.672 99.7678 21.496 104.6 21.496H109.944V20.472C109.944 17.592 108.312 16.024 105.176 16.024C103 16.024 100.952 16.792 99.5758 18.008L98.5518 16.312C100.248 14.872 102.744 14.04 105.4 14.04ZM104.6 29.368C107.16 29.368 109.048 28.152 109.944 25.944V23.192H104.664C101.4 23.192 100.344 24.472 100.344 26.2C100.344 28.152 101.912 29.368 104.6 29.368ZM126.451 28.344L127.251 29.976C126.355 30.776 125.011 31.16 123.699 31.16C120.531 31.16 118.771 29.368 118.771 26.264V16.088H115.763V14.168H118.771V10.488H121.043V14.168H126.163V16.088H121.043V26.136C121.043 28.12 122.067 29.208 123.955 29.208C124.883 29.208 125.811 28.92 126.451 28.344ZM132.539 10.488C131.611 10.488 130.875 9.752 130.875 8.856C130.875 7.992 131.611 7.256 132.539 7.256C133.467 7.256 134.203 7.96 134.203 8.824C134.203 9.752 133.499 10.488 132.539 10.488ZM131.387 31V14.168H133.659V31H131.387ZM153.069 7.256H155.341V31H153.165V27.672C151.789 29.944 149.453 31.16 146.669 31.16C141.869 31.16 138.285 27.672 138.285 22.584C138.285 17.496 141.869 14.04 146.669 14.04C149.357 14.04 151.661 15.192 153.069 17.368V7.256ZM146.861 29.144C150.413 29.144 153.101 26.52 153.101 22.584C153.101 18.648 150.413 16.024 146.861 16.024C143.277 16.024 140.589 18.648 140.589 22.584C140.589 26.52 143.277 29.144 146.861 29.144ZM176.356 22.584C176.356 22.776 176.324 23.032 176.324 23.288H162.244C162.5 26.808 165.188 29.144 168.868 29.144C170.916 29.144 172.74 28.408 174.02 26.936L175.3 28.408C173.796 30.2 171.46 31.16 168.804 31.16C163.556 31.16 159.972 27.576 159.972 22.584C159.972 17.592 163.46 14.04 168.196 14.04C172.932 14.04 176.356 17.528 176.356 22.584ZM168.196 15.992C164.932 15.992 162.532 18.296 162.244 21.592H174.18C173.892 18.296 171.492 15.992 168.196 15.992Z" fill="#333333"/>
</g>
<defs>
<clipPath id="clip0_13260_83015">
<rect width="75" height="39" fill="white"/>
</clipPath>
</defs>
</svg>
