<svg width="80" height="39" viewBox="0 0 80 39" fill="none" xmlns="http://www.w3.org/2000/svg">
<g clip-path="url(#clip0_13260_83013)">
<path d="M7.296 31V12.824H0.128V8.6H19.648V12.824H12.48V31H7.296ZM24.2063 11.384C22.3503 11.384 21.1023 10.168 21.1023 8.6C21.1023 7.032 22.3503 5.816 24.2063 5.816C26.0623 5.816 27.3103 6.968 27.3103 8.504C27.3103 10.168 26.0623 11.384 24.2063 11.384ZM21.7103 31V13.784H26.7023V31H21.7103ZM36.1033 16.056C37.3193 14.392 39.3673 13.528 42.0233 13.528V18.136C41.6073 18.104 41.2873 18.072 40.9033 18.072C38.1513 18.072 36.3273 19.576 36.3273 22.872V31H31.3353V13.784H36.1033V16.056ZM50.2365 27.16H59.2925V31H43.9325V27.992L52.7005 17.624H44.1565V13.784H59.0045V16.792L50.2365 27.16ZM79.1368 22.456C79.1368 22.84 79.0728 23.384 79.0408 23.8H66.0168C66.4968 25.944 68.3208 27.256 70.9448 27.256C72.7688 27.256 74.0808 26.712 75.2648 25.592L77.9208 28.472C76.3208 30.296 73.9208 31.256 70.8168 31.256C64.8648 31.256 60.9928 27.512 60.9928 22.392C60.9928 17.24 64.9288 13.528 70.1768 13.528C75.2328 13.528 79.1368 16.92 79.1368 22.456ZM70.2088 17.304C67.9368 17.304 66.3048 18.68 65.9528 20.888H74.4328C74.0808 18.712 72.4488 17.304 70.2088 17.304ZM92.6363 13.528C97.4683 13.528 101.212 16.984 101.212 22.392C101.212 27.8 97.4683 31.256 92.6363 31.256C90.4923 31.256 88.7323 30.584 87.4523 29.176V37.208H82.4603V13.784H87.2283V15.768C88.4763 14.264 90.3323 13.528 92.6363 13.528ZM91.7723 27.16C94.2683 27.16 96.1562 25.368 96.1562 22.392C96.1562 19.416 94.2683 17.624 91.7723 17.624C89.2763 17.624 87.3883 19.416 87.3883 22.392C87.3883 25.368 89.2763 27.16 91.7723 27.16ZM111.217 13.528C116.465 13.528 119.505 15.96 119.505 21.176V31H114.833V28.856C113.905 30.424 112.113 31.256 109.585 31.256C105.553 31.256 103.153 29.016 103.153 26.04C103.153 23 105.297 20.888 110.545 20.888H114.513C114.513 18.744 113.233 17.496 110.545 17.496C108.721 17.496 106.833 18.104 105.585 19.096L103.793 15.608C105.681 14.264 108.465 13.528 111.217 13.528ZM110.833 27.896C112.497 27.896 113.937 27.128 114.513 25.56V23.8H111.089C108.753 23.8 108.017 24.664 108.017 25.816C108.017 27.064 109.073 27.896 110.833 27.896ZM133.783 26.648L135.127 30.168C134.103 30.904 132.599 31.256 131.063 31.256C126.999 31.256 124.631 29.176 124.631 25.08V18.008H121.975V14.168H124.631V9.976H129.623V14.168H133.911V18.008H129.623V25.016C129.623 26.488 130.423 27.288 131.767 27.288C132.503 27.288 133.239 27.064 133.783 26.648ZM140.425 11.384C138.569 11.384 137.321 10.168 137.321 8.6C137.321 7.032 138.569 5.816 140.425 5.816C142.281 5.816 143.529 6.968 143.529 8.504C143.529 10.168 142.281 11.384 140.425 11.384ZM137.929 31V13.784H142.921V31H137.929ZM160.098 7.256H165.09V31H160.322V29.016C159.074 30.52 157.25 31.256 154.946 31.256C150.082 31.256 146.338 27.8 146.338 22.392C146.338 16.984 150.082 13.528 154.946 13.528C157.058 13.528 158.85 14.2 160.098 15.608V7.256ZM155.81 27.16C158.274 27.16 160.194 25.368 160.194 22.392C160.194 19.416 158.274 17.624 155.81 17.624C153.314 17.624 151.394 19.416 151.394 22.392C151.394 25.368 153.314 27.16 155.81 27.16ZM186.574 22.456C186.574 22.84 186.51 23.384 186.478 23.8H173.454C173.934 25.944 175.758 27.256 178.382 27.256C180.206 27.256 181.518 26.712 182.702 25.592L185.358 28.472C183.758 30.296 181.358 31.256 178.254 31.256C172.302 31.256 168.43 27.512 168.43 22.392C168.43 17.24 172.366 13.528 177.614 13.528C182.67 13.528 186.574 16.92 186.574 22.456ZM177.646 17.304C175.374 17.304 173.742 18.68 173.39 20.888H181.87C181.518 18.712 179.886 17.304 177.646 17.304Z" fill="#333333"/>
</g>
<defs>
<clipPath id="clip0_13260_83013">
<rect width="80" height="39" fill="white"/>
</clipPath>
</defs>
</svg>
