<svg width="21" height="24" viewBox="0 0 21 24" fill="none" xmlns="http://www.w3.org/2000/svg">
<path fill-rule="evenodd" clip-rule="evenodd" d="M1.48242 7.25387L1.56731 16.9994L3.732 19.7041L10.2263 23.1816L18.206 19.2319L19.8614 15.2392L19.6916 2.31641L13.6643 2.14467L7.38252 3.17505L1.65245 6.52374L1.48242 7.25387Z" fill="#301506"/>
<path d="M10.7805 0.211131C6.99769 0.211131 3.69805 0.951898 0.972656 2.41272V14.0915C0.972656 16.5489 1.88552 18.6039 3.6121 20.0355C5.21522 21.3656 10.1731 23.5576 10.7807 23.8238C11.3568 23.5702 16.3735 21.3443 17.9511 20.0355C19.6768 18.6047 20.5899 16.5491 20.5899 14.0915V2.41272C17.8641 0.951705 14.5644 0.210938 10.7801 0.210938L10.7805 0.211131ZM16.3817 2.47246C17.5098 2.48738 18.6174 2.55787 19.6881 2.65852V14.0914C19.6881 16.2885 18.9 18.0632 17.3792 19.3302C16.0206 20.4619 11.9238 22.3185 10.7807 22.8281C9.62221 22.3116 5.51517 20.4316 4.18099 19.3307C2.66922 18.0854 1.87346 16.2685 1.87346 14.0919V7.41143C6.21786 3.38155 11.4933 2.40806 16.3813 2.47272L16.3817 2.47246ZM11.0362 7.79607C10.1055 7.79607 9.3545 8.00651 8.73622 8.41018V19.6588H10.4433V16.0247C10.6136 16.0755 10.8609 16.123 11.2112 16.123C13.1048 16.123 14.1931 14.3965 14.1931 11.8755C14.1931 9.35951 13.0724 7.79607 11.0362 7.79607ZM16.8691 7.79607C15.7464 7.82899 14.5724 8.65158 14.5795 10.0461C14.5824 10.9643 14.834 11.6509 16.2409 12.4859C16.9918 12.9317 17.2943 13.2254 17.3072 13.7671C17.3216 14.3692 16.9103 14.7323 16.2843 14.7299C15.7397 14.7255 15.0887 14.4198 14.6528 14.0272V15.6162C15.1873 15.9386 15.8543 16.1517 16.5281 16.1517C18.2145 16.1517 18.9675 14.9468 19 13.8427C19.0321 12.8363 18.7572 12.0749 17.3311 11.2274C16.6946 10.8498 16.192 10.6017 16.2088 9.97342C16.2255 9.36013 16.7289 9.14467 17.2122 9.14905C17.8085 9.15437 18.3853 9.48839 18.7413 9.85771V8.35721C18.4413 8.12342 17.806 7.76703 16.8691 7.79607ZM2.74518 7.97078V13.3966C2.74518 15.2258 3.60062 16.1518 5.28892 16.1518C6.33359 16.1518 7.20856 15.9073 7.86033 15.459V7.97082H6.15703V14.4766C5.97135 14.6054 5.69594 14.6876 5.34948 14.6876C4.56754 14.6876 4.4507 13.9624 4.4507 13.473V7.9709L2.74518 7.97078ZM11.0477 9.18617C12.0378 9.18617 12.4482 9.98572 12.4482 11.9195C12.4482 13.8062 11.9788 14.7178 10.9969 14.7178C10.7657 14.7178 10.5648 14.6599 10.4428 14.6134V9.31112C10.5811 9.24142 10.8161 9.18617 11.0477 9.18617Z" fill="#FAB80A"/>
</svg>
