<svg width="40" height="24" viewBox="0 0 40 24" fill="none" xmlns="http://www.w3.org/2000/svg">
<path fill-rule="evenodd" clip-rule="evenodd" d="M5.92692 0.120839H6.10777L6.41029 0.180032L6.77199 0.240863L7.73627 0.482547L9.06307 0.722588L9.7873 0.905085L10.5715 1.08512L11.4158 1.20596L12.2592 1.44765L13.1643 1.56766L14.0686 1.80935L16.9631 2.35109L17.8681 2.59277L18.8332 2.77363L19.6758 2.95448L20.5818 3.13533L21.4252 3.31618L22.2703 3.43703L22.9937 3.6187L23.7179 3.73872L24.3205 3.91875L24.863 4.04042L25.3448 4.09961L25.7673 4.16044L26.0698 4.22127L26.2498 4.28128H26.3699L27.1549 4.46213L27.8783 4.58297L28.4817 4.76383L28.9635 4.88385L29.4468 5.06553L29.8085 5.18637L30.2903 5.42723L30.4711 5.54807L30.7728 5.84894V5.90978L30.8345 5.96979V6.0298H33.4256L33.6681 6.09063H33.909L34.0898 6.15064H34.2707L34.4515 6.21147L34.9341 6.45152L34.9941 6.57318L35.4166 7.23576L35.5375 8.01918L35.4166 8.9851L35.1157 9.88936L34.7532 10.7936L34.3907 11.5179L34.0898 12.0004L33.9698 12.1813L33.849 12.2429L33.5473 12.3613L33.1247 12.543L32.5213 12.7838L31.8579 13.0263L31.0145 13.3872L30.1094 13.7489L29.0843 14.1115L27.9384 14.5932L26.7316 15.0157L25.5273 15.4974L22.8737 16.5842L21.486 17.1268L20.0984 17.6101L18.7124 18.2102L17.2656 18.7544L15.8779 19.2362L14.5503 19.8404L13.1643 20.3238L11.8975 20.8055L9.48479 21.7698L8.39967 22.1923L7.37456 22.554L6.4703 22.9149L5.68687 23.2166L5.02265 23.5183L4.48092 23.6999L4.05838 23.8816L3.81669 23.9408L3.75586 24H34.9341L39.9996 0H5.92692V0.120839Z" fill="#284E80"/>
<path fill-rule="evenodd" clip-rule="evenodd" d="M29.2653 7.90055L29.0836 7.96138L27.8776 8.20142H27.5759L27.3342 8.26143H27.0942L26.7308 8.32309L26.5508 8.3831L26.43 8.44311L26.3691 8.56477V8.68397L26.4908 8.80481H26.7308L26.9725 8.86482H27.5759L27.9376 8.80481H28.2993L29.1444 8.68397H29.567L30.0487 8.62314L30.4704 8.56477L30.8337 8.50312L31.2546 8.44311H32.8831L33.0632 8.50312L33.1848 8.56477L33.3048 8.7448V8.98567L33.2448 9.22653L33.1848 9.52822L33.0632 9.88993L32.8831 10.3125L32.7623 10.735L32.7023 10.9759L32.8223 11.0967L32.9431 11.0359L33.1848 10.7942L33.3048 10.6142L33.4857 10.3125L33.6674 9.95076L33.8482 9.52822L34.0283 9.16734L34.1491 8.80481L34.2091 8.50312V8.14141L34.0891 7.83971L33.9082 7.65887L33.6674 7.47801L33.3657 7.35717L33.0032 7.29716L32.5823 7.23633H30.0487L29.9887 7.29716H29.9278L29.8078 7.35717L29.6861 7.59885L29.567 7.65887L29.4461 7.77971L29.2653 7.90055Z" fill="#284E80"/>
<path fill-rule="evenodd" clip-rule="evenodd" d="M4.78119 5.54883L0.800781 24.0008L0.982457 23.9416L1.34416 23.7007L1.94673 23.4598L2.7318 23.0373L3.63524 22.6156L4.66117 22.073L5.86713 21.5296L7.01308 20.9263L8.21904 20.3837L9.36416 19.7803L10.5101 19.2369L11.5952 18.6944L12.5003 18.211L13.2837 17.8501L13.8871 17.5501L14.3097 17.3684L14.9122 17.0667L15.4556 16.765L16.1182 16.4625L16.7816 16.1016L17.385 15.7999L18.1084 15.4982L18.7718 15.1365L19.4952 14.8364L20.2194 14.4731L23.8373 12.9663L25.4658 12.4229L25.7067 12.3621L25.9476 12.2437L26.2492 12.182L27.3344 11.8203L28.602 11.4586L29.0237 11.3978L30.2897 11.0361L31.0139 10.916L31.2548 10.8552L31.4356 10.7944H31.6173L31.7973 10.7352L31.9182 10.6143H31.979V10.5527L31.8573 10.3127L31.6765 10.2526L31.4356 10.1918H31.1947L30.8339 10.1326H30.4705L30.0488 10.1918L29.3254 10.2526L28.5411 10.3727L27.6969 10.5527L26.7918 10.7352L25.8884 10.9761L24.9233 11.2778L24.0182 11.5794L23.0539 11.8803L22.1496 12.2437L21.2437 12.5437L20.4003 12.8454L19.6169 13.1471L18.8918 13.5088L18.2893 13.7497L17.7467 13.9922L17.3242 14.2331L15.0331 7.11649H29.6271L29.6863 6.81562L29.4462 6.5131L29.0837 6.33225L28.5411 6.1514L27.9378 5.97054L26.3693 5.72968L23.8373 5.54883H4.78119Z" fill="#284E80"/>
</svg>
