<svg width="279" height="35" viewBox="0 0 279 35" fill="none" xmlns="http://www.w3.org/2000/svg">
<g clip-path="url(#clip0_43_10261)">
<path d="M50.6734 25.1651L41.7776 10.4937H45.8411L52.0792 21.136L57.9658 10.4937H61.6779L53.1555 25.1651H50.6954H50.6734Z" fill="#E7461E"/>
<path d="M59.2397 25.1651L67.9818 10.4937H71.4303L80.3042 25.1651H76.2846L74.4396 21.9462H64.709L62.864 25.1651H59.2837H59.2397ZM66.2027 19.2746H72.9459L69.5194 13.1652L66.2027 19.2746Z" fill="#E7461E"/>
<path d="M82.9399 25.1651V10.4937H86.5642V22.4279H98.0958V25.1651H82.9399Z" fill="#E7461E"/>
<path d="M104.51 10.4937V22.4279H114.767V10.4937H118.392V21.6834C118.392 23.0192 118.128 23.9389 117.579 24.4206C117.03 24.9024 116.019 25.1651 114.504 25.1651H104.773C103.28 25.1651 102.269 24.9243 101.742 24.4425C101.215 23.9608 100.951 23.0411 100.951 21.7053V10.5156H104.51V10.4937Z" fill="#E7461E"/>
<path d="M122.455 25.1651V10.4937H138.248V13.0776H126.079V16.2747H133.174V18.7929H126.079V22.406H138.424V25.1432H122.455V25.1651Z" fill="#E7461E"/>
<path d="M153.624 25.1651V10.4937H166.868C168.098 10.4937 168.977 10.7126 169.504 11.1725C170.031 11.6323 170.317 12.355 170.317 13.3404V16.6031C170.317 17.6104 170.053 18.333 169.504 18.771C168.955 19.209 168.077 19.4498 166.868 19.4498H157.138V25.1651H153.602H153.624ZM165.353 13.0338H157.16V16.9316H165.353C165.968 16.9316 166.407 16.844 166.627 16.6688C166.846 16.4936 166.978 16.1871 166.978 15.7491V14.2163C166.978 13.7783 166.868 13.4717 166.627 13.2966C166.385 13.1214 165.968 13.0338 165.353 13.0338Z" fill="#E7461E"/>
<path d="M173.699 25.1651V10.4937H189.492V13.0776H177.324V16.2747H184.418V18.7929H177.324V22.406H189.668V25.1432H173.699V25.1651Z" fill="#E7461E"/>
<path d="M193.073 25.1651V10.4937H206.318C207.548 10.4937 208.426 10.7126 208.953 11.1725C209.481 11.6323 209.766 12.355 209.766 13.3404V16.6031C209.766 17.6104 209.503 18.333 208.953 18.771C208.404 19.209 207.526 19.4498 206.318 19.4498H196.587V25.1651H193.051H193.073ZM204.802 13.0338H196.609V16.9316H204.802C205.417 16.9316 205.856 16.844 206.076 16.6688C206.296 16.4936 206.428 16.1871 206.428 15.7491V14.2163C206.428 13.7783 206.318 13.4717 206.076 13.2966C205.834 13.1214 205.417 13.0338 204.802 13.0338Z" fill="#E7461E"/>
<path d="M222.923 13.1214V25.1651H219.343V13.1214H212.248V10.4937H230.062V13.1214H222.945H222.923Z" fill="#E7461E"/>
<path d="M233.159 25.1651V10.4937H236.717V25.1651H233.159Z" fill="#E7461E"/>
<path d="M240.803 25.1651V10.4937H250.709C253.542 10.4937 255.739 11.1287 257.255 12.3769C258.77 13.6469 259.539 15.4425 259.539 17.7637C259.539 20.2162 258.726 22.0776 257.123 23.3038C255.497 24.5301 253.059 25.1432 249.808 25.1432H240.803V25.1651ZM244.427 22.4279H249.04C251.566 22.4279 253.323 22.0557 254.333 21.333C255.344 20.5885 255.849 19.3622 255.849 17.6323C255.849 16.1214 255.431 14.9827 254.597 14.2601C253.762 13.5155 252.466 13.1433 250.731 13.1433H244.405V22.4498L244.427 22.4279Z" fill="#E7461E"/>
<path d="M263.031 25.1651V10.4937H278.824V13.0776H266.655V16.2747H273.75V18.7929H266.655V22.406H279V25.1432H263.031V25.1651Z" fill="#E7461E"/>
<path d="M16.7374 33.6178C25.9812 33.6178 33.4747 26.1471 33.4747 16.9317C33.4747 7.71621 25.9812 0.245605 16.7374 0.245605C7.49357 0.245605 0 7.71621 0 16.9317C0 26.1471 7.49357 33.6178 16.7374 33.6178Z" fill="#E7461E"/>
<path d="M26.2921 7.71289C26.7534 7.71289 27.0609 8.17274 26.9291 8.5888L20.4275 27.1362C19.8783 28.7128 18.3847 29.7639 16.6934 29.7639C15.0021 29.7639 13.5085 28.7128 12.9594 27.1143L6.5236 8.5888C6.36984 8.15084 6.69932 7.71289 7.16058 7.71289H15.9905C16.2761 7.71289 16.4518 7.99756 16.32 8.26033C15.3096 10.3187 12.7397 15.6837 12.7397 17.4355C12.7397 19.6253 14.5189 21.4209 16.7373 21.4209C18.9558 21.4209 20.735 19.6472 20.735 17.4355C20.735 15.6837 18.1651 10.3187 17.1547 8.26033C17.0229 8.01946 17.2206 7.71289 17.4842 7.71289H26.3141H26.2921Z" fill="white"/>
</g>
<defs>
<clipPath id="clip0_43_10261">
<rect width="279" height="35" fill="white"/>
</clipPath>
</defs>
</svg>
