<svg width="67" height="67" viewBox="0 0 67 67" fill="none" xmlns="http://www.w3.org/2000/svg">
<path d="M36.2963 41.1771H33.5046C32.36 41.1771 31.4108 40.228 31.4108 39.0834C31.4108 37.9388 32.36 36.9896 33.5046 36.9896H36.2963C38.2225 36.9896 39.7858 35.4263 39.7858 33.5V7.67712H16.7546C13.4604 7.67712 10.4453 9.46374 8.82618 12.3392C8.26785 13.3442 6.98379 13.7072 5.97879 13.1489C4.97379 12.5905 4.61077 11.3063 5.1691 10.3013C7.5141 6.1138 11.9529 3.48962 16.7546 3.48962H41.8796C43.0242 3.48962 43.9733 4.43879 43.9733 5.58337V33.5C43.9733 37.7434 40.5396 41.1771 36.2963 41.1771Z" fill="url(#paint0_linear_7_14004)"/>
<path d="M53.0416 57.9271H50.2499C49.1053 57.9271 48.1562 56.978 48.1562 55.8334C48.1562 53.9071 46.5928 52.3438 44.6666 52.3438C42.7403 52.3438 41.177 53.9071 41.177 55.8334C41.177 56.978 40.2278 57.9271 39.0832 57.9271H27.9166C26.772 57.9271 25.8228 56.978 25.8228 55.8334C25.8228 53.9071 24.2595 52.3438 22.3333 52.3438C20.407 52.3438 18.8437 53.9071 18.8437 55.8334C18.8437 56.978 17.8945 57.9271 16.7499 57.9271H13.9583C8.1795 57.9271 3.4895 53.2371 3.4895 47.4584C3.4895 46.3138 4.43867 45.3646 5.58325 45.3646C6.72784 45.3646 7.677 46.3138 7.677 47.4584C7.677 50.92 10.4966 53.7396 13.9583 53.7396H14.9353C15.8565 50.5292 18.8158 48.1563 22.3333 48.1563C25.8507 48.1563 28.81 50.5292 29.7312 53.7396H37.2965C38.2178 50.5292 41.177 48.1563 44.6945 48.1563C48.212 48.1563 51.1711 50.5292 52.0923 53.7396H53.0416C56.5033 53.7396 59.3228 50.92 59.3228 47.4584V41.1771H53.0416C50.3616 41.1771 48.1562 38.9717 48.1562 36.2917V27.9167C48.1562 25.2367 50.3337 23.0313 53.0416 23.0313L50.0545 17.8109C49.4403 16.7221 48.2679 16.0521 47.0117 16.0521H43.9687V33.5C43.9687 37.7434 40.5349 41.1771 36.2916 41.1771H33.4999C32.3553 41.1771 31.4062 40.228 31.4062 39.0834C31.4062 37.9388 32.3553 36.9896 33.4999 36.9896H36.2916C38.2178 36.9896 39.7812 35.4263 39.7812 33.5V13.9584C39.7812 12.8138 40.7303 11.8646 41.8749 11.8646H47.0117C49.7754 11.8646 52.3157 13.3442 53.6836 15.7451L58.4574 24.0921C58.8203 24.7342 58.8203 25.5438 58.4574 26.1859C58.0945 26.828 57.3965 27.2188 56.6428 27.2188H53.0416C52.6507 27.2188 52.3437 27.5259 52.3437 27.9167V36.2917C52.3437 36.6825 52.6507 36.9896 53.0416 36.9896H61.4166C62.5612 36.9896 63.5103 37.9388 63.5103 39.0834V47.4584C63.5103 53.2371 58.8203 57.9271 53.0416 57.9271Z" fill="url(#paint1_linear_7_14004)"/>
<path d="M22.3333 63.5104C18.09 63.5104 14.6562 60.0767 14.6562 55.8333C14.6562 51.59 18.09 48.1562 22.3333 48.1562C26.5767 48.1562 30.0104 51.59 30.0104 55.8333C30.0104 60.0767 26.5767 63.5104 22.3333 63.5104ZM22.3333 52.3438C20.4071 52.3438 18.8438 53.9071 18.8438 55.8333C18.8438 57.7596 20.4071 59.3229 22.3333 59.3229C24.2596 59.3229 25.8229 57.7596 25.8229 55.8333C25.8229 53.9071 24.2596 52.3438 22.3333 52.3438Z" fill="url(#paint2_linear_7_14004)"/>
<path d="M44.6666 63.5104C40.4233 63.5104 36.9895 60.0767 36.9895 55.8333C36.9895 51.59 40.4233 48.1562 44.6666 48.1562C48.9099 48.1562 52.3437 51.59 52.3437 55.8333C52.3437 60.0767 48.9099 63.5104 44.6666 63.5104ZM44.6666 52.3438C42.7403 52.3438 41.177 53.9071 41.177 55.8333C41.177 57.7596 42.7403 59.3229 44.6666 59.3229C46.5928 59.3229 48.1562 57.7596 48.1562 55.8333C48.1562 53.9071 46.5928 52.3438 44.6666 52.3438Z" fill="url(#paint3_linear_7_14004)"/>
<path d="M61.4167 41.1771H53.0417C50.3617 41.1771 48.1562 38.9717 48.1562 36.2917V27.9167C48.1562 25.2367 50.3617 23.0312 53.0417 23.0312H56.6429C57.3966 23.0312 58.0946 23.4221 58.4575 24.0921L63.2313 32.4671C63.3988 32.7742 63.5104 33.1371 63.5104 33.5V39.0833C63.5104 40.2279 62.5613 41.1771 61.4167 41.1771ZM53.0417 27.2188C52.6508 27.2188 52.3438 27.5258 52.3438 27.9167V36.2917C52.3438 36.6825 52.6508 36.9896 53.0417 36.9896H59.3229V34.0584L55.4145 27.2188H53.0417Z" fill="url(#paint4_linear_7_14004)"/>
<path d="M22.3333 24.4271H5.58325C4.43867 24.4271 3.4895 23.478 3.4895 22.3334C3.4895 21.1888 4.43867 20.2396 5.58325 20.2396H22.3333C23.4778 20.2396 24.427 21.1888 24.427 22.3334C24.427 23.478 23.4778 24.4271 22.3333 24.4271Z" fill="url(#paint5_linear_7_14004)"/>
<path d="M16.7499 32.8021H5.58325C4.43867 32.8021 3.4895 31.853 3.4895 30.7084C3.4895 29.5638 4.43867 28.6146 5.58325 28.6146H16.7499C17.8945 28.6146 18.8437 29.5638 18.8437 30.7084C18.8437 31.853 17.8945 32.8021 16.7499 32.8021Z" fill="url(#paint6_linear_7_14004)"/>
<path d="M11.1666 41.1771H5.58325C4.43867 41.1771 3.4895 40.228 3.4895 39.0834C3.4895 37.9388 4.43867 36.9896 5.58325 36.9896H11.1666C12.3112 36.9896 13.2603 37.9388 13.2603 39.0834C13.2603 40.228 12.3112 41.1771 11.1666 41.1771Z" fill="url(#paint7_linear_7_14004)"/>
<defs>
<linearGradient id="paint0_linear_7_14004" x1="24.4402" y1="3.48962" x2="24.4402" y2="41.1771" gradientUnits="userSpaceOnUse">
<stop stop-color="#FE3520"/>
<stop offset="1" stop-color="#FE8410"/>
</linearGradient>
<linearGradient id="paint1_linear_7_14004" x1="33.4999" y1="11.8646" x2="33.4999" y2="57.9271" gradientUnits="userSpaceOnUse">
<stop stop-color="#FE3520"/>
<stop offset="1" stop-color="#FE8410"/>
</linearGradient>
<linearGradient id="paint2_linear_7_14004" x1="22.3333" y1="48.1562" x2="22.3333" y2="63.5104" gradientUnits="userSpaceOnUse">
<stop stop-color="#FE3520"/>
<stop offset="1" stop-color="#FE8410"/>
</linearGradient>
<linearGradient id="paint3_linear_7_14004" x1="44.6666" y1="48.1562" x2="44.6666" y2="63.5104" gradientUnits="userSpaceOnUse">
<stop stop-color="#FE3520"/>
<stop offset="1" stop-color="#FE8410"/>
</linearGradient>
<linearGradient id="paint4_linear_7_14004" x1="55.8333" y1="23.0312" x2="55.8333" y2="41.1771" gradientUnits="userSpaceOnUse">
<stop stop-color="#FE3520"/>
<stop offset="1" stop-color="#FE8410"/>
</linearGradient>
<linearGradient id="paint5_linear_7_14004" x1="13.9583" y1="20.2396" x2="13.9583" y2="24.4271" gradientUnits="userSpaceOnUse">
<stop stop-color="#FE3520"/>
<stop offset="1" stop-color="#FE8410"/>
</linearGradient>
<linearGradient id="paint6_linear_7_14004" x1="11.1666" y1="28.6146" x2="11.1666" y2="32.8021" gradientUnits="userSpaceOnUse">
<stop stop-color="#FE3520"/>
<stop offset="1" stop-color="#FE8410"/>
</linearGradient>
<linearGradient id="paint7_linear_7_14004" x1="8.37492" y1="36.9896" x2="8.37492" y2="41.1771" gradientUnits="userSpaceOnUse">
<stop stop-color="#FE3520"/>
<stop offset="1" stop-color="#FE8410"/>
</linearGradient>
</defs>
</svg>
