<svg width="128" height="56" viewBox="0 0 128 56" fill="none" xmlns="http://www.w3.org/2000/svg">
<g clip-path="url(#clip0_20757_194674)">
<path d="M2.78715 7.53857L49.3724 7.53857L52.1596 13.1177H0L2.78715 7.53857Z" fill="#C4A12B"/>
<path d="M26.3253 9.13281H3.55566V47.3648L14.9405 41.9649L26.3253 36.5649L49.0949 47.3648V9.13281H26.3253Z" fill="#242424"/>
<path d="M49.3931 49.7806L26.277 38.2513L2.76562 49.7806V7.53857H49.3931V49.7806ZM5.03937 9.80873V45.6247L26.277 35.5543L47.1194 45.6247V9.80873H5.03937Z" fill="#FFC439"/>
<path fill-rule="evenodd" clip-rule="evenodd" d="M26.6294 27.2627L27.2557 28.5274L28.654 28.7299L27.6399 29.7139L27.8819 31.103L26.6294 30.4458L25.3805 31.103L25.6189 29.7139L24.6084 28.7299L26.0067 28.5274L26.6294 27.2627ZM34.314 28.034L34.7338 28.8831L35.6696 29.0181L34.9936 29.6789L35.1537 30.6096L34.314 30.1691L33.4778 30.6096L33.6379 29.6789L32.9619 29.0181L33.8977 28.8831L34.314 28.034ZM19.3486 28.8831L18.9287 28.034L18.5089 28.8831L17.5731 29.0181L18.2491 29.6789L18.089 30.6096L18.9287 30.1691L19.7649 30.6096L19.6048 29.6789L20.2844 29.0181L19.3486 28.8831ZM12.5435 28.8287L12.789 29.3225L13.3369 29.4042L12.9384 29.7879L13.0345 30.335L12.5435 30.0757L12.0524 30.335L12.145 29.7879L11.75 29.4042L12.298 29.3225L12.5435 28.8287ZM40.9436 29.3225L40.6981 28.8287L40.4562 29.3225L39.9082 29.4042L40.3032 29.7879L40.2106 30.335L40.6981 30.0757L41.1891 30.335L41.0966 29.7879L41.4916 29.4042L40.9436 29.3225Z" fill="#FFC439"/>
<path fill-rule="evenodd" clip-rule="evenodd" d="M20.4134 14.8856L19.6915 13.1177L18.9683 14.8856L17.6514 13.9556L18.8115 16.1144H19.6915H20.5714L21.7316 13.9556L20.4134 14.8856ZM29.7317 16.8128V19.421H29.5136C29.3497 18.7403 29.0441 18.2186 28.5969 17.8561C28.1497 17.4935 27.6428 17.3123 27.0764 17.3123C26.6031 17.3123 26.1689 17.4473 25.7739 17.7174C25.3789 17.9874 25.09 18.3407 24.9074 18.7773C24.6727 19.3359 24.5553 19.9574 24.5553 20.6418C24.5553 21.3151 24.641 21.9292 24.8124 22.4842C24.9838 23.0354 25.2522 23.4534 25.6174 23.7383C25.9826 24.0194 26.4559 24.16 27.0372 24.16C27.5143 24.16 27.9503 24.0564 28.3453 23.8493C28.7441 23.6421 29.1633 23.2851 29.6031 22.7783V23.4275C29.1782 23.8678 28.7348 24.1878 28.2727 24.3875C27.8143 24.5836 27.2776 24.6817 26.6627 24.6817C25.854 24.6817 25.1348 24.5207 24.505 24.1989C23.8789 23.877 23.3944 23.4146 23.0515 22.8116C22.7124 22.2085 22.5428 21.5667 22.5428 20.886C22.5428 20.1683 22.731 19.4876 23.1074 18.8439C23.4876 18.2002 23.9981 17.7007 24.6391 17.3456C25.2838 16.9904 25.9677 16.8128 26.6907 16.8128C27.2236 16.8128 27.7863 16.9275 28.3789 17.1569C28.7217 17.2901 28.9397 17.3567 29.0329 17.3567C29.1522 17.3567 29.2546 17.3141 29.3404 17.229C29.4298 17.1402 29.4876 17.0015 29.5136 16.8128H29.7317ZM16.8714 17.1902V16.9849H14.3838V17.1902C14.6484 17.1902 14.8609 17.2216 15.0211 17.2845C15.1366 17.3289 15.2242 17.3937 15.2838 17.4787C15.3435 17.5638 15.3733 17.6619 15.3733 17.7729C15.3733 17.869 15.3528 17.9856 15.3118 18.1225C15.2708 18.2593 15.1609 18.5294 14.982 18.9326L13.4838 22.2677L11.8683 18.522C11.6969 18.1262 11.5963 17.8838 11.5664 17.7951C11.5366 17.7026 11.5217 17.623 11.5217 17.5564C11.5217 17.4492 11.5646 17.3678 11.6503 17.3123C11.7696 17.2309 11.9932 17.1902 12.3211 17.1902H12.4441V16.9849H8.81055V17.1902C9.10496 17.2235 9.30434 17.303 9.40868 17.4288C9.51676 17.5546 9.72732 17.9782 10.0404 18.6996L12.6397 24.6817H12.8242L15.4348 18.9326C15.7441 18.2482 15.977 17.8136 16.1335 17.6286C16.3497 17.3807 16.5956 17.2346 16.8714 17.1902ZM21.6013 24.5096V24.3043H21.3498C21.1374 24.3043 20.9678 24.2692 20.8411 24.1989C20.7181 24.1249 20.6343 24.0398 20.5895 23.9436C20.5485 23.8474 20.528 23.607 20.528 23.2222V18.2723C20.528 17.8949 20.5485 17.6619 20.5895 17.5731C20.6454 17.4473 20.7218 17.3585 20.8187 17.3067C20.9529 17.229 21.1299 17.1902 21.3498 17.1902H21.6013V16.9849H17.638V17.1902H17.8895C18.102 17.1902 18.2697 17.2272 18.3926 17.3012C18.5194 17.3715 18.6032 17.4547 18.6442 17.5509C18.6852 17.6471 18.7057 17.8875 18.7057 18.2723V23.2222C18.7057 23.5996 18.6852 23.8326 18.6442 23.9214C18.592 24.0472 18.5175 24.136 18.4206 24.1878C18.2864 24.2655 18.1094 24.3043 17.8895 24.3043H17.638V24.5096H21.6013ZM35.4406 22.9663V16.728H35.2478L32.332 18.0105L32.4372 18.213C32.7216 18.093 32.9631 18.033 33.1618 18.033C33.2864 18.033 33.3955 18.0649 33.489 18.1287C33.5864 18.1887 33.6526 18.2637 33.6876 18.3537C33.7227 18.4399 33.7402 18.6593 33.7402 19.0118V22.9663C33.7402 23.4464 33.7149 23.752 33.6643 23.8832C33.6136 24.0145 33.5162 24.1176 33.3721 24.1926C33.228 24.2676 32.9865 24.3051 32.6476 24.3051H32.4372V24.5133H36.6092V24.3051H36.4281C36.1281 24.3051 35.91 24.2639 35.7736 24.1814C35.6373 24.0989 35.5477 23.9939 35.5049 23.8664C35.462 23.7351 35.4406 23.4351 35.4406 22.9663ZM42.7387 22.8313C42.9607 22.1713 43.0718 21.4607 43.0718 20.6994C43.0718 19.8668 42.9413 19.0999 42.6803 18.3987C42.4933 17.8886 42.1992 17.4836 41.7979 17.1836C41.4006 16.8799 40.9721 16.728 40.5124 16.728C40.0606 16.728 39.6321 16.8817 39.227 17.1892C38.8218 17.493 38.5199 17.9318 38.3213 18.5055C38.0797 19.1993 37.959 19.9606 37.959 20.7894C37.959 21.4007 38.0427 21.9932 38.2102 22.5669C38.3388 22.9907 38.4888 23.3301 38.6602 23.5851C38.8978 23.9339 39.1705 24.202 39.4782 24.3895C39.7859 24.577 40.1307 24.6708 40.5124 24.6708C40.8475 24.6708 41.1571 24.5958 41.4415 24.4458C41.7259 24.292 41.9791 24.0857 42.2011 23.827C42.4271 23.5682 42.6062 23.2363 42.7387 22.8313ZM41.2487 18.3537C41.2643 18.5749 41.2721 19.3531 41.2721 20.6881L41.2487 23.107C41.2253 23.5457 41.1318 23.8701 40.9682 24.0801C40.8708 24.2001 40.7248 24.2601 40.53 24.2601C40.3508 24.2601 40.2067 24.2151 40.0976 24.1251C39.9885 24.0351 39.9048 23.857 39.8463 23.5907C39.7684 23.2232 39.7295 22.4994 39.7295 21.4194C39.7295 19.4356 39.7548 18.2787 39.8054 17.9487C39.8561 17.6149 39.9535 17.3824 40.0976 17.2511C40.195 17.1611 40.3274 17.1161 40.4949 17.1161C40.7131 17.1161 40.8708 17.1761 40.9682 17.2961C41.1162 17.4799 41.2097 17.8324 41.2487 18.3537Z" fill="#FFC439"/>
</g>
<g clip-path="url(#clip1_20757_194674)">
<path d="M64.3633 0L124.43 0L128.024 7.39623H60.7695L64.3633 0Z" fill="#C4A12B"/>
<path d="M94.69 2.11328H65.3311V52.7972L80.0105 45.6385L94.69 38.4799L124.049 52.7972V2.11328H94.69Z" fill="#242424"/>
<path d="M124.435 56L94.6288 40.7156L64.3135 56V0H124.435V56ZM67.2452 3.00953V50.4906L94.6288 37.1403L121.503 50.4906V3.00953H67.2452Z" fill="#FFC439"/>
<path fill-rule="evenodd" clip-rule="evenodd" d="M95.0825 26.1479L95.8899 27.8246L97.6929 28.093L96.3854 29.3975L96.6974 31.239L95.0825 30.3677L93.4721 31.239L93.7795 29.3975L92.4766 28.093L94.2796 27.8246L95.0825 26.1479ZM104.99 27.1705L105.532 28.2961L106.738 28.4751L105.867 29.351L106.073 30.585L104.99 30.001L103.912 30.585L104.119 29.351L103.247 28.4751L104.454 28.2961L104.99 27.1705ZM85.6936 28.2961L85.1523 27.1705L84.6109 28.2961L83.4043 28.4751L84.276 29.351L84.0695 30.585L85.1523 30.001L86.2304 30.585L86.024 29.351L86.9002 28.4751L85.6936 28.2961ZM76.9196 28.224L77.2361 28.8786L77.9427 28.987L77.4288 29.4956L77.5527 30.2209L76.9196 29.8771L76.2865 30.2209L76.4057 29.4956L75.8965 28.987L76.603 28.8786L76.9196 28.224ZM113.539 28.8786L113.223 28.224L112.911 28.8786L112.204 28.9869L112.713 29.4955L112.594 30.2208L113.223 29.877L113.856 30.2208L113.736 29.4955L114.246 28.9869L113.539 28.8786Z" fill="#FFC439"/>
<path fill-rule="evenodd" clip-rule="evenodd" d="M87.0679 9.73971L86.1371 7.396L85.2047 9.73971L83.5066 8.50685L85.0025 11.3687H86.1371H87.2717L88.7676 8.50685L87.0679 9.73971ZM99.082 12.2947V15.7522H98.8009C98.5895 14.8498 98.1954 14.1583 97.6188 13.6777C97.0422 13.1971 96.3887 12.9567 95.6583 12.9567C95.048 12.9567 94.4882 13.1358 93.9789 13.4938C93.4695 13.8518 93.0971 14.3202 92.8617 14.8989C92.5589 15.6394 92.4076 16.4634 92.4076 17.3707C92.4076 18.2633 92.5181 19.0774 92.7391 19.8131C92.9602 20.5438 93.3061 21.098 93.7771 21.4757C94.248 21.8484 94.8582 22.0348 95.6078 22.0348C96.2229 22.0348 96.7851 21.8974 97.2945 21.6228C97.8086 21.3482 98.3492 20.8749 98.9162 20.203V21.0637C98.3684 21.6473 97.7966 22.0715 97.2008 22.3364C96.6097 22.5963 95.9178 22.7263 95.1249 22.7263C94.0822 22.7263 93.1548 22.5129 92.3427 22.0863C91.5354 21.6596 90.9108 21.0465 90.4687 20.2471C90.0314 19.4477 89.8128 18.5968 89.8128 17.6944C89.8128 16.7429 90.0554 15.8405 90.5408 14.9872C91.0309 14.1338 91.6892 13.4717 92.5157 13.0009C93.347 12.5301 94.2287 12.2947 95.161 12.2947C95.8481 12.2947 96.5737 12.4467 97.3377 12.7508C97.7798 12.9273 98.0609 13.0156 98.181 13.0156C98.3348 13.0156 98.4669 12.9592 98.5774 12.8464C98.6928 12.7287 98.7673 12.5448 98.8009 12.2947H99.082ZM82.5001 12.7949V12.5227H79.2926V12.7949C79.6338 12.7949 79.9077 12.8366 80.1143 12.92C80.2633 12.9788 80.3762 13.0646 80.4531 13.1774C80.53 13.2902 80.5684 13.4202 80.5684 13.5673C80.5684 13.6949 80.542 13.8493 80.4891 14.0308C80.4362 14.2123 80.2945 14.5703 80.0638 15.1049L78.1322 19.5262L76.0491 14.5605C75.8281 14.0357 75.6983 13.7145 75.6599 13.5968C75.6214 13.4742 75.6022 13.3687 75.6022 13.2804C75.6022 13.1382 75.6575 13.0303 75.768 12.9567C75.9218 12.8488 76.2101 12.7949 76.6329 12.7949H76.7915V12.5227H72.1064V12.7949C72.4861 12.839 72.7431 12.9445 72.8777 13.1112C73.017 13.278 73.2885 13.8395 73.6922 14.7959L77.0438 22.7263H77.2816L80.6477 15.1049C81.0465 14.1976 81.3468 13.6213 81.5487 13.3761C81.8274 13.0475 82.1445 12.8538 82.5001 12.7949ZM88.5988 22.4982V22.226H88.2745C88.0006 22.226 87.7819 22.1794 87.6185 22.0863C87.46 21.9882 87.3519 21.8754 87.2942 21.7479C87.2413 21.6203 87.2149 21.3016 87.2149 20.7915V14.2294C87.2149 13.7292 87.2413 13.4202 87.2942 13.3025C87.3663 13.1358 87.4648 13.0181 87.5897 12.9494C87.7627 12.8464 87.9909 12.7949 88.2745 12.7949H88.5988V12.5227H83.4885V12.7949H83.8128C84.0867 12.7949 84.303 12.8439 84.4615 12.942C84.6249 13.0352 84.733 13.1456 84.7859 13.2731C84.8387 13.4006 84.8652 13.7194 84.8652 14.2294V20.7915C84.8652 21.2918 84.8387 21.6007 84.7859 21.7184C84.7186 21.8852 84.6225 22.0029 84.4976 22.0715C84.3246 22.1745 84.0963 22.226 83.8128 22.226H83.4885V22.4982H88.5988ZM106.512 20.4494V12.1507H106.265L102.526 13.8568L102.661 14.1262C103.026 13.9666 103.335 13.8868 103.59 13.8868C103.75 13.8868 103.89 13.9292 104.01 14.014C104.135 14.0938 104.22 14.1936 104.265 14.3133C104.309 14.428 104.332 14.7199 104.332 15.1888V20.4494C104.332 21.0879 104.299 21.4945 104.235 21.6691C104.17 21.8437 104.045 21.9809 103.86 22.0807C103.675 22.1804 103.365 22.2303 102.931 22.2303H102.661V22.5072H108.011V22.2303H107.779C107.394 22.2303 107.114 22.1755 106.939 22.0657C106.765 21.956 106.65 21.8163 106.595 21.6467C106.54 21.4721 106.512 21.073 106.512 20.4494ZM116.283 12.3602H111.525L109.704 17.4786C109.974 17.4736 110.176 17.4711 110.311 17.4711C111.65 17.4711 112.759 17.7455 113.638 18.2943C114.517 18.843 114.957 19.5564 114.957 20.4344C114.957 20.8535 114.812 21.2126 114.522 21.512C114.237 21.8113 113.89 21.9609 113.481 21.9609C113.286 21.9609 113.111 21.931 112.956 21.8712C112.736 21.7913 112.474 21.6467 112.169 21.4371C111.685 21.0979 111.343 20.8884 111.143 20.8086C110.943 20.7287 110.746 20.6888 110.551 20.6888C110.336 20.6888 110.146 20.7711 109.981 20.9358C109.822 21.1004 109.742 21.29 109.742 21.5045C109.742 21.7838 109.897 22.0333 110.206 22.2528C110.651 22.5621 111.288 22.7167 112.117 22.7167C112.886 22.7167 113.593 22.5571 114.237 22.2378C114.882 21.9136 115.381 21.4546 115.736 20.8609C116.09 20.2623 116.268 19.6512 116.268 19.0276C116.268 18.0548 115.886 17.2416 115.121 16.5881C114.192 15.7949 112.866 15.3659 111.143 15.3011L111.525 14.2908H115.526L116.283 12.3602Z" fill="#FFC439"/>
</g>
<defs>
<clipPath id="clip0_20757_194674">
<rect width="52.1596" height="42.242" fill="white" transform="translate(0 7.53857)"/>
</clipPath>
<clipPath id="clip1_20757_194674">
<rect width="67.2542" height="56" fill="white" transform="translate(60.7461)"/>
</clipPath>
</defs>
</svg>
