<svg width="283" height="92" viewBox="0 0 283 92" fill="none" xmlns="http://www.w3.org/2000/svg">
<g clip-path="url(#clip0_20757_124823)">
<path d="M4.48855 24L79.5114 24L84 32.9811H0L4.48855 24Z" fill="#C4A12B"/>
<path d="M42.3957 26.566H5.72656V88.1108L24.0611 79.4181L42.3957 70.7255L79.0648 88.1108V26.566H42.3957Z" fill="#242424"/>
<path d="M79.546 92L42.3187 73.4404L4.45508 92V24H79.546V92ZM8.11681 27.6544V85.31L42.3187 69.0989L75.8842 85.31V27.6544H8.11681Z" fill="#FFC439"/>
<path fill-rule="evenodd" clip-rule="evenodd" d="M42.8837 55.751L43.8922 57.7869L46.1441 58.1128L44.511 59.6969L44.9007 61.933L42.8837 60.875L40.8724 61.933L41.2563 59.6969L39.6289 58.1128L41.8809 57.7869L42.8837 55.751ZM55.2595 56.9927L55.9357 58.3595L57.4427 58.5768L56.354 59.6405L56.6118 61.1388L55.2595 60.4296L53.9129 61.1388L54.1708 59.6405L53.082 58.5768L54.5891 58.3595L55.2595 56.9927ZM31.1582 58.3595L30.482 56.9927L29.8059 58.3595L28.2988 58.5768L29.3876 59.6405L29.1297 61.1388L30.482 60.4296L31.8286 61.1388L31.5708 59.6405L32.6652 58.5768L31.1582 58.3595ZM20.1997 58.2719L20.5951 59.0668L21.4775 59.1983L20.8358 59.816L20.9905 60.6967L20.1997 60.2792L19.4089 60.6967L19.5579 59.816L18.9219 59.1983L19.8043 59.0668L20.1997 58.2719ZM65.9352 59.0668L65.5398 58.2719L65.1502 59.0668L64.2678 59.1983L64.9038 59.816L64.7548 60.6967L65.5398 60.2792L66.3306 60.6967L66.1816 59.816L66.8177 59.1983L65.9352 59.0668Z" fill="#FFC439"/>
<path fill-rule="evenodd" clip-rule="evenodd" d="M32.8758 35.827L31.7132 32.9811L30.5486 35.827L28.4277 34.33L30.296 37.8051H31.7132H33.1303L34.9986 34.33L32.8758 35.827ZM47.8817 38.9295V43.128H47.5306C47.2665 42.0322 46.7744 41.1925 46.0542 40.6089C45.334 40.0252 44.5178 39.7334 43.6055 39.7334C42.8433 39.7334 42.1441 39.9508 41.5079 40.3855C40.8718 40.8203 40.4066 41.389 40.1126 42.0917C39.7345 42.991 39.5454 43.9915 39.5454 45.0932C39.5454 46.1771 39.6834 47.1657 39.9595 48.059C40.2356 48.9463 40.6677 49.6193 41.2559 50.0778C41.844 50.5304 42.6062 50.7567 43.5425 50.7567C44.3107 50.7567 45.0129 50.59 45.6491 50.2565C46.2913 49.923 46.9664 49.3483 47.6746 48.5324V49.5776C46.9904 50.2863 46.2763 50.8014 45.532 51.123C44.7938 51.4386 43.9296 51.5964 42.9393 51.5964C41.637 51.5964 40.4787 51.3374 39.4644 50.8193C38.4561 50.3011 37.6759 49.5567 37.1237 48.586C36.5776 47.6153 36.3045 46.582 36.3045 45.4863C36.3045 44.3309 36.6076 43.2352 37.2138 42.1989C37.8259 41.1627 38.6482 40.3587 39.6804 39.787C40.7187 39.2153 41.82 38.9295 42.9843 38.9295C43.8426 38.9295 44.7488 39.1141 45.7031 39.4833C46.2552 39.6977 46.6063 39.8049 46.7564 39.8049C46.9484 39.8049 47.1135 39.7364 47.2515 39.5994C47.3956 39.4565 47.4886 39.2332 47.5306 38.9295H47.8817ZM27.171 39.5369V39.2064H23.1649V39.5369C23.591 39.5369 23.9331 39.5875 24.1912 39.6888C24.3773 39.7602 24.5183 39.8644 24.6143 40.0014C24.7103 40.1384 24.7584 40.2962 24.7584 40.4749C24.7584 40.6297 24.7253 40.8173 24.6593 41.0376C24.5933 41.258 24.4163 41.6927 24.1282 42.3419L21.7155 47.7106L19.1138 41.6808C18.8377 41.0436 18.6757 40.6535 18.6277 40.5106C18.5797 40.3617 18.5557 40.2337 18.5557 40.1265C18.5557 39.9538 18.6247 39.8227 18.7627 39.7334C18.9548 39.6024 19.3149 39.5369 19.843 39.5369H20.0411V39.2064H14.1895V39.5369C14.6636 39.5905 14.9847 39.7185 15.1527 39.921C15.3268 40.1235 15.6659 40.8054 16.17 41.9667L20.3561 51.5964H20.6532L24.8574 42.3419C25.3555 41.2401 25.7306 40.5404 25.9827 40.2426C26.3308 39.8436 26.7269 39.6084 27.171 39.5369ZM34.7883 51.3195V50.989H34.3832C34.0411 50.989 33.768 50.9324 33.5639 50.8193C33.3659 50.7002 33.2309 50.5632 33.1588 50.4083C33.0928 50.2535 33.0598 49.8664 33.0598 49.2471V41.2788C33.0598 40.6714 33.0928 40.2962 33.1588 40.1533C33.2489 39.9508 33.3719 39.8079 33.5279 39.7245C33.744 39.5994 34.0291 39.5369 34.3832 39.5369H34.7883V39.2064H28.4055V39.5369H28.8106C29.1527 39.5369 29.4228 39.5964 29.6209 39.7156C29.8249 39.8287 29.96 39.9627 30.026 40.1175C30.092 40.2724 30.125 40.6595 30.125 41.2788V49.2471C30.125 49.8545 30.092 50.2297 30.026 50.3726C29.942 50.5751 29.8219 50.718 29.6659 50.8014C29.4498 50.9265 29.1647 50.989 28.8106 50.989H28.4055V51.3195H34.7883ZM57.0745 48.8352V38.7928H56.764L52.0684 40.8575L52.2377 41.1834C52.6957 40.9903 53.0846 40.8937 53.4046 40.8937C53.6053 40.8937 53.781 40.945 53.9316 41.0476C54.0884 41.1442 54.195 41.2649 54.2515 41.4098C54.308 41.5487 54.3362 41.9018 54.3362 42.4693V48.8352C54.3362 49.6079 54.2954 50.0999 54.2139 50.3112C54.1323 50.5225 53.9755 50.6885 53.7434 50.8092C53.5112 50.93 53.1223 50.9903 52.5765 50.9903H52.2377V51.3254H58.9565V50.9903H58.6648C58.1818 50.9903 57.8305 50.9239 57.6109 50.7911C57.3913 50.6583 57.247 50.4893 57.178 50.284C57.109 50.0727 57.0745 49.5898 57.0745 48.8352ZM68.8277 48.6178C69.1853 47.5554 69.3641 46.4114 69.3641 45.1859C69.3641 43.8457 69.1539 42.6112 68.7336 41.4823C68.4325 40.6613 67.9588 40.0093 67.3127 39.5263C66.6728 39.0373 65.9827 38.7928 65.2424 38.7928C64.5147 38.7928 63.8247 39.0404 63.1722 39.5354C62.5198 40.0244 62.0336 40.7307 61.7137 41.6543C61.3247 42.7711 61.1302 43.9966 61.1302 45.3308C61.1302 46.3148 61.2651 47.2686 61.5349 48.1922C61.7419 48.8744 61.9834 49.4207 62.2595 49.8312C62.6421 50.3927 63.0813 50.8243 63.5769 51.1262C64.0725 51.428 64.6277 51.5789 65.2424 51.5789C65.782 51.5789 66.2807 51.4582 66.7386 51.2167C67.1966 50.9692 67.6044 50.6372 67.962 50.2206C68.3258 49.8041 68.6144 49.2698 68.8277 48.6178ZM66.4281 41.4098C66.4532 41.766 66.4658 43.0187 66.4658 45.1678L66.4281 49.0616C66.3905 49.7679 66.2399 50.2901 65.9764 50.6281C65.8196 50.8213 65.5843 50.9179 65.2707 50.9179C64.9821 50.9179 64.75 50.8454 64.5743 50.7006C64.3987 50.5557 64.2638 50.2689 64.1697 49.8403C64.0442 49.2487 63.9815 48.0836 63.9815 46.345C63.9815 43.1515 64.0223 41.2891 64.1038 40.7578C64.1854 40.2206 64.3422 39.8463 64.5743 39.635C64.7312 39.4901 64.9445 39.4177 65.2142 39.4177C65.5655 39.4177 65.8196 39.5143 65.9764 39.7074C66.2148 40.0032 66.3654 40.5707 66.4281 41.4098Z" fill="#FFC439"/>
</g>
<g clip-path="url(#clip1_20757_124823)">
<path d="M104.464 0L178.594 0L183.029 8.98113H100.029L104.464 0Z" fill="#C4A12B"/>
<path d="M141.891 2.56604H105.658V64.1108L123.775 55.4181L141.891 46.7255L178.123 64.1108V2.56604H141.891Z" fill="#242424"/>
<path d="M178.599 68L141.815 49.4404L104.402 68V0H178.599V68ZM108.02 3.65442V61.31L141.815 45.0989L174.981 61.31V3.65442H108.02Z" fill="#FFC439"/>
<path fill-rule="evenodd" clip-rule="evenodd" d="M142.374 31.751L143.371 33.7869L145.596 34.1128L143.982 35.6969L144.367 37.933L142.374 36.875L140.387 37.933L140.766 35.6969L139.158 34.1128L141.383 33.7869L142.374 31.751ZM154.603 32.9927L155.271 34.3595L156.76 34.5768L155.684 35.6405L155.939 37.1388L154.603 36.4296L153.272 37.1388L153.527 35.6405L152.451 34.5768L153.94 34.3595L154.603 32.9927ZM130.788 34.3595L130.12 32.9927L129.452 34.3595L127.963 34.5768L129.039 35.6405L128.784 37.1388L130.12 36.4296L131.451 37.1388L131.196 35.6405L132.277 34.5768L130.788 34.3595ZM119.96 34.2719L120.351 35.0668L121.223 35.1983L120.588 35.816L120.741 36.6967L119.96 36.2792L119.179 36.6967L119.326 35.816L118.697 35.1983L119.569 35.0668L119.96 34.2719ZM165.152 35.0668L164.761 34.2718L164.376 35.0668L163.504 35.1983L164.132 35.8159L163.985 36.6966L164.761 36.2791L165.542 36.6966L165.395 35.8159L166.023 35.1983L165.152 35.0668Z" fill="#FFC439"/>
<path fill-rule="evenodd" clip-rule="evenodd" d="M132.483 11.827L131.334 8.98108L130.184 11.827L128.088 10.33L129.934 13.8051H131.334H132.734L134.581 10.33L132.483 11.827ZM147.311 14.9295V19.128H146.964C146.703 18.0322 146.217 17.1925 145.505 16.6089C144.793 16.0252 143.987 15.7334 143.085 15.7334C142.332 15.7334 141.641 15.9508 141.013 16.3855C140.384 16.8203 139.925 17.389 139.634 18.0917C139.26 18.991 139.074 19.9915 139.074 21.0932C139.074 22.1771 139.21 23.1657 139.483 24.059C139.756 24.9463 140.183 25.6193 140.764 26.0778C141.345 26.5304 142.098 26.7567 143.023 26.7567C143.782 26.7567 144.476 26.59 145.105 26.2565C145.739 25.923 146.406 25.3483 147.106 24.5324V25.5776C146.43 26.2863 145.724 26.8014 144.989 27.123C144.26 27.4386 143.406 27.5964 142.427 27.5964C141.14 27.5964 139.996 27.3374 138.994 26.8193C137.997 26.3011 137.226 25.5567 136.681 24.586C136.141 23.6153 135.871 22.582 135.871 21.4863C135.871 20.3309 136.171 19.2352 136.77 18.1989C137.375 17.1627 138.187 16.3587 139.207 15.787C140.233 15.2153 141.321 14.9295 142.472 14.9295C143.32 14.9295 144.215 15.1141 145.158 15.4833C145.704 15.6977 146.051 15.8049 146.199 15.8049C146.389 15.8049 146.552 15.7364 146.688 15.5994C146.83 15.4565 146.922 15.2332 146.964 14.9295H147.311ZM126.847 15.5369V15.2064H122.888V15.5369C123.309 15.5369 123.647 15.5875 123.902 15.6888C124.086 15.7602 124.225 15.8644 124.32 16.0014C124.415 16.1384 124.463 16.2962 124.463 16.4749C124.463 16.6297 124.43 16.8173 124.365 17.0376C124.3 17.258 124.125 17.6927 123.84 18.3419L121.456 23.7106L118.885 17.6808C118.612 17.0436 118.452 16.6535 118.405 16.5106C118.357 16.3617 118.334 16.2337 118.334 16.1265C118.334 15.9538 118.402 15.8227 118.538 15.7334C118.728 15.6024 119.084 15.5369 119.606 15.5369H119.801V15.2064H114.02V15.5369C114.488 15.5905 114.805 15.7185 114.971 15.921C115.143 16.1235 115.478 16.8054 115.976 17.9667L120.113 27.5964H120.406L124.56 18.3419C125.053 17.2401 125.423 16.5404 125.672 16.2426C126.016 15.8436 126.408 15.6084 126.847 15.5369ZM134.373 27.3195V26.989H133.973C133.635 26.989 133.365 26.9324 133.163 26.8193C132.968 26.7002 132.834 26.5632 132.763 26.4083C132.698 26.2535 132.665 25.8664 132.665 25.2471V17.2788C132.665 16.6714 132.698 16.2962 132.763 16.1533C132.852 15.9508 132.974 15.8079 133.128 15.7245C133.341 15.5994 133.623 15.5369 133.973 15.5369H134.373V15.2064H128.066V15.5369H128.467C128.805 15.5369 129.072 15.5964 129.267 15.7156C129.469 15.8287 129.602 15.9627 129.668 16.1175C129.733 16.2724 129.765 16.6595 129.765 17.2788V25.2471C129.765 25.8545 129.733 26.2297 129.668 26.3726C129.584 26.5751 129.466 26.718 129.312 26.8014C129.098 26.9265 128.817 26.989 128.467 26.989H128.066V27.3195H134.373ZM156.48 24.8316V14.7546H156.175L151.561 16.8264L151.727 17.1535C152.177 16.9596 152.559 16.8627 152.874 16.8627C153.071 16.8627 153.243 16.9142 153.391 17.0172C153.546 17.1141 153.65 17.2353 153.706 17.3806C153.761 17.52 153.789 17.8743 153.789 18.4438V24.8316C153.789 25.607 153.749 26.1007 153.669 26.3127C153.589 26.5247 153.435 26.6913 153.206 26.8125C152.978 26.9336 152.596 26.9942 152.06 26.9942H151.727V27.3304H158.329V26.9942H158.043C157.568 26.9942 157.223 26.9276 157.007 26.7943C156.791 26.661 156.649 26.4914 156.582 26.2854C156.514 26.0734 156.48 25.5888 156.48 24.8316ZM168.538 15.0091H162.666L160.419 21.2243C160.752 21.2182 161.002 21.2152 161.168 21.2152C162.82 21.2152 164.189 21.5483 165.274 22.2147C166.359 22.881 166.901 23.7473 166.901 24.8134C166.901 25.3223 166.722 25.7584 166.365 26.1219C166.013 26.4854 165.585 26.6671 165.079 26.6671C164.839 26.6671 164.623 26.6307 164.432 26.558C164.161 26.4611 163.837 26.2854 163.461 26.031C162.863 25.6191 162.441 25.3647 162.194 25.2678C161.948 25.1708 161.704 25.1224 161.464 25.1224C161.199 25.1224 160.965 25.2223 160.761 25.4222C160.564 25.6221 160.465 25.8523 160.465 26.1128C160.465 26.452 160.656 26.7549 161.039 27.0215C161.587 27.397 162.373 27.5848 163.397 27.5848C164.346 27.5848 165.218 27.391 166.013 27.0033C166.809 26.6095 167.425 26.0522 167.863 25.3314C168.3 24.6044 168.519 23.8624 168.519 23.1052C168.519 21.9239 168.048 20.9365 167.105 20.143C165.958 19.1798 164.321 18.6588 162.194 18.5801L162.666 17.3534H167.604L168.538 15.0091Z" fill="#FFC439"/>
</g>
<g clip-path="url(#clip2_20757_124823)">
<path d="M203.518 24L278.541 24L283.029 32.9811H199.029L203.518 24Z" fill="#C4A12B"/>
<path d="M241.396 26.566H204.727V88.1108L223.061 79.4181L241.396 70.7255L278.065 88.1108V26.566H241.396Z" fill="#242424"/>
<path d="M278.546 92L241.319 73.4404L203.455 92V24H278.546V92ZM207.117 27.6544V85.31L241.319 69.0989L274.884 85.31V27.6544H207.117Z" fill="#FFC439"/>
<path fill-rule="evenodd" clip-rule="evenodd" d="M241.884 55.751L242.892 57.7869L245.144 58.1128L243.511 59.6969L243.901 61.933L241.884 60.875L239.872 61.933L240.256 59.6969L238.629 58.1128L240.881 57.7869L241.884 55.751ZM254.26 56.9927L254.936 58.3595L256.443 58.5768L255.354 59.6404L255.612 61.1388L254.26 60.4296L252.913 61.1388L253.171 59.6404L252.082 58.5768L253.589 58.3595L254.26 56.9927ZM230.158 58.3595L229.482 56.9927L228.806 58.3595L227.299 58.5768L228.388 59.6404L228.13 61.1388L229.482 60.4296L230.829 61.1388L230.571 59.6404L231.665 58.5768L230.158 58.3595ZM219.2 58.2719L219.595 59.0668L220.478 59.1983L219.836 59.816L219.99 60.6967L219.2 60.2792L218.409 60.6967L218.558 59.816L217.922 59.1983L218.804 59.0668L219.2 58.2719ZM264.935 59.0668L264.54 58.2719L264.15 59.0668L263.268 59.1983L263.904 59.816L263.755 60.6967L264.54 60.2792L265.331 60.6967L265.182 59.816L265.818 59.1983L264.935 59.0668Z" fill="#FFC439"/>
<path fill-rule="evenodd" clip-rule="evenodd" d="M231.876 35.827L230.713 32.9811L229.549 35.827L227.428 34.33L229.296 37.8051H230.713H232.13L233.999 34.33L231.876 35.827ZM246.882 38.9295V43.128H246.531C246.267 42.0322 245.774 41.1925 245.054 40.6089C244.334 40.0252 243.518 39.7334 242.606 39.7334C241.843 39.7334 241.144 39.9508 240.508 40.3855C239.872 40.8203 239.407 41.389 239.113 42.0917C238.734 42.991 238.545 43.9915 238.545 45.0932C238.545 46.1771 238.683 47.1657 238.96 48.059C239.236 48.9463 239.668 49.6193 240.256 50.0778C240.844 50.5304 241.606 50.7567 242.542 50.7567C243.311 50.7567 244.013 50.59 244.649 50.2565C245.291 49.923 245.966 49.3483 246.675 48.5324V49.5776C245.99 50.2863 245.276 50.8014 244.532 51.123C243.794 51.4386 242.93 51.5964 241.939 51.5964C240.637 51.5964 239.479 51.3374 238.464 50.8193C237.456 50.3011 236.676 49.5567 236.124 48.586C235.578 47.6153 235.305 46.582 235.305 45.4863C235.305 44.3309 235.608 43.2352 236.214 42.1989C236.826 41.1627 237.648 40.3587 238.68 39.787C239.719 39.2153 240.82 38.9295 241.984 38.9295C242.843 38.9295 243.749 39.1141 244.703 39.4833C245.255 39.6977 245.606 39.8049 245.756 39.8049C245.948 39.8049 246.113 39.7364 246.252 39.5994C246.396 39.4565 246.489 39.2332 246.531 38.9295H246.882ZM226.171 39.5369V39.2064H222.165V39.5369C222.591 39.5369 222.933 39.5875 223.191 39.6888C223.377 39.7602 223.518 39.8644 223.614 40.0014C223.71 40.1384 223.758 40.2962 223.758 40.4749C223.758 40.6297 223.725 40.8173 223.659 41.0376C223.593 41.258 223.416 41.6927 223.128 42.3419L220.716 47.7106L218.114 41.6808C217.838 41.0436 217.676 40.6535 217.628 40.5106C217.58 40.3617 217.556 40.2337 217.556 40.1265C217.556 39.9538 217.625 39.8227 217.763 39.7334C217.955 39.6024 218.315 39.5369 218.843 39.5369H219.041V39.2064H213.189V39.5369C213.664 39.5905 213.985 39.7185 214.153 39.921C214.327 40.1235 214.666 40.8054 215.17 41.9667L219.356 51.5964H219.653L223.857 42.3419C224.356 41.2401 224.731 40.5404 224.983 40.2426C225.331 39.8436 225.727 39.6084 226.171 39.5369ZM233.788 51.3195V50.989H233.383C233.041 50.989 232.768 50.9324 232.564 50.8193C232.366 50.7002 232.231 50.5632 232.159 50.4083C232.093 50.2535 232.06 49.8664 232.06 49.2471V41.2788C232.06 40.6714 232.093 40.2962 232.159 40.1533C232.249 39.9508 232.372 39.8079 232.528 39.7245C232.744 39.5994 233.029 39.5369 233.383 39.5369H233.788V39.2064H227.406V39.5369H227.811C228.153 39.5369 228.423 39.5964 228.621 39.7156C228.825 39.8287 228.96 39.9627 229.026 40.1175C229.092 40.2724 229.125 40.6595 229.125 41.2788V49.2471C229.125 49.8545 229.092 50.2297 229.026 50.3726C228.942 50.5751 228.822 50.718 228.666 50.8014C228.45 50.9265 228.165 50.989 227.811 50.989H227.406V51.3195H233.788ZM251.182 51.3304H258.312L258.991 47.7685H258.669C258.467 48.1865 258.303 48.4621 258.178 48.5954C258.053 48.7226 257.892 48.8134 257.695 48.868C257.505 48.9225 257.088 48.9497 256.444 48.9497H253.826C255.852 46.9446 257.165 45.3818 257.767 44.2611C258.207 43.4312 258.428 42.6134 258.428 41.8077C258.428 41.3655 258.285 40.893 257.999 40.3902C257.713 39.8814 257.317 39.4816 256.811 39.1908C256.304 38.9 255.744 38.7546 255.131 38.7546C254.273 38.7546 253.517 39.0333 252.861 39.5906C252.206 40.1479 251.718 41.0081 251.396 42.1712L251.727 42.2893C252.233 41.3564 252.945 40.89 253.862 40.89C254.422 40.89 254.896 41.102 255.283 41.526C255.67 41.944 255.864 42.471 255.864 43.1071C255.864 43.9794 255.628 44.8729 255.158 45.7876C254.693 46.7023 253.368 48.4833 251.182 51.1305V51.3304ZM267.854 48.6135C268.194 47.5474 268.363 46.3994 268.363 45.1697C268.363 43.8249 268.164 42.5861 267.765 41.4533C267.479 40.6295 267.029 39.9753 266.416 39.4906C265.808 39 265.153 38.7546 264.45 38.7546C263.759 38.7546 263.104 39.003 262.484 39.4997C261.865 39.9904 261.403 40.6992 261.099 41.626C260.73 42.7467 260.545 43.9764 260.545 45.3151C260.545 46.3025 260.673 47.2596 260.93 48.1865C261.126 48.871 261.356 49.4192 261.618 49.8311C261.981 50.3945 262.398 50.8276 262.868 51.1305C263.339 51.4334 263.866 51.5848 264.45 51.5848C264.962 51.5848 265.436 51.4637 265.871 51.2214C266.305 50.973 266.693 50.6398 267.032 50.2218C267.378 49.8039 267.652 49.2678 267.854 48.6135ZM265.576 41.3806C265.6 41.7381 265.612 42.995 265.612 45.1516L265.576 49.0588C265.54 49.7675 265.397 50.2915 265.147 50.6307C264.998 50.8246 264.775 50.9215 264.477 50.9215C264.203 50.9215 263.982 50.8488 263.816 50.7034C263.649 50.558 263.521 50.2703 263.431 49.8402C263.312 49.2466 263.253 48.0774 263.253 46.3328C263.253 43.1283 263.291 41.2595 263.369 40.7264C263.446 40.1873 263.595 39.8117 263.816 39.5997C263.965 39.4543 264.167 39.3816 264.423 39.3816C264.757 39.3816 264.998 39.4785 265.147 39.6724C265.373 39.9692 265.516 40.5386 265.576 41.3806Z" fill="#FFC439"/>
</g>
<defs>
<clipPath id="clip0_20757_124823">
<rect width="84" height="68" fill="white" transform="translate(0 24)"/>
</clipPath>
<clipPath id="clip1_20757_124823">
<rect width="83" height="68" fill="white" transform="translate(100)"/>
</clipPath>
<clipPath id="clip2_20757_124823">
<rect width="84" height="68" fill="white" transform="translate(199 24)"/>
</clipPath>
</defs>
</svg>
