<svg width="288" height="290" viewBox="0 0 288 290" fill="none" xmlns="http://www.w3.org/2000/svg">
<path d="M278.892 108.289L130.308 6.68292C124.215 2.51843 115.814 3.99722 111.593 9.98534L6.40488 159.317C1.06439 166.897 3.01872 177.275 10.7682 182.5L158.131 281.931C168.364 288.841 182.438 285.923 188.932 275.551L282.638 125.842C286.33 119.94 284.687 112.254 278.892 108.289Z" stroke="#FFC439" stroke-width="6.78589" stroke-miterlimit="10"/>
<path d="M267.359 94.4753L233.362 205.246L225.714 230.186L215.061 264.895C213.67 269.431 208.723 271.957 204.115 270.485L201.095 269.523L194.465 267.401L80.4217 230.989L57.7433 223.747L35.7977 216.738C29.0186 214.569 24.7774 208.309 25.0217 201.665C25.0692 200.299 25.3135 198.926 25.7546 197.56L26.6775 194.728L55.6329 106.06L65.8524 74.7669L78.5896 35.7613C80.035 31.3249 84.8937 28.8779 89.4334 30.2904L200.797 65.0188L256.692 82.446L261.72 84.0177C266.206 85.4169 268.717 90.0655 267.359 94.4753Z" fill="white" stroke="#333333" stroke-width="3.39295" stroke-miterlimit="10"/>
<path d="M264.099 84.8402C245.099 106.061 247.134 106.061 236.277 106.061H55.0938L65.2726 74.8931C76.2386 71.8295 99.9892 69.5881 124.31 69.5881C154.69 69.5881 183.625 67.0748 207.586 65.019L264.099 84.8402Z" fill="#333333"/>
<path d="M26.6792 194.728L80.4235 230.989L57.745 223.747L25.0234 201.665C25.0709 200.299 25.3152 198.926 25.7563 197.56L26.6792 194.728Z" fill="#333333"/>
<path d="M233.365 205.246L225.718 230.186L201.099 269.524L194.469 267.402L233.365 205.246Z" fill="#333333"/>
<path d="M27.8008 128.939L6.40488 159.317C1.06439 166.897 3.01872 177.275 10.7682 182.5L158.131 281.931C168.364 288.841 182.438 285.923 188.932 275.552L250.297 177.52" stroke="#FFC439" stroke-width="6.78589" stroke-miterlimit="10"/>
<path d="M52.3834 117.334C52.3834 117.334 46.3576 111.631 40.3317 106.584C34.3058 101.538 36.8913 90.6092 36.8913 61.1792C36.8913 52.7706 37.7531 53.6128 91.097 53.6128H267.584C290.704 53.6128 283.049 57.4391 262.352 78.2284C241.662 99.0177 240.834 101.412 232.216 101.412C223.598 101.412 78.387 101.412 57.1336 101.412L52.3834 117.327V117.334Z" fill="#FFC439"/>
<path d="M48.9931 106.061C48.9931 106.061 44.243 101.419 47.6359 101.419H64.1731" stroke="#333333" stroke-width="2.03577" stroke-miterlimit="10"/>
<path d="M52.0441 117.665C52.0441 117.665 46.3576 111.631 40.3317 106.584C34.3058 101.538 36.8913 90.6092 36.8913 61.1792C36.8913 52.7706 37.7531 53.6128 91.097 53.6128H267.584C290.704 53.6128 283.049 57.4391 262.352 78.2284C241.662 99.0177 240.834 101.412 232.216 101.412H56.7943L52.0441 117.659V117.665Z" stroke="#333333" stroke-width="2.71436" stroke-miterlimit="10"/>
<path d="M43.5586 62.294C46.273 59.6415 44.9158 60.3046 112.775 60.3046" stroke="white" stroke-width="2.03577" stroke-miterlimit="10"/>
<path d="M132.473 60.231H162.487" stroke="white" stroke-width="2.03577" stroke-miterlimit="10"/>
<path d="M181.336 60.231H196.278" stroke="white" stroke-width="2.03577" stroke-miterlimit="10"/>
<path d="M211.477 60.231H263.083" stroke="white" stroke-width="2.03577" stroke-miterlimit="10"/>
<path d="M36.6445 98.2021C38.1306 105.397 44.9165 108.05 47.6309 109.376C50.3452 110.702 53.8128 109.376 52.7542 106.06C51.6956 102.745 48.3095 102.081 47.6309 104.734C47.6309 104.734 44.7401 101.412 47.882 101.418C51.0238 101.425 57.1311 101.418 57.1311 101.418L52.0417 117.665C52.0417 117.665 43.1997 109.814 39.99 106.279C36.7802 102.745 36.6445 98.2021 36.6445 98.2021Z" fill="#333333"/>
<path d="M66.0391 88.5336V69.9658H74.6707C76.7336 69.9658 78.5522 70.3548 80.1266 71.1329C81.7009 71.8933 82.9314 72.9631 83.8181 74.3425C84.7048 75.7218 85.1481 77.3575 85.1481 79.2497C85.1481 81.1241 84.7048 82.7599 83.8181 84.1569C82.9314 85.5362 81.7009 86.6149 80.1266 87.393C78.5522 88.1534 76.7336 88.5336 74.6707 88.5336H66.0391ZM70.4363 85.0057H74.4536C75.7203 85.0057 76.8151 84.7758 77.7379 84.316C78.6789 83.8386 79.4027 83.1666 79.9094 82.3001C80.4342 81.4336 80.6966 80.4168 80.6966 79.2497C80.6966 78.0649 80.4342 77.0481 79.9094 76.1992C79.4027 75.3327 78.6789 74.6696 77.7379 74.2098C76.8151 73.7324 75.7203 73.4936 74.4536 73.4936H70.4363V85.0057Z" fill="#333333"/>
<path d="M88.4643 88.5336V69.9658H92.8616V88.5336H88.4643Z" fill="#333333"/>
<path d="M103.614 88.8519C102.094 88.8519 100.637 88.6574 99.2437 88.2683C97.8503 87.8616 96.7284 87.3399 95.8779 86.7033L97.3708 83.4672C98.1851 84.0331 99.1442 84.5017 100.248 84.8731C101.37 85.2267 102.501 85.4036 103.641 85.4036C104.51 85.4036 105.206 85.324 105.731 85.1648C106.274 84.988 106.672 84.7493 106.925 84.4487C107.179 84.148 107.305 83.8032 107.305 83.4142C107.305 82.919 107.106 82.53 106.708 82.247C106.31 81.9464 105.785 81.7077 105.134 81.5309C104.482 81.3363 103.759 81.1595 102.962 81.0004C102.184 80.8235 101.397 80.6113 100.601 80.3637C99.8228 80.1162 99.108 79.7979 98.4565 79.4088C97.8051 79.0198 97.2713 78.507 96.8551 77.8703C96.457 77.2337 96.2579 76.4203 96.2579 75.43C96.2579 74.369 96.5474 73.4052 97.1265 72.5387C97.7237 71.6546 98.6104 70.956 99.7866 70.4432C100.981 69.9127 102.474 69.6475 104.265 69.6475C105.46 69.6475 106.636 69.7889 107.794 70.0719C108.952 70.3371 109.974 70.7438 110.861 71.292L109.504 74.5547C108.617 74.0595 107.731 73.697 106.844 73.4671C105.957 73.2196 105.089 73.0958 104.238 73.0958C103.388 73.0958 102.691 73.193 102.148 73.3875C101.605 73.5821 101.216 73.8385 100.981 74.1568C100.746 74.4574 100.628 74.8111 100.628 75.2178C100.628 75.6953 100.827 76.0843 101.225 76.3849C101.623 76.6679 102.148 76.8977 102.8 77.0746C103.451 77.2514 104.166 77.4283 104.944 77.6051C105.74 77.7819 106.527 77.9853 107.305 78.2152C108.102 78.4451 108.825 78.7545 109.477 79.1436C110.128 79.5326 110.653 80.0454 111.051 80.682C111.467 81.3187 111.675 82.1233 111.675 83.0959C111.675 84.1392 111.377 85.0941 110.78 85.9606C110.183 86.8271 109.287 87.5256 108.093 88.0561C106.916 88.5866 105.423 88.8519 103.614 88.8519Z" fill="#333333"/>
<path d="M123.773 88.8519C122.307 88.8519 120.941 88.622 119.675 88.1622C118.426 87.6848 117.34 87.0128 116.417 86.1463C115.494 85.2798 114.771 84.263 114.246 83.0959C113.739 81.9287 113.486 80.6467 113.486 79.2497C113.486 77.8527 113.739 76.5706 114.246 75.4035C114.771 74.2364 115.494 73.2196 116.417 72.3531C117.358 71.4866 118.453 70.8234 119.702 70.3636C120.95 69.8862 122.317 69.6475 123.8 69.6475C125.447 69.6475 126.931 69.9304 128.252 70.4963C129.591 71.0445 130.713 71.8579 131.618 72.9366L128.795 75.4831C128.143 74.758 127.419 74.2187 126.623 73.865C125.827 73.4937 124.958 73.308 124.018 73.308C123.131 73.308 122.317 73.4494 121.575 73.7324C120.833 74.0153 120.19 74.422 119.647 74.9525C119.105 75.4831 118.679 76.1108 118.372 76.8359C118.082 77.5609 117.937 78.3655 117.937 79.2497C117.937 80.1339 118.082 80.9385 118.372 81.6635C118.679 82.3885 119.105 83.0163 119.647 83.5468C120.19 84.0773 120.833 84.484 121.575 84.767C122.317 85.0499 123.131 85.1914 124.018 85.1914C124.958 85.1914 125.827 85.0145 126.623 84.6609C127.419 84.2895 128.143 83.7325 128.795 82.9898L131.618 85.5362C130.713 86.6149 129.591 87.4372 128.252 88.0031C126.931 88.5689 125.438 88.8519 123.773 88.8519Z" fill="#333333"/>
<path d="M143.418 88.8519C141.916 88.8519 140.523 88.6132 139.238 88.1357C137.972 87.6582 136.868 86.9863 135.927 86.1198C135.004 85.2533 134.28 84.2365 133.755 83.0693C133.249 81.9022 132.995 80.629 132.995 79.2497C132.995 77.8703 133.249 76.5971 133.755 75.43C134.28 74.2629 135.013 73.2461 135.954 72.3796C136.895 71.5131 137.999 70.8411 139.265 70.3636C140.532 69.8862 141.907 69.6475 143.391 69.6475C144.893 69.6475 146.268 69.8862 147.517 70.3636C148.784 70.8411 149.879 71.5131 150.801 72.3796C151.742 73.2461 152.475 74.2629 153 75.43C153.525 76.5794 153.787 77.8527 153.787 79.2497C153.787 80.629 153.525 81.9111 153 83.0959C152.475 84.263 151.742 85.2798 150.801 86.1463C149.879 86.9951 148.784 87.6582 147.517 88.1357C146.268 88.6132 144.902 88.8519 143.418 88.8519ZM143.391 85.1914C144.242 85.1914 145.02 85.0499 145.726 84.767C146.449 84.484 147.083 84.0773 147.626 83.5468C148.168 83.0163 148.585 82.3885 148.874 81.6635C149.182 80.9385 149.336 80.1339 149.336 79.2497C149.336 78.3655 149.182 77.5609 148.874 76.8359C148.585 76.1108 148.168 75.4831 147.626 74.9525C147.101 74.422 146.477 74.0153 145.753 73.7324C145.029 73.4494 144.242 73.308 143.391 73.308C142.541 73.308 141.754 73.4494 141.03 73.7324C140.324 74.0153 139.7 74.422 139.157 74.9525C138.614 75.4831 138.189 76.1108 137.881 76.8359C137.592 77.5609 137.447 78.3655 137.447 79.2497C137.447 80.1162 137.592 80.9208 137.881 81.6635C138.189 82.3885 138.605 83.0163 139.13 83.5468C139.673 84.0773 140.306 84.484 141.03 84.767C141.754 85.0499 142.541 85.1914 143.391 85.1914Z" fill="#333333"/>
<path d="M165.534 88.8519C162.837 88.8519 160.729 88.118 159.209 86.6503C157.689 85.1825 156.929 83.087 156.929 80.3637V69.9658H161.326V80.2046C161.326 81.973 161.697 83.2462 162.439 84.0243C163.181 84.8023 164.222 85.1914 165.561 85.1914C166.9 85.1914 167.94 84.8023 168.682 84.0243C169.424 83.2462 169.795 81.973 169.795 80.2046V69.9658H174.138V80.3637C174.138 83.087 173.378 85.1825 171.858 86.6503C170.338 88.118 168.23 88.8519 165.534 88.8519Z" fill="#333333"/>
<path d="M178.483 88.5336V69.9658H182.121L193.331 83.3346H191.567V69.9658H195.91V88.5336H192.299L181.062 75.1648H182.826V88.5336H178.483Z" fill="#333333"/>
<path d="M204.341 88.5336V73.4671H198.261V69.9658H214.818V73.4671H208.738V88.5336H204.341Z" fill="#333333"/>
<path d="M84.2545 192.647V145.232L88.5092 149.536H73.207V141.585H93.9583V192.647H84.2545Z" fill="#333333"/>
<path d="M126.12 193.376C121.989 193.376 118.257 192.355 114.923 190.312C111.639 188.27 109.051 185.304 107.16 181.413C105.269 177.474 104.323 172.708 104.323 167.116C104.323 161.523 105.269 156.782 107.16 152.892C109.051 148.953 111.639 145.962 114.923 143.919C118.257 141.877 121.989 140.856 126.12 140.856C130.3 140.856 134.032 141.877 137.316 143.919C140.601 145.962 143.188 148.953 145.079 152.892C147.02 156.782 147.991 161.523 147.991 167.116C147.991 172.708 147.02 177.474 145.079 181.413C143.188 185.304 140.601 188.27 137.316 190.312C134.032 192.355 130.3 193.376 126.12 193.376ZM126.12 185.133C128.558 185.133 130.673 184.501 132.465 183.237C134.256 181.924 135.649 179.93 136.645 177.255C137.69 174.581 138.212 171.201 138.212 167.116C138.212 162.982 137.69 159.603 136.645 156.977C135.649 154.302 134.256 152.332 132.465 151.068C130.673 149.755 128.558 149.098 126.12 149.098C123.781 149.098 121.691 149.755 119.85 151.068C118.058 152.332 116.64 154.302 115.595 156.977C114.6 159.603 114.102 162.982 114.102 167.116C114.102 171.201 114.6 174.581 115.595 177.255C116.64 179.93 118.058 181.924 119.85 183.237C121.691 184.501 123.781 185.133 126.12 185.133Z" fill="#333333"/>
<path d="M161.863 192.647L197.544 141.585H204.859L169.179 192.647H161.863ZM166.193 169.085C163.754 169.085 161.59 168.502 159.699 167.335C157.808 166.168 156.34 164.539 155.295 162.447C154.25 160.356 153.727 157.901 153.727 155.08C153.727 152.259 154.25 149.804 155.295 147.713C156.34 145.621 157.808 143.992 159.699 142.825C161.59 141.658 163.754 141.075 166.193 141.075C168.731 141.075 170.92 141.658 172.762 142.825C174.653 143.992 176.121 145.621 177.166 147.713C178.211 149.804 178.733 152.259 178.733 155.08C178.733 157.901 178.211 160.356 177.166 162.447C176.121 164.539 174.653 166.168 172.762 167.335C170.92 168.502 168.731 169.085 166.193 169.085ZM166.268 163.979C168.258 163.979 169.801 163.226 170.896 161.718C172.04 160.162 172.612 157.949 172.612 155.08C172.612 152.211 172.04 150.022 170.896 148.515C169.801 146.959 168.258 146.181 166.268 146.181C164.277 146.181 162.685 146.959 161.49 148.515C160.346 150.071 159.773 152.259 159.773 155.08C159.773 157.901 160.346 160.089 161.49 161.645C162.685 163.201 164.277 163.979 166.268 163.979ZM200.455 193.157C198.016 193.157 195.852 192.574 193.961 191.407C192.07 190.239 190.602 188.61 189.557 186.519C188.512 184.428 187.989 181.972 187.989 179.152C187.989 176.331 188.512 173.875 189.557 171.784C190.602 169.693 192.07 168.064 193.961 166.897C195.852 165.73 198.016 165.146 200.455 165.146C202.993 165.146 205.182 165.73 207.024 166.897C208.915 168.064 210.383 169.693 211.428 171.784C212.473 173.875 212.995 176.331 212.995 179.152C212.995 181.972 212.473 184.428 211.428 186.519C210.383 188.61 208.915 190.239 207.024 191.407C205.182 192.574 202.993 193.157 200.455 193.157ZM200.455 188.051C202.445 188.051 204.013 187.273 205.157 185.717C206.302 184.161 206.874 181.972 206.874 179.152C206.874 176.331 206.302 174.143 205.157 172.587C204.013 171.031 202.445 170.253 200.455 170.253C198.514 170.253 196.947 171.031 195.752 172.587C194.608 174.094 194.035 176.283 194.035 179.152C194.035 182.021 194.608 184.234 195.752 185.79C196.947 187.297 198.514 188.051 200.455 188.051Z" fill="#333333"/>
</svg>
