<svg width="288" height="288" viewBox="0 0 288 288" fill="none" xmlns="http://www.w3.org/2000/svg">
<g clip-path="url(#clip0_13977_204048)">
<path d="M278.892 107.289L130.308 5.68292C124.215 1.51843 115.814 2.99722 111.593 8.98534L6.40488 158.317C1.06439 165.897 3.01873 176.275 10.7682 181.5L158.131 280.931C168.364 287.841 182.438 284.923 188.932 274.551L282.638 124.842C286.33 118.94 284.687 111.254 278.892 107.289Z" stroke="#FFC439" stroke-width="6.78589" stroke-miterlimit="10"/>
<path d="M267.363 93.4753L233.366 204.246L225.718 229.186L215.065 263.895C213.673 268.431 208.726 270.957 204.119 269.485L201.099 268.523L194.469 266.401L80.4257 229.989L57.7472 222.747L35.8016 215.738C29.0225 213.569 24.7814 207.309 25.0256 200.665C25.0731 199.299 25.3174 197.926 25.7585 196.56L26.6814 193.728L55.6368 105.06L65.8563 73.7669L78.5935 34.7613C80.0389 30.3249 84.8976 27.8779 89.4373 29.2904L200.801 64.0188L256.696 81.446L261.724 83.0177C266.21 84.4169 268.721 89.0655 267.363 93.4753Z" fill="white" stroke="#333333" stroke-width="3.39295" stroke-miterlimit="10"/>
<path d="M264.099 83.8397C245.099 105.06 247.134 105.06 236.277 105.06H55.0938L65.2726 73.8927C76.2386 70.829 99.9892 68.5876 124.31 68.5876C154.69 68.5876 183.625 66.0743 207.586 64.0186L264.099 83.8397Z" fill="#333333"/>
<path d="M26.6792 193.728L80.4235 229.988L57.745 222.747L25.0234 200.664C25.0709 199.298 25.3152 197.926 25.7563 196.56L26.6792 193.728Z" fill="#333333"/>
<path d="M233.365 204.246L225.718 229.186L201.099 268.524L194.469 266.402L233.365 204.246Z" fill="#333333"/>
<path d="M27.8008 127.938L6.40488 158.317C1.06439 165.896 3.01872 176.274 10.7682 181.5L158.131 280.931C168.364 287.841 182.438 284.923 188.932 274.551L250.297 176.52" stroke="#FFC439" stroke-width="6.78589" stroke-miterlimit="10"/>
<path d="M52.3834 116.334C52.3834 116.334 46.3576 110.631 40.3317 105.585C34.3058 100.538 36.8913 89.6097 36.8913 60.1797C36.8913 51.7711 37.7531 52.6133 91.097 52.6133H267.584C290.704 52.6133 283.049 56.4396 262.352 77.2289C241.662 98.0182 240.834 100.412 232.216 100.412C223.598 100.412 78.387 100.412 57.1336 100.412L52.3834 116.327V116.334Z" fill="#FFC439"/>
<path d="M48.9931 105.061C48.9931 105.061 44.243 100.419 47.6359 100.419H64.1731" stroke="#333333" stroke-width="2.03577" stroke-miterlimit="10"/>
<path d="M52.0441 116.666C52.0441 116.666 46.3576 110.631 40.3317 105.585C34.3058 100.538 36.8913 89.6097 36.8913 60.1797C36.8913 51.7711 37.7531 52.6133 91.097 52.6133H267.584C290.704 52.6133 283.049 56.4396 262.352 77.2289C241.662 98.0182 240.834 100.412 232.216 100.412H56.7943L52.0441 116.659V116.666Z" stroke="#333333" stroke-width="2.71436" stroke-miterlimit="10"/>
<path d="M43.5625 61.2943C46.2769 58.6417 44.9197 59.3049 112.779 59.3049" stroke="white" stroke-width="2.03577" stroke-miterlimit="10"/>
<path d="M132.477 59.2319H162.491" stroke="white" stroke-width="2.03577" stroke-miterlimit="10"/>
<path d="M181.336 59.2319H196.278" stroke="white" stroke-width="2.03577" stroke-miterlimit="10"/>
<path d="M211.477 59.2319H263.083" stroke="white" stroke-width="2.03577" stroke-miterlimit="10"/>
<path d="M36.6484 97.2026C38.1345 104.398 44.9204 107.05 47.6348 108.376C50.3492 109.703 53.8167 108.376 52.7581 105.061C51.6995 101.745 48.3134 101.082 47.6348 103.735C47.6348 103.735 44.744 100.412 47.8859 100.419C51.0277 100.425 57.135 100.419 57.135 100.419L52.0456 116.666C52.0456 116.666 43.2036 108.814 39.9939 105.28C36.7842 101.745 36.6484 97.2026 36.6484 97.2026Z" fill="#333333"/>
<path d="M66.0352 87.5341V68.9663H74.6668C76.7297 68.9663 78.5483 69.3553 80.1227 70.1334C81.697 70.8938 82.9275 71.9636 83.8142 73.343C84.7009 74.7223 85.1442 76.358 85.1442 78.2502C85.1442 80.1246 84.7009 81.7604 83.8142 83.1574C82.9275 84.5367 81.697 85.6154 80.1227 86.3935C78.5483 87.1539 76.7297 87.5341 74.6668 87.5341H66.0352ZM70.4324 84.0062H74.4497C75.7164 84.0062 76.8112 83.7763 77.734 83.3165C78.675 82.8391 79.3988 82.1671 79.9055 81.3006C80.4303 80.4341 80.6927 79.4173 80.6927 78.2502C80.6927 77.0654 80.4303 76.0485 79.9055 75.1997C79.3988 74.3332 78.675 73.6701 77.734 73.2103C76.8112 72.7329 75.7164 72.4941 74.4497 72.4941H70.4324V84.0062Z" fill="#333333"/>
<path d="M88.4604 87.5341V68.9663H92.8577V87.5341H88.4604Z" fill="#333333"/>
<path d="M103.61 87.8524C102.09 87.8524 100.633 87.6579 99.2398 87.2688C97.8464 86.8621 96.7245 86.3404 95.874 85.7038L97.3669 82.4677C98.1812 83.0336 99.1403 83.5022 100.244 83.8736C101.366 84.2272 102.497 84.4041 103.637 84.4041C104.506 84.4041 105.202 84.3245 105.727 84.1653C106.27 83.9885 106.668 83.7498 106.921 83.4491C107.175 83.1485 107.301 82.8037 107.301 82.4147C107.301 81.9195 107.102 81.5305 106.704 81.2475C106.306 80.9469 105.781 80.7082 105.13 80.5314C104.479 80.3368 103.755 80.16 102.958 80.0008C102.18 79.824 101.393 79.6118 100.597 79.3642C99.8189 79.1167 99.1041 78.7984 98.4526 78.4093C97.8012 78.0203 97.2674 77.5074 96.8512 76.8708C96.4531 76.2342 96.254 75.4208 96.254 74.4305C96.254 73.3695 96.5435 72.4057 97.1226 71.5392C97.7198 70.655 98.6064 69.9565 99.7827 69.4437C100.977 68.9132 102.47 68.6479 104.261 68.6479C105.456 68.6479 106.632 68.7894 107.79 69.0724C108.948 69.3376 109.971 69.7443 110.857 70.2925L109.5 73.5552C108.613 73.06 107.727 72.6975 106.84 72.4676C105.953 72.22 105.085 72.0963 104.234 72.0963C103.384 72.0963 102.687 72.1935 102.144 72.388C101.601 72.5826 101.212 72.839 100.977 73.1573C100.742 73.4579 100.624 73.8116 100.624 74.2183C100.624 74.6958 100.823 75.0848 101.221 75.3854C101.619 75.6684 102.144 75.8982 102.796 76.0751C103.447 76.2519 104.162 76.4287 104.94 76.6056C105.736 76.7824 106.523 76.9858 107.301 77.2157C108.098 77.4456 108.821 77.755 109.473 78.1441C110.124 78.5331 110.649 79.0459 111.047 79.6825C111.463 80.3191 111.672 81.1238 111.672 82.0964C111.672 83.1397 111.373 84.0946 110.776 84.9611C110.179 85.8276 109.283 86.5261 108.089 87.0566C106.912 87.5871 105.419 87.8524 103.61 87.8524Z" fill="#333333"/>
<path d="M123.769 87.8524C122.304 87.8524 120.937 87.6225 119.671 87.1627C118.422 86.6853 117.336 86.0133 116.413 85.1468C115.491 84.2803 114.767 83.2635 114.242 82.0964C113.735 80.9292 113.482 79.6472 113.482 78.2502C113.482 76.8532 113.735 75.5711 114.242 74.404C114.767 73.2369 115.491 72.22 116.413 71.3535C117.354 70.487 118.449 69.8239 119.698 69.3641C120.946 68.8867 122.313 68.6479 123.796 68.6479C125.443 68.6479 126.927 68.9309 128.248 69.4968C129.587 70.045 130.709 70.8584 131.614 71.9371L128.791 74.4835C128.139 73.7585 127.416 73.2192 126.619 72.8655C125.823 72.4941 124.955 72.3085 124.014 72.3085C123.127 72.3085 122.313 72.4499 121.571 72.7329C120.829 73.0158 120.186 73.4225 119.643 73.953C119.101 74.4835 118.675 75.1113 118.368 75.8363C118.078 76.5614 117.933 77.366 117.933 78.2502C117.933 79.1343 118.078 79.9389 118.368 80.664C118.675 81.389 119.101 82.0168 119.643 82.5473C120.186 83.0778 120.829 83.4845 121.571 83.7675C122.313 84.0504 123.127 84.1919 124.014 84.1919C124.955 84.1919 125.823 84.015 126.619 83.6614C127.416 83.29 128.139 82.733 128.791 81.9902L131.614 84.5367C130.709 85.6154 129.587 86.4377 128.248 87.0036C126.927 87.5694 125.434 87.8524 123.769 87.8524Z" fill="#333333"/>
<path d="M143.414 87.8524C141.913 87.8524 140.519 87.6136 139.234 87.1362C137.968 86.6587 136.864 85.9867 135.923 85.1203C135 84.2538 134.276 83.2369 133.751 82.0698C133.245 80.9027 132.991 79.6295 132.991 78.2502C132.991 76.8708 133.245 75.5976 133.751 74.4305C134.276 73.2634 135.009 72.2466 135.95 71.3801C136.891 70.5136 137.995 69.8416 139.261 69.3641C140.528 68.8867 141.903 68.6479 143.387 68.6479C144.889 68.6479 146.265 68.8867 147.513 69.3641C148.78 69.8416 149.875 70.5136 150.798 71.3801C151.738 72.2466 152.471 73.2634 152.996 74.4305C153.521 75.5799 153.783 76.8532 153.783 78.2502C153.783 79.6295 153.521 80.9115 152.996 82.0964C152.471 83.2635 151.738 84.2803 150.798 85.1468C149.875 85.9956 148.78 86.6587 147.513 87.1362C146.265 87.6136 144.898 87.8524 143.414 87.8524ZM143.387 84.1919C144.238 84.1919 145.016 84.0504 145.722 83.7675C146.445 83.4845 147.079 83.0778 147.622 82.5473C148.165 82.0168 148.581 81.389 148.87 80.664C149.178 79.9389 149.332 79.1343 149.332 78.2502C149.332 77.366 149.178 76.5614 148.87 75.8363C148.581 75.1113 148.165 74.4835 147.622 73.953C147.097 73.4225 146.473 73.0158 145.749 72.7329C145.025 72.4499 144.238 72.3085 143.387 72.3085C142.537 72.3085 141.75 72.4499 141.026 72.7329C140.32 73.0158 139.696 73.4225 139.153 73.953C138.61 74.4835 138.185 75.1113 137.877 75.8363C137.588 76.5614 137.443 77.366 137.443 78.2502C137.443 79.1167 137.588 79.9213 137.877 80.664C138.185 81.389 138.601 82.0168 139.126 82.5473C139.669 83.0778 140.302 83.4845 141.026 83.7675C141.75 84.0504 142.537 84.1919 143.387 84.1919Z" fill="#333333"/>
<path d="M165.53 87.8524C162.833 87.8524 160.725 87.1185 159.205 85.6508C157.685 84.183 156.925 82.0875 156.925 79.3642V68.9663H161.322V79.2051C161.322 80.9734 161.693 82.2467 162.435 83.0247C163.177 83.8028 164.218 84.1919 165.557 84.1919C166.896 84.1919 167.936 83.8028 168.678 83.0247C169.42 82.2467 169.791 80.9734 169.791 79.2051V68.9663H174.134V79.3642C174.134 82.0875 173.374 84.183 171.854 85.6508C170.334 87.1185 168.226 87.8524 165.53 87.8524Z" fill="#333333"/>
<path d="M178.479 87.5341V68.9663H182.117L193.327 82.3351H191.563V68.9663H195.906V87.5341H192.296L181.058 74.1652H182.822V87.5341H178.479Z" fill="#333333"/>
<path d="M204.337 87.5341V72.4676H198.257V68.9663H214.814V72.4676H208.734V87.5341H204.337Z" fill="#333333"/>
<path d="M167.961 191.647L203.641 140.585H210.956L175.276 191.647H167.961ZM172.29 168.086C169.852 168.086 167.687 167.502 165.796 166.335C163.905 165.168 162.437 163.539 161.392 161.448C160.347 159.356 159.824 156.901 159.824 154.08C159.824 151.26 160.347 148.804 161.392 146.713C162.437 144.622 163.905 142.993 165.796 141.825C167.687 140.658 169.852 140.075 172.29 140.075C174.828 140.075 177.017 140.658 178.859 141.825C180.75 142.993 182.218 144.622 183.263 146.713C184.308 148.804 184.83 151.26 184.83 154.08C184.83 156.901 184.308 159.356 183.263 161.448C182.218 163.539 180.75 165.168 178.859 166.335C177.017 167.502 174.828 168.086 172.29 168.086ZM172.365 162.979C174.355 162.979 175.898 162.226 176.993 160.718C178.137 159.162 178.709 156.949 178.709 154.08C178.709 151.211 178.137 149.023 176.993 147.515C175.898 145.959 174.355 145.181 172.365 145.181C170.374 145.181 168.782 145.959 167.587 147.515C166.443 149.071 165.87 151.26 165.87 154.08C165.87 156.901 166.443 159.089 167.587 160.645C168.782 162.201 170.374 162.979 172.365 162.979ZM206.552 192.157C204.113 192.157 201.949 191.574 200.058 190.407C198.167 189.24 196.699 187.611 195.654 185.519C194.609 183.428 194.086 180.973 194.086 178.152C194.086 175.331 194.609 172.876 195.654 170.785C196.699 168.693 198.167 167.064 200.058 165.897C201.949 164.73 204.113 164.147 206.552 164.147C209.09 164.147 211.279 164.73 213.121 165.897C215.012 167.064 216.48 168.693 217.525 170.785C218.57 172.876 219.092 175.331 219.092 178.152C219.092 180.973 218.57 183.428 217.525 185.519C216.48 187.611 215.012 189.24 213.121 190.407C211.279 191.574 209.09 192.157 206.552 192.157ZM206.552 187.051C208.542 187.051 210.11 186.273 211.254 184.717C212.399 183.161 212.971 180.973 212.971 178.152C212.971 175.331 212.399 173.143 211.254 171.587C210.11 170.031 208.542 169.253 206.552 169.253C204.611 169.253 203.044 170.031 201.849 171.587C200.705 173.094 200.132 175.283 200.132 178.152C200.132 181.021 200.705 183.234 201.849 184.79C203.044 186.298 204.611 187.051 206.552 187.051Z" fill="#333333"/>
<path d="M85.0643 183H109.953V191.25H71.0363V184.725L92.0029 164.925C97.1314 160.05 98.0365 156.975 98.0365 154.05C98.0365 149.25 94.718 146.475 88.2319 146.475C83.1034 146.475 78.8045 148.2 75.8632 151.95L69 146.7C73.0726 141.225 80.3883 138 89.0616 138C100.525 138 107.916 143.775 107.916 153.075C107.916 158.175 106.483 162.825 99.1678 169.65L85.0643 183Z" fill="#333333"/>
<path d="M132.128 159.075C147.74 159.075 154 165.825 154 175.125C154 184.35 147.288 192 133.109 192C125.642 192 118.1 189.75 113.274 185.925L117.422 178.35C121.268 181.5 127 183.525 132.958 183.525C139.972 183.525 144.12 180.45 144.12 175.5C144.12 170.475 140.877 167.325 129.941 167.325H117.195L119.91 138.75H150.908V146.925H128.207L127.075 159.075H132.128Z" fill="#333333"/>
</g>
<defs>
<clipPath id="clip0_13977_204048">
<rect width="288" height="288" fill="white"/>
</clipPath>
</defs>
</svg>
