<svg width="91" height="23" viewBox="0 0 91 23" fill="none" xmlns="http://www.w3.org/2000/svg">
<g clip-path="url(#clip0_9522_109547)">
<path d="M7.97235 8.34473L3.66211 13.3982C3.81314 13.5499 4.89941 14.3961 7.9433 14.5185C10.993 14.6383 12.5643 13.6111 12.3697 13.502L7.97235 8.34473Z" fill="#B614DD"/>
<path d="M15.5418 3.55791C13.4855 1.26403 10.8192 0 8.04248 0C5.26581 0 2.5995 1.26403 0.540232 3.55791C0.351441 3.76814 0.174268 3.98635 0 4.20722C0.278829 4.28173 0.566372 4.32431 0.845201 4.32431C2.18416 4.32431 3.26753 3.46211 3.26753 2.39766C3.26753 2.2992 3.25882 2.2034 3.24139 2.11026C3.29077 2.10228 3.34305 2.0943 3.39242 2.08897C3.86004 2.65579 4.66458 3.03101 5.57949 3.03101C6.65705 3.03101 7.58067 2.51209 7.98149 1.77496C8.00472 1.77496 8.02796 1.77496 8.0512 1.77496C8.06862 1.77496 8.08605 1.77496 8.10348 1.77496C8.50429 2.51475 9.42791 3.03367 10.5055 3.03367C11.4233 3.03367 12.2278 2.65845 12.6954 2.08897C12.7419 2.0943 12.7884 2.10228 12.8349 2.1076C12.8232 2.18211 12.8174 2.25928 12.8174 2.33646C12.8174 3.4009 13.9008 4.2631 15.2398 4.2631C15.4895 4.2631 15.7655 4.23649 16.0501 4.1673C15.8846 3.95974 15.719 3.75483 15.5418 3.55791Z" fill="black"/>
<path d="M15.56 19.4428C15.7023 19.2858 15.8388 19.1235 15.9724 18.9585C15.6849 18.8866 15.4002 18.86 15.1504 18.86C13.8115 18.86 12.7281 19.7196 12.7281 20.7814C12.7281 20.8585 12.7339 20.9357 12.7455 21.0102C12.6991 21.0155 12.6526 21.0235 12.6061 21.0288C12.1385 20.462 11.334 20.0868 10.4161 20.0868C9.33858 20.0868 8.41496 20.6031 8.01414 21.3402C7.99672 21.3402 7.97929 21.3402 7.96186 21.3402C7.93863 21.3402 7.91539 21.3402 7.89215 21.3402C7.49134 20.6031 6.56772 20.0868 5.49016 20.0868C4.57525 20.0868 3.77071 20.4594 3.30309 21.0262C3.25371 21.0182 3.20143 21.0129 3.15206 21.0049C3.16948 20.9118 3.1782 20.816 3.1782 20.7202C3.1782 19.6584 2.09483 18.7988 0.755869 18.7988C0.532224 18.7988 0.305676 18.8254 0.0820312 18.876C0.235968 19.0703 0.39281 19.2592 0.558365 19.4428C2.61763 21.7367 5.28103 23.0007 8.06061 23.0007C10.8402 23.0007 13.5036 21.7367 15.5629 19.4428H15.56Z" fill="black"/>
<path d="M25.0801 16.6999L21.2026 7.57764H22.8611L26.0444 15.3747L29.2277 7.57764H30.8861L27.0087 16.6999H25.0801Z" fill="black"/>
<path d="M31.1975 12.1393C31.1975 9.22276 32.8966 7.3999 35.9637 7.3999C39.0309 7.3999 40.7503 9.2201 40.7503 12.1393C40.7503 15.0586 39.0512 16.8788 35.9637 16.8788C32.8763 16.8788 31.1975 15.0746 31.1975 12.1393ZM39.147 12.1393C39.147 9.75233 37.9882 8.53354 35.9637 8.53354C33.9393 8.53354 32.7979 9.75233 32.7979 12.1393C32.7979 14.5264 33.9568 15.7452 35.9637 15.7452C37.9707 15.7452 39.147 14.5264 39.147 12.1393Z" fill="black"/>
<path d="M42.217 4.9437C42.217 4.48332 42.5656 4.12939 43.2017 4.12939C43.8377 4.12939 44.2066 4.48332 44.2066 4.9437C44.2066 5.40407 43.8406 5.758 43.2017 5.758C42.5627 5.758 42.217 5.40407 42.217 4.9437ZM42.4087 16.7005V7.5782H44.0091V16.7005H42.4087Z" fill="black"/>
<path d="M45.6702 12.1393C45.6702 9.22276 47.3693 7.3999 50.3202 7.3999C53.2712 7.3999 54.6624 9.2201 54.6624 10.8301H53.216C53.0243 9.62725 52.2139 8.53088 50.3231 8.53088C48.4323 8.53088 47.2734 9.74967 47.2734 12.1367C47.2734 14.5237 48.4323 15.7425 50.3231 15.7425C51.9816 15.7425 52.9865 14.9122 53.216 13.3741H54.6624C54.6624 15.1597 53.2537 16.8735 50.3202 16.8735C47.3867 16.8735 45.6702 15.0692 45.6702 12.134V12.1393Z" fill="black"/>
<path d="M55.7429 12.1393C55.7429 9.32921 57.3259 7.3999 60.393 7.3999C63.4601 7.3999 65.0634 9.37977 65.0634 11.9265C65.0634 12.0675 65.0634 12.2272 65.0256 12.3682H57.3462C57.3839 14.843 58.659 15.8516 60.5121 15.8516C62.1124 15.8516 63.0796 15.0746 63.4252 13.925H64.8542C64.3924 15.7452 63.0215 16.8788 60.5121 16.8788C57.4449 16.8788 55.7458 15.0746 55.7458 12.1393H55.7429ZM57.3433 11.3783H63.4601C63.2481 9.3984 62.1095 8.42709 60.393 8.42709C58.6764 8.42709 57.5553 9.3984 57.3433 11.3783Z" fill="black"/>
<path d="M66.0847 14.12C66.0847 12.6883 66.9532 11.4855 69.5585 11.2912L71.8152 11.1156C72.3932 11.0624 72.5675 10.8495 72.5675 10.586C72.5675 9.9846 72.1434 9.66793 71.4086 9.66793C70.6738 9.66793 70.2701 9.98726 70.1742 10.586H66.6249C66.6249 8.65937 67.9959 7.40332 71.3709 7.40332C74.7459 7.40332 76.1168 8.65937 76.1168 10.586V14.3701C76.1168 15.6075 76.2329 16.4032 76.4246 16.7039H73.1832C72.9131 16.4218 72.7592 16.0679 72.7592 15.6421C72.1812 16.4564 71.3709 16.8795 69.7502 16.8795C67.3394 16.8795 66.0847 15.8018 66.0847 14.1226V14.12ZM72.5675 13.1487V12.8293C72.4717 12.9012 72.1812 12.9544 71.7949 12.989L70.848 13.0608C69.9593 13.1141 69.6311 13.4334 69.6311 13.8751C69.6311 14.4233 69.997 14.724 70.8074 14.724C71.8878 14.724 72.5646 14.0162 72.5646 13.1513L72.5675 13.1487Z" fill="black"/>
<path d="M77.6624 16.7008V7.57854H81.0199V9.45196C81.5224 7.86062 82.3502 7.4375 83.6049 7.4375C83.875 7.4375 84.3775 7.50935 84.5314 7.57854V10.4073H83.451C82.1004 10.4073 81.2116 11.2216 81.2116 12.6347V16.7008H77.6624Z" fill="black"/>
<path d="M90.9995 9.84167V7.57972H89.1291V6.00701C88.6585 6.172 88.0718 6.27046 87.4329 6.27046C86.7213 6.27046 86.0707 6.14805 85.5769 5.9458V13.6417C85.5769 16.0288 86.3872 16.8058 89.0507 16.8058C89.5706 16.8058 90.5377 16.734 90.9995 16.6994V14.5412H89.9772C89.3992 14.5412 89.1291 14.2937 89.1291 13.7642V9.83901H90.9995V9.84167Z" fill="black"/>
<path d="M87.3286 2.30713L86.283 3.85856C86.3207 3.9038 86.585 4.16459 87.3228 4.20184C88.0605 4.2391 88.4439 3.92242 88.3974 3.89049L87.3286 2.30713Z" fill="#B614DD"/>
</g>
<defs>
<clipPath id="clip0_9522_109547">
<rect width="91" height="23" fill="white"/>
</clipPath>
</defs>
</svg>
