<svg width="96" height="25" viewBox="0 0 96 25" fill="none" xmlns="http://www.w3.org/2000/svg">
<g clip-path="url(#clip0_22444_186358)">
<path d="M8.41034 9.07031L3.86328 14.5632C4.02261 14.7281 5.16857 15.6479 8.3797 15.7809C11.597 15.9111 13.2546 14.7946 13.0493 14.676L8.41034 9.07031Z" fill="#B614DD"/>
<path d="M16.3958 3.86729C14.2264 1.37394 11.4136 0 8.48438 0C5.55514 0 2.74233 1.37394 0.569915 3.86729C0.370751 4.0958 0.183843 4.33299 0 4.57306C0.29415 4.65406 0.597491 4.70034 0.891641 4.70034C2.30417 4.70034 3.44707 3.76316 3.44707 2.60616C3.44707 2.49913 3.43787 2.395 3.41949 2.29376C3.47158 2.28509 3.52673 2.27641 3.57882 2.27062C4.07213 2.88673 4.92088 3.29457 5.88606 3.29457C7.02282 3.29457 7.99719 2.73053 8.42003 1.92931C8.44454 1.92931 8.46906 1.92931 8.49357 1.92931C8.51195 1.92931 8.53034 1.92931 8.54872 1.92931C8.97156 2.73343 9.94593 3.29747 11.0827 3.29747C12.0509 3.29747 12.8997 2.88962 13.393 2.27062C13.442 2.27641 13.491 2.28509 13.5401 2.29087C13.5278 2.37186 13.5217 2.45574 13.5217 2.53963C13.5217 3.69663 14.6646 4.63381 16.0771 4.63381C16.3406 4.63381 16.6317 4.60488 16.932 4.52968C16.7573 4.30406 16.5827 4.08134 16.3958 3.86729Z" fill="white"/>
<path d="M16.4143 21.1336C16.5644 20.9629 16.7085 20.7865 16.8494 20.6071C16.5461 20.529 16.2458 20.5001 15.9823 20.5001C14.5697 20.5001 13.4268 21.4344 13.4268 22.5885C13.4268 22.6724 13.433 22.7563 13.4452 22.8373C13.3962 22.8431 13.3472 22.8517 13.2982 22.8575C12.8048 22.2414 11.9561 21.8336 10.9879 21.8336C9.85109 21.8336 8.87672 22.3947 8.45388 23.1959C8.4355 23.1959 8.41711 23.1959 8.39873 23.1959C8.37421 23.1959 8.3497 23.1959 8.32519 23.1959C7.90235 22.3947 6.92798 21.8336 5.79121 21.8336C4.82603 21.8336 3.97729 22.2385 3.48398 22.8546C3.43189 22.846 3.37674 22.8402 3.32465 22.8315C3.34303 22.7303 3.35222 22.6261 3.35222 22.522C3.35222 21.3679 2.20933 20.4336 0.796799 20.4336C0.560866 20.4336 0.32187 20.4625 0.0859375 20.5175C0.248333 20.7286 0.413792 20.934 0.588443 21.1336C2.76086 23.6269 5.5706 25.0009 8.5029 25.0009C11.4352 25.0009 14.2449 23.6269 16.4174 21.1336H16.4143Z" fill="white"/>
<path d="M26.4577 18.1519L22.3672 8.23633H24.1168L27.475 16.7114L30.8332 8.23633H32.5828L28.4922 18.1519H26.4577Z" fill="white"/>
<path d="M32.9102 13.1945C32.9102 10.0243 34.7026 8.04297 37.9383 8.04297C41.1739 8.04297 42.9878 10.0214 42.9878 13.1945C42.9878 16.3676 41.1954 18.3461 37.9383 18.3461C34.6812 18.3461 32.9102 16.385 32.9102 13.1945ZM41.2965 13.1945C41.2965 10.6 40.0739 9.27518 37.9383 9.27518C35.8026 9.27518 34.5985 10.6 34.5985 13.1945C34.5985 15.7891 35.821 17.1139 37.9383 17.1139C40.0555 17.1139 41.2965 15.7891 41.2965 13.1945Z" fill="white"/>
<path d="M44.5352 5.37339C44.5352 4.87299 44.9028 4.48828 45.5739 4.48828C46.2449 4.48828 46.634 4.87299 46.634 5.37339C46.634 5.8738 46.248 6.2585 45.5739 6.2585C44.8998 6.2585 44.5352 5.8738 44.5352 5.37339ZM44.7374 18.1525V8.23698H46.4257V18.1525H44.7374Z" fill="white"/>
<path d="M48.1797 13.1945C48.1797 10.0243 49.9722 8.04297 53.0852 8.04297C56.1983 8.04297 57.666 10.0214 57.666 11.7714H56.1401C55.9379 10.464 55.083 9.27229 53.0883 9.27229C51.0936 9.27229 49.871 10.5971 49.871 13.1916C49.871 15.7862 51.0936 17.111 53.0883 17.111C54.8379 17.111 55.898 16.2085 56.1401 14.5367H57.666C57.666 16.4775 56.1799 18.3403 53.0852 18.3403C49.9905 18.3403 48.1797 16.3792 48.1797 13.1888V13.1945Z" fill="white"/>
<path d="M58.8047 13.1945C58.8047 10.14 60.4746 8.04297 63.7102 8.04297C66.9459 8.04297 68.6372 10.195 68.6372 12.9631C68.6372 13.1164 68.6373 13.29 68.5974 13.4433H60.496C60.5359 16.1333 61.881 17.2296 63.8359 17.2296C65.5242 17.2296 66.5445 16.385 66.9091 15.1354H68.4166C67.9295 17.1139 66.4832 18.3461 63.8359 18.3461C60.6002 18.3461 58.8077 16.385 58.8077 13.1945H58.8047ZM60.493 12.3673H66.9459C66.7222 10.2152 65.5211 9.15948 63.7102 9.15948C61.8994 9.15948 60.7167 10.2152 60.493 12.3673Z" fill="white"/>
<path d="M69.7148 15.3476C69.7148 13.7914 70.631 12.484 73.3795 12.2728L75.7602 12.0819C76.37 12.0241 76.5538 11.7927 76.5538 11.5063C76.5538 10.8526 76.1065 10.5084 75.3313 10.5084C74.5561 10.5084 74.1302 10.8555 74.029 11.5063H70.2848C70.2848 9.41214 71.731 8.04688 75.2914 8.04688C78.8519 8.04688 80.2981 9.41214 80.2981 11.5063V15.6195C80.2981 16.9645 80.4207 17.8294 80.6229 18.1562H77.2034C76.9184 17.8496 76.756 17.4649 76.756 17.0021C76.1463 17.8872 75.2914 18.3471 73.5817 18.3471C71.0385 18.3471 69.7148 17.1756 69.7148 15.3505V15.3476ZM76.5538 14.2918V13.9447C76.4527 14.0228 76.1463 14.0807 75.7388 14.1183L74.7399 14.1964C73.8023 14.2542 73.4561 14.6013 73.4561 15.0815C73.4561 15.6773 73.8421 16.0042 74.697 16.0042C75.8368 16.0042 76.5508 15.2348 76.5508 14.2947L76.5538 14.2918Z" fill="white"/>
<path d="M81.9297 18.1528V8.23729H85.4717V10.2736C86.0018 8.54389 86.8751 8.08398 88.1987 8.08398C88.4837 8.08398 89.0138 8.16208 89.1762 8.23729V11.312H88.0364C86.6116 11.312 85.674 12.1971 85.674 13.7331V18.1528H81.9297Z" fill="white"/>
<path d="M95.9979 10.6975V8.23889H94.0247V6.52942C93.5283 6.70875 92.9094 6.81578 92.2353 6.81578C91.4846 6.81578 90.7982 6.68272 90.2773 6.46289V14.828C90.2773 17.4226 91.1322 18.2672 93.942 18.2672C94.4904 18.2672 95.5107 18.1891 95.9979 18.1515V15.8057H94.9194C94.3096 15.8057 94.0247 15.5367 94.0247 14.9611V10.6946H95.9979V10.6975Z" fill="white"/>
<path d="M92.1265 2.50781L91.0234 4.19415C91.0633 4.24332 91.3421 4.52679 92.1204 4.56728C92.8986 4.60778 93.3031 4.26357 93.2541 4.22886L92.1265 2.50781Z" fill="#B614DD"/>
</g>
<defs>
<clipPath id="clip0_22444_186358">
<rect width="96" height="25" fill="white"/>
</clipPath>
</defs>
</svg>
