<svg width="26" height="25" viewBox="0 0 26 25" fill="none" xmlns="http://www.w3.org/2000/svg">
<g clip-path="url(#clip0_9015_107061)">
<path d="M23.1231 12.5001V12.4949C23.1231 9.38775 21.7703 6.59737 19.6222 4.6785L19.6117 4.66975C19.5852 4.64115 19.5555 4.61561 19.5233 4.59362L19.5216 4.59275C17.6137 2.91759 15.1602 1.99605 12.6213 2.001C9.9683 2.001 7.5463 2.98625 5.70005 4.612L5.71143 4.60237C5.68917 4.61925 5.66865 4.6383 5.65018 4.65925C4.54026 5.64204 3.65184 6.85033 3.04378 8.20238C2.43571 9.55443 2.12187 11.0203 2.12305 12.5027C2.12305 15.609 3.47405 18.3994 5.62043 20.3191L5.63093 20.3279C5.65872 20.3594 5.68981 20.3879 5.72368 20.4127L5.72543 20.4136C7.63278 22.0863 10.0844 23.0065 12.6213 23.0019C15.1701 23.0058 17.6322 22.0771 19.5434 20.3909L19.5321 20.4005C20.6612 19.4188 21.5663 18.206 22.1862 16.8442C22.806 15.4824 23.1261 14.0034 23.1248 12.5071V12.501L23.1231 12.5001ZM19.2188 19.3295C18.6987 18.9088 18.1393 18.539 17.5484 18.2252L17.4915 18.1972C18.0279 16.6511 18.3508 14.8687 18.3814 13.0146V13.0006H22.1098C21.9841 15.3993 20.9516 17.6607 19.2214 19.3269L19.2188 19.3295ZM13.1235 18.0126C14.2462 18.073 15.2953 18.3197 16.2631 18.7214L16.2 18.6986C15.4248 20.4661 14.3337 21.6806 13.1235 21.9475V18.0126ZM13.1235 17.0116V13.0006H17.3831C17.3493 14.6616 17.0613 16.3076 16.5291 17.8814L16.5632 17.7667C15.4768 17.3202 14.3214 17.0651 13.1481 17.0125L13.1244 17.0116H13.1235ZM13.1235 11.9996V7.98862C14.3286 7.93362 15.5149 7.66983 16.6297 7.209L16.5606 7.23437C17.0462 8.651 17.3446 10.2837 17.3831 11.9812V11.9996H13.1235ZM13.1235 6.98762V3.0545C14.3337 3.32137 15.4248 4.53062 16.2 6.30337C15.2953 6.67962 14.2462 6.9255 13.1489 6.98675L13.1235 6.98762ZM15.6208 3.48762C16.6519 3.83153 17.6161 4.35007 18.4715 5.02062L18.4514 5.00487C18.0638 5.30937 17.6289 5.59637 17.1704 5.84575L17.1214 5.87025C16.7509 4.99588 16.2415 4.18716 15.6129 3.47537L15.6208 3.485V3.48762ZM12.1208 3.05712V6.98762C11.0415 6.93256 9.97959 6.69284 8.9813 6.27887L9.0443 6.30162C9.82305 4.53412 10.9124 3.3205 12.1226 3.05362L12.1208 3.05712ZM8.1238 5.86762C7.64949 5.61243 7.19755 5.31768 6.7728 4.9865L6.7938 5.00225C7.62429 4.35138 8.55843 3.84497 9.55705 3.50425L9.62355 3.48412C9.01141 4.17663 8.51263 4.96157 8.14568 5.80987L8.1238 5.86762ZM12.1226 7.98775V11.9987H7.86305C7.90155 10.2829 8.19993 8.65012 8.71968 7.11887L8.68555 7.2335C9.77148 7.67928 10.9262 7.93415 12.0989 7.98687L12.1226 7.98775ZM12.1226 12.9997V17.0107C10.9175 17.0657 9.7312 17.3295 8.61643 17.7904L8.68555 17.765C8.19993 16.3492 7.90155 14.7156 7.86305 13.0181V12.9997H12.1226ZM12.1226 18.0117V21.9449C10.9124 21.678 9.8213 20.4687 9.04605 18.696C9.9508 18.3197 10.9999 18.0747 12.0972 18.0135L12.1226 18.0117ZM9.6288 21.5117C8.59801 21.1688 7.63375 20.6515 6.77805 19.9822L6.79905 19.998C7.18668 19.6935 7.62155 19.4065 8.08005 19.1571L8.12905 19.1326C8.49645 20.0073 9.00585 20.8154 9.63667 21.524L9.6288 21.5152V21.5117ZM17.1223 19.1317C17.6298 19.4074 18.0647 19.6935 18.4733 20.0129L18.4523 19.9971C17.6218 20.648 16.6877 21.1544 15.689 21.4951L15.6226 21.5152C16.2347 20.8231 16.7335 20.0384 17.1004 19.1904L17.1223 19.1335V19.1317ZM22.1098 11.9996H18.3814C18.3546 10.1892 18.0422 8.39437 17.4557 6.68137L17.4915 6.80212C18.1097 6.47668 18.6948 6.09222 19.2389 5.65412L19.2179 5.66987C20.9445 7.32977 21.9774 9.58273 22.1081 11.9742L22.1098 11.9996ZM6.0273 5.67075C6.5313 6.08025 7.09742 6.45562 7.69768 6.775L7.75455 6.803C7.21817 8.34912 6.8953 10.1315 6.86468 11.9856V11.9996H3.13543C3.26116 9.6009 4.29362 7.33955 6.0238 5.67337L6.0273 5.67075ZM3.1363 13.0006H6.86468C6.8915 14.811 7.20393 16.6059 7.79043 18.3189L7.75455 18.1981C7.09742 18.5472 6.53218 18.9226 6.00718 19.3461L6.02818 19.3304C4.30157 17.6705 3.26874 15.4175 3.13805 13.026L3.13718 13.0015L3.1363 13.0006Z" fill="#3D9BE9"/>
</g>
<defs>
<clipPath id="clip0_9015_107061">
<rect width="21" height="21" fill="white" transform="translate(2.12305 2)"/>
</clipPath>
</defs>
</svg>
