<svg width="67" height="67" viewBox="0 0 67 67" fill="none" xmlns="http://www.w3.org/2000/svg">
<path d="M16.75 41.8191V39.0275" stroke="#292D32" stroke-width="4.19" stroke-linecap="round" stroke-linejoin="round"/>
<path d="M40.4785 3.48828C43.9616 3.48828 46.7615 6.33356 46.7617 9.77051C46.7617 11.9304 45.6558 13.856 43.9697 14.9893V18.3965C43.9697 18.5603 44.0522 18.7551 44.166 18.8691L50.084 24.7881C50.7917 25.4958 51.3381 26.423 51.707 27.3125C52.0756 28.2012 52.3447 29.2402 52.3447 30.2334V53.042C52.3445 58.8051 47.6381 63.5117 41.875 63.5117H25.125C19.3619 63.5117 14.6555 58.8051 14.6553 53.042V30.2334C14.6553 29.2402 14.9244 28.2012 15.293 27.3125C15.6619 26.423 16.2083 25.4958 16.916 24.7881L22.834 18.8691C22.9478 18.7551 23.0303 18.5603 23.0303 18.3965V14.9893C21.3444 13.856 20.2383 11.9304 20.2383 9.77051C20.2385 6.33364 23.0376 3.48841 26.5205 3.48828H40.4785ZM18.8447 53.042C18.845 56.491 21.6759 59.3213 25.125 59.3213H41.875C45.3241 59.3213 48.155 56.491 48.1553 53.042V43.9697H39.418C38.6708 43.9697 37.9295 43.9161 37.1982 43.8096C36.9059 43.767 36.615 43.7166 36.3262 43.6572C35.4593 43.4791 34.6092 43.2254 33.7832 42.8984C33.5079 42.7895 33.2355 42.6721 32.9658 42.5469C32.8309 42.4842 32.6969 42.4192 32.5635 42.3525C32.3693 42.2554 32.1729 42.1643 31.9746 42.0791C31.7766 41.994 31.5766 41.915 31.375 41.8418C30.7696 41.622 30.1491 41.4557 29.5195 41.3447C28.8898 41.2337 28.251 41.1777 27.6094 41.1777H27.5986L18.8447 41.1328V53.042ZM27.2197 18.3965C27.2197 19.684 26.6877 20.9411 25.7969 21.832L19.8789 27.751C19.6655 27.9644 19.3874 28.377 19.1631 28.918C18.9386 29.4595 18.8448 29.9425 18.8447 30.2334V36.9424L27.6201 36.9883H27.6191C27.7667 36.9884 27.9142 36.9907 28.0615 36.9951C28.2088 36.9995 28.356 37.006 28.5029 37.0146C29.2376 37.0579 29.9667 37.1551 30.6855 37.3037C31.2605 37.4225 31.8286 37.5749 32.3877 37.7598C32.6674 37.8523 32.9449 37.9526 33.2197 38.0615C33.3568 38.1158 33.4932 38.1721 33.6289 38.2305C33.901 38.3474 34.1703 38.4724 34.4365 38.6055C34.5334 38.6539 34.6306 38.7016 34.7285 38.7471C34.9246 38.8382 35.1231 38.9227 35.3232 39.002C35.8233 39.2 36.3353 39.3604 36.8564 39.4834C37.6902 39.6799 38.5476 39.7793 39.418 39.7793H48.1553V30.2334C48.1552 29.9425 48.0614 29.4595 47.8369 28.918C47.6126 28.377 47.3345 27.9644 47.1211 27.751L41.2031 21.832C40.3123 20.9411 39.7803 19.684 39.7803 18.3965V16.0527H27.2197V18.3965ZM26.5205 7.67773C25.3698 7.67787 24.4279 8.62953 24.4277 9.77051C24.4277 10.9116 25.3696 11.8631 26.5205 11.8633H40.4785C41.6295 11.8633 42.5713 10.9117 42.5713 9.77051C42.5711 8.62945 41.6294 7.67773 40.4785 7.67773H26.5205Z" fill="url(#paint0_linear_4016_33768)"/>
<defs>
<linearGradient id="paint0_linear_4016_33768" x1="33.5" y1="3.48828" x2="33.5" y2="63.5117" gradientUnits="userSpaceOnUse">
<stop stop-color="#9A9A9F"/>
<stop offset="1" stop-color="#CDCDCD"/>
</linearGradient>
</defs>
</svg>
